<?xml version="1.0" encoding="utf-8"?>
<svg xmlns="http://www.w3.org/2000/svg" xmlns:xlink="http://www.w3.org/1999/xlink" width="600" height="400" viewBox="0 0 2400 1600">
<defs>
  <clipPath id="clip660">
    <rect x="0" y="0" width="2400" height="1600"/>
  </clipPath>
</defs>
<path clip-path="url(#clip660)" d="M0 1600 L2400 1600 L2400 0 L0 0  Z" fill="#ffffff" fill-rule="evenodd" fill-opacity="1"/>
<defs>
  <clipPath id="clip661">
    <rect x="480" y="0" width="1681" height="1600"/>
  </clipPath>
</defs>
<path clip-path="url(#clip660)" d="M47.2441 1388.98 L2352.76 1388.98 L2352.76 114.832 L47.2441 114.832  Z" fill="#ffffff" fill-rule="evenodd" fill-opacity="1"/>
<defs>
  <clipPath id="clip662">
    <rect x="47" y="114" width="2307" height="1275"/>
  </clipPath>
</defs>
<polyline clip-path="url(#clip662)" style="stroke:#000000; stroke-linecap:round; stroke-linejoin:round; stroke-width:2; stroke-opacity:0.1; fill:none" points="376.603,1388.98 376.603,114.832 "/>
<polyline clip-path="url(#clip662)" style="stroke:#000000; stroke-linecap:round; stroke-linejoin:round; stroke-width:2; stroke-opacity:0.1; fill:none" points="2023.4,1388.98 2023.4,114.832 "/>
<path clip-path="url(#clip660)" d="M801.79 37.9026 Q804.047 38.6665 806.165 41.1664 Q808.318 43.6664 810.471 48.0414 L817.589 62.208 L810.054 62.208 L803.422 48.9095 Q800.853 43.7012 798.422 41.9998 Q796.026 40.2984 791.86 40.2984 L784.221 40.2984 L784.221 62.208 L777.207 62.208 L777.207 10.368 L793.04 10.368 Q801.929 10.368 806.304 14.0833 Q810.679 17.7985 810.679 25.2985 Q810.679 30.1943 808.388 33.4234 Q806.131 36.6526 801.79 37.9026 M784.221 16.1319 L784.221 34.5345 L793.04 34.5345 Q798.11 34.5345 800.679 32.2082 Q803.283 29.8471 803.283 25.2985 Q803.283 20.7499 800.679 18.4582 Q798.11 16.1319 793.04 16.1319 L784.221 16.1319 Z" fill="#000000" fill-rule="nonzero" fill-opacity="1" /><path clip-path="url(#clip660)" d="M856.408 41.1664 L856.408 44.2914 L827.033 44.2914 Q827.45 50.8886 830.992 54.3608 Q834.568 57.7983 840.922 57.7983 Q844.603 57.7983 848.04 56.8955 Q851.512 55.9928 854.915 54.1872 L854.915 60.2288 Q851.478 61.6872 847.866 62.4511 Q844.255 63.2149 840.54 63.2149 Q831.235 63.2149 825.783 57.7983 Q820.367 52.3817 820.367 43.1456 Q820.367 33.597 825.505 28.0068 Q830.679 22.3818 839.429 22.3818 Q847.276 22.3818 851.825 27.4512 Q856.408 32.4859 856.408 41.1664 M850.019 39.2915 Q849.95 34.0484 847.068 30.9234 Q844.221 27.7985 839.498 27.7985 Q834.151 27.7985 830.922 30.8193 Q827.728 33.8401 827.242 39.3262 L850.019 39.2915 Z" fill="#000000" fill-rule="nonzero" fill-opacity="1" /><path clip-path="url(#clip660)" d="M894.88 24.8124 L894.88 30.7846 Q892.172 29.2915 889.429 28.5623 Q886.72 27.7985 883.943 27.7985 Q877.727 27.7985 874.29 31.7568 Q870.852 35.6804 870.852 42.7984 Q870.852 49.9164 874.29 53.8747 Q877.727 57.7983 883.943 57.7983 Q886.72 57.7983 889.429 57.0691 Q892.172 56.3053 894.88 54.8122 L894.88 60.715 Q892.207 61.9649 889.325 62.5899 Q886.477 63.2149 883.248 63.2149 Q874.464 63.2149 869.29 57.6941 Q864.116 52.1733 864.116 42.7984 Q864.116 33.2845 869.325 27.8332 Q874.568 22.3818 883.665 22.3818 Q886.616 22.3818 889.429 23.0068 Q892.241 23.5971 894.88 24.8124 Z" fill="#000000" fill-rule="nonzero" fill-opacity="1" /><path clip-path="url(#clip660)" d="M905.331 46.8609 L905.331 23.3193 L911.72 23.3193 L911.72 46.6178 Q911.72 52.1386 913.873 54.9164 Q916.026 57.6594 920.331 57.6594 Q925.505 57.6594 928.491 54.3608 Q931.512 51.0622 931.512 45.3678 L931.512 23.3193 L937.901 23.3193 L937.901 62.208 L931.512 62.208 L931.512 56.2358 Q929.185 59.7775 926.095 61.5136 Q923.04 63.2149 918.977 63.2149 Q912.276 63.2149 908.804 59.0483 Q905.331 54.8817 905.331 46.8609 M921.408 22.3818 L921.408 22.3818 Z" fill="#000000" fill-rule="nonzero" fill-opacity="1" /><path clip-path="url(#clip660)" d="M973.595 29.2915 Q972.519 28.6665 971.234 28.3887 Q969.984 28.0762 968.456 28.0762 Q963.039 28.0762 960.123 31.6179 Q957.241 35.1248 957.241 41.722 L957.241 62.208 L950.817 62.208 L950.817 23.3193 L957.241 23.3193 L957.241 29.361 Q959.255 25.8193 962.484 24.1179 Q965.713 22.3818 970.331 22.3818 Q970.991 22.3818 971.789 22.486 Q972.588 22.5554 973.56 22.729 L973.595 29.2915 Z" fill="#000000" fill-rule="nonzero" fill-opacity="1" /><path clip-path="url(#clip660)" d="M995.643 8.24996 Q990.991 16.236 988.734 24.0485 Q986.477 31.8609 986.477 39.8817 Q986.477 47.9025 988.734 55.7844 Q991.025 63.6316 995.643 71.5829 L990.088 71.5829 Q984.88 63.4233 982.275 55.5414 Q979.706 47.6595 979.706 39.8817 Q979.706 32.1387 982.275 24.2915 Q984.845 16.4444 990.088 8.24996 L995.643 8.24996 Z" fill="#000000" fill-rule="nonzero" fill-opacity="1" /><path clip-path="url(#clip660)" d="M1043.66 54.8122 L1043.66 40.8887 L1032.21 40.8887 L1032.21 35.1248 L1050.61 35.1248 L1050.61 57.3816 Q1046.55 60.2636 1041.65 61.7566 Q1036.75 63.2149 1031.2 63.2149 Q1019.05 63.2149 1012.17 56.1316 Q1005.33 49.0136 1005.33 36.3401 Q1005.33 23.6318 1012.17 16.5485 Q1019.05 9.43051 1031.2 9.43051 Q1036.27 9.43051 1040.82 10.6805 Q1045.4 11.9305 1049.25 14.361 L1049.25 21.8263 Q1045.37 18.5277 1040.99 16.861 Q1036.62 15.1944 1031.79 15.1944 Q1022.28 15.1944 1017.48 20.5068 Q1012.73 25.8193 1012.73 36.3401 Q1012.73 46.8261 1017.48 52.1386 Q1022.28 57.4511 1031.79 57.4511 Q1035.5 57.4511 1038.42 56.8261 Q1041.34 56.1664 1043.66 54.8122 Z" fill="#000000" fill-rule="nonzero" fill-opacity="1" /><path clip-path="url(#clip660)" d="M1088 37.9026 Q1090.26 38.6665 1092.38 41.1664 Q1094.53 43.6664 1096.68 48.0414 L1103.8 62.208 L1096.27 62.208 L1089.64 48.9095 Q1087.07 43.7012 1084.64 41.9998 Q1082.24 40.2984 1078.07 40.2984 L1070.43 40.2984 L1070.43 62.208 L1063.42 62.208 L1063.42 10.368 L1079.25 10.368 Q1088.14 10.368 1092.52 14.0833 Q1096.89 17.7985 1096.89 25.2985 Q1096.89 30.1943 1094.6 33.4234 Q1092.34 36.6526 1088 37.9026 M1070.43 16.1319 L1070.43 34.5345 L1079.25 34.5345 Q1084.32 34.5345 1086.89 32.2082 Q1089.5 29.8471 1089.5 25.2985 Q1089.5 20.7499 1086.89 18.4582 Q1084.32 16.1319 1079.25 16.1319 L1070.43 16.1319 Z" fill="#000000" fill-rule="nonzero" fill-opacity="1" /><path clip-path="url(#clip660)" d="M1112.03 10.368 L1119.08 10.368 L1119.08 41.8609 Q1119.08 50.1942 1122.1 53.8747 Q1125.12 57.5205 1131.89 57.5205 Q1138.63 57.5205 1141.65 53.8747 Q1144.67 50.1942 1144.67 41.8609 L1144.67 10.368 L1151.72 10.368 L1151.72 42.7289 Q1151.72 52.8678 1146.68 58.0414 Q1141.68 63.2149 1131.89 63.2149 Q1122.07 63.2149 1117.03 58.0414 Q1112.03 52.8678 1112.03 42.7289 L1112.03 10.368 Z" fill="#000000" fill-rule="nonzero" fill-opacity="1" /><path clip-path="url(#clip660)" d="M1203.7 14.361 L1203.7 21.7568 Q1200.16 18.4582 1196.13 16.8263 Q1192.14 15.1944 1187.62 15.1944 Q1178.73 15.1944 1174.01 20.6457 Q1169.29 26.0624 1169.29 36.3401 Q1169.29 46.5831 1174.01 52.0344 Q1178.73 57.4511 1187.62 57.4511 Q1192.14 57.4511 1196.13 55.8191 Q1200.16 54.1872 1203.7 50.8886 L1203.7 58.215 Q1200.02 60.715 1195.89 61.9649 Q1191.79 63.2149 1187.2 63.2149 Q1175.43 63.2149 1168.66 56.0275 Q1161.89 48.8053 1161.89 36.3401 Q1161.89 23.8402 1168.66 16.6527 Q1175.43 9.43051 1187.2 9.43051 Q1191.86 9.43051 1195.95 10.6805 Q1200.09 11.8958 1203.7 14.361 Z" fill="#000000" fill-rule="nonzero" fill-opacity="1" /><path clip-path="url(#clip660)" d="M1247.52 41.1664 L1247.52 44.2914 L1218.14 44.2914 Q1218.56 50.8886 1222.1 54.3608 Q1225.68 57.7983 1232.03 57.7983 Q1235.71 57.7983 1239.15 56.8955 Q1242.62 55.9928 1246.02 54.1872 L1246.02 60.2288 Q1242.59 61.6872 1238.98 62.4511 Q1235.36 63.2149 1231.65 63.2149 Q1222.34 63.2149 1216.89 57.7983 Q1211.48 52.3817 1211.48 43.1456 Q1211.48 33.597 1216.61 28.0068 Q1221.79 22.3818 1230.54 22.3818 Q1238.39 22.3818 1242.93 27.4512 Q1247.52 32.4859 1247.52 41.1664 M1241.13 39.2915 Q1241.06 34.0484 1238.18 30.9234 Q1235.33 27.7985 1230.61 27.7985 Q1225.26 27.7985 1222.03 30.8193 Q1218.84 33.8401 1218.35 39.3262 L1241.13 39.2915 Z" fill="#000000" fill-rule="nonzero" fill-opacity="1" /><path clip-path="url(#clip660)" d="M1258 8.18051 L1264.39 8.18051 L1264.39 62.208 L1258 62.208 L1258 8.18051 Z" fill="#000000" fill-rule="nonzero" fill-opacity="1" /><path clip-path="url(#clip660)" d="M1277.76 8.18051 L1284.15 8.18051 L1284.15 62.208 L1277.76 62.208 L1277.76 8.18051 Z" fill="#000000" fill-rule="nonzero" fill-opacity="1" /><path clip-path="url(#clip660)" d="M1312.86 8.24996 Q1308.21 16.236 1305.95 24.0485 Q1303.7 31.8609 1303.7 39.8817 Q1303.7 47.9025 1305.95 55.7844 Q1308.25 63.6316 1312.86 71.5829 L1307.31 71.5829 Q1302.1 63.4233 1299.5 55.5414 Q1296.93 47.6595 1296.93 39.8817 Q1296.93 32.1387 1299.5 24.2915 Q1302.07 16.4444 1307.31 8.24996 L1312.86 8.24996 Z" fill="#000000" fill-rule="nonzero" fill-opacity="1" /><path clip-path="url(#clip660)" d="M1326.23 10.368 L1353.77 10.368 L1353.77 16.2707 L1332.66 16.2707 L1332.66 28.979 Q1334.18 28.4582 1335.71 28.2151 Q1337.24 27.9374 1338.77 27.9374 Q1347.45 27.9374 1352.52 32.6943 Q1357.59 37.4512 1357.59 45.5761 Q1357.59 53.9442 1352.38 58.5969 Q1347.17 63.2149 1337.69 63.2149 Q1334.43 63.2149 1331.02 62.6594 Q1327.66 62.1038 1324.04 60.9927 L1324.04 53.9442 Q1327.17 55.6455 1330.5 56.4789 Q1333.84 57.3122 1337.55 57.3122 Q1343.56 57.3122 1347.07 54.1525 Q1350.57 50.9928 1350.57 45.5761 Q1350.57 40.1595 1347.07 36.9998 Q1343.56 33.8401 1337.55 33.8401 Q1334.74 33.8401 1331.93 34.4651 Q1329.15 35.0901 1326.23 36.4095 L1326.23 10.368 Z" fill="#000000" fill-rule="nonzero" fill-opacity="1" /><path clip-path="url(#clip660)" d="M1393.94 29.9165 L1438.45 29.9165 L1438.45 35.7498 L1393.94 35.7498 L1393.94 29.9165 M1393.94 44.0831 L1438.45 44.0831 L1438.45 49.9858 L1393.94 49.9858 L1393.94 44.0831 Z" fill="#000000" fill-rule="nonzero" fill-opacity="1" /><path clip-path="url(#clip660)" d="M1453.52 27.2082 L1453.52 20.8888 L1498.04 37.0345 L1498.04 42.7984 L1453.52 58.9441 L1453.52 52.6247 L1489.29 39.9512 L1453.52 27.2082 Z" fill="#000000" fill-rule="nonzero" fill-opacity="1" /><path clip-path="url(#clip660)" d="M1534.01 10.368 L1567.34 10.368 L1567.34 13.3541 L1548.52 62.208 L1541.2 62.208 L1558.9 16.2707 L1534.01 16.2707 L1534.01 10.368 Z" fill="#000000" fill-rule="nonzero" fill-opacity="1" /><path clip-path="url(#clip660)" d="M1579.11 8.24996 L1584.67 8.24996 Q1589.88 16.4444 1592.45 24.2915 Q1595.05 32.1387 1595.05 39.8817 Q1595.05 47.6595 1592.45 55.5414 Q1589.88 63.4233 1584.67 71.5829 L1579.11 71.5829 Q1583.73 63.6316 1585.99 55.7844 Q1588.28 47.9025 1588.28 39.8817 Q1588.28 31.8609 1585.99 24.0485 Q1583.73 16.236 1579.11 8.24996 Z" fill="#000000" fill-rule="nonzero" fill-opacity="1" /><path clip-path="url(#clip660)" d="M1606.86 8.24996 L1612.41 8.24996 Q1617.62 16.4444 1620.19 24.2915 Q1622.79 32.1387 1622.79 39.8817 Q1622.79 47.6595 1620.19 55.5414 Q1617.62 63.4233 1612.41 71.5829 L1606.86 71.5829 Q1611.47 63.6316 1613.73 55.7844 Q1616.02 47.9025 1616.02 39.8817 Q1616.02 31.8609 1613.73 24.0485 Q1611.47 16.236 1606.86 8.24996 Z" fill="#000000" fill-rule="nonzero" fill-opacity="1" /><polyline clip-path="url(#clip662)" style="stroke:#adadad; stroke-linecap:round; stroke-linejoin:round; stroke-width:4; stroke-opacity:1; fill:none" points="376.603,1045.94 2023.4,1168.45 "/>
<polyline clip-path="url(#clip662)" style="stroke:#adadad; stroke-linecap:round; stroke-linejoin:round; stroke-width:4; stroke-opacity:1; fill:none" points="376.603,1045.94 2023.4,1045.94 "/>
<polyline clip-path="url(#clip662)" style="stroke:#adadad; stroke-linecap:round; stroke-linejoin:round; stroke-width:4; stroke-opacity:1; fill:none" points="376.603,1045.94 2023.4,923.426 "/>
<polyline clip-path="url(#clip662)" style="stroke:#adadad; stroke-linecap:round; stroke-linejoin:round; stroke-width:4; stroke-opacity:1; fill:none" points="376.603,1045.94 2023.4,800.912 "/>
<polyline clip-path="url(#clip662)" style="stroke:#adadad; stroke-linecap:round; stroke-linejoin:round; stroke-width:4; stroke-opacity:1; fill:none" points="376.603,1045.94 2023.4,678.398 "/>
<polyline clip-path="url(#clip662)" style="stroke:#adadad; stroke-linecap:round; stroke-linejoin:round; stroke-width:4; stroke-opacity:1; fill:none" points="376.603,1045.94 2023.4,555.883 "/>
<polyline clip-path="url(#clip662)" style="stroke:#adadad; stroke-linecap:round; stroke-linejoin:round; stroke-width:4; stroke-opacity:1; fill:none" points="376.603,1045.94 2023.4,433.369 "/>
<polyline clip-path="url(#clip662)" style="stroke:#adadad; stroke-linecap:round; stroke-linejoin:round; stroke-width:4; stroke-opacity:1; fill:none" points="376.603,923.426 2023.4,1168.45 "/>
<polyline clip-path="url(#clip662)" style="stroke:#adadad; stroke-linecap:round; stroke-linejoin:round; stroke-width:4; stroke-opacity:1; fill:none" points="376.603,923.426 2023.4,1045.94 "/>
<polyline clip-path="url(#clip662)" style="stroke:#adadad; stroke-linecap:round; stroke-linejoin:round; stroke-width:4; stroke-opacity:1; fill:none" points="376.603,923.426 2023.4,923.426 "/>
<polyline clip-path="url(#clip662)" style="stroke:#adadad; stroke-linecap:round; stroke-linejoin:round; stroke-width:4; stroke-opacity:1; fill:none" points="376.603,923.426 2023.4,800.912 "/>
<polyline clip-path="url(#clip662)" style="stroke:#adadad; stroke-linecap:round; stroke-linejoin:round; stroke-width:4; stroke-opacity:1; fill:none" points="376.603,923.426 2023.4,678.398 "/>
<polyline clip-path="url(#clip662)" style="stroke:#adadad; stroke-linecap:round; stroke-linejoin:round; stroke-width:4; stroke-opacity:1; fill:none" points="376.603,923.426 2023.4,555.883 "/>
<polyline clip-path="url(#clip662)" style="stroke:#adadad; stroke-linecap:round; stroke-linejoin:round; stroke-width:4; stroke-opacity:1; fill:none" points="376.603,923.426 2023.4,433.369 "/>
<polyline clip-path="url(#clip662)" style="stroke:#adadad; stroke-linecap:round; stroke-linejoin:round; stroke-width:4; stroke-opacity:1; fill:none" points="376.603,800.912 2023.4,1168.45 "/>
<polyline clip-path="url(#clip662)" style="stroke:#adadad; stroke-linecap:round; stroke-linejoin:round; stroke-width:4; stroke-opacity:1; fill:none" points="376.603,800.912 2023.4,1045.94 "/>
<polyline clip-path="url(#clip662)" style="stroke:#adadad; stroke-linecap:round; stroke-linejoin:round; stroke-width:4; stroke-opacity:1; fill:none" points="376.603,800.912 2023.4,923.426 "/>
<polyline clip-path="url(#clip662)" style="stroke:#adadad; stroke-linecap:round; stroke-linejoin:round; stroke-width:4; stroke-opacity:1; fill:none" points="376.603,800.912 2023.4,800.912 "/>
<polyline clip-path="url(#clip662)" style="stroke:#adadad; stroke-linecap:round; stroke-linejoin:round; stroke-width:4; stroke-opacity:1; fill:none" points="376.603,800.912 2023.4,678.398 "/>
<polyline clip-path="url(#clip662)" style="stroke:#adadad; stroke-linecap:round; stroke-linejoin:round; stroke-width:4; stroke-opacity:1; fill:none" points="376.603,800.912 2023.4,555.883 "/>
<polyline clip-path="url(#clip662)" style="stroke:#adadad; stroke-linecap:round; stroke-linejoin:round; stroke-width:4; stroke-opacity:1; fill:none" points="376.603,800.912 2023.4,433.369 "/>
<polyline clip-path="url(#clip662)" style="stroke:#adadad; stroke-linecap:round; stroke-linejoin:round; stroke-width:4; stroke-opacity:1; fill:none" points="376.603,678.398 2023.4,1168.45 "/>
<polyline clip-path="url(#clip662)" style="stroke:#adadad; stroke-linecap:round; stroke-linejoin:round; stroke-width:4; stroke-opacity:1; fill:none" points="376.603,678.398 2023.4,1045.94 "/>
<polyline clip-path="url(#clip662)" style="stroke:#adadad; stroke-linecap:round; stroke-linejoin:round; stroke-width:4; stroke-opacity:1; fill:none" points="376.603,678.398 2023.4,923.426 "/>
<polyline clip-path="url(#clip662)" style="stroke:#adadad; stroke-linecap:round; stroke-linejoin:round; stroke-width:4; stroke-opacity:1; fill:none" points="376.603,678.398 2023.4,800.912 "/>
<polyline clip-path="url(#clip662)" style="stroke:#adadad; stroke-linecap:round; stroke-linejoin:round; stroke-width:4; stroke-opacity:1; fill:none" points="376.603,678.398 2023.4,678.398 "/>
<polyline clip-path="url(#clip662)" style="stroke:#adadad; stroke-linecap:round; stroke-linejoin:round; stroke-width:4; stroke-opacity:1; fill:none" points="376.603,678.398 2023.4,555.883 "/>
<polyline clip-path="url(#clip662)" style="stroke:#adadad; stroke-linecap:round; stroke-linejoin:round; stroke-width:4; stroke-opacity:1; fill:none" points="376.603,678.398 2023.4,433.369 "/>
<polyline clip-path="url(#clip662)" style="stroke:#adadad; stroke-linecap:round; stroke-linejoin:round; stroke-width:4; stroke-opacity:1; fill:none" points="376.603,555.883 2023.4,1168.45 "/>
<polyline clip-path="url(#clip662)" style="stroke:#adadad; stroke-linecap:round; stroke-linejoin:round; stroke-width:4; stroke-opacity:1; fill:none" points="376.603,555.883 2023.4,1045.94 "/>
<polyline clip-path="url(#clip662)" style="stroke:#adadad; stroke-linecap:round; stroke-linejoin:round; stroke-width:4; stroke-opacity:1; fill:none" points="376.603,555.883 2023.4,923.426 "/>
<polyline clip-path="url(#clip662)" style="stroke:#adadad; stroke-linecap:round; stroke-linejoin:round; stroke-width:4; stroke-opacity:1; fill:none" points="376.603,555.883 2023.4,800.912 "/>
<polyline clip-path="url(#clip662)" style="stroke:#adadad; stroke-linecap:round; stroke-linejoin:round; stroke-width:4; stroke-opacity:1; fill:none" points="376.603,555.883 2023.4,678.398 "/>
<polyline clip-path="url(#clip662)" style="stroke:#adadad; stroke-linecap:round; stroke-linejoin:round; stroke-width:4; stroke-opacity:1; fill:none" points="376.603,555.883 2023.4,555.883 "/>
<polyline clip-path="url(#clip662)" style="stroke:#adadad; stroke-linecap:round; stroke-linejoin:round; stroke-width:4; stroke-opacity:1; fill:none" points="376.603,555.883 2023.4,433.369 "/>
<path clip-path="url(#clip662)" d="M376.603 1086.55 L364.054 1084.56 L352.734 1078.79 L343.75 1069.81 L337.982 1058.49 L335.995 1045.94 L337.982 1033.39 L343.75 1022.07 L352.734 1013.09 L364.054 1007.32 L376.603 1005.33 L389.151 1007.32 L400.472 1013.09 L409.455 1022.07 L415.223 1033.39 L417.211 1045.94 L415.223 1058.49 L409.455 1069.81 L400.472 1078.79 L389.151 1084.56 L376.603 1086.55  Z" fill="#000000" fill-rule="evenodd" fill-opacity="0"/>
<polyline clip-path="url(#clip662)" style="stroke:#000000; stroke-linecap:round; stroke-linejoin:round; stroke-width:4; stroke-opacity:1; fill:none" points="376.603,1086.55 364.054,1084.56 352.734,1078.79 343.75,1069.81 337.982,1058.49 335.995,1045.94 337.982,1033.39 343.75,1022.07 352.734,1013.09 364.054,1007.32 376.603,1005.33 389.151,1007.32 400.472,1013.09 409.455,1022.07 415.223,1033.39 417.211,1045.94 415.223,1058.49 409.455,1069.81 400.472,1078.79 389.151,1084.56 376.603,1086.55 "/>
<path clip-path="url(#clip662)" d="M376.603 964.034 L364.054 962.047 L352.734 956.279 L343.75 947.295 L337.982 935.975 L335.995 923.426 L337.982 910.878 L343.75 899.557 L352.734 890.574 L364.054 884.806 L376.603 882.818 L389.151 884.806 L400.472 890.574 L409.455 899.557 L415.223 910.878 L417.211 923.426 L415.223 935.975 L409.455 947.295 L400.472 956.279 L389.151 962.047 L376.603 964.034  Z" fill="#000000" fill-rule="evenodd" fill-opacity="0"/>
<polyline clip-path="url(#clip662)" style="stroke:#000000; stroke-linecap:round; stroke-linejoin:round; stroke-width:4; stroke-opacity:1; fill:none" points="376.603,964.034 364.054,962.047 352.734,956.279 343.75,947.295 337.982,935.975 335.995,923.426 337.982,910.878 343.75,899.557 352.734,890.574 364.054,884.806 376.603,882.818 389.151,884.806 400.472,890.574 409.455,899.557 415.223,910.878 417.211,923.426 415.223,935.975 409.455,947.295 400.472,956.279 389.151,962.047 376.603,964.034 "/>
<path clip-path="url(#clip662)" d="M376.603 841.52 L364.054 839.532 L352.734 833.765 L343.75 824.781 L337.982 813.461 L335.995 800.912 L337.982 788.363 L343.75 777.043 L352.734 768.059 L364.054 762.291 L376.603 760.304 L389.151 762.291 L400.472 768.059 L409.455 777.043 L415.223 788.363 L417.211 800.912 L415.223 813.461 L409.455 824.781 L400.472 833.765 L389.151 839.532 L376.603 841.52  Z" fill="#000000" fill-rule="evenodd" fill-opacity="0"/>
<polyline clip-path="url(#clip662)" style="stroke:#000000; stroke-linecap:round; stroke-linejoin:round; stroke-width:4; stroke-opacity:1; fill:none" points="376.603,841.52 364.054,839.532 352.734,833.765 343.75,824.781 337.982,813.461 335.995,800.912 337.982,788.363 343.75,777.043 352.734,768.059 364.054,762.291 376.603,760.304 389.151,762.291 400.472,768.059 409.455,777.043 415.223,788.363 417.211,800.912 415.223,813.461 409.455,824.781 400.472,833.765 389.151,839.532 376.603,841.52 "/>
<path clip-path="url(#clip662)" d="M376.603 719.006 L364.054 717.018 L352.734 711.25 L343.75 702.267 L337.982 690.946 L335.995 678.398 L337.982 665.849 L343.75 654.529 L352.734 645.545 L364.054 639.777 L376.603 637.79 L389.151 639.777 L400.472 645.545 L409.455 654.529 L415.223 665.849 L417.211 678.398 L415.223 690.946 L409.455 702.267 L400.472 711.25 L389.151 717.018 L376.603 719.006  Z" fill="#000000" fill-rule="evenodd" fill-opacity="0"/>
<polyline clip-path="url(#clip662)" style="stroke:#000000; stroke-linecap:round; stroke-linejoin:round; stroke-width:4; stroke-opacity:1; fill:none" points="376.603,719.006 364.054,717.018 352.734,711.25 343.75,702.267 337.982,690.946 335.995,678.398 337.982,665.849 343.75,654.529 352.734,645.545 364.054,639.777 376.603,637.79 389.151,639.777 400.472,645.545 409.455,654.529 415.223,665.849 417.211,678.398 415.223,690.946 409.455,702.267 400.472,711.25 389.151,717.018 376.603,719.006 "/>
<path clip-path="url(#clip662)" d="M376.603 596.491 L364.054 594.504 L352.734 588.736 L343.75 579.752 L337.982 568.432 L335.995 555.883 L337.982 543.335 L343.75 532.015 L352.734 523.031 L364.054 517.263 L376.603 515.275 L389.151 517.263 L400.472 523.031 L409.455 532.015 L415.223 543.335 L417.211 555.883 L415.223 568.432 L409.455 579.752 L400.472 588.736 L389.151 594.504 L376.603 596.491  Z" fill="#000000" fill-rule="evenodd" fill-opacity="0"/>
<polyline clip-path="url(#clip662)" style="stroke:#000000; stroke-linecap:round; stroke-linejoin:round; stroke-width:4; stroke-opacity:1; fill:none" points="376.603,596.491 364.054,594.504 352.734,588.736 343.75,579.752 337.982,568.432 335.995,555.883 337.982,543.335 343.75,532.015 352.734,523.031 364.054,517.263 376.603,515.275 389.151,517.263 400.472,523.031 409.455,532.015 415.223,543.335 417.211,555.883 415.223,568.432 409.455,579.752 400.472,588.736 389.151,594.504 376.603,596.491 "/>
<path clip-path="url(#clip662)" d="M2023.4 1174.21 L2018.95 1172.24 L2014.93 1166.51 L2011.75 1157.59 L2009.7 1146.35 L2009 1133.89 L2009.7 1121.44 L2011.75 1110.2 L2014.93 1101.28 L2018.95 1095.55 L2023.4 1093.57 L2027.85 1095.55 L2031.86 1101.28 L2035.05 1110.2 L2037.09 1121.44 L2037.8 1133.89 L2037.09 1146.35 L2035.05 1157.59 L2031.86 1166.51 L2027.85 1172.24 L2023.4 1174.21 L2023.4 1162.69 L2014.5 1161.29 L2006.47 1157.19 L2000.1 1150.82 L1996.01 1142.79 L1994.6 1133.89 L1996.01 1125 L2000.1 1116.97 L2006.47 1110.6 L2014.5 1106.5 L2023.4 1105.09 L2032.3 1106.5 L2040.33 1110.6 L2046.7 1116.97 L2050.79 1125 L2052.2 1133.89 L2050.79 1142.79 L2046.7 1150.82 L2040.33 1157.19 L2032.3 1161.29 L2023.4 1162.69  Z" fill="#000000" fill-rule="evenodd" fill-opacity="0"/>
<polyline clip-path="url(#clip662)" style="stroke:#000000; stroke-linecap:round; stroke-linejoin:round; stroke-width:4; stroke-opacity:1; fill:none" points="2023.4,1174.21 2018.95,1172.24 2014.93,1166.51 2011.75,1157.59 2009.7,1146.35 2009,1133.89 2009.7,1121.44 2011.75,1110.2 2014.93,1101.28 2018.95,1095.55 2023.4,1093.57 2027.85,1095.55 2031.86,1101.28 2035.05,1110.2 2037.09,1121.44 2037.8,1133.89 2037.09,1146.35 2035.05,1157.59 2031.86,1166.51 2027.85,1172.24 2023.4,1174.21 2023.4,1162.69 2014.5,1161.29 2006.47,1157.19 2000.1,1150.82 1996.01,1142.79 1994.6,1133.89 1996.01,1125 2000.1,1116.97 2006.47,1110.6 2014.5,1106.5 2023.4,1105.09 2032.3,1106.5 2040.33,1110.6 2046.7,1116.97 2050.79,1125 2052.2,1133.89 2050.79,1142.79 2046.7,1150.82 2040.33,1157.19 2032.3,1161.29 2023.4,1162.69 "/>
<path clip-path="url(#clip662)" d="M2023.4 1051.7 L2018.95 1049.73 L2014.93 1044 L2011.75 1035.08 L2009.7 1023.84 L2009 1011.38 L2009.7 998.921 L2011.75 987.681 L2014.93 978.761 L2018.95 973.034 L2023.4 971.061 L2027.85 973.034 L2031.86 978.761 L2035.05 987.681 L2037.09 998.921 L2037.8 1011.38 L2037.09 1023.84 L2035.05 1035.08 L2031.86 1044 L2027.85 1049.73 L2023.4 1051.7 L2023.4 1040.18 L2014.5 1038.77 L2006.47 1034.68 L2000.1 1028.31 L1996.01 1020.28 L1994.6 1011.38 L1996.01 1002.48 L2000.1 994.452 L2006.47 988.081 L2014.5 983.99 L2023.4 982.581 L2032.3 983.99 L2040.33 988.081 L2046.7 994.452 L2050.79 1002.48 L2052.2 1011.38 L2050.79 1020.28 L2046.7 1028.31 L2040.33 1034.68 L2032.3 1038.77 L2023.4 1040.18  Z" fill="#000000" fill-rule="evenodd" fill-opacity="0"/>
<polyline clip-path="url(#clip662)" style="stroke:#000000; stroke-linecap:round; stroke-linejoin:round; stroke-width:4; stroke-opacity:1; fill:none" points="2023.4,1051.7 2018.95,1049.73 2014.93,1044 2011.75,1035.08 2009.7,1023.84 2009,1011.38 2009.7,998.921 2011.75,987.681 2014.93,978.761 2018.95,973.034 2023.4,971.061 2027.85,973.034 2031.86,978.761 2035.05,987.681 2037.09,998.921 2037.8,1011.38 2037.09,1023.84 2035.05,1035.08 2031.86,1044 2027.85,1049.73 2023.4,1051.7 2023.4,1040.18 2014.5,1038.77 2006.47,1034.68 2000.1,1028.31 1996.01,1020.28 1994.6,1011.38 1996.01,1002.48 2000.1,994.452 2006.47,988.081 2014.5,983.99 2023.4,982.581 2032.3,983.99 2040.33,988.081 2046.7,994.452 2050.79,1002.48 2052.2,1011.38 2050.79,1020.28 2046.7,1028.31 2040.33,1034.68 2032.3,1038.77 2023.4,1040.18 "/>
<path clip-path="url(#clip662)" d="M2023.4 929.186 L2018.95 927.213 L2014.93 921.486 L2011.75 912.566 L2009.7 901.326 L2009 888.866 L2009.7 876.407 L2011.75 865.167 L2014.93 856.247 L2018.95 850.52 L2023.4 848.546 L2027.85 850.52 L2031.86 856.247 L2035.05 865.167 L2037.09 876.407 L2037.8 888.866 L2037.09 901.326 L2035.05 912.566 L2031.86 921.486 L2027.85 927.213 L2023.4 929.186 L2023.4 917.666 L2014.5 916.257 L2006.47 912.166 L2000.1 905.794 L1996.01 897.766 L1994.6 888.866 L1996.01 879.967 L2000.1 871.938 L2006.47 865.567 L2014.5 861.476 L2023.4 860.066 L2032.3 861.476 L2040.33 865.567 L2046.7 871.938 L2050.79 879.967 L2052.2 888.866 L2050.79 897.766 L2046.7 905.794 L2040.33 912.166 L2032.3 916.257 L2023.4 917.666  Z" fill="#000000" fill-rule="evenodd" fill-opacity="0"/>
<polyline clip-path="url(#clip662)" style="stroke:#000000; stroke-linecap:round; stroke-linejoin:round; stroke-width:4; stroke-opacity:1; fill:none" points="2023.4,929.186 2018.95,927.213 2014.93,921.486 2011.75,912.566 2009.7,901.326 2009,888.866 2009.7,876.407 2011.75,865.167 2014.93,856.247 2018.95,850.52 2023.4,848.546 2027.85,850.52 2031.86,856.247 2035.05,865.167 2037.09,876.407 2037.8,888.866 2037.09,901.326 2035.05,912.566 2031.86,921.486 2027.85,927.213 2023.4,929.186 2023.4,917.666 2014.5,916.257 2006.47,912.166 2000.1,905.794 1996.01,897.766 1994.6,888.866 1996.01,879.967 2000.1,871.938 2006.47,865.567 2014.5,861.476 2023.4,860.066 2032.3,861.476 2040.33,865.567 2046.7,871.938 2050.79,879.967 2052.2,888.866 2050.79,897.766 2046.7,905.794 2040.33,912.166 2032.3,916.257 2023.4,917.666 "/>
<path clip-path="url(#clip662)" d="M2023.4 806.672 L2018.95 804.699 L2014.93 798.972 L2011.75 790.051 L2009.7 778.812 L2009 766.352 L2009.7 753.892 L2011.75 742.652 L2014.93 733.732 L2018.95 728.005 L2023.4 726.032 L2027.85 728.005 L2031.86 733.732 L2035.05 742.652 L2037.09 753.892 L2037.8 766.352 L2037.09 778.812 L2035.05 790.051 L2031.86 798.972 L2027.85 804.699 L2023.4 806.672 L2023.4 795.152 L2014.5 793.742 L2006.47 789.652 L2000.1 783.28 L1996.01 775.252 L1994.6 766.352 L1996.01 757.452 L2000.1 749.424 L2006.47 743.052 L2014.5 738.962 L2023.4 737.552 L2032.3 738.962 L2040.33 743.052 L2046.7 749.424 L2050.79 757.452 L2052.2 766.352 L2050.79 775.252 L2046.7 783.28 L2040.33 789.652 L2032.3 793.742 L2023.4 795.152  Z" fill="#000000" fill-rule="evenodd" fill-opacity="0"/>
<polyline clip-path="url(#clip662)" style="stroke:#000000; stroke-linecap:round; stroke-linejoin:round; stroke-width:4; stroke-opacity:1; fill:none" points="2023.4,806.672 2018.95,804.699 2014.93,798.972 2011.75,790.051 2009.7,778.812 2009,766.352 2009.7,753.892 2011.75,742.652 2014.93,733.732 2018.95,728.005 2023.4,726.032 2027.85,728.005 2031.86,733.732 2035.05,742.652 2037.09,753.892 2037.8,766.352 2037.09,778.812 2035.05,790.051 2031.86,798.972 2027.85,804.699 2023.4,806.672 2023.4,795.152 2014.5,793.742 2006.47,789.652 2000.1,783.28 1996.01,775.252 1994.6,766.352 1996.01,757.452 2000.1,749.424 2006.47,743.052 2014.5,738.962 2023.4,737.552 2032.3,738.962 2040.33,743.052 2046.7,749.424 2050.79,757.452 2052.2,766.352 2050.79,775.252 2046.7,783.28 2040.33,789.652 2032.3,793.742 2023.4,795.152 "/>
<path clip-path="url(#clip662)" d="M2023.4 684.158 L2018.95 682.184 L2014.93 676.457 L2011.75 667.537 L2009.7 656.297 L2009 643.838 L2009.7 631.378 L2011.75 620.138 L2014.93 611.218 L2018.95 605.491 L2023.4 603.518 L2027.85 605.491 L2031.86 611.218 L2035.05 620.138 L2037.09 631.378 L2037.8 643.838 L2037.09 656.297 L2035.05 667.537 L2031.86 676.457 L2027.85 682.184 L2023.4 684.158 L2023.4 672.638 L2014.5 671.228 L2006.47 667.137 L2000.1 660.766 L1996.01 652.737 L1994.6 643.838 L1996.01 634.938 L2000.1 626.91 L2006.47 620.538 L2014.5 616.447 L2023.4 615.038 L2032.3 616.447 L2040.33 620.538 L2046.7 626.91 L2050.79 634.938 L2052.2 643.838 L2050.79 652.737 L2046.7 660.766 L2040.33 667.137 L2032.3 671.228 L2023.4 672.638  Z" fill="#000000" fill-rule="evenodd" fill-opacity="0"/>
<polyline clip-path="url(#clip662)" style="stroke:#000000; stroke-linecap:round; stroke-linejoin:round; stroke-width:4; stroke-opacity:1; fill:none" points="2023.4,684.158 2018.95,682.184 2014.93,676.457 2011.75,667.537 2009.7,656.297 2009,643.838 2009.7,631.378 2011.75,620.138 2014.93,611.218 2018.95,605.491 2023.4,603.518 2027.85,605.491 2031.86,611.218 2035.05,620.138 2037.09,631.378 2037.8,643.838 2037.09,656.297 2035.05,667.537 2031.86,676.457 2027.85,682.184 2023.4,684.158 2023.4,672.638 2014.5,671.228 2006.47,667.137 2000.1,660.766 1996.01,652.737 1994.6,643.838 1996.01,634.938 2000.1,626.91 2006.47,620.538 2014.5,616.447 2023.4,615.038 2032.3,616.447 2040.33,620.538 2046.7,626.91 2050.79,634.938 2052.2,643.838 2050.79,652.737 2046.7,660.766 2040.33,667.137 2032.3,671.228 2023.4,672.638 "/>
<path clip-path="url(#clip662)" d="M2023.4 561.643 L2018.95 559.67 L2014.93 553.943 L2011.75 545.023 L2009.7 533.783 L2009 521.323 L2009.7 508.864 L2011.75 497.624 L2014.93 488.704 L2018.95 482.977 L2023.4 481.003 L2027.85 482.977 L2031.86 488.704 L2035.05 497.624 L2037.09 508.864 L2037.8 521.323 L2037.09 533.783 L2035.05 545.023 L2031.86 553.943 L2027.85 559.67 L2023.4 561.643 L2023.4 550.123 L2014.5 548.714 L2006.47 544.623 L2000.1 538.252 L1996.01 530.223 L1994.6 521.323 L1996.01 512.424 L2000.1 504.395 L2006.47 498.024 L2014.5 493.933 L2023.4 492.523 L2032.3 493.933 L2040.33 498.024 L2046.7 504.395 L2050.79 512.424 L2052.2 521.323 L2050.79 530.223 L2046.7 538.252 L2040.33 544.623 L2032.3 548.714 L2023.4 550.123  Z" fill="#000000" fill-rule="evenodd" fill-opacity="0"/>
<polyline clip-path="url(#clip662)" style="stroke:#000000; stroke-linecap:round; stroke-linejoin:round; stroke-width:4; stroke-opacity:1; fill:none" points="2023.4,561.643 2018.95,559.67 2014.93,553.943 2011.75,545.023 2009.7,533.783 2009,521.323 2009.7,508.864 2011.75,497.624 2014.93,488.704 2018.95,482.977 2023.4,481.003 2027.85,482.977 2031.86,488.704 2035.05,497.624 2037.09,508.864 2037.8,521.323 2037.09,533.783 2035.05,545.023 2031.86,553.943 2027.85,559.67 2023.4,561.643 2023.4,550.123 2014.5,548.714 2006.47,544.623 2000.1,538.252 1996.01,530.223 1994.6,521.323 1996.01,512.424 2000.1,504.395 2006.47,498.024 2014.5,493.933 2023.4,492.523 2032.3,493.933 2040.33,498.024 2046.7,504.395 2050.79,512.424 2052.2,521.323 2050.79,530.223 2046.7,538.252 2040.33,544.623 2032.3,548.714 2023.4,550.123 "/>
<path clip-path="url(#clip662)" d="M2023.4 439.129 L2018.95 437.156 L2014.93 431.429 L2011.75 422.509 L2009.7 411.269 L2009 398.809 L2009.7 386.35 L2011.75 375.11 L2014.93 366.19 L2018.95 360.463 L2023.4 358.489 L2027.85 360.463 L2031.86 366.19 L2035.05 375.11 L2037.09 386.35 L2037.8 398.809 L2037.09 411.269 L2035.05 422.509 L2031.86 431.429 L2027.85 437.156 L2023.4 439.129 L2023.4 427.609 L2014.5 426.2 L2006.47 422.109 L2000.1 415.737 L1996.01 407.709 L1994.6 398.809 L1996.01 389.91 L2000.1 381.881 L2006.47 375.51 L2014.5 371.419 L2023.4 370.009 L2032.3 371.419 L2040.33 375.51 L2046.7 381.881 L2050.79 389.91 L2052.2 398.809 L2050.79 407.709 L2046.7 415.737 L2040.33 422.109 L2032.3 426.2 L2023.4 427.609  Z" fill="#000000" fill-rule="evenodd" fill-opacity="0"/>
<polyline clip-path="url(#clip662)" style="stroke:#000000; stroke-linecap:round; stroke-linejoin:round; stroke-width:4; stroke-opacity:1; fill:none" points="2023.4,439.129 2018.95,437.156 2014.93,431.429 2011.75,422.509 2009.7,411.269 2009,398.809 2009.7,386.35 2011.75,375.11 2014.93,366.19 2018.95,360.463 2023.4,358.489 2027.85,360.463 2031.86,366.19 2035.05,375.11 2037.09,386.35 2037.8,398.809 2037.09,411.269 2035.05,422.509 2031.86,431.429 2027.85,437.156 2023.4,439.129 2023.4,427.609 2014.5,426.2 2006.47,422.109 2000.1,415.737 1996.01,407.709 1994.6,398.809 1996.01,389.91 2000.1,381.881 2006.47,375.51 2014.5,371.419 2023.4,370.009 2032.3,371.419 2040.33,375.51 2046.7,381.881 2050.79,389.91 2052.2,398.809 2050.79,407.709 2046.7,415.737 2040.33,422.109 2032.3,426.2 2023.4,427.609 "/>
<path clip-path="url(#clip662)" d="M415.003 1045.94 L357.403 1012.34 L357.403 1079.54 L415.003 1045.94 Z" fill="#ffff00" fill-rule="evenodd" fill-opacity="1" stroke="#000000" stroke-opacity="1" stroke-width="3.2"/>
<path clip-path="url(#clip662)" d="M415.003 923.426 L357.403 889.826 L357.403 957.026 L415.003 923.426 Z" fill="#ffff00" fill-rule="evenodd" fill-opacity="1" stroke="#000000" stroke-opacity="1" stroke-width="3.2"/>
<path clip-path="url(#clip662)" d="M415.003 800.912 L357.403 767.312 L357.403 834.512 L415.003 800.912 Z" fill="#ffff00" fill-rule="evenodd" fill-opacity="1" stroke="#000000" stroke-opacity="1" stroke-width="3.2"/>
<path clip-path="url(#clip662)" d="M415.003 678.398 L357.403 644.798 L357.403 711.998 L415.003 678.398 Z" fill="#ffff00" fill-rule="evenodd" fill-opacity="1" stroke="#000000" stroke-opacity="1" stroke-width="3.2"/>
<path clip-path="url(#clip662)" d="M415.003 555.883 L357.403 522.283 L357.403 589.483 L415.003 555.883 Z" fill="#ffff00" fill-rule="evenodd" fill-opacity="1" stroke="#000000" stroke-opacity="1" stroke-width="3.2"/>
<circle clip-path="url(#clip662)" cx="2023.4" cy="1168.45" r="43.2" fill="#6ca6cd" fill-rule="evenodd" fill-opacity="1" stroke="#000000" stroke-opacity="1" stroke-width="3.2"/>
<circle clip-path="url(#clip662)" cx="2023.4" cy="1045.94" r="43.2" fill="#6ca6cd" fill-rule="evenodd" fill-opacity="1" stroke="#000000" stroke-opacity="1" stroke-width="3.2"/>
<circle clip-path="url(#clip662)" cx="2023.4" cy="923.426" r="43.2" fill="#6ca6cd" fill-rule="evenodd" fill-opacity="1" stroke="#000000" stroke-opacity="1" stroke-width="3.2"/>
<circle clip-path="url(#clip662)" cx="2023.4" cy="800.912" r="43.2" fill="#6ca6cd" fill-rule="evenodd" fill-opacity="1" stroke="#000000" stroke-opacity="1" stroke-width="3.2"/>
<circle clip-path="url(#clip662)" cx="2023.4" cy="678.398" r="43.2" fill="#6ca6cd" fill-rule="evenodd" fill-opacity="1" stroke="#000000" stroke-opacity="1" stroke-width="3.2"/>
<circle clip-path="url(#clip662)" cx="2023.4" cy="555.883" r="43.2" fill="#6ca6cd" fill-rule="evenodd" fill-opacity="1" stroke="#000000" stroke-opacity="1" stroke-width="3.2"/>
<circle clip-path="url(#clip662)" cx="2023.4" cy="433.369" r="43.2" fill="#6ca6cd" fill-rule="evenodd" fill-opacity="1" stroke="#000000" stroke-opacity="1" stroke-width="3.2"/>
<path clip-path="url(#clip662)" d="M2061.8 1168.45 L2004.2 1134.85 L2004.2 1202.05 L2061.8 1168.45 Z" fill="#ffa500" fill-rule="evenodd" fill-opacity="1" stroke="#000000" stroke-opacity="1" stroke-width="3.2"/>
<path clip-path="url(#clip662)" d="M2061.8 1045.94 L2004.2 1012.34 L2004.2 1079.54 L2061.8 1045.94 Z" fill="#ffa500" fill-rule="evenodd" fill-opacity="1" stroke="#000000" stroke-opacity="1" stroke-width="3.2"/>
<path clip-path="url(#clip662)" d="M2061.8 923.426 L2004.2 889.826 L2004.2 957.026 L2061.8 923.426 Z" fill="#ffa500" fill-rule="evenodd" fill-opacity="1" stroke="#000000" stroke-opacity="1" stroke-width="3.2"/>
<path clip-path="url(#clip662)" d="M2061.8 800.912 L2004.2 767.312 L2004.2 834.512 L2061.8 800.912 Z" fill="#ffa500" fill-rule="evenodd" fill-opacity="1" stroke="#000000" stroke-opacity="1" stroke-width="3.2"/>
<path clip-path="url(#clip662)" d="M2061.8 678.398 L2004.2 644.798 L2004.2 711.998 L2061.8 678.398 Z" fill="#ffa500" fill-rule="evenodd" fill-opacity="1" stroke="#000000" stroke-opacity="1" stroke-width="3.2"/>
<path clip-path="url(#clip662)" d="M2061.8 555.883 L2004.2 522.283 L2004.2 589.483 L2061.8 555.883 Z" fill="#ffa500" fill-rule="evenodd" fill-opacity="1" stroke="#000000" stroke-opacity="1" stroke-width="3.2"/>
<path clip-path="url(#clip662)" d="M2061.8 433.369 L2004.2 399.769 L2004.2 466.969 L2061.8 433.369 Z" fill="#ffa500" fill-rule="evenodd" fill-opacity="1" stroke="#000000" stroke-opacity="1" stroke-width="3.2"/>
<g clip-path="url(#clip660)">
<text style="fill:#000000; fill-opacity:1; font-family:Century Gothic,CenturyGothic,AppleGothic,sans-serif; font-size:47px; text-anchor:middle;" transform="rotate(-20, 382.588, 449.814)" x="382.588" y="449.814">input</text>
</g>
<g clip-path="url(#clip660)">
<text style="fill:#000000; fill-opacity:1; font-family:Century Gothic,CenturyGothic,AppleGothic,sans-serif; font-size:47px; text-anchor:middle;" transform="rotate(-20, 2029.38, 327.3)" x="2029.38" y="327.3">Recur(GRUCell(5 =&gt; 7))</text>
</g>
</svg>
