<?xml version="1.0" encoding="utf-8"?>
<svg xmlns="http://www.w3.org/2000/svg" xmlns:xlink="http://www.w3.org/1999/xlink" width="600" height="400" viewBox="0 0 2400 1600">
<defs>
  <clipPath id="clip780">
    <rect x="0" y="0" width="2400" height="1600"/>
  </clipPath>
</defs>
<path clip-path="url(#clip780)" d="M0 1600 L2400 1600 L2400 0 L0 0  Z" fill="#ffffff" fill-rule="evenodd" fill-opacity="1"/>
<defs>
  <clipPath id="clip781">
    <rect x="480" y="0" width="1681" height="1600"/>
  </clipPath>
</defs>
<path clip-path="url(#clip780)" d="M47.2441 1388.98 L2352.76 1388.98 L2352.76 47.2441 L47.2441 47.2441  Z" fill="#ffffff" fill-rule="evenodd" fill-opacity="1"/>
<defs>
  <clipPath id="clip782">
    <rect x="47" y="47" width="2307" height="1343"/>
  </clipPath>
</defs>
<polyline clip-path="url(#clip782)" style="stroke:#000000; stroke-linecap:round; stroke-linejoin:round; stroke-width:2; stroke-opacity:0.1; fill:none" points="376.603,1388.98 376.603,47.2441 "/>
<polyline clip-path="url(#clip782)" style="stroke:#000000; stroke-linecap:round; stroke-linejoin:round; stroke-width:2; stroke-opacity:0.1; fill:none" points="2023.4,1388.98 2023.4,47.2441 "/>
<polyline clip-path="url(#clip782)" style="stroke:#adadad; stroke-linecap:round; stroke-linejoin:round; stroke-width:4; stroke-opacity:1; fill:none" points="376.603,1171.09 2023.4,1113.75 "/>
<polyline clip-path="url(#clip782)" style="stroke:#adadad; stroke-linecap:round; stroke-linejoin:round; stroke-width:4; stroke-opacity:1; fill:none" points="376.603,1056.41 2023.4,1113.75 "/>
<polyline clip-path="url(#clip782)" style="stroke:#adadad; stroke-linecap:round; stroke-linejoin:round; stroke-width:4; stroke-opacity:1; fill:none" points="376.603,1056.41 2023.4,999.074 "/>
<polyline clip-path="url(#clip782)" style="stroke:#adadad; stroke-linecap:round; stroke-linejoin:round; stroke-width:4; stroke-opacity:1; fill:none" points="376.603,941.735 2023.4,999.074 "/>
<polyline clip-path="url(#clip782)" style="stroke:#adadad; stroke-linecap:round; stroke-linejoin:round; stroke-width:4; stroke-opacity:1; fill:none" points="376.603,941.735 2023.4,884.396 "/>
<polyline clip-path="url(#clip782)" style="stroke:#adadad; stroke-linecap:round; stroke-linejoin:round; stroke-width:4; stroke-opacity:1; fill:none" points="376.603,827.057 2023.4,884.396 "/>
<polyline clip-path="url(#clip782)" style="stroke:#adadad; stroke-linecap:round; stroke-linejoin:round; stroke-width:4; stroke-opacity:1; fill:none" points="376.603,827.057 2023.4,769.718 "/>
<polyline clip-path="url(#clip782)" style="stroke:#adadad; stroke-linecap:round; stroke-linejoin:round; stroke-width:4; stroke-opacity:1; fill:none" points="376.603,712.378 2023.4,769.718 "/>
<polyline clip-path="url(#clip782)" style="stroke:#adadad; stroke-linecap:round; stroke-linejoin:round; stroke-width:4; stroke-opacity:1; fill:none" points="376.603,712.378 2023.4,655.039 "/>
<polyline clip-path="url(#clip782)" style="stroke:#adadad; stroke-linecap:round; stroke-linejoin:round; stroke-width:4; stroke-opacity:1; fill:none" points="376.603,597.7 2023.4,655.039 "/>
<polyline clip-path="url(#clip782)" style="stroke:#adadad; stroke-linecap:round; stroke-linejoin:round; stroke-width:4; stroke-opacity:1; fill:none" points="376.603,597.7 2023.4,540.361 "/>
<polyline clip-path="url(#clip782)" style="stroke:#adadad; stroke-linecap:round; stroke-linejoin:round; stroke-width:4; stroke-opacity:1; fill:none" points="376.603,483.022 2023.4,540.361 "/>
<polyline clip-path="url(#clip782)" style="stroke:#adadad; stroke-linecap:round; stroke-linejoin:round; stroke-width:4; stroke-opacity:1; fill:none" points="376.603,483.022 2023.4,425.683 "/>
<polyline clip-path="url(#clip782)" style="stroke:#adadad; stroke-linecap:round; stroke-linejoin:round; stroke-width:4; stroke-opacity:1; fill:none" points="376.603,368.343 2023.4,425.683 "/>
<path clip-path="url(#clip782)" d="M376.603 1209.16 L364.839 1207.3 L354.226 1201.89 L345.804 1193.47 L340.396 1182.86 L338.533 1171.09 L340.396 1159.33 L345.804 1148.71 L354.226 1140.29 L364.839 1134.88 L376.603 1133.02 L388.367 1134.88 L398.98 1140.29 L407.402 1148.71 L412.81 1159.33 L414.673 1171.09 L412.81 1182.86 L407.402 1193.47 L398.98 1201.89 L388.367 1207.3 L376.603 1209.16  Z" fill="#000000" fill-rule="evenodd" fill-opacity="0"/>
<polyline clip-path="url(#clip782)" style="stroke:#000000; stroke-linecap:round; stroke-linejoin:round; stroke-width:4; stroke-opacity:1; fill:none" points="376.603,1209.16 364.839,1207.3 354.226,1201.89 345.804,1193.47 340.396,1182.86 338.533,1171.09 340.396,1159.33 345.804,1148.71 354.226,1140.29 364.839,1134.88 376.603,1133.02 388.367,1134.88 398.98,1140.29 407.402,1148.71 412.81,1159.33 414.673,1171.09 412.81,1182.86 407.402,1193.47 398.98,1201.89 388.367,1207.3 376.603,1209.16 "/>
<path clip-path="url(#clip782)" d="M376.603 1094.48 L364.839 1092.62 L354.226 1087.21 L345.804 1078.79 L340.396 1068.18 L338.533 1056.41 L340.396 1044.65 L345.804 1034.04 L354.226 1025.61 L364.839 1020.21 L376.603 1018.34 L388.367 1020.21 L398.98 1025.61 L407.402 1034.04 L412.81 1044.65 L414.673 1056.41 L412.81 1068.18 L407.402 1078.79 L398.98 1087.21 L388.367 1092.62 L376.603 1094.48  Z" fill="#000000" fill-rule="evenodd" fill-opacity="0"/>
<polyline clip-path="url(#clip782)" style="stroke:#000000; stroke-linecap:round; stroke-linejoin:round; stroke-width:4; stroke-opacity:1; fill:none" points="376.603,1094.48 364.839,1092.62 354.226,1087.21 345.804,1078.79 340.396,1068.18 338.533,1056.41 340.396,1044.65 345.804,1034.04 354.226,1025.61 364.839,1020.21 376.603,1018.34 388.367,1020.21 398.98,1025.61 407.402,1034.04 412.81,1044.65 414.673,1056.41 412.81,1068.18 407.402,1078.79 398.98,1087.21 388.367,1092.62 376.603,1094.48 "/>
<path clip-path="url(#clip782)" d="M376.603 979.805 L364.839 977.942 L354.226 972.534 L345.804 964.112 L340.396 953.499 L338.533 941.735 L340.396 929.971 L345.804 919.358 L354.226 910.936 L364.839 905.528 L376.603 903.665 L388.367 905.528 L398.98 910.936 L407.402 919.358 L412.81 929.971 L414.673 941.735 L412.81 953.499 L407.402 964.112 L398.98 972.534 L388.367 977.942 L376.603 979.805  Z" fill="#000000" fill-rule="evenodd" fill-opacity="0"/>
<polyline clip-path="url(#clip782)" style="stroke:#000000; stroke-linecap:round; stroke-linejoin:round; stroke-width:4; stroke-opacity:1; fill:none" points="376.603,979.805 364.839,977.942 354.226,972.534 345.804,964.112 340.396,953.499 338.533,941.735 340.396,929.971 345.804,919.358 354.226,910.936 364.839,905.528 376.603,903.665 388.367,905.528 398.98,910.936 407.402,919.358 412.81,929.971 414.673,941.735 412.81,953.499 407.402,964.112 398.98,972.534 388.367,977.942 376.603,979.805 "/>
<path clip-path="url(#clip782)" d="M376.603 865.127 L364.839 863.263 L354.226 857.856 L345.804 849.434 L340.396 838.821 L338.533 827.057 L340.396 815.292 L345.804 804.68 L354.226 796.257 L364.839 790.85 L376.603 788.987 L388.367 790.85 L398.98 796.257 L407.402 804.68 L412.81 815.292 L414.673 827.057 L412.81 838.821 L407.402 849.434 L398.98 857.856 L388.367 863.263 L376.603 865.127  Z" fill="#000000" fill-rule="evenodd" fill-opacity="0"/>
<polyline clip-path="url(#clip782)" style="stroke:#000000; stroke-linecap:round; stroke-linejoin:round; stroke-width:4; stroke-opacity:1; fill:none" points="376.603,865.127 364.839,863.263 354.226,857.856 345.804,849.434 340.396,838.821 338.533,827.057 340.396,815.292 345.804,804.68 354.226,796.257 364.839,790.85 376.603,788.987 388.367,790.85 398.98,796.257 407.402,804.68 412.81,815.292 414.673,827.057 412.81,838.821 407.402,849.434 398.98,857.856 388.367,863.263 376.603,865.127 "/>
<path clip-path="url(#clip782)" d="M376.603 750.448 L364.839 748.585 L354.226 743.178 L345.804 734.755 L340.396 724.143 L338.533 712.378 L340.396 700.614 L345.804 690.001 L354.226 681.579 L364.839 676.172 L376.603 674.308 L388.367 676.172 L398.98 681.579 L407.402 690.001 L412.81 700.614 L414.673 712.378 L412.81 724.143 L407.402 734.755 L398.98 743.178 L388.367 748.585 L376.603 750.448  Z" fill="#000000" fill-rule="evenodd" fill-opacity="0"/>
<polyline clip-path="url(#clip782)" style="stroke:#000000; stroke-linecap:round; stroke-linejoin:round; stroke-width:4; stroke-opacity:1; fill:none" points="376.603,750.448 364.839,748.585 354.226,743.178 345.804,734.755 340.396,724.143 338.533,712.378 340.396,700.614 345.804,690.001 354.226,681.579 364.839,676.172 376.603,674.308 388.367,676.172 398.98,681.579 407.402,690.001 412.81,700.614 414.673,712.378 412.81,724.143 407.402,734.755 398.98,743.178 388.367,748.585 376.603,750.448 "/>
<path clip-path="url(#clip782)" d="M376.603 635.77 L364.839 633.907 L354.226 628.499 L345.804 620.077 L340.396 609.464 L338.533 597.7 L340.396 585.936 L345.804 575.323 L354.226 566.901 L364.839 561.493 L376.603 559.63 L388.367 561.493 L398.98 566.901 L407.402 575.323 L412.81 585.936 L414.673 597.7 L412.81 609.464 L407.402 620.077 L398.98 628.499 L388.367 633.907 L376.603 635.77  Z" fill="#000000" fill-rule="evenodd" fill-opacity="0"/>
<polyline clip-path="url(#clip782)" style="stroke:#000000; stroke-linecap:round; stroke-linejoin:round; stroke-width:4; stroke-opacity:1; fill:none" points="376.603,635.77 364.839,633.907 354.226,628.499 345.804,620.077 340.396,609.464 338.533,597.7 340.396,585.936 345.804,575.323 354.226,566.901 364.839,561.493 376.603,559.63 388.367,561.493 398.98,566.901 407.402,575.323 412.81,585.936 414.673,597.7 412.81,609.464 407.402,620.077 398.98,628.499 388.367,633.907 376.603,635.77 "/>
<path clip-path="url(#clip782)" d="M376.603 521.092 L364.839 519.228 L354.226 513.821 L345.804 505.399 L340.396 494.786 L338.533 483.022 L340.396 471.257 L345.804 460.645 L354.226 452.222 L364.839 446.815 L376.603 444.952 L388.367 446.815 L398.98 452.222 L407.402 460.645 L412.81 471.257 L414.673 483.022 L412.81 494.786 L407.402 505.399 L398.98 513.821 L388.367 519.228 L376.603 521.092  Z" fill="#000000" fill-rule="evenodd" fill-opacity="0"/>
<polyline clip-path="url(#clip782)" style="stroke:#000000; stroke-linecap:round; stroke-linejoin:round; stroke-width:4; stroke-opacity:1; fill:none" points="376.603,521.092 364.839,519.228 354.226,513.821 345.804,505.399 340.396,494.786 338.533,483.022 340.396,471.257 345.804,460.645 354.226,452.222 364.839,446.815 376.603,444.952 388.367,446.815 398.98,452.222 407.402,460.645 412.81,471.257 414.673,483.022 412.81,494.786 407.402,505.399 398.98,513.821 388.367,519.228 376.603,521.092 "/>
<path clip-path="url(#clip782)" d="M376.603 406.413 L364.839 404.55 L354.226 399.143 L345.804 390.72 L340.396 380.108 L338.533 368.343 L340.396 356.579 L345.804 345.966 L354.226 337.544 L364.839 332.137 L376.603 330.273 L388.367 332.137 L398.98 337.544 L407.402 345.966 L412.81 356.579 L414.673 368.343 L412.81 380.108 L407.402 390.72 L398.98 399.143 L388.367 404.55 L376.603 406.413  Z" fill="#000000" fill-rule="evenodd" fill-opacity="0"/>
<polyline clip-path="url(#clip782)" style="stroke:#000000; stroke-linecap:round; stroke-linejoin:round; stroke-width:4; stroke-opacity:1; fill:none" points="376.603,406.413 364.839,404.55 354.226,399.143 345.804,390.72 340.396,380.108 338.533,368.343 340.396,356.579 345.804,345.966 354.226,337.544 364.839,332.137 376.603,330.273 388.367,332.137 398.98,337.544 407.402,345.966 412.81,356.579 414.673,368.343 412.81,380.108 407.402,390.72 398.98,399.143 388.367,404.55 376.603,406.413 "/>
<path clip-path="url(#clip782)" d="M1985.9 1076.25 L1985.9 1151.25 L2060.9 1151.25 L2060.9 1076.25 L1985.9 1076.25 Z" fill="#dda0dd" fill-rule="evenodd" fill-opacity="1" stroke="#000000" stroke-opacity="1" stroke-width="3.2"/>
<path clip-path="url(#clip782)" d="M1985.9 961.574 L1985.9 1036.57 L2060.9 1036.57 L2060.9 961.574 L1985.9 961.574 Z" fill="#dda0dd" fill-rule="evenodd" fill-opacity="1" stroke="#000000" stroke-opacity="1" stroke-width="3.2"/>
<path clip-path="url(#clip782)" d="M1985.9 846.896 L1985.9 921.896 L2060.9 921.896 L2060.9 846.896 L1985.9 846.896 Z" fill="#dda0dd" fill-rule="evenodd" fill-opacity="1" stroke="#000000" stroke-opacity="1" stroke-width="3.2"/>
<path clip-path="url(#clip782)" d="M1985.9 732.218 L1985.9 807.218 L2060.9 807.218 L2060.9 732.218 L1985.9 732.218 Z" fill="#dda0dd" fill-rule="evenodd" fill-opacity="1" stroke="#000000" stroke-opacity="1" stroke-width="3.2"/>
<path clip-path="url(#clip782)" d="M1985.9 617.539 L1985.9 692.539 L2060.9 692.539 L2060.9 617.539 L1985.9 617.539 Z" fill="#dda0dd" fill-rule="evenodd" fill-opacity="1" stroke="#000000" stroke-opacity="1" stroke-width="3.2"/>
<path clip-path="url(#clip782)" d="M1985.9 502.861 L1985.9 577.861 L2060.9 577.861 L2060.9 502.861 L1985.9 502.861 Z" fill="#dda0dd" fill-rule="evenodd" fill-opacity="1" stroke="#000000" stroke-opacity="1" stroke-width="3.2"/>
<path clip-path="url(#clip782)" d="M1985.9 388.183 L1985.9 463.183 L2060.9 463.183 L2060.9 388.183 L1985.9 388.183 Z" fill="#dda0dd" fill-rule="evenodd" fill-opacity="1" stroke="#000000" stroke-opacity="1" stroke-width="3.2"/>
<path clip-path="url(#clip782)" d="M412.603 1171.09 L358.603 1139.59 L358.603 1202.59 L412.603 1171.09 Z" fill="#ffff00" fill-rule="evenodd" fill-opacity="1" stroke="#000000" stroke-opacity="1" stroke-width="3.2"/>
<path clip-path="url(#clip782)" d="M412.603 1056.41 L358.603 1024.91 L358.603 1087.91 L412.603 1056.41 Z" fill="#ffff00" fill-rule="evenodd" fill-opacity="1" stroke="#000000" stroke-opacity="1" stroke-width="3.2"/>
<path clip-path="url(#clip782)" d="M412.603 941.735 L358.603 910.235 L358.603 973.235 L412.603 941.735 Z" fill="#ffff00" fill-rule="evenodd" fill-opacity="1" stroke="#000000" stroke-opacity="1" stroke-width="3.2"/>
<path clip-path="url(#clip782)" d="M412.603 827.057 L358.603 795.557 L358.603 858.557 L412.603 827.057 Z" fill="#ffff00" fill-rule="evenodd" fill-opacity="1" stroke="#000000" stroke-opacity="1" stroke-width="3.2"/>
<path clip-path="url(#clip782)" d="M412.603 712.378 L358.603 680.878 L358.603 743.878 L412.603 712.378 Z" fill="#ffff00" fill-rule="evenodd" fill-opacity="1" stroke="#000000" stroke-opacity="1" stroke-width="3.2"/>
<path clip-path="url(#clip782)" d="M412.603 597.7 L358.603 566.2 L358.603 629.2 L412.603 597.7 Z" fill="#ffff00" fill-rule="evenodd" fill-opacity="1" stroke="#000000" stroke-opacity="1" stroke-width="3.2"/>
<path clip-path="url(#clip782)" d="M412.603 483.022 L358.603 451.522 L358.603 514.522 L412.603 483.022 Z" fill="#ffff00" fill-rule="evenodd" fill-opacity="1" stroke="#000000" stroke-opacity="1" stroke-width="3.2"/>
<path clip-path="url(#clip782)" d="M412.603 368.343 L358.603 336.843 L358.603 399.843 L412.603 368.343 Z" fill="#ffff00" fill-rule="evenodd" fill-opacity="1" stroke="#000000" stroke-opacity="1" stroke-width="3.2"/>
<path clip-path="url(#clip782)" d="M2053.4 1113.75 L2008.4 1087.5 L2008.4 1140 L2053.4 1113.75 Z" fill="#ffa500" fill-rule="evenodd" fill-opacity="1" stroke="#000000" stroke-opacity="1" stroke-width="3.2"/>
<path clip-path="url(#clip782)" d="M2053.4 999.074 L2008.4 972.824 L2008.4 1025.32 L2053.4 999.074 Z" fill="#ffa500" fill-rule="evenodd" fill-opacity="1" stroke="#000000" stroke-opacity="1" stroke-width="3.2"/>
<path clip-path="url(#clip782)" d="M2053.4 884.396 L2008.4 858.146 L2008.4 910.646 L2053.4 884.396 Z" fill="#ffa500" fill-rule="evenodd" fill-opacity="1" stroke="#000000" stroke-opacity="1" stroke-width="3.2"/>
<path clip-path="url(#clip782)" d="M2053.4 769.718 L2008.4 743.468 L2008.4 795.968 L2053.4 769.718 Z" fill="#ffa500" fill-rule="evenodd" fill-opacity="1" stroke="#000000" stroke-opacity="1" stroke-width="3.2"/>
<path clip-path="url(#clip782)" d="M2053.4 655.039 L2008.4 628.789 L2008.4 681.289 L2053.4 655.039 Z" fill="#ffa500" fill-rule="evenodd" fill-opacity="1" stroke="#000000" stroke-opacity="1" stroke-width="3.2"/>
<path clip-path="url(#clip782)" d="M2053.4 540.361 L2008.4 514.111 L2008.4 566.611 L2053.4 540.361 Z" fill="#ffa500" fill-rule="evenodd" fill-opacity="1" stroke="#000000" stroke-opacity="1" stroke-width="3.2"/>
<path clip-path="url(#clip782)" d="M2053.4 425.683 L2008.4 399.433 L2008.4 451.933 L2053.4 425.683 Z" fill="#ffa500" fill-rule="evenodd" fill-opacity="1" stroke="#000000" stroke-opacity="1" stroke-width="3.2"/>
<g clip-path="url(#clip780)">
<text style="fill:#000000; fill-opacity:1; font-family:Century Gothic,CenturyGothic,AppleGothic,sans-serif; font-size:47px; text-anchor:middle;" transform="rotate(-20, 382.588, 270.11)" x="382.588" y="270.11">input</text>
</g>
<g clip-path="url(#clip780)">
<text style="fill:#000000; fill-opacity:1; font-family:Century Gothic,CenturyGothic,AppleGothic,sans-serif; font-size:47px; text-anchor:middle;" transform="rotate(-20, 2029.38, 327.449)" x="2029.38" y="327.449">Conv((2,), 1 =&gt; 1)</text>
</g>
</svg>
