<?xml version="1.0" encoding="utf-8"?>
<svg xmlns="http://www.w3.org/2000/svg" xmlns:xlink="http://www.w3.org/1999/xlink" width="600" height="400" viewBox="0 0 2400 1600">
<defs>
  <clipPath id="clip420">
    <rect x="0" y="0" width="2400" height="1600"/>
  </clipPath>
</defs>
<path clip-path="url(#clip420)" d="M0 1600 L2400 1600 L2400 0 L0 0  Z" fill="#ffffff" fill-rule="evenodd" fill-opacity="1"/>
<defs>
  <clipPath id="clip421">
    <rect x="480" y="0" width="1681" height="1600"/>
  </clipPath>
</defs>
<path clip-path="url(#clip420)" d="M47.2441 1367.1 L2352.76 1367.1 L2352.76 47.2441 L47.2441 47.2441  Z" fill="#ffffff" fill-rule="evenodd" fill-opacity="1"/>
<defs>
  <clipPath id="clip422">
    <rect x="47" y="47" width="2307" height="1321"/>
  </clipPath>
</defs>
<polyline clip-path="url(#clip422)" style="stroke:#000000; stroke-linecap:round; stroke-linejoin:round; stroke-width:2; stroke-opacity:0.1; fill:none" points="376.603,1367.1 376.603,47.2441 "/>
<polyline clip-path="url(#clip422)" style="stroke:#000000; stroke-linecap:round; stroke-linejoin:round; stroke-width:2; stroke-opacity:0.1; fill:none" points="705.962,1367.1 705.962,47.2441 "/>
<polyline clip-path="url(#clip422)" style="stroke:#000000; stroke-linecap:round; stroke-linejoin:round; stroke-width:2; stroke-opacity:0.1; fill:none" points="1035.32,1367.1 1035.32,47.2441 "/>
<polyline clip-path="url(#clip422)" style="stroke:#000000; stroke-linecap:round; stroke-linejoin:round; stroke-width:2; stroke-opacity:0.1; fill:none" points="1364.68,1367.1 1364.68,47.2441 "/>
<polyline clip-path="url(#clip422)" style="stroke:#000000; stroke-linecap:round; stroke-linejoin:round; stroke-width:2; stroke-opacity:0.1; fill:none" points="1694.04,1367.1 1694.04,47.2441 "/>
<polyline clip-path="url(#clip422)" style="stroke:#000000; stroke-linecap:round; stroke-linejoin:round; stroke-width:2; stroke-opacity:0.1; fill:none" points="2023.4,1367.1 2023.4,47.2441 "/>
<polyline clip-path="url(#clip422)" style="stroke:#adadad; stroke-linecap:round; stroke-linejoin:round; stroke-width:4; stroke-opacity:1; fill:none" points="376.603,842.544 705.962,1096.36 "/>
<polyline clip-path="url(#clip422)" style="stroke:#adadad; stroke-linecap:round; stroke-linejoin:round; stroke-width:4; stroke-opacity:1; fill:none" points="376.603,842.544 705.962,927.15 "/>
<polyline clip-path="url(#clip422)" style="stroke:#adadad; stroke-linecap:round; stroke-linejoin:round; stroke-width:4; stroke-opacity:1; fill:none" points="376.603,842.544 705.962,757.937 "/>
<polyline clip-path="url(#clip422)" style="stroke:#adadad; stroke-linecap:round; stroke-linejoin:round; stroke-width:4; stroke-opacity:1; fill:none" points="376.603,842.544 705.962,588.725 "/>
<polyline clip-path="url(#clip422)" style="stroke:#adadad; stroke-linecap:round; stroke-linejoin:round; stroke-width:4; stroke-opacity:1; fill:none" points="376.603,842.544 705.962,419.512 "/>
<polyline clip-path="url(#clip422)" style="stroke:#adadad; stroke-linecap:round; stroke-linejoin:round; stroke-width:4; stroke-opacity:1; fill:none" points="376.603,673.331 705.962,1096.36 "/>
<polyline clip-path="url(#clip422)" style="stroke:#adadad; stroke-linecap:round; stroke-linejoin:round; stroke-width:4; stroke-opacity:1; fill:none" points="376.603,673.331 705.962,927.15 "/>
<polyline clip-path="url(#clip422)" style="stroke:#adadad; stroke-linecap:round; stroke-linejoin:round; stroke-width:4; stroke-opacity:1; fill:none" points="376.603,673.331 705.962,757.937 "/>
<polyline clip-path="url(#clip422)" style="stroke:#adadad; stroke-linecap:round; stroke-linejoin:round; stroke-width:4; stroke-opacity:1; fill:none" points="376.603,673.331 705.962,588.725 "/>
<polyline clip-path="url(#clip422)" style="stroke:#adadad; stroke-linecap:round; stroke-linejoin:round; stroke-width:4; stroke-opacity:1; fill:none" points="376.603,673.331 705.962,419.512 "/>
<polyline clip-path="url(#clip422)" style="stroke:#adadad; stroke-linecap:round; stroke-linejoin:round; stroke-width:4; stroke-opacity:1; fill:none" points="705.962,1096.36 1035.32,1011.76 "/>
<polyline clip-path="url(#clip422)" style="stroke:#adadad; stroke-linecap:round; stroke-linejoin:round; stroke-width:4; stroke-opacity:1; fill:none" points="705.962,1096.36 1035.32,842.544 "/>
<polyline clip-path="url(#clip422)" style="stroke:#adadad; stroke-linecap:round; stroke-linejoin:round; stroke-width:4; stroke-opacity:1; fill:none" points="705.962,1096.36 1035.32,673.331 "/>
<polyline clip-path="url(#clip422)" style="stroke:#adadad; stroke-linecap:round; stroke-linejoin:round; stroke-width:4; stroke-opacity:1; fill:none" points="705.962,1096.36 1035.32,504.118 "/>
<polyline clip-path="url(#clip422)" style="stroke:#adadad; stroke-linecap:round; stroke-linejoin:round; stroke-width:4; stroke-opacity:1; fill:none" points="705.962,927.15 1035.32,1011.76 "/>
<polyline clip-path="url(#clip422)" style="stroke:#adadad; stroke-linecap:round; stroke-linejoin:round; stroke-width:4; stroke-opacity:1; fill:none" points="705.962,927.15 1035.32,842.544 "/>
<polyline clip-path="url(#clip422)" style="stroke:#adadad; stroke-linecap:round; stroke-linejoin:round; stroke-width:4; stroke-opacity:1; fill:none" points="705.962,927.15 1035.32,673.331 "/>
<polyline clip-path="url(#clip422)" style="stroke:#adadad; stroke-linecap:round; stroke-linejoin:round; stroke-width:4; stroke-opacity:1; fill:none" points="705.962,927.15 1035.32,504.118 "/>
<polyline clip-path="url(#clip422)" style="stroke:#adadad; stroke-linecap:round; stroke-linejoin:round; stroke-width:4; stroke-opacity:1; fill:none" points="705.962,757.937 1035.32,1011.76 "/>
<polyline clip-path="url(#clip422)" style="stroke:#adadad; stroke-linecap:round; stroke-linejoin:round; stroke-width:4; stroke-opacity:1; fill:none" points="705.962,757.937 1035.32,842.544 "/>
<polyline clip-path="url(#clip422)" style="stroke:#adadad; stroke-linecap:round; stroke-linejoin:round; stroke-width:4; stroke-opacity:1; fill:none" points="705.962,757.937 1035.32,673.331 "/>
<polyline clip-path="url(#clip422)" style="stroke:#adadad; stroke-linecap:round; stroke-linejoin:round; stroke-width:4; stroke-opacity:1; fill:none" points="705.962,757.937 1035.32,504.118 "/>
<polyline clip-path="url(#clip422)" style="stroke:#adadad; stroke-linecap:round; stroke-linejoin:round; stroke-width:4; stroke-opacity:1; fill:none" points="705.962,588.725 1035.32,1011.76 "/>
<polyline clip-path="url(#clip422)" style="stroke:#adadad; stroke-linecap:round; stroke-linejoin:round; stroke-width:4; stroke-opacity:1; fill:none" points="705.962,588.725 1035.32,842.544 "/>
<polyline clip-path="url(#clip422)" style="stroke:#adadad; stroke-linecap:round; stroke-linejoin:round; stroke-width:4; stroke-opacity:1; fill:none" points="705.962,588.725 1035.32,673.331 "/>
<polyline clip-path="url(#clip422)" style="stroke:#adadad; stroke-linecap:round; stroke-linejoin:round; stroke-width:4; stroke-opacity:1; fill:none" points="705.962,588.725 1035.32,504.118 "/>
<polyline clip-path="url(#clip422)" style="stroke:#adadad; stroke-linecap:round; stroke-linejoin:round; stroke-width:4; stroke-opacity:1; fill:none" points="705.962,419.512 1035.32,1011.76 "/>
<polyline clip-path="url(#clip422)" style="stroke:#adadad; stroke-linecap:round; stroke-linejoin:round; stroke-width:4; stroke-opacity:1; fill:none" points="705.962,419.512 1035.32,842.544 "/>
<polyline clip-path="url(#clip422)" style="stroke:#adadad; stroke-linecap:round; stroke-linejoin:round; stroke-width:4; stroke-opacity:1; fill:none" points="705.962,419.512 1035.32,673.331 "/>
<polyline clip-path="url(#clip422)" style="stroke:#adadad; stroke-linecap:round; stroke-linejoin:round; stroke-width:4; stroke-opacity:1; fill:none" points="705.962,419.512 1035.32,504.118 "/>
<polyline clip-path="url(#clip422)" style="stroke:#adadad; stroke-linecap:round; stroke-linejoin:round; stroke-width:4; stroke-opacity:1; fill:none" points="1035.32,1011.76 1364.68,1011.76 "/>
<polyline clip-path="url(#clip422)" style="stroke:#adadad; stroke-linecap:round; stroke-linejoin:round; stroke-width:4; stroke-opacity:1; fill:none" points="1035.32,1011.76 1364.68,842.544 "/>
<polyline clip-path="url(#clip422)" style="stroke:#adadad; stroke-linecap:round; stroke-linejoin:round; stroke-width:4; stroke-opacity:1; fill:none" points="1035.32,1011.76 1364.68,673.331 "/>
<polyline clip-path="url(#clip422)" style="stroke:#adadad; stroke-linecap:round; stroke-linejoin:round; stroke-width:4; stroke-opacity:1; fill:none" points="1035.32,1011.76 1364.68,504.118 "/>
<polyline clip-path="url(#clip422)" style="stroke:#adadad; stroke-linecap:round; stroke-linejoin:round; stroke-width:4; stroke-opacity:1; fill:none" points="1035.32,842.544 1364.68,1011.76 "/>
<polyline clip-path="url(#clip422)" style="stroke:#adadad; stroke-linecap:round; stroke-linejoin:round; stroke-width:4; stroke-opacity:1; fill:none" points="1035.32,842.544 1364.68,842.544 "/>
<polyline clip-path="url(#clip422)" style="stroke:#adadad; stroke-linecap:round; stroke-linejoin:round; stroke-width:4; stroke-opacity:1; fill:none" points="1035.32,842.544 1364.68,673.331 "/>
<polyline clip-path="url(#clip422)" style="stroke:#adadad; stroke-linecap:round; stroke-linejoin:round; stroke-width:4; stroke-opacity:1; fill:none" points="1035.32,842.544 1364.68,504.118 "/>
<polyline clip-path="url(#clip422)" style="stroke:#adadad; stroke-linecap:round; stroke-linejoin:round; stroke-width:4; stroke-opacity:1; fill:none" points="1035.32,673.331 1364.68,1011.76 "/>
<polyline clip-path="url(#clip422)" style="stroke:#adadad; stroke-linecap:round; stroke-linejoin:round; stroke-width:4; stroke-opacity:1; fill:none" points="1035.32,673.331 1364.68,842.544 "/>
<polyline clip-path="url(#clip422)" style="stroke:#adadad; stroke-linecap:round; stroke-linejoin:round; stroke-width:4; stroke-opacity:1; fill:none" points="1035.32,673.331 1364.68,673.331 "/>
<polyline clip-path="url(#clip422)" style="stroke:#adadad; stroke-linecap:round; stroke-linejoin:round; stroke-width:4; stroke-opacity:1; fill:none" points="1035.32,673.331 1364.68,504.118 "/>
<polyline clip-path="url(#clip422)" style="stroke:#adadad; stroke-linecap:round; stroke-linejoin:round; stroke-width:4; stroke-opacity:1; fill:none" points="1035.32,504.118 1364.68,1011.76 "/>
<polyline clip-path="url(#clip422)" style="stroke:#adadad; stroke-linecap:round; stroke-linejoin:round; stroke-width:4; stroke-opacity:1; fill:none" points="1035.32,504.118 1364.68,842.544 "/>
<polyline clip-path="url(#clip422)" style="stroke:#adadad; stroke-linecap:round; stroke-linejoin:round; stroke-width:4; stroke-opacity:1; fill:none" points="1035.32,504.118 1364.68,673.331 "/>
<polyline clip-path="url(#clip422)" style="stroke:#adadad; stroke-linecap:round; stroke-linejoin:round; stroke-width:4; stroke-opacity:1; fill:none" points="1035.32,504.118 1364.68,504.118 "/>
<polyline clip-path="url(#clip422)" style="stroke:#adadad; stroke-linecap:round; stroke-linejoin:round; stroke-width:4; stroke-opacity:1; fill:none" points="1364.68,1011.76 1694.04,1011.76 "/>
<polyline clip-path="url(#clip422)" style="stroke:#adadad; stroke-linecap:round; stroke-linejoin:round; stroke-width:4; stroke-opacity:1; fill:none" points="1364.68,1011.76 1694.04,842.544 "/>
<polyline clip-path="url(#clip422)" style="stroke:#adadad; stroke-linecap:round; stroke-linejoin:round; stroke-width:4; stroke-opacity:1; fill:none" points="1364.68,1011.76 1694.04,673.331 "/>
<polyline clip-path="url(#clip422)" style="stroke:#adadad; stroke-linecap:round; stroke-linejoin:round; stroke-width:4; stroke-opacity:1; fill:none" points="1364.68,1011.76 1694.04,504.118 "/>
<polyline clip-path="url(#clip422)" style="stroke:#adadad; stroke-linecap:round; stroke-linejoin:round; stroke-width:4; stroke-opacity:1; fill:none" points="1364.68,842.544 1694.04,1011.76 "/>
<polyline clip-path="url(#clip422)" style="stroke:#adadad; stroke-linecap:round; stroke-linejoin:round; stroke-width:4; stroke-opacity:1; fill:none" points="1364.68,842.544 1694.04,842.544 "/>
<polyline clip-path="url(#clip422)" style="stroke:#adadad; stroke-linecap:round; stroke-linejoin:round; stroke-width:4; stroke-opacity:1; fill:none" points="1364.68,842.544 1694.04,673.331 "/>
<polyline clip-path="url(#clip422)" style="stroke:#adadad; stroke-linecap:round; stroke-linejoin:round; stroke-width:4; stroke-opacity:1; fill:none" points="1364.68,842.544 1694.04,504.118 "/>
<polyline clip-path="url(#clip422)" style="stroke:#adadad; stroke-linecap:round; stroke-linejoin:round; stroke-width:4; stroke-opacity:1; fill:none" points="1364.68,673.331 1694.04,1011.76 "/>
<polyline clip-path="url(#clip422)" style="stroke:#adadad; stroke-linecap:round; stroke-linejoin:round; stroke-width:4; stroke-opacity:1; fill:none" points="1364.68,673.331 1694.04,842.544 "/>
<polyline clip-path="url(#clip422)" style="stroke:#adadad; stroke-linecap:round; stroke-linejoin:round; stroke-width:4; stroke-opacity:1; fill:none" points="1364.68,673.331 1694.04,673.331 "/>
<polyline clip-path="url(#clip422)" style="stroke:#adadad; stroke-linecap:round; stroke-linejoin:round; stroke-width:4; stroke-opacity:1; fill:none" points="1364.68,673.331 1694.04,504.118 "/>
<polyline clip-path="url(#clip422)" style="stroke:#adadad; stroke-linecap:round; stroke-linejoin:round; stroke-width:4; stroke-opacity:1; fill:none" points="1364.68,504.118 1694.04,1011.76 "/>
<polyline clip-path="url(#clip422)" style="stroke:#adadad; stroke-linecap:round; stroke-linejoin:round; stroke-width:4; stroke-opacity:1; fill:none" points="1364.68,504.118 1694.04,842.544 "/>
<polyline clip-path="url(#clip422)" style="stroke:#adadad; stroke-linecap:round; stroke-linejoin:round; stroke-width:4; stroke-opacity:1; fill:none" points="1364.68,504.118 1694.04,673.331 "/>
<polyline clip-path="url(#clip422)" style="stroke:#adadad; stroke-linecap:round; stroke-linejoin:round; stroke-width:4; stroke-opacity:1; fill:none" points="1364.68,504.118 1694.04,504.118 "/>
<polyline clip-path="url(#clip422)" style="stroke:#adadad; stroke-linecap:round; stroke-linejoin:round; stroke-width:4; stroke-opacity:1; fill:none" points="1694.04,1011.76 2023.4,927.15 "/>
<polyline clip-path="url(#clip422)" style="stroke:#adadad; stroke-linecap:round; stroke-linejoin:round; stroke-width:4; stroke-opacity:1; fill:none" points="1694.04,1011.76 2023.4,757.937 "/>
<polyline clip-path="url(#clip422)" style="stroke:#adadad; stroke-linecap:round; stroke-linejoin:round; stroke-width:4; stroke-opacity:1; fill:none" points="1694.04,1011.76 2023.4,588.725 "/>
<polyline clip-path="url(#clip422)" style="stroke:#adadad; stroke-linecap:round; stroke-linejoin:round; stroke-width:4; stroke-opacity:1; fill:none" points="1694.04,842.544 2023.4,927.15 "/>
<polyline clip-path="url(#clip422)" style="stroke:#adadad; stroke-linecap:round; stroke-linejoin:round; stroke-width:4; stroke-opacity:1; fill:none" points="1694.04,842.544 2023.4,757.937 "/>
<polyline clip-path="url(#clip422)" style="stroke:#adadad; stroke-linecap:round; stroke-linejoin:round; stroke-width:4; stroke-opacity:1; fill:none" points="1694.04,842.544 2023.4,588.725 "/>
<polyline clip-path="url(#clip422)" style="stroke:#adadad; stroke-linecap:round; stroke-linejoin:round; stroke-width:4; stroke-opacity:1; fill:none" points="1694.04,673.331 2023.4,927.15 "/>
<polyline clip-path="url(#clip422)" style="stroke:#adadad; stroke-linecap:round; stroke-linejoin:round; stroke-width:4; stroke-opacity:1; fill:none" points="1694.04,673.331 2023.4,757.937 "/>
<polyline clip-path="url(#clip422)" style="stroke:#adadad; stroke-linecap:round; stroke-linejoin:round; stroke-width:4; stroke-opacity:1; fill:none" points="1694.04,673.331 2023.4,588.725 "/>
<polyline clip-path="url(#clip422)" style="stroke:#adadad; stroke-linecap:round; stroke-linejoin:round; stroke-width:4; stroke-opacity:1; fill:none" points="1694.04,504.118 2023.4,927.15 "/>
<polyline clip-path="url(#clip422)" style="stroke:#adadad; stroke-linecap:round; stroke-linejoin:round; stroke-width:4; stroke-opacity:1; fill:none" points="1694.04,504.118 2023.4,757.937 "/>
<polyline clip-path="url(#clip422)" style="stroke:#adadad; stroke-linecap:round; stroke-linejoin:round; stroke-width:4; stroke-opacity:1; fill:none" points="1694.04,504.118 2023.4,588.725 "/>
<path clip-path="url(#clip422)" d="M376.603 883.152 L364.054 881.164 L352.734 875.396 L343.75 866.412 L337.982 855.092 L335.995 842.544 L337.982 829.995 L343.75 818.675 L352.734 809.691 L364.054 803.923 L376.603 801.936 L389.151 803.923 L400.472 809.691 L409.455 818.675 L415.223 829.995 L417.211 842.544 L415.223 855.092 L409.455 866.412 L400.472 875.396 L389.151 881.164 L376.603 883.152  Z" fill="#000000" fill-rule="evenodd" fill-opacity="0"/>
<polyline clip-path="url(#clip422)" style="stroke:#000000; stroke-linecap:round; stroke-linejoin:round; stroke-width:4; stroke-opacity:1; fill:none" points="376.603,883.152 364.054,881.164 352.734,875.396 343.75,866.412 337.982,855.092 335.995,842.544 337.982,829.995 343.75,818.675 352.734,809.691 364.054,803.923 376.603,801.936 389.151,803.923 400.472,809.691 409.455,818.675 415.223,829.995 417.211,842.544 415.223,855.092 409.455,866.412 400.472,875.396 389.151,881.164 376.603,883.152 "/>
<path clip-path="url(#clip422)" d="M376.603 713.939 L364.054 711.951 L352.734 706.183 L343.75 697.2 L337.982 685.879 L335.995 673.331 L337.982 660.782 L343.75 649.462 L352.734 640.478 L364.054 634.71 L376.603 632.723 L389.151 634.71 L400.472 640.478 L409.455 649.462 L415.223 660.782 L417.211 673.331 L415.223 685.879 L409.455 697.2 L400.472 706.183 L389.151 711.951 L376.603 713.939  Z" fill="#000000" fill-rule="evenodd" fill-opacity="0"/>
<polyline clip-path="url(#clip422)" style="stroke:#000000; stroke-linecap:round; stroke-linejoin:round; stroke-width:4; stroke-opacity:1; fill:none" points="376.603,713.939 364.054,711.951 352.734,706.183 343.75,697.2 337.982,685.879 335.995,673.331 337.982,660.782 343.75,649.462 352.734,640.478 364.054,634.71 376.603,632.723 389.151,634.71 400.472,640.478 409.455,649.462 415.223,660.782 417.211,673.331 415.223,685.879 409.455,697.2 400.472,706.183 389.151,711.951 376.603,713.939 "/>
<circle clip-path="url(#clip422)" cx="705.962" cy="1096.36" r="43.2" fill="#90ee90" fill-rule="evenodd" fill-opacity="1" stroke="#000000" stroke-opacity="1" stroke-width="3.2"/>
<circle clip-path="url(#clip422)" cx="705.962" cy="927.15" r="43.2" fill="#90ee90" fill-rule="evenodd" fill-opacity="1" stroke="#000000" stroke-opacity="1" stroke-width="3.2"/>
<circle clip-path="url(#clip422)" cx="705.962" cy="757.937" r="43.2" fill="#90ee90" fill-rule="evenodd" fill-opacity="1" stroke="#000000" stroke-opacity="1" stroke-width="3.2"/>
<circle clip-path="url(#clip422)" cx="705.962" cy="588.725" r="43.2" fill="#90ee90" fill-rule="evenodd" fill-opacity="1" stroke="#000000" stroke-opacity="1" stroke-width="3.2"/>
<circle clip-path="url(#clip422)" cx="705.962" cy="419.512" r="43.2" fill="#90ee90" fill-rule="evenodd" fill-opacity="1" stroke="#000000" stroke-opacity="1" stroke-width="3.2"/>
<path clip-path="url(#clip422)" d="M1035.32 1011.76 L1024.64 1010.06 L1015.01 1005.16 L1007.36 997.51 L1002.45 987.876 L1000.76 977.196 L1002.45 966.517 L1007.36 956.882 L1015.01 949.237 L1024.64 944.328 L1035.32 942.636 L1046 944.328 L1055.63 949.237 L1063.28 956.882 L1068.19 966.517 L1069.88 977.196 L1068.19 987.876 L1063.28 997.51 L1055.63 1005.16 L1046 1010.06 L1035.32 1011.76  Z" fill="#000000" fill-rule="evenodd" fill-opacity="0"/>
<polyline clip-path="url(#clip422)" style="stroke:#000000; stroke-linecap:round; stroke-linejoin:round; stroke-width:4; stroke-opacity:1; fill:none" points="1035.32,1011.76 1024.64,1010.06 1015.01,1005.16 1007.36,997.51 1002.45,987.876 1000.76,977.196 1002.45,966.517 1007.36,956.882 1015.01,949.237 1024.64,944.328 1035.32,942.636 1046,944.328 1055.63,949.237 1063.28,956.882 1068.19,966.517 1069.88,977.196 1068.19,987.876 1063.28,997.51 1055.63,1005.16 1046,1010.06 1035.32,1011.76 "/>
<path clip-path="url(#clip422)" d="M1035.32 842.544 L1024.64 840.852 L1015.01 835.943 L1007.36 828.297 L1002.45 818.663 L1000.76 807.984 L1002.45 797.304 L1007.36 787.67 L1015.01 780.024 L1024.64 775.115 L1035.32 773.424 L1046 775.115 L1055.63 780.024 L1063.28 787.67 L1068.19 797.304 L1069.88 807.984 L1068.19 818.663 L1063.28 828.297 L1055.63 835.943 L1046 840.852 L1035.32 842.544  Z" fill="#000000" fill-rule="evenodd" fill-opacity="0"/>
<polyline clip-path="url(#clip422)" style="stroke:#000000; stroke-linecap:round; stroke-linejoin:round; stroke-width:4; stroke-opacity:1; fill:none" points="1035.32,842.544 1024.64,840.852 1015.01,835.943 1007.36,828.297 1002.45,818.663 1000.76,807.984 1002.45,797.304 1007.36,787.67 1015.01,780.024 1024.64,775.115 1035.32,773.424 1046,775.115 1055.63,780.024 1063.28,787.67 1068.19,797.304 1069.88,807.984 1068.19,818.663 1063.28,828.297 1055.63,835.943 1046,840.852 1035.32,842.544 "/>
<path clip-path="url(#clip422)" d="M1035.32 673.331 L1024.64 671.639 L1015.01 666.731 L1007.36 659.085 L1002.45 649.451 L1000.76 638.771 L1002.45 628.091 L1007.36 618.457 L1015.01 610.811 L1024.64 605.902 L1035.32 604.211 L1046 605.902 L1055.63 610.811 L1063.28 618.457 L1068.19 628.091 L1069.88 638.771 L1068.19 649.451 L1063.28 659.085 L1055.63 666.731 L1046 671.639 L1035.32 673.331  Z" fill="#000000" fill-rule="evenodd" fill-opacity="0"/>
<polyline clip-path="url(#clip422)" style="stroke:#000000; stroke-linecap:round; stroke-linejoin:round; stroke-width:4; stroke-opacity:1; fill:none" points="1035.32,673.331 1024.64,671.639 1015.01,666.731 1007.36,659.085 1002.45,649.451 1000.76,638.771 1002.45,628.091 1007.36,618.457 1015.01,610.811 1024.64,605.902 1035.32,604.211 1046,605.902 1055.63,610.811 1063.28,618.457 1068.19,628.091 1069.88,638.771 1068.19,649.451 1063.28,659.085 1055.63,666.731 1046,671.639 1035.32,673.331 "/>
<path clip-path="url(#clip422)" d="M1035.32 504.118 L1024.64 502.427 L1015.01 497.518 L1007.36 489.872 L1002.45 480.238 L1000.76 469.558 L1002.45 458.879 L1007.36 449.244 L1015.01 441.599 L1024.64 436.69 L1035.32 434.998 L1046 436.69 L1055.63 441.599 L1063.28 449.244 L1068.19 458.879 L1069.88 469.558 L1068.19 480.238 L1063.28 489.872 L1055.63 497.518 L1046 502.427 L1035.32 504.118  Z" fill="#000000" fill-rule="evenodd" fill-opacity="0"/>
<polyline clip-path="url(#clip422)" style="stroke:#000000; stroke-linecap:round; stroke-linejoin:round; stroke-width:4; stroke-opacity:1; fill:none" points="1035.32,504.118 1024.64,502.427 1015.01,497.518 1007.36,489.872 1002.45,480.238 1000.76,469.558 1002.45,458.879 1007.36,449.244 1015.01,441.599 1024.64,436.69 1035.32,434.998 1046,436.69 1055.63,441.599 1063.28,449.244 1068.19,458.879 1069.88,469.558 1068.19,480.238 1063.28,489.872 1055.63,497.518 1046,502.427 1035.32,504.118 "/>
<path clip-path="url(#clip422)" d="M1364.68 1006 L1355.78 1004.59 L1347.75 1000.5 L1341.38 994.124 L1337.29 986.096 L1335.88 977.196 L1337.29 968.296 L1341.38 960.268 L1347.75 953.896 L1355.78 949.806 L1364.68 948.396 L1373.58 949.806 L1381.61 953.896 L1387.98 960.268 L1392.07 968.296 L1393.48 977.196 L1392.07 986.096 L1387.98 994.124 L1381.61 1000.5 L1373.58 1004.59 L1364.68 1006 L1364.68 1017.52 L1352.22 1015.54 L1340.98 1009.82 L1332.06 1000.9 L1326.33 989.656 L1324.36 977.196 L1326.33 964.737 L1332.06 953.497 L1340.98 944.577 L1352.22 938.85 L1364.68 936.876 L1377.14 938.85 L1388.38 944.577 L1397.3 953.497 L1403.03 964.737 L1405 977.196 L1403.03 989.656 L1397.3 1000.9 L1388.38 1009.82 L1377.14 1015.54 L1364.68 1017.52  Z" fill="#000000" fill-rule="evenodd" fill-opacity="0"/>
<polyline clip-path="url(#clip422)" style="stroke:#000000; stroke-linecap:round; stroke-linejoin:round; stroke-width:4; stroke-opacity:1; fill:none" points="1364.68,1006 1355.78,1004.59 1347.75,1000.5 1341.38,994.124 1337.29,986.096 1335.88,977.196 1337.29,968.296 1341.38,960.268 1347.75,953.896 1355.78,949.806 1364.68,948.396 1373.58,949.806 1381.61,953.896 1387.98,960.268 1392.07,968.296 1393.48,977.196 1392.07,986.096 1387.98,994.124 1381.61,1000.5 1373.58,1004.59 1364.68,1006 1364.68,1017.52 1352.22,1015.54 1340.98,1009.82 1332.06,1000.9 1326.33,989.656 1324.36,977.196 1326.33,964.737 1332.06,953.497 1340.98,944.577 1352.22,938.85 1364.68,936.876 1377.14,938.85 1388.38,944.577 1397.3,953.497 1403.03,964.737 1405,977.196 1403.03,989.656 1397.3,1000.9 1388.38,1009.82 1377.14,1015.54 1364.68,1017.52 "/>
<path clip-path="url(#clip422)" d="M1364.68 836.784 L1355.78 835.374 L1347.75 831.283 L1341.38 824.912 L1337.29 816.883 L1335.88 807.984 L1337.29 799.084 L1341.38 791.055 L1347.75 784.684 L1355.78 780.593 L1364.68 779.184 L1373.58 780.593 L1381.61 784.684 L1387.98 791.055 L1392.07 799.084 L1393.48 807.984 L1392.07 816.883 L1387.98 824.912 L1381.61 831.283 L1373.58 835.374 L1364.68 836.784 L1364.68 848.304 L1352.22 846.33 L1340.98 840.603 L1332.06 831.683 L1326.33 820.443 L1324.36 807.984 L1326.33 795.524 L1332.06 784.284 L1340.98 775.364 L1352.22 769.637 L1364.68 767.664 L1377.14 769.637 L1388.38 775.364 L1397.3 784.284 L1403.03 795.524 L1405 807.984 L1403.03 820.443 L1397.3 831.683 L1388.38 840.603 L1377.14 846.33 L1364.68 848.304  Z" fill="#000000" fill-rule="evenodd" fill-opacity="0"/>
<polyline clip-path="url(#clip422)" style="stroke:#000000; stroke-linecap:round; stroke-linejoin:round; stroke-width:4; stroke-opacity:1; fill:none" points="1364.68,836.784 1355.78,835.374 1347.75,831.283 1341.38,824.912 1337.29,816.883 1335.88,807.984 1337.29,799.084 1341.38,791.055 1347.75,784.684 1355.78,780.593 1364.68,779.184 1373.58,780.593 1381.61,784.684 1387.98,791.055 1392.07,799.084 1393.48,807.984 1392.07,816.883 1387.98,824.912 1381.61,831.283 1373.58,835.374 1364.68,836.784 1364.68,848.304 1352.22,846.33 1340.98,840.603 1332.06,831.683 1326.33,820.443 1324.36,807.984 1326.33,795.524 1332.06,784.284 1340.98,775.364 1352.22,769.637 1364.68,767.664 1377.14,769.637 1388.38,775.364 1397.3,784.284 1403.03,795.524 1405,807.984 1403.03,820.443 1397.3,831.683 1388.38,840.603 1377.14,846.33 1364.68,848.304 "/>
<path clip-path="url(#clip422)" d="M1364.68 667.571 L1355.78 666.161 L1347.75 662.071 L1341.38 655.699 L1337.29 647.671 L1335.88 638.771 L1337.29 629.871 L1341.38 621.843 L1347.75 615.471 L1355.78 611.38 L1364.68 609.971 L1373.58 611.38 L1381.61 615.471 L1387.98 621.843 L1392.07 629.871 L1393.48 638.771 L1392.07 647.671 L1387.98 655.699 L1381.61 662.071 L1373.58 666.161 L1364.68 667.571 L1364.68 679.091 L1352.22 677.117 L1340.98 671.39 L1332.06 662.47 L1326.33 651.23 L1324.36 638.771 L1326.33 626.311 L1332.06 615.071 L1340.98 606.151 L1352.22 600.424 L1364.68 598.451 L1377.14 600.424 L1388.38 606.151 L1397.3 615.071 L1403.03 626.311 L1405 638.771 L1403.03 651.23 L1397.3 662.47 L1388.38 671.39 L1377.14 677.117 L1364.68 679.091  Z" fill="#000000" fill-rule="evenodd" fill-opacity="0"/>
<polyline clip-path="url(#clip422)" style="stroke:#000000; stroke-linecap:round; stroke-linejoin:round; stroke-width:4; stroke-opacity:1; fill:none" points="1364.68,667.571 1355.78,666.161 1347.75,662.071 1341.38,655.699 1337.29,647.671 1335.88,638.771 1337.29,629.871 1341.38,621.843 1347.75,615.471 1355.78,611.38 1364.68,609.971 1373.58,611.38 1381.61,615.471 1387.98,621.843 1392.07,629.871 1393.48,638.771 1392.07,647.671 1387.98,655.699 1381.61,662.071 1373.58,666.161 1364.68,667.571 1364.68,679.091 1352.22,677.117 1340.98,671.39 1332.06,662.47 1326.33,651.23 1324.36,638.771 1326.33,626.311 1332.06,615.071 1340.98,606.151 1352.22,600.424 1364.68,598.451 1377.14,600.424 1388.38,606.151 1397.3,615.071 1403.03,626.311 1405,638.771 1403.03,651.23 1397.3,662.47 1388.38,671.39 1377.14,677.117 1364.68,679.091 "/>
<path clip-path="url(#clip422)" d="M1364.68 498.358 L1355.78 496.949 L1347.75 492.858 L1341.38 486.486 L1337.29 478.458 L1335.88 469.558 L1337.29 460.659 L1341.38 452.63 L1347.75 446.259 L1355.78 442.168 L1364.68 440.758 L1373.58 442.168 L1381.61 446.259 L1387.98 452.63 L1392.07 460.659 L1393.48 469.558 L1392.07 478.458 L1387.98 486.486 L1381.61 492.858 L1373.58 496.949 L1364.68 498.358 L1364.68 509.878 L1352.22 507.905 L1340.98 502.178 L1332.06 493.258 L1326.33 482.018 L1324.36 469.558 L1326.33 457.099 L1332.06 445.859 L1340.98 436.939 L1352.22 431.212 L1364.68 429.238 L1377.14 431.212 L1388.38 436.939 L1397.3 445.859 L1403.03 457.099 L1405 469.558 L1403.03 482.018 L1397.3 493.258 L1388.38 502.178 L1377.14 507.905 L1364.68 509.878  Z" fill="#000000" fill-rule="evenodd" fill-opacity="0"/>
<polyline clip-path="url(#clip422)" style="stroke:#000000; stroke-linecap:round; stroke-linejoin:round; stroke-width:4; stroke-opacity:1; fill:none" points="1364.68,498.358 1355.78,496.949 1347.75,492.858 1341.38,486.486 1337.29,478.458 1335.88,469.558 1337.29,460.659 1341.38,452.63 1347.75,446.259 1355.78,442.168 1364.68,440.758 1373.58,442.168 1381.61,446.259 1387.98,452.63 1392.07,460.659 1393.48,469.558 1392.07,478.458 1387.98,486.486 1381.61,492.858 1373.58,496.949 1364.68,498.358 1364.68,509.878 1352.22,507.905 1340.98,502.178 1332.06,493.258 1326.33,482.018 1324.36,469.558 1326.33,457.099 1332.06,445.859 1340.98,436.939 1352.22,431.212 1364.68,429.238 1377.14,431.212 1388.38,436.939 1397.3,445.859 1403.03,457.099 1405,469.558 1403.03,482.018 1397.3,493.258 1388.38,502.178 1377.14,507.905 1364.68,509.878 "/>
<path clip-path="url(#clip422)" d="M1694.04 1017.52 L1689.59 1015.54 L1685.57 1009.82 L1682.39 1000.9 L1680.34 989.656 L1679.64 977.196 L1680.34 964.737 L1682.39 953.497 L1685.57 944.577 L1689.59 938.85 L1694.04 936.876 L1698.49 938.85 L1702.5 944.577 L1705.69 953.497 L1707.73 964.737 L1708.44 977.196 L1707.73 989.656 L1705.69 1000.9 L1702.5 1009.82 L1698.49 1015.54 L1694.04 1017.52 L1694.04 1006 L1685.14 1004.59 L1677.11 1000.5 L1670.74 994.124 L1666.65 986.096 L1665.24 977.196 L1666.65 968.296 L1670.74 960.268 L1677.11 953.896 L1685.14 949.806 L1694.04 948.396 L1702.94 949.806 L1710.97 953.896 L1717.34 960.268 L1721.43 968.296 L1722.84 977.196 L1721.43 986.096 L1717.34 994.124 L1710.97 1000.5 L1702.94 1004.59 L1694.04 1006  Z" fill="#000000" fill-rule="evenodd" fill-opacity="0"/>
<polyline clip-path="url(#clip422)" style="stroke:#000000; stroke-linecap:round; stroke-linejoin:round; stroke-width:4; stroke-opacity:1; fill:none" points="1694.04,1017.52 1689.59,1015.54 1685.57,1009.82 1682.39,1000.9 1680.34,989.656 1679.64,977.196 1680.34,964.737 1682.39,953.497 1685.57,944.577 1689.59,938.85 1694.04,936.876 1698.49,938.85 1702.5,944.577 1705.69,953.497 1707.73,964.737 1708.44,977.196 1707.73,989.656 1705.69,1000.9 1702.5,1009.82 1698.49,1015.54 1694.04,1017.52 1694.04,1006 1685.14,1004.59 1677.11,1000.5 1670.74,994.124 1666.65,986.096 1665.24,977.196 1666.65,968.296 1670.74,960.268 1677.11,953.896 1685.14,949.806 1694.04,948.396 1702.94,949.806 1710.97,953.896 1717.34,960.268 1721.43,968.296 1722.84,977.196 1721.43,986.096 1717.34,994.124 1710.97,1000.5 1702.94,1004.59 1694.04,1006 "/>
<path clip-path="url(#clip422)" d="M1694.04 848.304 L1689.59 846.33 L1685.57 840.603 L1682.39 831.683 L1680.34 820.443 L1679.64 807.984 L1680.34 795.524 L1682.39 784.284 L1685.57 775.364 L1689.59 769.637 L1694.04 767.664 L1698.49 769.637 L1702.5 775.364 L1705.69 784.284 L1707.73 795.524 L1708.44 807.984 L1707.73 820.443 L1705.69 831.683 L1702.5 840.603 L1698.49 846.33 L1694.04 848.304 L1694.04 836.784 L1685.14 835.374 L1677.11 831.283 L1670.74 824.912 L1666.65 816.883 L1665.24 807.984 L1666.65 799.084 L1670.74 791.055 L1677.11 784.684 L1685.14 780.593 L1694.04 779.184 L1702.94 780.593 L1710.97 784.684 L1717.34 791.055 L1721.43 799.084 L1722.84 807.984 L1721.43 816.883 L1717.34 824.912 L1710.97 831.283 L1702.94 835.374 L1694.04 836.784  Z" fill="#000000" fill-rule="evenodd" fill-opacity="0"/>
<polyline clip-path="url(#clip422)" style="stroke:#000000; stroke-linecap:round; stroke-linejoin:round; stroke-width:4; stroke-opacity:1; fill:none" points="1694.04,848.304 1689.59,846.33 1685.57,840.603 1682.39,831.683 1680.34,820.443 1679.64,807.984 1680.34,795.524 1682.39,784.284 1685.57,775.364 1689.59,769.637 1694.04,767.664 1698.49,769.637 1702.5,775.364 1705.69,784.284 1707.73,795.524 1708.44,807.984 1707.73,820.443 1705.69,831.683 1702.5,840.603 1698.49,846.33 1694.04,848.304 1694.04,836.784 1685.14,835.374 1677.11,831.283 1670.74,824.912 1666.65,816.883 1665.24,807.984 1666.65,799.084 1670.74,791.055 1677.11,784.684 1685.14,780.593 1694.04,779.184 1702.94,780.593 1710.97,784.684 1717.34,791.055 1721.43,799.084 1722.84,807.984 1721.43,816.883 1717.34,824.912 1710.97,831.283 1702.94,835.374 1694.04,836.784 "/>
<path clip-path="url(#clip422)" d="M1694.04 679.091 L1689.59 677.117 L1685.57 671.39 L1682.39 662.47 L1680.34 651.23 L1679.64 638.771 L1680.34 626.311 L1682.39 615.071 L1685.57 606.151 L1689.59 600.424 L1694.04 598.451 L1698.49 600.424 L1702.5 606.151 L1705.69 615.071 L1707.73 626.311 L1708.44 638.771 L1707.73 651.23 L1705.69 662.47 L1702.5 671.39 L1698.49 677.117 L1694.04 679.091 L1694.04 667.571 L1685.14 666.161 L1677.11 662.071 L1670.74 655.699 L1666.65 647.671 L1665.24 638.771 L1666.65 629.871 L1670.74 621.843 L1677.11 615.471 L1685.14 611.38 L1694.04 609.971 L1702.94 611.38 L1710.97 615.471 L1717.34 621.843 L1721.43 629.871 L1722.84 638.771 L1721.43 647.671 L1717.34 655.699 L1710.97 662.071 L1702.94 666.161 L1694.04 667.571  Z" fill="#000000" fill-rule="evenodd" fill-opacity="0"/>
<polyline clip-path="url(#clip422)" style="stroke:#000000; stroke-linecap:round; stroke-linejoin:round; stroke-width:4; stroke-opacity:1; fill:none" points="1694.04,679.091 1689.59,677.117 1685.57,671.39 1682.39,662.47 1680.34,651.23 1679.64,638.771 1680.34,626.311 1682.39,615.071 1685.57,606.151 1689.59,600.424 1694.04,598.451 1698.49,600.424 1702.5,606.151 1705.69,615.071 1707.73,626.311 1708.44,638.771 1707.73,651.23 1705.69,662.47 1702.5,671.39 1698.49,677.117 1694.04,679.091 1694.04,667.571 1685.14,666.161 1677.11,662.071 1670.74,655.699 1666.65,647.671 1665.24,638.771 1666.65,629.871 1670.74,621.843 1677.11,615.471 1685.14,611.38 1694.04,609.971 1702.94,611.38 1710.97,615.471 1717.34,621.843 1721.43,629.871 1722.84,638.771 1721.43,647.671 1717.34,655.699 1710.97,662.071 1702.94,666.161 1694.04,667.571 "/>
<path clip-path="url(#clip422)" d="M1694.04 509.878 L1689.59 507.905 L1685.57 502.178 L1682.39 493.258 L1680.34 482.018 L1679.64 469.558 L1680.34 457.099 L1682.39 445.859 L1685.57 436.939 L1689.59 431.212 L1694.04 429.238 L1698.49 431.212 L1702.5 436.939 L1705.69 445.859 L1707.73 457.099 L1708.44 469.558 L1707.73 482.018 L1705.69 493.258 L1702.5 502.178 L1698.49 507.905 L1694.04 509.878 L1694.04 498.358 L1685.14 496.949 L1677.11 492.858 L1670.74 486.486 L1666.65 478.458 L1665.24 469.558 L1666.65 460.659 L1670.74 452.63 L1677.11 446.259 L1685.14 442.168 L1694.04 440.758 L1702.94 442.168 L1710.97 446.259 L1717.34 452.63 L1721.43 460.659 L1722.84 469.558 L1721.43 478.458 L1717.34 486.486 L1710.97 492.858 L1702.94 496.949 L1694.04 498.358  Z" fill="#000000" fill-rule="evenodd" fill-opacity="0"/>
<polyline clip-path="url(#clip422)" style="stroke:#000000; stroke-linecap:round; stroke-linejoin:round; stroke-width:4; stroke-opacity:1; fill:none" points="1694.04,509.878 1689.59,507.905 1685.57,502.178 1682.39,493.258 1680.34,482.018 1679.64,469.558 1680.34,457.099 1682.39,445.859 1685.57,436.939 1689.59,431.212 1694.04,429.238 1698.49,431.212 1702.5,436.939 1705.69,445.859 1707.73,457.099 1708.44,469.558 1707.73,482.018 1705.69,493.258 1702.5,502.178 1698.49,507.905 1694.04,509.878 1694.04,498.358 1685.14,496.949 1677.11,492.858 1670.74,486.486 1666.65,478.458 1665.24,469.558 1666.65,460.659 1670.74,452.63 1677.11,446.259 1685.14,442.168 1694.04,440.758 1702.94,442.168 1710.97,446.259 1717.34,452.63 1721.43,460.659 1722.84,469.558 1721.43,478.458 1717.34,486.486 1710.97,492.858 1702.94,496.949 1694.04,498.358 "/>
<circle clip-path="url(#clip422)" cx="2023.4" cy="927.15" r="43.2" fill="#90ee90" fill-rule="evenodd" fill-opacity="1" stroke="#000000" stroke-opacity="1" stroke-width="3.2"/>
<circle clip-path="url(#clip422)" cx="2023.4" cy="757.937" r="43.2" fill="#90ee90" fill-rule="evenodd" fill-opacity="1" stroke="#000000" stroke-opacity="1" stroke-width="3.2"/>
<circle clip-path="url(#clip422)" cx="2023.4" cy="588.725" r="43.2" fill="#90ee90" fill-rule="evenodd" fill-opacity="1" stroke="#000000" stroke-opacity="1" stroke-width="3.2"/>
<path clip-path="url(#clip422)" d="M415.003 842.544 L357.403 808.944 L357.403 876.144 L415.003 842.544 Z" fill="#ffff00" fill-rule="evenodd" fill-opacity="1" stroke="#000000" stroke-opacity="1" stroke-width="3.2"/>
<path clip-path="url(#clip422)" d="M415.003 673.331 L357.403 639.731 L357.403 706.931 L415.003 673.331 Z" fill="#ffff00" fill-rule="evenodd" fill-opacity="1" stroke="#000000" stroke-opacity="1" stroke-width="3.2"/>
<circle clip-path="url(#clip422)" cx="1035.32" cy="1011.76" r="43.2" fill="#b0e2ff" fill-rule="evenodd" fill-opacity="1" stroke="#000000" stroke-opacity="1" stroke-width="3.2"/>
<circle clip-path="url(#clip422)" cx="1035.32" cy="842.544" r="43.2" fill="#b0e2ff" fill-rule="evenodd" fill-opacity="1" stroke="#000000" stroke-opacity="1" stroke-width="3.2"/>
<circle clip-path="url(#clip422)" cx="1035.32" cy="673.331" r="43.2" fill="#b0e2ff" fill-rule="evenodd" fill-opacity="1" stroke="#000000" stroke-opacity="1" stroke-width="3.2"/>
<circle clip-path="url(#clip422)" cx="1035.32" cy="504.118" r="43.2" fill="#b0e2ff" fill-rule="evenodd" fill-opacity="1" stroke="#000000" stroke-opacity="1" stroke-width="3.2"/>
<circle clip-path="url(#clip422)" cx="1364.68" cy="1011.76" r="43.2" fill="#7ec0ee" fill-rule="evenodd" fill-opacity="1" stroke="#000000" stroke-opacity="1" stroke-width="3.2"/>
<circle clip-path="url(#clip422)" cx="1364.68" cy="842.544" r="43.2" fill="#7ec0ee" fill-rule="evenodd" fill-opacity="1" stroke="#000000" stroke-opacity="1" stroke-width="3.2"/>
<circle clip-path="url(#clip422)" cx="1364.68" cy="673.331" r="43.2" fill="#7ec0ee" fill-rule="evenodd" fill-opacity="1" stroke="#000000" stroke-opacity="1" stroke-width="3.2"/>
<circle clip-path="url(#clip422)" cx="1364.68" cy="504.118" r="43.2" fill="#7ec0ee" fill-rule="evenodd" fill-opacity="1" stroke="#000000" stroke-opacity="1" stroke-width="3.2"/>
<circle clip-path="url(#clip422)" cx="1694.04" cy="1011.76" r="43.2" fill="#6ca6cd" fill-rule="evenodd" fill-opacity="1" stroke="#000000" stroke-opacity="1" stroke-width="3.2"/>
<circle clip-path="url(#clip422)" cx="1694.04" cy="842.544" r="43.2" fill="#6ca6cd" fill-rule="evenodd" fill-opacity="1" stroke="#000000" stroke-opacity="1" stroke-width="3.2"/>
<circle clip-path="url(#clip422)" cx="1694.04" cy="673.331" r="43.2" fill="#6ca6cd" fill-rule="evenodd" fill-opacity="1" stroke="#000000" stroke-opacity="1" stroke-width="3.2"/>
<circle clip-path="url(#clip422)" cx="1694.04" cy="504.118" r="43.2" fill="#6ca6cd" fill-rule="evenodd" fill-opacity="1" stroke="#000000" stroke-opacity="1" stroke-width="3.2"/>
<path clip-path="url(#clip422)" d="M2061.8 927.15 L2004.2 893.55 L2004.2 960.75 L2061.8 927.15 Z" fill="#ffa500" fill-rule="evenodd" fill-opacity="1" stroke="#000000" stroke-opacity="1" stroke-width="3.2"/>
<path clip-path="url(#clip422)" d="M2061.8 757.937 L2004.2 724.337 L2004.2 791.537 L2061.8 757.937 Z" fill="#ffa500" fill-rule="evenodd" fill-opacity="1" stroke="#000000" stroke-opacity="1" stroke-width="3.2"/>
<path clip-path="url(#clip422)" d="M2061.8 588.725 L2004.2 555.125 L2004.2 622.325 L2061.8 588.725 Z" fill="#ffa500" fill-rule="evenodd" fill-opacity="1" stroke="#000000" stroke-opacity="1" stroke-width="3.2"/>
<g clip-path="url(#clip420)">
<text style="fill:#000000; fill-opacity:1; font-family:Century Gothic,CenturyGothic,AppleGothic,sans-serif; font-size:47px; text-anchor:middle;" transform="rotate(-20, 382.588, 520.563)" x="382.588" y="520.563">input</text>
</g>
<g clip-path="url(#clip420)">
<text style="fill:#000000; fill-opacity:1; font-family:Century Gothic,CenturyGothic,AppleGothic,sans-serif; font-size:47px; text-anchor:middle;" transform="rotate(-20, 711.947, 266.744)" x="711.947" y="266.744">Dense(2 =&gt; 5, σ)</text>
</g>
<g clip-path="url(#clip420)">
<text style="fill:#000000; fill-opacity:1; font-family:Century Gothic,CenturyGothic,AppleGothic,sans-serif; font-size:47px; text-anchor:middle;" transform="rotate(-20, 1041.31, 351.35)" x="1041.31" y="351.35">Recur(RNNCell(5 =&gt; 4, relu))</text>
</g>
<g clip-path="url(#clip420)">
<text style="fill:#000000; fill-opacity:1; font-family:Century Gothic,CenturyGothic,AppleGothic,sans-serif; font-size:47px; text-anchor:middle;" transform="rotate(-20, 1370.66, 351.35)" x="1370.66" y="351.35">Recur(LSTMCell(4 =&gt; 4))</text>
</g>
<g clip-path="url(#clip420)">
<text style="fill:#000000; fill-opacity:1; font-family:Century Gothic,CenturyGothic,AppleGothic,sans-serif; font-size:47px; text-anchor:middle;" transform="rotate(-20, 1700.02, 351.35)" x="1700.02" y="351.35">Recur(GRUCell(4 =&gt; 4))</text>
</g>
<g clip-path="url(#clip420)">
<text style="fill:#000000; fill-opacity:1; font-family:Century Gothic,CenturyGothic,AppleGothic,sans-serif; font-size:47px; text-anchor:middle;" transform="rotate(-20, 2029.38, 435.957)" x="2029.38" y="435.957">Dense(4 =&gt; 3)</text>
</g>
</svg>
