<?xml version="1.0" encoding="utf-8"?>
<svg xmlns="http://www.w3.org/2000/svg" xmlns:xlink="http://www.w3.org/1999/xlink" width="600" height="400" viewBox="0 0 2400 1600">
<defs>
  <clipPath id="clip900">
    <rect x="0" y="0" width="2400" height="1600"/>
  </clipPath>
</defs>
<path clip-path="url(#clip900)" d="M0 1600 L2400 1600 L2400 0 L0 0  Z" fill="#ffffff" fill-rule="evenodd" fill-opacity="1"/>
<defs>
  <clipPath id="clip901">
    <rect x="480" y="0" width="1681" height="1600"/>
  </clipPath>
</defs>
<path clip-path="url(#clip900)" d="M47.2441 1552.76 L2352.76 1552.76 L2352.76 106.192 L47.2441 106.192  Z" fill="#ffffff" fill-rule="evenodd" fill-opacity="1"/>
<defs>
  <clipPath id="clip902">
    <rect x="47" y="106" width="2307" height="1448"/>
  </clipPath>
</defs>
<path clip-path="url(#clip900)" d="M70.362 11.9675 L70.362 18.1307 Q67.4106 15.3819 64.0541 14.0219 Q60.7266 12.662 56.965 12.662 Q49.5577 12.662 45.6225 17.2048 Q41.6873 21.7186 41.6873 30.2834 Q41.6873 38.8192 45.6225 43.362 Q49.5577 47.8759 56.965 47.8759 Q60.7266 47.8759 64.0541 46.516 Q67.4106 45.156 70.362 42.4072 L70.362 48.5125 Q67.2948 50.5958 63.8516 51.6375 Q60.4372 52.6791 56.6178 52.6791 Q46.8088 52.6791 41.1665 46.6896 Q35.5242 40.6711 35.5242 30.2834 Q35.5242 19.8668 41.1665 13.8772 Q46.8088 7.85875 56.6178 7.85875 Q60.4951 7.85875 63.9094 8.90042 Q67.3527 9.91314 70.362 11.9675 Z" fill="#000000" fill-rule="nonzero" fill-opacity="1" /><path clip-path="url(#clip900)" d="M106.097 32.2799 L106.097 51.84 L100.773 51.84 L100.773 32.4535 Q100.773 27.8529 98.9787 25.567 Q97.1847 23.2811 93.5968 23.2811 Q89.2855 23.2811 86.7971 26.03 Q84.3086 28.7788 84.3086 33.5241 L84.3086 51.84 L78.9557 51.84 L78.9557 6.81709 L84.3086 6.81709 L84.3086 24.4675 Q86.2184 21.545 88.7936 20.0983 Q91.3977 18.6515 94.7831 18.6515 Q100.368 18.6515 103.232 22.1237 Q106.097 25.567 106.097 32.2799 Z" fill="#000000" fill-rule="nonzero" fill-opacity="1" /><path clip-path="url(#clip900)" d="M131.444 35.5496 Q124.991 35.5496 122.503 37.0253 Q120.014 38.501 120.014 42.06 Q120.014 44.8956 121.866 46.5738 Q123.747 48.2231 126.959 48.2231 Q131.386 48.2231 134.048 45.0981 Q136.739 41.9442 136.739 36.7359 L136.739 35.5496 L131.444 35.5496 M142.063 33.3505 L142.063 51.84 L136.739 51.84 L136.739 46.921 Q134.916 49.8724 132.196 51.2902 Q129.476 52.6791 125.541 52.6791 Q120.564 52.6791 117.613 49.9014 Q114.69 47.0947 114.69 42.4072 Q114.69 36.9385 118.336 34.1607 Q122.011 31.3829 129.274 31.3829 L136.739 31.3829 L136.739 30.8621 Q136.739 27.1874 134.308 25.1908 Q131.907 23.1654 127.538 23.1654 Q124.76 23.1654 122.127 23.8309 Q119.494 24.4964 117.063 25.8274 L117.063 20.9085 Q119.986 19.78 122.734 19.2302 Q125.483 18.6515 128.087 18.6515 Q135.119 18.6515 138.591 22.2973 Q142.063 25.9431 142.063 33.3505 Z" fill="#000000" fill-rule="nonzero" fill-opacity="1" /><path clip-path="url(#clip900)" d="M153.029 19.4328 L158.353 19.4328 L158.353 51.84 L153.029 51.84 L153.029 19.4328 M153.029 6.81709 L158.353 6.81709 L158.353 13.559 L153.029 13.559 L153.029 6.81709 Z" fill="#000000" fill-rule="nonzero" fill-opacity="1" /><path clip-path="url(#clip900)" d="M196.432 32.2799 L196.432 51.84 L191.108 51.84 L191.108 32.4535 Q191.108 27.8529 189.314 25.567 Q187.52 23.2811 183.932 23.2811 Q179.621 23.2811 177.132 26.03 Q174.644 28.7788 174.644 33.5241 L174.644 51.84 L169.291 51.84 L169.291 19.4328 L174.644 19.4328 L174.644 24.4675 Q176.554 21.545 179.129 20.0983 Q181.733 18.6515 185.118 18.6515 Q190.703 18.6515 193.567 22.1237 Q196.432 25.567 196.432 32.2799 Z" fill="#000000" fill-rule="nonzero" fill-opacity="1" /><path clip-path="url(#clip900)" d="M219.84 6.87496 Q215.963 13.53 214.082 20.0404 Q212.201 26.5508 212.201 33.2348 Q212.201 39.9188 214.082 46.487 Q215.992 53.0263 219.84 59.6525 L215.211 59.6525 Q210.87 52.8527 208.7 46.2845 Q206.559 39.7162 206.559 33.2348 Q206.559 26.7823 208.7 20.2429 Q210.842 13.7036 215.211 6.87496 L219.84 6.87496 Z" fill="#000000" fill-rule="nonzero" fill-opacity="1" /><path clip-path="url(#clip900)" d="M236.246 13.4432 L236.246 47.0368 L243.307 47.0368 Q252.248 47.0368 256.385 42.9859 Q260.552 38.935 260.552 30.1966 Q260.552 21.5161 256.385 17.4941 Q252.248 13.4432 243.307 13.4432 L236.246 13.4432 M230.402 8.64 L242.41 8.64 Q254.967 8.64 260.841 13.8772 Q266.715 19.0855 266.715 30.1966 Q266.715 41.3655 260.812 46.6028 Q254.91 51.84 242.41 51.84 L230.402 51.84 L230.402 8.64 Z" fill="#000000" fill-rule="nonzero" fill-opacity="1" /><path clip-path="url(#clip900)" d="M303.52 34.3054 L303.52 36.9095 L279.041 36.9095 Q279.389 42.4072 282.34 45.3007 Q285.32 48.1653 290.615 48.1653 Q293.683 48.1653 296.547 47.4129 Q299.441 46.6606 302.276 45.156 L302.276 50.1907 Q299.412 51.406 296.402 52.0425 Q293.393 52.6791 290.297 52.6791 Q282.543 52.6791 278 48.1653 Q273.486 43.6514 273.486 35.9547 Q273.486 27.9975 277.768 23.339 Q282.08 18.6515 289.371 18.6515 Q295.911 18.6515 299.701 22.876 Q303.52 27.0716 303.52 34.3054 M298.196 32.7429 Q298.139 28.3737 295.737 25.7695 Q293.364 23.1654 289.429 23.1654 Q284.973 23.1654 282.282 25.6827 Q279.62 28.2001 279.215 32.7718 L298.196 32.7429 Z" fill="#000000" fill-rule="nonzero" fill-opacity="1" /><path clip-path="url(#clip900)" d="M339.197 32.2799 L339.197 51.84 L333.873 51.84 L333.873 32.4535 Q333.873 27.8529 332.079 25.567 Q330.285 23.2811 326.697 23.2811 Q322.386 23.2811 319.898 26.03 Q317.409 28.7788 317.409 33.5241 L317.409 51.84 L312.056 51.84 L312.056 19.4328 L317.409 19.4328 L317.409 24.4675 Q319.319 21.545 321.894 20.0983 Q324.498 18.6515 327.884 18.6515 Q333.468 18.6515 336.333 22.1237 Q339.197 25.567 339.197 32.2799 Z" fill="#000000" fill-rule="nonzero" fill-opacity="1" /><path clip-path="url(#clip900)" d="M370.476 20.3876 L370.476 25.4223 Q368.219 24.2649 365.789 23.6862 Q363.358 23.1075 360.754 23.1075 Q356.79 23.1075 354.793 24.3228 Q352.826 25.5381 352.826 27.9686 Q352.826 29.8204 354.244 30.891 Q355.661 31.9327 359.944 32.8876 L361.767 33.2926 Q367.438 34.5079 369.811 36.7359 Q372.212 38.935 372.212 42.8991 Q372.212 47.4129 368.624 50.046 Q365.065 52.6791 358.815 52.6791 Q356.211 52.6791 353.375 52.1583 Q350.569 51.6664 347.444 50.6537 L347.444 45.156 Q350.395 46.6896 353.26 47.4708 Q356.124 48.2231 358.931 48.2231 Q362.693 48.2231 364.718 46.95 Q366.743 45.6479 366.743 43.3042 Q366.743 41.134 365.268 39.9766 Q363.821 38.8192 358.873 37.7486 L357.021 37.3146 Q352.073 36.273 349.874 34.1318 Q347.675 31.9616 347.675 28.2001 Q347.675 23.6283 350.916 21.1399 Q354.157 18.6515 360.117 18.6515 Q363.069 18.6515 365.673 19.0855 Q368.277 19.5196 370.476 20.3876 Z" fill="#000000" fill-rule="nonzero" fill-opacity="1" /><path clip-path="url(#clip900)" d="M408.41 34.3054 L408.41 36.9095 L383.931 36.9095 Q384.278 42.4072 387.229 45.3007 Q390.21 48.1653 395.505 48.1653 Q398.572 48.1653 401.437 47.4129 Q404.33 46.6606 407.166 45.156 L407.166 50.1907 Q404.301 51.406 401.292 52.0425 Q398.283 52.6791 395.187 52.6791 Q387.432 52.6791 382.889 48.1653 Q378.375 43.6514 378.375 35.9547 Q378.375 27.9975 382.658 23.339 Q386.969 18.6515 394.261 18.6515 Q400.8 18.6515 404.59 22.876 Q408.41 27.0716 408.41 34.3054 M403.086 32.7429 Q403.028 28.3737 400.626 25.7695 Q398.254 23.1654 394.319 23.1654 Q389.863 23.1654 387.172 25.6827 Q384.51 28.2001 384.104 32.7718 L403.086 32.7429 Z" fill="#000000" fill-rule="nonzero" fill-opacity="1" /><path clip-path="url(#clip900)" d="M429.938 6.87496 Q426.06 13.53 424.18 20.0404 Q422.299 26.5508 422.299 33.2348 Q422.299 39.9188 424.18 46.487 Q426.089 53.0263 429.938 59.6525 L425.308 59.6525 Q420.968 52.8527 418.798 46.2845 Q416.656 39.7162 416.656 33.2348 Q416.656 26.7823 418.798 20.2429 Q420.939 13.7036 425.308 6.87496 L429.938 6.87496 Z" fill="#000000" fill-rule="nonzero" fill-opacity="1" /><path clip-path="url(#clip900)" d="M446.054 46.921 L466.454 46.921 L466.454 51.84 L439.023 51.84 L439.023 46.921 Q442.351 43.4778 448.08 37.6908 Q453.838 31.8748 455.314 30.1966 Q458.12 27.0427 459.22 24.8726 Q460.348 22.6735 460.348 20.5612 Q460.348 17.118 457.918 14.9478 Q455.516 12.7777 451.639 12.7777 Q448.89 12.7777 445.823 13.7326 Q442.785 14.6874 439.313 16.6261 L439.313 10.7233 Q442.843 9.30551 445.91 8.58213 Q448.977 7.85875 451.523 7.85875 Q458.236 7.85875 462.229 11.2152 Q466.222 14.5717 466.222 20.1851 Q466.222 22.8471 465.209 25.2487 Q464.226 27.6214 461.592 30.8621 Q460.869 31.7012 456.992 35.7232 Q453.115 39.7162 446.054 46.921 Z" fill="#000000" fill-rule="nonzero" fill-opacity="1" /><path clip-path="url(#clip900)" d="M497.501 24.9304 L534.596 24.9304 L534.596 29.7915 L497.501 29.7915 L497.501 24.9304 M497.501 36.7359 L534.596 36.7359 L534.596 41.6549 L497.501 41.6549 L497.501 36.7359 Z" fill="#000000" fill-rule="nonzero" fill-opacity="1" /><path clip-path="url(#clip900)" d="M547.153 22.6735 L547.153 17.4073 L584.248 30.8621 L584.248 35.6653 L547.153 49.1201 L547.153 43.8539 L576.956 33.2926 L547.153 22.6735 Z" fill="#000000" fill-rule="nonzero" fill-opacity="1" /><path clip-path="url(#clip900)" d="M615.758 8.64 L638.704 8.64 L638.704 13.559 L621.111 13.559 L621.111 24.1492 Q622.384 23.7152 623.658 23.5126 Q624.931 23.2811 626.204 23.2811 Q633.438 23.2811 637.662 27.2452 Q641.887 31.2093 641.887 37.9801 Q641.887 44.9535 637.546 48.8308 Q633.206 52.6791 625.307 52.6791 Q622.587 52.6791 619.751 52.2162 Q616.945 51.7532 613.935 50.8273 L613.935 44.9535 Q616.54 46.3713 619.317 47.0657 Q622.095 47.7602 625.191 47.7602 Q630.197 47.7602 633.119 45.1271 Q636.042 42.494 636.042 37.9801 Q636.042 33.4663 633.119 30.8332 Q630.197 28.2001 625.191 28.2001 Q622.847 28.2001 620.504 28.7209 Q618.189 29.2417 615.758 30.3413 L615.758 8.64 Z" fill="#000000" fill-rule="nonzero" fill-opacity="1" /><path clip-path="url(#clip900)" d="M651.811 6.87496 L656.441 6.87496 Q660.781 13.7036 662.922 20.2429 Q665.093 26.7823 665.093 33.2348 Q665.093 39.7162 662.922 46.2845 Q660.781 52.8527 656.441 59.6525 L651.811 59.6525 Q655.66 53.0263 657.541 46.487 Q659.45 39.9188 659.45 33.2348 Q659.45 26.5508 657.541 20.0404 Q655.66 13.53 651.811 6.87496 Z" fill="#000000" fill-rule="nonzero" fill-opacity="1" /><path clip-path="url(#clip900)" d="M677.13 44.4905 L683.235 44.4905 L683.235 49.4673 L678.489 58.7265 L674.757 58.7265 L677.13 49.4673 L677.13 44.4905 Z" fill="#000000" fill-rule="nonzero" fill-opacity="1" /><path clip-path="url(#clip900)" d="M719.519 13.4432 L719.519 47.0368 L726.58 47.0368 Q735.52 47.0368 739.658 42.9859 Q743.825 38.935 743.825 30.1966 Q743.825 21.5161 739.658 17.4941 Q735.52 13.4432 726.58 13.4432 L719.519 13.4432 M713.674 8.64 L725.683 8.64 Q738.24 8.64 744.114 13.8772 Q749.988 19.0855 749.988 30.1966 Q749.988 41.3655 744.085 46.6028 Q738.182 51.84 725.683 51.84 L713.674 51.84 L713.674 8.64 Z" fill="#000000" fill-rule="nonzero" fill-opacity="1" /><path clip-path="url(#clip900)" d="M786.793 34.3054 L786.793 36.9095 L762.314 36.9095 Q762.661 42.4072 765.613 45.3007 Q768.593 48.1653 773.888 48.1653 Q776.955 48.1653 779.82 47.4129 Q782.713 46.6606 785.549 45.156 L785.549 50.1907 Q782.685 51.406 779.675 52.0425 Q776.666 52.6791 773.57 52.6791 Q765.815 52.6791 761.273 48.1653 Q756.759 43.6514 756.759 35.9547 Q756.759 27.9975 761.041 23.339 Q765.352 18.6515 772.644 18.6515 Q779.183 18.6515 782.974 22.876 Q786.793 27.0716 786.793 34.3054 M781.469 32.7429 Q781.411 28.3737 779.01 25.7695 Q776.637 23.1654 772.702 23.1654 Q768.246 23.1654 765.555 25.6827 Q762.893 28.2001 762.488 32.7718 L781.469 32.7429 Z" fill="#000000" fill-rule="nonzero" fill-opacity="1" /><path clip-path="url(#clip900)" d="M822.47 32.2799 L822.47 51.84 L817.146 51.84 L817.146 32.4535 Q817.146 27.8529 815.352 25.567 Q813.558 23.2811 809.97 23.2811 Q805.659 23.2811 803.171 26.03 Q800.682 28.7788 800.682 33.5241 L800.682 51.84 L795.329 51.84 L795.329 19.4328 L800.682 19.4328 L800.682 24.4675 Q802.592 21.545 805.167 20.0983 Q807.771 18.6515 811.157 18.6515 Q816.741 18.6515 819.606 22.1237 Q822.47 25.567 822.47 32.2799 Z" fill="#000000" fill-rule="nonzero" fill-opacity="1" /><path clip-path="url(#clip900)" d="M853.749 20.3876 L853.749 25.4223 Q851.492 24.2649 849.061 23.6862 Q846.631 23.1075 844.027 23.1075 Q840.063 23.1075 838.066 24.3228 Q836.099 25.5381 836.099 27.9686 Q836.099 29.8204 837.516 30.891 Q838.934 31.9327 843.217 32.8876 L845.04 33.2926 Q850.711 34.5079 853.083 36.7359 Q855.485 38.935 855.485 42.8991 Q855.485 47.4129 851.897 50.046 Q848.338 52.6791 842.088 52.6791 Q839.484 52.6791 836.648 52.1583 Q833.842 51.6664 830.717 50.6537 L830.717 45.156 Q833.668 46.6896 836.533 47.4708 Q839.397 48.2231 842.204 48.2231 Q845.965 48.2231 847.991 46.95 Q850.016 45.6479 850.016 43.3042 Q850.016 41.134 848.541 39.9766 Q847.094 38.8192 842.146 37.7486 L840.294 37.3146 Q835.346 36.273 833.147 34.1318 Q830.948 31.9616 830.948 28.2001 Q830.948 23.6283 834.189 21.1399 Q837.43 18.6515 843.39 18.6515 Q846.342 18.6515 848.946 19.0855 Q851.55 19.5196 853.749 20.3876 Z" fill="#000000" fill-rule="nonzero" fill-opacity="1" /><path clip-path="url(#clip900)" d="M891.683 34.3054 L891.683 36.9095 L867.204 36.9095 Q867.551 42.4072 870.502 45.3007 Q873.483 48.1653 878.778 48.1653 Q881.845 48.1653 884.709 47.4129 Q887.603 46.6606 890.439 45.156 L890.439 50.1907 Q887.574 51.406 884.565 52.0425 Q881.556 52.6791 878.459 52.6791 Q870.705 52.6791 866.162 48.1653 Q861.648 43.6514 861.648 35.9547 Q861.648 27.9975 865.931 23.339 Q870.242 18.6515 877.534 18.6515 Q884.073 18.6515 887.863 22.876 Q891.683 27.0716 891.683 34.3054 M886.359 32.7429 Q886.301 28.3737 883.899 25.7695 Q881.527 23.1654 877.591 23.1654 Q873.135 23.1654 870.444 25.6827 Q867.782 28.2001 867.377 32.7718 L886.359 32.7429 Z" fill="#000000" fill-rule="nonzero" fill-opacity="1" /><path clip-path="url(#clip900)" d="M913.21 6.87496 Q909.333 13.53 907.452 20.0404 Q905.572 26.5508 905.572 33.2348 Q905.572 39.9188 907.452 46.487 Q909.362 53.0263 913.21 59.6525 L908.581 59.6525 Q904.241 52.8527 902.07 46.2845 Q899.929 39.7162 899.929 33.2348 Q899.929 26.7823 902.07 20.2429 Q904.212 13.7036 908.581 6.87496 L913.21 6.87496 Z" fill="#000000" fill-rule="nonzero" fill-opacity="1" /><path clip-path="url(#clip900)" d="M924.35 8.64 L947.296 8.64 L947.296 13.559 L929.703 13.559 L929.703 24.1492 Q930.977 23.7152 932.25 23.5126 Q933.523 23.2811 934.796 23.2811 Q942.03 23.2811 946.254 27.2452 Q950.479 31.2093 950.479 37.9801 Q950.479 44.9535 946.139 48.8308 Q941.798 52.6791 933.899 52.6791 Q931.179 52.6791 928.343 52.2162 Q925.537 51.7532 922.528 50.8273 L922.528 44.9535 Q925.132 46.3713 927.909 47.0657 Q930.687 47.7602 933.783 47.7602 Q938.789 47.7602 941.711 45.1271 Q944.634 42.494 944.634 37.9801 Q944.634 33.4663 941.711 30.8332 Q938.789 28.2001 933.783 28.2001 Q931.44 28.2001 929.096 28.7209 Q926.781 29.2417 924.35 30.3413 L924.35 8.64 Z" fill="#000000" fill-rule="nonzero" fill-opacity="1" /><path clip-path="url(#clip900)" d="M980.774 24.9304 L1017.87 24.9304 L1017.87 29.7915 L980.774 29.7915 L980.774 24.9304 M980.774 36.7359 L1017.87 36.7359 L1017.87 41.6549 L980.774 41.6549 L980.774 36.7359 Z" fill="#000000" fill-rule="nonzero" fill-opacity="1" /><path clip-path="url(#clip900)" d="M1030.43 22.6735 L1030.43 17.4073 L1067.52 30.8621 L1067.52 35.6653 L1030.43 49.1201 L1030.43 43.8539 L1060.23 33.2926 L1030.43 22.6735 Z" fill="#000000" fill-rule="nonzero" fill-opacity="1" /><path clip-path="url(#clip900)" d="M1097.5 8.64 L1125.28 8.64 L1125.28 11.1284 L1109.59 51.84 L1103.49 51.84 L1118.24 13.559 L1097.5 13.559 L1097.5 8.64 Z" fill="#000000" fill-rule="nonzero" fill-opacity="1" /><path clip-path="url(#clip900)" d="M1137.28 44.4905 L1143.39 44.4905 L1143.39 49.4673 L1138.64 58.7265 L1134.91 58.7265 L1137.28 49.4673 L1137.28 44.4905 Z" fill="#000000" fill-rule="nonzero" fill-opacity="1" /><path clip-path="url(#clip900)" d="M1186.15 23.6573 Q1181.76 23.6573 1179.38 26.8401 Q1176.9 30.1677 1176.9 35.6653 Q1176.9 41.4813 1179.35 44.8377 Q1181.84 48.1653 1186.15 48.1653 Q1190.41 48.1653 1192.9 44.8088 Q1195.38 41.4523 1195.38 35.6653 Q1195.38 30.3702 1192.9 26.8401 Q1190.61 23.6573 1186.15 23.6573 M1186.15 19.4328 L1203.83 19.4328 L1203.83 24.7568 L1197.87 24.7568 Q1201.03 29.2707 1201.03 35.6653 Q1201.03 43.6225 1197.06 48.1363 Q1193.1 52.6791 1186.15 52.6791 Q1179.18 52.6791 1175.25 48.1363 Q1171.28 43.6225 1171.28 35.6653 Q1171.28 27.6503 1175.25 23.1654 Q1178.52 19.4328 1186.15 19.4328 Z" fill="#000000" fill-rule="nonzero" fill-opacity="1" /><path clip-path="url(#clip900)" d="M1210.32 6.87496 L1214.94 6.87496 Q1219.29 13.7036 1221.43 20.2429 Q1223.6 26.7823 1223.6 33.2348 Q1223.6 39.7162 1221.43 46.2845 Q1219.29 52.8527 1214.94 59.6525 L1210.32 59.6525 Q1214.16 53.0263 1216.04 46.487 Q1217.95 39.9188 1217.95 33.2348 Q1217.95 26.5508 1216.04 20.0404 Q1214.16 13.53 1210.32 6.87496 Z" fill="#000000" fill-rule="nonzero" fill-opacity="1" /><path clip-path="url(#clip900)" d="M1235.63 44.4905 L1241.74 44.4905 L1241.74 49.4673 L1236.99 58.7265 L1233.26 58.7265 L1235.63 49.4673 L1235.63 44.4905 Z" fill="#000000" fill-rule="nonzero" fill-opacity="1" /><path clip-path="url(#clip900)" d="M1278.02 13.4432 L1278.02 47.0368 L1285.08 47.0368 Q1294.02 47.0368 1298.16 42.9859 Q1302.33 38.935 1302.33 30.1966 Q1302.33 21.5161 1298.16 17.4941 Q1294.02 13.4432 1285.08 13.4432 L1278.02 13.4432 M1272.18 8.64 L1284.19 8.64 Q1296.74 8.64 1302.62 13.8772 Q1308.49 19.0855 1308.49 30.1966 Q1308.49 41.3655 1302.59 46.6028 Q1296.69 51.84 1284.19 51.84 L1272.18 51.84 L1272.18 8.64 Z" fill="#000000" fill-rule="nonzero" fill-opacity="1" /><path clip-path="url(#clip900)" d="M1345.3 34.3054 L1345.3 36.9095 L1320.82 36.9095 Q1321.17 42.4072 1324.12 45.3007 Q1327.1 48.1653 1332.39 48.1653 Q1335.46 48.1653 1338.32 47.4129 Q1341.22 46.6606 1344.05 45.156 L1344.05 50.1907 Q1341.19 51.406 1338.18 52.0425 Q1335.17 52.6791 1332.07 52.6791 Q1324.32 52.6791 1319.78 48.1653 Q1315.26 43.6514 1315.26 35.9547 Q1315.26 27.9975 1319.55 23.339 Q1323.86 18.6515 1331.15 18.6515 Q1337.69 18.6515 1341.48 22.876 Q1345.3 27.0716 1345.3 34.3054 M1339.97 32.7429 Q1339.92 28.3737 1337.51 25.7695 Q1335.14 23.1654 1331.21 23.1654 Q1326.75 23.1654 1324.06 25.6827 Q1321.4 28.2001 1320.99 32.7718 L1339.97 32.7429 Z" fill="#000000" fill-rule="nonzero" fill-opacity="1" /><path clip-path="url(#clip900)" d="M1380.97 32.2799 L1380.97 51.84 L1375.65 51.84 L1375.65 32.4535 Q1375.65 27.8529 1373.86 25.567 Q1372.06 23.2811 1368.47 23.2811 Q1364.16 23.2811 1361.67 26.03 Q1359.19 28.7788 1359.19 33.5241 L1359.19 51.84 L1353.83 51.84 L1353.83 19.4328 L1359.19 19.4328 L1359.19 24.4675 Q1361.1 21.545 1363.67 20.0983 Q1366.28 18.6515 1369.66 18.6515 Q1375.25 18.6515 1378.11 22.1237 Q1380.97 25.567 1380.97 32.2799 Z" fill="#000000" fill-rule="nonzero" fill-opacity="1" /><path clip-path="url(#clip900)" d="M1412.25 20.3876 L1412.25 25.4223 Q1410 24.2649 1407.57 23.6862 Q1405.13 23.1075 1402.53 23.1075 Q1398.57 23.1075 1396.57 24.3228 Q1394.6 25.5381 1394.6 27.9686 Q1394.6 29.8204 1396.02 30.891 Q1397.44 31.9327 1401.72 32.8876 L1403.54 33.2926 Q1409.21 34.5079 1411.59 36.7359 Q1413.99 38.935 1413.99 42.8991 Q1413.99 47.4129 1410.4 50.046 Q1406.84 52.6791 1400.59 52.6791 Q1397.99 52.6791 1395.15 52.1583 Q1392.35 51.6664 1389.22 50.6537 L1389.22 45.156 Q1392.17 46.6896 1395.04 47.4708 Q1397.9 48.2231 1400.71 48.2231 Q1404.47 48.2231 1406.49 46.95 Q1408.52 45.6479 1408.52 43.3042 Q1408.52 41.134 1407.04 39.9766 Q1405.6 38.8192 1400.65 37.7486 L1398.8 37.3146 Q1393.85 36.273 1391.65 34.1318 Q1389.45 31.9616 1389.45 28.2001 Q1389.45 23.6283 1392.69 21.1399 Q1395.93 18.6515 1401.89 18.6515 Q1404.85 18.6515 1407.45 19.0855 Q1410.05 19.5196 1412.25 20.3876 Z" fill="#000000" fill-rule="nonzero" fill-opacity="1" /><path clip-path="url(#clip900)" d="M1450.19 34.3054 L1450.19 36.9095 L1425.71 36.9095 Q1426.05 42.4072 1429.01 45.3007 Q1431.99 48.1653 1437.28 48.1653 Q1440.35 48.1653 1443.21 47.4129 Q1446.11 46.6606 1448.94 45.156 L1448.94 50.1907 Q1446.08 51.406 1443.07 52.0425 Q1440.06 52.6791 1436.96 52.6791 Q1429.21 52.6791 1424.67 48.1653 Q1420.15 43.6514 1420.15 35.9547 Q1420.15 27.9975 1424.43 23.339 Q1428.75 18.6515 1436.04 18.6515 Q1442.58 18.6515 1446.37 22.876 Q1450.19 27.0716 1450.19 34.3054 M1444.86 32.7429 Q1444.8 28.3737 1442.4 25.7695 Q1440.03 23.1654 1436.1 23.1654 Q1431.64 23.1654 1428.95 25.6827 Q1426.29 28.2001 1425.88 32.7718 L1444.86 32.7429 Z" fill="#000000" fill-rule="nonzero" fill-opacity="1" /><path clip-path="url(#clip900)" d="M1471.71 6.87496 Q1467.84 13.53 1465.96 20.0404 Q1464.08 26.5508 1464.08 33.2348 Q1464.08 39.9188 1465.96 46.487 Q1467.87 53.0263 1471.71 59.6525 L1467.08 59.6525 Q1462.74 52.8527 1460.57 46.2845 Q1458.43 39.7162 1458.43 33.2348 Q1458.43 26.7823 1460.57 20.2429 Q1462.72 13.7036 1467.08 6.87496 L1471.71 6.87496 Z" fill="#000000" fill-rule="nonzero" fill-opacity="1" /><path clip-path="url(#clip900)" d="M1481.32 8.64 L1509.1 8.64 L1509.1 11.1284 L1493.42 51.84 L1487.31 51.84 L1502.07 13.559 L1481.32 13.559 L1481.32 8.64 Z" fill="#000000" fill-rule="nonzero" fill-opacity="1" /><path clip-path="url(#clip900)" d="M1539.28 24.9304 L1576.37 24.9304 L1576.37 29.7915 L1539.28 29.7915 L1539.28 24.9304 M1539.28 36.7359 L1576.37 36.7359 L1576.37 41.6549 L1539.28 41.6549 L1539.28 36.7359 Z" fill="#000000" fill-rule="nonzero" fill-opacity="1" /><path clip-path="url(#clip900)" d="M1588.93 22.6735 L1588.93 17.4073 L1626.02 30.8621 L1626.02 35.6653 L1588.93 49.1201 L1588.93 43.8539 L1618.73 33.2926 L1588.93 22.6735 Z" fill="#000000" fill-rule="nonzero" fill-opacity="1" /><path clip-path="url(#clip900)" d="M1662.51 46.921 L1682.91 46.921 L1682.91 51.84 L1655.48 51.84 L1655.48 46.921 Q1658.81 43.4778 1664.54 37.6908 Q1670.3 31.8748 1671.77 30.1966 Q1674.58 27.0427 1675.68 24.8726 Q1676.81 22.6735 1676.81 20.5612 Q1676.81 17.118 1674.38 14.9478 Q1671.97 12.7777 1668.1 12.7777 Q1665.35 12.7777 1662.28 13.7326 Q1659.24 14.6874 1655.77 16.6261 L1655.77 10.7233 Q1659.3 9.30551 1662.37 8.58213 Q1665.43 7.85875 1667.98 7.85875 Q1674.69 7.85875 1678.69 11.2152 Q1682.68 14.5717 1682.68 20.1851 Q1682.68 22.8471 1681.67 25.2487 Q1680.68 27.6214 1678.05 30.8621 Q1677.33 31.7012 1673.45 35.7232 Q1669.57 39.7162 1662.51 46.921 Z" fill="#000000" fill-rule="nonzero" fill-opacity="1" /><path clip-path="url(#clip900)" d="M1695.79 44.4905 L1701.89 44.4905 L1701.89 49.4673 L1697.15 58.7265 L1693.41 58.7265 L1695.79 49.4673 L1695.79 44.4905 Z" fill="#000000" fill-rule="nonzero" fill-opacity="1" /><path clip-path="url(#clip900)" d="M1750.88 24.4096 Q1749.98 23.8888 1748.91 23.6573 Q1747.87 23.3969 1746.6 23.3969 Q1742.08 23.3969 1739.65 26.3482 Q1737.25 29.2707 1737.25 34.7683 L1737.25 51.84 L1731.9 51.84 L1731.9 19.4328 L1737.25 19.4328 L1737.25 24.4675 Q1738.93 21.5161 1741.62 20.0983 Q1744.31 18.6515 1748.16 18.6515 Q1748.71 18.6515 1749.37 18.7383 Q1750.04 18.7962 1750.85 18.9409 L1750.88 24.4096 Z" fill="#000000" fill-rule="nonzero" fill-opacity="1" /><path clip-path="url(#clip900)" d="M1782.88 34.3054 L1782.88 36.9095 L1758.4 36.9095 Q1758.75 42.4072 1761.7 45.3007 Q1764.68 48.1653 1769.98 48.1653 Q1773.04 48.1653 1775.91 47.4129 Q1778.8 46.6606 1781.64 45.156 L1781.64 50.1907 Q1778.77 51.406 1775.76 52.0425 Q1772.75 52.6791 1769.66 52.6791 Q1761.9 52.6791 1757.36 48.1653 Q1752.85 43.6514 1752.85 35.9547 Q1752.85 27.9975 1757.13 23.339 Q1761.44 18.6515 1768.73 18.6515 Q1775.27 18.6515 1779.06 22.876 Q1782.88 27.0716 1782.88 34.3054 M1777.56 32.7429 Q1777.5 28.3737 1775.1 25.7695 Q1772.73 23.1654 1768.79 23.1654 Q1764.33 23.1654 1761.64 25.6827 Q1758.98 28.2001 1758.58 32.7718 L1777.56 32.7429 Z" fill="#000000" fill-rule="nonzero" fill-opacity="1" /><path clip-path="url(#clip900)" d="M1791.62 6.81709 L1796.94 6.81709 L1796.94 51.84 L1791.62 51.84 L1791.62 6.81709 Z" fill="#000000" fill-rule="nonzero" fill-opacity="1" /><path clip-path="url(#clip900)" d="M1807.53 39.0507 L1807.53 19.4328 L1812.86 19.4328 L1812.86 38.8482 Q1812.86 43.4488 1814.65 45.7636 Q1816.45 48.0495 1820.03 48.0495 Q1824.35 48.0495 1826.83 45.3007 Q1829.35 42.5519 1829.35 37.8065 L1829.35 19.4328 L1834.68 19.4328 L1834.68 51.84 L1829.35 51.84 L1829.35 46.8632 Q1827.41 49.8145 1824.84 51.2613 Q1822.29 52.6791 1818.91 52.6791 Q1813.32 52.6791 1810.43 49.2069 Q1807.53 45.7347 1807.53 39.0507 M1820.93 18.6515 L1820.93 18.6515 Z" fill="#000000" fill-rule="nonzero" fill-opacity="1" /><path clip-path="url(#clip900)" d="M1844.8 6.87496 L1849.43 6.87496 Q1853.77 13.7036 1855.91 20.2429 Q1858.08 26.7823 1858.08 33.2348 Q1858.08 39.7162 1855.91 46.2845 Q1853.77 52.8527 1849.43 59.6525 L1844.8 59.6525 Q1848.65 53.0263 1850.53 46.487 Q1852.44 39.9188 1852.44 33.2348 Q1852.44 26.5508 1850.53 20.0404 Q1848.65 13.53 1844.8 6.87496 Z" fill="#000000" fill-rule="nonzero" fill-opacity="1" /><path clip-path="url(#clip900)" d="M1870.12 44.4905 L1876.23 44.4905 L1876.23 49.4673 L1871.48 58.7265 L1867.75 58.7265 L1870.12 49.4673 L1870.12 44.4905 Z" fill="#000000" fill-rule="nonzero" fill-opacity="1" /><path clip-path="url(#clip900)" d="M1912.51 13.4432 L1912.51 47.0368 L1919.57 47.0368 Q1928.51 47.0368 1932.65 42.9859 Q1936.82 38.935 1936.82 30.1966 Q1936.82 21.5161 1932.65 17.4941 Q1928.51 13.4432 1919.57 13.4432 L1912.51 13.4432 M1906.67 8.64 L1918.67 8.64 Q1931.23 8.64 1937.11 13.8772 Q1942.98 19.0855 1942.98 30.1966 Q1942.98 41.3655 1937.08 46.6028 Q1931.17 51.84 1918.67 51.84 L1906.67 51.84 L1906.67 8.64 Z" fill="#000000" fill-rule="nonzero" fill-opacity="1" /><path clip-path="url(#clip900)" d="M1979.78 34.3054 L1979.78 36.9095 L1955.31 36.9095 Q1955.65 42.4072 1958.6 45.3007 Q1961.58 48.1653 1966.88 48.1653 Q1969.95 48.1653 1972.81 47.4129 Q1975.7 46.6606 1978.54 45.156 L1978.54 50.1907 Q1975.68 51.406 1972.67 52.0425 Q1969.66 52.6791 1966.56 52.6791 Q1958.81 52.6791 1954.26 48.1653 Q1949.75 43.6514 1949.75 35.9547 Q1949.75 27.9975 1954.03 23.339 Q1958.34 18.6515 1965.64 18.6515 Q1972.17 18.6515 1975.97 22.876 Q1979.78 27.0716 1979.78 34.3054 M1974.46 32.7429 Q1974.4 28.3737 1972 25.7695 Q1969.63 23.1654 1965.69 23.1654 Q1961.24 23.1654 1958.55 25.6827 Q1955.88 28.2001 1955.48 32.7718 L1974.46 32.7429 Z" fill="#000000" fill-rule="nonzero" fill-opacity="1" /><path clip-path="url(#clip900)" d="M2015.46 32.2799 L2015.46 51.84 L2010.14 51.84 L2010.14 32.4535 Q2010.14 27.8529 2008.34 25.567 Q2006.55 23.2811 2002.96 23.2811 Q1998.65 23.2811 1996.16 26.03 Q1993.67 28.7788 1993.67 33.5241 L1993.67 51.84 L1988.32 51.84 L1988.32 19.4328 L1993.67 19.4328 L1993.67 24.4675 Q1995.58 21.545 1998.16 20.0983 Q2000.76 18.6515 2004.15 18.6515 Q2009.73 18.6515 2012.6 22.1237 Q2015.46 25.567 2015.46 32.2799 Z" fill="#000000" fill-rule="nonzero" fill-opacity="1" /><path clip-path="url(#clip900)" d="M2046.74 20.3876 L2046.74 25.4223 Q2044.48 24.2649 2042.05 23.6862 Q2039.62 23.1075 2037.02 23.1075 Q2033.05 23.1075 2031.06 24.3228 Q2029.09 25.5381 2029.09 27.9686 Q2029.09 29.8204 2030.51 30.891 Q2031.93 31.9327 2036.21 32.8876 L2038.03 33.2926 Q2043.7 34.5079 2046.07 36.7359 Q2048.48 38.935 2048.48 42.8991 Q2048.48 47.4129 2044.89 50.046 Q2041.33 52.6791 2035.08 52.6791 Q2032.48 52.6791 2029.64 52.1583 Q2026.83 51.6664 2023.71 50.6537 L2023.71 45.156 Q2026.66 46.6896 2029.52 47.4708 Q2032.39 48.2231 2035.2 48.2231 Q2038.96 48.2231 2040.98 46.95 Q2043.01 45.6479 2043.01 43.3042 Q2043.01 41.134 2041.53 39.9766 Q2040.09 38.8192 2035.14 37.7486 L2033.29 37.3146 Q2028.34 36.273 2026.14 34.1318 Q2023.94 31.9616 2023.94 28.2001 Q2023.94 23.6283 2027.18 21.1399 Q2030.42 18.6515 2036.38 18.6515 Q2039.33 18.6515 2041.94 19.0855 Q2044.54 19.5196 2046.74 20.3876 Z" fill="#000000" fill-rule="nonzero" fill-opacity="1" /><path clip-path="url(#clip900)" d="M2084.67 34.3054 L2084.67 36.9095 L2060.2 36.9095 Q2060.54 42.4072 2063.49 45.3007 Q2066.47 48.1653 2071.77 48.1653 Q2074.84 48.1653 2077.7 47.4129 Q2080.59 46.6606 2083.43 45.156 L2083.43 50.1907 Q2080.57 51.406 2077.56 52.0425 Q2074.55 52.6791 2071.45 52.6791 Q2063.7 52.6791 2059.15 48.1653 Q2054.64 43.6514 2054.64 35.9547 Q2054.64 27.9975 2058.92 23.339 Q2063.23 18.6515 2070.52 18.6515 Q2077.06 18.6515 2080.85 22.876 Q2084.67 27.0716 2084.67 34.3054 M2079.35 32.7429 Q2079.29 28.3737 2076.89 25.7695 Q2074.52 23.1654 2070.58 23.1654 Q2066.13 23.1654 2063.44 25.6827 Q2060.77 28.2001 2060.37 32.7718 L2079.35 32.7429 Z" fill="#000000" fill-rule="nonzero" fill-opacity="1" /><path clip-path="url(#clip900)" d="M2106.2 6.87496 Q2102.32 13.53 2100.44 20.0404 Q2098.56 26.5508 2098.56 33.2348 Q2098.56 39.9188 2100.44 46.487 Q2102.35 53.0263 2106.2 59.6525 L2101.57 59.6525 Q2097.23 52.8527 2095.06 46.2845 Q2092.92 39.7162 2092.92 33.2348 Q2092.92 26.7823 2095.06 20.2429 Q2097.2 13.7036 2101.57 6.87496 L2106.2 6.87496 Z" fill="#000000" fill-rule="nonzero" fill-opacity="1" /><path clip-path="url(#clip900)" d="M2122.32 46.921 L2142.72 46.921 L2142.72 51.84 L2115.29 51.84 L2115.29 46.921 Q2118.61 43.4778 2124.34 37.6908 Q2130.1 31.8748 2131.58 30.1966 Q2134.38 27.0427 2135.48 24.8726 Q2136.61 22.6735 2136.61 20.5612 Q2136.61 17.118 2134.18 14.9478 Q2131.78 12.7777 2127.9 12.7777 Q2125.15 12.7777 2122.09 13.7326 Q2119.05 14.6874 2115.58 16.6261 L2115.58 10.7233 Q2119.11 9.30551 2122.17 8.58213 Q2125.24 7.85875 2127.79 7.85875 Q2134.5 7.85875 2138.49 11.2152 Q2142.49 14.5717 2142.49 20.1851 Q2142.49 22.8471 2141.47 25.2487 Q2140.49 27.6214 2137.86 30.8621 Q2137.13 31.7012 2133.26 35.7232 Q2129.38 39.7162 2122.32 46.921 Z" fill="#000000" fill-rule="nonzero" fill-opacity="1" /><path clip-path="url(#clip900)" d="M2173.77 24.9304 L2210.86 24.9304 L2210.86 29.7915 L2173.77 29.7915 L2173.77 24.9304 M2173.77 36.7359 L2210.86 36.7359 L2210.86 41.6549 L2173.77 41.6549 L2173.77 36.7359 Z" fill="#000000" fill-rule="nonzero" fill-opacity="1" /><path clip-path="url(#clip900)" d="M2223.42 22.6735 L2223.42 17.4073 L2260.51 30.8621 L2260.51 35.6653 L2223.42 49.1201 L2223.42 43.8539 L2253.22 33.2926 L2223.42 22.6735 Z" fill="#000000" fill-rule="nonzero" fill-opacity="1" /><path clip-path="url(#clip900)" d="M2309.67 28.5473 Q2313.87 29.4443 2316.21 32.2799 Q2318.58 35.1156 2318.58 39.2822 Q2318.58 45.6768 2314.19 49.178 Q2309.79 52.6791 2301.69 52.6791 Q2298.97 52.6791 2296.07 52.1294 Q2293.21 51.6085 2290.14 50.5379 L2290.14 44.8956 Q2292.57 46.3134 2295.47 47.0368 Q2298.36 47.7602 2301.51 47.7602 Q2307.01 47.7602 2309.88 45.59 Q2312.77 43.4199 2312.77 39.2822 Q2312.77 35.4628 2310.08 33.3216 Q2307.42 31.1515 2302.64 31.1515 L2297.61 31.1515 L2297.61 26.3482 L2302.87 26.3482 Q2307.18 26.3482 2309.47 24.6411 Q2311.76 22.905 2311.76 19.6642 Q2311.76 16.3367 2309.38 14.5717 Q2307.04 12.7777 2302.64 12.7777 Q2300.24 12.7777 2297.49 13.2985 Q2294.74 13.8194 2291.44 14.9189 L2291.44 9.7106 Q2294.77 8.78468 2297.66 8.32171 Q2300.59 7.85875 2303.16 7.85875 Q2309.82 7.85875 2313.69 10.8969 Q2317.57 13.9062 2317.57 19.0566 Q2317.57 22.6446 2315.52 25.133 Q2313.46 27.5924 2309.67 28.5473 Z" fill="#000000" fill-rule="nonzero" fill-opacity="1" /><path clip-path="url(#clip900)" d="M2328.08 6.87496 L2332.71 6.87496 Q2337.05 13.7036 2339.19 20.2429 Q2341.36 26.7823 2341.36 33.2348 Q2341.36 39.7162 2339.19 46.2845 Q2337.05 52.8527 2332.71 59.6525 L2328.08 59.6525 Q2331.92 53.0263 2333.8 46.487 Q2335.71 39.9188 2335.71 33.2348 Q2335.71 26.5508 2333.8 20.0404 Q2331.92 13.53 2328.08 6.87496 Z" fill="#000000" fill-rule="nonzero" fill-opacity="1" /><path clip-path="url(#clip900)" d="M2351.19 6.87496 L2355.82 6.87496 Q2360.16 13.7036 2362.31 20.2429 Q2364.48 26.7823 2364.48 33.2348 Q2364.48 39.7162 2362.31 46.2845 Q2360.16 52.8527 2355.82 59.6525 L2351.19 59.6525 Q2355.04 53.0263 2356.92 46.487 Q2358.83 39.9188 2358.83 33.2348 Q2358.83 26.5508 2356.92 20.0404 Q2355.04 13.53 2351.19 6.87496 Z" fill="#000000" fill-rule="nonzero" fill-opacity="1" /><polyline clip-path="url(#clip902)" style="stroke:#adadad; stroke-linecap:round; stroke-linejoin:round; stroke-width:4; stroke-opacity:1; fill:none" points="376.603,954.657 788.301,1163.3 "/>
<polyline clip-path="url(#clip902)" style="stroke:#adadad; stroke-linecap:round; stroke-linejoin:round; stroke-width:4; stroke-opacity:1; fill:none" points="376.603,954.657 788.301,1024.2 "/>
<polyline clip-path="url(#clip902)" style="stroke:#adadad; stroke-linecap:round; stroke-linejoin:round; stroke-width:4; stroke-opacity:1; fill:none" points="376.603,954.657 788.301,885.111 "/>
<polyline clip-path="url(#clip902)" style="stroke:#adadad; stroke-linecap:round; stroke-linejoin:round; stroke-width:4; stroke-opacity:1; fill:none" points="376.603,954.657 788.301,746.018 "/>
<polyline clip-path="url(#clip902)" style="stroke:#adadad; stroke-linecap:round; stroke-linejoin:round; stroke-width:4; stroke-opacity:1; fill:none" points="376.603,954.657 788.301,606.926 "/>
<polyline clip-path="url(#clip902)" style="stroke:#adadad; stroke-linecap:round; stroke-linejoin:round; stroke-width:4; stroke-opacity:1; fill:none" points="376.603,815.565 788.301,1163.3 "/>
<polyline clip-path="url(#clip902)" style="stroke:#adadad; stroke-linecap:round; stroke-linejoin:round; stroke-width:4; stroke-opacity:1; fill:none" points="376.603,815.565 788.301,1024.2 "/>
<polyline clip-path="url(#clip902)" style="stroke:#adadad; stroke-linecap:round; stroke-linejoin:round; stroke-width:4; stroke-opacity:1; fill:none" points="376.603,815.565 788.301,885.111 "/>
<polyline clip-path="url(#clip902)" style="stroke:#adadad; stroke-linecap:round; stroke-linejoin:round; stroke-width:4; stroke-opacity:1; fill:none" points="376.603,815.565 788.301,746.018 "/>
<polyline clip-path="url(#clip902)" style="stroke:#adadad; stroke-linecap:round; stroke-linejoin:round; stroke-width:4; stroke-opacity:1; fill:none" points="376.603,815.565 788.301,606.926 "/>
<polyline clip-path="url(#clip902)" style="stroke:#adadad; stroke-linecap:round; stroke-linejoin:round; stroke-width:4; stroke-opacity:1; fill:none" points="788.301,1163.3 1200,1302.39 "/>
<polyline clip-path="url(#clip902)" style="stroke:#adadad; stroke-linecap:round; stroke-linejoin:round; stroke-width:4; stroke-opacity:1; fill:none" points="788.301,1163.3 1200,1163.3 "/>
<polyline clip-path="url(#clip902)" style="stroke:#adadad; stroke-linecap:round; stroke-linejoin:round; stroke-width:4; stroke-opacity:1; fill:none" points="788.301,1163.3 1200,1024.2 "/>
<polyline clip-path="url(#clip902)" style="stroke:#adadad; stroke-linecap:round; stroke-linejoin:round; stroke-width:4; stroke-opacity:1; fill:none" points="788.301,1163.3 1200,885.111 "/>
<polyline clip-path="url(#clip902)" style="stroke:#adadad; stroke-linecap:round; stroke-linejoin:round; stroke-width:4; stroke-opacity:1; fill:none" points="788.301,1163.3 1200,746.018 "/>
<polyline clip-path="url(#clip902)" style="stroke:#adadad; stroke-linecap:round; stroke-linejoin:round; stroke-width:4; stroke-opacity:1; fill:none" points="788.301,1163.3 1200,606.926 "/>
<polyline clip-path="url(#clip902)" style="stroke:#adadad; stroke-linecap:round; stroke-linejoin:round; stroke-width:4; stroke-opacity:1; fill:none" points="788.301,1163.3 1200,467.833 "/>
<polyline clip-path="url(#clip902)" style="stroke:#adadad; stroke-linecap:round; stroke-linejoin:round; stroke-width:4; stroke-opacity:1; fill:none" points="788.301,1024.2 1200,1302.39 "/>
<polyline clip-path="url(#clip902)" style="stroke:#adadad; stroke-linecap:round; stroke-linejoin:round; stroke-width:4; stroke-opacity:1; fill:none" points="788.301,1024.2 1200,1163.3 "/>
<polyline clip-path="url(#clip902)" style="stroke:#adadad; stroke-linecap:round; stroke-linejoin:round; stroke-width:4; stroke-opacity:1; fill:none" points="788.301,1024.2 1200,1024.2 "/>
<polyline clip-path="url(#clip902)" style="stroke:#adadad; stroke-linecap:round; stroke-linejoin:round; stroke-width:4; stroke-opacity:1; fill:none" points="788.301,1024.2 1200,885.111 "/>
<polyline clip-path="url(#clip902)" style="stroke:#adadad; stroke-linecap:round; stroke-linejoin:round; stroke-width:4; stroke-opacity:1; fill:none" points="788.301,1024.2 1200,746.018 "/>
<polyline clip-path="url(#clip902)" style="stroke:#adadad; stroke-linecap:round; stroke-linejoin:round; stroke-width:4; stroke-opacity:1; fill:none" points="788.301,1024.2 1200,606.926 "/>
<polyline clip-path="url(#clip902)" style="stroke:#adadad; stroke-linecap:round; stroke-linejoin:round; stroke-width:4; stroke-opacity:1; fill:none" points="788.301,1024.2 1200,467.833 "/>
<polyline clip-path="url(#clip902)" style="stroke:#adadad; stroke-linecap:round; stroke-linejoin:round; stroke-width:4; stroke-opacity:1; fill:none" points="788.301,885.111 1200,1302.39 "/>
<polyline clip-path="url(#clip902)" style="stroke:#adadad; stroke-linecap:round; stroke-linejoin:round; stroke-width:4; stroke-opacity:1; fill:none" points="788.301,885.111 1200,1163.3 "/>
<polyline clip-path="url(#clip902)" style="stroke:#adadad; stroke-linecap:round; stroke-linejoin:round; stroke-width:4; stroke-opacity:1; fill:none" points="788.301,885.111 1200,1024.2 "/>
<polyline clip-path="url(#clip902)" style="stroke:#adadad; stroke-linecap:round; stroke-linejoin:round; stroke-width:4; stroke-opacity:1; fill:none" points="788.301,885.111 1200,885.111 "/>
<polyline clip-path="url(#clip902)" style="stroke:#adadad; stroke-linecap:round; stroke-linejoin:round; stroke-width:4; stroke-opacity:1; fill:none" points="788.301,885.111 1200,746.018 "/>
<polyline clip-path="url(#clip902)" style="stroke:#adadad; stroke-linecap:round; stroke-linejoin:round; stroke-width:4; stroke-opacity:1; fill:none" points="788.301,885.111 1200,606.926 "/>
<polyline clip-path="url(#clip902)" style="stroke:#adadad; stroke-linecap:round; stroke-linejoin:round; stroke-width:4; stroke-opacity:1; fill:none" points="788.301,885.111 1200,467.833 "/>
<polyline clip-path="url(#clip902)" style="stroke:#adadad; stroke-linecap:round; stroke-linejoin:round; stroke-width:4; stroke-opacity:1; fill:none" points="788.301,746.018 1200,1302.39 "/>
<polyline clip-path="url(#clip902)" style="stroke:#adadad; stroke-linecap:round; stroke-linejoin:round; stroke-width:4; stroke-opacity:1; fill:none" points="788.301,746.018 1200,1163.3 "/>
<polyline clip-path="url(#clip902)" style="stroke:#adadad; stroke-linecap:round; stroke-linejoin:round; stroke-width:4; stroke-opacity:1; fill:none" points="788.301,746.018 1200,1024.2 "/>
<polyline clip-path="url(#clip902)" style="stroke:#adadad; stroke-linecap:round; stroke-linejoin:round; stroke-width:4; stroke-opacity:1; fill:none" points="788.301,746.018 1200,885.111 "/>
<polyline clip-path="url(#clip902)" style="stroke:#adadad; stroke-linecap:round; stroke-linejoin:round; stroke-width:4; stroke-opacity:1; fill:none" points="788.301,746.018 1200,746.018 "/>
<polyline clip-path="url(#clip902)" style="stroke:#adadad; stroke-linecap:round; stroke-linejoin:round; stroke-width:4; stroke-opacity:1; fill:none" points="788.301,746.018 1200,606.926 "/>
<polyline clip-path="url(#clip902)" style="stroke:#adadad; stroke-linecap:round; stroke-linejoin:round; stroke-width:4; stroke-opacity:1; fill:none" points="788.301,746.018 1200,467.833 "/>
<polyline clip-path="url(#clip902)" style="stroke:#adadad; stroke-linecap:round; stroke-linejoin:round; stroke-width:4; stroke-opacity:1; fill:none" points="788.301,606.926 1200,1302.39 "/>
<polyline clip-path="url(#clip902)" style="stroke:#adadad; stroke-linecap:round; stroke-linejoin:round; stroke-width:4; stroke-opacity:1; fill:none" points="788.301,606.926 1200,1163.3 "/>
<polyline clip-path="url(#clip902)" style="stroke:#adadad; stroke-linecap:round; stroke-linejoin:round; stroke-width:4; stroke-opacity:1; fill:none" points="788.301,606.926 1200,1024.2 "/>
<polyline clip-path="url(#clip902)" style="stroke:#adadad; stroke-linecap:round; stroke-linejoin:round; stroke-width:4; stroke-opacity:1; fill:none" points="788.301,606.926 1200,885.111 "/>
<polyline clip-path="url(#clip902)" style="stroke:#adadad; stroke-linecap:round; stroke-linejoin:round; stroke-width:4; stroke-opacity:1; fill:none" points="788.301,606.926 1200,746.018 "/>
<polyline clip-path="url(#clip902)" style="stroke:#adadad; stroke-linecap:round; stroke-linejoin:round; stroke-width:4; stroke-opacity:1; fill:none" points="788.301,606.926 1200,606.926 "/>
<polyline clip-path="url(#clip902)" style="stroke:#adadad; stroke-linecap:round; stroke-linejoin:round; stroke-width:4; stroke-opacity:1; fill:none" points="788.301,606.926 1200,467.833 "/>
<polyline clip-path="url(#clip902)" style="stroke:#adadad; stroke-linecap:round; stroke-linejoin:round; stroke-width:4; stroke-opacity:1; fill:none" points="1200,1302.39 1611.7,954.657 "/>
<polyline clip-path="url(#clip902)" style="stroke:#adadad; stroke-linecap:round; stroke-linejoin:round; stroke-width:4; stroke-opacity:1; fill:none" points="1200,1302.39 1611.7,815.565 "/>
<polyline clip-path="url(#clip902)" style="stroke:#adadad; stroke-linecap:round; stroke-linejoin:round; stroke-width:4; stroke-opacity:1; fill:none" points="1200,1163.3 1611.7,954.657 "/>
<polyline clip-path="url(#clip902)" style="stroke:#adadad; stroke-linecap:round; stroke-linejoin:round; stroke-width:4; stroke-opacity:1; fill:none" points="1200,1163.3 1611.7,815.565 "/>
<polyline clip-path="url(#clip902)" style="stroke:#adadad; stroke-linecap:round; stroke-linejoin:round; stroke-width:4; stroke-opacity:1; fill:none" points="1200,1024.2 1611.7,954.657 "/>
<polyline clip-path="url(#clip902)" style="stroke:#adadad; stroke-linecap:round; stroke-linejoin:round; stroke-width:4; stroke-opacity:1; fill:none" points="1200,1024.2 1611.7,815.565 "/>
<polyline clip-path="url(#clip902)" style="stroke:#adadad; stroke-linecap:round; stroke-linejoin:round; stroke-width:4; stroke-opacity:1; fill:none" points="1200,885.111 1611.7,954.657 "/>
<polyline clip-path="url(#clip902)" style="stroke:#adadad; stroke-linecap:round; stroke-linejoin:round; stroke-width:4; stroke-opacity:1; fill:none" points="1200,885.111 1611.7,815.565 "/>
<polyline clip-path="url(#clip902)" style="stroke:#adadad; stroke-linecap:round; stroke-linejoin:round; stroke-width:4; stroke-opacity:1; fill:none" points="1200,746.018 1611.7,954.657 "/>
<polyline clip-path="url(#clip902)" style="stroke:#adadad; stroke-linecap:round; stroke-linejoin:round; stroke-width:4; stroke-opacity:1; fill:none" points="1200,746.018 1611.7,815.565 "/>
<polyline clip-path="url(#clip902)" style="stroke:#adadad; stroke-linecap:round; stroke-linejoin:round; stroke-width:4; stroke-opacity:1; fill:none" points="1200,606.926 1611.7,954.657 "/>
<polyline clip-path="url(#clip902)" style="stroke:#adadad; stroke-linecap:round; stroke-linejoin:round; stroke-width:4; stroke-opacity:1; fill:none" points="1200,606.926 1611.7,815.565 "/>
<polyline clip-path="url(#clip902)" style="stroke:#adadad; stroke-linecap:round; stroke-linejoin:round; stroke-width:4; stroke-opacity:1; fill:none" points="1200,467.833 1611.7,954.657 "/>
<polyline clip-path="url(#clip902)" style="stroke:#adadad; stroke-linecap:round; stroke-linejoin:round; stroke-width:4; stroke-opacity:1; fill:none" points="1200,467.833 1611.7,815.565 "/>
<polyline clip-path="url(#clip902)" style="stroke:#adadad; stroke-linecap:round; stroke-linejoin:round; stroke-width:4; stroke-opacity:1; fill:none" points="1611.7,954.657 2023.4,1024.2 "/>
<polyline clip-path="url(#clip902)" style="stroke:#adadad; stroke-linecap:round; stroke-linejoin:round; stroke-width:4; stroke-opacity:1; fill:none" points="1611.7,954.657 2023.4,885.111 "/>
<polyline clip-path="url(#clip902)" style="stroke:#adadad; stroke-linecap:round; stroke-linejoin:round; stroke-width:4; stroke-opacity:1; fill:none" points="1611.7,954.657 2023.4,746.018 "/>
<polyline clip-path="url(#clip902)" style="stroke:#adadad; stroke-linecap:round; stroke-linejoin:round; stroke-width:4; stroke-opacity:1; fill:none" points="1611.7,815.565 2023.4,1024.2 "/>
<polyline clip-path="url(#clip902)" style="stroke:#adadad; stroke-linecap:round; stroke-linejoin:round; stroke-width:4; stroke-opacity:1; fill:none" points="1611.7,815.565 2023.4,885.111 "/>
<polyline clip-path="url(#clip902)" style="stroke:#adadad; stroke-linecap:round; stroke-linejoin:round; stroke-width:4; stroke-opacity:1; fill:none" points="1611.7,815.565 2023.4,746.018 "/>
<path clip-path="url(#clip902)" d="M376.603 995.265 L364.054 993.278 L352.734 987.51 L343.75 978.526 L337.982 967.206 L335.995 954.657 L337.982 942.109 L343.75 930.789 L352.734 921.805 L364.054 916.037 L376.603 914.049 L389.151 916.037 L400.472 921.805 L409.455 930.789 L415.223 942.109 L417.211 954.657 L415.223 967.206 L409.455 978.526 L400.472 987.51 L389.151 993.278 L376.603 995.265  Z" fill="#000000" fill-rule="evenodd" fill-opacity="0"/>
<polyline clip-path="url(#clip902)" style="stroke:#000000; stroke-linecap:round; stroke-linejoin:round; stroke-width:4; stroke-opacity:1; fill:none" points="376.603,995.265 364.054,993.278 352.734,987.51 343.75,978.526 337.982,967.206 335.995,954.657 337.982,942.109 343.75,930.789 352.734,921.805 364.054,916.037 376.603,914.049 389.151,916.037 400.472,921.805 409.455,930.789 415.223,942.109 417.211,954.657 415.223,967.206 409.455,978.526 400.472,987.51 389.151,993.278 376.603,995.265 "/>
<path clip-path="url(#clip902)" d="M376.603 856.173 L364.054 854.185 L352.734 848.417 L343.75 839.434 L337.982 828.113 L335.995 815.565 L337.982 803.016 L343.75 791.696 L352.734 782.712 L364.054 776.944 L376.603 774.957 L389.151 776.944 L400.472 782.712 L409.455 791.696 L415.223 803.016 L417.211 815.565 L415.223 828.113 L409.455 839.434 L400.472 848.417 L389.151 854.185 L376.603 856.173  Z" fill="#000000" fill-rule="evenodd" fill-opacity="0"/>
<polyline clip-path="url(#clip902)" style="stroke:#000000; stroke-linecap:round; stroke-linejoin:round; stroke-width:4; stroke-opacity:1; fill:none" points="376.603,856.173 364.054,854.185 352.734,848.417 343.75,839.434 337.982,828.113 335.995,815.565 337.982,803.016 343.75,791.696 352.734,782.712 364.054,776.944 376.603,774.957 389.151,776.944 400.472,782.712 409.455,791.696 415.223,803.016 417.211,815.565 415.223,828.113 409.455,839.434 400.472,848.417 389.151,854.185 376.603,856.173 "/>
<circle clip-path="url(#clip902)" cx="788.301" cy="1163.3" r="43.2" fill="#90ee90" fill-rule="evenodd" fill-opacity="1" stroke="#000000" stroke-opacity="1" stroke-width="3.2"/>
<circle clip-path="url(#clip902)" cx="788.301" cy="1024.2" r="43.2" fill="#90ee90" fill-rule="evenodd" fill-opacity="1" stroke="#000000" stroke-opacity="1" stroke-width="3.2"/>
<circle clip-path="url(#clip902)" cx="788.301" cy="885.111" r="43.2" fill="#90ee90" fill-rule="evenodd" fill-opacity="1" stroke="#000000" stroke-opacity="1" stroke-width="3.2"/>
<circle clip-path="url(#clip902)" cx="788.301" cy="746.018" r="43.2" fill="#90ee90" fill-rule="evenodd" fill-opacity="1" stroke="#000000" stroke-opacity="1" stroke-width="3.2"/>
<circle clip-path="url(#clip902)" cx="788.301" cy="606.926" r="43.2" fill="#90ee90" fill-rule="evenodd" fill-opacity="1" stroke="#000000" stroke-opacity="1" stroke-width="3.2"/>
<circle clip-path="url(#clip902)" cx="1200" cy="1302.39" r="43.2" fill="#90ee90" fill-rule="evenodd" fill-opacity="1" stroke="#000000" stroke-opacity="1" stroke-width="3.2"/>
<circle clip-path="url(#clip902)" cx="1200" cy="1163.3" r="43.2" fill="#90ee90" fill-rule="evenodd" fill-opacity="1" stroke="#000000" stroke-opacity="1" stroke-width="3.2"/>
<circle clip-path="url(#clip902)" cx="1200" cy="1024.2" r="43.2" fill="#90ee90" fill-rule="evenodd" fill-opacity="1" stroke="#000000" stroke-opacity="1" stroke-width="3.2"/>
<circle clip-path="url(#clip902)" cx="1200" cy="885.111" r="43.2" fill="#90ee90" fill-rule="evenodd" fill-opacity="1" stroke="#000000" stroke-opacity="1" stroke-width="3.2"/>
<circle clip-path="url(#clip902)" cx="1200" cy="746.018" r="43.2" fill="#90ee90" fill-rule="evenodd" fill-opacity="1" stroke="#000000" stroke-opacity="1" stroke-width="3.2"/>
<circle clip-path="url(#clip902)" cx="1200" cy="606.926" r="43.2" fill="#90ee90" fill-rule="evenodd" fill-opacity="1" stroke="#000000" stroke-opacity="1" stroke-width="3.2"/>
<circle clip-path="url(#clip902)" cx="1200" cy="467.833" r="43.2" fill="#90ee90" fill-rule="evenodd" fill-opacity="1" stroke="#000000" stroke-opacity="1" stroke-width="3.2"/>
<circle clip-path="url(#clip902)" cx="1611.7" cy="954.657" r="43.2" fill="#90ee90" fill-rule="evenodd" fill-opacity="1" stroke="#000000" stroke-opacity="1" stroke-width="3.2"/>
<circle clip-path="url(#clip902)" cx="1611.7" cy="815.565" r="43.2" fill="#90ee90" fill-rule="evenodd" fill-opacity="1" stroke="#000000" stroke-opacity="1" stroke-width="3.2"/>
<circle clip-path="url(#clip902)" cx="2023.4" cy="1024.2" r="43.2" fill="#90ee90" fill-rule="evenodd" fill-opacity="1" stroke="#000000" stroke-opacity="1" stroke-width="3.2"/>
<circle clip-path="url(#clip902)" cx="2023.4" cy="885.111" r="43.2" fill="#90ee90" fill-rule="evenodd" fill-opacity="1" stroke="#000000" stroke-opacity="1" stroke-width="3.2"/>
<circle clip-path="url(#clip902)" cx="2023.4" cy="746.018" r="43.2" fill="#90ee90" fill-rule="evenodd" fill-opacity="1" stroke="#000000" stroke-opacity="1" stroke-width="3.2"/>
<path clip-path="url(#clip902)" d="M415.003 954.657 L357.403 921.057 L357.403 988.257 L415.003 954.657 Z" fill="#ffff00" fill-rule="evenodd" fill-opacity="1" stroke="#000000" stroke-opacity="1" stroke-width="3.2"/>
<path clip-path="url(#clip902)" d="M415.003 815.565 L357.403 781.965 L357.403 849.165 L415.003 815.565 Z" fill="#ffff00" fill-rule="evenodd" fill-opacity="1" stroke="#000000" stroke-opacity="1" stroke-width="3.2"/>
<path clip-path="url(#clip902)" d="M2061.8 1024.2 L2004.2 990.604 L2004.2 1057.8 L2061.8 1024.2 Z" fill="#ffa500" fill-rule="evenodd" fill-opacity="1" stroke="#000000" stroke-opacity="1" stroke-width="3.2"/>
<path clip-path="url(#clip902)" d="M2061.8 885.111 L2004.2 851.511 L2004.2 918.711 L2061.8 885.111 Z" fill="#ffa500" fill-rule="evenodd" fill-opacity="1" stroke="#000000" stroke-opacity="1" stroke-width="3.2"/>
<path clip-path="url(#clip902)" d="M2061.8 746.018 L2004.2 712.418 L2004.2 779.618 L2061.8 746.018 Z" fill="#ffa500" fill-rule="evenodd" fill-opacity="1" stroke="#000000" stroke-opacity="1" stroke-width="3.2"/>
<g clip-path="url(#clip900)">
<text style="fill:#000000; fill-opacity:1; font-family:Century Gothic,CenturyGothic,AppleGothic,sans-serif; font-size:47px; text-anchor:middle;" transform="rotate(-20, 382.588, 692.917)" x="382.588" y="692.917">input</text>
</g>
<g clip-path="url(#clip900)">
<text style="fill:#000000; fill-opacity:1; font-family:Century Gothic,CenturyGothic,AppleGothic,sans-serif; font-size:47px; text-anchor:middle;" transform="rotate(-20, 794.287, 484.278)" x="794.287" y="484.278">Dense(2 =&gt; 5)</text>
</g>
<g clip-path="url(#clip900)">
<text style="fill:#000000; fill-opacity:1; font-family:Century Gothic,CenturyGothic,AppleGothic,sans-serif; font-size:47px; text-anchor:middle;" transform="rotate(-20, 1205.99, 345.185)" x="1205.99" y="345.185">Dense(5 =&gt; 7, )</text>
</g>
<g clip-path="url(#clip900)">
<text style="fill:#000000; fill-opacity:1; font-family:Century Gothic,CenturyGothic,AppleGothic,sans-serif; font-size:47px; text-anchor:middle;" transform="rotate(-20, 1617.68, 692.917)" x="1617.68" y="692.917">Dense(7 =&gt; 2, relu)</text>
</g>
<g clip-path="url(#clip900)">
<text style="fill:#000000; fill-opacity:1; font-family:Century Gothic,CenturyGothic,AppleGothic,sans-serif; font-size:47px; text-anchor:middle;" transform="rotate(-20, 2029.38, 623.37)" x="2029.38" y="623.37">Dense(2 =&gt; 3)</text>
</g>
</svg>
