<?xml version="1.0" encoding="utf-8"?>
<svg xmlns="http://www.w3.org/2000/svg" xmlns:xlink="http://www.w3.org/1999/xlink" width="600" height="400" viewBox="0 0 2400 1600">
<defs>
  <clipPath id="clip600">
    <rect x="0" y="0" width="2400" height="1600"/>
  </clipPath>
</defs>
<path clip-path="url(#clip600)" d="M0 1600 L2400 1600 L2400 0 L0 0  Z" fill="#ffffff" fill-rule="evenodd" fill-opacity="1"/>
<defs>
  <clipPath id="clip601">
    <rect x="480" y="0" width="1681" height="1600"/>
  </clipPath>
</defs>
<path clip-path="url(#clip600)" d="M47.2441 1388.98 L2352.76 1388.98 L2352.76 114.832 L47.2441 114.832  Z" fill="#ffffff" fill-rule="evenodd" fill-opacity="1"/>
<defs>
  <clipPath id="clip602">
    <rect x="47" y="114" width="2307" height="1275"/>
  </clipPath>
</defs>
<polyline clip-path="url(#clip602)" style="stroke:#000000; stroke-linecap:round; stroke-linejoin:round; stroke-width:2; stroke-opacity:0.1; fill:none" points="376.603,1388.98 376.603,114.832 "/>
<polyline clip-path="url(#clip602)" style="stroke:#000000; stroke-linecap:round; stroke-linejoin:round; stroke-width:2; stroke-opacity:0.1; fill:none" points="2023.4,1388.98 2023.4,114.832 "/>
<path clip-path="url(#clip600)" d="M785.297 37.9026 Q787.554 38.6665 789.672 41.1664 Q791.825 43.6664 793.978 48.0414 L801.096 62.208 L793.561 62.208 L786.929 48.9095 Q784.36 43.7012 781.929 41.9998 Q779.534 40.2984 775.367 40.2984 L767.728 40.2984 L767.728 62.208 L760.714 62.208 L760.714 10.368 L776.547 10.368 Q785.436 10.368 789.811 14.0833 Q794.186 17.7985 794.186 25.2985 Q794.186 30.1943 791.895 33.4234 Q789.638 36.6526 785.297 37.9026 M767.728 16.1319 L767.728 34.5345 L776.547 34.5345 Q781.617 34.5345 784.186 32.2082 Q786.79 29.8471 786.79 25.2985 Q786.79 20.7499 784.186 18.4582 Q781.617 16.1319 776.547 16.1319 L767.728 16.1319 Z" fill="#000000" fill-rule="nonzero" fill-opacity="1" /><path clip-path="url(#clip600)" d="M839.915 41.1664 L839.915 44.2914 L810.54 44.2914 Q810.957 50.8886 814.499 54.3608 Q818.075 57.7983 824.429 57.7983 Q828.11 57.7983 831.547 56.8955 Q835.019 55.9928 838.422 54.1872 L838.422 60.2288 Q834.985 61.6872 831.374 62.4511 Q827.762 63.2149 824.047 63.2149 Q814.742 63.2149 809.29 57.7983 Q803.874 52.3817 803.874 43.1456 Q803.874 33.597 809.013 28.0068 Q814.186 22.3818 822.936 22.3818 Q830.783 22.3818 835.332 27.4512 Q839.915 32.4859 839.915 41.1664 M833.526 39.2915 Q833.457 34.0484 830.575 30.9234 Q827.728 27.7985 823.005 27.7985 Q817.658 27.7985 814.429 30.8193 Q811.235 33.8401 810.749 39.3262 L833.526 39.2915 Z" fill="#000000" fill-rule="nonzero" fill-opacity="1" /><path clip-path="url(#clip600)" d="M878.387 24.8124 L878.387 30.7846 Q875.679 29.2915 872.936 28.5623 Q870.227 27.7985 867.45 27.7985 Q861.234 27.7985 857.797 31.7568 Q854.359 35.6804 854.359 42.7984 Q854.359 49.9164 857.797 53.8747 Q861.234 57.7983 867.45 57.7983 Q870.227 57.7983 872.936 57.0691 Q875.679 56.3053 878.387 54.8122 L878.387 60.715 Q875.714 61.9649 872.832 62.5899 Q869.984 63.2149 866.755 63.2149 Q857.971 63.2149 852.797 57.6941 Q847.623 52.1733 847.623 42.7984 Q847.623 33.2845 852.832 27.8332 Q858.075 22.3818 867.172 22.3818 Q870.123 22.3818 872.936 23.0068 Q875.748 23.5971 878.387 24.8124 Z" fill="#000000" fill-rule="nonzero" fill-opacity="1" /><path clip-path="url(#clip600)" d="M888.838 46.8609 L888.838 23.3193 L895.227 23.3193 L895.227 46.6178 Q895.227 52.1386 897.38 54.9164 Q899.533 57.6594 903.838 57.6594 Q909.012 57.6594 911.998 54.3608 Q915.019 51.0622 915.019 45.3678 L915.019 23.3193 L921.408 23.3193 L921.408 62.208 L915.019 62.208 L915.019 56.2358 Q912.693 59.7775 909.602 61.5136 Q906.547 63.2149 902.484 63.2149 Q895.783 63.2149 892.311 59.0483 Q888.838 54.8817 888.838 46.8609 M904.915 22.3818 L904.915 22.3818 Z" fill="#000000" fill-rule="nonzero" fill-opacity="1" /><path clip-path="url(#clip600)" d="M957.102 29.2915 Q956.026 28.6665 954.741 28.3887 Q953.491 28.0762 951.963 28.0762 Q946.546 28.0762 943.63 31.6179 Q940.748 35.1248 940.748 41.722 L940.748 62.208 L934.324 62.208 L934.324 23.3193 L940.748 23.3193 L940.748 29.361 Q942.762 25.8193 945.991 24.1179 Q949.22 22.3818 953.838 22.3818 Q954.498 22.3818 955.296 22.486 Q956.095 22.5554 957.067 22.729 L957.102 29.2915 Z" fill="#000000" fill-rule="nonzero" fill-opacity="1" /><path clip-path="url(#clip600)" d="M979.15 8.24996 Q974.498 16.236 972.241 24.0485 Q969.984 31.8609 969.984 39.8817 Q969.984 47.9025 972.241 55.7844 Q974.532 63.6316 979.15 71.5829 L973.595 71.5829 Q968.387 63.4233 965.783 55.5414 Q963.213 47.6595 963.213 39.8817 Q963.213 32.1387 965.783 24.2915 Q968.352 16.4444 973.595 8.24996 L979.15 8.24996 Z" fill="#000000" fill-rule="nonzero" fill-opacity="1" /><path clip-path="url(#clip600)" d="M991.824 10.368 L998.838 10.368 L998.838 56.3053 L1024.08 56.3053 L1024.08 62.208 L991.824 62.208 L991.824 10.368 Z" fill="#000000" fill-rule="nonzero" fill-opacity="1" /><path clip-path="url(#clip600)" d="M1062.52 12.0694 L1062.52 18.9096 Q1058.53 16.9999 1054.98 16.0624 Q1051.44 15.1249 1048.14 15.1249 Q1042.41 15.1249 1039.29 17.3471 Q1036.2 19.5693 1036.2 23.6665 Q1036.2 27.104 1038.25 28.8748 Q1040.33 30.6109 1046.09 31.6873 L1050.33 32.5554 Q1058.18 34.0484 1061.89 37.8331 Q1065.64 41.5831 1065.64 47.9025 Q1065.64 55.4372 1060.57 59.3261 Q1055.54 63.2149 1045.78 63.2149 Q1042.1 63.2149 1037.93 62.3816 Q1033.8 61.5483 1029.36 59.9163 L1029.36 52.6942 Q1033.63 55.09 1037.73 56.3053 Q1041.82 57.5205 1045.78 57.5205 Q1051.79 57.5205 1055.05 55.1594 Q1058.32 52.7983 1058.32 48.4234 Q1058.32 44.6039 1055.96 42.4512 Q1053.63 40.2984 1048.28 39.222 L1044.01 38.3887 Q1036.16 36.8262 1032.66 33.4929 Q1029.15 30.1596 1029.15 24.2221 Q1029.15 17.3471 1033.98 13.3888 Q1038.84 9.43051 1047.34 9.43051 Q1050.99 9.43051 1054.78 10.0902 Q1058.56 10.7499 1062.52 12.0694 Z" fill="#000000" fill-rule="nonzero" fill-opacity="1" /><path clip-path="url(#clip600)" d="M1069.39 10.368 L1113.25 10.368 L1113.25 16.2707 L1094.84 16.2707 L1094.84 62.208 L1087.8 62.208 L1087.8 16.2707 L1069.39 16.2707 L1069.39 10.368 Z" fill="#000000" fill-rule="nonzero" fill-opacity="1" /><path clip-path="url(#clip600)" d="M1120.02 10.368 L1130.47 10.368 L1143.7 45.6456 L1157 10.368 L1167.45 10.368 L1167.45 62.208 L1160.61 62.208 L1160.61 16.6874 L1147.24 52.2428 L1140.19 52.2428 L1126.82 16.6874 L1126.82 62.208 L1120.02 62.208 L1120.02 10.368 Z" fill="#000000" fill-rule="nonzero" fill-opacity="1" /><path clip-path="url(#clip600)" d="M1220.19 14.361 L1220.19 21.7568 Q1216.65 18.4582 1212.62 16.8263 Q1208.63 15.1944 1204.11 15.1944 Q1195.23 15.1944 1190.5 20.6457 Q1185.78 26.0624 1185.78 36.3401 Q1185.78 46.5831 1190.5 52.0344 Q1195.23 57.4511 1204.11 57.4511 Q1208.63 57.4511 1212.62 55.8191 Q1216.65 54.1872 1220.19 50.8886 L1220.19 58.215 Q1216.51 60.715 1212.38 61.9649 Q1208.28 63.2149 1203.7 63.2149 Q1191.93 63.2149 1185.16 56.0275 Q1178.39 48.8053 1178.39 36.3401 Q1178.39 23.8402 1185.16 16.6527 Q1191.93 9.43051 1203.7 9.43051 Q1208.35 9.43051 1212.45 10.6805 Q1216.58 11.8958 1220.19 14.361 Z" fill="#000000" fill-rule="nonzero" fill-opacity="1" /><path clip-path="url(#clip600)" d="M1264.01 41.1664 L1264.01 44.2914 L1234.64 44.2914 Q1235.05 50.8886 1238.59 54.3608 Q1242.17 57.7983 1248.52 57.7983 Q1252.2 57.7983 1255.64 56.8955 Q1259.11 55.9928 1262.52 54.1872 L1262.52 60.2288 Q1259.08 61.6872 1255.47 62.4511 Q1251.86 63.2149 1248.14 63.2149 Q1238.84 63.2149 1233.39 57.7983 Q1227.97 52.3817 1227.97 43.1456 Q1227.97 33.597 1233.11 28.0068 Q1238.28 22.3818 1247.03 22.3818 Q1254.88 22.3818 1259.43 27.4512 Q1264.01 32.4859 1264.01 41.1664 M1257.62 39.2915 Q1257.55 34.0484 1254.67 30.9234 Q1251.82 27.7985 1247.1 27.7985 Q1241.75 27.7985 1238.52 30.8193 Q1235.33 33.8401 1234.84 39.3262 L1257.62 39.2915 Z" fill="#000000" fill-rule="nonzero" fill-opacity="1" /><path clip-path="url(#clip600)" d="M1274.5 8.18051 L1280.88 8.18051 L1280.88 62.208 L1274.5 62.208 L1274.5 8.18051 Z" fill="#000000" fill-rule="nonzero" fill-opacity="1" /><path clip-path="url(#clip600)" d="M1294.25 8.18051 L1300.64 8.18051 L1300.64 62.208 L1294.25 62.208 L1294.25 8.18051 Z" fill="#000000" fill-rule="nonzero" fill-opacity="1" /><path clip-path="url(#clip600)" d="M1329.36 8.24996 Q1324.7 16.236 1322.45 24.0485 Q1320.19 31.8609 1320.19 39.8817 Q1320.19 47.9025 1322.45 55.7844 Q1324.74 63.6316 1329.36 71.5829 L1323.8 71.5829 Q1318.59 63.4233 1315.99 55.5414 Q1313.42 47.6595 1313.42 39.8817 Q1313.42 32.1387 1315.99 24.2915 Q1318.56 16.4444 1323.8 8.24996 L1329.36 8.24996 Z" fill="#000000" fill-rule="nonzero" fill-opacity="1" /><path clip-path="url(#clip600)" d="M1361.93 16.4791 L1344.22 44.1525 L1361.93 44.1525 L1361.93 16.4791 M1360.09 10.368 L1368.91 10.368 L1368.91 44.1525 L1376.3 44.1525 L1376.3 49.9858 L1368.91 49.9858 L1368.91 62.208 L1361.93 62.208 L1361.93 49.9858 L1338.52 49.9858 L1338.52 43.215 L1360.09 10.368 Z" fill="#000000" fill-rule="nonzero" fill-opacity="1" /><path clip-path="url(#clip600)" d="M1410.43 29.9165 L1454.95 29.9165 L1454.95 35.7498 L1410.43 35.7498 L1410.43 29.9165 M1410.43 44.0831 L1454.95 44.0831 L1454.95 49.9858 L1410.43 49.9858 L1410.43 44.0831 Z" fill="#000000" fill-rule="nonzero" fill-opacity="1" /><path clip-path="url(#clip600)" d="M1470.02 27.2082 L1470.02 20.8888 L1514.53 37.0345 L1514.53 42.7984 L1470.02 58.9441 L1470.02 52.6247 L1505.78 39.9512 L1470.02 27.2082 Z" fill="#000000" fill-rule="nonzero" fill-opacity="1" /><path clip-path="url(#clip600)" d="M1550.5 10.368 L1583.83 10.368 L1583.83 13.3541 L1565.02 62.208 L1557.69 62.208 L1575.4 16.2707 L1550.5 16.2707 L1550.5 10.368 Z" fill="#000000" fill-rule="nonzero" fill-opacity="1" /><path clip-path="url(#clip600)" d="M1595.61 8.24996 L1601.16 8.24996 Q1606.37 16.4444 1608.94 24.2915 Q1611.54 32.1387 1611.54 39.8817 Q1611.54 47.6595 1608.94 55.5414 Q1606.37 63.4233 1601.16 71.5829 L1595.61 71.5829 Q1600.22 63.6316 1602.48 55.7844 Q1604.77 47.9025 1604.77 39.8817 Q1604.77 31.8609 1602.48 24.0485 Q1600.22 16.236 1595.61 8.24996 Z" fill="#000000" fill-rule="nonzero" fill-opacity="1" /><path clip-path="url(#clip600)" d="M1623.35 8.24996 L1628.9 8.24996 Q1634.11 16.4444 1636.68 24.2915 Q1639.29 32.1387 1639.29 39.8817 Q1639.29 47.6595 1636.68 55.5414 Q1634.11 63.4233 1628.9 71.5829 L1623.35 71.5829 Q1627.97 63.6316 1630.22 55.7844 Q1632.52 47.9025 1632.52 39.8817 Q1632.52 31.8609 1630.22 24.0485 Q1627.97 16.236 1623.35 8.24996 Z" fill="#000000" fill-rule="nonzero" fill-opacity="1" /><polyline clip-path="url(#clip602)" style="stroke:#adadad; stroke-linecap:round; stroke-linejoin:round; stroke-width:4; stroke-opacity:1; fill:none" points="376.603,984.683 2023.4,1168.45 "/>
<polyline clip-path="url(#clip602)" style="stroke:#adadad; stroke-linecap:round; stroke-linejoin:round; stroke-width:4; stroke-opacity:1; fill:none" points="376.603,984.683 2023.4,1045.94 "/>
<polyline clip-path="url(#clip602)" style="stroke:#adadad; stroke-linecap:round; stroke-linejoin:round; stroke-width:4; stroke-opacity:1; fill:none" points="376.603,984.683 2023.4,923.426 "/>
<polyline clip-path="url(#clip602)" style="stroke:#adadad; stroke-linecap:round; stroke-linejoin:round; stroke-width:4; stroke-opacity:1; fill:none" points="376.603,984.683 2023.4,800.912 "/>
<polyline clip-path="url(#clip602)" style="stroke:#adadad; stroke-linecap:round; stroke-linejoin:round; stroke-width:4; stroke-opacity:1; fill:none" points="376.603,984.683 2023.4,678.398 "/>
<polyline clip-path="url(#clip602)" style="stroke:#adadad; stroke-linecap:round; stroke-linejoin:round; stroke-width:4; stroke-opacity:1; fill:none" points="376.603,984.683 2023.4,555.883 "/>
<polyline clip-path="url(#clip602)" style="stroke:#adadad; stroke-linecap:round; stroke-linejoin:round; stroke-width:4; stroke-opacity:1; fill:none" points="376.603,984.683 2023.4,433.369 "/>
<polyline clip-path="url(#clip602)" style="stroke:#adadad; stroke-linecap:round; stroke-linejoin:round; stroke-width:4; stroke-opacity:1; fill:none" points="376.603,862.169 2023.4,1168.45 "/>
<polyline clip-path="url(#clip602)" style="stroke:#adadad; stroke-linecap:round; stroke-linejoin:round; stroke-width:4; stroke-opacity:1; fill:none" points="376.603,862.169 2023.4,1045.94 "/>
<polyline clip-path="url(#clip602)" style="stroke:#adadad; stroke-linecap:round; stroke-linejoin:round; stroke-width:4; stroke-opacity:1; fill:none" points="376.603,862.169 2023.4,923.426 "/>
<polyline clip-path="url(#clip602)" style="stroke:#adadad; stroke-linecap:round; stroke-linejoin:round; stroke-width:4; stroke-opacity:1; fill:none" points="376.603,862.169 2023.4,800.912 "/>
<polyline clip-path="url(#clip602)" style="stroke:#adadad; stroke-linecap:round; stroke-linejoin:round; stroke-width:4; stroke-opacity:1; fill:none" points="376.603,862.169 2023.4,678.398 "/>
<polyline clip-path="url(#clip602)" style="stroke:#adadad; stroke-linecap:round; stroke-linejoin:round; stroke-width:4; stroke-opacity:1; fill:none" points="376.603,862.169 2023.4,555.883 "/>
<polyline clip-path="url(#clip602)" style="stroke:#adadad; stroke-linecap:round; stroke-linejoin:round; stroke-width:4; stroke-opacity:1; fill:none" points="376.603,862.169 2023.4,433.369 "/>
<polyline clip-path="url(#clip602)" style="stroke:#adadad; stroke-linecap:round; stroke-linejoin:round; stroke-width:4; stroke-opacity:1; fill:none" points="376.603,739.655 2023.4,1168.45 "/>
<polyline clip-path="url(#clip602)" style="stroke:#adadad; stroke-linecap:round; stroke-linejoin:round; stroke-width:4; stroke-opacity:1; fill:none" points="376.603,739.655 2023.4,1045.94 "/>
<polyline clip-path="url(#clip602)" style="stroke:#adadad; stroke-linecap:round; stroke-linejoin:round; stroke-width:4; stroke-opacity:1; fill:none" points="376.603,739.655 2023.4,923.426 "/>
<polyline clip-path="url(#clip602)" style="stroke:#adadad; stroke-linecap:round; stroke-linejoin:round; stroke-width:4; stroke-opacity:1; fill:none" points="376.603,739.655 2023.4,800.912 "/>
<polyline clip-path="url(#clip602)" style="stroke:#adadad; stroke-linecap:round; stroke-linejoin:round; stroke-width:4; stroke-opacity:1; fill:none" points="376.603,739.655 2023.4,678.398 "/>
<polyline clip-path="url(#clip602)" style="stroke:#adadad; stroke-linecap:round; stroke-linejoin:round; stroke-width:4; stroke-opacity:1; fill:none" points="376.603,739.655 2023.4,555.883 "/>
<polyline clip-path="url(#clip602)" style="stroke:#adadad; stroke-linecap:round; stroke-linejoin:round; stroke-width:4; stroke-opacity:1; fill:none" points="376.603,739.655 2023.4,433.369 "/>
<polyline clip-path="url(#clip602)" style="stroke:#adadad; stroke-linecap:round; stroke-linejoin:round; stroke-width:4; stroke-opacity:1; fill:none" points="376.603,617.141 2023.4,1168.45 "/>
<polyline clip-path="url(#clip602)" style="stroke:#adadad; stroke-linecap:round; stroke-linejoin:round; stroke-width:4; stroke-opacity:1; fill:none" points="376.603,617.141 2023.4,1045.94 "/>
<polyline clip-path="url(#clip602)" style="stroke:#adadad; stroke-linecap:round; stroke-linejoin:round; stroke-width:4; stroke-opacity:1; fill:none" points="376.603,617.141 2023.4,923.426 "/>
<polyline clip-path="url(#clip602)" style="stroke:#adadad; stroke-linecap:round; stroke-linejoin:round; stroke-width:4; stroke-opacity:1; fill:none" points="376.603,617.141 2023.4,800.912 "/>
<polyline clip-path="url(#clip602)" style="stroke:#adadad; stroke-linecap:round; stroke-linejoin:round; stroke-width:4; stroke-opacity:1; fill:none" points="376.603,617.141 2023.4,678.398 "/>
<polyline clip-path="url(#clip602)" style="stroke:#adadad; stroke-linecap:round; stroke-linejoin:round; stroke-width:4; stroke-opacity:1; fill:none" points="376.603,617.141 2023.4,555.883 "/>
<polyline clip-path="url(#clip602)" style="stroke:#adadad; stroke-linecap:round; stroke-linejoin:round; stroke-width:4; stroke-opacity:1; fill:none" points="376.603,617.141 2023.4,433.369 "/>
<path clip-path="url(#clip602)" d="M376.603 1025.29 L364.054 1023.3 L352.734 1017.54 L343.75 1008.55 L337.982 997.232 L335.995 984.683 L337.982 972.135 L343.75 960.815 L352.734 951.831 L364.054 946.063 L376.603 944.075 L389.151 946.063 L400.472 951.831 L409.455 960.815 L415.223 972.135 L417.211 984.683 L415.223 997.232 L409.455 1008.55 L400.472 1017.54 L389.151 1023.3 L376.603 1025.29  Z" fill="#000000" fill-rule="evenodd" fill-opacity="0"/>
<polyline clip-path="url(#clip602)" style="stroke:#000000; stroke-linecap:round; stroke-linejoin:round; stroke-width:4; stroke-opacity:1; fill:none" points="376.603,1025.29 364.054,1023.3 352.734,1017.54 343.75,1008.55 337.982,997.232 335.995,984.683 337.982,972.135 343.75,960.815 352.734,951.831 364.054,946.063 376.603,944.075 389.151,946.063 400.472,951.831 409.455,960.815 415.223,972.135 417.211,984.683 415.223,997.232 409.455,1008.55 400.472,1017.54 389.151,1023.3 376.603,1025.29 "/>
<path clip-path="url(#clip602)" d="M376.603 902.777 L364.054 900.79 L352.734 895.022 L343.75 886.038 L337.982 874.718 L335.995 862.169 L337.982 849.621 L343.75 838.3 L352.734 829.317 L364.054 823.549 L376.603 821.561 L389.151 823.549 L400.472 829.317 L409.455 838.3 L415.223 849.621 L417.211 862.169 L415.223 874.718 L409.455 886.038 L400.472 895.022 L389.151 900.79 L376.603 902.777  Z" fill="#000000" fill-rule="evenodd" fill-opacity="0"/>
<polyline clip-path="url(#clip602)" style="stroke:#000000; stroke-linecap:round; stroke-linejoin:round; stroke-width:4; stroke-opacity:1; fill:none" points="376.603,902.777 364.054,900.79 352.734,895.022 343.75,886.038 337.982,874.718 335.995,862.169 337.982,849.621 343.75,838.3 352.734,829.317 364.054,823.549 376.603,821.561 389.151,823.549 400.472,829.317 409.455,838.3 415.223,849.621 417.211,862.169 415.223,874.718 409.455,886.038 400.472,895.022 389.151,900.79 376.603,902.777 "/>
<path clip-path="url(#clip602)" d="M376.603 780.263 L364.054 778.275 L352.734 772.507 L343.75 763.524 L337.982 752.203 L335.995 739.655 L337.982 727.106 L343.75 715.786 L352.734 706.802 L364.054 701.034 L376.603 699.047 L389.151 701.034 L400.472 706.802 L409.455 715.786 L415.223 727.106 L417.211 739.655 L415.223 752.203 L409.455 763.524 L400.472 772.507 L389.151 778.275 L376.603 780.263  Z" fill="#000000" fill-rule="evenodd" fill-opacity="0"/>
<polyline clip-path="url(#clip602)" style="stroke:#000000; stroke-linecap:round; stroke-linejoin:round; stroke-width:4; stroke-opacity:1; fill:none" points="376.603,780.263 364.054,778.275 352.734,772.507 343.75,763.524 337.982,752.203 335.995,739.655 337.982,727.106 343.75,715.786 352.734,706.802 364.054,701.034 376.603,699.047 389.151,701.034 400.472,706.802 409.455,715.786 415.223,727.106 417.211,739.655 415.223,752.203 409.455,763.524 400.472,772.507 389.151,778.275 376.603,780.263 "/>
<path clip-path="url(#clip602)" d="M376.603 657.749 L364.054 655.761 L352.734 649.993 L343.75 641.009 L337.982 629.689 L335.995 617.141 L337.982 604.592 L343.75 593.272 L352.734 584.288 L364.054 578.52 L376.603 576.533 L389.151 578.52 L400.472 584.288 L409.455 593.272 L415.223 604.592 L417.211 617.141 L415.223 629.689 L409.455 641.009 L400.472 649.993 L389.151 655.761 L376.603 657.749  Z" fill="#000000" fill-rule="evenodd" fill-opacity="0"/>
<polyline clip-path="url(#clip602)" style="stroke:#000000; stroke-linecap:round; stroke-linejoin:round; stroke-width:4; stroke-opacity:1; fill:none" points="376.603,657.749 364.054,655.761 352.734,649.993 343.75,641.009 337.982,629.689 335.995,617.141 337.982,604.592 343.75,593.272 352.734,584.288 364.054,578.52 376.603,576.533 389.151,578.52 400.472,584.288 409.455,593.272 415.223,604.592 417.211,617.141 415.223,629.689 409.455,641.009 400.472,649.993 389.151,655.761 376.603,657.749 "/>
<path clip-path="url(#clip602)" d="M2023.4 1162.69 L2014.5 1161.29 L2006.47 1157.19 L2000.1 1150.82 L1996.01 1142.79 L1994.6 1133.89 L1996.01 1125 L2000.1 1116.97 L2006.47 1110.6 L2014.5 1106.5 L2023.4 1105.09 L2032.3 1106.5 L2040.33 1110.6 L2046.7 1116.97 L2050.79 1125 L2052.2 1133.89 L2050.79 1142.79 L2046.7 1150.82 L2040.33 1157.19 L2032.3 1161.29 L2023.4 1162.69 L2023.4 1174.21 L2010.94 1172.24 L1999.7 1166.51 L1990.78 1157.59 L1985.05 1146.35 L1983.08 1133.89 L1985.05 1121.44 L1990.78 1110.2 L1999.7 1101.28 L2010.94 1095.55 L2023.4 1093.57 L2035.86 1095.55 L2047.1 1101.28 L2056.02 1110.2 L2061.74 1121.44 L2063.72 1133.89 L2061.74 1146.35 L2056.02 1157.59 L2047.1 1166.51 L2035.86 1172.24 L2023.4 1174.21  Z" fill="#000000" fill-rule="evenodd" fill-opacity="0"/>
<polyline clip-path="url(#clip602)" style="stroke:#000000; stroke-linecap:round; stroke-linejoin:round; stroke-width:4; stroke-opacity:1; fill:none" points="2023.4,1162.69 2014.5,1161.29 2006.47,1157.19 2000.1,1150.82 1996.01,1142.79 1994.6,1133.89 1996.01,1125 2000.1,1116.97 2006.47,1110.6 2014.5,1106.5 2023.4,1105.09 2032.3,1106.5 2040.33,1110.6 2046.7,1116.97 2050.79,1125 2052.2,1133.89 2050.79,1142.79 2046.7,1150.82 2040.33,1157.19 2032.3,1161.29 2023.4,1162.69 2023.4,1174.21 2010.94,1172.24 1999.7,1166.51 1990.78,1157.59 1985.05,1146.35 1983.08,1133.89 1985.05,1121.44 1990.78,1110.2 1999.7,1101.28 2010.94,1095.55 2023.4,1093.57 2035.86,1095.55 2047.1,1101.28 2056.02,1110.2 2061.74,1121.44 2063.72,1133.89 2061.74,1146.35 2056.02,1157.59 2047.1,1166.51 2035.86,1172.24 2023.4,1174.21 "/>
<path clip-path="url(#clip602)" d="M2023.4 1040.18 L2014.5 1038.77 L2006.47 1034.68 L2000.1 1028.31 L1996.01 1020.28 L1994.6 1011.38 L1996.01 1002.48 L2000.1 994.452 L2006.47 988.081 L2014.5 983.99 L2023.4 982.581 L2032.3 983.99 L2040.33 988.081 L2046.7 994.452 L2050.79 1002.48 L2052.2 1011.38 L2050.79 1020.28 L2046.7 1028.31 L2040.33 1034.68 L2032.3 1038.77 L2023.4 1040.18 L2023.4 1051.7 L2010.94 1049.73 L1999.7 1044 L1990.78 1035.08 L1985.05 1023.84 L1983.08 1011.38 L1985.05 998.921 L1990.78 987.681 L1999.7 978.761 L2010.94 973.034 L2023.4 971.061 L2035.86 973.034 L2047.1 978.761 L2056.02 987.681 L2061.74 998.921 L2063.72 1011.38 L2061.74 1023.84 L2056.02 1035.08 L2047.1 1044 L2035.86 1049.73 L2023.4 1051.7  Z" fill="#000000" fill-rule="evenodd" fill-opacity="0"/>
<polyline clip-path="url(#clip602)" style="stroke:#000000; stroke-linecap:round; stroke-linejoin:round; stroke-width:4; stroke-opacity:1; fill:none" points="2023.4,1040.18 2014.5,1038.77 2006.47,1034.68 2000.1,1028.31 1996.01,1020.28 1994.6,1011.38 1996.01,1002.48 2000.1,994.452 2006.47,988.081 2014.5,983.99 2023.4,982.581 2032.3,983.99 2040.33,988.081 2046.7,994.452 2050.79,1002.48 2052.2,1011.38 2050.79,1020.28 2046.7,1028.31 2040.33,1034.68 2032.3,1038.77 2023.4,1040.18 2023.4,1051.7 2010.94,1049.73 1999.7,1044 1990.78,1035.08 1985.05,1023.84 1983.08,1011.38 1985.05,998.921 1990.78,987.681 1999.7,978.761 2010.94,973.034 2023.4,971.061 2035.86,973.034 2047.1,978.761 2056.02,987.681 2061.74,998.921 2063.72,1011.38 2061.74,1023.84 2056.02,1035.08 2047.1,1044 2035.86,1049.73 2023.4,1051.7 "/>
<path clip-path="url(#clip602)" d="M2023.4 917.666 L2014.5 916.257 L2006.47 912.166 L2000.1 905.794 L1996.01 897.766 L1994.6 888.866 L1996.01 879.967 L2000.1 871.938 L2006.47 865.567 L2014.5 861.476 L2023.4 860.066 L2032.3 861.476 L2040.33 865.567 L2046.7 871.938 L2050.79 879.967 L2052.2 888.866 L2050.79 897.766 L2046.7 905.794 L2040.33 912.166 L2032.3 916.257 L2023.4 917.666 L2023.4 929.186 L2010.94 927.213 L1999.7 921.486 L1990.78 912.566 L1985.05 901.326 L1983.08 888.866 L1985.05 876.407 L1990.78 865.167 L1999.7 856.247 L2010.94 850.52 L2023.4 848.546 L2035.86 850.52 L2047.1 856.247 L2056.02 865.167 L2061.74 876.407 L2063.72 888.866 L2061.74 901.326 L2056.02 912.566 L2047.1 921.486 L2035.86 927.213 L2023.4 929.186  Z" fill="#000000" fill-rule="evenodd" fill-opacity="0"/>
<polyline clip-path="url(#clip602)" style="stroke:#000000; stroke-linecap:round; stroke-linejoin:round; stroke-width:4; stroke-opacity:1; fill:none" points="2023.4,917.666 2014.5,916.257 2006.47,912.166 2000.1,905.794 1996.01,897.766 1994.6,888.866 1996.01,879.967 2000.1,871.938 2006.47,865.567 2014.5,861.476 2023.4,860.066 2032.3,861.476 2040.33,865.567 2046.7,871.938 2050.79,879.967 2052.2,888.866 2050.79,897.766 2046.7,905.794 2040.33,912.166 2032.3,916.257 2023.4,917.666 2023.4,929.186 2010.94,927.213 1999.7,921.486 1990.78,912.566 1985.05,901.326 1983.08,888.866 1985.05,876.407 1990.78,865.167 1999.7,856.247 2010.94,850.52 2023.4,848.546 2035.86,850.52 2047.1,856.247 2056.02,865.167 2061.74,876.407 2063.72,888.866 2061.74,901.326 2056.02,912.566 2047.1,921.486 2035.86,927.213 2023.4,929.186 "/>
<path clip-path="url(#clip602)" d="M2023.4 795.152 L2014.5 793.742 L2006.47 789.652 L2000.1 783.28 L1996.01 775.252 L1994.6 766.352 L1996.01 757.452 L2000.1 749.424 L2006.47 743.052 L2014.5 738.962 L2023.4 737.552 L2032.3 738.962 L2040.33 743.052 L2046.7 749.424 L2050.79 757.452 L2052.2 766.352 L2050.79 775.252 L2046.7 783.28 L2040.33 789.652 L2032.3 793.742 L2023.4 795.152 L2023.4 806.672 L2010.94 804.699 L1999.7 798.972 L1990.78 790.051 L1985.05 778.812 L1983.08 766.352 L1985.05 753.892 L1990.78 742.652 L1999.7 733.732 L2010.94 728.005 L2023.4 726.032 L2035.86 728.005 L2047.1 733.732 L2056.02 742.652 L2061.74 753.892 L2063.72 766.352 L2061.74 778.812 L2056.02 790.051 L2047.1 798.972 L2035.86 804.699 L2023.4 806.672  Z" fill="#000000" fill-rule="evenodd" fill-opacity="0"/>
<polyline clip-path="url(#clip602)" style="stroke:#000000; stroke-linecap:round; stroke-linejoin:round; stroke-width:4; stroke-opacity:1; fill:none" points="2023.4,795.152 2014.5,793.742 2006.47,789.652 2000.1,783.28 1996.01,775.252 1994.6,766.352 1996.01,757.452 2000.1,749.424 2006.47,743.052 2014.5,738.962 2023.4,737.552 2032.3,738.962 2040.33,743.052 2046.7,749.424 2050.79,757.452 2052.2,766.352 2050.79,775.252 2046.7,783.28 2040.33,789.652 2032.3,793.742 2023.4,795.152 2023.4,806.672 2010.94,804.699 1999.7,798.972 1990.78,790.051 1985.05,778.812 1983.08,766.352 1985.05,753.892 1990.78,742.652 1999.7,733.732 2010.94,728.005 2023.4,726.032 2035.86,728.005 2047.1,733.732 2056.02,742.652 2061.74,753.892 2063.72,766.352 2061.74,778.812 2056.02,790.051 2047.1,798.972 2035.86,804.699 2023.4,806.672 "/>
<path clip-path="url(#clip602)" d="M2023.4 672.638 L2014.5 671.228 L2006.47 667.137 L2000.1 660.766 L1996.01 652.737 L1994.6 643.838 L1996.01 634.938 L2000.1 626.91 L2006.47 620.538 L2014.5 616.447 L2023.4 615.038 L2032.3 616.447 L2040.33 620.538 L2046.7 626.91 L2050.79 634.938 L2052.2 643.838 L2050.79 652.737 L2046.7 660.766 L2040.33 667.137 L2032.3 671.228 L2023.4 672.638 L2023.4 684.158 L2010.94 682.184 L1999.7 676.457 L1990.78 667.537 L1985.05 656.297 L1983.08 643.838 L1985.05 631.378 L1990.78 620.138 L1999.7 611.218 L2010.94 605.491 L2023.4 603.518 L2035.86 605.491 L2047.1 611.218 L2056.02 620.138 L2061.74 631.378 L2063.72 643.838 L2061.74 656.297 L2056.02 667.537 L2047.1 676.457 L2035.86 682.184 L2023.4 684.158  Z" fill="#000000" fill-rule="evenodd" fill-opacity="0"/>
<polyline clip-path="url(#clip602)" style="stroke:#000000; stroke-linecap:round; stroke-linejoin:round; stroke-width:4; stroke-opacity:1; fill:none" points="2023.4,672.638 2014.5,671.228 2006.47,667.137 2000.1,660.766 1996.01,652.737 1994.6,643.838 1996.01,634.938 2000.1,626.91 2006.47,620.538 2014.5,616.447 2023.4,615.038 2032.3,616.447 2040.33,620.538 2046.7,626.91 2050.79,634.938 2052.2,643.838 2050.79,652.737 2046.7,660.766 2040.33,667.137 2032.3,671.228 2023.4,672.638 2023.4,684.158 2010.94,682.184 1999.7,676.457 1990.78,667.537 1985.05,656.297 1983.08,643.838 1985.05,631.378 1990.78,620.138 1999.7,611.218 2010.94,605.491 2023.4,603.518 2035.86,605.491 2047.1,611.218 2056.02,620.138 2061.74,631.378 2063.72,643.838 2061.74,656.297 2056.02,667.537 2047.1,676.457 2035.86,682.184 2023.4,684.158 "/>
<path clip-path="url(#clip602)" d="M2023.4 550.123 L2014.5 548.714 L2006.47 544.623 L2000.1 538.252 L1996.01 530.223 L1994.6 521.323 L1996.01 512.424 L2000.1 504.395 L2006.47 498.024 L2014.5 493.933 L2023.4 492.523 L2032.3 493.933 L2040.33 498.024 L2046.7 504.395 L2050.79 512.424 L2052.2 521.323 L2050.79 530.223 L2046.7 538.252 L2040.33 544.623 L2032.3 548.714 L2023.4 550.123 L2023.4 561.643 L2010.94 559.67 L1999.7 553.943 L1990.78 545.023 L1985.05 533.783 L1983.08 521.323 L1985.05 508.864 L1990.78 497.624 L1999.7 488.704 L2010.94 482.977 L2023.4 481.003 L2035.86 482.977 L2047.1 488.704 L2056.02 497.624 L2061.74 508.864 L2063.72 521.323 L2061.74 533.783 L2056.02 545.023 L2047.1 553.943 L2035.86 559.67 L2023.4 561.643  Z" fill="#000000" fill-rule="evenodd" fill-opacity="0"/>
<polyline clip-path="url(#clip602)" style="stroke:#000000; stroke-linecap:round; stroke-linejoin:round; stroke-width:4; stroke-opacity:1; fill:none" points="2023.4,550.123 2014.5,548.714 2006.47,544.623 2000.1,538.252 1996.01,530.223 1994.6,521.323 1996.01,512.424 2000.1,504.395 2006.47,498.024 2014.5,493.933 2023.4,492.523 2032.3,493.933 2040.33,498.024 2046.7,504.395 2050.79,512.424 2052.2,521.323 2050.79,530.223 2046.7,538.252 2040.33,544.623 2032.3,548.714 2023.4,550.123 2023.4,561.643 2010.94,559.67 1999.7,553.943 1990.78,545.023 1985.05,533.783 1983.08,521.323 1985.05,508.864 1990.78,497.624 1999.7,488.704 2010.94,482.977 2023.4,481.003 2035.86,482.977 2047.1,488.704 2056.02,497.624 2061.74,508.864 2063.72,521.323 2061.74,533.783 2056.02,545.023 2047.1,553.943 2035.86,559.67 2023.4,561.643 "/>
<path clip-path="url(#clip602)" d="M2023.4 427.609 L2014.5 426.2 L2006.47 422.109 L2000.1 415.737 L1996.01 407.709 L1994.6 398.809 L1996.01 389.91 L2000.1 381.881 L2006.47 375.51 L2014.5 371.419 L2023.4 370.009 L2032.3 371.419 L2040.33 375.51 L2046.7 381.881 L2050.79 389.91 L2052.2 398.809 L2050.79 407.709 L2046.7 415.737 L2040.33 422.109 L2032.3 426.2 L2023.4 427.609 L2023.4 439.129 L2010.94 437.156 L1999.7 431.429 L1990.78 422.509 L1985.05 411.269 L1983.08 398.809 L1985.05 386.35 L1990.78 375.11 L1999.7 366.19 L2010.94 360.463 L2023.4 358.489 L2035.86 360.463 L2047.1 366.19 L2056.02 375.11 L2061.74 386.35 L2063.72 398.809 L2061.74 411.269 L2056.02 422.509 L2047.1 431.429 L2035.86 437.156 L2023.4 439.129  Z" fill="#000000" fill-rule="evenodd" fill-opacity="0"/>
<polyline clip-path="url(#clip602)" style="stroke:#000000; stroke-linecap:round; stroke-linejoin:round; stroke-width:4; stroke-opacity:1; fill:none" points="2023.4,427.609 2014.5,426.2 2006.47,422.109 2000.1,415.737 1996.01,407.709 1994.6,398.809 1996.01,389.91 2000.1,381.881 2006.47,375.51 2014.5,371.419 2023.4,370.009 2032.3,371.419 2040.33,375.51 2046.7,381.881 2050.79,389.91 2052.2,398.809 2050.79,407.709 2046.7,415.737 2040.33,422.109 2032.3,426.2 2023.4,427.609 2023.4,439.129 2010.94,437.156 1999.7,431.429 1990.78,422.509 1985.05,411.269 1983.08,398.809 1985.05,386.35 1990.78,375.11 1999.7,366.19 2010.94,360.463 2023.4,358.489 2035.86,360.463 2047.1,366.19 2056.02,375.11 2061.74,386.35 2063.72,398.809 2061.74,411.269 2056.02,422.509 2047.1,431.429 2035.86,437.156 2023.4,439.129 "/>
<path clip-path="url(#clip602)" d="M415.003 984.683 L357.403 951.083 L357.403 1018.28 L415.003 984.683 Z" fill="#ffff00" fill-rule="evenodd" fill-opacity="1" stroke="#000000" stroke-opacity="1" stroke-width="3.2"/>
<path clip-path="url(#clip602)" d="M415.003 862.169 L357.403 828.569 L357.403 895.769 L415.003 862.169 Z" fill="#ffff00" fill-rule="evenodd" fill-opacity="1" stroke="#000000" stroke-opacity="1" stroke-width="3.2"/>
<path clip-path="url(#clip602)" d="M415.003 739.655 L357.403 706.055 L357.403 773.255 L415.003 739.655 Z" fill="#ffff00" fill-rule="evenodd" fill-opacity="1" stroke="#000000" stroke-opacity="1" stroke-width="3.2"/>
<path clip-path="url(#clip602)" d="M415.003 617.141 L357.403 583.541 L357.403 650.741 L415.003 617.141 Z" fill="#ffff00" fill-rule="evenodd" fill-opacity="1" stroke="#000000" stroke-opacity="1" stroke-width="3.2"/>
<circle clip-path="url(#clip602)" cx="2023.4" cy="1168.45" r="43.2" fill="#7ec0ee" fill-rule="evenodd" fill-opacity="1" stroke="#000000" stroke-opacity="1" stroke-width="3.2"/>
<circle clip-path="url(#clip602)" cx="2023.4" cy="1045.94" r="43.2" fill="#7ec0ee" fill-rule="evenodd" fill-opacity="1" stroke="#000000" stroke-opacity="1" stroke-width="3.2"/>
<circle clip-path="url(#clip602)" cx="2023.4" cy="923.426" r="43.2" fill="#7ec0ee" fill-rule="evenodd" fill-opacity="1" stroke="#000000" stroke-opacity="1" stroke-width="3.2"/>
<circle clip-path="url(#clip602)" cx="2023.4" cy="800.912" r="43.2" fill="#7ec0ee" fill-rule="evenodd" fill-opacity="1" stroke="#000000" stroke-opacity="1" stroke-width="3.2"/>
<circle clip-path="url(#clip602)" cx="2023.4" cy="678.398" r="43.2" fill="#7ec0ee" fill-rule="evenodd" fill-opacity="1" stroke="#000000" stroke-opacity="1" stroke-width="3.2"/>
<circle clip-path="url(#clip602)" cx="2023.4" cy="555.883" r="43.2" fill="#7ec0ee" fill-rule="evenodd" fill-opacity="1" stroke="#000000" stroke-opacity="1" stroke-width="3.2"/>
<circle clip-path="url(#clip602)" cx="2023.4" cy="433.369" r="43.2" fill="#7ec0ee" fill-rule="evenodd" fill-opacity="1" stroke="#000000" stroke-opacity="1" stroke-width="3.2"/>
<path clip-path="url(#clip602)" d="M2061.8 1168.45 L2004.2 1134.85 L2004.2 1202.05 L2061.8 1168.45 Z" fill="#ffa500" fill-rule="evenodd" fill-opacity="1" stroke="#000000" stroke-opacity="1" stroke-width="3.2"/>
<path clip-path="url(#clip602)" d="M2061.8 1045.94 L2004.2 1012.34 L2004.2 1079.54 L2061.8 1045.94 Z" fill="#ffa500" fill-rule="evenodd" fill-opacity="1" stroke="#000000" stroke-opacity="1" stroke-width="3.2"/>
<path clip-path="url(#clip602)" d="M2061.8 923.426 L2004.2 889.826 L2004.2 957.026 L2061.8 923.426 Z" fill="#ffa500" fill-rule="evenodd" fill-opacity="1" stroke="#000000" stroke-opacity="1" stroke-width="3.2"/>
<path clip-path="url(#clip602)" d="M2061.8 800.912 L2004.2 767.312 L2004.2 834.512 L2061.8 800.912 Z" fill="#ffa500" fill-rule="evenodd" fill-opacity="1" stroke="#000000" stroke-opacity="1" stroke-width="3.2"/>
<path clip-path="url(#clip602)" d="M2061.8 678.398 L2004.2 644.798 L2004.2 711.998 L2061.8 678.398 Z" fill="#ffa500" fill-rule="evenodd" fill-opacity="1" stroke="#000000" stroke-opacity="1" stroke-width="3.2"/>
<path clip-path="url(#clip602)" d="M2061.8 555.883 L2004.2 522.283 L2004.2 589.483 L2061.8 555.883 Z" fill="#ffa500" fill-rule="evenodd" fill-opacity="1" stroke="#000000" stroke-opacity="1" stroke-width="3.2"/>
<path clip-path="url(#clip602)" d="M2061.8 433.369 L2004.2 399.769 L2004.2 466.969 L2061.8 433.369 Z" fill="#ffa500" fill-rule="evenodd" fill-opacity="1" stroke="#000000" stroke-opacity="1" stroke-width="3.2"/>
<g clip-path="url(#clip600)">
<text style="fill:#000000; fill-opacity:1; font-family:Century Gothic,CenturyGothic,AppleGothic,sans-serif; font-size:47px; text-anchor:middle;" transform="rotate(-20, 382.588, 511.071)" x="382.588" y="511.071">input</text>
</g>
<g clip-path="url(#clip600)">
<text style="fill:#000000; fill-opacity:1; font-family:Century Gothic,CenturyGothic,AppleGothic,sans-serif; font-size:47px; text-anchor:middle;" transform="rotate(-20, 2029.38, 327.3)" x="2029.38" y="327.3">Recur(LSTMCell(4 =&gt; 7))</text>
</g>
</svg>
