<?xml version="1.0" encoding="utf-8"?>
<svg xmlns="http://www.w3.org/2000/svg" xmlns:xlink="http://www.w3.org/1999/xlink" width="600" height="400" viewBox="0 0 2400 1600">
<defs>
  <clipPath id="clip540">
    <rect x="0" y="0" width="2400" height="1600"/>
  </clipPath>
</defs>
<path clip-path="url(#clip540)" d="M0 1600 L2400 1600 L2400 0 L0 0  Z" fill="#ffffff" fill-rule="evenodd" fill-opacity="1"/>
<defs>
  <clipPath id="clip541">
    <rect x="480" y="0" width="1681" height="1600"/>
  </clipPath>
</defs>
<path clip-path="url(#clip540)" d="M47.2441 1388.98 L2352.76 1388.98 L2352.76 114.832 L47.2441 114.832  Z" fill="#ffffff" fill-rule="evenodd" fill-opacity="1"/>
<defs>
  <clipPath id="clip542">
    <rect x="47" y="114" width="2307" height="1275"/>
  </clipPath>
</defs>
<polyline clip-path="url(#clip542)" style="stroke:#000000; stroke-linecap:round; stroke-linejoin:round; stroke-width:2; stroke-opacity:0.1; fill:none" points="376.603,1388.98 376.603,114.832 "/>
<polyline clip-path="url(#clip542)" style="stroke:#000000; stroke-linecap:round; stroke-linejoin:round; stroke-width:2; stroke-opacity:0.1; fill:none" points="2023.4,1388.98 2023.4,114.832 "/>
<path clip-path="url(#clip540)" d="M698.77 37.9026 Q701.027 38.6665 703.145 41.1664 Q705.298 43.6664 707.451 48.0414 L714.569 62.208 L707.034 62.208 L700.402 48.9095 Q697.833 43.7012 695.402 41.9998 Q693.006 40.2984 688.84 40.2984 L681.201 40.2984 L681.201 62.208 L674.187 62.208 L674.187 10.368 L690.02 10.368 Q698.909 10.368 703.284 14.0833 Q707.659 17.7985 707.659 25.2985 Q707.659 30.1943 705.367 33.4234 Q703.11 36.6526 698.77 37.9026 M681.201 16.1319 L681.201 34.5345 L690.02 34.5345 Q695.09 34.5345 697.659 32.2082 Q700.263 29.8471 700.263 25.2985 Q700.263 20.7499 697.659 18.4582 Q695.09 16.1319 690.02 16.1319 L681.201 16.1319 Z" fill="#000000" fill-rule="nonzero" fill-opacity="1" /><path clip-path="url(#clip540)" d="M753.388 41.1664 L753.388 44.2914 L724.013 44.2914 Q724.43 50.8886 727.971 54.3608 Q731.548 57.7983 737.902 57.7983 Q741.582 57.7983 745.02 56.8955 Q748.492 55.9928 751.895 54.1872 L751.895 60.2288 Q748.457 61.6872 744.846 62.4511 Q741.235 63.2149 737.52 63.2149 Q728.214 63.2149 722.763 57.7983 Q717.346 52.3817 717.346 43.1456 Q717.346 33.597 722.485 28.0068 Q727.659 22.3818 736.409 22.3818 Q744.256 22.3818 748.805 27.4512 Q753.388 32.4859 753.388 41.1664 M746.999 39.2915 Q746.93 34.0484 744.048 30.9234 Q741.2 27.7985 736.478 27.7985 Q731.131 27.7985 727.902 30.8193 Q724.707 33.8401 724.221 39.3262 L746.999 39.2915 Z" fill="#000000" fill-rule="nonzero" fill-opacity="1" /><path clip-path="url(#clip540)" d="M791.86 24.8124 L791.86 30.7846 Q789.152 29.2915 786.408 28.5623 Q783.7 27.7985 780.922 27.7985 Q774.707 27.7985 771.27 31.7568 Q767.832 35.6804 767.832 42.7984 Q767.832 49.9164 771.27 53.8747 Q774.707 57.7983 780.922 57.7983 Q783.7 57.7983 786.408 57.0691 Q789.152 56.3053 791.86 54.8122 L791.86 60.715 Q789.186 61.9649 786.304 62.5899 Q783.457 63.2149 780.228 63.2149 Q771.443 63.2149 766.27 57.6941 Q761.096 52.1733 761.096 42.7984 Q761.096 33.2845 766.304 27.8332 Q771.547 22.3818 780.645 22.3818 Q783.596 22.3818 786.408 23.0068 Q789.221 23.5971 791.86 24.8124 Z" fill="#000000" fill-rule="nonzero" fill-opacity="1" /><path clip-path="url(#clip540)" d="M802.311 46.8609 L802.311 23.3193 L808.7 23.3193 L808.7 46.6178 Q808.7 52.1386 810.853 54.9164 Q813.006 57.6594 817.311 57.6594 Q822.485 57.6594 825.471 54.3608 Q828.492 51.0622 828.492 45.3678 L828.492 23.3193 L834.88 23.3193 L834.88 62.208 L828.492 62.208 L828.492 56.2358 Q826.165 59.7775 823.075 61.5136 Q820.019 63.2149 815.957 63.2149 Q809.256 63.2149 805.783 59.0483 Q802.311 54.8817 802.311 46.8609 M818.387 22.3818 L818.387 22.3818 Z" fill="#000000" fill-rule="nonzero" fill-opacity="1" /><path clip-path="url(#clip540)" d="M870.575 29.2915 Q869.498 28.6665 868.214 28.3887 Q866.964 28.0762 865.436 28.0762 Q860.019 28.0762 857.103 31.6179 Q854.221 35.1248 854.221 41.722 L854.221 62.208 L847.797 62.208 L847.797 23.3193 L854.221 23.3193 L854.221 29.361 Q856.234 25.8193 859.464 24.1179 Q862.693 22.3818 867.311 22.3818 Q867.971 22.3818 868.769 22.486 Q869.568 22.5554 870.54 22.729 L870.575 29.2915 Z" fill="#000000" fill-rule="nonzero" fill-opacity="1" /><path clip-path="url(#clip540)" d="M892.623 8.24996 Q887.97 16.236 885.713 24.0485 Q883.457 31.8609 883.457 39.8817 Q883.457 47.9025 885.713 55.7844 Q888.005 63.6316 892.623 71.5829 L887.068 71.5829 Q881.859 63.4233 879.255 55.5414 Q876.686 47.6595 876.686 39.8817 Q876.686 32.1387 879.255 24.2915 Q881.825 16.4444 887.068 8.24996 L892.623 8.24996 Z" fill="#000000" fill-rule="nonzero" fill-opacity="1" /><path clip-path="url(#clip540)" d="M929.88 37.9026 Q932.137 38.6665 934.255 41.1664 Q936.408 43.6664 938.56 48.0414 L945.678 62.208 L938.144 62.208 L931.512 48.9095 Q928.942 43.7012 926.512 41.9998 Q924.116 40.2984 919.949 40.2984 L912.311 40.2984 L912.311 62.208 L905.297 62.208 L905.297 10.368 L921.13 10.368 Q930.019 10.368 934.394 14.0833 Q938.769 17.7985 938.769 25.2985 Q938.769 30.1943 936.477 33.4234 Q934.22 36.6526 929.88 37.9026 M912.311 16.1319 L912.311 34.5345 L921.13 34.5345 Q926.199 34.5345 928.769 32.2082 Q931.373 29.8471 931.373 25.2985 Q931.373 20.7499 928.769 18.4582 Q926.199 16.1319 921.13 16.1319 L912.311 16.1319 Z" fill="#000000" fill-rule="nonzero" fill-opacity="1" /><path clip-path="url(#clip540)" d="M954.706 10.368 L964.151 10.368 L987.137 53.7358 L987.137 10.368 L993.942 10.368 L993.942 62.208 L984.498 62.208 L961.512 18.8402 L961.512 62.208 L954.706 62.208 L954.706 10.368 Z" fill="#000000" fill-rule="nonzero" fill-opacity="1" /><path clip-path="url(#clip540)" d="M1007.9 10.368 L1017.34 10.368 L1040.33 53.7358 L1040.33 10.368 L1047.14 10.368 L1047.14 62.208 L1037.69 62.208 L1014.71 18.8402 L1014.71 62.208 L1007.9 62.208 L1007.9 10.368 Z" fill="#000000" fill-rule="nonzero" fill-opacity="1" /><path clip-path="url(#clip540)" d="M1099.91 14.361 L1099.91 21.7568 Q1096.37 18.4582 1092.34 16.8263 Q1088.35 15.1944 1083.84 15.1944 Q1074.95 15.1944 1070.23 20.6457 Q1065.5 26.0624 1065.5 36.3401 Q1065.5 46.5831 1070.23 52.0344 Q1074.95 57.4511 1083.84 57.4511 Q1088.35 57.4511 1092.34 55.8191 Q1096.37 54.1872 1099.91 50.8886 L1099.91 58.215 Q1096.23 60.715 1092.1 61.9649 Q1088 63.2149 1083.42 63.2149 Q1071.65 63.2149 1064.88 56.0275 Q1058.11 48.8053 1058.11 36.3401 Q1058.11 23.8402 1064.88 16.6527 Q1071.65 9.43051 1083.42 9.43051 Q1088.07 9.43051 1092.17 10.6805 Q1096.3 11.8958 1099.91 14.361 Z" fill="#000000" fill-rule="nonzero" fill-opacity="1" /><path clip-path="url(#clip540)" d="M1143.73 41.1664 L1143.73 44.2914 L1114.36 44.2914 Q1114.77 50.8886 1118.32 54.3608 Q1121.89 57.7983 1128.25 57.7983 Q1131.93 57.7983 1135.36 56.8955 Q1138.84 55.9928 1142.24 54.1872 L1142.24 60.2288 Q1138.8 61.6872 1135.19 62.4511 Q1131.58 63.2149 1127.86 63.2149 Q1118.56 63.2149 1113.11 57.7983 Q1107.69 52.3817 1107.69 43.1456 Q1107.69 33.597 1112.83 28.0068 Q1118 22.3818 1126.75 22.3818 Q1134.6 22.3818 1139.15 27.4512 Q1143.73 32.4859 1143.73 41.1664 M1137.34 39.2915 Q1137.27 34.0484 1134.39 30.9234 Q1131.55 27.7985 1126.82 27.7985 Q1121.48 27.7985 1118.25 30.8193 Q1115.05 33.8401 1114.57 39.3262 L1137.34 39.2915 Z" fill="#000000" fill-rule="nonzero" fill-opacity="1" /><path clip-path="url(#clip540)" d="M1154.22 8.18051 L1160.61 8.18051 L1160.61 62.208 L1154.22 62.208 L1154.22 8.18051 Z" fill="#000000" fill-rule="nonzero" fill-opacity="1" /><path clip-path="url(#clip540)" d="M1173.98 8.18051 L1180.36 8.18051 L1180.36 62.208 L1173.98 62.208 L1173.98 8.18051 Z" fill="#000000" fill-rule="nonzero" fill-opacity="1" /><path clip-path="url(#clip540)" d="M1209.08 8.24996 Q1204.43 16.236 1202.17 24.0485 Q1199.91 31.8609 1199.91 39.8817 Q1199.91 47.9025 1202.17 55.7844 Q1204.46 63.6316 1209.08 71.5829 L1203.52 71.5829 Q1198.32 63.4233 1195.71 55.5414 Q1193.14 47.6595 1193.14 39.8817 Q1193.14 32.1387 1195.71 24.2915 Q1198.28 16.4444 1203.52 8.24996 L1209.08 8.24996 Z" fill="#000000" fill-rule="nonzero" fill-opacity="1" /><path clip-path="url(#clip540)" d="M1243.63 34.2568 Q1248.66 35.3331 1251.48 38.7359 Q1254.32 42.1387 1254.32 47.1386 Q1254.32 54.8122 1249.04 59.0136 Q1243.77 63.2149 1234.04 63.2149 Q1230.78 63.2149 1227.31 62.5552 Q1223.87 61.9302 1220.19 60.6455 L1220.19 53.8747 Q1223.11 55.5761 1226.58 56.4441 Q1230.05 57.3122 1233.84 57.3122 Q1240.43 57.3122 1243.87 54.708 Q1247.34 52.1039 1247.34 47.1386 Q1247.34 42.5553 1244.11 39.9859 Q1240.92 37.3817 1235.19 37.3817 L1229.15 37.3817 L1229.15 31.6179 L1235.47 31.6179 Q1240.64 31.6179 1243.39 29.5693 Q1246.13 27.486 1246.13 23.5971 Q1246.13 19.6041 1243.28 17.486 Q1240.47 15.3333 1235.19 15.3333 Q1232.31 15.3333 1229.01 15.9582 Q1225.71 16.5832 1221.75 17.9027 L1221.75 11.6527 Q1225.75 10.5416 1229.22 9.98606 Q1232.73 9.43051 1235.82 9.43051 Q1243.8 9.43051 1248.45 13.0763 Q1253.11 16.6874 1253.11 22.8679 Q1253.11 27.1735 1250.64 30.1596 Q1248.18 33.1109 1243.63 34.2568 Z" fill="#000000" fill-rule="nonzero" fill-opacity="1" /><path clip-path="url(#clip540)" d="M1290.16 29.9165 L1334.67 29.9165 L1334.67 35.7498 L1290.16 35.7498 L1290.16 29.9165 M1290.16 44.0831 L1334.67 44.0831 L1334.67 49.9858 L1290.16 49.9858 L1290.16 44.0831 Z" fill="#000000" fill-rule="nonzero" fill-opacity="1" /><path clip-path="url(#clip540)" d="M1349.74 27.2082 L1349.74 20.8888 L1394.25 37.0345 L1394.25 42.7984 L1349.74 58.9441 L1349.74 52.6247 L1385.5 39.9512 L1349.74 27.2082 Z" fill="#000000" fill-rule="nonzero" fill-opacity="1" /><path clip-path="url(#clip540)" d="M1432.06 10.368 L1459.6 10.368 L1459.6 16.2707 L1438.49 16.2707 L1438.49 28.979 Q1440.02 28.4582 1441.54 28.2151 Q1443.07 27.9374 1444.6 27.9374 Q1453.28 27.9374 1458.35 32.6943 Q1463.42 37.4512 1463.42 45.5761 Q1463.42 53.9442 1458.21 58.5969 Q1453 63.2149 1443.52 63.2149 Q1440.26 63.2149 1436.86 62.6594 Q1433.49 62.1038 1429.88 60.9927 L1429.88 53.9442 Q1433 55.6455 1436.34 56.4789 Q1439.67 57.3122 1443.38 57.3122 Q1449.39 57.3122 1452.9 54.1525 Q1456.4 50.9928 1456.4 45.5761 Q1456.4 40.1595 1452.9 36.9998 Q1449.39 33.8401 1443.38 33.8401 Q1440.57 33.8401 1437.76 34.4651 Q1434.98 35.0901 1432.06 36.4095 L1432.06 10.368 Z" fill="#000000" fill-rule="nonzero" fill-opacity="1" /><path clip-path="url(#clip540)" d="M1477.97 53.3886 L1485.29 53.3886 L1485.29 59.3608 L1479.6 70.4718 L1475.12 70.4718 L1477.97 59.3608 L1477.97 53.3886 Z" fill="#000000" fill-rule="nonzero" fill-opacity="1" /><path clip-path="url(#clip540)" d="M1527.86 12.2777 L1527.86 23.3193 L1541.02 23.3193 L1541.02 28.2846 L1527.86 28.2846 L1527.86 49.3956 Q1527.86 54.1525 1529.15 55.5066 Q1530.47 56.8608 1534.46 56.8608 L1541.02 56.8608 L1541.02 62.208 L1534.46 62.208 Q1527.06 62.208 1524.25 59.465 Q1521.44 56.6872 1521.44 49.3956 L1521.44 28.2846 L1516.75 28.2846 L1516.75 23.3193 L1521.44 23.3193 L1521.44 12.2777 L1527.86 12.2777 Z" fill="#000000" fill-rule="nonzero" fill-opacity="1" /><path clip-path="url(#clip540)" d="M1567.1 42.6595 Q1559.36 42.6595 1556.37 44.4303 Q1553.38 46.2011 1553.38 50.472 Q1553.38 53.8747 1555.61 55.8886 Q1557.86 57.8677 1561.72 57.8677 Q1567.03 57.8677 1570.22 54.1178 Q1573.45 50.3331 1573.45 44.0831 L1573.45 42.6595 L1567.1 42.6595 M1579.84 40.0206 L1579.84 62.208 L1573.45 62.208 L1573.45 56.3053 Q1571.27 59.8469 1568 61.5483 Q1564.74 63.2149 1560.02 63.2149 Q1554.04 63.2149 1550.5 59.8816 Q1546.99 56.5136 1546.99 50.8886 Q1546.99 44.3262 1551.37 40.9928 Q1555.78 37.6595 1564.49 37.6595 L1573.45 37.6595 L1573.45 37.0345 Q1573.45 32.6248 1570.54 30.229 Q1567.65 27.7985 1562.41 27.7985 Q1559.08 27.7985 1555.92 28.5971 Q1552.76 29.3957 1549.84 30.9929 L1549.84 25.0901 Q1553.35 23.736 1556.65 23.0763 Q1559.95 22.3818 1563.07 22.3818 Q1571.51 22.3818 1575.68 26.7568 Q1579.84 31.1318 1579.84 40.0206 Z" fill="#000000" fill-rule="nonzero" fill-opacity="1" /><path clip-path="url(#clip540)" d="M1625.33 38.7359 L1625.33 62.208 L1618.94 62.208 L1618.94 38.9442 Q1618.94 33.4234 1616.79 30.6804 Q1614.63 27.9374 1610.33 27.9374 Q1605.15 27.9374 1602.17 31.2359 Q1599.18 34.5345 1599.18 40.229 L1599.18 62.208 L1592.76 62.208 L1592.76 23.3193 L1599.18 23.3193 L1599.18 29.361 Q1601.47 25.854 1604.56 24.1179 Q1607.69 22.3818 1611.75 22.3818 Q1618.45 22.3818 1621.89 26.5485 Q1625.33 30.6804 1625.33 38.7359 Z" fill="#000000" fill-rule="nonzero" fill-opacity="1" /><path clip-path="url(#clip540)" d="M1670.4 38.7359 L1670.4 62.208 L1664.01 62.208 L1664.01 38.9442 Q1664.01 33.4234 1661.86 30.6804 Q1659.7 27.9374 1655.4 27.9374 Q1650.22 27.9374 1647.24 31.2359 Q1644.25 34.5345 1644.25 40.229 L1644.25 62.208 L1637.83 62.208 L1637.83 8.18051 L1644.25 8.18051 L1644.25 29.361 Q1646.54 25.854 1649.63 24.1179 Q1652.76 22.3818 1656.82 22.3818 Q1663.52 22.3818 1666.96 26.5485 Q1670.4 30.6804 1670.4 38.7359 Z" fill="#000000" fill-rule="nonzero" fill-opacity="1" /><path clip-path="url(#clip540)" d="M1682.13 8.24996 L1687.69 8.24996 Q1692.9 16.4444 1695.47 24.2915 Q1698.07 32.1387 1698.07 39.8817 Q1698.07 47.6595 1695.47 55.5414 Q1692.9 63.4233 1687.69 71.5829 L1682.13 71.5829 Q1686.75 63.6316 1689.01 55.7844 Q1691.3 47.9025 1691.3 39.8817 Q1691.3 31.8609 1689.01 24.0485 Q1686.75 16.236 1682.13 8.24996 Z" fill="#000000" fill-rule="nonzero" fill-opacity="1" /><path clip-path="url(#clip540)" d="M1709.88 8.24996 L1715.43 8.24996 Q1720.64 16.4444 1723.21 24.2915 Q1725.81 32.1387 1725.81 39.8817 Q1725.81 47.6595 1723.21 55.5414 Q1720.64 63.4233 1715.43 71.5829 L1709.88 71.5829 Q1714.49 63.6316 1716.75 55.7844 Q1719.04 47.9025 1719.04 39.8817 Q1719.04 31.8609 1716.75 24.0485 Q1714.49 16.236 1709.88 8.24996 Z" fill="#000000" fill-rule="nonzero" fill-opacity="1" /><polyline clip-path="url(#clip542)" style="stroke:#adadad; stroke-linecap:round; stroke-linejoin:round; stroke-width:4; stroke-opacity:1; fill:none" points="376.603,964.264 2023.4,1127.62 "/>
<polyline clip-path="url(#clip542)" style="stroke:#adadad; stroke-linecap:round; stroke-linejoin:round; stroke-width:4; stroke-opacity:1; fill:none" points="376.603,964.264 2023.4,964.264 "/>
<polyline clip-path="url(#clip542)" style="stroke:#adadad; stroke-linecap:round; stroke-linejoin:round; stroke-width:4; stroke-opacity:1; fill:none" points="376.603,964.264 2023.4,800.912 "/>
<polyline clip-path="url(#clip542)" style="stroke:#adadad; stroke-linecap:round; stroke-linejoin:round; stroke-width:4; stroke-opacity:1; fill:none" points="376.603,964.264 2023.4,637.56 "/>
<polyline clip-path="url(#clip542)" style="stroke:#adadad; stroke-linecap:round; stroke-linejoin:round; stroke-width:4; stroke-opacity:1; fill:none" points="376.603,964.264 2023.4,474.207 "/>
<polyline clip-path="url(#clip542)" style="stroke:#adadad; stroke-linecap:round; stroke-linejoin:round; stroke-width:4; stroke-opacity:1; fill:none" points="376.603,800.912 2023.4,1127.62 "/>
<polyline clip-path="url(#clip542)" style="stroke:#adadad; stroke-linecap:round; stroke-linejoin:round; stroke-width:4; stroke-opacity:1; fill:none" points="376.603,800.912 2023.4,964.264 "/>
<polyline clip-path="url(#clip542)" style="stroke:#adadad; stroke-linecap:round; stroke-linejoin:round; stroke-width:4; stroke-opacity:1; fill:none" points="376.603,800.912 2023.4,800.912 "/>
<polyline clip-path="url(#clip542)" style="stroke:#adadad; stroke-linecap:round; stroke-linejoin:round; stroke-width:4; stroke-opacity:1; fill:none" points="376.603,800.912 2023.4,637.56 "/>
<polyline clip-path="url(#clip542)" style="stroke:#adadad; stroke-linecap:round; stroke-linejoin:round; stroke-width:4; stroke-opacity:1; fill:none" points="376.603,800.912 2023.4,474.207 "/>
<polyline clip-path="url(#clip542)" style="stroke:#adadad; stroke-linecap:round; stroke-linejoin:round; stroke-width:4; stroke-opacity:1; fill:none" points="376.603,637.56 2023.4,1127.62 "/>
<polyline clip-path="url(#clip542)" style="stroke:#adadad; stroke-linecap:round; stroke-linejoin:round; stroke-width:4; stroke-opacity:1; fill:none" points="376.603,637.56 2023.4,964.264 "/>
<polyline clip-path="url(#clip542)" style="stroke:#adadad; stroke-linecap:round; stroke-linejoin:round; stroke-width:4; stroke-opacity:1; fill:none" points="376.603,637.56 2023.4,800.912 "/>
<polyline clip-path="url(#clip542)" style="stroke:#adadad; stroke-linecap:round; stroke-linejoin:round; stroke-width:4; stroke-opacity:1; fill:none" points="376.603,637.56 2023.4,637.56 "/>
<polyline clip-path="url(#clip542)" style="stroke:#adadad; stroke-linecap:round; stroke-linejoin:round; stroke-width:4; stroke-opacity:1; fill:none" points="376.603,637.56 2023.4,474.207 "/>
<path clip-path="url(#clip542)" d="M376.603 1004.87 L364.054 1002.88 L352.734 997.117 L343.75 988.133 L337.982 976.813 L335.995 964.264 L337.982 951.716 L343.75 940.396 L352.734 931.412 L364.054 925.644 L376.603 923.656 L389.151 925.644 L400.472 931.412 L409.455 940.396 L415.223 951.716 L417.211 964.264 L415.223 976.813 L409.455 988.133 L400.472 997.117 L389.151 1002.88 L376.603 1004.87  Z" fill="#000000" fill-rule="evenodd" fill-opacity="0"/>
<polyline clip-path="url(#clip542)" style="stroke:#000000; stroke-linecap:round; stroke-linejoin:round; stroke-width:4; stroke-opacity:1; fill:none" points="376.603,1004.87 364.054,1002.88 352.734,997.117 343.75,988.133 337.982,976.813 335.995,964.264 337.982,951.716 343.75,940.396 352.734,931.412 364.054,925.644 376.603,923.656 389.151,925.644 400.472,931.412 409.455,940.396 415.223,951.716 417.211,964.264 415.223,976.813 409.455,988.133 400.472,997.117 389.151,1002.88 376.603,1004.87 "/>
<path clip-path="url(#clip542)" d="M376.603 841.52 L364.054 839.532 L352.734 833.765 L343.75 824.781 L337.982 813.461 L335.995 800.912 L337.982 788.363 L343.75 777.043 L352.734 768.059 L364.054 762.291 L376.603 760.304 L389.151 762.291 L400.472 768.059 L409.455 777.043 L415.223 788.363 L417.211 800.912 L415.223 813.461 L409.455 824.781 L400.472 833.765 L389.151 839.532 L376.603 841.52  Z" fill="#000000" fill-rule="evenodd" fill-opacity="0"/>
<polyline clip-path="url(#clip542)" style="stroke:#000000; stroke-linecap:round; stroke-linejoin:round; stroke-width:4; stroke-opacity:1; fill:none" points="376.603,841.52 364.054,839.532 352.734,833.765 343.75,824.781 337.982,813.461 335.995,800.912 337.982,788.363 343.75,777.043 352.734,768.059 364.054,762.291 376.603,760.304 389.151,762.291 400.472,768.059 409.455,777.043 415.223,788.363 417.211,800.912 415.223,813.461 409.455,824.781 400.472,833.765 389.151,839.532 376.603,841.52 "/>
<path clip-path="url(#clip542)" d="M376.603 678.168 L364.054 676.18 L352.734 670.412 L343.75 661.428 L337.982 650.108 L335.995 637.56 L337.982 625.011 L343.75 613.691 L352.734 604.707 L364.054 598.939 L376.603 596.952 L389.151 598.939 L400.472 604.707 L409.455 613.691 L415.223 625.011 L417.211 637.56 L415.223 650.108 L409.455 661.428 L400.472 670.412 L389.151 676.18 L376.603 678.168  Z" fill="#000000" fill-rule="evenodd" fill-opacity="0"/>
<polyline clip-path="url(#clip542)" style="stroke:#000000; stroke-linecap:round; stroke-linejoin:round; stroke-width:4; stroke-opacity:1; fill:none" points="376.603,678.168 364.054,676.18 352.734,670.412 343.75,661.428 337.982,650.108 335.995,637.56 337.982,625.011 343.75,613.691 352.734,604.707 364.054,598.939 376.603,596.952 389.151,598.939 400.472,604.707 409.455,613.691 415.223,625.011 417.211,637.56 415.223,650.108 409.455,661.428 400.472,670.412 389.151,676.18 376.603,678.168 "/>
<path clip-path="url(#clip542)" d="M2023.4 1127.62 L2012.72 1125.93 L2003.08 1121.02 L1995.44 1113.37 L1990.53 1103.74 L1988.84 1093.06 L1990.53 1082.38 L1995.44 1072.74 L2003.08 1065.1 L2012.72 1060.19 L2023.4 1058.5 L2034.08 1060.19 L2043.71 1065.1 L2051.36 1072.74 L2056.27 1082.38 L2057.96 1093.06 L2056.27 1103.74 L2051.36 1113.37 L2043.71 1121.02 L2034.08 1125.93 L2023.4 1127.62  Z" fill="#000000" fill-rule="evenodd" fill-opacity="0"/>
<polyline clip-path="url(#clip542)" style="stroke:#000000; stroke-linecap:round; stroke-linejoin:round; stroke-width:4; stroke-opacity:1; fill:none" points="2023.4,1127.62 2012.72,1125.93 2003.08,1121.02 1995.44,1113.37 1990.53,1103.74 1988.84,1093.06 1990.53,1082.38 1995.44,1072.74 2003.08,1065.1 2012.72,1060.19 2023.4,1058.5 2034.08,1060.19 2043.71,1065.1 2051.36,1072.74 2056.27,1082.38 2057.96,1093.06 2056.27,1103.74 2051.36,1113.37 2043.71,1121.02 2034.08,1125.93 2023.4,1127.62 "/>
<path clip-path="url(#clip542)" d="M2023.4 964.264 L2012.72 962.573 L2003.08 957.664 L1995.44 950.018 L1990.53 940.384 L1988.84 929.704 L1990.53 919.025 L1995.44 909.39 L2003.08 901.745 L2012.72 896.836 L2023.4 895.144 L2034.08 896.836 L2043.71 901.745 L2051.36 909.39 L2056.27 919.025 L2057.96 929.704 L2056.27 940.384 L2051.36 950.018 L2043.71 957.664 L2034.08 962.573 L2023.4 964.264  Z" fill="#000000" fill-rule="evenodd" fill-opacity="0"/>
<polyline clip-path="url(#clip542)" style="stroke:#000000; stroke-linecap:round; stroke-linejoin:round; stroke-width:4; stroke-opacity:1; fill:none" points="2023.4,964.264 2012.72,962.573 2003.08,957.664 1995.44,950.018 1990.53,940.384 1988.84,929.704 1990.53,919.025 1995.44,909.39 2003.08,901.745 2012.72,896.836 2023.4,895.144 2034.08,896.836 2043.71,901.745 2051.36,909.39 2056.27,919.025 2057.96,929.704 2056.27,940.384 2051.36,950.018 2043.71,957.664 2034.08,962.573 2023.4,964.264 "/>
<path clip-path="url(#clip542)" d="M2023.4 800.912 L2012.72 799.221 L2003.08 794.312 L1995.44 786.666 L1990.53 777.032 L1988.84 766.352 L1990.53 755.672 L1995.44 746.038 L2003.08 738.392 L2012.72 733.483 L2023.4 731.792 L2034.08 733.483 L2043.71 738.392 L2051.36 746.038 L2056.27 755.672 L2057.96 766.352 L2056.27 777.032 L2051.36 786.666 L2043.71 794.312 L2034.08 799.221 L2023.4 800.912  Z" fill="#000000" fill-rule="evenodd" fill-opacity="0"/>
<polyline clip-path="url(#clip542)" style="stroke:#000000; stroke-linecap:round; stroke-linejoin:round; stroke-width:4; stroke-opacity:1; fill:none" points="2023.4,800.912 2012.72,799.221 2003.08,794.312 1995.44,786.666 1990.53,777.032 1988.84,766.352 1990.53,755.672 1995.44,746.038 2003.08,738.392 2012.72,733.483 2023.4,731.792 2034.08,733.483 2043.71,738.392 2051.36,746.038 2056.27,755.672 2057.96,766.352 2056.27,777.032 2051.36,786.666 2043.71,794.312 2034.08,799.221 2023.4,800.912 "/>
<path clip-path="url(#clip542)" d="M2023.4 637.56 L2012.72 635.868 L2003.08 630.959 L1995.44 623.313 L1990.53 613.679 L1988.84 603 L1990.53 592.32 L1995.44 582.686 L2003.08 575.04 L2012.72 570.131 L2023.4 568.44 L2034.08 570.131 L2043.71 575.04 L2051.36 582.686 L2056.27 592.32 L2057.96 603 L2056.27 613.679 L2051.36 623.313 L2043.71 630.959 L2034.08 635.868 L2023.4 637.56  Z" fill="#000000" fill-rule="evenodd" fill-opacity="0"/>
<polyline clip-path="url(#clip542)" style="stroke:#000000; stroke-linecap:round; stroke-linejoin:round; stroke-width:4; stroke-opacity:1; fill:none" points="2023.4,637.56 2012.72,635.868 2003.08,630.959 1995.44,623.313 1990.53,613.679 1988.84,603 1990.53,592.32 1995.44,582.686 2003.08,575.04 2012.72,570.131 2023.4,568.44 2034.08,570.131 2043.71,575.04 2051.36,582.686 2056.27,592.32 2057.96,603 2056.27,613.679 2051.36,623.313 2043.71,630.959 2034.08,635.868 2023.4,637.56 "/>
<path clip-path="url(#clip542)" d="M2023.4 474.207 L2012.72 472.516 L2003.08 467.607 L1995.44 459.961 L1990.53 450.327 L1988.84 439.647 L1990.53 428.968 L1995.44 419.333 L2003.08 411.688 L2012.72 406.779 L2023.4 405.087 L2034.08 406.779 L2043.71 411.688 L2051.36 419.333 L2056.27 428.968 L2057.96 439.647 L2056.27 450.327 L2051.36 459.961 L2043.71 467.607 L2034.08 472.516 L2023.4 474.207  Z" fill="#000000" fill-rule="evenodd" fill-opacity="0"/>
<polyline clip-path="url(#clip542)" style="stroke:#000000; stroke-linecap:round; stroke-linejoin:round; stroke-width:4; stroke-opacity:1; fill:none" points="2023.4,474.207 2012.72,472.516 2003.08,467.607 1995.44,459.961 1990.53,450.327 1988.84,439.647 1990.53,428.968 1995.44,419.333 2003.08,411.688 2012.72,406.779 2023.4,405.087 2034.08,406.779 2043.71,411.688 2051.36,419.333 2056.27,428.968 2057.96,439.647 2056.27,450.327 2051.36,459.961 2043.71,467.607 2034.08,472.516 2023.4,474.207 "/>
<path clip-path="url(#clip542)" d="M415.003 964.264 L357.403 930.664 L357.403 997.864 L415.003 964.264 Z" fill="#ffff00" fill-rule="evenodd" fill-opacity="1" stroke="#000000" stroke-opacity="1" stroke-width="3.2"/>
<path clip-path="url(#clip542)" d="M415.003 800.912 L357.403 767.312 L357.403 834.512 L415.003 800.912 Z" fill="#ffff00" fill-rule="evenodd" fill-opacity="1" stroke="#000000" stroke-opacity="1" stroke-width="3.2"/>
<path clip-path="url(#clip542)" d="M415.003 637.56 L357.403 603.96 L357.403 671.16 L415.003 637.56 Z" fill="#ffff00" fill-rule="evenodd" fill-opacity="1" stroke="#000000" stroke-opacity="1" stroke-width="3.2"/>
<circle clip-path="url(#clip542)" cx="2023.4" cy="1127.62" r="43.2" fill="#b0e2ff" fill-rule="evenodd" fill-opacity="1" stroke="#000000" stroke-opacity="1" stroke-width="3.2"/>
<circle clip-path="url(#clip542)" cx="2023.4" cy="964.264" r="43.2" fill="#b0e2ff" fill-rule="evenodd" fill-opacity="1" stroke="#000000" stroke-opacity="1" stroke-width="3.2"/>
<circle clip-path="url(#clip542)" cx="2023.4" cy="800.912" r="43.2" fill="#b0e2ff" fill-rule="evenodd" fill-opacity="1" stroke="#000000" stroke-opacity="1" stroke-width="3.2"/>
<circle clip-path="url(#clip542)" cx="2023.4" cy="637.56" r="43.2" fill="#b0e2ff" fill-rule="evenodd" fill-opacity="1" stroke="#000000" stroke-opacity="1" stroke-width="3.2"/>
<circle clip-path="url(#clip542)" cx="2023.4" cy="474.207" r="43.2" fill="#b0e2ff" fill-rule="evenodd" fill-opacity="1" stroke="#000000" stroke-opacity="1" stroke-width="3.2"/>
<path clip-path="url(#clip542)" d="M2061.8 1127.62 L2004.2 1094.02 L2004.2 1161.22 L2061.8 1127.62 Z" fill="#ffa500" fill-rule="evenodd" fill-opacity="1" stroke="#000000" stroke-opacity="1" stroke-width="3.2"/>
<path clip-path="url(#clip542)" d="M2061.8 964.264 L2004.2 930.664 L2004.2 997.864 L2061.8 964.264 Z" fill="#ffa500" fill-rule="evenodd" fill-opacity="1" stroke="#000000" stroke-opacity="1" stroke-width="3.2"/>
<path clip-path="url(#clip542)" d="M2061.8 800.912 L2004.2 767.312 L2004.2 834.512 L2061.8 800.912 Z" fill="#ffa500" fill-rule="evenodd" fill-opacity="1" stroke="#000000" stroke-opacity="1" stroke-width="3.2"/>
<path clip-path="url(#clip542)" d="M2061.8 637.56 L2004.2 603.96 L2004.2 671.16 L2061.8 637.56 Z" fill="#ffa500" fill-rule="evenodd" fill-opacity="1" stroke="#000000" stroke-opacity="1" stroke-width="3.2"/>
<path clip-path="url(#clip542)" d="M2061.8 474.207 L2004.2 440.607 L2004.2 507.807 L2061.8 474.207 Z" fill="#ffa500" fill-rule="evenodd" fill-opacity="1" stroke="#000000" stroke-opacity="1" stroke-width="3.2"/>
<g clip-path="url(#clip540)">
<text style="fill:#000000; fill-opacity:1; font-family:Century Gothic,CenturyGothic,AppleGothic,sans-serif; font-size:47px; text-anchor:middle;" transform="rotate(-20, 382.588, 490.652)" x="382.588" y="490.652">input</text>
</g>
<g clip-path="url(#clip540)">
<text style="fill:#000000; fill-opacity:1; font-family:Century Gothic,CenturyGothic,AppleGothic,sans-serif; font-size:47px; text-anchor:middle;" transform="rotate(-20, 2029.38, 327.3)" x="2029.38" y="327.3">Recur(RNNCell(3 =&gt; 5, tanh))</text>
</g>
</svg>
