<?xml version="1.0" encoding="utf-8"?>
<svg xmlns="http://www.w3.org/2000/svg" xmlns:xlink="http://www.w3.org/1999/xlink" width="600" height="400" viewBox="0 0 2400 1600">
<defs>
  <clipPath id="clip960">
    <rect x="0" y="0" width="2400" height="1600"/>
  </clipPath>
</defs>
<path clip-path="url(#clip960)" d="M0 1600 L2400 1600 L2400 0 L0 0  Z" fill="#ffffff" fill-rule="evenodd" fill-opacity="1"/>
<defs>
  <clipPath id="clip961">
    <rect x="480" y="0" width="1681" height="1600"/>
  </clipPath>
</defs>
<path clip-path="url(#clip960)" d="M47.2441 1367.1 L2352.76 1367.1 L2352.76 93.2321 L47.2441 93.2321  Z" fill="#ffffff" fill-rule="evenodd" fill-opacity="1"/>
<defs>
  <clipPath id="clip962">
    <rect x="47" y="93" width="2307" height="1275"/>
  </clipPath>
</defs>
<polyline clip-path="url(#clip962)" style="stroke:#000000; stroke-linecap:round; stroke-linejoin:round; stroke-width:2; stroke-opacity:0.1; fill:none" points="376.603,1367.1 376.603,93.2321 "/>
<polyline clip-path="url(#clip962)" style="stroke:#000000; stroke-linecap:round; stroke-linejoin:round; stroke-width:2; stroke-opacity:0.1; fill:none" points="705.962,1367.1 705.962,93.2321 "/>
<polyline clip-path="url(#clip962)" style="stroke:#000000; stroke-linecap:round; stroke-linejoin:round; stroke-width:2; stroke-opacity:0.1; fill:none" points="1035.32,1367.1 1035.32,93.2321 "/>
<polyline clip-path="url(#clip962)" style="stroke:#000000; stroke-linecap:round; stroke-linejoin:round; stroke-width:2; stroke-opacity:0.1; fill:none" points="1364.68,1367.1 1364.68,93.2321 "/>
<polyline clip-path="url(#clip962)" style="stroke:#000000; stroke-linecap:round; stroke-linejoin:round; stroke-width:2; stroke-opacity:0.1; fill:none" points="1694.04,1367.1 1694.04,93.2321 "/>
<polyline clip-path="url(#clip962)" style="stroke:#000000; stroke-linecap:round; stroke-linejoin:round; stroke-width:2; stroke-opacity:0.1; fill:none" points="2023.4,1367.1 2023.4,93.2321 "/>
<path clip-path="url(#clip960)" d="M-52.7523 8.37727 L-52.7523 12.6915 Q-54.8182 10.7673 -57.1677 9.81534 Q-59.497 8.86338 -62.1301 8.86338 Q-67.3153 8.86338 -70.0699 12.0433 Q-72.8245 15.203 -72.8245 21.1984 Q-72.8245 27.1735 -70.0699 30.3534 Q-67.3153 33.5131 -62.1301 33.5131 Q-59.497 33.5131 -57.1677 32.5612 Q-54.8182 31.6092 -52.7523 29.685 L-52.7523 33.9587 Q-54.8992 35.4171 -57.3095 36.1462 Q-59.6996 36.8754 -62.3732 36.8754 Q-69.2394 36.8754 -73.1891 32.6827 Q-77.1387 28.4698 -77.1387 21.1984 Q-77.1387 13.9068 -73.1891 9.71407 Q-69.2394 5.50113 -62.3732 5.50113 Q-59.659 5.50113 -57.269 6.23029 Q-54.8587 6.9392 -52.7523 8.37727 Z" fill="#000000" fill-rule="nonzero" fill-opacity="1" /><path clip-path="url(#clip960)" d="M-27.7379 22.5959 L-27.7379 36.288 L-31.4648 36.288 L-31.4648 22.7175 Q-31.4648 19.497 -32.7205 17.8969 Q-33.9763 16.2968 -36.4879 16.2968 Q-39.5058 16.2968 -41.2477 18.221 Q-42.9896 20.1451 -42.9896 23.4669 L-42.9896 36.288 L-46.7367 36.288 L-46.7367 4.77197 L-42.9896 4.77197 L-42.9896 17.1272 Q-41.6528 15.0815 -39.8501 14.0688 Q-38.0272 13.0561 -35.6574 13.0561 Q-31.7483 13.0561 -29.7431 15.4866 Q-27.7379 17.8969 -27.7379 22.5959 Z" fill="#000000" fill-rule="nonzero" fill-opacity="1" /><path clip-path="url(#clip960)" d="M-9.99496 24.8847 Q-14.5117 24.8847 -16.2536 25.9177 Q-17.9955 26.9507 -17.9955 29.442 Q-17.9955 31.4269 -16.6992 32.6017 Q-15.3827 33.7562 -13.1344 33.7562 Q-10.0355 33.7562 -8.17206 31.5687 Q-6.28839 29.361 -6.28839 25.7151 L-6.28839 24.8847 L-9.99496 24.8847 M-2.56155 23.3454 L-2.56155 36.288 L-6.28839 36.288 L-6.28839 32.8447 Q-7.56442 34.9107 -9.46835 35.9032 Q-11.3723 36.8754 -14.1269 36.8754 Q-17.6107 36.8754 -19.6766 34.9309 Q-21.7223 32.9663 -21.7223 29.685 Q-21.7223 25.8569 -19.1703 23.9125 Q-16.5979 21.9681 -11.5141 21.9681 L-6.28839 21.9681 L-6.28839 21.6035 Q-6.28839 19.0311 -7.98977 17.6336 Q-9.67089 16.2158 -12.7293 16.2158 Q-14.6738 16.2158 -16.5169 16.6816 Q-18.3601 17.1475 -20.0615 18.0792 L-20.0615 14.6359 Q-18.0158 13.846 -16.0916 13.4612 Q-14.1674 13.0561 -12.3445 13.0561 Q-7.42264 13.0561 -4.9921 15.6081 Q-2.56155 18.1602 -2.56155 23.3454 Z" fill="#000000" fill-rule="nonzero" fill-opacity="1" /><path clip-path="url(#clip960)" d="M5.11491 13.6029 L8.84174 13.6029 L8.84174 36.288 L5.11491 36.288 L5.11491 13.6029 M5.11491 4.77197 L8.84174 4.77197 L8.84174 9.49127 L5.11491 9.49127 L5.11491 4.77197 Z" fill="#000000" fill-rule="nonzero" fill-opacity="1" /><path clip-path="url(#clip960)" d="M35.4967 22.5959 L35.4967 36.288 L31.7699 36.288 L31.7699 22.7175 Q31.7699 19.497 30.5141 17.8969 Q29.2583 16.2968 26.7467 16.2968 Q23.7288 16.2968 21.9869 18.221 Q20.245 20.1451 20.245 23.4669 L20.245 36.288 L16.498 36.288 L16.498 13.6029 L20.245 13.6029 L20.245 17.1272 Q21.5818 15.0815 23.3845 14.0688 Q25.2074 13.0561 27.5772 13.0561 Q31.4863 13.0561 33.4915 15.4866 Q35.4967 17.8969 35.4967 22.5959 Z" fill="#000000" fill-rule="nonzero" fill-opacity="1" /><path clip-path="url(#clip960)" d="M51.8826 4.81247 Q49.1685 9.47101 47.8519 14.0283 Q46.5354 18.5855 46.5354 23.2643 Q46.5354 27.9431 47.8519 32.5409 Q49.1887 37.1184 51.8826 41.7567 L48.6419 41.7567 Q45.6037 36.9969 44.0846 32.3991 Q42.5858 27.8014 42.5858 23.2643 Q42.5858 18.7476 44.0846 14.1701 Q45.5834 9.59254 48.6419 4.81247 L51.8826 4.81247 Z" fill="#000000" fill-rule="nonzero" fill-opacity="1" /><path clip-path="url(#clip960)" d="M63.3669 9.41025 L63.3669 32.9257 L68.309 32.9257 Q74.5677 32.9257 77.4641 30.0901 Q80.3807 27.2545 80.3807 21.1376 Q80.3807 15.0613 77.4641 12.2459 Q74.5677 9.41025 68.309 9.41025 L63.3669 9.41025 M59.2755 6.048 L67.6811 6.048 Q76.4716 6.048 80.5833 9.71407 Q84.6949 13.3599 84.6949 21.1376 Q84.6949 28.9559 80.563 32.6219 Q76.4311 36.288 67.6811 36.288 L59.2755 36.288 L59.2755 6.048 Z" fill="#000000" fill-rule="nonzero" fill-opacity="1" /><path clip-path="url(#clip960)" d="M110.459 24.0138 L110.459 25.8367 L93.3233 25.8367 Q93.5664 29.685 95.6324 31.7105 Q97.7186 33.7157 101.425 33.7157 Q103.572 33.7157 105.577 33.1891 Q107.603 32.6624 109.588 31.6092 L109.588 35.1335 Q107.583 35.9842 105.476 36.4298 Q103.37 36.8754 101.202 36.8754 Q95.7741 36.8754 92.5942 33.7157 Q89.4345 30.556 89.4345 25.1683 Q89.4345 19.5983 92.4322 16.3373 Q95.4501 13.0561 100.554 13.0561 Q105.132 13.0561 107.785 16.0132 Q110.459 18.9501 110.459 24.0138 M106.732 22.92 Q106.691 19.8616 105.01 18.0387 Q103.349 16.2158 100.595 16.2158 Q97.4755 16.2158 95.5919 17.9779 Q93.7284 19.7401 93.4449 22.9403 L106.732 22.92 Z" fill="#000000" fill-rule="nonzero" fill-opacity="1" /><path clip-path="url(#clip960)" d="M135.432 22.5959 L135.432 36.288 L131.706 36.288 L131.706 22.7175 Q131.706 19.497 130.45 17.8969 Q129.194 16.2968 126.683 16.2968 Q123.665 16.2968 121.923 18.221 Q120.181 20.1451 120.181 23.4669 L120.181 36.288 L116.434 36.288 L116.434 13.6029 L120.181 13.6029 L120.181 17.1272 Q121.518 15.0815 123.32 14.0688 Q125.143 13.0561 127.513 13.0561 Q131.422 13.0561 133.427 15.4866 Q135.432 17.8969 135.432 22.5959 Z" fill="#000000" fill-rule="nonzero" fill-opacity="1" /><path clip-path="url(#clip960)" d="M157.328 14.2713 L157.328 17.7956 Q155.748 16.9854 154.046 16.5804 Q152.345 16.1753 150.522 16.1753 Q147.747 16.1753 146.35 17.026 Q144.972 17.8766 144.972 19.578 Q144.972 20.8743 145.965 21.6237 Q146.957 22.3529 149.955 23.0213 L151.231 23.3049 Q155.201 24.1555 156.862 25.7151 Q158.543 27.2545 158.543 30.0294 Q158.543 33.1891 156.031 35.0322 Q153.54 36.8754 149.165 36.8754 Q147.342 36.8754 145.357 36.5108 Q143.393 36.1665 141.205 35.4576 L141.205 31.6092 Q143.271 32.6827 145.276 33.2296 Q147.281 33.7562 149.246 33.7562 Q151.879 33.7562 153.297 32.865 Q154.715 31.9535 154.715 30.3129 Q154.715 28.7938 153.682 27.9836 Q152.669 27.1735 149.206 26.424 L147.909 26.1202 Q144.446 25.3911 142.906 23.8922 Q141.367 22.3731 141.367 19.7401 Q141.367 16.5398 143.636 14.798 Q145.904 13.0561 150.077 13.0561 Q152.142 13.0561 153.965 13.3599 Q155.788 13.6637 157.328 14.2713 Z" fill="#000000" fill-rule="nonzero" fill-opacity="1" /><path clip-path="url(#clip960)" d="M183.881 24.0138 L183.881 25.8367 L166.746 25.8367 Q166.989 29.685 169.055 31.7105 Q171.141 33.7157 174.848 33.7157 Q176.995 33.7157 179 33.1891 Q181.025 32.6624 183.01 31.6092 L183.01 35.1335 Q181.005 35.9842 178.899 36.4298 Q176.792 36.8754 174.625 36.8754 Q169.197 36.8754 166.017 33.7157 Q162.857 30.556 162.857 25.1683 Q162.857 19.5983 165.855 16.3373 Q168.873 13.0561 173.977 13.0561 Q178.554 13.0561 181.208 16.0132 Q183.881 18.9501 183.881 24.0138 M180.154 22.92 Q180.114 19.8616 178.433 18.0387 Q176.772 16.2158 174.017 16.2158 Q170.898 16.2158 169.014 17.9779 Q167.151 19.7401 166.868 22.9403 L180.154 22.92 Z" fill="#000000" fill-rule="nonzero" fill-opacity="1" /><path clip-path="url(#clip960)" d="M198.951 4.81247 Q196.237 9.47101 194.92 14.0283 Q193.603 18.5855 193.603 23.2643 Q193.603 27.9431 194.92 32.5409 Q196.257 37.1184 198.951 41.7567 L195.71 41.7567 Q192.672 36.9969 191.153 32.3991 Q189.654 27.8014 189.654 23.2643 Q189.654 18.7476 191.153 14.1701 Q192.652 9.59254 195.71 4.81247 L198.951 4.81247 Z" fill="#000000" fill-rule="nonzero" fill-opacity="1" /><path clip-path="url(#clip960)" d="M210.232 32.8447 L224.512 32.8447 L224.512 36.288 L205.311 36.288 L205.311 32.8447 Q207.64 30.4344 211.65 26.3835 Q215.681 22.3124 216.714 21.1376 Q218.679 18.9299 219.448 17.4108 Q220.238 15.8714 220.238 14.3929 Q220.238 11.9826 218.537 10.4635 Q216.856 8.9444 214.142 8.9444 Q212.217 8.9444 210.07 9.6128 Q207.944 10.2812 205.513 11.6382 L205.513 7.50633 Q207.984 6.51385 210.131 6.00749 Q212.278 5.50113 214.061 5.50113 Q218.76 5.50113 221.555 7.85065 Q224.35 10.2002 224.35 14.1296 Q224.35 15.993 223.641 17.6741 Q222.952 19.335 221.109 21.6035 Q220.603 22.1909 217.889 25.0062 Q215.175 27.8014 210.232 32.8447 Z" fill="#000000" fill-rule="nonzero" fill-opacity="1" /><path clip-path="url(#clip960)" d="M246.245 17.4513 L272.211 17.4513 L272.211 20.8541 L246.245 20.8541 L246.245 17.4513 M246.245 25.7151 L272.211 25.7151 L272.211 29.1584 L246.245 29.1584 L246.245 25.7151 Z" fill="#000000" fill-rule="nonzero" fill-opacity="1" /><path clip-path="url(#clip960)" d="M281.002 15.8714 L281.002 12.1851 L306.968 21.6035 L306.968 24.9657 L281.002 34.3841 L281.002 30.6978 L301.864 23.3049 L281.002 15.8714 Z" fill="#000000" fill-rule="nonzero" fill-opacity="1" /><path clip-path="url(#clip960)" d="M329.025 6.048 L345.087 6.048 L345.087 9.49127 L332.772 9.49127 L332.772 16.9044 Q333.663 16.6006 334.555 16.4588 Q335.446 16.2968 336.337 16.2968 Q341.401 16.2968 344.358 19.0717 Q347.315 21.8465 347.315 26.5861 Q347.315 31.4674 344.277 34.1815 Q341.239 36.8754 335.709 36.8754 Q333.805 36.8754 331.82 36.5513 Q329.856 36.2272 327.749 35.5791 L327.749 31.4674 Q329.572 32.4599 331.517 32.946 Q333.461 33.4321 335.628 33.4321 Q339.132 33.4321 341.178 31.589 Q343.224 29.7458 343.224 26.5861 Q343.224 23.4264 341.178 21.5832 Q339.132 19.7401 335.628 19.7401 Q333.988 19.7401 332.347 20.1046 Q330.727 20.4692 329.025 21.2389 L329.025 6.048 Z" fill="#000000" fill-rule="nonzero" fill-opacity="1" /><path clip-path="url(#clip960)" d="M355.802 31.1434 L360.075 31.1434 L360.075 34.6271 L356.754 41.1086 L354.141 41.1086 L355.802 34.6271 L355.802 31.1434 Z" fill="#000000" fill-rule="nonzero" fill-opacity="1" /><path clip-path="url(#clip960)" d="M390.012 16.5601 Q386.933 16.5601 385.272 18.7881 Q383.53 21.1174 383.53 24.9657 Q383.53 29.0369 385.252 31.3864 Q386.994 33.7157 390.012 33.7157 Q392.989 33.7157 394.731 31.3662 Q396.473 29.0166 396.473 24.9657 Q396.473 21.2591 394.731 18.7881 Q393.131 16.5601 390.012 16.5601 M390.012 13.6029 L402.387 13.6029 L402.387 17.3298 L398.215 17.3298 Q400.422 20.4895 400.422 24.9657 Q400.422 30.5357 397.648 33.6954 Q394.873 36.8754 390.012 36.8754 Q385.13 36.8754 382.376 33.6954 Q379.601 30.5357 379.601 24.9657 Q379.601 19.3552 382.376 16.2158 Q384.664 13.6029 390.012 13.6029 Z" fill="#000000" fill-rule="nonzero" fill-opacity="1" /><path clip-path="url(#clip960)" d="M406.924 4.81247 L410.165 4.81247 Q413.203 9.59254 414.702 14.1701 Q416.221 18.7476 416.221 23.2643 Q416.221 27.8014 414.702 32.3991 Q413.203 36.9969 410.165 41.7567 L406.924 41.7567 Q409.618 37.1184 410.934 32.5409 Q412.271 27.9431 412.271 23.2643 Q412.271 18.5855 410.934 14.0283 Q409.618 9.47101 406.924 4.81247 Z" fill="#000000" fill-rule="nonzero" fill-opacity="1" /><path clip-path="url(#clip960)" d="M424.647 31.1434 L428.921 31.1434 L428.921 34.6271 L425.599 41.1086 L422.986 41.1086 L424.647 34.6271 L424.647 31.1434 Z" fill="#000000" fill-rule="nonzero" fill-opacity="1" /><path clip-path="url(#clip960)" d="M464.568 22.1098 Q465.885 22.5554 467.121 24.0138 Q468.376 25.4721 469.632 28.0242 L473.784 36.288 L469.389 36.288 L465.52 28.5305 Q464.022 25.4923 462.604 24.4999 Q461.206 23.5074 458.776 23.5074 L454.32 23.5074 L454.32 36.288 L450.228 36.288 L450.228 6.048 L459.464 6.048 Q464.649 6.048 467.202 8.21523 Q469.754 10.3825 469.754 14.7574 Q469.754 17.6133 468.417 19.497 Q467.1 21.3807 464.568 22.1098 M454.32 9.41025 L454.32 20.1451 L459.464 20.1451 Q462.421 20.1451 463.92 18.7881 Q465.439 17.4108 465.439 14.7574 Q465.439 12.1041 463.92 10.7673 Q462.421 9.41025 459.464 9.41025 L454.32 9.41025 Z" fill="#000000" fill-rule="nonzero" fill-opacity="1" /><path clip-path="url(#clip960)" d="M496.429 24.0138 L496.429 25.8367 L479.294 25.8367 Q479.537 29.685 481.603 31.7105 Q483.689 33.7157 487.395 33.7157 Q489.542 33.7157 491.547 33.1891 Q493.573 32.6624 495.558 31.6092 L495.558 35.1335 Q493.553 35.9842 491.446 36.4298 Q489.34 36.8754 487.173 36.8754 Q481.744 36.8754 478.564 33.7157 Q475.405 30.556 475.405 25.1683 Q475.405 19.5983 478.402 16.3373 Q481.42 13.0561 486.524 13.0561 Q491.102 13.0561 493.755 16.0132 Q496.429 18.9501 496.429 24.0138 M492.702 22.92 Q492.661 19.8616 490.98 18.0387 Q489.319 16.2158 486.565 16.2158 Q483.446 16.2158 481.562 17.9779 Q479.699 19.7401 479.415 22.9403 L492.702 22.92 Z" fill="#000000" fill-rule="nonzero" fill-opacity="1" /><path clip-path="url(#clip960)" d="M518.871 14.4739 L518.871 17.9577 Q517.291 17.0867 515.691 16.6614 Q514.111 16.2158 512.491 16.2158 Q508.865 16.2158 506.86 18.5248 Q504.855 20.8135 504.855 24.9657 Q504.855 29.1179 506.86 31.4269 Q508.865 33.7157 512.491 33.7157 Q514.111 33.7157 515.691 33.2903 Q517.291 32.8447 518.871 31.9738 L518.871 35.4171 Q517.311 36.1462 515.63 36.5108 Q513.969 36.8754 512.086 36.8754 Q506.961 36.8754 503.943 33.6549 Q500.925 30.4344 500.925 24.9657 Q500.925 19.416 503.964 16.236 Q507.022 13.0561 512.329 13.0561 Q514.05 13.0561 515.691 13.4206 Q517.331 13.765 518.871 14.4739 Z" fill="#000000" fill-rule="nonzero" fill-opacity="1" /><path clip-path="url(#clip960)" d="M524.967 27.3355 L524.967 13.6029 L528.694 13.6029 L528.694 27.1937 Q528.694 30.4142 529.95 32.0346 Q531.206 33.6347 533.717 33.6347 Q536.735 33.6347 538.477 31.7105 Q540.239 29.7863 540.239 26.4646 L540.239 13.6029 L543.966 13.6029 L543.966 36.288 L540.239 36.288 L540.239 32.8042 Q538.882 34.8702 537.08 35.8829 Q535.297 36.8754 532.927 36.8754 Q529.018 36.8754 526.993 34.4448 Q524.967 32.0143 524.967 27.3355 M534.345 13.0561 L534.345 13.0561 Z" fill="#000000" fill-rule="nonzero" fill-opacity="1" /><path clip-path="url(#clip960)" d="M564.788 17.0867 Q564.16 16.7221 563.411 16.5601 Q562.681 16.3778 561.79 16.3778 Q558.63 16.3778 556.929 18.4438 Q555.248 20.4895 555.248 24.3378 L555.248 36.288 L551.501 36.288 L551.501 13.6029 L555.248 13.6029 L555.248 17.1272 Q556.423 15.0613 558.306 14.0688 Q560.19 13.0561 562.884 13.0561 Q563.269 13.0561 563.735 13.1168 Q564.2 13.1573 564.768 13.2586 L564.788 17.0867 Z" fill="#000000" fill-rule="nonzero" fill-opacity="1" /><path clip-path="url(#clip960)" d="M577.649 4.81247 Q574.935 9.47101 573.619 14.0283 Q572.302 18.5855 572.302 23.2643 Q572.302 27.9431 573.619 32.5409 Q574.956 37.1184 577.649 41.7567 L574.409 41.7567 Q571.371 36.9969 569.851 32.3991 Q568.353 27.8014 568.353 23.2643 Q568.353 18.7476 569.851 14.1701 Q571.35 9.59254 574.409 4.81247 L577.649 4.81247 Z" fill="#000000" fill-rule="nonzero" fill-opacity="1" /><path clip-path="url(#clip960)" d="M599.383 22.1098 Q600.699 22.5554 601.935 24.0138 Q603.19 25.4721 604.446 28.0242 L608.598 36.288 L604.203 36.288 L600.335 28.5305 Q598.836 25.4923 597.418 24.4999 Q596.02 23.5074 593.59 23.5074 L589.134 23.5074 L589.134 36.288 L585.042 36.288 L585.042 6.048 L594.278 6.048 Q599.464 6.048 602.016 8.21523 Q604.568 10.3825 604.568 14.7574 Q604.568 17.6133 603.231 19.497 Q601.914 21.3807 599.383 22.1098 M589.134 9.41025 L589.134 20.1451 L594.278 20.1451 Q597.236 20.1451 598.734 18.7881 Q600.254 17.4108 600.254 14.7574 Q600.254 12.1041 598.734 10.7673 Q597.236 9.41025 594.278 9.41025 L589.134 9.41025 Z" fill="#000000" fill-rule="nonzero" fill-opacity="1" /><path clip-path="url(#clip960)" d="M613.865 6.048 L619.374 6.048 L632.782 31.3459 L632.782 6.048 L636.752 6.048 L636.752 36.288 L631.243 36.288 L617.834 10.9901 L617.834 36.288 L613.865 36.288 L613.865 6.048 Z" fill="#000000" fill-rule="nonzero" fill-opacity="1" /><path clip-path="url(#clip960)" d="M644.894 6.048 L650.404 6.048 L663.812 31.3459 L663.812 6.048 L667.782 6.048 L667.782 36.288 L662.273 36.288 L648.864 10.9901 L648.864 36.288 L644.894 36.288 L644.894 6.048 Z" fill="#000000" fill-rule="nonzero" fill-opacity="1" /><path clip-path="url(#clip960)" d="M698.569 8.37727 L698.569 12.6915 Q696.503 10.7673 694.153 9.81534 Q691.824 8.86338 689.191 8.86338 Q684.006 8.86338 681.251 12.0433 Q678.497 15.203 678.497 21.1984 Q678.497 27.1735 681.251 30.3534 Q684.006 33.5131 689.191 33.5131 Q691.824 33.5131 694.153 32.5612 Q696.503 31.6092 698.569 29.685 L698.569 33.9587 Q696.422 35.4171 694.012 36.1462 Q691.622 36.8754 688.948 36.8754 Q682.082 36.8754 678.132 32.6827 Q674.183 28.4698 674.183 21.1984 Q674.183 13.9068 678.132 9.71407 Q682.082 5.50113 688.948 5.50113 Q691.662 5.50113 694.052 6.23029 Q696.462 6.9392 698.569 8.37727 Z" fill="#000000" fill-rule="nonzero" fill-opacity="1" /><path clip-path="url(#clip960)" d="M724.13 24.0138 L724.13 25.8367 L706.995 25.8367 Q707.238 29.685 709.304 31.7105 Q711.39 33.7157 715.097 33.7157 Q717.244 33.7157 719.249 33.1891 Q721.274 32.6624 723.259 31.6092 L723.259 35.1335 Q721.254 35.9842 719.148 36.4298 Q717.041 36.8754 714.874 36.8754 Q709.446 36.8754 706.266 33.7157 Q703.106 30.556 703.106 25.1683 Q703.106 19.5983 706.104 16.3373 Q709.122 13.0561 714.226 13.0561 Q718.803 13.0561 721.457 16.0132 Q724.13 18.9501 724.13 24.0138 M720.403 22.92 Q720.363 19.8616 718.682 18.0387 Q717.021 16.2158 714.266 16.2158 Q711.147 16.2158 709.263 17.9779 Q707.4 19.7401 707.116 22.9403 L720.403 22.92 Z" fill="#000000" fill-rule="nonzero" fill-opacity="1" /><path clip-path="url(#clip960)" d="M730.247 4.77197 L733.974 4.77197 L733.974 36.288 L730.247 36.288 L730.247 4.77197 Z" fill="#000000" fill-rule="nonzero" fill-opacity="1" /><path clip-path="url(#clip960)" d="M741.772 4.77197 L745.499 4.77197 L745.499 36.288 L741.772 36.288 L741.772 4.77197 Z" fill="#000000" fill-rule="nonzero" fill-opacity="1" /><path clip-path="url(#clip960)" d="M762.249 4.81247 Q759.535 9.47101 758.219 14.0283 Q756.902 18.5855 756.902 23.2643 Q756.902 27.9431 758.219 32.5409 Q759.555 37.1184 762.249 41.7567 L759.008 41.7567 Q755.97 36.9969 754.451 32.3991 Q752.952 27.8014 752.952 23.2643 Q752.952 18.7476 754.451 14.1701 Q755.95 9.59254 759.008 4.81247 L762.249 4.81247 Z" fill="#000000" fill-rule="nonzero" fill-opacity="1" /><path clip-path="url(#clip960)" d="M770.047 6.048 L786.109 6.048 L786.109 9.49127 L773.794 9.49127 L773.794 16.9044 Q774.685 16.6006 775.577 16.4588 Q776.468 16.2968 777.359 16.2968 Q782.423 16.2968 785.38 19.0717 Q788.337 21.8465 788.337 26.5861 Q788.337 31.4674 785.299 34.1815 Q782.261 36.8754 776.731 36.8754 Q774.827 36.8754 772.842 36.5513 Q770.878 36.2272 768.771 35.5791 L768.771 31.4674 Q770.594 32.4599 772.538 32.946 Q774.483 33.4321 776.65 33.4321 Q780.154 33.4321 782.2 31.589 Q784.246 29.7458 784.246 26.5861 Q784.246 23.4264 782.2 21.5832 Q780.154 19.7401 776.65 19.7401 Q775.01 19.7401 773.369 20.1046 Q771.749 20.4692 770.047 21.2389 L770.047 6.048 Z" fill="#000000" fill-rule="nonzero" fill-opacity="1" /><path clip-path="url(#clip960)" d="M809.543 17.4513 L835.51 17.4513 L835.51 20.8541 L809.543 20.8541 L809.543 17.4513 M809.543 25.7151 L835.51 25.7151 L835.51 29.1584 L809.543 29.1584 L809.543 25.7151 Z" fill="#000000" fill-rule="nonzero" fill-opacity="1" /><path clip-path="url(#clip960)" d="M844.3 15.8714 L844.3 12.1851 L870.267 21.6035 L870.267 24.9657 L844.3 34.3841 L844.3 30.6978 L865.162 23.3049 L844.3 15.8714 Z" fill="#000000" fill-rule="nonzero" fill-opacity="1" /><path clip-path="url(#clip960)" d="M903.524 9.6128 L893.195 25.7556 L903.524 25.7556 L903.524 9.6128 M902.451 6.048 L907.596 6.048 L907.596 25.7556 L911.91 25.7556 L911.91 29.1584 L907.596 29.1584 L907.596 36.288 L903.524 36.288 L903.524 29.1584 L889.873 29.1584 L889.873 25.2088 L902.451 6.048 Z" fill="#000000" fill-rule="nonzero" fill-opacity="1" /><path clip-path="url(#clip960)" d="M919.1 31.1434 L923.374 31.1434 L923.374 34.6271 L920.052 41.1086 L917.439 41.1086 L919.1 34.6271 L919.1 31.1434 Z" fill="#000000" fill-rule="nonzero" fill-opacity="1" /><path clip-path="url(#clip960)" d="M957.665 17.0867 Q957.037 16.7221 956.287 16.5601 Q955.558 16.3778 954.667 16.3778 Q951.507 16.3778 949.806 18.4438 Q948.125 20.4895 948.125 24.3378 L948.125 36.288 L944.378 36.288 L944.378 13.6029 L948.125 13.6029 L948.125 17.1272 Q949.3 15.0613 951.183 14.0688 Q953.067 13.0561 955.761 13.0561 Q956.146 13.0561 956.612 13.1168 Q957.077 13.1573 957.645 13.2586 L957.665 17.0867 Z" fill="#000000" fill-rule="nonzero" fill-opacity="1" /><path clip-path="url(#clip960)" d="M980.066 24.0138 L980.066 25.8367 L962.931 25.8367 Q963.174 29.685 965.24 31.7105 Q967.326 33.7157 971.033 33.7157 Q973.18 33.7157 975.185 33.1891 Q977.21 32.6624 979.195 31.6092 L979.195 35.1335 Q977.19 35.9842 975.084 36.4298 Q972.977 36.8754 970.81 36.8754 Q965.382 36.8754 962.202 33.7157 Q959.042 30.556 959.042 25.1683 Q959.042 19.5983 962.04 16.3373 Q965.058 13.0561 970.162 13.0561 Q974.739 13.0561 977.393 16.0132 Q980.066 18.9501 980.066 24.0138 M976.339 22.92 Q976.299 19.8616 974.618 18.0387 Q972.957 16.2158 970.202 16.2158 Q967.083 16.2158 965.199 17.9779 Q963.336 19.7401 963.052 22.9403 L976.339 22.92 Z" fill="#000000" fill-rule="nonzero" fill-opacity="1" /><path clip-path="url(#clip960)" d="M986.183 4.77197 L989.91 4.77197 L989.91 36.288 L986.183 36.288 L986.183 4.77197 Z" fill="#000000" fill-rule="nonzero" fill-opacity="1" /><path clip-path="url(#clip960)" d="M997.323 27.3355 L997.323 13.6029 L1001.05 13.6029 L1001.05 27.1937 Q1001.05 30.4142 1002.31 32.0346 Q1003.56 33.6347 1006.07 33.6347 Q1009.09 33.6347 1010.83 31.7105 Q1012.6 29.7863 1012.6 26.4646 L1012.6 13.6029 L1016.32 13.6029 L1016.32 36.288 L1012.6 36.288 L1012.6 32.8042 Q1011.24 34.8702 1009.44 35.8829 Q1007.65 36.8754 1005.28 36.8754 Q1001.37 36.8754 999.349 34.4448 Q997.323 32.0143 997.323 27.3355 M1006.7 13.0561 L1006.7 13.0561 Z" fill="#000000" fill-rule="nonzero" fill-opacity="1" /><path clip-path="url(#clip960)" d="M1023.41 4.81247 L1026.65 4.81247 Q1029.69 9.59254 1031.19 14.1701 Q1032.71 18.7476 1032.71 23.2643 Q1032.71 27.8014 1031.19 32.3991 Q1029.69 36.9969 1026.65 41.7567 L1023.41 41.7567 Q1026.1 37.1184 1027.42 32.5409 Q1028.76 27.9431 1028.76 23.2643 Q1028.76 18.5855 1027.42 14.0283 Q1026.1 9.47101 1023.41 4.81247 Z" fill="#000000" fill-rule="nonzero" fill-opacity="1" /><path clip-path="url(#clip960)" d="M1039.59 4.81247 L1042.84 4.81247 Q1045.87 9.59254 1047.37 14.1701 Q1048.89 18.7476 1048.89 23.2643 Q1048.89 27.8014 1047.37 32.3991 Q1045.87 36.9969 1042.84 41.7567 L1039.59 41.7567 Q1042.29 37.1184 1043.6 32.5409 Q1044.94 27.9431 1044.94 23.2643 Q1044.94 18.5855 1043.6 14.0283 Q1042.29 9.47101 1039.59 4.81247 Z" fill="#000000" fill-rule="nonzero" fill-opacity="1" /><path clip-path="url(#clip960)" d="M1057.32 31.1434 L1061.59 31.1434 L1061.59 34.6271 L1058.27 41.1086 L1055.66 41.1086 L1057.32 34.6271 L1057.32 31.1434 Z" fill="#000000" fill-rule="nonzero" fill-opacity="1" /><path clip-path="url(#clip960)" d="M1097.24 22.1098 Q1098.56 22.5554 1099.79 24.0138 Q1101.05 25.4721 1102.3 28.0242 L1106.45 36.288 L1102.06 36.288 L1098.19 28.5305 Q1096.69 25.4923 1095.27 24.4999 Q1093.88 23.5074 1091.45 23.5074 L1086.99 23.5074 L1086.99 36.288 L1082.9 36.288 L1082.9 6.048 L1092.13 6.048 Q1097.32 6.048 1099.87 8.21523 Q1102.42 10.3825 1102.42 14.7574 Q1102.42 17.6133 1101.09 19.497 Q1099.77 21.3807 1097.24 22.1098 M1086.99 9.41025 L1086.99 20.1451 L1092.13 20.1451 Q1095.09 20.1451 1096.59 18.7881 Q1098.11 17.4108 1098.11 14.7574 Q1098.11 12.1041 1096.59 10.7673 Q1095.09 9.41025 1092.13 9.41025 L1086.99 9.41025 Z" fill="#000000" fill-rule="nonzero" fill-opacity="1" /><path clip-path="url(#clip960)" d="M1129.1 24.0138 L1129.1 25.8367 L1111.96 25.8367 Q1112.21 29.685 1114.27 31.7105 Q1116.36 33.7157 1120.07 33.7157 Q1122.21 33.7157 1124.22 33.1891 Q1126.24 32.6624 1128.23 31.6092 L1128.23 35.1335 Q1126.22 35.9842 1124.12 36.4298 Q1122.01 36.8754 1119.84 36.8754 Q1114.41 36.8754 1111.23 33.7157 Q1108.07 30.556 1108.07 25.1683 Q1108.07 19.5983 1111.07 16.3373 Q1114.09 13.0561 1119.19 13.0561 Q1123.77 13.0561 1126.43 16.0132 Q1129.1 18.9501 1129.1 24.0138 M1125.37 22.92 Q1125.33 19.8616 1123.65 18.0387 Q1121.99 16.2158 1119.24 16.2158 Q1116.12 16.2158 1114.23 17.9779 Q1112.37 19.7401 1112.09 22.9403 L1125.37 22.92 Z" fill="#000000" fill-rule="nonzero" fill-opacity="1" /><path clip-path="url(#clip960)" d="M1151.54 14.4739 L1151.54 17.9577 Q1149.96 17.0867 1148.36 16.6614 Q1146.78 16.2158 1145.16 16.2158 Q1141.54 16.2158 1139.53 18.5248 Q1137.52 20.8135 1137.52 24.9657 Q1137.52 29.1179 1139.53 31.4269 Q1141.54 33.7157 1145.16 33.7157 Q1146.78 33.7157 1148.36 33.2903 Q1149.96 32.8447 1151.54 31.9738 L1151.54 35.4171 Q1149.98 36.1462 1148.3 36.5108 Q1146.64 36.8754 1144.76 36.8754 Q1139.63 36.8754 1136.61 33.6549 Q1133.6 30.4344 1133.6 24.9657 Q1133.6 19.416 1136.63 16.236 Q1139.69 13.0561 1145 13.0561 Q1146.72 13.0561 1148.36 13.4206 Q1150 13.765 1151.54 14.4739 Z" fill="#000000" fill-rule="nonzero" fill-opacity="1" /><path clip-path="url(#clip960)" d="M1157.64 27.3355 L1157.64 13.6029 L1161.36 13.6029 L1161.36 27.1937 Q1161.36 30.4142 1162.62 32.0346 Q1163.88 33.6347 1166.39 33.6347 Q1169.41 33.6347 1171.15 31.7105 Q1172.91 29.7863 1172.91 26.4646 L1172.91 13.6029 L1176.64 13.6029 L1176.64 36.288 L1172.91 36.288 L1172.91 32.8042 Q1171.55 34.8702 1169.75 35.8829 Q1167.97 36.8754 1165.6 36.8754 Q1161.69 36.8754 1159.66 34.4448 Q1157.64 32.0143 1157.64 27.3355 M1167.02 13.0561 L1167.02 13.0561 Z" fill="#000000" fill-rule="nonzero" fill-opacity="1" /><path clip-path="url(#clip960)" d="M1197.46 17.0867 Q1196.83 16.7221 1196.08 16.5601 Q1195.35 16.3778 1194.46 16.3778 Q1191.3 16.3778 1189.6 18.4438 Q1187.92 20.4895 1187.92 24.3378 L1187.92 36.288 L1184.17 36.288 L1184.17 13.6029 L1187.92 13.6029 L1187.92 17.1272 Q1189.09 15.0613 1190.98 14.0688 Q1192.86 13.0561 1195.55 13.0561 Q1195.94 13.0561 1196.4 13.1168 Q1196.87 13.1573 1197.44 13.2586 L1197.46 17.0867 Z" fill="#000000" fill-rule="nonzero" fill-opacity="1" /><path clip-path="url(#clip960)" d="M1210.32 4.81247 Q1207.61 9.47101 1206.29 14.0283 Q1204.97 18.5855 1204.97 23.2643 Q1204.97 27.9431 1206.29 32.5409 Q1207.63 37.1184 1210.32 41.7567 L1207.08 41.7567 Q1204.04 36.9969 1202.52 32.3991 Q1201.02 27.8014 1201.02 23.2643 Q1201.02 18.7476 1202.52 14.1701 Q1204.02 9.59254 1207.08 4.81247 L1210.32 4.81247 Z" fill="#000000" fill-rule="nonzero" fill-opacity="1" /><path clip-path="url(#clip960)" d="M1217.71 6.048 L1221.8 6.048 L1221.8 32.8447 L1236.53 32.8447 L1236.53 36.288 L1217.71 36.288 L1217.71 6.048 Z" fill="#000000" fill-rule="nonzero" fill-opacity="1" /><path clip-path="url(#clip960)" d="M1258.95 7.04047 L1258.95 11.0306 Q1256.62 9.91661 1254.56 9.36974 Q1252.49 8.82287 1250.57 8.82287 Q1247.22 8.82287 1245.4 10.1192 Q1243.6 11.4154 1243.6 13.8055 Q1243.6 15.8107 1244.79 16.8437 Q1246.01 17.8564 1249.37 18.4843 L1251.84 18.9906 Q1256.42 19.8616 1258.59 22.0693 Q1260.77 24.2568 1260.77 27.9431 Q1260.77 32.3384 1257.82 34.6069 Q1254.88 36.8754 1249.19 36.8754 Q1247.04 36.8754 1244.61 36.3893 Q1242.2 35.9032 1239.61 34.9512 L1239.61 30.7383 Q1242.1 32.1358 1244.49 32.8447 Q1246.88 33.5536 1249.19 33.5536 Q1252.69 33.5536 1254.6 32.1763 Q1256.5 30.799 1256.5 28.247 Q1256.5 26.019 1255.12 24.7632 Q1253.77 23.5074 1250.65 22.8795 L1248.16 22.3934 Q1243.58 21.4819 1241.53 19.5375 Q1239.49 17.5931 1239.49 14.1296 Q1239.49 10.1192 1242.3 7.81014 Q1245.14 5.50113 1250.1 5.50113 Q1252.23 5.50113 1254.43 5.88596 Q1256.64 6.2708 1258.95 7.04047 Z" fill="#000000" fill-rule="nonzero" fill-opacity="1" /><path clip-path="url(#clip960)" d="M1262.96 6.048 L1288.54 6.048 L1288.54 9.49127 L1277.81 9.49127 L1277.81 36.288 L1273.7 36.288 L1273.7 9.49127 L1262.96 9.49127 L1262.96 6.048 Z" fill="#000000" fill-rule="nonzero" fill-opacity="1" /><path clip-path="url(#clip960)" d="M1292.49 6.048 L1298.59 6.048 L1306.31 26.6266 L1314.06 6.048 L1320.16 6.048 L1320.16 36.288 L1316.17 36.288 L1316.17 9.73432 L1308.37 30.475 L1304.26 30.475 L1296.46 9.73432 L1296.46 36.288 L1292.49 36.288 L1292.49 6.048 Z" fill="#000000" fill-rule="nonzero" fill-opacity="1" /><path clip-path="url(#clip960)" d="M1350.93 8.37727 L1350.93 12.6915 Q1348.86 10.7673 1346.51 9.81534 Q1344.18 8.86338 1341.55 8.86338 Q1336.36 8.86338 1333.61 12.0433 Q1330.85 15.203 1330.85 21.1984 Q1330.85 27.1735 1333.61 30.3534 Q1336.36 33.5131 1341.55 33.5131 Q1344.18 33.5131 1346.51 32.5612 Q1348.86 31.6092 1350.93 29.685 L1350.93 33.9587 Q1348.78 35.4171 1346.37 36.1462 Q1343.98 36.8754 1341.31 36.8754 Q1334.44 36.8754 1330.49 32.6827 Q1326.54 28.4698 1326.54 21.1984 Q1326.54 13.9068 1330.49 9.71407 Q1334.44 5.50113 1341.31 5.50113 Q1344.02 5.50113 1346.41 6.23029 Q1348.82 6.9392 1350.93 8.37727 Z" fill="#000000" fill-rule="nonzero" fill-opacity="1" /><path clip-path="url(#clip960)" d="M1376.49 24.0138 L1376.49 25.8367 L1359.35 25.8367 Q1359.6 29.685 1361.66 31.7105 Q1363.75 33.7157 1367.45 33.7157 Q1369.6 33.7157 1371.61 33.1891 Q1373.63 32.6624 1375.62 31.6092 L1375.62 35.1335 Q1373.61 35.9842 1371.51 36.4298 Q1369.4 36.8754 1367.23 36.8754 Q1361.8 36.8754 1358.62 33.7157 Q1355.46 30.556 1355.46 25.1683 Q1355.46 19.5983 1358.46 16.3373 Q1361.48 13.0561 1366.58 13.0561 Q1371.16 13.0561 1373.81 16.0132 Q1376.49 18.9501 1376.49 24.0138 M1372.76 22.92 Q1372.72 19.8616 1371.04 18.0387 Q1369.38 16.2158 1366.62 16.2158 Q1363.5 16.2158 1361.62 17.9779 Q1359.76 19.7401 1359.47 22.9403 L1372.76 22.92 Z" fill="#000000" fill-rule="nonzero" fill-opacity="1" /><path clip-path="url(#clip960)" d="M1382.6 4.77197 L1386.33 4.77197 L1386.33 36.288 L1382.6 36.288 L1382.6 4.77197 Z" fill="#000000" fill-rule="nonzero" fill-opacity="1" /><path clip-path="url(#clip960)" d="M1394.13 4.77197 L1397.86 4.77197 L1397.86 36.288 L1394.13 36.288 L1394.13 4.77197 Z" fill="#000000" fill-rule="nonzero" fill-opacity="1" /><path clip-path="url(#clip960)" d="M1414.61 4.81247 Q1411.89 9.47101 1410.58 14.0283 Q1409.26 18.5855 1409.26 23.2643 Q1409.26 27.9431 1410.58 32.5409 Q1411.91 37.1184 1414.61 41.7567 L1411.37 41.7567 Q1408.33 36.9969 1406.81 32.3991 Q1405.31 27.8014 1405.31 23.2643 Q1405.31 18.7476 1406.81 14.1701 Q1408.31 9.59254 1411.37 4.81247 L1414.61 4.81247 Z" fill="#000000" fill-rule="nonzero" fill-opacity="1" /><path clip-path="url(#clip960)" d="M1433.61 9.6128 L1423.28 25.7556 L1433.61 25.7556 L1433.61 9.6128 M1432.53 6.048 L1437.68 6.048 L1437.68 25.7556 L1441.99 25.7556 L1441.99 29.1584 L1437.68 29.1584 L1437.68 36.288 L1433.61 36.288 L1433.61 29.1584 L1419.95 29.1584 L1419.95 25.2088 L1432.53 6.048 Z" fill="#000000" fill-rule="nonzero" fill-opacity="1" /><path clip-path="url(#clip960)" d="M1461.9 17.4513 L1487.87 17.4513 L1487.87 20.8541 L1461.9 20.8541 L1461.9 17.4513 M1461.9 25.7151 L1487.87 25.7151 L1487.87 29.1584 L1461.9 29.1584 L1461.9 25.7151 Z" fill="#000000" fill-rule="nonzero" fill-opacity="1" /><path clip-path="url(#clip960)" d="M1496.66 15.8714 L1496.66 12.1851 L1522.62 21.6035 L1522.62 24.9657 L1496.66 34.3841 L1496.66 30.6978 L1517.52 23.3049 L1496.66 15.8714 Z" fill="#000000" fill-rule="nonzero" fill-opacity="1" /><path clip-path="url(#clip960)" d="M1555.88 9.6128 L1545.55 25.7556 L1555.88 25.7556 L1555.88 9.6128 M1554.81 6.048 L1559.95 6.048 L1559.95 25.7556 L1564.27 25.7556 L1564.27 29.1584 L1559.95 29.1584 L1559.95 36.288 L1555.88 36.288 L1555.88 29.1584 L1542.23 29.1584 L1542.23 25.2088 L1554.81 6.048 Z" fill="#000000" fill-rule="nonzero" fill-opacity="1" /><path clip-path="url(#clip960)" d="M1569.92 4.81247 L1573.16 4.81247 Q1576.2 9.59254 1577.7 14.1701 Q1579.22 18.7476 1579.22 23.2643 Q1579.22 27.8014 1577.7 32.3991 Q1576.2 36.9969 1573.16 41.7567 L1569.92 41.7567 Q1572.61 37.1184 1573.93 32.5409 Q1575.27 27.9431 1575.27 23.2643 Q1575.27 18.5855 1573.93 14.0283 Q1572.61 9.47101 1569.92 4.81247 Z" fill="#000000" fill-rule="nonzero" fill-opacity="1" /><path clip-path="url(#clip960)" d="M1586.1 4.81247 L1589.34 4.81247 Q1592.38 9.59254 1593.88 14.1701 Q1595.4 18.7476 1595.4 23.2643 Q1595.4 27.8014 1593.88 32.3991 Q1592.38 36.9969 1589.34 41.7567 L1586.1 41.7567 Q1588.8 37.1184 1590.11 32.5409 Q1591.45 27.9431 1591.45 23.2643 Q1591.45 18.5855 1590.11 14.0283 Q1588.8 9.47101 1586.1 4.81247 Z" fill="#000000" fill-rule="nonzero" fill-opacity="1" /><path clip-path="url(#clip960)" d="M1603.82 31.1434 L1608.1 31.1434 L1608.1 34.6271 L1604.78 41.1086 L1602.16 41.1086 L1603.82 34.6271 L1603.82 31.1434 Z" fill="#000000" fill-rule="nonzero" fill-opacity="1" /><path clip-path="url(#clip960)" d="M1643.75 22.1098 Q1645.06 22.5554 1646.3 24.0138 Q1647.55 25.4721 1648.81 28.0242 L1652.96 36.288 L1648.57 36.288 L1644.7 28.5305 Q1643.2 25.4923 1641.78 24.4999 Q1640.38 23.5074 1637.95 23.5074 L1633.5 23.5074 L1633.5 36.288 L1629.41 36.288 L1629.41 6.048 L1638.64 6.048 Q1643.83 6.048 1646.38 8.21523 Q1648.93 10.3825 1648.93 14.7574 Q1648.93 17.6133 1647.59 19.497 Q1646.28 21.3807 1643.75 22.1098 M1633.5 9.41025 L1633.5 20.1451 L1638.64 20.1451 Q1641.6 20.1451 1643.1 18.7881 Q1644.62 17.4108 1644.62 14.7574 Q1644.62 12.1041 1643.1 10.7673 Q1641.6 9.41025 1638.64 9.41025 L1633.5 9.41025 Z" fill="#000000" fill-rule="nonzero" fill-opacity="1" /><path clip-path="url(#clip960)" d="M1675.61 24.0138 L1675.61 25.8367 L1658.47 25.8367 Q1658.71 29.685 1660.78 31.7105 Q1662.87 33.7157 1666.57 33.7157 Q1668.72 33.7157 1670.73 33.1891 Q1672.75 32.6624 1674.74 31.6092 L1674.74 35.1335 Q1672.73 35.9842 1670.62 36.4298 Q1668.52 36.8754 1666.35 36.8754 Q1660.92 36.8754 1657.74 33.7157 Q1654.58 30.556 1654.58 25.1683 Q1654.58 19.5983 1657.58 16.3373 Q1660.6 13.0561 1665.7 13.0561 Q1670.28 13.0561 1672.93 16.0132 Q1675.61 18.9501 1675.61 24.0138 M1671.88 22.92 Q1671.84 19.8616 1670.16 18.0387 Q1668.5 16.2158 1665.74 16.2158 Q1662.62 16.2158 1660.74 17.9779 Q1658.88 19.7401 1658.59 22.9403 L1671.88 22.92 Z" fill="#000000" fill-rule="nonzero" fill-opacity="1" /><path clip-path="url(#clip960)" d="M1698.05 14.4739 L1698.05 17.9577 Q1696.47 17.0867 1694.87 16.6614 Q1693.29 16.2158 1691.67 16.2158 Q1688.04 16.2158 1686.04 18.5248 Q1684.03 20.8135 1684.03 24.9657 Q1684.03 29.1179 1686.04 31.4269 Q1688.04 33.7157 1691.67 33.7157 Q1693.29 33.7157 1694.87 33.2903 Q1696.47 32.8447 1698.05 31.9738 L1698.05 35.4171 Q1696.49 36.1462 1694.81 36.5108 Q1693.15 36.8754 1691.26 36.8754 Q1686.14 36.8754 1683.12 33.6549 Q1680.1 30.4344 1680.1 24.9657 Q1680.1 19.416 1683.14 16.236 Q1686.2 13.0561 1691.51 13.0561 Q1693.23 13.0561 1694.87 13.4206 Q1696.51 13.765 1698.05 14.4739 Z" fill="#000000" fill-rule="nonzero" fill-opacity="1" /><path clip-path="url(#clip960)" d="M1704.15 27.3355 L1704.15 13.6029 L1707.87 13.6029 L1707.87 27.1937 Q1707.87 30.4142 1709.13 32.0346 Q1710.38 33.6347 1712.9 33.6347 Q1715.91 33.6347 1717.65 31.7105 Q1719.42 29.7863 1719.42 26.4646 L1719.42 13.6029 L1723.14 13.6029 L1723.14 36.288 L1719.42 36.288 L1719.42 32.8042 Q1718.06 34.8702 1716.26 35.8829 Q1714.47 36.8754 1712.11 36.8754 Q1708.2 36.8754 1706.17 34.4448 Q1704.15 32.0143 1704.15 27.3355 M1713.52 13.0561 L1713.52 13.0561 Z" fill="#000000" fill-rule="nonzero" fill-opacity="1" /><path clip-path="url(#clip960)" d="M1743.97 17.0867 Q1743.34 16.7221 1742.59 16.5601 Q1741.86 16.3778 1740.97 16.3778 Q1737.81 16.3778 1736.11 18.4438 Q1734.43 20.4895 1734.43 24.3378 L1734.43 36.288 L1730.68 36.288 L1730.68 13.6029 L1734.43 13.6029 L1734.43 17.1272 Q1735.6 15.0613 1737.48 14.0688 Q1739.37 13.0561 1742.06 13.0561 Q1742.45 13.0561 1742.91 13.1168 Q1743.38 13.1573 1743.95 13.2586 L1743.97 17.0867 Z" fill="#000000" fill-rule="nonzero" fill-opacity="1" /><path clip-path="url(#clip960)" d="M1756.83 4.81247 Q1754.11 9.47101 1752.8 14.0283 Q1751.48 18.5855 1751.48 23.2643 Q1751.48 27.9431 1752.8 32.5409 Q1754.13 37.1184 1756.83 41.7567 L1753.59 41.7567 Q1750.55 36.9969 1749.03 32.3991 Q1747.53 27.8014 1747.53 23.2643 Q1747.53 18.7476 1749.03 14.1701 Q1750.53 9.59254 1753.59 4.81247 L1756.83 4.81247 Z" fill="#000000" fill-rule="nonzero" fill-opacity="1" /><path clip-path="url(#clip960)" d="M1784.84 31.9738 L1784.84 23.8517 L1778.16 23.8517 L1778.16 20.4895 L1788.89 20.4895 L1788.89 33.4726 Q1786.52 35.1537 1783.66 36.0247 Q1780.81 36.8754 1777.57 36.8754 Q1770.48 36.8754 1766.47 32.7435 Q1762.48 28.5913 1762.48 21.1984 Q1762.48 13.7852 1766.47 9.6533 Q1770.48 5.50113 1777.57 5.50113 Q1780.52 5.50113 1783.18 6.23029 Q1785.85 6.95945 1788.1 8.37727 L1788.1 12.732 Q1785.83 10.8078 1783.28 9.8356 Q1780.73 8.86338 1777.91 8.86338 Q1772.36 8.86338 1769.57 11.9623 Q1766.79 15.0613 1766.79 21.1984 Q1766.79 27.3152 1769.57 30.4142 Q1772.36 33.5131 1777.91 33.5131 Q1780.08 33.5131 1781.78 33.1485 Q1783.48 32.7637 1784.84 31.9738 Z" fill="#000000" fill-rule="nonzero" fill-opacity="1" /><path clip-path="url(#clip960)" d="M1810.7 22.1098 Q1812.02 22.5554 1813.26 24.0138 Q1814.51 25.4721 1815.77 28.0242 L1819.92 36.288 L1815.52 36.288 L1811.66 28.5305 Q1810.16 25.4923 1808.74 24.4999 Q1807.34 23.5074 1804.91 23.5074 L1800.46 23.5074 L1800.46 36.288 L1796.36 36.288 L1796.36 6.048 L1805.6 6.048 Q1810.79 6.048 1813.34 8.21523 Q1815.89 10.3825 1815.89 14.7574 Q1815.89 17.6133 1814.55 19.497 Q1813.24 21.3807 1810.7 22.1098 M1800.46 9.41025 L1800.46 20.1451 L1805.6 20.1451 Q1808.56 20.1451 1810.06 18.7881 Q1811.58 17.4108 1811.58 14.7574 Q1811.58 12.1041 1810.06 10.7673 Q1808.56 9.41025 1805.6 9.41025 L1800.46 9.41025 Z" fill="#000000" fill-rule="nonzero" fill-opacity="1" /><path clip-path="url(#clip960)" d="M1824.72 6.048 L1828.83 6.048 L1828.83 24.4189 Q1828.83 29.2799 1830.59 31.4269 Q1832.36 33.5536 1836.31 33.5536 Q1840.24 33.5536 1842 31.4269 Q1843.76 29.2799 1843.76 24.4189 L1843.76 6.048 L1847.87 6.048 L1847.87 24.9252 Q1847.87 30.8395 1844.93 33.8575 Q1842.02 36.8754 1836.31 36.8754 Q1830.57 36.8754 1827.64 33.8575 Q1824.72 30.8395 1824.72 24.9252 L1824.72 6.048 Z" fill="#000000" fill-rule="nonzero" fill-opacity="1" /><path clip-path="url(#clip960)" d="M1878.19 8.37727 L1878.19 12.6915 Q1876.13 10.7673 1873.78 9.81534 Q1871.45 8.86338 1868.81 8.86338 Q1863.63 8.86338 1860.87 12.0433 Q1858.12 15.203 1858.12 21.1984 Q1858.12 27.1735 1860.87 30.3534 Q1863.63 33.5131 1868.81 33.5131 Q1871.45 33.5131 1873.78 32.5612 Q1876.13 31.6092 1878.19 29.685 L1878.19 33.9587 Q1876.05 35.4171 1873.63 36.1462 Q1871.24 36.8754 1868.57 36.8754 Q1861.71 36.8754 1857.76 32.6827 Q1853.81 28.4698 1853.81 21.1984 Q1853.81 13.9068 1857.76 9.71407 Q1861.71 5.50113 1868.57 5.50113 Q1871.29 5.50113 1873.68 6.23029 Q1876.09 6.9392 1878.19 8.37727 Z" fill="#000000" fill-rule="nonzero" fill-opacity="1" /><path clip-path="url(#clip960)" d="M1903.75 24.0138 L1903.75 25.8367 L1886.62 25.8367 Q1886.86 29.685 1888.93 31.7105 Q1891.01 33.7157 1894.72 33.7157 Q1896.87 33.7157 1898.87 33.1891 Q1900.9 32.6624 1902.88 31.6092 L1902.88 35.1335 Q1900.88 35.9842 1898.77 36.4298 Q1896.66 36.8754 1894.5 36.8754 Q1889.07 36.8754 1885.89 33.7157 Q1882.73 30.556 1882.73 25.1683 Q1882.73 19.5983 1885.73 16.3373 Q1888.74 13.0561 1893.85 13.0561 Q1898.43 13.0561 1901.08 16.0132 Q1903.75 18.9501 1903.75 24.0138 M1900.03 22.92 Q1899.99 19.8616 1898.3 18.0387 Q1896.64 16.2158 1893.89 16.2158 Q1890.77 16.2158 1888.89 17.9779 Q1887.02 19.7401 1886.74 22.9403 L1900.03 22.92 Z" fill="#000000" fill-rule="nonzero" fill-opacity="1" /><path clip-path="url(#clip960)" d="M1909.87 4.77197 L1913.6 4.77197 L1913.6 36.288 L1909.87 36.288 L1909.87 4.77197 Z" fill="#000000" fill-rule="nonzero" fill-opacity="1" /><path clip-path="url(#clip960)" d="M1921.4 4.77197 L1925.12 4.77197 L1925.12 36.288 L1921.4 36.288 L1921.4 4.77197 Z" fill="#000000" fill-rule="nonzero" fill-opacity="1" /><path clip-path="url(#clip960)" d="M1941.87 4.81247 Q1939.16 9.47101 1937.84 14.0283 Q1936.53 18.5855 1936.53 23.2643 Q1936.53 27.9431 1937.84 32.5409 Q1939.18 37.1184 1941.87 41.7567 L1938.63 41.7567 Q1935.59 36.9969 1934.07 32.3991 Q1932.58 27.8014 1932.58 23.2643 Q1932.58 18.7476 1934.07 14.1701 Q1935.57 9.59254 1938.63 4.81247 L1941.87 4.81247 Z" fill="#000000" fill-rule="nonzero" fill-opacity="1" /><path clip-path="url(#clip960)" d="M1960.87 9.6128 L1950.54 25.7556 L1960.87 25.7556 L1960.87 9.6128 M1959.8 6.048 L1964.94 6.048 L1964.94 25.7556 L1969.26 25.7556 L1969.26 29.1584 L1964.94 29.1584 L1964.94 36.288 L1960.87 36.288 L1960.87 29.1584 L1947.22 29.1584 L1947.22 25.2088 L1959.8 6.048 Z" fill="#000000" fill-rule="nonzero" fill-opacity="1" /><path clip-path="url(#clip960)" d="M1989.17 17.4513 L2015.13 17.4513 L2015.13 20.8541 L1989.17 20.8541 L1989.17 17.4513 M1989.17 25.7151 L2015.13 25.7151 L2015.13 29.1584 L1989.17 29.1584 L1989.17 25.7151 Z" fill="#000000" fill-rule="nonzero" fill-opacity="1" /><path clip-path="url(#clip960)" d="M2023.92 15.8714 L2023.92 12.1851 L2049.89 21.6035 L2049.89 24.9657 L2023.92 34.3841 L2023.92 30.6978 L2044.79 23.3049 L2023.92 15.8714 Z" fill="#000000" fill-rule="nonzero" fill-opacity="1" /><path clip-path="url(#clip960)" d="M2083.15 9.6128 L2072.82 25.7556 L2083.15 25.7556 L2083.15 9.6128 M2082.07 6.048 L2087.22 6.048 L2087.22 25.7556 L2091.53 25.7556 L2091.53 29.1584 L2087.22 29.1584 L2087.22 36.288 L2083.15 36.288 L2083.15 29.1584 L2069.5 29.1584 L2069.5 25.2088 L2082.07 6.048 Z" fill="#000000" fill-rule="nonzero" fill-opacity="1" /><path clip-path="url(#clip960)" d="M2097.18 4.81247 L2100.42 4.81247 Q2103.46 9.59254 2104.96 14.1701 Q2106.48 18.7476 2106.48 23.2643 Q2106.48 27.8014 2104.96 32.3991 Q2103.46 36.9969 2100.42 41.7567 L2097.18 41.7567 Q2099.88 37.1184 2101.19 32.5409 Q2102.53 27.9431 2102.53 23.2643 Q2102.53 18.5855 2101.19 14.0283 Q2099.88 9.47101 2097.18 4.81247 Z" fill="#000000" fill-rule="nonzero" fill-opacity="1" /><path clip-path="url(#clip960)" d="M2113.37 4.81247 L2116.61 4.81247 Q2119.65 9.59254 2121.15 14.1701 Q2122.66 18.7476 2122.66 23.2643 Q2122.66 27.8014 2121.15 32.3991 Q2119.65 36.9969 2116.61 41.7567 L2113.37 41.7567 Q2116.06 37.1184 2117.38 32.5409 Q2118.71 27.9431 2118.71 23.2643 Q2118.71 18.5855 2117.38 14.0283 Q2116.06 9.47101 2113.37 4.81247 Z" fill="#000000" fill-rule="nonzero" fill-opacity="1" /><path clip-path="url(#clip960)" d="M2131.09 31.1434 L2135.36 31.1434 L2135.36 34.6271 L2132.04 41.1086 L2129.43 41.1086 L2131.09 34.6271 L2131.09 31.1434 Z" fill="#000000" fill-rule="nonzero" fill-opacity="1" /><path clip-path="url(#clip960)" d="M2160.76 9.41025 L2160.76 32.9257 L2165.71 32.9257 Q2171.96 32.9257 2174.86 30.0901 Q2177.78 27.2545 2177.78 21.1376 Q2177.78 15.0613 2174.86 12.2459 Q2171.96 9.41025 2165.71 9.41025 L2160.76 9.41025 M2156.67 6.048 L2165.08 6.048 Q2173.87 6.048 2177.98 9.71407 Q2182.09 13.3599 2182.09 21.1376 Q2182.09 28.9559 2177.96 32.6219 Q2173.83 36.288 2165.08 36.288 L2156.67 36.288 L2156.67 6.048 Z" fill="#000000" fill-rule="nonzero" fill-opacity="1" /><path clip-path="url(#clip960)" d="M2207.85 24.0138 L2207.85 25.8367 L2190.72 25.8367 Q2190.96 29.685 2193.03 31.7105 Q2195.11 33.7157 2198.82 33.7157 Q2200.97 33.7157 2202.97 33.1891 Q2205 32.6624 2206.98 31.6092 L2206.98 35.1335 Q2204.98 35.9842 2202.87 36.4298 Q2200.77 36.8754 2198.6 36.8754 Q2193.17 36.8754 2189.99 33.7157 Q2186.83 30.556 2186.83 25.1683 Q2186.83 19.5983 2189.83 16.3373 Q2192.85 13.0561 2197.95 13.0561 Q2202.53 13.0561 2205.18 16.0132 Q2207.85 18.9501 2207.85 24.0138 M2204.13 22.92 Q2204.09 19.8616 2202.41 18.0387 Q2200.75 16.2158 2197.99 16.2158 Q2194.87 16.2158 2192.99 17.9779 Q2191.12 19.7401 2190.84 22.9403 L2204.13 22.92 Z" fill="#000000" fill-rule="nonzero" fill-opacity="1" /><path clip-path="url(#clip960)" d="M2232.83 22.5959 L2232.83 36.288 L2229.1 36.288 L2229.1 22.7175 Q2229.1 19.497 2227.85 17.8969 Q2226.59 16.2968 2224.08 16.2968 Q2221.06 16.2968 2219.32 18.221 Q2217.58 20.1451 2217.58 23.4669 L2217.58 36.288 L2213.83 36.288 L2213.83 13.6029 L2217.58 13.6029 L2217.58 17.1272 Q2218.91 15.0815 2220.72 14.0688 Q2222.54 13.0561 2224.91 13.0561 Q2228.82 13.0561 2230.82 15.4866 Q2232.83 17.8969 2232.83 22.5959 Z" fill="#000000" fill-rule="nonzero" fill-opacity="1" /><path clip-path="url(#clip960)" d="M2254.72 14.2713 L2254.72 17.7956 Q2253.14 16.9854 2251.44 16.5804 Q2249.74 16.1753 2247.92 16.1753 Q2245.14 16.1753 2243.75 17.026 Q2242.37 17.8766 2242.37 19.578 Q2242.37 20.8743 2243.36 21.6237 Q2244.35 22.3529 2247.35 23.0213 L2248.63 23.3049 Q2252.6 24.1555 2254.26 25.7151 Q2255.94 27.2545 2255.94 30.0294 Q2255.94 33.1891 2253.43 35.0322 Q2250.94 36.8754 2246.56 36.8754 Q2244.74 36.8754 2242.75 36.5108 Q2240.79 36.1665 2238.6 35.4576 L2238.6 31.6092 Q2240.67 32.6827 2242.67 33.2296 Q2244.68 33.7562 2246.64 33.7562 Q2249.28 33.7562 2250.69 32.865 Q2252.11 31.9535 2252.11 30.3129 Q2252.11 28.7938 2251.08 27.9836 Q2250.07 27.1735 2246.6 26.424 L2245.31 26.1202 Q2241.84 25.3911 2240.3 23.8922 Q2238.76 22.3731 2238.76 19.7401 Q2238.76 16.5398 2241.03 14.798 Q2243.3 13.0561 2247.47 13.0561 Q2249.54 13.0561 2251.36 13.3599 Q2253.18 13.6637 2254.72 14.2713 Z" fill="#000000" fill-rule="nonzero" fill-opacity="1" /><path clip-path="url(#clip960)" d="M2281.28 24.0138 L2281.28 25.8367 L2264.14 25.8367 Q2264.39 29.685 2266.45 31.7105 Q2268.54 33.7157 2272.24 33.7157 Q2274.39 33.7157 2276.4 33.1891 Q2278.42 32.6624 2280.41 31.6092 L2280.41 35.1335 Q2278.4 35.9842 2276.29 36.4298 Q2274.19 36.8754 2272.02 36.8754 Q2266.59 36.8754 2263.41 33.7157 Q2260.25 30.556 2260.25 25.1683 Q2260.25 19.5983 2263.25 16.3373 Q2266.27 13.0561 2271.37 13.0561 Q2275.95 13.0561 2278.6 16.0132 Q2281.28 18.9501 2281.28 24.0138 M2277.55 22.92 Q2277.51 19.8616 2275.83 18.0387 Q2274.17 16.2158 2271.41 16.2158 Q2268.29 16.2158 2266.41 17.9779 Q2264.55 19.7401 2264.26 22.9403 L2277.55 22.92 Z" fill="#000000" fill-rule="nonzero" fill-opacity="1" /><path clip-path="url(#clip960)" d="M2296.35 4.81247 Q2293.63 9.47101 2292.32 14.0283 Q2291 18.5855 2291 23.2643 Q2291 27.9431 2292.32 32.5409 Q2293.65 37.1184 2296.35 41.7567 L2293.11 41.7567 Q2290.07 36.9969 2288.55 32.3991 Q2287.05 27.8014 2287.05 23.2643 Q2287.05 18.7476 2288.55 14.1701 Q2290.05 9.59254 2293.11 4.81247 L2296.35 4.81247 Z" fill="#000000" fill-rule="nonzero" fill-opacity="1" /><path clip-path="url(#clip960)" d="M2315.35 9.6128 L2305.02 25.7556 L2315.35 25.7556 L2315.35 9.6128 M2314.27 6.048 L2319.42 6.048 L2319.42 25.7556 L2323.73 25.7556 L2323.73 29.1584 L2319.42 29.1584 L2319.42 36.288 L2315.35 36.288 L2315.35 29.1584 L2301.69 29.1584 L2301.69 25.2088 L2314.27 6.048 Z" fill="#000000" fill-rule="nonzero" fill-opacity="1" /><path clip-path="url(#clip960)" d="M2343.64 17.4513 L2369.61 17.4513 L2369.61 20.8541 L2343.64 20.8541 L2343.64 17.4513 M2343.64 25.7151 L2369.61 25.7151 L2369.61 29.1584 L2343.64 29.1584 L2343.64 25.7151 Z" fill="#000000" fill-rule="nonzero" fill-opacity="1" /><path clip-path="url(#clip960)" d="M2378.4 15.8714 L2378.4 12.1851 L2404.36 21.6035 L2404.36 24.9657 L2378.4 34.3841 L2378.4 30.6978 L2399.26 23.3049 L2378.4 15.8714 Z" fill="#000000" fill-rule="nonzero" fill-opacity="1" /><path clip-path="url(#clip960)" d="M2438.78 19.9831 Q2441.71 20.611 2443.35 22.5959 Q2445.02 24.5809 2445.02 27.4975 Q2445.02 31.9738 2441.94 34.4246 Q2438.86 36.8754 2433.19 36.8754 Q2431.28 36.8754 2429.26 36.4905 Q2427.25 36.126 2425.1 35.3765 L2425.1 31.4269 Q2426.81 32.4194 2428.83 32.9257 Q2430.86 33.4321 2433.06 33.4321 Q2436.91 33.4321 2438.92 31.913 Q2440.94 30.3939 2440.94 27.4975 Q2440.94 24.8239 2439.06 23.3251 Q2437.2 21.806 2433.85 21.806 L2430.33 21.806 L2430.33 18.4438 L2434.02 18.4438 Q2437.03 18.4438 2438.63 17.2488 Q2440.23 16.0335 2440.23 13.765 Q2440.23 11.4357 2438.57 10.2002 Q2436.93 8.9444 2433.85 8.9444 Q2432.17 8.9444 2430.25 9.30898 Q2428.33 9.67356 2426.02 10.4432 L2426.02 6.79742 Q2428.35 6.14927 2430.37 5.8252 Q2432.42 5.50113 2434.22 5.50113 Q2438.88 5.50113 2441.59 7.62785 Q2444.31 9.73432 2444.31 13.3396 Q2444.31 15.8512 2442.87 17.5931 Q2441.43 19.3147 2438.78 19.9831 Z" fill="#000000" fill-rule="nonzero" fill-opacity="1" /><path clip-path="url(#clip960)" d="M2451.66 4.81247 L2454.9 4.81247 Q2457.94 9.59254 2459.44 14.1701 Q2460.96 18.7476 2460.96 23.2643 Q2460.96 27.8014 2459.44 32.3991 Q2457.94 36.9969 2454.9 41.7567 L2451.66 41.7567 Q2454.35 37.1184 2455.67 32.5409 Q2457.01 27.9431 2457.01 23.2643 Q2457.01 18.5855 2455.67 14.0283 Q2454.35 9.47101 2451.66 4.81247 Z" fill="#000000" fill-rule="nonzero" fill-opacity="1" /><path clip-path="url(#clip960)" d="M2467.84 4.81247 L2471.08 4.81247 Q2474.12 9.59254 2475.62 14.1701 Q2477.14 18.7476 2477.14 23.2643 Q2477.14 27.8014 2475.62 32.3991 Q2474.12 36.9969 2471.08 41.7567 L2467.84 41.7567 Q2470.54 37.1184 2471.85 32.5409 Q2473.19 27.9431 2473.19 23.2643 Q2473.19 18.5855 2471.85 14.0283 Q2470.54 9.47101 2467.84 4.81247 Z" fill="#000000" fill-rule="nonzero" fill-opacity="1" /><polyline clip-path="url(#clip962)" style="stroke:#adadad; stroke-linecap:round; stroke-linejoin:round; stroke-width:4; stroke-opacity:1; fill:none" points="376.603,860.821 705.962,1105.8 "/>
<polyline clip-path="url(#clip962)" style="stroke:#adadad; stroke-linecap:round; stroke-linejoin:round; stroke-width:4; stroke-opacity:1; fill:none" points="376.603,860.821 705.962,942.479 "/>
<polyline clip-path="url(#clip962)" style="stroke:#adadad; stroke-linecap:round; stroke-linejoin:round; stroke-width:4; stroke-opacity:1; fill:none" points="376.603,860.821 705.962,779.162 "/>
<polyline clip-path="url(#clip962)" style="stroke:#adadad; stroke-linecap:round; stroke-linejoin:round; stroke-width:4; stroke-opacity:1; fill:none" points="376.603,860.821 705.962,615.846 "/>
<polyline clip-path="url(#clip962)" style="stroke:#adadad; stroke-linecap:round; stroke-linejoin:round; stroke-width:4; stroke-opacity:1; fill:none" points="376.603,860.821 705.962,452.529 "/>
<polyline clip-path="url(#clip962)" style="stroke:#adadad; stroke-linecap:round; stroke-linejoin:round; stroke-width:4; stroke-opacity:1; fill:none" points="376.603,697.504 705.962,1105.8 "/>
<polyline clip-path="url(#clip962)" style="stroke:#adadad; stroke-linecap:round; stroke-linejoin:round; stroke-width:4; stroke-opacity:1; fill:none" points="376.603,697.504 705.962,942.479 "/>
<polyline clip-path="url(#clip962)" style="stroke:#adadad; stroke-linecap:round; stroke-linejoin:round; stroke-width:4; stroke-opacity:1; fill:none" points="376.603,697.504 705.962,779.162 "/>
<polyline clip-path="url(#clip962)" style="stroke:#adadad; stroke-linecap:round; stroke-linejoin:round; stroke-width:4; stroke-opacity:1; fill:none" points="376.603,697.504 705.962,615.846 "/>
<polyline clip-path="url(#clip962)" style="stroke:#adadad; stroke-linecap:round; stroke-linejoin:round; stroke-width:4; stroke-opacity:1; fill:none" points="376.603,697.504 705.962,452.529 "/>
<polyline clip-path="url(#clip962)" style="stroke:#adadad; stroke-linecap:round; stroke-linejoin:round; stroke-width:4; stroke-opacity:1; fill:none" points="705.962,1105.8 1035.32,1024.14 "/>
<polyline clip-path="url(#clip962)" style="stroke:#adadad; stroke-linecap:round; stroke-linejoin:round; stroke-width:4; stroke-opacity:1; fill:none" points="705.962,1105.8 1035.32,860.821 "/>
<polyline clip-path="url(#clip962)" style="stroke:#adadad; stroke-linecap:round; stroke-linejoin:round; stroke-width:4; stroke-opacity:1; fill:none" points="705.962,1105.8 1035.32,697.504 "/>
<polyline clip-path="url(#clip962)" style="stroke:#adadad; stroke-linecap:round; stroke-linejoin:round; stroke-width:4; stroke-opacity:1; fill:none" points="705.962,1105.8 1035.32,534.187 "/>
<polyline clip-path="url(#clip962)" style="stroke:#adadad; stroke-linecap:round; stroke-linejoin:round; stroke-width:4; stroke-opacity:1; fill:none" points="705.962,942.479 1035.32,1024.14 "/>
<polyline clip-path="url(#clip962)" style="stroke:#adadad; stroke-linecap:round; stroke-linejoin:round; stroke-width:4; stroke-opacity:1; fill:none" points="705.962,942.479 1035.32,860.821 "/>
<polyline clip-path="url(#clip962)" style="stroke:#adadad; stroke-linecap:round; stroke-linejoin:round; stroke-width:4; stroke-opacity:1; fill:none" points="705.962,942.479 1035.32,697.504 "/>
<polyline clip-path="url(#clip962)" style="stroke:#adadad; stroke-linecap:round; stroke-linejoin:round; stroke-width:4; stroke-opacity:1; fill:none" points="705.962,942.479 1035.32,534.187 "/>
<polyline clip-path="url(#clip962)" style="stroke:#adadad; stroke-linecap:round; stroke-linejoin:round; stroke-width:4; stroke-opacity:1; fill:none" points="705.962,779.162 1035.32,1024.14 "/>
<polyline clip-path="url(#clip962)" style="stroke:#adadad; stroke-linecap:round; stroke-linejoin:round; stroke-width:4; stroke-opacity:1; fill:none" points="705.962,779.162 1035.32,860.821 "/>
<polyline clip-path="url(#clip962)" style="stroke:#adadad; stroke-linecap:round; stroke-linejoin:round; stroke-width:4; stroke-opacity:1; fill:none" points="705.962,779.162 1035.32,697.504 "/>
<polyline clip-path="url(#clip962)" style="stroke:#adadad; stroke-linecap:round; stroke-linejoin:round; stroke-width:4; stroke-opacity:1; fill:none" points="705.962,779.162 1035.32,534.187 "/>
<polyline clip-path="url(#clip962)" style="stroke:#adadad; stroke-linecap:round; stroke-linejoin:round; stroke-width:4; stroke-opacity:1; fill:none" points="705.962,615.846 1035.32,1024.14 "/>
<polyline clip-path="url(#clip962)" style="stroke:#adadad; stroke-linecap:round; stroke-linejoin:round; stroke-width:4; stroke-opacity:1; fill:none" points="705.962,615.846 1035.32,860.821 "/>
<polyline clip-path="url(#clip962)" style="stroke:#adadad; stroke-linecap:round; stroke-linejoin:round; stroke-width:4; stroke-opacity:1; fill:none" points="705.962,615.846 1035.32,697.504 "/>
<polyline clip-path="url(#clip962)" style="stroke:#adadad; stroke-linecap:round; stroke-linejoin:round; stroke-width:4; stroke-opacity:1; fill:none" points="705.962,615.846 1035.32,534.187 "/>
<polyline clip-path="url(#clip962)" style="stroke:#adadad; stroke-linecap:round; stroke-linejoin:round; stroke-width:4; stroke-opacity:1; fill:none" points="705.962,452.529 1035.32,1024.14 "/>
<polyline clip-path="url(#clip962)" style="stroke:#adadad; stroke-linecap:round; stroke-linejoin:round; stroke-width:4; stroke-opacity:1; fill:none" points="705.962,452.529 1035.32,860.821 "/>
<polyline clip-path="url(#clip962)" style="stroke:#adadad; stroke-linecap:round; stroke-linejoin:round; stroke-width:4; stroke-opacity:1; fill:none" points="705.962,452.529 1035.32,697.504 "/>
<polyline clip-path="url(#clip962)" style="stroke:#adadad; stroke-linecap:round; stroke-linejoin:round; stroke-width:4; stroke-opacity:1; fill:none" points="705.962,452.529 1035.32,534.187 "/>
<polyline clip-path="url(#clip962)" style="stroke:#adadad; stroke-linecap:round; stroke-linejoin:round; stroke-width:4; stroke-opacity:1; fill:none" points="1035.32,1024.14 1364.68,1024.14 "/>
<polyline clip-path="url(#clip962)" style="stroke:#adadad; stroke-linecap:round; stroke-linejoin:round; stroke-width:4; stroke-opacity:1; fill:none" points="1035.32,1024.14 1364.68,860.821 "/>
<polyline clip-path="url(#clip962)" style="stroke:#adadad; stroke-linecap:round; stroke-linejoin:round; stroke-width:4; stroke-opacity:1; fill:none" points="1035.32,1024.14 1364.68,697.504 "/>
<polyline clip-path="url(#clip962)" style="stroke:#adadad; stroke-linecap:round; stroke-linejoin:round; stroke-width:4; stroke-opacity:1; fill:none" points="1035.32,1024.14 1364.68,534.187 "/>
<polyline clip-path="url(#clip962)" style="stroke:#adadad; stroke-linecap:round; stroke-linejoin:round; stroke-width:4; stroke-opacity:1; fill:none" points="1035.32,860.821 1364.68,1024.14 "/>
<polyline clip-path="url(#clip962)" style="stroke:#adadad; stroke-linecap:round; stroke-linejoin:round; stroke-width:4; stroke-opacity:1; fill:none" points="1035.32,860.821 1364.68,860.821 "/>
<polyline clip-path="url(#clip962)" style="stroke:#adadad; stroke-linecap:round; stroke-linejoin:round; stroke-width:4; stroke-opacity:1; fill:none" points="1035.32,860.821 1364.68,697.504 "/>
<polyline clip-path="url(#clip962)" style="stroke:#adadad; stroke-linecap:round; stroke-linejoin:round; stroke-width:4; stroke-opacity:1; fill:none" points="1035.32,860.821 1364.68,534.187 "/>
<polyline clip-path="url(#clip962)" style="stroke:#adadad; stroke-linecap:round; stroke-linejoin:round; stroke-width:4; stroke-opacity:1; fill:none" points="1035.32,697.504 1364.68,1024.14 "/>
<polyline clip-path="url(#clip962)" style="stroke:#adadad; stroke-linecap:round; stroke-linejoin:round; stroke-width:4; stroke-opacity:1; fill:none" points="1035.32,697.504 1364.68,860.821 "/>
<polyline clip-path="url(#clip962)" style="stroke:#adadad; stroke-linecap:round; stroke-linejoin:round; stroke-width:4; stroke-opacity:1; fill:none" points="1035.32,697.504 1364.68,697.504 "/>
<polyline clip-path="url(#clip962)" style="stroke:#adadad; stroke-linecap:round; stroke-linejoin:round; stroke-width:4; stroke-opacity:1; fill:none" points="1035.32,697.504 1364.68,534.187 "/>
<polyline clip-path="url(#clip962)" style="stroke:#adadad; stroke-linecap:round; stroke-linejoin:round; stroke-width:4; stroke-opacity:1; fill:none" points="1035.32,534.187 1364.68,1024.14 "/>
<polyline clip-path="url(#clip962)" style="stroke:#adadad; stroke-linecap:round; stroke-linejoin:round; stroke-width:4; stroke-opacity:1; fill:none" points="1035.32,534.187 1364.68,860.821 "/>
<polyline clip-path="url(#clip962)" style="stroke:#adadad; stroke-linecap:round; stroke-linejoin:round; stroke-width:4; stroke-opacity:1; fill:none" points="1035.32,534.187 1364.68,697.504 "/>
<polyline clip-path="url(#clip962)" style="stroke:#adadad; stroke-linecap:round; stroke-linejoin:round; stroke-width:4; stroke-opacity:1; fill:none" points="1035.32,534.187 1364.68,534.187 "/>
<polyline clip-path="url(#clip962)" style="stroke:#adadad; stroke-linecap:round; stroke-linejoin:round; stroke-width:4; stroke-opacity:1; fill:none" points="1364.68,1024.14 1694.04,1024.14 "/>
<polyline clip-path="url(#clip962)" style="stroke:#adadad; stroke-linecap:round; stroke-linejoin:round; stroke-width:4; stroke-opacity:1; fill:none" points="1364.68,1024.14 1694.04,860.821 "/>
<polyline clip-path="url(#clip962)" style="stroke:#adadad; stroke-linecap:round; stroke-linejoin:round; stroke-width:4; stroke-opacity:1; fill:none" points="1364.68,1024.14 1694.04,697.504 "/>
<polyline clip-path="url(#clip962)" style="stroke:#adadad; stroke-linecap:round; stroke-linejoin:round; stroke-width:4; stroke-opacity:1; fill:none" points="1364.68,1024.14 1694.04,534.187 "/>
<polyline clip-path="url(#clip962)" style="stroke:#adadad; stroke-linecap:round; stroke-linejoin:round; stroke-width:4; stroke-opacity:1; fill:none" points="1364.68,860.821 1694.04,1024.14 "/>
<polyline clip-path="url(#clip962)" style="stroke:#adadad; stroke-linecap:round; stroke-linejoin:round; stroke-width:4; stroke-opacity:1; fill:none" points="1364.68,860.821 1694.04,860.821 "/>
<polyline clip-path="url(#clip962)" style="stroke:#adadad; stroke-linecap:round; stroke-linejoin:round; stroke-width:4; stroke-opacity:1; fill:none" points="1364.68,860.821 1694.04,697.504 "/>
<polyline clip-path="url(#clip962)" style="stroke:#adadad; stroke-linecap:round; stroke-linejoin:round; stroke-width:4; stroke-opacity:1; fill:none" points="1364.68,860.821 1694.04,534.187 "/>
<polyline clip-path="url(#clip962)" style="stroke:#adadad; stroke-linecap:round; stroke-linejoin:round; stroke-width:4; stroke-opacity:1; fill:none" points="1364.68,697.504 1694.04,1024.14 "/>
<polyline clip-path="url(#clip962)" style="stroke:#adadad; stroke-linecap:round; stroke-linejoin:round; stroke-width:4; stroke-opacity:1; fill:none" points="1364.68,697.504 1694.04,860.821 "/>
<polyline clip-path="url(#clip962)" style="stroke:#adadad; stroke-linecap:round; stroke-linejoin:round; stroke-width:4; stroke-opacity:1; fill:none" points="1364.68,697.504 1694.04,697.504 "/>
<polyline clip-path="url(#clip962)" style="stroke:#adadad; stroke-linecap:round; stroke-linejoin:round; stroke-width:4; stroke-opacity:1; fill:none" points="1364.68,697.504 1694.04,534.187 "/>
<polyline clip-path="url(#clip962)" style="stroke:#adadad; stroke-linecap:round; stroke-linejoin:round; stroke-width:4; stroke-opacity:1; fill:none" points="1364.68,534.187 1694.04,1024.14 "/>
<polyline clip-path="url(#clip962)" style="stroke:#adadad; stroke-linecap:round; stroke-linejoin:round; stroke-width:4; stroke-opacity:1; fill:none" points="1364.68,534.187 1694.04,860.821 "/>
<polyline clip-path="url(#clip962)" style="stroke:#adadad; stroke-linecap:round; stroke-linejoin:round; stroke-width:4; stroke-opacity:1; fill:none" points="1364.68,534.187 1694.04,697.504 "/>
<polyline clip-path="url(#clip962)" style="stroke:#adadad; stroke-linecap:round; stroke-linejoin:round; stroke-width:4; stroke-opacity:1; fill:none" points="1364.68,534.187 1694.04,534.187 "/>
<polyline clip-path="url(#clip962)" style="stroke:#adadad; stroke-linecap:round; stroke-linejoin:round; stroke-width:4; stroke-opacity:1; fill:none" points="1694.04,1024.14 2023.4,942.479 "/>
<polyline clip-path="url(#clip962)" style="stroke:#adadad; stroke-linecap:round; stroke-linejoin:round; stroke-width:4; stroke-opacity:1; fill:none" points="1694.04,1024.14 2023.4,779.162 "/>
<polyline clip-path="url(#clip962)" style="stroke:#adadad; stroke-linecap:round; stroke-linejoin:round; stroke-width:4; stroke-opacity:1; fill:none" points="1694.04,1024.14 2023.4,615.846 "/>
<polyline clip-path="url(#clip962)" style="stroke:#adadad; stroke-linecap:round; stroke-linejoin:round; stroke-width:4; stroke-opacity:1; fill:none" points="1694.04,860.821 2023.4,942.479 "/>
<polyline clip-path="url(#clip962)" style="stroke:#adadad; stroke-linecap:round; stroke-linejoin:round; stroke-width:4; stroke-opacity:1; fill:none" points="1694.04,860.821 2023.4,779.162 "/>
<polyline clip-path="url(#clip962)" style="stroke:#adadad; stroke-linecap:round; stroke-linejoin:round; stroke-width:4; stroke-opacity:1; fill:none" points="1694.04,860.821 2023.4,615.846 "/>
<polyline clip-path="url(#clip962)" style="stroke:#adadad; stroke-linecap:round; stroke-linejoin:round; stroke-width:4; stroke-opacity:1; fill:none" points="1694.04,697.504 2023.4,942.479 "/>
<polyline clip-path="url(#clip962)" style="stroke:#adadad; stroke-linecap:round; stroke-linejoin:round; stroke-width:4; stroke-opacity:1; fill:none" points="1694.04,697.504 2023.4,779.162 "/>
<polyline clip-path="url(#clip962)" style="stroke:#adadad; stroke-linecap:round; stroke-linejoin:round; stroke-width:4; stroke-opacity:1; fill:none" points="1694.04,697.504 2023.4,615.846 "/>
<polyline clip-path="url(#clip962)" style="stroke:#adadad; stroke-linecap:round; stroke-linejoin:round; stroke-width:4; stroke-opacity:1; fill:none" points="1694.04,534.187 2023.4,942.479 "/>
<polyline clip-path="url(#clip962)" style="stroke:#adadad; stroke-linecap:round; stroke-linejoin:round; stroke-width:4; stroke-opacity:1; fill:none" points="1694.04,534.187 2023.4,779.162 "/>
<polyline clip-path="url(#clip962)" style="stroke:#adadad; stroke-linecap:round; stroke-linejoin:round; stroke-width:4; stroke-opacity:1; fill:none" points="1694.04,534.187 2023.4,615.846 "/>
<path clip-path="url(#clip962)" d="M376.603 901.429 L364.054 899.441 L352.734 893.673 L343.75 884.69 L337.982 873.369 L335.995 860.821 L337.982 848.272 L343.75 836.952 L352.734 827.968 L364.054 822.2 L376.603 820.213 L389.151 822.2 L400.472 827.968 L409.455 836.952 L415.223 848.272 L417.211 860.821 L415.223 873.369 L409.455 884.69 L400.472 893.673 L389.151 899.441 L376.603 901.429  Z" fill="#000000" fill-rule="evenodd" fill-opacity="0"/>
<polyline clip-path="url(#clip962)" style="stroke:#000000; stroke-linecap:round; stroke-linejoin:round; stroke-width:4; stroke-opacity:1; fill:none" points="376.603,901.429 364.054,899.441 352.734,893.673 343.75,884.69 337.982,873.369 335.995,860.821 337.982,848.272 343.75,836.952 352.734,827.968 364.054,822.2 376.603,820.213 389.151,822.2 400.472,827.968 409.455,836.952 415.223,848.272 417.211,860.821 415.223,873.369 409.455,884.69 400.472,893.673 389.151,899.441 376.603,901.429 "/>
<path clip-path="url(#clip962)" d="M376.603 738.112 L364.054 736.125 L352.734 730.357 L343.75 721.373 L337.982 710.053 L335.995 697.504 L337.982 684.956 L343.75 673.635 L352.734 664.652 L364.054 658.884 L376.603 656.896 L389.151 658.884 L400.472 664.652 L409.455 673.635 L415.223 684.956 L417.211 697.504 L415.223 710.053 L409.455 721.373 L400.472 730.357 L389.151 736.125 L376.603 738.112  Z" fill="#000000" fill-rule="evenodd" fill-opacity="0"/>
<polyline clip-path="url(#clip962)" style="stroke:#000000; stroke-linecap:round; stroke-linejoin:round; stroke-width:4; stroke-opacity:1; fill:none" points="376.603,738.112 364.054,736.125 352.734,730.357 343.75,721.373 337.982,710.053 335.995,697.504 337.982,684.956 343.75,673.635 352.734,664.652 364.054,658.884 376.603,656.896 389.151,658.884 400.472,664.652 409.455,673.635 415.223,684.956 417.211,697.504 415.223,710.053 409.455,721.373 400.472,730.357 389.151,736.125 376.603,738.112 "/>
<circle clip-path="url(#clip962)" cx="705.962" cy="1105.8" r="43.2" fill="#90ee90" fill-rule="evenodd" fill-opacity="1" stroke="#000000" stroke-opacity="1" stroke-width="3.2"/>
<circle clip-path="url(#clip962)" cx="705.962" cy="942.479" r="43.2" fill="#90ee90" fill-rule="evenodd" fill-opacity="1" stroke="#000000" stroke-opacity="1" stroke-width="3.2"/>
<circle clip-path="url(#clip962)" cx="705.962" cy="779.162" r="43.2" fill="#90ee90" fill-rule="evenodd" fill-opacity="1" stroke="#000000" stroke-opacity="1" stroke-width="3.2"/>
<circle clip-path="url(#clip962)" cx="705.962" cy="615.846" r="43.2" fill="#90ee90" fill-rule="evenodd" fill-opacity="1" stroke="#000000" stroke-opacity="1" stroke-width="3.2"/>
<circle clip-path="url(#clip962)" cx="705.962" cy="452.529" r="43.2" fill="#90ee90" fill-rule="evenodd" fill-opacity="1" stroke="#000000" stroke-opacity="1" stroke-width="3.2"/>
<path clip-path="url(#clip962)" d="M1035.32 1024.14 L1024.64 1022.45 L1015.01 1017.54 L1007.36 1009.89 L1002.45 1000.26 L1000.76 989.578 L1002.45 978.898 L1007.36 969.264 L1015.01 961.618 L1024.64 956.709 L1035.32 955.018 L1046 956.709 L1055.63 961.618 L1063.28 969.264 L1068.19 978.898 L1069.88 989.578 L1068.19 1000.26 L1063.28 1009.89 L1055.63 1017.54 L1046 1022.45 L1035.32 1024.14  Z" fill="#000000" fill-rule="evenodd" fill-opacity="0"/>
<polyline clip-path="url(#clip962)" style="stroke:#000000; stroke-linecap:round; stroke-linejoin:round; stroke-width:4; stroke-opacity:1; fill:none" points="1035.32,1024.14 1024.64,1022.45 1015.01,1017.54 1007.36,1009.89 1002.45,1000.26 1000.76,989.578 1002.45,978.898 1007.36,969.264 1015.01,961.618 1024.64,956.709 1035.32,955.018 1046,956.709 1055.63,961.618 1063.28,969.264 1068.19,978.898 1069.88,989.578 1068.19,1000.26 1063.28,1009.89 1055.63,1017.54 1046,1022.45 1035.32,1024.14 "/>
<path clip-path="url(#clip962)" d="M1035.32 860.821 L1024.64 859.129 L1015.01 854.22 L1007.36 846.575 L1002.45 836.94 L1000.76 826.261 L1002.45 815.581 L1007.36 805.947 L1015.01 798.301 L1024.64 793.392 L1035.32 791.701 L1046 793.392 L1055.63 798.301 L1063.28 805.947 L1068.19 815.581 L1069.88 826.261 L1068.19 836.94 L1063.28 846.575 L1055.63 854.22 L1046 859.129 L1035.32 860.821  Z" fill="#000000" fill-rule="evenodd" fill-opacity="0"/>
<polyline clip-path="url(#clip962)" style="stroke:#000000; stroke-linecap:round; stroke-linejoin:round; stroke-width:4; stroke-opacity:1; fill:none" points="1035.32,860.821 1024.64,859.129 1015.01,854.22 1007.36,846.575 1002.45,836.94 1000.76,826.261 1002.45,815.581 1007.36,805.947 1015.01,798.301 1024.64,793.392 1035.32,791.701 1046,793.392 1055.63,798.301 1063.28,805.947 1068.19,815.581 1069.88,826.261 1068.19,836.94 1063.28,846.575 1055.63,854.22 1046,859.129 1035.32,860.821 "/>
<path clip-path="url(#clip962)" d="M1035.32 697.504 L1024.64 695.813 L1015.01 690.904 L1007.36 683.258 L1002.45 673.624 L1000.76 662.944 L1002.45 652.264 L1007.36 642.63 L1015.01 634.984 L1024.64 630.076 L1035.32 628.384 L1046 630.076 L1055.63 634.984 L1063.28 642.63 L1068.19 652.264 L1069.88 662.944 L1068.19 673.624 L1063.28 683.258 L1055.63 690.904 L1046 695.813 L1035.32 697.504  Z" fill="#000000" fill-rule="evenodd" fill-opacity="0"/>
<polyline clip-path="url(#clip962)" style="stroke:#000000; stroke-linecap:round; stroke-linejoin:round; stroke-width:4; stroke-opacity:1; fill:none" points="1035.32,697.504 1024.64,695.813 1015.01,690.904 1007.36,683.258 1002.45,673.624 1000.76,662.944 1002.45,652.264 1007.36,642.63 1015.01,634.984 1024.64,630.076 1035.32,628.384 1046,630.076 1055.63,634.984 1063.28,642.63 1068.19,652.264 1069.88,662.944 1068.19,673.624 1063.28,683.258 1055.63,690.904 1046,695.813 1035.32,697.504 "/>
<path clip-path="url(#clip962)" d="M1035.32 534.187 L1024.64 532.496 L1015.01 527.587 L1007.36 519.941 L1002.45 510.307 L1000.76 499.627 L1002.45 488.948 L1007.36 479.313 L1015.01 471.668 L1024.64 466.759 L1035.32 465.067 L1046 466.759 L1055.63 471.668 L1063.28 479.313 L1068.19 488.948 L1069.88 499.627 L1068.19 510.307 L1063.28 519.941 L1055.63 527.587 L1046 532.496 L1035.32 534.187  Z" fill="#000000" fill-rule="evenodd" fill-opacity="0"/>
<polyline clip-path="url(#clip962)" style="stroke:#000000; stroke-linecap:round; stroke-linejoin:round; stroke-width:4; stroke-opacity:1; fill:none" points="1035.32,534.187 1024.64,532.496 1015.01,527.587 1007.36,519.941 1002.45,510.307 1000.76,499.627 1002.45,488.948 1007.36,479.313 1015.01,471.668 1024.64,466.759 1035.32,465.067 1046,466.759 1055.63,471.668 1063.28,479.313 1068.19,488.948 1069.88,499.627 1068.19,510.307 1063.28,519.941 1055.63,527.587 1046,532.496 1035.32,534.187 "/>
<path clip-path="url(#clip962)" d="M1364.68 1018.38 L1355.78 1016.97 L1347.75 1012.88 L1341.38 1006.51 L1337.29 998.477 L1335.88 989.578 L1337.29 980.678 L1341.38 972.649 L1347.75 966.278 L1355.78 962.187 L1364.68 960.778 L1373.58 962.187 L1381.61 966.278 L1387.98 972.649 L1392.07 980.678 L1393.48 989.578 L1392.07 998.477 L1387.98 1006.51 L1381.61 1012.88 L1373.58 1016.97 L1364.68 1018.38 L1364.68 1029.9 L1352.22 1027.92 L1340.98 1022.2 L1332.06 1013.28 L1326.33 1002.04 L1324.36 989.578 L1326.33 977.118 L1332.06 965.878 L1340.98 956.958 L1352.22 951.231 L1364.68 949.258 L1377.14 951.231 L1388.38 956.958 L1397.3 965.878 L1403.03 977.118 L1405 989.578 L1403.03 1002.04 L1397.3 1013.28 L1388.38 1022.2 L1377.14 1027.92 L1364.68 1029.9  Z" fill="#000000" fill-rule="evenodd" fill-opacity="0"/>
<polyline clip-path="url(#clip962)" style="stroke:#000000; stroke-linecap:round; stroke-linejoin:round; stroke-width:4; stroke-opacity:1; fill:none" points="1364.68,1018.38 1355.78,1016.97 1347.75,1012.88 1341.38,1006.51 1337.29,998.477 1335.88,989.578 1337.29,980.678 1341.38,972.649 1347.75,966.278 1355.78,962.187 1364.68,960.778 1373.58,962.187 1381.61,966.278 1387.98,972.649 1392.07,980.678 1393.48,989.578 1392.07,998.477 1387.98,1006.51 1381.61,1012.88 1373.58,1016.97 1364.68,1018.38 1364.68,1029.9 1352.22,1027.92 1340.98,1022.2 1332.06,1013.28 1326.33,1002.04 1324.36,989.578 1326.33,977.118 1332.06,965.878 1340.98,956.958 1352.22,951.231 1364.68,949.258 1377.14,951.231 1388.38,956.958 1397.3,965.878 1403.03,977.118 1405,989.578 1403.03,1002.04 1397.3,1013.28 1388.38,1022.2 1377.14,1027.92 1364.68,1029.9 "/>
<path clip-path="url(#clip962)" d="M1364.68 855.061 L1355.78 853.651 L1347.75 849.561 L1341.38 843.189 L1337.29 835.161 L1335.88 826.261 L1337.29 817.361 L1341.38 809.333 L1347.75 802.961 L1355.78 798.87 L1364.68 797.461 L1373.58 798.87 L1381.61 802.961 L1387.98 809.333 L1392.07 817.361 L1393.48 826.261 L1392.07 835.161 L1387.98 843.189 L1381.61 849.561 L1373.58 853.651 L1364.68 855.061 L1364.68 866.581 L1352.22 864.607 L1340.98 858.88 L1332.06 849.96 L1326.33 838.72 L1324.36 826.261 L1326.33 813.801 L1332.06 802.561 L1340.98 793.641 L1352.22 787.914 L1364.68 785.941 L1377.14 787.914 L1388.38 793.641 L1397.3 802.561 L1403.03 813.801 L1405 826.261 L1403.03 838.72 L1397.3 849.96 L1388.38 858.88 L1377.14 864.607 L1364.68 866.581  Z" fill="#000000" fill-rule="evenodd" fill-opacity="0"/>
<polyline clip-path="url(#clip962)" style="stroke:#000000; stroke-linecap:round; stroke-linejoin:round; stroke-width:4; stroke-opacity:1; fill:none" points="1364.68,855.061 1355.78,853.651 1347.75,849.561 1341.38,843.189 1337.29,835.161 1335.88,826.261 1337.29,817.361 1341.38,809.333 1347.75,802.961 1355.78,798.87 1364.68,797.461 1373.58,798.87 1381.61,802.961 1387.98,809.333 1392.07,817.361 1393.48,826.261 1392.07,835.161 1387.98,843.189 1381.61,849.561 1373.58,853.651 1364.68,855.061 1364.68,866.581 1352.22,864.607 1340.98,858.88 1332.06,849.96 1326.33,838.72 1324.36,826.261 1326.33,813.801 1332.06,802.561 1340.98,793.641 1352.22,787.914 1364.68,785.941 1377.14,787.914 1388.38,793.641 1397.3,802.561 1403.03,813.801 1405,826.261 1403.03,838.72 1397.3,849.96 1388.38,858.88 1377.14,864.607 1364.68,866.581 "/>
<path clip-path="url(#clip962)" d="M1364.68 691.744 L1355.78 690.335 L1347.75 686.244 L1341.38 679.872 L1337.29 671.844 L1335.88 662.944 L1337.29 654.044 L1341.38 646.016 L1347.75 639.644 L1355.78 635.554 L1364.68 634.144 L1373.58 635.554 L1381.61 639.644 L1387.98 646.016 L1392.07 654.044 L1393.48 662.944 L1392.07 671.844 L1387.98 679.872 L1381.61 686.244 L1373.58 690.335 L1364.68 691.744 L1364.68 703.264 L1352.22 701.291 L1340.98 695.564 L1332.06 686.644 L1326.33 675.404 L1324.36 662.944 L1326.33 650.485 L1332.06 639.245 L1340.98 630.325 L1352.22 624.597 L1364.68 622.624 L1377.14 624.597 L1388.38 630.325 L1397.3 639.245 L1403.03 650.485 L1405 662.944 L1403.03 675.404 L1397.3 686.644 L1388.38 695.564 L1377.14 701.291 L1364.68 703.264  Z" fill="#000000" fill-rule="evenodd" fill-opacity="0"/>
<polyline clip-path="url(#clip962)" style="stroke:#000000; stroke-linecap:round; stroke-linejoin:round; stroke-width:4; stroke-opacity:1; fill:none" points="1364.68,691.744 1355.78,690.335 1347.75,686.244 1341.38,679.872 1337.29,671.844 1335.88,662.944 1337.29,654.044 1341.38,646.016 1347.75,639.644 1355.78,635.554 1364.68,634.144 1373.58,635.554 1381.61,639.644 1387.98,646.016 1392.07,654.044 1393.48,662.944 1392.07,671.844 1387.98,679.872 1381.61,686.244 1373.58,690.335 1364.68,691.744 1364.68,703.264 1352.22,701.291 1340.98,695.564 1332.06,686.644 1326.33,675.404 1324.36,662.944 1326.33,650.485 1332.06,639.245 1340.98,630.325 1352.22,624.597 1364.68,622.624 1377.14,624.597 1388.38,630.325 1397.3,639.245 1403.03,650.485 1405,662.944 1403.03,675.404 1397.3,686.644 1388.38,695.564 1377.14,701.291 1364.68,703.264 "/>
<path clip-path="url(#clip962)" d="M1364.68 528.427 L1355.78 527.018 L1347.75 522.927 L1341.38 516.556 L1337.29 508.527 L1335.88 499.627 L1337.29 490.728 L1341.38 482.699 L1347.75 476.328 L1355.78 472.237 L1364.68 470.827 L1373.58 472.237 L1381.61 476.328 L1387.98 482.699 L1392.07 490.728 L1393.48 499.627 L1392.07 508.527 L1387.98 516.556 L1381.61 522.927 L1373.58 527.018 L1364.68 528.427 L1364.68 539.947 L1352.22 537.974 L1340.98 532.247 L1332.06 523.327 L1326.33 512.087 L1324.36 499.627 L1326.33 487.168 L1332.06 475.928 L1340.98 467.008 L1352.22 461.281 L1364.68 459.307 L1377.14 461.281 L1388.38 467.008 L1397.3 475.928 L1403.03 487.168 L1405 499.627 L1403.03 512.087 L1397.3 523.327 L1388.38 532.247 L1377.14 537.974 L1364.68 539.947  Z" fill="#000000" fill-rule="evenodd" fill-opacity="0"/>
<polyline clip-path="url(#clip962)" style="stroke:#000000; stroke-linecap:round; stroke-linejoin:round; stroke-width:4; stroke-opacity:1; fill:none" points="1364.68,528.427 1355.78,527.018 1347.75,522.927 1341.38,516.556 1337.29,508.527 1335.88,499.627 1337.29,490.728 1341.38,482.699 1347.75,476.328 1355.78,472.237 1364.68,470.827 1373.58,472.237 1381.61,476.328 1387.98,482.699 1392.07,490.728 1393.48,499.627 1392.07,508.527 1387.98,516.556 1381.61,522.927 1373.58,527.018 1364.68,528.427 1364.68,539.947 1352.22,537.974 1340.98,532.247 1332.06,523.327 1326.33,512.087 1324.36,499.627 1326.33,487.168 1332.06,475.928 1340.98,467.008 1352.22,461.281 1364.68,459.307 1377.14,461.281 1388.38,467.008 1397.3,475.928 1403.03,487.168 1405,499.627 1403.03,512.087 1397.3,523.327 1388.38,532.247 1377.14,537.974 1364.68,539.947 "/>
<path clip-path="url(#clip962)" d="M1694.04 1029.9 L1689.59 1027.92 L1685.57 1022.2 L1682.39 1013.28 L1680.34 1002.04 L1679.64 989.578 L1680.34 977.118 L1682.39 965.878 L1685.57 956.958 L1689.59 951.231 L1694.04 949.258 L1698.49 951.231 L1702.5 956.958 L1705.69 965.878 L1707.73 977.118 L1708.44 989.578 L1707.73 1002.04 L1705.69 1013.28 L1702.5 1022.2 L1698.49 1027.92 L1694.04 1029.9 L1694.04 1018.38 L1685.14 1016.97 L1677.11 1012.88 L1670.74 1006.51 L1666.65 998.477 L1665.24 989.578 L1666.65 980.678 L1670.74 972.649 L1677.11 966.278 L1685.14 962.187 L1694.04 960.778 L1702.94 962.187 L1710.97 966.278 L1717.34 972.649 L1721.43 980.678 L1722.84 989.578 L1721.43 998.477 L1717.34 1006.51 L1710.97 1012.88 L1702.94 1016.97 L1694.04 1018.38  Z" fill="#000000" fill-rule="evenodd" fill-opacity="0"/>
<polyline clip-path="url(#clip962)" style="stroke:#000000; stroke-linecap:round; stroke-linejoin:round; stroke-width:4; stroke-opacity:1; fill:none" points="1694.04,1029.9 1689.59,1027.92 1685.57,1022.2 1682.39,1013.28 1680.34,1002.04 1679.64,989.578 1680.34,977.118 1682.39,965.878 1685.57,956.958 1689.59,951.231 1694.04,949.258 1698.49,951.231 1702.5,956.958 1705.69,965.878 1707.73,977.118 1708.44,989.578 1707.73,1002.04 1705.69,1013.28 1702.5,1022.2 1698.49,1027.92 1694.04,1029.9 1694.04,1018.38 1685.14,1016.97 1677.11,1012.88 1670.74,1006.51 1666.65,998.477 1665.24,989.578 1666.65,980.678 1670.74,972.649 1677.11,966.278 1685.14,962.187 1694.04,960.778 1702.94,962.187 1710.97,966.278 1717.34,972.649 1721.43,980.678 1722.84,989.578 1721.43,998.477 1717.34,1006.51 1710.97,1012.88 1702.94,1016.97 1694.04,1018.38 "/>
<path clip-path="url(#clip962)" d="M1694.04 866.581 L1689.59 864.607 L1685.57 858.88 L1682.39 849.96 L1680.34 838.72 L1679.64 826.261 L1680.34 813.801 L1682.39 802.561 L1685.57 793.641 L1689.59 787.914 L1694.04 785.941 L1698.49 787.914 L1702.5 793.641 L1705.69 802.561 L1707.73 813.801 L1708.44 826.261 L1707.73 838.72 L1705.69 849.96 L1702.5 858.88 L1698.49 864.607 L1694.04 866.581 L1694.04 855.061 L1685.14 853.651 L1677.11 849.561 L1670.74 843.189 L1666.65 835.161 L1665.24 826.261 L1666.65 817.361 L1670.74 809.333 L1677.11 802.961 L1685.14 798.87 L1694.04 797.461 L1702.94 798.87 L1710.97 802.961 L1717.34 809.333 L1721.43 817.361 L1722.84 826.261 L1721.43 835.161 L1717.34 843.189 L1710.97 849.561 L1702.94 853.651 L1694.04 855.061  Z" fill="#000000" fill-rule="evenodd" fill-opacity="0"/>
<polyline clip-path="url(#clip962)" style="stroke:#000000; stroke-linecap:round; stroke-linejoin:round; stroke-width:4; stroke-opacity:1; fill:none" points="1694.04,866.581 1689.59,864.607 1685.57,858.88 1682.39,849.96 1680.34,838.72 1679.64,826.261 1680.34,813.801 1682.39,802.561 1685.57,793.641 1689.59,787.914 1694.04,785.941 1698.49,787.914 1702.5,793.641 1705.69,802.561 1707.73,813.801 1708.44,826.261 1707.73,838.72 1705.69,849.96 1702.5,858.88 1698.49,864.607 1694.04,866.581 1694.04,855.061 1685.14,853.651 1677.11,849.561 1670.74,843.189 1666.65,835.161 1665.24,826.261 1666.65,817.361 1670.74,809.333 1677.11,802.961 1685.14,798.87 1694.04,797.461 1702.94,798.87 1710.97,802.961 1717.34,809.333 1721.43,817.361 1722.84,826.261 1721.43,835.161 1717.34,843.189 1710.97,849.561 1702.94,853.651 1694.04,855.061 "/>
<path clip-path="url(#clip962)" d="M1694.04 703.264 L1689.59 701.291 L1685.57 695.564 L1682.39 686.644 L1680.34 675.404 L1679.64 662.944 L1680.34 650.485 L1682.39 639.245 L1685.57 630.325 L1689.59 624.597 L1694.04 622.624 L1698.49 624.597 L1702.5 630.325 L1705.69 639.245 L1707.73 650.485 L1708.44 662.944 L1707.73 675.404 L1705.69 686.644 L1702.5 695.564 L1698.49 701.291 L1694.04 703.264 L1694.04 691.744 L1685.14 690.335 L1677.11 686.244 L1670.74 679.872 L1666.65 671.844 L1665.24 662.944 L1666.65 654.044 L1670.74 646.016 L1677.11 639.644 L1685.14 635.554 L1694.04 634.144 L1702.94 635.554 L1710.97 639.644 L1717.34 646.016 L1721.43 654.044 L1722.84 662.944 L1721.43 671.844 L1717.34 679.872 L1710.97 686.244 L1702.94 690.335 L1694.04 691.744  Z" fill="#000000" fill-rule="evenodd" fill-opacity="0"/>
<polyline clip-path="url(#clip962)" style="stroke:#000000; stroke-linecap:round; stroke-linejoin:round; stroke-width:4; stroke-opacity:1; fill:none" points="1694.04,703.264 1689.59,701.291 1685.57,695.564 1682.39,686.644 1680.34,675.404 1679.64,662.944 1680.34,650.485 1682.39,639.245 1685.57,630.325 1689.59,624.597 1694.04,622.624 1698.49,624.597 1702.5,630.325 1705.69,639.245 1707.73,650.485 1708.44,662.944 1707.73,675.404 1705.69,686.644 1702.5,695.564 1698.49,701.291 1694.04,703.264 1694.04,691.744 1685.14,690.335 1677.11,686.244 1670.74,679.872 1666.65,671.844 1665.24,662.944 1666.65,654.044 1670.74,646.016 1677.11,639.644 1685.14,635.554 1694.04,634.144 1702.94,635.554 1710.97,639.644 1717.34,646.016 1721.43,654.044 1722.84,662.944 1721.43,671.844 1717.34,679.872 1710.97,686.244 1702.94,690.335 1694.04,691.744 "/>
<path clip-path="url(#clip962)" d="M1694.04 539.947 L1689.59 537.974 L1685.57 532.247 L1682.39 523.327 L1680.34 512.087 L1679.64 499.627 L1680.34 487.168 L1682.39 475.928 L1685.57 467.008 L1689.59 461.281 L1694.04 459.307 L1698.49 461.281 L1702.5 467.008 L1705.69 475.928 L1707.73 487.168 L1708.44 499.627 L1707.73 512.087 L1705.69 523.327 L1702.5 532.247 L1698.49 537.974 L1694.04 539.947 L1694.04 528.427 L1685.14 527.018 L1677.11 522.927 L1670.74 516.556 L1666.65 508.527 L1665.24 499.627 L1666.65 490.728 L1670.74 482.699 L1677.11 476.328 L1685.14 472.237 L1694.04 470.827 L1702.94 472.237 L1710.97 476.328 L1717.34 482.699 L1721.43 490.728 L1722.84 499.627 L1721.43 508.527 L1717.34 516.556 L1710.97 522.927 L1702.94 527.018 L1694.04 528.427  Z" fill="#000000" fill-rule="evenodd" fill-opacity="0"/>
<polyline clip-path="url(#clip962)" style="stroke:#000000; stroke-linecap:round; stroke-linejoin:round; stroke-width:4; stroke-opacity:1; fill:none" points="1694.04,539.947 1689.59,537.974 1685.57,532.247 1682.39,523.327 1680.34,512.087 1679.64,499.627 1680.34,487.168 1682.39,475.928 1685.57,467.008 1689.59,461.281 1694.04,459.307 1698.49,461.281 1702.5,467.008 1705.69,475.928 1707.73,487.168 1708.44,499.627 1707.73,512.087 1705.69,523.327 1702.5,532.247 1698.49,537.974 1694.04,539.947 1694.04,528.427 1685.14,527.018 1677.11,522.927 1670.74,516.556 1666.65,508.527 1665.24,499.627 1666.65,490.728 1670.74,482.699 1677.11,476.328 1685.14,472.237 1694.04,470.827 1702.94,472.237 1710.97,476.328 1717.34,482.699 1721.43,490.728 1722.84,499.627 1721.43,508.527 1717.34,516.556 1710.97,522.927 1702.94,527.018 1694.04,528.427 "/>
<circle clip-path="url(#clip962)" cx="2023.4" cy="942.479" r="43.2" fill="#90ee90" fill-rule="evenodd" fill-opacity="1" stroke="#000000" stroke-opacity="1" stroke-width="3.2"/>
<circle clip-path="url(#clip962)" cx="2023.4" cy="779.162" r="43.2" fill="#90ee90" fill-rule="evenodd" fill-opacity="1" stroke="#000000" stroke-opacity="1" stroke-width="3.2"/>
<circle clip-path="url(#clip962)" cx="2023.4" cy="615.846" r="43.2" fill="#90ee90" fill-rule="evenodd" fill-opacity="1" stroke="#000000" stroke-opacity="1" stroke-width="3.2"/>
<path clip-path="url(#clip962)" d="M415.003 860.821 L357.403 827.221 L357.403 894.421 L415.003 860.821 Z" fill="#ffff00" fill-rule="evenodd" fill-opacity="1" stroke="#000000" stroke-opacity="1" stroke-width="3.2"/>
<path clip-path="url(#clip962)" d="M415.003 697.504 L357.403 663.904 L357.403 731.104 L415.003 697.504 Z" fill="#ffff00" fill-rule="evenodd" fill-opacity="1" stroke="#000000" stroke-opacity="1" stroke-width="3.2"/>
<circle clip-path="url(#clip962)" cx="1035.32" cy="1024.14" r="43.2" fill="#b0e2ff" fill-rule="evenodd" fill-opacity="1" stroke="#000000" stroke-opacity="1" stroke-width="3.2"/>
<circle clip-path="url(#clip962)" cx="1035.32" cy="860.821" r="43.2" fill="#b0e2ff" fill-rule="evenodd" fill-opacity="1" stroke="#000000" stroke-opacity="1" stroke-width="3.2"/>
<circle clip-path="url(#clip962)" cx="1035.32" cy="697.504" r="43.2" fill="#b0e2ff" fill-rule="evenodd" fill-opacity="1" stroke="#000000" stroke-opacity="1" stroke-width="3.2"/>
<circle clip-path="url(#clip962)" cx="1035.32" cy="534.187" r="43.2" fill="#b0e2ff" fill-rule="evenodd" fill-opacity="1" stroke="#000000" stroke-opacity="1" stroke-width="3.2"/>
<circle clip-path="url(#clip962)" cx="1364.68" cy="1024.14" r="43.2" fill="#7ec0ee" fill-rule="evenodd" fill-opacity="1" stroke="#000000" stroke-opacity="1" stroke-width="3.2"/>
<circle clip-path="url(#clip962)" cx="1364.68" cy="860.821" r="43.2" fill="#7ec0ee" fill-rule="evenodd" fill-opacity="1" stroke="#000000" stroke-opacity="1" stroke-width="3.2"/>
<circle clip-path="url(#clip962)" cx="1364.68" cy="697.504" r="43.2" fill="#7ec0ee" fill-rule="evenodd" fill-opacity="1" stroke="#000000" stroke-opacity="1" stroke-width="3.2"/>
<circle clip-path="url(#clip962)" cx="1364.68" cy="534.187" r="43.2" fill="#7ec0ee" fill-rule="evenodd" fill-opacity="1" stroke="#000000" stroke-opacity="1" stroke-width="3.2"/>
<circle clip-path="url(#clip962)" cx="1694.04" cy="1024.14" r="43.2" fill="#6ca6cd" fill-rule="evenodd" fill-opacity="1" stroke="#000000" stroke-opacity="1" stroke-width="3.2"/>
<circle clip-path="url(#clip962)" cx="1694.04" cy="860.821" r="43.2" fill="#6ca6cd" fill-rule="evenodd" fill-opacity="1" stroke="#000000" stroke-opacity="1" stroke-width="3.2"/>
<circle clip-path="url(#clip962)" cx="1694.04" cy="697.504" r="43.2" fill="#6ca6cd" fill-rule="evenodd" fill-opacity="1" stroke="#000000" stroke-opacity="1" stroke-width="3.2"/>
<circle clip-path="url(#clip962)" cx="1694.04" cy="534.187" r="43.2" fill="#6ca6cd" fill-rule="evenodd" fill-opacity="1" stroke="#000000" stroke-opacity="1" stroke-width="3.2"/>
<path clip-path="url(#clip962)" d="M2061.8 942.479 L2004.2 908.879 L2004.2 976.079 L2061.8 942.479 Z" fill="#ffa500" fill-rule="evenodd" fill-opacity="1" stroke="#000000" stroke-opacity="1" stroke-width="3.2"/>
<path clip-path="url(#clip962)" d="M2061.8 779.162 L2004.2 745.562 L2004.2 812.762 L2061.8 779.162 Z" fill="#ffa500" fill-rule="evenodd" fill-opacity="1" stroke="#000000" stroke-opacity="1" stroke-width="3.2"/>
<path clip-path="url(#clip962)" d="M2061.8 615.846 L2004.2 582.246 L2004.2 649.446 L2061.8 615.846 Z" fill="#ffa500" fill-rule="evenodd" fill-opacity="1" stroke="#000000" stroke-opacity="1" stroke-width="3.2"/>
<g clip-path="url(#clip960)">
<text style="fill:#000000; fill-opacity:1; font-family:Century Gothic,CenturyGothic,AppleGothic,sans-serif; font-size:47px; text-anchor:middle;" transform="rotate(-20, 382.588, 550.632)" x="382.588" y="550.632">input</text>
</g>
<g clip-path="url(#clip960)">
<text style="fill:#000000; fill-opacity:1; font-family:Century Gothic,CenturyGothic,AppleGothic,sans-serif; font-size:47px; text-anchor:middle;" transform="rotate(-20, 711.947, 305.657)" x="711.947" y="305.657">Dense(2 =&gt; 5, )</text>
</g>
<g clip-path="url(#clip960)">
<text style="fill:#000000; fill-opacity:1; font-family:Century Gothic,CenturyGothic,AppleGothic,sans-serif; font-size:47px; text-anchor:middle;" transform="rotate(-20, 1041.31, 387.315)" x="1041.31" y="387.315">Recur(RNNCell(5 =&gt; 4, relu))</text>
</g>
<g clip-path="url(#clip960)">
<text style="fill:#000000; fill-opacity:1; font-family:Century Gothic,CenturyGothic,AppleGothic,sans-serif; font-size:47px; text-anchor:middle;" transform="rotate(-20, 1370.66, 387.315)" x="1370.66" y="387.315">Recur(LSTMCell(4 =&gt; 4))</text>
</g>
<g clip-path="url(#clip960)">
<text style="fill:#000000; fill-opacity:1; font-family:Century Gothic,CenturyGothic,AppleGothic,sans-serif; font-size:47px; text-anchor:middle;" transform="rotate(-20, 1700.02, 387.315)" x="1700.02" y="387.315">Recur(GRUCell(4 =&gt; 4))</text>
</g>
<g clip-path="url(#clip960)">
<text style="fill:#000000; fill-opacity:1; font-family:Century Gothic,CenturyGothic,AppleGothic,sans-serif; font-size:47px; text-anchor:middle;" transform="rotate(-20, 2029.38, 468.974)" x="2029.38" y="468.974">Dense(4 =&gt; 3)</text>
</g>
</svg>
