<?xml version="1.0" encoding="utf-8"?>
<svg xmlns="http://www.w3.org/2000/svg" xmlns:xlink="http://www.w3.org/1999/xlink" width="600" height="400" viewBox="0 0 2400 1600">
<defs>
  <clipPath id="clip780">
    <rect x="0" y="0" width="2400" height="1600"/>
  </clipPath>
</defs>
<path clip-path="url(#clip780)" d="
M0 1600 L2400 1600 L2400 0 L0 0  Z
  " fill="#ffffff" fill-rule="evenodd" fill-opacity="1"/>
<defs>
  <clipPath id="clip781">
    <rect x="480" y="0" width="1681" height="1600"/>
  </clipPath>
</defs>
<path clip-path="url(#clip780)" d="
M47.2441 1388.98 L2352.76 1388.98 L2352.76 47.2441 L47.2441 47.2441  Z
  " fill="#ffffff" fill-rule="evenodd" fill-opacity="1"/>
<defs>
  <clipPath id="clip782">
    <rect x="47" y="47" width="2307" height="1343"/>
  </clipPath>
</defs>
<polyline clip-path="url(#clip782)" style="stroke:#000000; stroke-linecap:butt; stroke-linejoin:round; stroke-width:2; stroke-opacity:0.1; fill:none" points="
  376.603,1388.98 376.603,47.2441 
  "/>
<polyline clip-path="url(#clip782)" style="stroke:#000000; stroke-linecap:butt; stroke-linejoin:round; stroke-width:2; stroke-opacity:0.1; fill:none" points="
  2023.4,1388.98 2023.4,47.2441 
  "/>
<path clip-path="url(#clip780)" d="M286.381 1535.06 L288.511 1531.37 L310.963 1544.34 L308.834 1548.02 L286.381 1535.06 M277.641 1530.02 L279.77 1526.33 L284.441 1529.02 L282.312 1532.71 L277.641 1530.02 Z" fill="#000000" fill-rule="evenodd" fill-opacity="1" /><path clip-path="url(#clip780)" d="M312.643 1510.13 L326.195 1517.95 L324.065 1521.64 L310.634 1513.89 Q307.446 1512.05 305.145 1512.38 Q302.844 1512.7 301.409 1515.19 Q299.684 1518.18 300.593 1521 Q301.502 1523.82 304.79 1525.72 L317.479 1533.05 L315.338 1536.76 L292.886 1523.8 L295.027 1520.09 L298.515 1522.1 Q297.254 1519.61 297.282 1517.25 Q297.321 1514.86 298.676 1512.52 Q300.909 1508.65 304.461 1508.05 Q307.992 1507.44 312.643 1510.13 Z" fill="#000000" fill-rule="evenodd" fill-opacity="1" /><path clip-path="url(#clip780)" d="M329.135 1505.08 L341.042 1511.96 L338.901 1515.67 L307.909 1497.77 L310.05 1494.07 L313.458 1496.03 Q312.125 1493.71 312.181 1491.39 Q312.229 1489.04 313.652 1486.58 Q316.013 1482.49 320.731 1481.82 Q325.46 1481.13 330.752 1484.18 Q336.045 1487.24 337.811 1491.68 Q339.588 1496.1 337.227 1500.19 Q335.804 1502.65 333.811 1503.88 Q331.811 1505.08 329.135 1505.08 M328.542 1488.01 Q324.472 1485.66 321.195 1486.01 Q317.909 1486.33 316.219 1489.26 Q314.529 1492.19 315.882 1495.21 Q317.227 1498.21 321.296 1500.56 Q325.366 1502.91 328.652 1502.59 Q331.93 1502.23 333.619 1499.31 Q335.309 1496.38 333.964 1493.39 Q332.611 1490.36 328.542 1488.01 Z" fill="#000000" fill-rule="evenodd" fill-opacity="1" /><path clip-path="url(#clip780)" d="M336.408 1479.8 L322.816 1471.95 L324.946 1468.27 L338.397 1476.03 Q341.585 1477.87 343.906 1477.55 Q346.207 1477.23 347.642 1474.74 Q349.367 1471.75 348.458 1468.93 Q347.56 1466.09 344.273 1464.19 L331.543 1456.84 L333.673 1453.15 L356.125 1466.11 L353.995 1469.8 L350.547 1467.81 Q351.817 1470.33 351.789 1472.7 Q351.753 1475.03 350.399 1477.37 Q348.165 1481.24 344.602 1481.86 Q341.039 1482.47 336.408 1479.8 M327.634 1462.36 L327.634 1462.36 Z" fill="#000000" fill-rule="evenodd" fill-opacity="1" /><path clip-path="url(#clip780)" d="M333.791 1438.22 L340.166 1441.9 L344.552 1434.31 L347.419 1435.96 L343.032 1443.56 L355.221 1450.6 Q357.967 1452.18 359.177 1451.89 Q360.399 1451.58 361.73 1449.28 L363.917 1445.49 L367.005 1447.27 L364.817 1451.06 Q362.352 1455.33 359.831 1456.04 Q357.289 1456.74 353.08 1454.3 L340.891 1447.27 L339.329 1449.97 L336.462 1448.32 L338.024 1445.61 L331.65 1441.93 L333.791 1438.22 Z" fill="#000000" fill-rule="evenodd" fill-opacity="1" /><path clip-path="url(#clip780)" d="M323.288 1554.63 L325.418 1550.94 L356.61 1568.95 L354.481 1572.64 L323.288 1554.63 Z" fill="#000000" fill-rule="evenodd" fill-opacity="1" /><path clip-path="url(#clip780)" d="M355.671 1544.51 Q353.09 1548.99 353.117 1551.3 Q353.144 1553.61 355.61 1555.04 Q357.575 1556.17 359.478 1555.56 Q361.373 1554.92 362.658 1552.69 Q364.428 1549.62 363.328 1546.53 Q362.22 1543.4 358.611 1541.32 L357.789 1540.85 L355.671 1544.51 M358.395 1536.28 L371.205 1543.67 L369.076 1547.36 L365.668 1545.39 Q366.983 1547.84 366.878 1550.29 Q366.752 1552.73 365.178 1555.46 Q363.187 1558.9 360.082 1559.84 Q356.968 1560.74 353.721 1558.86 Q349.932 1556.68 349.466 1553.04 Q349.011 1549.38 351.916 1544.35 L354.902 1539.18 L354.542 1538.97 Q351.996 1537.5 349.64 1538.39 Q347.276 1539.24 345.529 1542.27 Q344.418 1544.19 343.825 1546.28 Q343.233 1548.37 343.183 1550.59 L339.775 1548.62 Q340.162 1546.15 340.881 1544.02 Q341.58 1541.89 342.621 1540.08 Q345.434 1535.21 349.349 1534.26 Q353.263 1533.31 358.395 1536.28 Z" fill="#000000" fill-rule="evenodd" fill-opacity="1" /><path clip-path="url(#clip780)" d="M383.07 1527.94 Q386.177 1531.82 386.543 1534.01 Q386.909 1536.2 385.474 1538.68 L383.773 1541.63 L380.686 1539.85 L381.936 1537.68 Q382.815 1536.16 382.58 1534.9 Q382.344 1533.64 380.248 1531.07 L378.946 1529.43 L351.612 1525.76 L353.868 1521.85 L375.48 1524.97 L361.97 1507.82 L364.227 1503.91 L383.07 1527.94 Z" fill="#000000" fill-rule="evenodd" fill-opacity="1" /><path clip-path="url(#clip780)" d="M388.559 1485.56 L390.363 1486.6 L380.572 1503.56 Q384.519 1505.52 387.705 1504.63 Q390.881 1503.71 392.999 1500.05 Q394.226 1497.92 394.851 1495.63 Q395.487 1493.33 395.579 1490.76 L399.067 1492.78 Q398.763 1495.25 398 1497.59 Q397.238 1499.93 395.999 1502.07 Q392.898 1507.44 387.953 1508.79 Q383.02 1510.11 377.688 1507.03 Q372.175 1503.85 370.66 1499.02 Q369.137 1494.15 372.054 1489.1 Q374.67 1484.57 379.113 1483.64 Q383.547 1482.67 388.559 1485.56 M385.347 1488.62 Q382.297 1486.92 379.532 1487.54 Q376.778 1488.14 375.204 1490.87 Q373.422 1493.95 374.09 1496.83 Q374.769 1499.68 377.774 1501.79 L385.347 1488.62 Z" fill="#000000" fill-rule="evenodd" fill-opacity="1" /><path clip-path="url(#clip780)" d="M392.71 1462.54 Q391.99 1462.95 391.402 1463.6 Q390.805 1464.22 390.295 1465.1 Q388.49 1468.23 389.562 1471.09 Q390.626 1473.92 394.435 1476.12 L406.263 1482.95 L404.122 1486.66 L381.669 1473.7 L383.81 1469.99 L387.299 1472 Q385.925 1469.66 386.019 1467.23 Q386.093 1464.79 387.633 1462.12 Q387.852 1461.74 388.179 1461.31 Q388.485 1460.87 388.909 1460.37 L392.71 1462.54 Z" fill="#000000" fill-rule="evenodd" fill-opacity="1" /><path clip-path="url(#clip780)" d="M1923.57 1557.66 Q1921.86 1560.63 1923.19 1563.7 Q1924.5 1566.75 1928.53 1569.08 Q1932.56 1571.41 1935.87 1571.04 Q1939.17 1570.65 1940.89 1567.66 Q1942.6 1564.72 1941.27 1561.65 Q1939.94 1558.58 1935.93 1556.27 Q1931.94 1553.97 1928.62 1554.35 Q1925.28 1554.72 1923.57 1557.66 M1920.45 1555.86 Q1923.22 1551.05 1927.94 1550.11 Q1932.65 1549.17 1938.18 1552.36 Q1943.7 1555.54 1945.26 1560.11 Q1946.8 1564.66 1944.02 1569.47 Q1941.23 1574.3 1936.52 1575.24 Q1931.8 1576.15 1926.29 1572.97 Q1920.75 1569.77 1919.2 1565.24 Q1917.66 1560.69 1920.45 1555.86 Z" fill="#000000" fill-rule="evenodd" fill-opacity="1" /><path clip-path="url(#clip780)" d="M1943.84 1547.98 L1930.25 1540.13 L1932.38 1536.44 L1945.83 1544.21 Q1949.02 1546.05 1951.34 1545.73 Q1953.64 1545.41 1955.07 1542.92 Q1956.8 1539.93 1955.89 1537.11 Q1954.99 1534.27 1951.7 1532.37 L1938.97 1525.02 L1941.1 1521.33 L1963.56 1534.29 L1961.43 1537.98 L1957.98 1535.99 Q1959.25 1538.51 1959.22 1540.88 Q1959.18 1543.21 1957.83 1545.55 Q1955.6 1549.42 1952.03 1550.04 Q1948.47 1550.65 1943.84 1547.98 M1935.06 1530.54 L1935.06 1530.54 Z" fill="#000000" fill-rule="evenodd" fill-opacity="1" /><path clip-path="url(#clip780)" d="M1941.22 1506.4 L1947.6 1510.08 L1951.98 1502.49 L1954.85 1504.14 L1950.46 1511.74 L1962.65 1518.78 Q1965.4 1520.36 1966.61 1520.07 Q1967.83 1519.76 1969.16 1517.45 L1971.35 1513.67 L1974.44 1515.45 L1972.25 1519.24 Q1969.78 1523.51 1967.26 1524.22 Q1964.72 1524.91 1960.51 1522.48 L1948.32 1515.45 L1946.76 1518.15 L1943.89 1516.5 L1945.46 1513.79 L1939.08 1510.11 L1941.22 1506.4 Z" fill="#000000" fill-rule="evenodd" fill-opacity="1" /><path clip-path="url(#clip780)" d="M1975.93 1505.08 L1987.84 1511.96 L1985.7 1515.67 L1954.7 1497.77 L1956.84 1494.07 L1960.25 1496.03 Q1958.92 1493.71 1958.98 1491.39 Q1959.02 1489.04 1960.45 1486.58 Q1962.81 1482.49 1967.53 1481.82 Q1972.25 1481.13 1977.55 1484.18 Q1982.84 1487.24 1984.6 1491.68 Q1986.38 1496.1 1984.02 1500.19 Q1982.6 1502.65 1980.61 1503.88 Q1978.6 1505.08 1975.93 1505.08 M1975.34 1488.01 Q1971.27 1485.66 1967.99 1486.01 Q1964.7 1486.33 1963.01 1489.26 Q1961.32 1492.19 1962.68 1495.21 Q1964.02 1498.21 1968.09 1500.56 Q1972.16 1502.91 1975.45 1502.59 Q1978.72 1502.23 1980.41 1499.31 Q1982.1 1496.38 1980.76 1493.39 Q1979.41 1490.36 1975.34 1488.01 Z" fill="#000000" fill-rule="evenodd" fill-opacity="1" /><path clip-path="url(#clip780)" d="M1983.2 1479.8 L1969.61 1471.95 L1971.74 1468.27 L1985.19 1476.03 Q1988.38 1477.87 1990.7 1477.55 Q1993 1477.23 1994.44 1474.74 Q1996.16 1471.75 1995.25 1468.93 Q1994.35 1466.09 1991.07 1464.19 L1978.34 1456.84 L1980.47 1453.15 L2002.92 1466.11 L2000.79 1469.8 L1997.34 1467.81 Q1998.61 1470.33 1998.58 1472.7 Q1998.55 1475.03 1997.19 1477.37 Q1994.96 1481.24 1991.4 1481.86 Q1987.83 1482.47 1983.2 1479.8 M1974.43 1462.36 L1974.43 1462.36 Z" fill="#000000" fill-rule="evenodd" fill-opacity="1" /><path clip-path="url(#clip780)" d="M1980.58 1438.22 L1986.96 1441.9 L1991.35 1434.31 L1994.21 1435.96 L1989.83 1443.56 L2002.01 1450.6 Q2004.76 1452.18 2005.97 1451.89 Q2007.19 1451.58 2008.52 1449.28 L2010.71 1445.49 L2013.8 1447.27 L2011.61 1451.06 Q2009.15 1455.33 2006.62 1456.04 Q2004.08 1456.74 1999.87 1454.3 L1987.69 1447.27 L1986.12 1449.97 L1983.26 1448.32 L1984.82 1445.61 L1978.44 1441.93 L1980.58 1438.22 Z" fill="#000000" fill-rule="evenodd" fill-opacity="1" /><path clip-path="url(#clip780)" d="M1953.48 1583.39 L1955.61 1579.7 L1986.8 1597.71 L1984.67 1601.4 L1953.48 1583.39 Z" fill="#000000" fill-rule="evenodd" fill-opacity="1" /><path clip-path="url(#clip780)" d="M1985.86 1573.27 Q1983.28 1577.74 1983.31 1580.06 Q1983.34 1582.37 1985.8 1583.79 Q1987.77 1584.93 1989.67 1584.32 Q1991.56 1583.67 1992.85 1581.45 Q1994.62 1578.38 1993.52 1575.29 Q1992.41 1572.16 1988.8 1570.08 L1987.98 1569.6 L1985.86 1573.27 M1988.59 1565.03 L2001.4 1572.43 L1999.27 1576.12 L1995.86 1574.15 Q1997.17 1576.6 1997.07 1579.05 Q1996.94 1581.49 1995.37 1584.21 Q1993.38 1587.66 1990.27 1588.59 Q1987.16 1589.5 1983.91 1587.62 Q1980.12 1585.43 1979.66 1581.8 Q1979.2 1578.14 1982.11 1573.11 L1985.09 1567.94 L1984.73 1567.73 Q1982.19 1566.26 1979.83 1567.14 Q1977.47 1568 1975.72 1571.02 Q1974.61 1572.95 1974.02 1575.04 Q1973.42 1577.13 1973.37 1579.35 L1969.97 1577.38 Q1970.35 1574.9 1971.07 1572.78 Q1971.77 1570.64 1972.81 1568.84 Q1975.62 1563.97 1979.54 1563.02 Q1983.45 1562.07 1988.59 1565.03 Z" fill="#000000" fill-rule="evenodd" fill-opacity="1" /><path clip-path="url(#clip780)" d="M2013.26 1556.69 Q2016.37 1560.57 2016.73 1562.76 Q2017.1 1564.95 2015.67 1567.44 L2013.96 1570.39 L2010.88 1568.6 L2012.13 1566.44 Q2013.01 1564.91 2012.77 1563.66 Q2012.54 1562.4 2010.44 1559.82 L2009.14 1558.19 L1981.8 1554.52 L1984.06 1550.61 L2005.67 1553.73 L1992.16 1536.57 L1994.42 1532.67 L2013.26 1556.69 Z" fill="#000000" fill-rule="evenodd" fill-opacity="1" /><path clip-path="url(#clip780)" d="M2018.75 1514.32 L2020.55 1515.36 L2010.76 1532.32 Q2014.71 1534.28 2017.9 1533.39 Q2021.07 1532.47 2023.19 1528.8 Q2024.42 1526.68 2025.04 1524.39 Q2025.68 1522.09 2025.77 1519.52 L2029.26 1521.53 Q2028.95 1524 2028.19 1526.34 Q2027.43 1528.68 2026.19 1530.83 Q2023.09 1536.2 2018.14 1537.54 Q2013.21 1538.86 2007.88 1535.79 Q2002.37 1532.6 2000.85 1527.77 Q1999.33 1522.91 2002.25 1517.86 Q2004.86 1513.33 2009.3 1512.39 Q2013.74 1511.42 2018.75 1514.32 M2015.54 1517.38 Q2012.49 1515.67 2009.72 1516.3 Q2006.97 1516.9 2005.4 1519.62 Q2003.61 1522.71 2004.28 1525.58 Q2004.96 1528.43 2007.97 1530.54 L2015.54 1517.38 Z" fill="#000000" fill-rule="evenodd" fill-opacity="1" /><path clip-path="url(#clip780)" d="M2022.9 1491.29 Q2022.18 1491.71 2021.59 1492.36 Q2021 1492.97 2020.49 1493.86 Q2018.68 1496.98 2019.75 1499.85 Q2020.82 1502.68 2024.63 1504.88 L2036.45 1511.71 L2034.31 1515.42 L2011.86 1502.45 L2014 1498.75 L2017.49 1500.76 Q2016.12 1498.42 2016.21 1495.99 Q2016.28 1493.54 2017.82 1490.88 Q2018.04 1490.5 2018.37 1490.07 Q2018.68 1489.63 2019.1 1489.13 L2022.9 1491.29 Z" fill="#000000" fill-rule="evenodd" fill-opacity="1" /><polyline clip-path="url(#clip782)" style="stroke:#adadad; stroke-linecap:butt; stroke-linejoin:round; stroke-width:4; stroke-opacity:1; fill:none" points="
  376.603,1171.09 2023.4,1113.75 
  "/>
<polyline clip-path="url(#clip782)" style="stroke:#adadad; stroke-linecap:butt; stroke-linejoin:round; stroke-width:4; stroke-opacity:1; fill:none" points="
  376.603,1056.41 2023.4,1113.75 
  "/>
<polyline clip-path="url(#clip782)" style="stroke:#adadad; stroke-linecap:butt; stroke-linejoin:round; stroke-width:4; stroke-opacity:1; fill:none" points="
  376.603,1056.41 2023.4,999.074 
  "/>
<polyline clip-path="url(#clip782)" style="stroke:#adadad; stroke-linecap:butt; stroke-linejoin:round; stroke-width:4; stroke-opacity:1; fill:none" points="
  376.603,941.735 2023.4,999.074 
  "/>
<polyline clip-path="url(#clip782)" style="stroke:#adadad; stroke-linecap:butt; stroke-linejoin:round; stroke-width:4; stroke-opacity:1; fill:none" points="
  376.603,941.735 2023.4,884.396 
  "/>
<polyline clip-path="url(#clip782)" style="stroke:#adadad; stroke-linecap:butt; stroke-linejoin:round; stroke-width:4; stroke-opacity:1; fill:none" points="
  376.603,827.057 2023.4,884.396 
  "/>
<polyline clip-path="url(#clip782)" style="stroke:#adadad; stroke-linecap:butt; stroke-linejoin:round; stroke-width:4; stroke-opacity:1; fill:none" points="
  376.603,827.057 2023.4,769.718 
  "/>
<polyline clip-path="url(#clip782)" style="stroke:#adadad; stroke-linecap:butt; stroke-linejoin:round; stroke-width:4; stroke-opacity:1; fill:none" points="
  376.603,712.378 2023.4,769.718 
  "/>
<polyline clip-path="url(#clip782)" style="stroke:#adadad; stroke-linecap:butt; stroke-linejoin:round; stroke-width:4; stroke-opacity:1; fill:none" points="
  376.603,712.378 2023.4,655.039 
  "/>
<polyline clip-path="url(#clip782)" style="stroke:#adadad; stroke-linecap:butt; stroke-linejoin:round; stroke-width:4; stroke-opacity:1; fill:none" points="
  376.603,597.7 2023.4,655.039 
  "/>
<polyline clip-path="url(#clip782)" style="stroke:#adadad; stroke-linecap:butt; stroke-linejoin:round; stroke-width:4; stroke-opacity:1; fill:none" points="
  376.603,597.7 2023.4,540.361 
  "/>
<polyline clip-path="url(#clip782)" style="stroke:#adadad; stroke-linecap:butt; stroke-linejoin:round; stroke-width:4; stroke-opacity:1; fill:none" points="
  376.603,483.022 2023.4,540.361 
  "/>
<polyline clip-path="url(#clip782)" style="stroke:#adadad; stroke-linecap:butt; stroke-linejoin:round; stroke-width:4; stroke-opacity:1; fill:none" points="
  376.603,483.022 2023.4,425.683 
  "/>
<polyline clip-path="url(#clip782)" style="stroke:#adadad; stroke-linecap:butt; stroke-linejoin:round; stroke-width:4; stroke-opacity:1; fill:none" points="
  376.603,368.343 2023.4,425.683 
  "/>
<path clip-path="url(#clip782)" d="
M376.603 1209.16 L364.839 1207.3 L354.226 1201.89 L345.804 1193.47 L340.396 1182.86 L338.533 1171.09 L340.396 1159.33 L345.804 1148.71 L354.226 1140.29 L364.839 1134.88 
  L376.603 1133.02 L388.367 1134.88 L398.98 1140.29 L407.402 1148.71 L412.81 1159.33 L414.673 1171.09 L412.81 1182.86 L407.402 1193.47 L398.98 1201.89 L388.367 1207.3 
  L376.603 1209.16  Z
  " fill="#000000" fill-rule="evenodd" fill-opacity="0"/>
<polyline clip-path="url(#clip782)" style="stroke:#000000; stroke-linecap:butt; stroke-linejoin:round; stroke-width:4; stroke-opacity:1; fill:none" points="
  376.603,1209.16 364.839,1207.3 354.226,1201.89 345.804,1193.47 340.396,1182.86 338.533,1171.09 340.396,1159.33 345.804,1148.71 354.226,1140.29 364.839,1134.88 
  376.603,1133.02 388.367,1134.88 398.98,1140.29 407.402,1148.71 412.81,1159.33 414.673,1171.09 412.81,1182.86 407.402,1193.47 398.98,1201.89 388.367,1207.3 
  376.603,1209.16 
  "/>
<path clip-path="url(#clip782)" d="
M376.603 1094.48 L364.839 1092.62 L354.226 1087.21 L345.804 1078.79 L340.396 1068.18 L338.533 1056.41 L340.396 1044.65 L345.804 1034.04 L354.226 1025.61 L364.839 1020.21 
  L376.603 1018.34 L388.367 1020.21 L398.98 1025.61 L407.402 1034.04 L412.81 1044.65 L414.673 1056.41 L412.81 1068.18 L407.402 1078.79 L398.98 1087.21 L388.367 1092.62 
  L376.603 1094.48  Z
  " fill="#000000" fill-rule="evenodd" fill-opacity="0"/>
<polyline clip-path="url(#clip782)" style="stroke:#000000; stroke-linecap:butt; stroke-linejoin:round; stroke-width:4; stroke-opacity:1; fill:none" points="
  376.603,1094.48 364.839,1092.62 354.226,1087.21 345.804,1078.79 340.396,1068.18 338.533,1056.41 340.396,1044.65 345.804,1034.04 354.226,1025.61 364.839,1020.21 
  376.603,1018.34 388.367,1020.21 398.98,1025.61 407.402,1034.04 412.81,1044.65 414.673,1056.41 412.81,1068.18 407.402,1078.79 398.98,1087.21 388.367,1092.62 
  376.603,1094.48 
  "/>
<path clip-path="url(#clip782)" d="
M376.603 979.805 L364.839 977.942 L354.226 972.534 L345.804 964.112 L340.396 953.499 L338.533 941.735 L340.396 929.971 L345.804 919.358 L354.226 910.936 L364.839 905.528 
  L376.603 903.665 L388.367 905.528 L398.98 910.936 L407.402 919.358 L412.81 929.971 L414.673 941.735 L412.81 953.499 L407.402 964.112 L398.98 972.534 L388.367 977.942 
  L376.603 979.805  Z
  " fill="#000000" fill-rule="evenodd" fill-opacity="0"/>
<polyline clip-path="url(#clip782)" style="stroke:#000000; stroke-linecap:butt; stroke-linejoin:round; stroke-width:4; stroke-opacity:1; fill:none" points="
  376.603,979.805 364.839,977.942 354.226,972.534 345.804,964.112 340.396,953.499 338.533,941.735 340.396,929.971 345.804,919.358 354.226,910.936 364.839,905.528 
  376.603,903.665 388.367,905.528 398.98,910.936 407.402,919.358 412.81,929.971 414.673,941.735 412.81,953.499 407.402,964.112 398.98,972.534 388.367,977.942 
  376.603,979.805 
  "/>
<path clip-path="url(#clip782)" d="
M376.603 865.127 L364.839 863.263 L354.226 857.856 L345.804 849.434 L340.396 838.821 L338.533 827.057 L340.396 815.292 L345.804 804.68 L354.226 796.257 L364.839 790.85 
  L376.603 788.987 L388.367 790.85 L398.98 796.257 L407.402 804.68 L412.81 815.292 L414.673 827.057 L412.81 838.821 L407.402 849.434 L398.98 857.856 L388.367 863.263 
  L376.603 865.127  Z
  " fill="#000000" fill-rule="evenodd" fill-opacity="0"/>
<polyline clip-path="url(#clip782)" style="stroke:#000000; stroke-linecap:butt; stroke-linejoin:round; stroke-width:4; stroke-opacity:1; fill:none" points="
  376.603,865.127 364.839,863.263 354.226,857.856 345.804,849.434 340.396,838.821 338.533,827.057 340.396,815.292 345.804,804.68 354.226,796.257 364.839,790.85 
  376.603,788.987 388.367,790.85 398.98,796.257 407.402,804.68 412.81,815.292 414.673,827.057 412.81,838.821 407.402,849.434 398.98,857.856 388.367,863.263 
  376.603,865.127 
  "/>
<path clip-path="url(#clip782)" d="
M376.603 750.448 L364.839 748.585 L354.226 743.178 L345.804 734.755 L340.396 724.143 L338.533 712.378 L340.396 700.614 L345.804 690.001 L354.226 681.579 L364.839 676.172 
  L376.603 674.308 L388.367 676.172 L398.98 681.579 L407.402 690.001 L412.81 700.614 L414.673 712.378 L412.81 724.143 L407.402 734.755 L398.98 743.178 L388.367 748.585 
  L376.603 750.448  Z
  " fill="#000000" fill-rule="evenodd" fill-opacity="0"/>
<polyline clip-path="url(#clip782)" style="stroke:#000000; stroke-linecap:butt; stroke-linejoin:round; stroke-width:4; stroke-opacity:1; fill:none" points="
  376.603,750.448 364.839,748.585 354.226,743.178 345.804,734.755 340.396,724.143 338.533,712.378 340.396,700.614 345.804,690.001 354.226,681.579 364.839,676.172 
  376.603,674.308 388.367,676.172 398.98,681.579 407.402,690.001 412.81,700.614 414.673,712.378 412.81,724.143 407.402,734.755 398.98,743.178 388.367,748.585 
  376.603,750.448 
  "/>
<path clip-path="url(#clip782)" d="
M376.603 635.77 L364.839 633.907 L354.226 628.499 L345.804 620.077 L340.396 609.464 L338.533 597.7 L340.396 585.936 L345.804 575.323 L354.226 566.901 L364.839 561.493 
  L376.603 559.63 L388.367 561.493 L398.98 566.901 L407.402 575.323 L412.81 585.936 L414.673 597.7 L412.81 609.464 L407.402 620.077 L398.98 628.499 L388.367 633.907 
  L376.603 635.77  Z
  " fill="#000000" fill-rule="evenodd" fill-opacity="0"/>
<polyline clip-path="url(#clip782)" style="stroke:#000000; stroke-linecap:butt; stroke-linejoin:round; stroke-width:4; stroke-opacity:1; fill:none" points="
  376.603,635.77 364.839,633.907 354.226,628.499 345.804,620.077 340.396,609.464 338.533,597.7 340.396,585.936 345.804,575.323 354.226,566.901 364.839,561.493 
  376.603,559.63 388.367,561.493 398.98,566.901 407.402,575.323 412.81,585.936 414.673,597.7 412.81,609.464 407.402,620.077 398.98,628.499 388.367,633.907 
  376.603,635.77 
  "/>
<path clip-path="url(#clip782)" d="
M376.603 521.092 L364.839 519.228 L354.226 513.821 L345.804 505.399 L340.396 494.786 L338.533 483.022 L340.396 471.257 L345.804 460.645 L354.226 452.222 L364.839 446.815 
  L376.603 444.952 L388.367 446.815 L398.98 452.222 L407.402 460.645 L412.81 471.257 L414.673 483.022 L412.81 494.786 L407.402 505.399 L398.98 513.821 L388.367 519.228 
  L376.603 521.092  Z
  " fill="#000000" fill-rule="evenodd" fill-opacity="0"/>
<polyline clip-path="url(#clip782)" style="stroke:#000000; stroke-linecap:butt; stroke-linejoin:round; stroke-width:4; stroke-opacity:1; fill:none" points="
  376.603,521.092 364.839,519.228 354.226,513.821 345.804,505.399 340.396,494.786 338.533,483.022 340.396,471.257 345.804,460.645 354.226,452.222 364.839,446.815 
  376.603,444.952 388.367,446.815 398.98,452.222 407.402,460.645 412.81,471.257 414.673,483.022 412.81,494.786 407.402,505.399 398.98,513.821 388.367,519.228 
  376.603,521.092 
  "/>
<path clip-path="url(#clip782)" d="
M376.603 406.413 L364.839 404.55 L354.226 399.143 L345.804 390.72 L340.396 380.108 L338.533 368.343 L340.396 356.579 L345.804 345.966 L354.226 337.544 L364.839 332.137 
  L376.603 330.273 L388.367 332.137 L398.98 337.544 L407.402 345.966 L412.81 356.579 L414.673 368.343 L412.81 380.108 L407.402 390.72 L398.98 399.143 L388.367 404.55 
  L376.603 406.413  Z
  " fill="#000000" fill-rule="evenodd" fill-opacity="0"/>
<polyline clip-path="url(#clip782)" style="stroke:#000000; stroke-linecap:butt; stroke-linejoin:round; stroke-width:4; stroke-opacity:1; fill:none" points="
  376.603,406.413 364.839,404.55 354.226,399.143 345.804,390.72 340.396,380.108 338.533,368.343 340.396,356.579 345.804,345.966 354.226,337.544 364.839,332.137 
  376.603,330.273 388.367,332.137 398.98,337.544 407.402,345.966 412.81,356.579 414.673,368.343 412.81,380.108 407.402,390.72 398.98,399.143 388.367,404.55 
  376.603,406.413 
  "/>
<path clip-path="url(#clip782)" d="M1985.9 1076.25 L1985.9 1151.25 L2060.9 1151.25 L2060.9 1076.25 L1985.9 1076.25 Z" fill="#dda0dd" fill-rule="evenodd" fill-opacity="1" stroke="#000000" stroke-opacity="1" stroke-width="3.2"/>
<path clip-path="url(#clip782)" d="M1985.9 961.574 L1985.9 1036.57 L2060.9 1036.57 L2060.9 961.574 L1985.9 961.574 Z" fill="#dda0dd" fill-rule="evenodd" fill-opacity="1" stroke="#000000" stroke-opacity="1" stroke-width="3.2"/>
<path clip-path="url(#clip782)" d="M1985.9 846.896 L1985.9 921.896 L2060.9 921.896 L2060.9 846.896 L1985.9 846.896 Z" fill="#dda0dd" fill-rule="evenodd" fill-opacity="1" stroke="#000000" stroke-opacity="1" stroke-width="3.2"/>
<path clip-path="url(#clip782)" d="M1985.9 732.218 L1985.9 807.218 L2060.9 807.218 L2060.9 732.218 L1985.9 732.218 Z" fill="#dda0dd" fill-rule="evenodd" fill-opacity="1" stroke="#000000" stroke-opacity="1" stroke-width="3.2"/>
<path clip-path="url(#clip782)" d="M1985.9 617.539 L1985.9 692.539 L2060.9 692.539 L2060.9 617.539 L1985.9 617.539 Z" fill="#dda0dd" fill-rule="evenodd" fill-opacity="1" stroke="#000000" stroke-opacity="1" stroke-width="3.2"/>
<path clip-path="url(#clip782)" d="M1985.9 502.861 L1985.9 577.861 L2060.9 577.861 L2060.9 502.861 L1985.9 502.861 Z" fill="#dda0dd" fill-rule="evenodd" fill-opacity="1" stroke="#000000" stroke-opacity="1" stroke-width="3.2"/>
<path clip-path="url(#clip782)" d="M1985.9 388.183 L1985.9 463.183 L2060.9 463.183 L2060.9 388.183 L1985.9 388.183 Z" fill="#dda0dd" fill-rule="evenodd" fill-opacity="1" stroke="#000000" stroke-opacity="1" stroke-width="3.2"/>
<path clip-path="url(#clip782)" d="M412.603 1171.09 L358.603 1139.59 L358.603 1202.59 L412.603 1171.09 Z" fill="#ffff00" fill-rule="evenodd" fill-opacity="1" stroke="#000000" stroke-opacity="1" stroke-width="3.2"/>
<path clip-path="url(#clip782)" d="M412.603 1056.41 L358.603 1024.91 L358.603 1087.91 L412.603 1056.41 Z" fill="#ffff00" fill-rule="evenodd" fill-opacity="1" stroke="#000000" stroke-opacity="1" stroke-width="3.2"/>
<path clip-path="url(#clip782)" d="M412.603 941.735 L358.603 910.235 L358.603 973.235 L412.603 941.735 Z" fill="#ffff00" fill-rule="evenodd" fill-opacity="1" stroke="#000000" stroke-opacity="1" stroke-width="3.2"/>
<path clip-path="url(#clip782)" d="M412.603 827.057 L358.603 795.557 L358.603 858.557 L412.603 827.057 Z" fill="#ffff00" fill-rule="evenodd" fill-opacity="1" stroke="#000000" stroke-opacity="1" stroke-width="3.2"/>
<path clip-path="url(#clip782)" d="M412.603 712.378 L358.603 680.878 L358.603 743.878 L412.603 712.378 Z" fill="#ffff00" fill-rule="evenodd" fill-opacity="1" stroke="#000000" stroke-opacity="1" stroke-width="3.2"/>
<path clip-path="url(#clip782)" d="M412.603 597.7 L358.603 566.2 L358.603 629.2 L412.603 597.7 Z" fill="#ffff00" fill-rule="evenodd" fill-opacity="1" stroke="#000000" stroke-opacity="1" stroke-width="3.2"/>
<path clip-path="url(#clip782)" d="M412.603 483.022 L358.603 451.522 L358.603 514.522 L412.603 483.022 Z" fill="#ffff00" fill-rule="evenodd" fill-opacity="1" stroke="#000000" stroke-opacity="1" stroke-width="3.2"/>
<path clip-path="url(#clip782)" d="M412.603 368.343 L358.603 336.843 L358.603 399.843 L412.603 368.343 Z" fill="#ffff00" fill-rule="evenodd" fill-opacity="1" stroke="#000000" stroke-opacity="1" stroke-width="3.2"/>
<path clip-path="url(#clip782)" d="M2053.4 1113.75 L2008.4 1087.5 L2008.4 1140 L2053.4 1113.75 Z" fill="#ffa500" fill-rule="evenodd" fill-opacity="1" stroke="#000000" stroke-opacity="1" stroke-width="3.2"/>
<path clip-path="url(#clip782)" d="M2053.4 999.074 L2008.4 972.824 L2008.4 1025.32 L2053.4 999.074 Z" fill="#ffa500" fill-rule="evenodd" fill-opacity="1" stroke="#000000" stroke-opacity="1" stroke-width="3.2"/>
<path clip-path="url(#clip782)" d="M2053.4 884.396 L2008.4 858.146 L2008.4 910.646 L2053.4 884.396 Z" fill="#ffa500" fill-rule="evenodd" fill-opacity="1" stroke="#000000" stroke-opacity="1" stroke-width="3.2"/>
<path clip-path="url(#clip782)" d="M2053.4 769.718 L2008.4 743.468 L2008.4 795.968 L2053.4 769.718 Z" fill="#ffa500" fill-rule="evenodd" fill-opacity="1" stroke="#000000" stroke-opacity="1" stroke-width="3.2"/>
<path clip-path="url(#clip782)" d="M2053.4 655.039 L2008.4 628.789 L2008.4 681.289 L2053.4 655.039 Z" fill="#ffa500" fill-rule="evenodd" fill-opacity="1" stroke="#000000" stroke-opacity="1" stroke-width="3.2"/>
<path clip-path="url(#clip782)" d="M2053.4 540.361 L2008.4 514.111 L2008.4 566.611 L2053.4 540.361 Z" fill="#ffa500" fill-rule="evenodd" fill-opacity="1" stroke="#000000" stroke-opacity="1" stroke-width="3.2"/>
<path clip-path="url(#clip782)" d="M2053.4 425.683 L2008.4 399.433 L2008.4 451.933 L2053.4 425.683 Z" fill="#ffa500" fill-rule="evenodd" fill-opacity="1" stroke="#000000" stroke-opacity="1" stroke-width="3.2"/>
<path clip-path="url(#clip780)" d="M318.983 265.436 L322.985 263.98 L331.853 288.342 L327.85 289.799 L318.983 265.436 M315.531 255.952 L319.534 254.496 L321.378 259.564 L317.376 261.021 L315.531 255.952 Z" fill="#000000" fill-rule="evenodd" fill-opacity="1" /><path clip-path="url(#clip780)" d="M355.126 263.219 L360.478 277.923 L356.476 279.38 L351.171 264.806 Q349.913 261.347 347.939 260.12 Q345.964 258.892 343.267 259.874 Q340.026 261.054 338.908 263.801 Q337.789 266.548 339.087 270.116 L344.099 283.885 L340.075 285.349 L331.208 260.987 L335.232 259.522 L336.609 263.307 Q337.245 260.588 338.785 258.795 Q340.347 256.995 342.892 256.069 Q347.09 254.541 350.194 256.367 Q353.29 258.172 355.126 263.219 Z" fill="#000000" fill-rule="evenodd" fill-opacity="1" /><path clip-path="url(#clip780)" d="M371.003 269.954 L375.706 282.875 L371.682 284.339 L359.442 250.711 L363.466 249.246 L364.812 252.944 Q365.282 250.309 366.816 248.569 Q368.364 246.798 371.039 245.824 Q375.477 244.209 379.522 246.728 Q383.589 249.238 385.679 254.981 Q387.769 260.723 386.267 265.26 Q384.787 269.79 380.35 271.405 Q377.674 272.378 375.358 272.039 Q373.056 271.67 371.003 269.954 M381.524 256.493 Q379.917 252.077 377.179 250.241 Q374.456 248.374 371.28 249.53 Q368.104 250.686 367.195 253.875 Q366.3 257.033 367.907 261.449 Q369.515 265.864 372.238 267.731 Q374.976 269.567 378.152 268.411 Q381.328 267.255 382.223 264.097 Q383.131 260.908 381.524 256.493 Z" fill="#000000" fill-rule="evenodd" fill-opacity="1" /><path clip-path="url(#clip780)" d="M392.826 255.261 L387.458 240.513 L391.461 239.057 L396.773 253.652 Q398.032 257.111 400.014 258.36 Q401.988 259.588 404.685 258.606 Q407.926 257.426 409.045 254.679 Q410.185 251.924 408.887 248.356 L403.859 234.544 L407.862 233.087 L416.729 257.449 L412.727 258.906 L411.365 255.165 Q410.715 257.914 409.175 259.706 Q407.649 261.469 405.104 262.395 Q400.906 263.923 397.78 262.104 Q394.655 260.286 392.826 255.261 M397.316 236.26 L397.316 236.26 Z" fill="#000000" fill-rule="evenodd" fill-opacity="1" /><path clip-path="url(#clip780)" d="M417.547 221.728 L420.065 228.646 L428.309 225.645 L429.441 228.756 L421.197 231.756 L426.01 244.981 Q427.095 247.961 428.209 248.517 Q429.344 249.064 431.846 248.154 L435.957 246.657 L437.176 250.007 L433.065 251.504 Q428.432 253.19 426.044 252.113 Q423.649 251.014 421.986 246.446 L417.173 233.221 L414.236 234.29 L413.104 231.179 L416.041 230.11 L413.523 223.193 L417.547 221.728 Z" fill="#000000" fill-rule="evenodd" fill-opacity="1" /><path clip-path="url(#clip780)" d="M1841.27 361.737 L1842.96 366.37 Q1839.99 365.111 1837.09 365.007 Q1834.22 364.895 1831.39 365.924 Q1825.82 367.951 1824.11 372.443 Q1822.38 376.913 1824.73 383.352 Q1827.06 389.768 1831.26 392.107 Q1835.46 394.423 1841.02 392.397 Q1843.85 391.367 1845.98 389.435 Q1848.13 387.494 1849.6 384.62 L1851.27 389.21 Q1849.53 391.615 1847.23 393.34 Q1844.95 395.057 1842.08 396.102 Q1834.7 398.786 1828.82 395.827 Q1822.93 392.847 1820.09 385.038 Q1817.24 377.207 1819.85 371.161 Q1822.44 365.092 1829.81 362.409 Q1832.73 361.348 1835.58 361.196 Q1838.45 361.016 1841.27 361.737 Z" fill="#000000" fill-rule="evenodd" fill-opacity="1" /><path clip-path="url(#clip780)" d="M1860.39 364.312 Q1857.17 365.484 1856.22 368.688 Q1855.26 371.87 1856.85 376.242 Q1858.44 380.614 1861.21 382.465 Q1863.99 384.285 1867.23 383.106 Q1870.43 381.942 1871.38 378.738 Q1872.33 375.534 1870.75 371.183 Q1869.17 366.855 1866.38 365.012 Q1863.59 363.148 1860.39 364.312 M1859.15 360.919 Q1864.37 359.018 1868.59 361.327 Q1872.8 363.636 1874.99 369.639 Q1877.17 375.621 1875.43 380.121 Q1873.68 384.599 1868.46 386.499 Q1863.22 388.407 1859.01 386.098 Q1854.8 383.76 1852.63 377.778 Q1850.44 371.775 1852.17 367.305 Q1853.91 362.827 1859.15 360.919 Z" fill="#000000" fill-rule="evenodd" fill-opacity="1" /><path clip-path="url(#clip780)" d="M1900.95 357.309 L1906.3 372.013 L1902.3 373.47 L1896.99 358.896 Q1895.73 355.438 1893.76 354.21 Q1891.79 352.982 1889.09 353.964 Q1885.85 355.144 1884.73 357.891 Q1883.61 360.638 1884.91 364.206 L1889.92 377.975 L1885.9 379.439 L1877.03 355.077 L1881.05 353.613 L1882.43 357.397 Q1883.07 354.678 1884.61 352.886 Q1886.17 351.086 1888.71 350.159 Q1892.91 348.631 1896.02 350.458 Q1899.11 352.262 1900.95 357.309 Z" fill="#000000" fill-rule="evenodd" fill-opacity="1" /><path clip-path="url(#clip780)" d="M1902.54 345.79 L1906.79 344.247 L1921.84 361.923 L1922.01 338.705 L1926.25 337.161 L1925.99 364.848 L1920.55 366.828 L1902.54 345.79 Z" fill="#000000" fill-rule="evenodd" fill-opacity="1" /><path clip-path="url(#clip780)" d="M1937.96 322.21 Q1936.86 328.274 1937.23 333.683 Q1937.6 339.092 1939.43 344.116 Q1941.26 349.141 1944.47 353.564 Q1947.69 357.958 1952.4 361.886 L1948.92 363.153 Q1943.79 359.228 1940.37 354.885 Q1936.96 350.533 1935.19 345.66 Q1933.42 340.81 1933.24 335.308 Q1933.06 329.806 1934.48 323.477 L1937.96 322.21 Z" fill="#000000" fill-rule="evenodd" fill-opacity="1" /><path clip-path="url(#clip780)" d="M1955.34 315.884 Q1954.24 321.948 1954.61 327.357 Q1954.98 332.766 1956.81 337.791 Q1958.64 342.815 1961.85 347.238 Q1965.07 351.632 1969.78 355.56 L1966.3 356.827 Q1961.17 352.903 1957.75 348.559 Q1954.34 344.207 1952.57 339.334 Q1950.8 334.484 1950.62 328.982 Q1950.44 323.48 1951.86 317.151 L1955.34 315.884 Z" fill="#000000" fill-rule="evenodd" fill-opacity="1" /><path clip-path="url(#clip780)" d="M1978.41 341.579 L1993.75 335.998 L1995.09 339.696 L1974.47 347.201 L1973.12 343.503 Q1974.68 340.004 1977.41 334.086 Q1980.14 328.139 1980.79 326.473 Q1982.04 323.334 1982.27 321.402 Q1982.52 319.44 1981.94 317.852 Q1981 315.264 1978.58 314.297 Q1976.18 313.323 1973.27 314.384 Q1971.2 315.136 1969.16 316.693 Q1967.13 318.242 1965.05 320.65 L1963.44 316.212 Q1965.7 314.181 1967.81 312.798 Q1969.92 311.415 1971.83 310.718 Q1976.88 308.881 1980.8 310.312 Q1984.72 311.742 1986.26 315.962 Q1986.98 317.964 1986.88 320.046 Q1986.79 322.099 1985.7 325.256 Q1985.38 326.084 1983.57 330.169 Q1981.75 334.231 1978.41 341.579 Z" fill="#000000" fill-rule="evenodd" fill-opacity="1" /><path clip-path="url(#clip780)" d="M2002.76 330.648 L2007.35 328.977 L2008.71 332.718 L2007.68 340.977 L2004.87 341.999 L2004.12 334.389 L2002.76 330.648 Z" fill="#000000" fill-rule="evenodd" fill-opacity="1" /><path clip-path="url(#clip780)" d="M2004.98 297.818 L2008.46 296.551 Q2013.59 300.497 2016.99 304.827 Q2020.41 309.149 2022.17 314 Q2023.95 318.872 2024.11 324.404 Q2024.3 329.927 2022.9 336.227 L2019.42 337.493 Q2020.5 331.459 2020.12 326.029 Q2019.76 320.568 2017.93 315.544 Q2016.1 310.519 2012.88 306.147 Q2009.69 301.768 2004.98 297.818 Z" fill="#000000" fill-rule="evenodd" fill-opacity="1" /><path clip-path="url(#clip780)" d="M2034.3 319.168 L2038.89 317.497 L2040.25 321.239 L2039.22 329.498 L2036.41 330.519 L2035.66 322.909 L2034.3 319.168 Z" fill="#000000" fill-rule="evenodd" fill-opacity="1" /><path clip-path="url(#clip780)" d="M2063.59 310.576 L2070.77 307.963 L2061.75 283.188 L2054.51 287.596 L2053.06 283.594 L2060.25 279.201 L2064.65 277.602 L2075.12 306.38 L2082.3 303.767 L2083.64 307.465 L2064.94 314.274 L2063.59 310.576 Z" fill="#000000" fill-rule="evenodd" fill-opacity="1" /><path clip-path="url(#clip780)" d="M2099.27 278.867 L2127.16 268.718 L2128.49 272.372 L2100.6 282.522 L2099.27 278.867 M2102.5 287.742 L2130.39 277.593 L2131.73 281.29 L2103.85 291.44 L2102.5 287.742 Z" fill="#000000" fill-rule="evenodd" fill-opacity="1" /><path clip-path="url(#clip780)" d="M2135.98 263.585 L2134.54 259.626 L2166.11 259.591 L2167.42 263.202 L2143.22 283.466 L2141.78 279.508 L2161.29 263.413 L2135.98 263.585 Z" fill="#000000" fill-rule="evenodd" fill-opacity="1" /><path clip-path="url(#clip780)" d="M2194.91 262.781 L2202.09 260.168 L2193.07 235.392 L2185.83 239.801 L2184.37 235.798 L2191.57 231.406 L2195.96 229.807 L2206.44 258.585 L2213.61 255.972 L2214.96 259.67 L2196.25 266.478 L2194.91 262.781 Z" fill="#000000" fill-rule="evenodd" fill-opacity="1" /><path clip-path="url(#clip780)" d="M2210.34 223.072 L2213.82 221.806 Q2218.95 225.752 2222.35 230.082 Q2225.77 234.404 2227.53 239.255 Q2229.31 244.127 2229.47 249.658 Q2229.66 255.182 2228.26 261.481 L2224.78 262.748 Q2225.86 256.714 2225.48 251.283 Q2225.12 245.823 2223.29 240.798 Q2221.46 235.774 2218.25 231.402 Q2215.05 227.022 2210.34 223.072 Z" fill="#000000" fill-rule="evenodd" fill-opacity="1" /></svg>
