<?xml version="1.0" encoding="utf-8"?>
<svg xmlns="http://www.w3.org/2000/svg" xmlns:xlink="http://www.w3.org/1999/xlink" width="600" height="400" viewBox="0 0 2400 1600">
<defs>
  <clipPath id="clip220">
    <rect x="0" y="0" width="2400" height="1600"/>
  </clipPath>
</defs>
<path clip-path="url(#clip220)" d="
M0 1600 L2400 1600 L2400 0 L0 0  Z
  " fill="#ffffff" fill-rule="evenodd" fill-opacity="1"/>
<defs>
  <clipPath id="clip221">
    <rect x="480" y="0" width="1681" height="1600"/>
  </clipPath>
</defs>
<path clip-path="url(#clip220)" d="
M47.2441 1552.76 L2352.76 1552.76 L2352.76 106.192 L47.2441 106.192  Z
  " fill="#ffffff" fill-rule="evenodd" fill-opacity="1"/>
<defs>
  <clipPath id="clip222">
    <rect x="47" y="106" width="2307" height="1448"/>
  </clipPath>
</defs>
<path clip-path="url(#clip220)" d="M268.972 11.9675 L268.972 18.1307 Q266.021 15.3819 262.664 14.0219 Q259.337 12.662 255.575 12.662 Q248.168 12.662 244.233 17.2048 Q240.297 21.7186 240.297 30.2834 Q240.297 38.8192 244.233 43.362 Q248.168 47.8759 255.575 47.8759 Q259.337 47.8759 262.664 46.516 Q266.021 45.156 268.972 42.4072 L268.972 48.5125 Q265.905 50.5958 262.462 51.6375 Q259.047 52.6791 255.228 52.6791 Q245.419 52.6791 239.777 46.6896 Q234.134 40.6711 234.134 30.2834 Q234.134 19.8668 239.777 13.8772 Q245.419 7.85875 255.228 7.85875 Q259.105 7.85875 262.519 8.90042 Q265.963 9.91314 268.972 11.9675 Z" fill="#000000" fill-rule="evenodd" fill-opacity="1" /><path clip-path="url(#clip220)" d="M304.707 32.2799 L304.707 51.84 L299.383 51.84 L299.383 32.4535 Q299.383 27.8529 297.589 25.567 Q295.795 23.2811 292.207 23.2811 Q287.896 23.2811 285.407 26.03 Q282.919 28.7788 282.919 33.5241 L282.919 51.84 L277.566 51.84 L277.566 6.81709 L282.919 6.81709 L282.919 24.4675 Q284.828 21.545 287.404 20.0983 Q290.008 18.6515 293.393 18.6515 Q298.978 18.6515 301.842 22.1237 Q304.707 25.567 304.707 32.2799 Z" fill="#000000" fill-rule="evenodd" fill-opacity="1" /><path clip-path="url(#clip220)" d="M330.054 35.5496 Q323.601 35.5496 321.113 37.0253 Q318.625 38.501 318.625 42.06 Q318.625 44.8956 320.476 46.5738 Q322.357 48.2231 325.569 48.2231 Q329.996 48.2231 332.658 45.0981 Q335.349 41.9442 335.349 36.7359 L335.349 35.5496 L330.054 35.5496 M340.673 33.3505 L340.673 51.84 L335.349 51.84 L335.349 46.921 Q333.526 49.8724 330.806 51.2902 Q328.086 52.6791 324.151 52.6791 Q319.174 52.6791 316.223 49.9014 Q313.3 47.0947 313.3 42.4072 Q313.3 36.9385 316.946 34.1607 Q320.621 31.3829 327.884 31.3829 L335.349 31.3829 L335.349 30.8621 Q335.349 27.1874 332.918 25.1908 Q330.517 23.1654 326.148 23.1654 Q323.37 23.1654 320.737 23.8309 Q318.104 24.4964 315.673 25.8274 L315.673 20.9085 Q318.596 19.78 321.344 19.2302 Q324.093 18.6515 326.697 18.6515 Q333.729 18.6515 337.201 22.2973 Q340.673 25.9431 340.673 33.3505 Z" fill="#000000" fill-rule="evenodd" fill-opacity="1" /><path clip-path="url(#clip220)" d="M351.639 19.4328 L356.963 19.4328 L356.963 51.84 L351.639 51.84 L351.639 19.4328 M351.639 6.81709 L356.963 6.81709 L356.963 13.559 L351.639 13.559 L351.639 6.81709 Z" fill="#000000" fill-rule="evenodd" fill-opacity="1" /><path clip-path="url(#clip220)" d="M395.042 32.2799 L395.042 51.84 L389.718 51.84 L389.718 32.4535 Q389.718 27.8529 387.924 25.567 Q386.13 23.2811 382.542 23.2811 Q378.231 23.2811 375.742 26.03 Q373.254 28.7788 373.254 33.5241 L373.254 51.84 L367.901 51.84 L367.901 19.4328 L373.254 19.4328 L373.254 24.4675 Q375.164 21.545 377.739 20.0983 Q380.343 18.6515 383.728 18.6515 Q389.313 18.6515 392.177 22.1237 Q395.042 25.567 395.042 32.2799 Z" fill="#000000" fill-rule="evenodd" fill-opacity="1" /><path clip-path="url(#clip220)" d="M418.45 6.87496 Q414.573 13.53 412.692 20.0404 Q410.812 26.5508 410.812 33.2348 Q410.812 39.9188 412.692 46.487 Q414.602 53.0263 418.45 59.6525 L413.821 59.6525 Q409.481 52.8527 407.31 46.2845 Q405.169 39.7162 405.169 33.2348 Q405.169 26.7823 407.31 20.2429 Q409.452 13.7036 413.821 6.87496 L418.45 6.87496 Z" fill="#000000" fill-rule="evenodd" fill-opacity="1" /><path clip-path="url(#clip220)" d="M434.857 13.4432 L434.857 47.0368 L441.917 47.0368 Q450.858 47.0368 454.995 42.9859 Q459.162 38.935 459.162 30.1966 Q459.162 21.5161 454.995 17.4941 Q450.858 13.4432 441.917 13.4432 L434.857 13.4432 M429.012 8.64 L441.02 8.64 Q453.577 8.64 459.451 13.8772 Q465.325 19.0855 465.325 30.1966 Q465.325 41.3655 459.422 46.6028 Q453.52 51.84 441.02 51.84 L429.012 51.84 L429.012 8.64 Z" fill="#000000" fill-rule="evenodd" fill-opacity="1" /><path clip-path="url(#clip220)" d="M502.13 34.3054 L502.13 36.9095 L477.651 36.9095 Q477.999 42.4072 480.95 45.3007 Q483.93 48.1653 489.225 48.1653 Q492.293 48.1653 495.157 47.4129 Q498.051 46.6606 500.886 45.156 L500.886 50.1907 Q498.022 51.406 495.012 52.0425 Q492.003 52.6791 488.907 52.6791 Q481.153 52.6791 476.61 48.1653 Q472.096 43.6514 472.096 35.9547 Q472.096 27.9975 476.378 23.339 Q480.69 18.6515 487.981 18.6515 Q494.521 18.6515 498.311 22.876 Q502.13 27.0716 502.13 34.3054 M496.806 32.7429 Q496.749 28.3737 494.347 25.7695 Q491.974 23.1654 488.039 23.1654 Q483.583 23.1654 480.892 25.6827 Q478.23 28.2001 477.825 32.7718 L496.806 32.7429 Z" fill="#000000" fill-rule="evenodd" fill-opacity="1" /><path clip-path="url(#clip220)" d="M537.807 32.2799 L537.807 51.84 L532.483 51.84 L532.483 32.4535 Q532.483 27.8529 530.689 25.567 Q528.895 23.2811 525.307 23.2811 Q520.996 23.2811 518.508 26.03 Q516.019 28.7788 516.019 33.5241 L516.019 51.84 L510.666 51.84 L510.666 19.4328 L516.019 19.4328 L516.019 24.4675 Q517.929 21.545 520.504 20.0983 Q523.108 18.6515 526.494 18.6515 Q532.078 18.6515 534.943 22.1237 Q537.807 25.567 537.807 32.2799 Z" fill="#000000" fill-rule="evenodd" fill-opacity="1" /><path clip-path="url(#clip220)" d="M569.086 20.3876 L569.086 25.4223 Q566.829 24.2649 564.399 23.6862 Q561.968 23.1075 559.364 23.1075 Q555.4 23.1075 553.403 24.3228 Q551.436 25.5381 551.436 27.9686 Q551.436 29.8204 552.854 30.891 Q554.271 31.9327 558.554 32.8876 L560.377 33.2926 Q566.048 34.5079 568.421 36.7359 Q570.822 38.935 570.822 42.8991 Q570.822 47.4129 567.234 50.046 Q563.675 52.6791 557.425 52.6791 Q554.821 52.6791 551.986 52.1583 Q549.179 51.6664 546.054 50.6537 L546.054 45.156 Q549.005 46.6896 551.87 47.4708 Q554.734 48.2231 557.541 48.2231 Q561.303 48.2231 563.328 46.95 Q565.354 45.6479 565.354 43.3042 Q565.354 41.134 563.878 39.9766 Q562.431 38.8192 557.483 37.7486 L555.631 37.3146 Q550.683 36.273 548.484 34.1318 Q546.285 31.9616 546.285 28.2001 Q546.285 23.6283 549.526 21.1399 Q552.767 18.6515 558.727 18.6515 Q561.679 18.6515 564.283 19.0855 Q566.887 19.5196 569.086 20.3876 Z" fill="#000000" fill-rule="evenodd" fill-opacity="1" /><path clip-path="url(#clip220)" d="M607.02 34.3054 L607.02 36.9095 L582.541 36.9095 Q582.888 42.4072 585.84 45.3007 Q588.82 48.1653 594.115 48.1653 Q597.182 48.1653 600.047 47.4129 Q602.94 46.6606 605.776 45.156 L605.776 50.1907 Q602.911 51.406 599.902 52.0425 Q596.893 52.6791 593.797 52.6791 Q586.042 52.6791 581.499 48.1653 Q576.985 43.6514 576.985 35.9547 Q576.985 27.9975 581.268 23.339 Q585.579 18.6515 592.871 18.6515 Q599.41 18.6515 603.201 22.876 Q607.02 27.0716 607.02 34.3054 M601.696 32.7429 Q601.638 28.3737 599.236 25.7695 Q596.864 23.1654 592.929 23.1654 Q588.473 23.1654 585.782 25.6827 Q583.12 28.2001 582.715 32.7718 L601.696 32.7429 Z" fill="#000000" fill-rule="evenodd" fill-opacity="1" /><path clip-path="url(#clip220)" d="M628.548 6.87496 Q624.67 13.53 622.79 20.0404 Q620.909 26.5508 620.909 33.2348 Q620.909 39.9188 622.79 46.487 Q624.699 53.0263 628.548 59.6525 L623.918 59.6525 Q619.578 52.8527 617.408 46.2845 Q615.266 39.7162 615.266 33.2348 Q615.266 26.7823 617.408 20.2429 Q619.549 13.7036 623.918 6.87496 L628.548 6.87496 Z" fill="#000000" fill-rule="evenodd" fill-opacity="1" /><path clip-path="url(#clip220)" d="M644.664 46.921 L665.064 46.921 L665.064 51.84 L637.633 51.84 L637.633 46.921 Q640.961 43.4778 646.69 37.6908 Q652.448 31.8748 653.924 30.1966 Q656.73 27.0427 657.83 24.8726 Q658.958 22.6735 658.958 20.5612 Q658.958 17.118 656.528 14.9478 Q654.126 12.7777 650.249 12.7777 Q647.5 12.7777 644.433 13.7326 Q641.395 14.6874 637.923 16.6261 L637.923 10.7233 Q641.453 9.30551 644.52 8.58213 Q647.587 7.85875 650.133 7.85875 Q656.846 7.85875 660.839 11.2152 Q664.832 14.5717 664.832 20.1851 Q664.832 22.8471 663.819 25.2487 Q662.836 27.6214 660.203 30.8621 Q659.479 31.7012 655.602 35.7232 Q651.725 39.7162 644.664 46.921 Z" fill="#000000" fill-rule="evenodd" fill-opacity="1" /><path clip-path="url(#clip220)" d="M677.94 44.4905 L684.045 44.4905 L684.045 49.4673 L679.3 58.7265 L675.567 58.7265 L677.94 49.4673 L677.94 44.4905 Z" fill="#000000" fill-rule="evenodd" fill-opacity="1" /><path clip-path="url(#clip220)" d="M715.063 8.64 L738.009 8.64 L738.009 13.559 L720.416 13.559 L720.416 24.1492 Q721.689 23.7152 722.963 23.5126 Q724.236 23.2811 725.509 23.2811 Q732.743 23.2811 736.967 27.2452 Q741.192 31.2093 741.192 37.9801 Q741.192 44.9535 736.851 48.8308 Q732.511 52.6791 724.612 52.6791 Q721.892 52.6791 719.056 52.2162 Q716.25 51.7532 713.24 50.8273 L713.24 44.9535 Q715.845 46.3713 718.622 47.0657 Q721.4 47.7602 724.496 47.7602 Q729.502 47.7602 732.424 45.1271 Q735.347 42.494 735.347 37.9801 Q735.347 33.4663 732.424 30.8332 Q729.502 28.2001 724.496 28.2001 Q722.152 28.2001 719.809 28.7209 Q717.494 29.2417 715.063 30.3413 L715.063 8.64 Z" fill="#000000" fill-rule="evenodd" fill-opacity="1" /><path clip-path="url(#clip220)" d="M751.116 6.87496 L755.746 6.87496 Q760.086 13.7036 762.227 20.2429 Q764.398 26.7823 764.398 33.2348 Q764.398 39.7162 762.227 46.2845 Q760.086 52.8527 755.746 59.6525 L751.116 59.6525 Q754.965 53.0263 756.846 46.487 Q758.755 39.9188 758.755 33.2348 Q758.755 26.5508 756.846 20.0404 Q754.965 13.53 751.116 6.87496 Z" fill="#000000" fill-rule="evenodd" fill-opacity="1" /><path clip-path="url(#clip220)" d="M776.435 44.4905 L782.54 44.4905 L782.54 49.4673 L777.795 58.7265 L774.062 58.7265 L776.435 49.4673 L776.435 44.4905 Z" fill="#000000" fill-rule="evenodd" fill-opacity="1" /><path clip-path="url(#clip220)" d="M818.824 13.4432 L818.824 47.0368 L825.885 47.0368 Q834.825 47.0368 838.963 42.9859 Q843.13 38.935 843.13 30.1966 Q843.13 21.5161 838.963 17.4941 Q834.825 13.4432 825.885 13.4432 L818.824 13.4432 M812.98 8.64 L824.988 8.64 Q837.545 8.64 843.419 13.8772 Q849.293 19.0855 849.293 30.1966 Q849.293 41.3655 843.39 46.6028 Q837.487 51.84 824.988 51.84 L812.98 51.84 L812.98 8.64 Z" fill="#000000" fill-rule="evenodd" fill-opacity="1" /><path clip-path="url(#clip220)" d="M886.098 34.3054 L886.098 36.9095 L861.619 36.9095 Q861.967 42.4072 864.918 45.3007 Q867.898 48.1653 873.193 48.1653 Q876.26 48.1653 879.125 47.4129 Q882.018 46.6606 884.854 45.156 L884.854 50.1907 Q881.99 51.406 878.98 52.0425 Q875.971 52.6791 872.875 52.6791 Q865.12 52.6791 860.578 48.1653 Q856.064 43.6514 856.064 35.9547 Q856.064 27.9975 860.346 23.339 Q864.657 18.6515 871.949 18.6515 Q878.488 18.6515 882.279 22.876 Q886.098 27.0716 886.098 34.3054 M880.774 32.7429 Q880.716 28.3737 878.315 25.7695 Q875.942 23.1654 872.007 23.1654 Q867.551 23.1654 864.86 25.6827 Q862.198 28.2001 861.793 32.7718 L880.774 32.7429 Z" fill="#000000" fill-rule="evenodd" fill-opacity="1" /><path clip-path="url(#clip220)" d="M921.775 32.2799 L921.775 51.84 L916.451 51.84 L916.451 32.4535 Q916.451 27.8529 914.657 25.567 Q912.863 23.2811 909.275 23.2811 Q904.964 23.2811 902.476 26.03 Q899.987 28.7788 899.987 33.5241 L899.987 51.84 L894.634 51.84 L894.634 19.4328 L899.987 19.4328 L899.987 24.4675 Q901.897 21.545 904.472 20.0983 Q907.076 18.6515 910.462 18.6515 Q916.046 18.6515 918.911 22.1237 Q921.775 25.567 921.775 32.2799 Z" fill="#000000" fill-rule="evenodd" fill-opacity="1" /><path clip-path="url(#clip220)" d="M953.054 20.3876 L953.054 25.4223 Q950.797 24.2649 948.367 23.6862 Q945.936 23.1075 943.332 23.1075 Q939.368 23.1075 937.371 24.3228 Q935.404 25.5381 935.404 27.9686 Q935.404 29.8204 936.821 30.891 Q938.239 31.9327 942.522 32.8876 L944.345 33.2926 Q950.016 34.5079 952.388 36.7359 Q954.79 38.935 954.79 42.8991 Q954.79 47.4129 951.202 50.046 Q947.643 52.6791 941.393 52.6791 Q938.789 52.6791 935.953 52.1583 Q933.147 51.6664 930.022 50.6537 L930.022 45.156 Q932.973 46.6896 935.838 47.4708 Q938.702 48.2231 941.509 48.2231 Q945.27 48.2231 947.296 46.95 Q949.321 45.6479 949.321 43.3042 Q949.321 41.134 947.846 39.9766 Q946.399 38.8192 941.451 37.7486 L939.599 37.3146 Q934.651 36.273 932.452 34.1318 Q930.253 31.9616 930.253 28.2001 Q930.253 23.6283 933.494 21.1399 Q936.735 18.6515 942.695 18.6515 Q945.647 18.6515 948.251 19.0855 Q950.855 19.5196 953.054 20.3876 Z" fill="#000000" fill-rule="evenodd" fill-opacity="1" /><path clip-path="url(#clip220)" d="M990.988 34.3054 L990.988 36.9095 L966.509 36.9095 Q966.856 42.4072 969.807 45.3007 Q972.788 48.1653 978.083 48.1653 Q981.15 48.1653 984.014 47.4129 Q986.908 46.6606 989.744 45.156 L989.744 50.1907 Q986.879 51.406 983.87 52.0425 Q980.861 52.6791 977.765 52.6791 Q970.01 52.6791 965.467 48.1653 Q960.953 43.6514 960.953 35.9547 Q960.953 27.9975 965.236 23.339 Q969.547 18.6515 976.839 18.6515 Q983.378 18.6515 987.168 22.876 Q990.988 27.0716 990.988 34.3054 M985.664 32.7429 Q985.606 28.3737 983.204 25.7695 Q980.832 23.1654 976.896 23.1654 Q972.44 23.1654 969.749 25.6827 Q967.087 28.2001 966.682 32.7718 L985.664 32.7429 Z" fill="#000000" fill-rule="evenodd" fill-opacity="1" /><path clip-path="url(#clip220)" d="M1012.52 6.87496 Q1008.64 13.53 1006.76 20.0404 Q1004.88 26.5508 1004.88 33.2348 Q1004.88 39.9188 1006.76 46.487 Q1008.67 53.0263 1012.52 59.6525 L1007.89 59.6525 Q1003.55 52.8527 1001.38 46.2845 Q999.234 39.7162 999.234 33.2348 Q999.234 26.7823 1001.38 20.2429 Q1003.52 13.7036 1007.89 6.87496 L1012.52 6.87496 Z" fill="#000000" fill-rule="evenodd" fill-opacity="1" /><path clip-path="url(#clip220)" d="M1023.66 8.64 L1046.6 8.64 L1046.6 13.559 L1029.01 13.559 L1029.01 24.1492 Q1030.28 23.7152 1031.55 23.5126 Q1032.83 23.2811 1034.1 23.2811 Q1041.33 23.2811 1045.56 27.2452 Q1049.78 31.2093 1049.78 37.9801 Q1049.78 44.9535 1045.44 48.8308 Q1041.1 52.6791 1033.2 52.6791 Q1030.48 52.6791 1027.65 52.2162 Q1024.84 51.7532 1021.83 50.8273 L1021.83 44.9535 Q1024.44 46.3713 1027.21 47.0657 Q1029.99 47.7602 1033.09 47.7602 Q1038.09 47.7602 1041.02 45.1271 Q1043.94 42.494 1043.94 37.9801 Q1043.94 33.4663 1041.02 30.8332 Q1038.09 28.2001 1033.09 28.2001 Q1030.74 28.2001 1028.4 28.7209 Q1026.09 29.2417 1023.66 30.3413 L1023.66 8.64 Z" fill="#000000" fill-rule="evenodd" fill-opacity="1" /><path clip-path="url(#clip220)" d="M1061.91 44.4905 L1068.01 44.4905 L1068.01 49.4673 L1063.27 58.7265 L1059.53 58.7265 L1061.91 49.4673 L1061.91 44.4905 Z" fill="#000000" fill-rule="evenodd" fill-opacity="1" /><path clip-path="url(#clip220)" d="M1097.5 8.64 L1125.28 8.64 L1125.28 11.1284 L1109.59 51.84 L1103.49 51.84 L1118.24 13.559 L1097.5 13.559 L1097.5 8.64 Z" fill="#000000" fill-rule="evenodd" fill-opacity="1" /><path clip-path="url(#clip220)" d="M1137.28 44.4905 L1143.39 44.4905 L1143.39 49.4673 L1138.64 58.7265 L1134.91 58.7265 L1137.28 49.4673 L1137.28 44.4905 Z" fill="#000000" fill-rule="evenodd" fill-opacity="1" /><path clip-path="url(#clip220)" d="M1186.15 23.6573 Q1181.76 23.6573 1179.38 26.8401 Q1176.9 30.1677 1176.9 35.6653 Q1176.9 41.4813 1179.35 44.8377 Q1181.84 48.1653 1186.15 48.1653 Q1190.41 48.1653 1192.9 44.8088 Q1195.38 41.4523 1195.38 35.6653 Q1195.38 30.3702 1192.9 26.8401 Q1190.61 23.6573 1186.15 23.6573 M1186.15 19.4328 L1203.83 19.4328 L1203.83 24.7568 L1197.87 24.7568 Q1201.03 29.2707 1201.03 35.6653 Q1201.03 43.6225 1197.06 48.1363 Q1193.1 52.6791 1186.15 52.6791 Q1179.18 52.6791 1175.25 48.1363 Q1171.28 43.6225 1171.28 35.6653 Q1171.28 27.6503 1175.25 23.1654 Q1178.52 19.4328 1186.15 19.4328 Z" fill="#000000" fill-rule="evenodd" fill-opacity="1" /><path clip-path="url(#clip220)" d="M1210.32 6.87496 L1214.94 6.87496 Q1219.29 13.7036 1221.43 20.2429 Q1223.6 26.7823 1223.6 33.2348 Q1223.6 39.7162 1221.43 46.2845 Q1219.29 52.8527 1214.94 59.6525 L1210.32 59.6525 Q1214.16 53.0263 1216.04 46.487 Q1217.95 39.9188 1217.95 33.2348 Q1217.95 26.5508 1216.04 20.0404 Q1214.16 13.53 1210.32 6.87496 Z" fill="#000000" fill-rule="evenodd" fill-opacity="1" /><path clip-path="url(#clip220)" d="M1235.63 44.4905 L1241.74 44.4905 L1241.74 49.4673 L1236.99 58.7265 L1233.26 58.7265 L1235.63 49.4673 L1235.63 44.4905 Z" fill="#000000" fill-rule="evenodd" fill-opacity="1" /><path clip-path="url(#clip220)" d="M1278.02 13.4432 L1278.02 47.0368 L1285.08 47.0368 Q1294.02 47.0368 1298.16 42.9859 Q1302.33 38.935 1302.33 30.1966 Q1302.33 21.5161 1298.16 17.4941 Q1294.02 13.4432 1285.08 13.4432 L1278.02 13.4432 M1272.18 8.64 L1284.19 8.64 Q1296.74 8.64 1302.62 13.8772 Q1308.49 19.0855 1308.49 30.1966 Q1308.49 41.3655 1302.59 46.6028 Q1296.69 51.84 1284.19 51.84 L1272.18 51.84 L1272.18 8.64 Z" fill="#000000" fill-rule="evenodd" fill-opacity="1" /><path clip-path="url(#clip220)" d="M1345.3 34.3054 L1345.3 36.9095 L1320.82 36.9095 Q1321.17 42.4072 1324.12 45.3007 Q1327.1 48.1653 1332.39 48.1653 Q1335.46 48.1653 1338.32 47.4129 Q1341.22 46.6606 1344.05 45.156 L1344.05 50.1907 Q1341.19 51.406 1338.18 52.0425 Q1335.17 52.6791 1332.07 52.6791 Q1324.32 52.6791 1319.78 48.1653 Q1315.26 43.6514 1315.26 35.9547 Q1315.26 27.9975 1319.55 23.339 Q1323.86 18.6515 1331.15 18.6515 Q1337.69 18.6515 1341.48 22.876 Q1345.3 27.0716 1345.3 34.3054 M1339.97 32.7429 Q1339.92 28.3737 1337.51 25.7695 Q1335.14 23.1654 1331.21 23.1654 Q1326.75 23.1654 1324.06 25.6827 Q1321.4 28.2001 1320.99 32.7718 L1339.97 32.7429 Z" fill="#000000" fill-rule="evenodd" fill-opacity="1" /><path clip-path="url(#clip220)" d="M1380.97 32.2799 L1380.97 51.84 L1375.65 51.84 L1375.65 32.4535 Q1375.65 27.8529 1373.86 25.567 Q1372.06 23.2811 1368.47 23.2811 Q1364.16 23.2811 1361.67 26.03 Q1359.19 28.7788 1359.19 33.5241 L1359.19 51.84 L1353.83 51.84 L1353.83 19.4328 L1359.19 19.4328 L1359.19 24.4675 Q1361.1 21.545 1363.67 20.0983 Q1366.28 18.6515 1369.66 18.6515 Q1375.25 18.6515 1378.11 22.1237 Q1380.97 25.567 1380.97 32.2799 Z" fill="#000000" fill-rule="evenodd" fill-opacity="1" /><path clip-path="url(#clip220)" d="M1412.25 20.3876 L1412.25 25.4223 Q1410 24.2649 1407.57 23.6862 Q1405.13 23.1075 1402.53 23.1075 Q1398.57 23.1075 1396.57 24.3228 Q1394.6 25.5381 1394.6 27.9686 Q1394.6 29.8204 1396.02 30.891 Q1397.44 31.9327 1401.72 32.8876 L1403.54 33.2926 Q1409.21 34.5079 1411.59 36.7359 Q1413.99 38.935 1413.99 42.8991 Q1413.99 47.4129 1410.4 50.046 Q1406.84 52.6791 1400.59 52.6791 Q1397.99 52.6791 1395.15 52.1583 Q1392.35 51.6664 1389.22 50.6537 L1389.22 45.156 Q1392.17 46.6896 1395.04 47.4708 Q1397.9 48.2231 1400.71 48.2231 Q1404.47 48.2231 1406.49 46.95 Q1408.52 45.6479 1408.52 43.3042 Q1408.52 41.134 1407.04 39.9766 Q1405.6 38.8192 1400.65 37.7486 L1398.8 37.3146 Q1393.85 36.273 1391.65 34.1318 Q1389.45 31.9616 1389.45 28.2001 Q1389.45 23.6283 1392.69 21.1399 Q1395.93 18.6515 1401.89 18.6515 Q1404.85 18.6515 1407.45 19.0855 Q1410.05 19.5196 1412.25 20.3876 Z" fill="#000000" fill-rule="evenodd" fill-opacity="1" /><path clip-path="url(#clip220)" d="M1450.19 34.3054 L1450.19 36.9095 L1425.71 36.9095 Q1426.05 42.4072 1429.01 45.3007 Q1431.99 48.1653 1437.28 48.1653 Q1440.35 48.1653 1443.21 47.4129 Q1446.11 46.6606 1448.94 45.156 L1448.94 50.1907 Q1446.08 51.406 1443.07 52.0425 Q1440.06 52.6791 1436.96 52.6791 Q1429.21 52.6791 1424.67 48.1653 Q1420.15 43.6514 1420.15 35.9547 Q1420.15 27.9975 1424.43 23.339 Q1428.75 18.6515 1436.04 18.6515 Q1442.58 18.6515 1446.37 22.876 Q1450.19 27.0716 1450.19 34.3054 M1444.86 32.7429 Q1444.8 28.3737 1442.4 25.7695 Q1440.03 23.1654 1436.1 23.1654 Q1431.64 23.1654 1428.95 25.6827 Q1426.29 28.2001 1425.88 32.7718 L1444.86 32.7429 Z" fill="#000000" fill-rule="evenodd" fill-opacity="1" /><path clip-path="url(#clip220)" d="M1471.71 6.87496 Q1467.84 13.53 1465.96 20.0404 Q1464.08 26.5508 1464.08 33.2348 Q1464.08 39.9188 1465.96 46.487 Q1467.87 53.0263 1471.71 59.6525 L1467.08 59.6525 Q1462.74 52.8527 1460.57 46.2845 Q1458.43 39.7162 1458.43 33.2348 Q1458.43 26.7823 1460.57 20.2429 Q1462.72 13.7036 1467.08 6.87496 L1471.71 6.87496 Z" fill="#000000" fill-rule="evenodd" fill-opacity="1" /><path clip-path="url(#clip220)" d="M1481.32 8.64 L1509.1 8.64 L1509.1 11.1284 L1493.42 51.84 L1487.31 51.84 L1502.07 13.559 L1481.32 13.559 L1481.32 8.64 Z" fill="#000000" fill-rule="evenodd" fill-opacity="1" /><path clip-path="url(#clip220)" d="M1521.11 44.4905 L1527.21 44.4905 L1527.21 49.4673 L1522.47 58.7265 L1518.73 58.7265 L1521.11 49.4673 L1521.11 44.4905 Z" fill="#000000" fill-rule="evenodd" fill-opacity="1" /><path clip-path="url(#clip220)" d="M1563.21 46.921 L1583.61 46.921 L1583.61 51.84 L1556.18 51.84 L1556.18 46.921 Q1559.5 43.4778 1565.23 37.6908 Q1570.99 31.8748 1572.47 30.1966 Q1575.27 27.0427 1576.37 24.8726 Q1577.5 22.6735 1577.5 20.5612 Q1577.5 17.118 1575.07 14.9478 Q1572.67 12.7777 1568.79 12.7777 Q1566.04 12.7777 1562.98 13.7326 Q1559.94 14.6874 1556.47 16.6261 L1556.47 10.7233 Q1560 9.30551 1563.06 8.58213 Q1566.13 7.85875 1568.68 7.85875 Q1575.39 7.85875 1579.38 11.2152 Q1583.37 14.5717 1583.37 20.1851 Q1583.37 22.8471 1582.36 25.2487 Q1581.38 27.6214 1578.75 30.8621 Q1578.02 31.7012 1574.14 35.7232 Q1570.27 39.7162 1563.21 46.921 Z" fill="#000000" fill-rule="evenodd" fill-opacity="1" /><path clip-path="url(#clip220)" d="M1596.48 44.4905 L1602.59 44.4905 L1602.59 49.4673 L1597.84 58.7265 L1594.11 58.7265 L1596.48 49.4673 L1596.48 44.4905 Z" fill="#000000" fill-rule="evenodd" fill-opacity="1" /><path clip-path="url(#clip220)" d="M1651.57 24.4096 Q1650.68 23.8888 1649.61 23.6573 Q1648.57 23.3969 1647.29 23.3969 Q1642.78 23.3969 1640.35 26.3482 Q1637.95 29.2707 1637.95 34.7683 L1637.95 51.84 L1632.59 51.84 L1632.59 19.4328 L1637.95 19.4328 L1637.95 24.4675 Q1639.62 21.5161 1642.32 20.0983 Q1645.01 18.6515 1648.85 18.6515 Q1649.4 18.6515 1650.07 18.7383 Q1650.74 18.7962 1651.55 18.9409 L1651.57 24.4096 Z" fill="#000000" fill-rule="evenodd" fill-opacity="1" /><path clip-path="url(#clip220)" d="M1683.58 34.3054 L1683.58 36.9095 L1659.1 36.9095 Q1659.44 42.4072 1662.4 45.3007 Q1665.38 48.1653 1670.67 48.1653 Q1673.74 48.1653 1676.6 47.4129 Q1679.5 46.6606 1682.33 45.156 L1682.33 50.1907 Q1679.47 51.406 1676.46 52.0425 Q1673.45 52.6791 1670.35 52.6791 Q1662.6 52.6791 1658.06 48.1653 Q1653.54 43.6514 1653.54 35.9547 Q1653.54 27.9975 1657.82 23.339 Q1662.14 18.6515 1669.43 18.6515 Q1675.97 18.6515 1679.76 22.876 Q1683.58 27.0716 1683.58 34.3054 M1678.25 32.7429 Q1678.19 28.3737 1675.79 25.7695 Q1673.42 23.1654 1669.49 23.1654 Q1665.03 23.1654 1662.34 25.6827 Q1659.68 28.2001 1659.27 32.7718 L1678.25 32.7429 Z" fill="#000000" fill-rule="evenodd" fill-opacity="1" /><path clip-path="url(#clip220)" d="M1692.32 6.81709 L1697.64 6.81709 L1697.64 51.84 L1692.32 51.84 L1692.32 6.81709 Z" fill="#000000" fill-rule="evenodd" fill-opacity="1" /><path clip-path="url(#clip220)" d="M1708.23 39.0507 L1708.23 19.4328 L1713.55 19.4328 L1713.55 38.8482 Q1713.55 43.4488 1715.35 45.7636 Q1717.14 48.0495 1720.73 48.0495 Q1725.04 48.0495 1727.53 45.3007 Q1730.05 42.5519 1730.05 37.8065 L1730.05 19.4328 L1735.37 19.4328 L1735.37 51.84 L1730.05 51.84 L1730.05 46.8632 Q1728.11 49.8145 1725.53 51.2613 Q1722.99 52.6791 1719.6 52.6791 Q1714.02 52.6791 1711.12 49.2069 Q1708.23 45.7347 1708.23 39.0507 M1721.63 18.6515 L1721.63 18.6515 Z" fill="#000000" fill-rule="evenodd" fill-opacity="1" /><path clip-path="url(#clip220)" d="M1745.5 6.87496 L1750.13 6.87496 Q1754.47 13.7036 1756.61 20.2429 Q1758.78 26.7823 1758.78 33.2348 Q1758.78 39.7162 1756.61 46.2845 Q1754.47 52.8527 1750.13 59.6525 L1745.5 59.6525 Q1749.35 53.0263 1751.23 46.487 Q1753.14 39.9188 1753.14 33.2348 Q1753.14 26.5508 1751.23 20.0404 Q1749.35 13.53 1745.5 6.87496 Z" fill="#000000" fill-rule="evenodd" fill-opacity="1" /><path clip-path="url(#clip220)" d="M1770.82 44.4905 L1776.92 44.4905 L1776.92 49.4673 L1772.18 58.7265 L1768.44 58.7265 L1770.82 49.4673 L1770.82 44.4905 Z" fill="#000000" fill-rule="evenodd" fill-opacity="1" /><path clip-path="url(#clip220)" d="M1813.21 13.4432 L1813.21 47.0368 L1820.27 47.0368 Q1829.21 47.0368 1833.34 42.9859 Q1837.51 38.935 1837.51 30.1966 Q1837.51 21.5161 1833.34 17.4941 Q1829.21 13.4432 1820.27 13.4432 L1813.21 13.4432 M1807.36 8.64 L1819.37 8.64 Q1831.93 8.64 1837.8 13.8772 Q1843.67 19.0855 1843.67 30.1966 Q1843.67 41.3655 1837.77 46.6028 Q1831.87 51.84 1819.37 51.84 L1807.36 51.84 L1807.36 8.64 Z" fill="#000000" fill-rule="evenodd" fill-opacity="1" /><path clip-path="url(#clip220)" d="M1880.48 34.3054 L1880.48 36.9095 L1856 36.9095 Q1856.35 42.4072 1859.3 45.3007 Q1862.28 48.1653 1867.57 48.1653 Q1870.64 48.1653 1873.51 47.4129 Q1876.4 46.6606 1879.24 45.156 L1879.24 50.1907 Q1876.37 51.406 1873.36 52.0425 Q1870.35 52.6791 1867.26 52.6791 Q1859.5 52.6791 1854.96 48.1653 Q1850.45 43.6514 1850.45 35.9547 Q1850.45 27.9975 1854.73 23.339 Q1859.04 18.6515 1866.33 18.6515 Q1872.87 18.6515 1876.66 22.876 Q1880.48 27.0716 1880.48 34.3054 M1875.16 32.7429 Q1875.1 28.3737 1872.7 25.7695 Q1870.32 23.1654 1866.39 23.1654 Q1861.93 23.1654 1859.24 25.6827 Q1856.58 28.2001 1856.17 32.7718 L1875.16 32.7429 Z" fill="#000000" fill-rule="evenodd" fill-opacity="1" /><path clip-path="url(#clip220)" d="M1916.16 32.2799 L1916.16 51.84 L1910.83 51.84 L1910.83 32.4535 Q1910.83 27.8529 1909.04 25.567 Q1907.24 23.2811 1903.66 23.2811 Q1899.35 23.2811 1896.86 26.03 Q1894.37 28.7788 1894.37 33.5241 L1894.37 51.84 L1889.02 51.84 L1889.02 19.4328 L1894.37 19.4328 L1894.37 24.4675 Q1896.28 21.545 1898.85 20.0983 Q1901.46 18.6515 1904.84 18.6515 Q1910.43 18.6515 1913.29 22.1237 Q1916.16 25.567 1916.16 32.2799 Z" fill="#000000" fill-rule="evenodd" fill-opacity="1" /><path clip-path="url(#clip220)" d="M1947.44 20.3876 L1947.44 25.4223 Q1945.18 24.2649 1942.75 23.6862 Q1940.32 23.1075 1937.71 23.1075 Q1933.75 23.1075 1931.75 24.3228 Q1929.78 25.5381 1929.78 27.9686 Q1929.78 29.8204 1931.2 30.891 Q1932.62 31.9327 1936.9 32.8876 L1938.73 33.2926 Q1944.4 34.5079 1946.77 36.7359 Q1949.17 38.935 1949.17 42.8991 Q1949.17 47.4129 1945.58 50.046 Q1942.02 52.6791 1935.77 52.6791 Q1933.17 52.6791 1930.33 52.1583 Q1927.53 51.6664 1924.4 50.6537 L1924.4 45.156 Q1927.35 46.6896 1930.22 47.4708 Q1933.08 48.2231 1935.89 48.2231 Q1939.65 48.2231 1941.68 46.95 Q1943.7 45.6479 1943.7 43.3042 Q1943.7 41.134 1942.23 39.9766 Q1940.78 38.8192 1935.83 37.7486 L1933.98 37.3146 Q1929.03 36.273 1926.83 34.1318 Q1924.63 31.9616 1924.63 28.2001 Q1924.63 23.6283 1927.88 21.1399 Q1931.12 18.6515 1937.08 18.6515 Q1940.03 18.6515 1942.63 19.0855 Q1945.24 19.5196 1947.44 20.3876 Z" fill="#000000" fill-rule="evenodd" fill-opacity="1" /><path clip-path="url(#clip220)" d="M1985.37 34.3054 L1985.37 36.9095 L1960.89 36.9095 Q1961.24 42.4072 1964.19 45.3007 Q1967.17 48.1653 1972.46 48.1653 Q1975.53 48.1653 1978.4 47.4129 Q1981.29 46.6606 1984.12 45.156 L1984.12 50.1907 Q1981.26 51.406 1978.25 52.0425 Q1975.24 52.6791 1972.15 52.6791 Q1964.39 52.6791 1959.85 48.1653 Q1955.33 43.6514 1955.33 35.9547 Q1955.33 27.9975 1959.62 23.339 Q1963.93 18.6515 1971.22 18.6515 Q1977.76 18.6515 1981.55 22.876 Q1985.37 27.0716 1985.37 34.3054 M1980.05 32.7429 Q1979.99 28.3737 1977.59 25.7695 Q1975.21 23.1654 1971.28 23.1654 Q1966.82 23.1654 1964.13 25.6827 Q1961.47 28.2001 1961.06 32.7718 L1980.05 32.7429 Z" fill="#000000" fill-rule="evenodd" fill-opacity="1" /><path clip-path="url(#clip220)" d="M2006.9 6.87496 Q2003.02 13.53 2001.14 20.0404 Q1999.26 26.5508 1999.26 33.2348 Q1999.26 39.9188 2001.14 46.487 Q2003.05 53.0263 2006.9 59.6525 L2002.27 59.6525 Q1997.93 52.8527 1995.76 46.2845 Q1993.62 39.7162 1993.62 33.2348 Q1993.62 26.7823 1995.76 20.2429 Q1997.9 13.7036 2002.27 6.87496 L2006.9 6.87496 Z" fill="#000000" fill-rule="evenodd" fill-opacity="1" /><path clip-path="url(#clip220)" d="M2023.01 46.921 L2043.41 46.921 L2043.41 51.84 L2015.98 51.84 L2015.98 46.921 Q2019.31 43.4778 2025.04 37.6908 Q2030.8 31.8748 2032.27 30.1966 Q2035.08 27.0427 2036.18 24.8726 Q2037.31 22.6735 2037.31 20.5612 Q2037.31 17.118 2034.88 14.9478 Q2032.48 12.7777 2028.6 12.7777 Q2025.85 12.7777 2022.78 13.7326 Q2019.74 14.6874 2016.27 16.6261 L2016.27 10.7233 Q2019.8 9.30551 2022.87 8.58213 Q2025.94 7.85875 2028.48 7.85875 Q2035.2 7.85875 2039.19 11.2152 Q2043.18 14.5717 2043.18 20.1851 Q2043.18 22.8471 2042.17 25.2487 Q2041.18 27.6214 2038.55 30.8621 Q2037.83 31.7012 2033.95 35.7232 Q2030.07 39.7162 2023.01 46.921 Z" fill="#000000" fill-rule="evenodd" fill-opacity="1" /><path clip-path="url(#clip220)" d="M2056.29 44.4905 L2062.39 44.4905 L2062.39 49.4673 L2057.65 58.7265 L2053.92 58.7265 L2056.29 49.4673 L2056.29 44.4905 Z" fill="#000000" fill-rule="evenodd" fill-opacity="1" /><path clip-path="url(#clip220)" d="M2111.06 28.5473 Q2115.26 29.4443 2117.6 32.2799 Q2119.97 35.1156 2119.97 39.2822 Q2119.97 45.6768 2115.58 49.178 Q2111.18 52.6791 2103.08 52.6791 Q2100.36 52.6791 2097.46 52.1294 Q2094.6 51.6085 2091.53 50.5379 L2091.53 44.8956 Q2093.96 46.3134 2096.86 47.0368 Q2099.75 47.7602 2102.9 47.7602 Q2108.4 47.7602 2111.27 45.59 Q2114.16 43.4199 2114.16 39.2822 Q2114.16 35.4628 2111.47 33.3216 Q2108.81 31.1515 2104.03 31.1515 L2099 31.1515 L2099 26.3482 L2104.26 26.3482 Q2108.57 26.3482 2110.86 24.6411 Q2113.15 22.905 2113.15 19.6642 Q2113.15 16.3367 2110.77 14.5717 Q2108.43 12.7777 2104.03 12.7777 Q2101.63 12.7777 2098.88 13.2985 Q2096.13 13.8194 2092.83 14.9189 L2092.83 9.7106 Q2096.16 8.78468 2099.05 8.32171 Q2101.98 7.85875 2104.55 7.85875 Q2111.21 7.85875 2115.08 10.8969 Q2118.96 13.9062 2118.96 19.0566 Q2118.96 22.6446 2116.91 25.133 Q2114.85 27.5924 2111.06 28.5473 Z" fill="#000000" fill-rule="evenodd" fill-opacity="1" /><path clip-path="url(#clip220)" d="M2129.47 6.87496 L2134.1 6.87496 Q2138.44 13.7036 2140.58 20.2429 Q2142.75 26.7823 2142.75 33.2348 Q2142.75 39.7162 2140.58 46.2845 Q2138.44 52.8527 2134.1 59.6525 L2129.47 59.6525 Q2133.31 53.0263 2135.19 46.487 Q2137.1 39.9188 2137.1 33.2348 Q2137.1 26.5508 2135.19 20.0404 Q2133.31 13.53 2129.47 6.87496 Z" fill="#000000" fill-rule="evenodd" fill-opacity="1" /><path clip-path="url(#clip220)" d="M2152.58 6.87496 L2157.21 6.87496 Q2161.55 13.7036 2163.7 20.2429 Q2165.87 26.7823 2165.87 33.2348 Q2165.87 39.7162 2163.7 46.2845 Q2161.55 52.8527 2157.21 59.6525 L2152.58 59.6525 Q2156.43 53.0263 2158.31 46.487 Q2160.22 39.9188 2160.22 33.2348 Q2160.22 26.5508 2158.31 20.0404 Q2156.43 13.53 2152.58 6.87496 Z" fill="#000000" fill-rule="evenodd" fill-opacity="1" /><polyline clip-path="url(#clip222)" style="stroke:#adadad; stroke-linecap:butt; stroke-linejoin:round; stroke-width:4; stroke-opacity:1; fill:none" points="
  376.603,954.657 788.301,1163.3 
  "/>
<polyline clip-path="url(#clip222)" style="stroke:#adadad; stroke-linecap:butt; stroke-linejoin:round; stroke-width:4; stroke-opacity:1; fill:none" points="
  376.603,954.657 788.301,1024.2 
  "/>
<polyline clip-path="url(#clip222)" style="stroke:#adadad; stroke-linecap:butt; stroke-linejoin:round; stroke-width:4; stroke-opacity:1; fill:none" points="
  376.603,954.657 788.301,885.111 
  "/>
<polyline clip-path="url(#clip222)" style="stroke:#adadad; stroke-linecap:butt; stroke-linejoin:round; stroke-width:4; stroke-opacity:1; fill:none" points="
  376.603,954.657 788.301,746.018 
  "/>
<polyline clip-path="url(#clip222)" style="stroke:#adadad; stroke-linecap:butt; stroke-linejoin:round; stroke-width:4; stroke-opacity:1; fill:none" points="
  376.603,954.657 788.301,606.926 
  "/>
<polyline clip-path="url(#clip222)" style="stroke:#adadad; stroke-linecap:butt; stroke-linejoin:round; stroke-width:4; stroke-opacity:1; fill:none" points="
  376.603,815.565 788.301,1163.3 
  "/>
<polyline clip-path="url(#clip222)" style="stroke:#adadad; stroke-linecap:butt; stroke-linejoin:round; stroke-width:4; stroke-opacity:1; fill:none" points="
  376.603,815.565 788.301,1024.2 
  "/>
<polyline clip-path="url(#clip222)" style="stroke:#adadad; stroke-linecap:butt; stroke-linejoin:round; stroke-width:4; stroke-opacity:1; fill:none" points="
  376.603,815.565 788.301,885.111 
  "/>
<polyline clip-path="url(#clip222)" style="stroke:#adadad; stroke-linecap:butt; stroke-linejoin:round; stroke-width:4; stroke-opacity:1; fill:none" points="
  376.603,815.565 788.301,746.018 
  "/>
<polyline clip-path="url(#clip222)" style="stroke:#adadad; stroke-linecap:butt; stroke-linejoin:round; stroke-width:4; stroke-opacity:1; fill:none" points="
  376.603,815.565 788.301,606.926 
  "/>
<polyline clip-path="url(#clip222)" style="stroke:#adadad; stroke-linecap:butt; stroke-linejoin:round; stroke-width:4; stroke-opacity:1; fill:none" points="
  788.301,1163.3 1200,1302.39 
  "/>
<polyline clip-path="url(#clip222)" style="stroke:#adadad; stroke-linecap:butt; stroke-linejoin:round; stroke-width:4; stroke-opacity:1; fill:none" points="
  788.301,1163.3 1200,1163.3 
  "/>
<polyline clip-path="url(#clip222)" style="stroke:#adadad; stroke-linecap:butt; stroke-linejoin:round; stroke-width:4; stroke-opacity:1; fill:none" points="
  788.301,1163.3 1200,1024.2 
  "/>
<polyline clip-path="url(#clip222)" style="stroke:#adadad; stroke-linecap:butt; stroke-linejoin:round; stroke-width:4; stroke-opacity:1; fill:none" points="
  788.301,1163.3 1200,885.111 
  "/>
<polyline clip-path="url(#clip222)" style="stroke:#adadad; stroke-linecap:butt; stroke-linejoin:round; stroke-width:4; stroke-opacity:1; fill:none" points="
  788.301,1163.3 1200,746.018 
  "/>
<polyline clip-path="url(#clip222)" style="stroke:#adadad; stroke-linecap:butt; stroke-linejoin:round; stroke-width:4; stroke-opacity:1; fill:none" points="
  788.301,1163.3 1200,606.926 
  "/>
<polyline clip-path="url(#clip222)" style="stroke:#adadad; stroke-linecap:butt; stroke-linejoin:round; stroke-width:4; stroke-opacity:1; fill:none" points="
  788.301,1163.3 1200,467.833 
  "/>
<polyline clip-path="url(#clip222)" style="stroke:#adadad; stroke-linecap:butt; stroke-linejoin:round; stroke-width:4; stroke-opacity:1; fill:none" points="
  788.301,1024.2 1200,1302.39 
  "/>
<polyline clip-path="url(#clip222)" style="stroke:#adadad; stroke-linecap:butt; stroke-linejoin:round; stroke-width:4; stroke-opacity:1; fill:none" points="
  788.301,1024.2 1200,1163.3 
  "/>
<polyline clip-path="url(#clip222)" style="stroke:#adadad; stroke-linecap:butt; stroke-linejoin:round; stroke-width:4; stroke-opacity:1; fill:none" points="
  788.301,1024.2 1200,1024.2 
  "/>
<polyline clip-path="url(#clip222)" style="stroke:#adadad; stroke-linecap:butt; stroke-linejoin:round; stroke-width:4; stroke-opacity:1; fill:none" points="
  788.301,1024.2 1200,885.111 
  "/>
<polyline clip-path="url(#clip222)" style="stroke:#adadad; stroke-linecap:butt; stroke-linejoin:round; stroke-width:4; stroke-opacity:1; fill:none" points="
  788.301,1024.2 1200,746.018 
  "/>
<polyline clip-path="url(#clip222)" style="stroke:#adadad; stroke-linecap:butt; stroke-linejoin:round; stroke-width:4; stroke-opacity:1; fill:none" points="
  788.301,1024.2 1200,606.926 
  "/>
<polyline clip-path="url(#clip222)" style="stroke:#adadad; stroke-linecap:butt; stroke-linejoin:round; stroke-width:4; stroke-opacity:1; fill:none" points="
  788.301,1024.2 1200,467.833 
  "/>
<polyline clip-path="url(#clip222)" style="stroke:#adadad; stroke-linecap:butt; stroke-linejoin:round; stroke-width:4; stroke-opacity:1; fill:none" points="
  788.301,885.111 1200,1302.39 
  "/>
<polyline clip-path="url(#clip222)" style="stroke:#adadad; stroke-linecap:butt; stroke-linejoin:round; stroke-width:4; stroke-opacity:1; fill:none" points="
  788.301,885.111 1200,1163.3 
  "/>
<polyline clip-path="url(#clip222)" style="stroke:#adadad; stroke-linecap:butt; stroke-linejoin:round; stroke-width:4; stroke-opacity:1; fill:none" points="
  788.301,885.111 1200,1024.2 
  "/>
<polyline clip-path="url(#clip222)" style="stroke:#adadad; stroke-linecap:butt; stroke-linejoin:round; stroke-width:4; stroke-opacity:1; fill:none" points="
  788.301,885.111 1200,885.111 
  "/>
<polyline clip-path="url(#clip222)" style="stroke:#adadad; stroke-linecap:butt; stroke-linejoin:round; stroke-width:4; stroke-opacity:1; fill:none" points="
  788.301,885.111 1200,746.018 
  "/>
<polyline clip-path="url(#clip222)" style="stroke:#adadad; stroke-linecap:butt; stroke-linejoin:round; stroke-width:4; stroke-opacity:1; fill:none" points="
  788.301,885.111 1200,606.926 
  "/>
<polyline clip-path="url(#clip222)" style="stroke:#adadad; stroke-linecap:butt; stroke-linejoin:round; stroke-width:4; stroke-opacity:1; fill:none" points="
  788.301,885.111 1200,467.833 
  "/>
<polyline clip-path="url(#clip222)" style="stroke:#adadad; stroke-linecap:butt; stroke-linejoin:round; stroke-width:4; stroke-opacity:1; fill:none" points="
  788.301,746.018 1200,1302.39 
  "/>
<polyline clip-path="url(#clip222)" style="stroke:#adadad; stroke-linecap:butt; stroke-linejoin:round; stroke-width:4; stroke-opacity:1; fill:none" points="
  788.301,746.018 1200,1163.3 
  "/>
<polyline clip-path="url(#clip222)" style="stroke:#adadad; stroke-linecap:butt; stroke-linejoin:round; stroke-width:4; stroke-opacity:1; fill:none" points="
  788.301,746.018 1200,1024.2 
  "/>
<polyline clip-path="url(#clip222)" style="stroke:#adadad; stroke-linecap:butt; stroke-linejoin:round; stroke-width:4; stroke-opacity:1; fill:none" points="
  788.301,746.018 1200,885.111 
  "/>
<polyline clip-path="url(#clip222)" style="stroke:#adadad; stroke-linecap:butt; stroke-linejoin:round; stroke-width:4; stroke-opacity:1; fill:none" points="
  788.301,746.018 1200,746.018 
  "/>
<polyline clip-path="url(#clip222)" style="stroke:#adadad; stroke-linecap:butt; stroke-linejoin:round; stroke-width:4; stroke-opacity:1; fill:none" points="
  788.301,746.018 1200,606.926 
  "/>
<polyline clip-path="url(#clip222)" style="stroke:#adadad; stroke-linecap:butt; stroke-linejoin:round; stroke-width:4; stroke-opacity:1; fill:none" points="
  788.301,746.018 1200,467.833 
  "/>
<polyline clip-path="url(#clip222)" style="stroke:#adadad; stroke-linecap:butt; stroke-linejoin:round; stroke-width:4; stroke-opacity:1; fill:none" points="
  788.301,606.926 1200,1302.39 
  "/>
<polyline clip-path="url(#clip222)" style="stroke:#adadad; stroke-linecap:butt; stroke-linejoin:round; stroke-width:4; stroke-opacity:1; fill:none" points="
  788.301,606.926 1200,1163.3 
  "/>
<polyline clip-path="url(#clip222)" style="stroke:#adadad; stroke-linecap:butt; stroke-linejoin:round; stroke-width:4; stroke-opacity:1; fill:none" points="
  788.301,606.926 1200,1024.2 
  "/>
<polyline clip-path="url(#clip222)" style="stroke:#adadad; stroke-linecap:butt; stroke-linejoin:round; stroke-width:4; stroke-opacity:1; fill:none" points="
  788.301,606.926 1200,885.111 
  "/>
<polyline clip-path="url(#clip222)" style="stroke:#adadad; stroke-linecap:butt; stroke-linejoin:round; stroke-width:4; stroke-opacity:1; fill:none" points="
  788.301,606.926 1200,746.018 
  "/>
<polyline clip-path="url(#clip222)" style="stroke:#adadad; stroke-linecap:butt; stroke-linejoin:round; stroke-width:4; stroke-opacity:1; fill:none" points="
  788.301,606.926 1200,606.926 
  "/>
<polyline clip-path="url(#clip222)" style="stroke:#adadad; stroke-linecap:butt; stroke-linejoin:round; stroke-width:4; stroke-opacity:1; fill:none" points="
  788.301,606.926 1200,467.833 
  "/>
<polyline clip-path="url(#clip222)" style="stroke:#adadad; stroke-linecap:butt; stroke-linejoin:round; stroke-width:4; stroke-opacity:1; fill:none" points="
  1200,1302.39 1611.7,954.657 
  "/>
<polyline clip-path="url(#clip222)" style="stroke:#adadad; stroke-linecap:butt; stroke-linejoin:round; stroke-width:4; stroke-opacity:1; fill:none" points="
  1200,1302.39 1611.7,815.565 
  "/>
<polyline clip-path="url(#clip222)" style="stroke:#adadad; stroke-linecap:butt; stroke-linejoin:round; stroke-width:4; stroke-opacity:1; fill:none" points="
  1200,1163.3 1611.7,954.657 
  "/>
<polyline clip-path="url(#clip222)" style="stroke:#adadad; stroke-linecap:butt; stroke-linejoin:round; stroke-width:4; stroke-opacity:1; fill:none" points="
  1200,1163.3 1611.7,815.565 
  "/>
<polyline clip-path="url(#clip222)" style="stroke:#adadad; stroke-linecap:butt; stroke-linejoin:round; stroke-width:4; stroke-opacity:1; fill:none" points="
  1200,1024.2 1611.7,954.657 
  "/>
<polyline clip-path="url(#clip222)" style="stroke:#adadad; stroke-linecap:butt; stroke-linejoin:round; stroke-width:4; stroke-opacity:1; fill:none" points="
  1200,1024.2 1611.7,815.565 
  "/>
<polyline clip-path="url(#clip222)" style="stroke:#adadad; stroke-linecap:butt; stroke-linejoin:round; stroke-width:4; stroke-opacity:1; fill:none" points="
  1200,885.111 1611.7,954.657 
  "/>
<polyline clip-path="url(#clip222)" style="stroke:#adadad; stroke-linecap:butt; stroke-linejoin:round; stroke-width:4; stroke-opacity:1; fill:none" points="
  1200,885.111 1611.7,815.565 
  "/>
<polyline clip-path="url(#clip222)" style="stroke:#adadad; stroke-linecap:butt; stroke-linejoin:round; stroke-width:4; stroke-opacity:1; fill:none" points="
  1200,746.018 1611.7,954.657 
  "/>
<polyline clip-path="url(#clip222)" style="stroke:#adadad; stroke-linecap:butt; stroke-linejoin:round; stroke-width:4; stroke-opacity:1; fill:none" points="
  1200,746.018 1611.7,815.565 
  "/>
<polyline clip-path="url(#clip222)" style="stroke:#adadad; stroke-linecap:butt; stroke-linejoin:round; stroke-width:4; stroke-opacity:1; fill:none" points="
  1200,606.926 1611.7,954.657 
  "/>
<polyline clip-path="url(#clip222)" style="stroke:#adadad; stroke-linecap:butt; stroke-linejoin:round; stroke-width:4; stroke-opacity:1; fill:none" points="
  1200,606.926 1611.7,815.565 
  "/>
<polyline clip-path="url(#clip222)" style="stroke:#adadad; stroke-linecap:butt; stroke-linejoin:round; stroke-width:4; stroke-opacity:1; fill:none" points="
  1200,467.833 1611.7,954.657 
  "/>
<polyline clip-path="url(#clip222)" style="stroke:#adadad; stroke-linecap:butt; stroke-linejoin:round; stroke-width:4; stroke-opacity:1; fill:none" points="
  1200,467.833 1611.7,815.565 
  "/>
<polyline clip-path="url(#clip222)" style="stroke:#adadad; stroke-linecap:butt; stroke-linejoin:round; stroke-width:4; stroke-opacity:1; fill:none" points="
  1611.7,954.657 2023.4,1024.2 
  "/>
<polyline clip-path="url(#clip222)" style="stroke:#adadad; stroke-linecap:butt; stroke-linejoin:round; stroke-width:4; stroke-opacity:1; fill:none" points="
  1611.7,954.657 2023.4,885.111 
  "/>
<polyline clip-path="url(#clip222)" style="stroke:#adadad; stroke-linecap:butt; stroke-linejoin:round; stroke-width:4; stroke-opacity:1; fill:none" points="
  1611.7,954.657 2023.4,746.018 
  "/>
<polyline clip-path="url(#clip222)" style="stroke:#adadad; stroke-linecap:butt; stroke-linejoin:round; stroke-width:4; stroke-opacity:1; fill:none" points="
  1611.7,815.565 2023.4,1024.2 
  "/>
<polyline clip-path="url(#clip222)" style="stroke:#adadad; stroke-linecap:butt; stroke-linejoin:round; stroke-width:4; stroke-opacity:1; fill:none" points="
  1611.7,815.565 2023.4,885.111 
  "/>
<polyline clip-path="url(#clip222)" style="stroke:#adadad; stroke-linecap:butt; stroke-linejoin:round; stroke-width:4; stroke-opacity:1; fill:none" points="
  1611.7,815.565 2023.4,746.018 
  "/>
<path clip-path="url(#clip222)" d="
M376.603 995.265 L364.054 993.278 L352.734 987.51 L343.75 978.526 L337.982 967.206 L335.995 954.657 L337.982 942.109 L343.75 930.789 L352.734 921.805 L364.054 916.037 
  L376.603 914.049 L389.151 916.037 L400.472 921.805 L409.455 930.789 L415.223 942.109 L417.211 954.657 L415.223 967.206 L409.455 978.526 L400.472 987.51 L389.151 993.278 
  L376.603 995.265  Z
  " fill="#000000" fill-rule="evenodd" fill-opacity="0"/>
<polyline clip-path="url(#clip222)" style="stroke:#000000; stroke-linecap:butt; stroke-linejoin:round; stroke-width:4; stroke-opacity:1; fill:none" points="
  376.603,995.265 364.054,993.278 352.734,987.51 343.75,978.526 337.982,967.206 335.995,954.657 337.982,942.109 343.75,930.789 352.734,921.805 364.054,916.037 
  376.603,914.049 389.151,916.037 400.472,921.805 409.455,930.789 415.223,942.109 417.211,954.657 415.223,967.206 409.455,978.526 400.472,987.51 389.151,993.278 
  376.603,995.265 
  "/>
<path clip-path="url(#clip222)" d="
M376.603 856.173 L364.054 854.185 L352.734 848.417 L343.75 839.434 L337.982 828.113 L335.995 815.565 L337.982 803.016 L343.75 791.696 L352.734 782.712 L364.054 776.944 
  L376.603 774.957 L389.151 776.944 L400.472 782.712 L409.455 791.696 L415.223 803.016 L417.211 815.565 L415.223 828.113 L409.455 839.434 L400.472 848.417 L389.151 854.185 
  L376.603 856.173  Z
  " fill="#000000" fill-rule="evenodd" fill-opacity="0"/>
<polyline clip-path="url(#clip222)" style="stroke:#000000; stroke-linecap:butt; stroke-linejoin:round; stroke-width:4; stroke-opacity:1; fill:none" points="
  376.603,856.173 364.054,854.185 352.734,848.417 343.75,839.434 337.982,828.113 335.995,815.565 337.982,803.016 343.75,791.696 352.734,782.712 364.054,776.944 
  376.603,774.957 389.151,776.944 400.472,782.712 409.455,791.696 415.223,803.016 417.211,815.565 415.223,828.113 409.455,839.434 400.472,848.417 389.151,854.185 
  376.603,856.173 
  "/>
<circle clip-path="url(#clip222)" cx="788.301" cy="1163.3" r="43" fill="#90ee90" fill-rule="evenodd" fill-opacity="1" stroke="#000000" stroke-opacity="1" stroke-width="3.2"/>
<circle clip-path="url(#clip222)" cx="788.301" cy="1024.2" r="43" fill="#90ee90" fill-rule="evenodd" fill-opacity="1" stroke="#000000" stroke-opacity="1" stroke-width="3.2"/>
<circle clip-path="url(#clip222)" cx="788.301" cy="885.111" r="43" fill="#90ee90" fill-rule="evenodd" fill-opacity="1" stroke="#000000" stroke-opacity="1" stroke-width="3.2"/>
<circle clip-path="url(#clip222)" cx="788.301" cy="746.018" r="43" fill="#90ee90" fill-rule="evenodd" fill-opacity="1" stroke="#000000" stroke-opacity="1" stroke-width="3.2"/>
<circle clip-path="url(#clip222)" cx="788.301" cy="606.926" r="43" fill="#90ee90" fill-rule="evenodd" fill-opacity="1" stroke="#000000" stroke-opacity="1" stroke-width="3.2"/>
<circle clip-path="url(#clip222)" cx="1200" cy="1302.39" r="43" fill="#90ee90" fill-rule="evenodd" fill-opacity="1" stroke="#000000" stroke-opacity="1" stroke-width="3.2"/>
<circle clip-path="url(#clip222)" cx="1200" cy="1163.3" r="43" fill="#90ee90" fill-rule="evenodd" fill-opacity="1" stroke="#000000" stroke-opacity="1" stroke-width="3.2"/>
<circle clip-path="url(#clip222)" cx="1200" cy="1024.2" r="43" fill="#90ee90" fill-rule="evenodd" fill-opacity="1" stroke="#000000" stroke-opacity="1" stroke-width="3.2"/>
<circle clip-path="url(#clip222)" cx="1200" cy="885.111" r="43" fill="#90ee90" fill-rule="evenodd" fill-opacity="1" stroke="#000000" stroke-opacity="1" stroke-width="3.2"/>
<circle clip-path="url(#clip222)" cx="1200" cy="746.018" r="43" fill="#90ee90" fill-rule="evenodd" fill-opacity="1" stroke="#000000" stroke-opacity="1" stroke-width="3.2"/>
<circle clip-path="url(#clip222)" cx="1200" cy="606.926" r="43" fill="#90ee90" fill-rule="evenodd" fill-opacity="1" stroke="#000000" stroke-opacity="1" stroke-width="3.2"/>
<circle clip-path="url(#clip222)" cx="1200" cy="467.833" r="43" fill="#90ee90" fill-rule="evenodd" fill-opacity="1" stroke="#000000" stroke-opacity="1" stroke-width="3.2"/>
<circle clip-path="url(#clip222)" cx="1611.7" cy="954.657" r="43" fill="#90ee90" fill-rule="evenodd" fill-opacity="1" stroke="#000000" stroke-opacity="1" stroke-width="3.2"/>
<circle clip-path="url(#clip222)" cx="1611.7" cy="815.565" r="43" fill="#90ee90" fill-rule="evenodd" fill-opacity="1" stroke="#000000" stroke-opacity="1" stroke-width="3.2"/>
<circle clip-path="url(#clip222)" cx="2023.4" cy="1024.2" r="43" fill="#90ee90" fill-rule="evenodd" fill-opacity="1" stroke="#000000" stroke-opacity="1" stroke-width="3.2"/>
<circle clip-path="url(#clip222)" cx="2023.4" cy="885.111" r="43" fill="#90ee90" fill-rule="evenodd" fill-opacity="1" stroke="#000000" stroke-opacity="1" stroke-width="3.2"/>
<circle clip-path="url(#clip222)" cx="2023.4" cy="746.018" r="43" fill="#90ee90" fill-rule="evenodd" fill-opacity="1" stroke="#000000" stroke-opacity="1" stroke-width="3.2"/>
<path clip-path="url(#clip222)" d="M415.003 954.657 L357.403 921.057 L357.403 988.257 L415.003 954.657 Z" fill="#ffff00" fill-rule="evenodd" fill-opacity="1" stroke="#000000" stroke-opacity="1" stroke-width="3.2"/>
<path clip-path="url(#clip222)" d="M415.003 815.565 L357.403 781.965 L357.403 849.165 L415.003 815.565 Z" fill="#ffff00" fill-rule="evenodd" fill-opacity="1" stroke="#000000" stroke-opacity="1" stroke-width="3.2"/>
<path clip-path="url(#clip222)" d="M2061.8 1024.2 L2004.2 990.604 L2004.2 1057.8 L2061.8 1024.2 Z" fill="#ffa500" fill-rule="evenodd" fill-opacity="1" stroke="#000000" stroke-opacity="1" stroke-width="3.2"/>
<path clip-path="url(#clip222)" d="M2061.8 885.111 L2004.2 851.511 L2004.2 918.711 L2061.8 885.111 Z" fill="#ffa500" fill-rule="evenodd" fill-opacity="1" stroke="#000000" stroke-opacity="1" stroke-width="3.2"/>
<path clip-path="url(#clip222)" d="M2061.8 746.018 L2004.2 712.418 L2004.2 779.618 L2061.8 746.018 Z" fill="#ffa500" fill-rule="evenodd" fill-opacity="1" stroke="#000000" stroke-opacity="1" stroke-width="3.2"/>
<path clip-path="url(#clip220)" d="M318.983 688.243 L322.985 686.787 L331.853 711.149 L327.85 712.606 L318.983 688.243 M315.531 678.759 L319.534 677.303 L321.378 682.371 L317.376 683.828 L315.531 678.759 Z" fill="#000000" fill-rule="evenodd" fill-opacity="1" /><path clip-path="url(#clip220)" d="M355.126 686.026 L360.478 700.73 L356.476 702.187 L351.171 687.613 Q349.913 684.154 347.939 682.927 Q345.964 681.699 343.267 682.681 Q340.026 683.861 338.908 686.608 Q337.789 689.355 339.087 692.923 L344.099 706.692 L340.075 708.156 L331.208 683.794 L335.232 682.329 L336.609 686.114 Q337.245 683.395 338.785 681.602 Q340.347 679.802 342.892 678.876 Q347.09 677.348 350.194 679.174 Q353.29 680.979 355.126 686.026 Z" fill="#000000" fill-rule="evenodd" fill-opacity="1" /><path clip-path="url(#clip220)" d="M371.003 692.761 L375.706 705.682 L371.682 707.146 L359.442 673.518 L363.466 672.053 L364.812 675.751 Q365.282 673.116 366.816 671.376 Q368.364 669.605 371.039 668.631 Q375.477 667.016 379.522 669.535 Q383.589 672.045 385.679 677.788 Q387.769 683.53 386.267 688.067 Q384.787 692.597 380.35 694.212 Q377.674 695.185 375.358 694.846 Q373.056 694.477 371.003 692.761 M381.524 679.3 Q379.917 674.884 377.179 673.048 Q374.456 671.181 371.28 672.337 Q368.104 673.493 367.195 676.682 Q366.3 679.84 367.907 684.256 Q369.515 688.671 372.238 690.538 Q374.976 692.374 378.152 691.218 Q381.328 690.062 382.223 686.904 Q383.131 683.715 381.524 679.3 Z" fill="#000000" fill-rule="evenodd" fill-opacity="1" /><path clip-path="url(#clip220)" d="M392.826 678.068 L387.458 663.32 L391.461 661.864 L396.773 676.459 Q398.032 679.918 400.014 681.167 Q401.988 682.395 404.685 681.413 Q407.926 680.233 409.045 677.486 Q410.185 674.731 408.887 671.163 L403.859 657.351 L407.862 655.894 L416.729 680.256 L412.727 681.713 L411.365 677.972 Q410.715 680.721 409.175 682.513 Q407.649 684.276 405.104 685.202 Q400.906 686.73 397.78 684.911 Q394.655 683.093 392.826 678.068 M397.316 659.067 L397.316 659.067 Z" fill="#000000" fill-rule="evenodd" fill-opacity="1" /><path clip-path="url(#clip220)" d="M417.547 644.535 L420.065 651.453 L428.309 648.452 L429.441 651.563 L421.197 654.563 L426.01 667.788 Q427.095 670.768 428.209 671.324 Q429.344 671.871 431.846 670.961 L435.957 669.465 L437.176 672.814 L433.065 674.311 Q428.432 675.997 426.044 674.92 Q423.649 673.821 421.986 669.253 L417.173 656.028 L414.236 657.097 L413.104 653.986 L416.041 652.917 L413.523 646 L417.547 644.535 Z" fill="#000000" fill-rule="evenodd" fill-opacity="1" /><path clip-path="url(#clip220)" d="M662.036 499.49 L671.227 524.744 L676.535 522.813 Q683.256 520.366 685.258 516.189 Q687.282 512.003 684.891 505.434 Q682.516 498.909 678.283 497.025 Q674.064 495.112 667.343 497.558 L662.036 499.49 M656.327 497.479 L665.355 494.193 Q674.795 490.757 680.644 493.087 Q686.484 495.395 689.525 503.748 Q692.581 512.144 689.576 517.696 Q686.572 523.249 677.175 526.669 L668.148 529.954 L656.327 497.479 Z" fill="#000000" fill-rule="evenodd" fill-opacity="1" /><path clip-path="url(#clip220)" d="M718.317 496.766 L719.03 498.724 L700.628 505.422 Q702.393 509.46 705.403 510.827 Q708.428 512.165 712.408 510.716 Q714.714 509.877 716.662 508.528 Q718.631 507.171 720.351 505.264 L721.728 509.049 Q719.908 510.746 717.819 512.048 Q715.731 513.35 713.404 514.197 Q707.574 516.319 702.924 514.168 Q698.296 512.01 696.19 506.224 Q694.013 500.242 695.957 495.568 Q697.916 490.865 703.397 488.87 Q708.313 487.081 712.319 489.219 Q716.338 491.328 718.317 496.766 M713.887 497.048 Q712.648 493.78 710.13 492.479 Q707.634 491.171 704.676 492.247 Q701.326 493.467 699.992 496.095 Q698.68 498.716 699.626 502.264 L713.887 497.048 Z" fill="#000000" fill-rule="evenodd" fill-opacity="1" /><path clip-path="url(#clip220)" d="M744.583 485.482 L749.935 500.186 L745.933 501.643 L740.628 487.069 Q739.37 483.611 737.396 482.383 Q735.422 481.155 732.724 482.137 Q729.483 483.317 728.365 486.064 Q727.246 488.811 728.545 492.379 L733.556 506.148 L729.532 507.612 L720.665 483.25 L724.689 481.785 L726.066 485.57 Q726.702 482.851 728.243 481.059 Q729.804 479.259 732.349 478.332 Q736.548 476.804 739.651 478.631 Q742.747 480.435 744.583 485.482 Z" fill="#000000" fill-rule="evenodd" fill-opacity="1" /><path clip-path="url(#clip220)" d="M764.843 467.983 L766.221 471.768 Q764.208 471.516 762.222 471.746 Q760.237 471.976 758.279 472.688 Q755.299 473.773 754.131 475.233 Q752.984 476.685 753.649 478.512 Q754.156 479.904 755.514 480.321 Q756.865 480.716 760.346 480.262 L761.827 480.068 Q766.423 479.43 768.816 480.455 Q771.223 481.451 772.308 484.431 Q773.543 487.825 771.566 490.786 Q769.611 493.739 764.913 495.449 Q762.955 496.162 760.681 496.546 Q758.436 496.944 755.81 497.038 L754.306 492.905 Q756.944 493.25 759.311 493.054 Q761.671 492.836 763.781 492.068 Q766.608 491.039 767.783 489.527 Q768.949 487.994 768.308 486.232 Q767.714 484.601 766.288 484.135 Q764.884 483.66 760.871 484.209 L759.36 484.39 Q755.356 484.961 753.117 483.953 Q750.87 482.923 749.84 480.095 Q748.589 476.658 750.345 473.901 Q752.1 471.143 756.581 469.513 Q758.8 468.705 760.876 468.319 Q762.953 467.933 764.843 467.983 Z" fill="#000000" fill-rule="evenodd" fill-opacity="1" /><path clip-path="url(#clip220)" d="M797.168 468.067 L797.881 470.024 L779.479 476.722 Q781.244 480.76 784.254 482.128 Q787.279 483.466 791.259 482.017 Q793.565 481.178 795.513 479.828 Q797.482 478.471 799.202 476.564 L800.58 480.349 Q798.759 482.046 796.671 483.348 Q794.583 484.65 792.255 485.497 Q786.426 487.619 781.775 485.469 Q777.147 483.311 775.041 477.525 Q772.864 471.543 774.809 466.869 Q776.767 462.166 782.249 460.17 Q787.164 458.381 791.17 460.52 Q795.189 462.629 797.168 468.067 M792.739 468.349 Q791.5 465.08 788.982 463.78 Q786.485 462.471 783.527 463.548 Q780.177 464.767 778.843 467.396 Q777.531 470.017 778.477 473.564 L792.739 468.349 Z" fill="#000000" fill-rule="evenodd" fill-opacity="1" /><path clip-path="url(#clip220)" d="M805.847 441.556 Q804.753 447.619 805.12 453.028 Q805.488 458.437 807.316 463.462 Q809.145 468.486 812.356 472.91 Q815.581 477.303 820.287 481.231 L816.807 482.498 Q811.684 478.574 808.255 474.23 Q804.848 469.878 803.075 465.006 Q801.309 460.155 801.13 454.653 Q800.95 449.151 802.366 442.822 L805.847 441.556 Z" fill="#000000" fill-rule="evenodd" fill-opacity="1" /><path clip-path="url(#clip220)" d="M828.92 467.251 L844.255 461.669 L845.601 465.367 L824.98 472.872 L823.634 469.174 Q825.193 465.675 827.917 459.757 Q830.654 453.81 831.304 452.144 Q832.551 449.005 832.784 447.073 Q833.031 445.111 832.453 443.523 Q831.511 440.935 829.09 439.969 Q826.69 438.994 823.776 440.055 Q821.709 440.807 819.665 442.364 Q817.642 443.913 815.562 446.321 L813.947 441.883 Q816.213 439.852 818.321 438.469 Q820.429 437.086 822.343 436.389 Q827.389 434.552 831.309 435.983 Q835.23 437.414 836.765 441.633 Q837.494 443.635 837.39 445.717 Q837.299 447.77 836.207 450.927 Q835.892 451.755 834.078 455.84 Q832.256 459.903 828.92 467.251 Z" fill="#000000" fill-rule="evenodd" fill-opacity="1" /><path clip-path="url(#clip220)" d="M853.269 456.319 L857.859 454.648 L859.221 458.39 L858.187 466.649 L855.381 467.67 L854.631 460.06 L853.269 456.319 Z" fill="#000000" fill-rule="evenodd" fill-opacity="1" /><path clip-path="url(#clip220)" d="M871.368 419.21 L888.617 412.932 L889.963 416.63 L876.738 421.444 L879.636 429.405 Q880.474 428.73 881.376 428.229 Q882.269 427.707 883.227 427.359 Q888.665 425.38 892.925 427.204 Q897.185 429.028 899.038 434.118 Q900.946 439.36 898.744 443.462 Q896.534 447.543 890.596 449.704 Q888.551 450.448 886.293 450.876 Q884.056 451.296 881.541 451.424 L879.934 447.008 Q882.279 447.361 884.557 447.123 Q886.836 446.885 889.163 446.038 Q892.926 444.668 894.403 441.889 Q895.879 439.11 894.644 435.717 Q893.409 432.324 890.492 431.144 Q887.574 429.964 883.811 431.334 Q882.049 431.975 880.43 433.008 Q878.832 434.033 877.306 435.524 L871.368 419.21 Z" fill="#000000" fill-rule="evenodd" fill-opacity="1" /><path clip-path="url(#clip220)" d="M897.988 408.019 L901.468 406.752 Q906.6 410.698 909.999 415.028 Q913.419 419.35 915.185 424.201 Q916.958 429.073 917.124 434.605 Q917.311 440.128 915.909 446.428 L912.429 447.694 Q913.509 441.66 913.134 436.23 Q912.772 430.769 910.943 425.745 Q909.114 420.72 905.897 416.348 Q902.702 411.969 897.988 408.019 Z" fill="#000000" fill-rule="evenodd" fill-opacity="1" /><path clip-path="url(#clip220)" d="M1045.46 370.69 L1054.65 395.944 L1059.96 394.012 Q1066.68 391.566 1068.68 387.388 Q1070.7 383.203 1068.31 376.634 Q1065.94 370.108 1061.7 368.225 Q1057.49 366.312 1050.76 368.758 L1045.46 370.69 M1039.75 368.678 L1048.78 365.393 Q1058.22 361.957 1064.06 364.287 Q1069.91 366.595 1072.95 374.948 Q1076 383.344 1073 388.896 Q1069.99 394.448 1060.6 397.868 L1051.57 401.154 L1039.75 368.678 Z" fill="#000000" fill-rule="evenodd" fill-opacity="1" /><path clip-path="url(#clip220)" d="M1101.74 367.966 L1102.45 369.923 L1084.05 376.621 Q1085.81 380.659 1088.82 382.027 Q1091.85 383.365 1095.83 381.916 Q1098.13 381.077 1100.08 379.727 Q1102.05 378.37 1103.77 376.463 L1105.15 380.248 Q1103.33 381.945 1101.24 383.247 Q1099.15 384.549 1096.82 385.396 Q1091 387.518 1086.35 385.368 Q1081.72 383.21 1079.61 377.424 Q1077.43 371.442 1079.38 366.768 Q1081.34 362.065 1086.82 360.069 Q1091.73 358.28 1095.74 360.419 Q1099.76 362.528 1101.74 367.966 M1097.31 368.248 Q1096.07 364.979 1093.55 363.679 Q1091.06 362.37 1088.1 363.447 Q1084.75 364.666 1083.41 367.295 Q1082.1 369.916 1083.05 373.463 L1097.31 368.248 Z" fill="#000000" fill-rule="evenodd" fill-opacity="1" /><path clip-path="url(#clip220)" d="M1128 356.681 L1133.36 371.386 L1129.35 372.842 L1124.05 358.269 Q1122.79 354.81 1120.82 353.583 Q1118.84 352.355 1116.15 353.337 Q1112.9 354.516 1111.79 357.264 Q1110.67 360.011 1111.97 363.578 L1116.98 377.347 L1112.95 378.812 L1104.09 354.45 L1108.11 352.985 L1109.49 356.77 Q1110.12 354.05 1111.66 352.258 Q1113.23 350.458 1115.77 349.532 Q1119.97 348.004 1123.07 349.83 Q1126.17 351.635 1128 356.681 Z" fill="#000000" fill-rule="evenodd" fill-opacity="1" /><path clip-path="url(#clip220)" d="M1148.26 339.183 L1149.64 342.968 Q1147.63 342.715 1145.64 342.945 Q1143.66 343.175 1141.7 343.888 Q1138.72 344.972 1137.55 346.432 Q1136.4 347.884 1137.07 349.711 Q1137.58 351.104 1138.94 351.52 Q1140.29 351.916 1143.77 351.462 L1145.25 351.267 Q1149.84 350.629 1152.24 351.655 Q1154.64 352.651 1155.73 355.631 Q1156.96 359.024 1154.99 361.985 Q1153.03 364.939 1148.33 366.649 Q1146.38 367.361 1144.1 367.746 Q1141.86 368.144 1139.23 368.238 L1137.73 364.105 Q1140.37 364.45 1142.73 364.253 Q1145.09 364.035 1147.2 363.267 Q1150.03 362.238 1151.2 360.727 Q1152.37 359.194 1151.73 357.432 Q1151.13 355.8 1149.71 355.334 Q1148.3 354.86 1144.29 355.409 L1142.78 355.589 Q1138.78 356.16 1136.54 355.152 Q1134.29 354.122 1133.26 351.295 Q1132.01 347.858 1133.77 345.1 Q1135.52 342.343 1140 340.712 Q1142.22 339.905 1144.3 339.518 Q1146.37 339.132 1148.26 339.183 Z" fill="#000000" fill-rule="evenodd" fill-opacity="1" /><path clip-path="url(#clip220)" d="M1180.59 339.266 L1181.3 341.224 L1162.9 347.922 Q1164.66 351.96 1167.68 353.327 Q1170.7 354.665 1174.68 353.217 Q1176.99 352.377 1178.93 351.028 Q1180.9 349.671 1182.62 347.764 L1184 351.549 Q1182.18 353.246 1180.09 354.548 Q1178 355.85 1175.68 356.697 Q1169.85 358.819 1165.2 356.668 Q1160.57 354.51 1158.46 348.724 Q1156.28 342.742 1158.23 338.069 Q1160.19 333.365 1165.67 331.37 Q1170.59 329.581 1174.59 331.719 Q1178.61 333.828 1180.59 339.266 M1176.16 339.548 Q1174.92 336.28 1172.4 334.979 Q1169.91 333.671 1166.95 334.747 Q1163.6 335.967 1162.26 338.595 Q1160.95 341.216 1161.9 344.764 L1176.16 339.548 Z" fill="#000000" fill-rule="evenodd" fill-opacity="1" /><path clip-path="url(#clip220)" d="M1189.27 312.755 Q1188.17 318.819 1188.54 324.228 Q1188.91 329.637 1190.74 334.661 Q1192.57 339.686 1195.78 344.109 Q1199 348.503 1203.71 352.431 L1200.23 353.698 Q1195.1 349.773 1191.68 345.429 Q1188.27 341.078 1186.5 336.205 Q1184.73 331.354 1184.55 325.853 Q1184.37 320.351 1185.79 314.022 L1189.27 312.755 Z" fill="#000000" fill-rule="evenodd" fill-opacity="1" /><path clip-path="url(#clip220)" d="M1198.12 311.034 L1215.37 304.756 L1216.72 308.453 L1203.49 313.267 L1206.39 321.228 Q1207.23 320.554 1208.13 320.053 Q1209.03 319.531 1209.98 319.182 Q1215.42 317.203 1219.68 319.027 Q1223.94 320.851 1225.79 325.941 Q1227.7 331.184 1225.5 335.286 Q1223.29 339.366 1217.35 341.528 Q1215.31 342.272 1213.05 342.7 Q1210.81 343.12 1208.3 343.247 L1206.69 338.831 Q1209.04 339.185 1211.31 338.947 Q1213.59 338.709 1215.92 337.862 Q1219.68 336.492 1221.16 333.713 Q1222.64 330.934 1221.4 327.541 Q1220.17 324.147 1217.25 322.967 Q1214.33 321.788 1210.57 323.157 Q1208.81 323.799 1207.19 324.831 Q1205.59 325.856 1204.06 327.348 L1198.12 311.034 Z" fill="#000000" fill-rule="evenodd" fill-opacity="1" /><path clip-path="url(#clip220)" d="M1236.69 327.518 L1241.28 325.848 L1242.64 329.589 L1241.61 337.848 L1238.8 338.869 L1238.05 331.26 L1236.69 327.518 Z" fill="#000000" fill-rule="evenodd" fill-opacity="1" /><path clip-path="url(#clip220)" d="M1253.64 290.829 L1274.52 283.229 L1275.2 285.1 L1274.55 319.996 L1269.96 321.666 L1270.58 288.851 L1254.98 294.527 L1253.64 290.829 Z" fill="#000000" fill-rule="evenodd" fill-opacity="1" /><path clip-path="url(#clip220)" d="M1293.35 306.894 L1297.94 305.224 L1299.31 308.965 L1298.27 317.224 L1295.47 318.245 L1294.72 310.636 L1293.35 306.894 Z" fill="#000000" fill-rule="evenodd" fill-opacity="1" /><path clip-path="url(#clip220)" d="M1324.39 277.861 Q1321.09 279.064 1320.17 282.106 Q1319.21 285.288 1320.72 289.421 Q1322.31 293.794 1325.08 295.644 Q1327.86 297.464 1331.1 296.285 Q1334.3 295.121 1335.25 291.917 Q1336.2 288.713 1334.62 284.362 Q1333.17 280.382 1330.33 278.409 Q1327.74 276.642 1324.39 277.861 M1323.24 274.685 L1336.53 269.848 L1337.98 273.85 L1333.5 275.481 Q1337.11 278.011 1338.86 282.819 Q1341.04 288.8 1339.29 293.278 Q1337.55 297.778 1332.33 299.678 Q1327.09 301.586 1322.89 299.248 Q1318.68 296.939 1316.5 290.957 Q1314.31 284.932 1316.06 280.476 Q1317.49 276.775 1323.24 274.685 Z" fill="#000000" fill-rule="evenodd" fill-opacity="1" /><path clip-path="url(#clip220)" d="M1337.96 258.634 L1341.44 257.367 Q1346.58 261.313 1349.97 265.643 Q1353.4 269.965 1355.16 274.816 Q1356.93 279.688 1357.1 285.22 Q1357.29 290.744 1355.89 297.043 L1352.41 298.31 Q1353.49 292.275 1353.11 286.845 Q1352.75 281.385 1350.92 276.36 Q1349.09 271.335 1345.87 266.963 Q1342.68 262.584 1337.96 258.634 Z" fill="#000000" fill-rule="evenodd" fill-opacity="1" /><path clip-path="url(#clip220)" d="M1428.59 728.817 L1437.79 754.071 L1443.09 752.139 Q1449.82 749.693 1451.82 745.515 Q1453.84 741.33 1451.45 734.761 Q1449.08 728.235 1444.84 726.352 Q1440.62 724.438 1433.9 726.885 L1428.59 728.817 M1422.89 726.805 L1431.91 723.519 Q1441.35 720.083 1447.2 722.413 Q1453.04 724.722 1456.08 733.074 Q1459.14 741.471 1456.14 747.023 Q1453.13 752.575 1443.73 755.995 L1434.71 759.281 L1422.89 726.805 Z" fill="#000000" fill-rule="evenodd" fill-opacity="1" /><path clip-path="url(#clip220)" d="M1484.88 726.093 L1485.59 728.05 L1467.19 734.748 Q1468.95 738.786 1471.96 740.154 Q1474.99 741.492 1478.97 740.043 Q1481.27 739.204 1483.22 737.854 Q1485.19 736.497 1486.91 734.59 L1488.29 738.375 Q1486.47 740.072 1484.38 741.374 Q1482.29 742.676 1479.96 743.523 Q1474.13 745.645 1469.48 743.495 Q1464.85 741.336 1462.75 735.55 Q1460.57 729.569 1462.52 724.895 Q1464.47 720.191 1469.96 718.196 Q1474.87 716.407 1478.88 718.546 Q1482.9 720.655 1484.88 726.093 M1480.45 726.375 Q1479.21 723.106 1476.69 721.805 Q1474.19 720.497 1471.24 721.574 Q1467.89 722.793 1466.55 725.422 Q1465.24 728.042 1466.19 731.59 L1480.45 726.375 Z" fill="#000000" fill-rule="evenodd" fill-opacity="1" /><path clip-path="url(#clip220)" d="M1511.14 714.808 L1516.49 729.513 L1512.49 730.969 L1507.19 716.395 Q1505.93 712.937 1503.95 711.709 Q1501.98 710.482 1499.28 711.463 Q1496.04 712.643 1494.92 715.39 Q1493.81 718.138 1495.1 721.705 L1500.12 735.474 L1496.09 736.939 L1487.22 712.577 L1491.25 711.112 L1492.63 714.897 Q1493.26 712.177 1494.8 710.385 Q1496.36 708.585 1498.91 707.659 Q1503.11 706.131 1506.21 707.957 Q1509.31 709.762 1511.14 714.808 Z" fill="#000000" fill-rule="evenodd" fill-opacity="1" /><path clip-path="url(#clip220)" d="M1531.4 697.31 L1532.78 701.095 Q1530.77 700.842 1528.78 701.072 Q1526.8 701.302 1524.84 702.015 Q1521.86 703.099 1520.69 704.559 Q1519.54 706.011 1520.21 707.838 Q1520.71 709.23 1522.07 709.647 Q1523.42 710.042 1526.9 709.588 L1528.39 709.394 Q1532.98 708.756 1535.38 709.782 Q1537.78 710.778 1538.87 713.758 Q1540.1 717.151 1538.13 720.112 Q1536.17 723.065 1531.47 724.776 Q1529.51 725.488 1527.24 725.872 Q1525 726.271 1522.37 726.364 L1520.86 722.231 Q1523.5 722.577 1525.87 722.38 Q1528.23 722.162 1530.34 721.394 Q1533.17 720.365 1534.34 718.854 Q1535.51 717.321 1534.87 715.559 Q1534.27 713.927 1532.85 713.461 Q1531.44 712.987 1527.43 713.536 L1525.92 713.716 Q1521.91 714.287 1519.68 713.279 Q1517.43 712.249 1516.4 709.421 Q1515.15 705.985 1516.9 703.227 Q1518.66 700.47 1523.14 698.839 Q1525.36 698.031 1527.44 697.645 Q1529.51 697.259 1531.4 697.31 Z" fill="#000000" fill-rule="evenodd" fill-opacity="1" /><path clip-path="url(#clip220)" d="M1563.73 697.393 L1564.44 699.351 L1546.04 706.049 Q1547.8 710.087 1550.81 711.454 Q1553.84 712.792 1557.82 711.343 Q1560.12 710.504 1562.07 709.155 Q1564.04 707.798 1565.76 705.891 L1567.14 709.675 Q1565.32 711.373 1563.23 712.675 Q1561.14 713.977 1558.81 714.824 Q1552.98 716.946 1548.33 714.795 Q1543.71 712.637 1541.6 706.851 Q1539.42 700.869 1541.37 696.195 Q1543.33 691.492 1548.81 689.497 Q1553.72 687.708 1557.73 689.846 Q1561.75 691.955 1563.73 697.393 M1559.3 697.675 Q1558.06 694.407 1555.54 693.106 Q1553.04 691.798 1550.09 692.874 Q1546.74 694.093 1545.4 696.722 Q1544.09 699.343 1545.04 702.891 L1559.3 697.675 Z" fill="#000000" fill-rule="evenodd" fill-opacity="1" /><path clip-path="url(#clip220)" d="M1572.41 670.882 Q1571.31 676.946 1571.68 682.355 Q1572.05 687.763 1573.88 692.788 Q1575.7 697.813 1578.92 702.236 Q1582.14 706.629 1586.85 710.558 L1583.37 711.824 Q1578.24 707.9 1574.81 703.556 Q1571.41 699.204 1569.63 694.332 Q1567.87 689.481 1567.69 683.979 Q1567.51 678.478 1568.93 672.149 L1572.41 670.882 Z" fill="#000000" fill-rule="evenodd" fill-opacity="1" /><path clip-path="url(#clip220)" d="M1580.11 669.58 L1600.99 661.98 L1601.67 663.851 L1601.02 698.747 L1596.43 700.417 L1597.05 667.602 L1581.46 673.278 L1580.11 669.58 Z" fill="#000000" fill-rule="evenodd" fill-opacity="1" /><path clip-path="url(#clip220)" d="M1619.83 685.645 L1624.42 683.975 L1625.78 687.716 L1624.75 695.975 L1621.94 696.996 L1621.19 689.386 L1619.83 685.645 Z" fill="#000000" fill-rule="evenodd" fill-opacity="1" /><path clip-path="url(#clip220)" d="M1652.14 675.953 L1667.48 670.371 L1668.82 674.069 L1648.2 681.575 L1646.86 677.877 Q1648.42 674.378 1651.14 668.46 Q1653.88 662.512 1654.53 660.847 Q1655.77 657.708 1656.01 655.776 Q1656.25 653.814 1655.68 652.226 Q1654.73 649.637 1652.31 648.671 Q1649.91 647.697 1647 648.757 Q1644.93 649.51 1642.89 651.067 Q1640.87 652.616 1638.79 655.023 L1637.17 650.586 Q1639.44 648.554 1641.54 647.171 Q1643.65 645.788 1645.57 645.091 Q1650.61 643.255 1654.53 644.685 Q1658.45 646.116 1659.99 650.336 Q1660.72 652.337 1660.61 654.419 Q1660.52 656.472 1659.43 659.629 Q1659.12 660.458 1657.3 664.542 Q1655.48 668.605 1652.14 675.953 Z" fill="#000000" fill-rule="evenodd" fill-opacity="1" /><path clip-path="url(#clip220)" d="M1676.49 665.021 L1681.08 663.351 L1682.44 667.092 L1681.41 675.351 L1678.6 676.372 L1677.85 668.762 L1676.49 665.021 Z" fill="#000000" fill-rule="evenodd" fill-opacity="1" /><path clip-path="url(#clip220)" d="M1712.41 634.851 Q1711.6 634.705 1710.73 634.824 Q1709.87 634.913 1708.92 635.261 Q1705.52 636.496 1704.5 639.38 Q1703.5 642.234 1705 646.367 L1709.67 659.201 L1705.65 660.666 L1696.78 636.303 L1700.81 634.839 L1702.18 638.623 Q1702.64 635.946 1704.27 634.143 Q1705.9 632.32 1708.79 631.267 Q1709.21 631.116 1709.73 630.999 Q1710.25 630.861 1710.9 630.748 L1712.41 634.851 Z" fill="#000000" fill-rule="evenodd" fill-opacity="1" /><path clip-path="url(#clip220)" d="M1739.18 633.534 L1739.89 635.492 L1721.49 642.189 Q1723.25 646.227 1726.27 647.595 Q1729.29 648.933 1733.27 647.484 Q1735.58 646.645 1737.52 645.296 Q1739.49 643.938 1741.21 642.031 L1742.59 645.816 Q1740.77 647.514 1738.68 648.815 Q1736.59 650.117 1734.27 650.965 Q1728.44 653.086 1723.79 650.936 Q1719.16 648.778 1717.05 642.992 Q1714.87 637.01 1716.82 632.336 Q1718.78 627.633 1724.26 625.638 Q1729.18 623.848 1733.18 625.987 Q1737.2 628.096 1739.18 633.534 M1734.75 633.816 Q1733.51 630.547 1730.99 629.247 Q1728.5 627.938 1725.54 629.015 Q1722.19 630.234 1720.85 632.863 Q1719.54 635.484 1720.49 639.031 L1734.75 633.816 Z" fill="#000000" fill-rule="evenodd" fill-opacity="1" /><path clip-path="url(#clip220)" d="M1738.23 610.479 L1742.23 609.022 L1754.55 642.868 L1750.55 644.325 L1738.23 610.479 Z" fill="#000000" fill-rule="evenodd" fill-opacity="1" /><path clip-path="url(#clip220)" d="M1759.01 630.356 L1753.64 615.608 L1757.65 614.151 L1762.96 628.747 Q1764.22 632.205 1766.2 633.455 Q1768.17 634.682 1770.87 633.701 Q1774.11 632.521 1775.23 629.774 Q1776.37 627.018 1775.07 623.451 L1770.04 609.639 L1774.05 608.182 L1782.91 632.544 L1778.91 634.001 L1777.55 630.259 Q1776.9 633.009 1775.36 634.801 Q1773.83 636.563 1771.29 637.49 Q1767.09 639.018 1763.96 637.199 Q1760.84 635.381 1759.01 630.356 M1763.5 611.355 L1763.5 611.355 Z" fill="#000000" fill-rule="evenodd" fill-opacity="1" /><path clip-path="url(#clip220)" d="M1778.22 595.97 L1781.7 594.704 Q1786.83 598.65 1790.23 602.98 Q1793.65 607.302 1795.42 612.153 Q1797.19 617.025 1797.36 622.557 Q1797.55 628.08 1796.14 634.379 L1792.66 635.646 Q1793.74 629.612 1793.37 624.181 Q1793.01 618.721 1791.18 613.696 Q1789.35 608.672 1786.13 604.3 Q1782.94 599.92 1778.22 595.97 Z" fill="#000000" fill-rule="evenodd" fill-opacity="1" /><path clip-path="url(#clip220)" d="M1897.13 638.583 L1906.32 663.837 L1911.63 661.905 Q1918.35 659.459 1920.35 655.281 Q1922.38 651.096 1919.99 644.527 Q1917.61 638.001 1913.38 636.118 Q1909.16 634.205 1902.44 636.651 L1897.13 638.583 M1891.42 636.571 L1900.45 633.286 Q1909.89 629.85 1915.74 632.18 Q1921.58 634.488 1924.62 642.841 Q1927.68 651.237 1924.67 656.789 Q1921.67 662.341 1912.27 665.762 L1903.24 669.047 L1891.42 636.571 Z" fill="#000000" fill-rule="evenodd" fill-opacity="1" /><path clip-path="url(#clip220)" d="M1953.41 635.859 L1954.13 637.817 L1935.72 644.514 Q1937.49 648.552 1940.5 649.92 Q1943.52 651.258 1947.5 649.809 Q1949.81 648.97 1951.76 647.621 Q1953.73 646.263 1955.45 644.356 L1956.82 648.141 Q1955 649.839 1952.92 651.141 Q1950.83 652.442 1948.5 653.29 Q1942.67 655.411 1938.02 653.261 Q1933.39 651.103 1931.29 645.317 Q1929.11 639.335 1931.05 634.661 Q1933.01 629.958 1938.49 627.963 Q1943.41 626.173 1947.41 628.312 Q1951.43 630.421 1953.41 635.859 M1948.98 636.141 Q1947.74 632.872 1945.23 631.572 Q1942.73 630.263 1939.77 631.34 Q1936.42 632.559 1935.09 635.188 Q1933.78 637.809 1934.72 641.356 L1948.98 636.141 Z" fill="#000000" fill-rule="evenodd" fill-opacity="1" /><path clip-path="url(#clip220)" d="M1979.68 624.574 L1985.03 639.279 L1981.03 640.736 L1975.72 626.162 Q1974.47 622.703 1972.49 621.476 Q1970.52 620.248 1967.82 621.23 Q1964.58 622.409 1963.46 625.157 Q1962.34 627.904 1963.64 631.471 L1968.65 645.24 L1964.63 646.705 L1955.76 622.343 L1959.78 620.878 L1961.16 624.663 Q1961.8 621.944 1963.34 620.151 Q1964.9 618.351 1967.44 617.425 Q1971.64 615.897 1974.75 617.723 Q1977.84 619.528 1979.68 624.574 Z" fill="#000000" fill-rule="evenodd" fill-opacity="1" /><path clip-path="url(#clip220)" d="M1999.94 607.076 L2001.32 610.861 Q1999.3 610.608 1997.32 610.838 Q1995.33 611.068 1993.37 611.781 Q1990.39 612.866 1989.23 614.325 Q1988.08 615.777 1988.74 617.604 Q1989.25 618.997 1990.61 619.414 Q1991.96 619.809 1995.44 619.355 L1996.92 619.16 Q2001.52 618.522 2003.91 619.548 Q2006.32 620.544 2007.4 623.524 Q2008.64 626.917 2006.66 629.879 Q2004.71 632.832 2000.01 634.542 Q1998.05 635.254 1995.78 635.639 Q1993.53 636.037 1990.91 636.131 L1989.4 631.998 Q1992.04 632.343 1994.41 632.147 Q1996.77 631.928 1998.88 631.16 Q2001.7 630.131 2002.88 628.62 Q2004.04 627.087 2003.4 625.325 Q2002.81 623.694 2001.38 623.227 Q1999.98 622.753 1995.97 623.302 L1994.46 623.482 Q1990.45 624.053 1988.21 623.045 Q1985.97 622.016 1984.94 619.188 Q1983.69 615.751 1985.44 612.994 Q1987.2 610.236 1991.68 608.605 Q1993.9 607.798 1995.97 607.411 Q1998.05 607.025 1999.94 607.076 Z" fill="#000000" fill-rule="evenodd" fill-opacity="1" /><path clip-path="url(#clip220)" d="M2032.26 607.159 L2032.98 609.117 L2014.57 615.815 Q2016.34 619.853 2019.35 621.221 Q2022.37 622.559 2026.35 621.11 Q2028.66 620.27 2030.61 618.921 Q2032.58 617.564 2034.3 615.657 L2035.68 619.442 Q2033.85 621.139 2031.77 622.441 Q2029.68 623.743 2027.35 624.59 Q2021.52 626.712 2016.87 624.562 Q2012.24 622.403 2010.14 616.617 Q2007.96 610.635 2009.9 605.962 Q2011.86 601.258 2017.34 599.263 Q2022.26 597.474 2026.27 599.612 Q2030.28 601.721 2032.26 607.159 M2027.83 607.442 Q2026.6 604.173 2024.08 602.872 Q2021.58 601.564 2018.62 602.641 Q2015.27 603.86 2013.94 606.488 Q2012.63 609.109 2013.57 612.657 L2027.83 607.442 Z" fill="#000000" fill-rule="evenodd" fill-opacity="1" /><path clip-path="url(#clip220)" d="M2040.94 580.648 Q2039.85 586.712 2040.22 592.121 Q2040.58 597.53 2042.41 602.554 Q2044.24 607.579 2047.45 612.002 Q2050.68 616.396 2055.38 620.324 L2051.9 621.591 Q2046.78 617.666 2043.35 613.323 Q2039.94 608.971 2038.17 604.098 Q2036.4 599.248 2036.23 593.746 Q2036.05 588.244 2037.46 581.915 L2040.94 580.648 Z" fill="#000000" fill-rule="evenodd" fill-opacity="1" /><path clip-path="url(#clip220)" d="M2064.02 606.343 L2079.35 600.762 L2080.7 604.46 L2060.08 611.965 L2058.73 608.267 Q2060.29 604.768 2063.01 598.85 Q2065.75 592.902 2066.4 591.237 Q2067.65 588.098 2067.88 586.166 Q2068.13 584.204 2067.55 582.616 Q2066.61 580.028 2064.19 579.061 Q2061.79 578.087 2058.87 579.148 Q2056.8 579.9 2054.76 581.457 Q2052.74 583.006 2050.66 585.414 L2049.04 580.976 Q2051.31 578.944 2053.42 577.561 Q2055.52 576.178 2057.44 575.482 Q2062.48 573.645 2066.4 575.076 Q2070.33 576.506 2071.86 580.726 Q2072.59 582.727 2072.49 584.81 Q2072.39 586.863 2071.3 590.019 Q2070.99 590.848 2069.17 594.933 Q2067.35 598.995 2064.02 606.343 Z" fill="#000000" fill-rule="evenodd" fill-opacity="1" /><path clip-path="url(#clip220)" d="M2088.37 595.411 L2092.95 593.741 L2094.32 597.482 L2093.28 605.741 L2090.48 606.763 L2089.73 599.153 L2088.37 595.411 Z" fill="#000000" fill-rule="evenodd" fill-opacity="1" /><path clip-path="url(#clip220)" d="M2125.18 568.439 Q2128.58 567.965 2131.12 569.456 Q2133.68 570.938 2134.82 574.071 Q2136.57 578.878 2134.22 582.713 Q2131.87 586.548 2125.78 588.765 Q2123.73 589.509 2121.41 589.888 Q2119.11 590.28 2116.51 590.315 L2114.97 586.073 Q2117.18 586.474 2119.56 586.226 Q2121.93 585.978 2124.3 585.115 Q2128.44 583.611 2129.99 581.195 Q2131.58 578.772 2130.44 575.662 Q2129.4 572.791 2126.79 571.917 Q2124.2 571.014 2120.61 572.32 L2116.82 573.698 L2115.51 570.087 L2119.47 568.646 Q2122.71 567.467 2123.96 565.558 Q2125.2 563.627 2124.31 561.191 Q2123.4 558.69 2121.14 558.012 Q2118.89 557.305 2115.58 558.508 Q2113.77 559.165 2111.85 560.309 Q2109.93 561.452 2107.75 563.182 L2106.32 559.266 Q2108.57 557.66 2110.62 556.52 Q2112.69 555.372 2114.62 554.668 Q2119.63 552.847 2123.37 554.07 Q2127.11 555.271 2128.52 559.143 Q2129.5 561.84 2128.64 564.273 Q2127.77 566.684 2125.18 568.439 Z" fill="#000000" fill-rule="evenodd" fill-opacity="1" /><path clip-path="url(#clip220)" d="M2133.08 547.111 L2136.56 545.845 Q2141.7 549.791 2145.09 554.121 Q2148.51 558.443 2150.28 563.294 Q2152.05 568.166 2152.22 573.698 Q2152.41 579.221 2151 585.52 L2147.52 586.787 Q2148.6 580.753 2148.23 575.322 Q2147.87 569.862 2146.04 564.837 Q2144.21 559.813 2140.99 555.441 Q2137.8 551.061 2133.08 547.111 Z" fill="#000000" fill-rule="evenodd" fill-opacity="1" /></svg>
