<?xml version="1.0" encoding="utf-8"?>
<svg xmlns="http://www.w3.org/2000/svg" xmlns:xlink="http://www.w3.org/1999/xlink" width="600" height="400" viewBox="0 0 2400 1600">
<defs>
  <clipPath id="clip240">
    <rect x="0" y="0" width="2400" height="1600"/>
  </clipPath>
</defs>
<path clip-path="url(#clip240)" d="
M0 1600 L2400 1600 L2400 0 L0 0  Z
  " fill="#ffffff" fill-rule="evenodd" fill-opacity="1"/>
<defs>
  <clipPath id="clip241">
    <rect x="480" y="0" width="1681" height="1600"/>
  </clipPath>
</defs>
<path clip-path="url(#clip240)" d="
M47.2441 1388.98 L2352.76 1388.98 L2352.76 114.832 L47.2441 114.832  Z
  " fill="#ffffff" fill-rule="evenodd" fill-opacity="1"/>
<defs>
  <clipPath id="clip242">
    <rect x="47" y="114" width="2307" height="1275"/>
  </clipPath>
</defs>
<polyline clip-path="url(#clip242)" style="stroke:#000000; stroke-linecap:butt; stroke-linejoin:round; stroke-width:2; stroke-opacity:0.1; fill:none" points="
  376.603,1388.98 376.603,114.832 
  "/>
<polyline clip-path="url(#clip242)" style="stroke:#000000; stroke-linecap:butt; stroke-linejoin:round; stroke-width:2; stroke-opacity:0.1; fill:none" points="
  2023.4,1388.98 2023.4,114.832 
  "/>
<path clip-path="url(#clip240)" d="M286.381 1535.06 L288.511 1531.37 L310.963 1544.34 L308.834 1548.02 L286.381 1535.06 M277.641 1530.02 L279.77 1526.33 L284.441 1529.02 L282.312 1532.71 L277.641 1530.02 Z" fill="#000000" fill-rule="evenodd" fill-opacity="1" /><path clip-path="url(#clip240)" d="M312.643 1510.13 L326.195 1517.95 L324.065 1521.64 L310.634 1513.89 Q307.446 1512.05 305.145 1512.38 Q302.844 1512.7 301.409 1515.19 Q299.684 1518.18 300.593 1521 Q301.502 1523.82 304.79 1525.72 L317.479 1533.05 L315.338 1536.76 L292.886 1523.8 L295.027 1520.09 L298.515 1522.1 Q297.254 1519.61 297.282 1517.25 Q297.321 1514.86 298.676 1512.52 Q300.909 1508.65 304.461 1508.05 Q307.992 1507.44 312.643 1510.13 Z" fill="#000000" fill-rule="evenodd" fill-opacity="1" /><path clip-path="url(#clip240)" d="M329.135 1505.08 L341.042 1511.96 L338.901 1515.67 L307.909 1497.77 L310.05 1494.07 L313.458 1496.03 Q312.125 1493.71 312.181 1491.39 Q312.229 1489.04 313.652 1486.58 Q316.013 1482.49 320.731 1481.82 Q325.46 1481.13 330.752 1484.18 Q336.045 1487.24 337.811 1491.68 Q339.588 1496.1 337.227 1500.19 Q335.804 1502.65 333.811 1503.88 Q331.811 1505.08 329.135 1505.08 M328.542 1488.01 Q324.472 1485.66 321.195 1486.01 Q317.909 1486.33 316.219 1489.26 Q314.529 1492.19 315.882 1495.21 Q317.227 1498.21 321.296 1500.56 Q325.366 1502.91 328.652 1502.59 Q331.93 1502.23 333.619 1499.31 Q335.309 1496.38 333.964 1493.39 Q332.611 1490.36 328.542 1488.01 Z" fill="#000000" fill-rule="evenodd" fill-opacity="1" /><path clip-path="url(#clip240)" d="M336.408 1479.8 L322.816 1471.95 L324.946 1468.27 L338.397 1476.03 Q341.585 1477.87 343.906 1477.55 Q346.207 1477.23 347.642 1474.74 Q349.367 1471.75 348.458 1468.93 Q347.56 1466.09 344.273 1464.19 L331.543 1456.84 L333.673 1453.15 L356.125 1466.11 L353.995 1469.8 L350.547 1467.81 Q351.817 1470.33 351.789 1472.7 Q351.753 1475.03 350.399 1477.37 Q348.165 1481.24 344.602 1481.86 Q341.039 1482.47 336.408 1479.8 M327.634 1462.36 L327.634 1462.36 Z" fill="#000000" fill-rule="evenodd" fill-opacity="1" /><path clip-path="url(#clip240)" d="M333.791 1438.22 L340.166 1441.9 L344.552 1434.31 L347.419 1435.96 L343.032 1443.56 L355.221 1450.6 Q357.967 1452.18 359.177 1451.89 Q360.399 1451.58 361.73 1449.28 L363.917 1445.49 L367.005 1447.27 L364.817 1451.06 Q362.352 1455.33 359.831 1456.04 Q357.289 1456.74 353.08 1454.3 L340.891 1447.27 L339.329 1449.97 L336.462 1448.32 L338.024 1445.61 L331.65 1441.93 L333.791 1438.22 Z" fill="#000000" fill-rule="evenodd" fill-opacity="1" /><path clip-path="url(#clip240)" d="M323.288 1554.63 L325.418 1550.94 L356.61 1568.95 L354.481 1572.64 L323.288 1554.63 Z" fill="#000000" fill-rule="evenodd" fill-opacity="1" /><path clip-path="url(#clip240)" d="M355.671 1544.51 Q353.09 1548.99 353.117 1551.3 Q353.144 1553.61 355.61 1555.04 Q357.575 1556.17 359.478 1555.56 Q361.373 1554.92 362.658 1552.69 Q364.428 1549.62 363.328 1546.53 Q362.22 1543.4 358.611 1541.32 L357.789 1540.85 L355.671 1544.51 M358.395 1536.28 L371.205 1543.67 L369.076 1547.36 L365.668 1545.39 Q366.983 1547.84 366.878 1550.29 Q366.752 1552.73 365.178 1555.46 Q363.187 1558.9 360.082 1559.84 Q356.968 1560.74 353.721 1558.86 Q349.932 1556.68 349.466 1553.04 Q349.011 1549.38 351.916 1544.35 L354.902 1539.18 L354.542 1538.97 Q351.996 1537.5 349.64 1538.39 Q347.276 1539.24 345.529 1542.27 Q344.418 1544.19 343.825 1546.28 Q343.233 1548.37 343.183 1550.59 L339.775 1548.62 Q340.162 1546.15 340.881 1544.02 Q341.58 1541.89 342.621 1540.08 Q345.434 1535.21 349.349 1534.26 Q353.263 1533.31 358.395 1536.28 Z" fill="#000000" fill-rule="evenodd" fill-opacity="1" /><path clip-path="url(#clip240)" d="M383.07 1527.94 Q386.177 1531.82 386.543 1534.01 Q386.909 1536.2 385.474 1538.68 L383.773 1541.63 L380.686 1539.85 L381.936 1537.68 Q382.815 1536.16 382.58 1534.9 Q382.344 1533.64 380.248 1531.07 L378.946 1529.43 L351.612 1525.76 L353.868 1521.85 L375.48 1524.97 L361.97 1507.82 L364.227 1503.91 L383.07 1527.94 Z" fill="#000000" fill-rule="evenodd" fill-opacity="1" /><path clip-path="url(#clip240)" d="M388.559 1485.56 L390.363 1486.6 L380.572 1503.56 Q384.519 1505.52 387.705 1504.63 Q390.881 1503.71 392.999 1500.05 Q394.226 1497.92 394.851 1495.63 Q395.487 1493.33 395.579 1490.76 L399.067 1492.78 Q398.763 1495.25 398 1497.59 Q397.238 1499.93 395.999 1502.07 Q392.898 1507.44 387.953 1508.79 Q383.02 1510.11 377.688 1507.03 Q372.175 1503.85 370.66 1499.02 Q369.137 1494.15 372.054 1489.1 Q374.67 1484.57 379.113 1483.64 Q383.547 1482.67 388.559 1485.56 M385.347 1488.62 Q382.297 1486.92 379.532 1487.54 Q376.778 1488.14 375.204 1490.87 Q373.422 1493.95 374.09 1496.83 Q374.769 1499.68 377.774 1501.79 L385.347 1488.62 Z" fill="#000000" fill-rule="evenodd" fill-opacity="1" /><path clip-path="url(#clip240)" d="M392.71 1462.54 Q391.99 1462.95 391.402 1463.6 Q390.805 1464.22 390.295 1465.1 Q388.49 1468.23 389.562 1471.09 Q390.626 1473.92 394.435 1476.12 L406.263 1482.95 L404.122 1486.66 L381.669 1473.7 L383.81 1469.99 L387.299 1472 Q385.925 1469.66 386.019 1467.23 Q386.093 1464.79 387.633 1462.12 Q387.852 1461.74 388.179 1461.31 Q388.485 1460.87 388.909 1460.37 L392.71 1462.54 Z" fill="#000000" fill-rule="evenodd" fill-opacity="1" /><path clip-path="url(#clip240)" d="M1923.57 1557.66 Q1921.86 1560.63 1923.19 1563.7 Q1924.5 1566.75 1928.53 1569.08 Q1932.56 1571.41 1935.87 1571.04 Q1939.17 1570.65 1940.89 1567.66 Q1942.6 1564.72 1941.27 1561.65 Q1939.94 1558.58 1935.93 1556.27 Q1931.94 1553.97 1928.62 1554.35 Q1925.28 1554.72 1923.57 1557.66 M1920.45 1555.86 Q1923.22 1551.05 1927.94 1550.11 Q1932.65 1549.17 1938.18 1552.36 Q1943.7 1555.54 1945.26 1560.11 Q1946.8 1564.66 1944.02 1569.47 Q1941.23 1574.3 1936.52 1575.24 Q1931.8 1576.15 1926.29 1572.97 Q1920.75 1569.77 1919.2 1565.24 Q1917.66 1560.69 1920.45 1555.86 Z" fill="#000000" fill-rule="evenodd" fill-opacity="1" /><path clip-path="url(#clip240)" d="M1943.84 1547.98 L1930.25 1540.13 L1932.38 1536.44 L1945.83 1544.21 Q1949.02 1546.05 1951.34 1545.73 Q1953.64 1545.41 1955.07 1542.92 Q1956.8 1539.93 1955.89 1537.11 Q1954.99 1534.27 1951.7 1532.37 L1938.97 1525.02 L1941.1 1521.33 L1963.56 1534.29 L1961.43 1537.98 L1957.98 1535.99 Q1959.25 1538.51 1959.22 1540.88 Q1959.18 1543.21 1957.83 1545.55 Q1955.6 1549.42 1952.03 1550.04 Q1948.47 1550.65 1943.84 1547.98 M1935.06 1530.54 L1935.06 1530.54 Z" fill="#000000" fill-rule="evenodd" fill-opacity="1" /><path clip-path="url(#clip240)" d="M1941.22 1506.4 L1947.6 1510.08 L1951.98 1502.49 L1954.85 1504.14 L1950.46 1511.74 L1962.65 1518.78 Q1965.4 1520.36 1966.61 1520.07 Q1967.83 1519.76 1969.16 1517.45 L1971.35 1513.67 L1974.44 1515.45 L1972.25 1519.24 Q1969.78 1523.51 1967.26 1524.22 Q1964.72 1524.91 1960.51 1522.48 L1948.32 1515.45 L1946.76 1518.15 L1943.89 1516.5 L1945.46 1513.79 L1939.08 1510.11 L1941.22 1506.4 Z" fill="#000000" fill-rule="evenodd" fill-opacity="1" /><path clip-path="url(#clip240)" d="M1975.93 1505.08 L1987.84 1511.96 L1985.7 1515.67 L1954.7 1497.77 L1956.84 1494.07 L1960.25 1496.03 Q1958.92 1493.71 1958.98 1491.39 Q1959.02 1489.04 1960.45 1486.58 Q1962.81 1482.49 1967.53 1481.82 Q1972.25 1481.13 1977.55 1484.18 Q1982.84 1487.24 1984.6 1491.68 Q1986.38 1496.1 1984.02 1500.19 Q1982.6 1502.65 1980.61 1503.88 Q1978.6 1505.08 1975.93 1505.08 M1975.34 1488.01 Q1971.27 1485.66 1967.99 1486.01 Q1964.7 1486.33 1963.01 1489.26 Q1961.32 1492.19 1962.68 1495.21 Q1964.02 1498.21 1968.09 1500.56 Q1972.16 1502.91 1975.45 1502.59 Q1978.72 1502.23 1980.41 1499.31 Q1982.1 1496.38 1980.76 1493.39 Q1979.41 1490.36 1975.34 1488.01 Z" fill="#000000" fill-rule="evenodd" fill-opacity="1" /><path clip-path="url(#clip240)" d="M1983.2 1479.8 L1969.61 1471.95 L1971.74 1468.27 L1985.19 1476.03 Q1988.38 1477.87 1990.7 1477.55 Q1993 1477.23 1994.44 1474.74 Q1996.16 1471.75 1995.25 1468.93 Q1994.35 1466.09 1991.07 1464.19 L1978.34 1456.84 L1980.47 1453.15 L2002.92 1466.11 L2000.79 1469.8 L1997.34 1467.81 Q1998.61 1470.33 1998.58 1472.7 Q1998.55 1475.03 1997.19 1477.37 Q1994.96 1481.24 1991.4 1481.86 Q1987.83 1482.47 1983.2 1479.8 M1974.43 1462.36 L1974.43 1462.36 Z" fill="#000000" fill-rule="evenodd" fill-opacity="1" /><path clip-path="url(#clip240)" d="M1980.58 1438.22 L1986.96 1441.9 L1991.35 1434.31 L1994.21 1435.96 L1989.83 1443.56 L2002.01 1450.6 Q2004.76 1452.18 2005.97 1451.89 Q2007.19 1451.58 2008.52 1449.28 L2010.71 1445.49 L2013.8 1447.27 L2011.61 1451.06 Q2009.15 1455.33 2006.62 1456.04 Q2004.08 1456.74 1999.87 1454.3 L1987.69 1447.27 L1986.12 1449.97 L1983.26 1448.32 L1984.82 1445.61 L1978.44 1441.93 L1980.58 1438.22 Z" fill="#000000" fill-rule="evenodd" fill-opacity="1" /><path clip-path="url(#clip240)" d="M1953.48 1583.39 L1955.61 1579.7 L1986.8 1597.71 L1984.67 1601.4 L1953.48 1583.39 Z" fill="#000000" fill-rule="evenodd" fill-opacity="1" /><path clip-path="url(#clip240)" d="M1985.86 1573.27 Q1983.28 1577.74 1983.31 1580.06 Q1983.34 1582.37 1985.8 1583.79 Q1987.77 1584.93 1989.67 1584.32 Q1991.56 1583.67 1992.85 1581.45 Q1994.62 1578.38 1993.52 1575.29 Q1992.41 1572.16 1988.8 1570.08 L1987.98 1569.6 L1985.86 1573.27 M1988.59 1565.03 L2001.4 1572.43 L1999.27 1576.12 L1995.86 1574.15 Q1997.17 1576.6 1997.07 1579.05 Q1996.94 1581.49 1995.37 1584.21 Q1993.38 1587.66 1990.27 1588.59 Q1987.16 1589.5 1983.91 1587.62 Q1980.12 1585.43 1979.66 1581.8 Q1979.2 1578.14 1982.11 1573.11 L1985.09 1567.94 L1984.73 1567.73 Q1982.19 1566.26 1979.83 1567.14 Q1977.47 1568 1975.72 1571.02 Q1974.61 1572.95 1974.02 1575.04 Q1973.42 1577.13 1973.37 1579.35 L1969.97 1577.38 Q1970.35 1574.9 1971.07 1572.78 Q1971.77 1570.64 1972.81 1568.84 Q1975.62 1563.97 1979.54 1563.02 Q1983.45 1562.07 1988.59 1565.03 Z" fill="#000000" fill-rule="evenodd" fill-opacity="1" /><path clip-path="url(#clip240)" d="M2013.26 1556.69 Q2016.37 1560.57 2016.73 1562.76 Q2017.1 1564.95 2015.67 1567.44 L2013.96 1570.39 L2010.88 1568.6 L2012.13 1566.44 Q2013.01 1564.91 2012.77 1563.66 Q2012.54 1562.4 2010.44 1559.82 L2009.14 1558.19 L1981.8 1554.52 L1984.06 1550.61 L2005.67 1553.73 L1992.16 1536.57 L1994.42 1532.67 L2013.26 1556.69 Z" fill="#000000" fill-rule="evenodd" fill-opacity="1" /><path clip-path="url(#clip240)" d="M2018.75 1514.32 L2020.55 1515.36 L2010.76 1532.32 Q2014.71 1534.28 2017.9 1533.39 Q2021.07 1532.47 2023.19 1528.8 Q2024.42 1526.68 2025.04 1524.39 Q2025.68 1522.09 2025.77 1519.52 L2029.26 1521.53 Q2028.95 1524 2028.19 1526.34 Q2027.43 1528.68 2026.19 1530.83 Q2023.09 1536.2 2018.14 1537.54 Q2013.21 1538.86 2007.88 1535.79 Q2002.37 1532.6 2000.85 1527.77 Q1999.33 1522.91 2002.25 1517.86 Q2004.86 1513.33 2009.3 1512.39 Q2013.74 1511.42 2018.75 1514.32 M2015.54 1517.38 Q2012.49 1515.67 2009.72 1516.3 Q2006.97 1516.9 2005.4 1519.62 Q2003.61 1522.71 2004.28 1525.58 Q2004.96 1528.43 2007.97 1530.54 L2015.54 1517.38 Z" fill="#000000" fill-rule="evenodd" fill-opacity="1" /><path clip-path="url(#clip240)" d="M2022.9 1491.29 Q2022.18 1491.71 2021.59 1492.36 Q2021 1492.97 2020.49 1493.86 Q2018.68 1496.98 2019.75 1499.85 Q2020.82 1502.68 2024.63 1504.88 L2036.45 1511.71 L2034.31 1515.42 L2011.86 1502.45 L2014 1498.75 L2017.49 1500.76 Q2016.12 1498.42 2016.21 1495.99 Q2016.28 1493.54 2017.82 1490.88 Q2018.04 1490.5 2018.37 1490.07 Q2018.68 1489.63 2019.1 1489.13 L2022.9 1491.29 Z" fill="#000000" fill-rule="evenodd" fill-opacity="1" /><path clip-path="url(#clip240)" d="M1005.78 16.1319 L1005.78 56.4441 L1014.25 56.4441 Q1024.98 56.4441 1029.95 51.5831 Q1034.95 46.722 1034.95 36.2359 Q1034.95 25.8193 1029.95 20.9929 Q1024.98 16.1319 1014.25 16.1319 L1005.78 16.1319 M998.768 10.368 L1013.18 10.368 Q1028.25 10.368 1035.3 16.6527 Q1042.34 22.9027 1042.34 36.2359 Q1042.34 49.6386 1035.26 55.9233 Q1028.18 62.208 1013.18 62.208 L998.768 62.208 L998.768 10.368 Z" fill="#000000" fill-rule="evenodd" fill-opacity="1" /><path clip-path="url(#clip240)" d="M1086.51 41.1664 L1086.51 44.2914 L1057.14 44.2914 Q1057.55 50.8886 1061.09 54.3608 Q1064.67 57.7983 1071.02 57.7983 Q1074.71 57.7983 1078.14 56.8955 Q1081.62 55.9928 1085.02 54.1872 L1085.02 60.2288 Q1081.58 61.6872 1077.97 62.4511 Q1074.36 63.2149 1070.64 63.2149 Q1061.34 63.2149 1055.89 57.7983 Q1050.47 52.3817 1050.47 43.1456 Q1050.47 33.597 1055.61 28.0068 Q1060.78 22.3818 1069.53 22.3818 Q1077.38 22.3818 1081.93 27.4512 Q1086.51 32.4859 1086.51 41.1664 M1080.12 39.2915 Q1080.05 34.0484 1077.17 30.9234 Q1074.32 27.7985 1069.6 27.7985 Q1064.25 27.7985 1061.03 30.8193 Q1057.83 33.8401 1057.34 39.3262 L1080.12 39.2915 Z" fill="#000000" fill-rule="evenodd" fill-opacity="1" /><path clip-path="url(#clip240)" d="M1129.32 38.7359 L1129.32 62.208 L1122.93 62.208 L1122.93 38.9442 Q1122.93 33.4234 1120.78 30.6804 Q1118.63 27.9374 1114.32 27.9374 Q1109.15 27.9374 1106.16 31.2359 Q1103.18 34.5345 1103.18 40.229 L1103.18 62.208 L1096.75 62.208 L1096.75 23.3193 L1103.18 23.3193 L1103.18 29.361 Q1105.47 25.854 1108.56 24.1179 Q1111.68 22.3818 1115.75 22.3818 Q1122.45 22.3818 1125.89 26.5485 Q1129.32 30.6804 1129.32 38.7359 Z" fill="#000000" fill-rule="evenodd" fill-opacity="1" /><path clip-path="url(#clip240)" d="M1166.86 24.4651 L1166.86 30.5068 Q1164.15 29.1179 1161.23 28.4235 Q1158.32 27.729 1155.19 27.729 Q1150.43 27.729 1148.04 29.1873 Q1145.68 30.6457 1145.68 33.5623 Q1145.68 35.7845 1147.38 37.0692 Q1149.08 38.3192 1154.22 39.4651 L1156.41 39.9512 Q1163.21 41.4095 1166.06 44.0831 Q1168.94 46.722 1168.94 51.4789 Q1168.94 56.8955 1164.64 60.0552 Q1160.36 63.2149 1152.86 63.2149 Q1149.74 63.2149 1146.34 62.5899 Q1142.97 61.9997 1139.22 60.7844 L1139.22 54.1872 Q1142.76 56.0275 1146.2 56.965 Q1149.64 57.8677 1153 57.8677 Q1157.52 57.8677 1159.95 56.34 Q1162.38 54.7775 1162.38 51.965 Q1162.38 49.3608 1160.61 47.972 Q1158.87 46.5831 1152.93 45.2984 L1150.71 44.7775 Q1144.77 43.5275 1142.14 40.9581 Q1139.5 38.354 1139.5 33.8401 Q1139.5 28.354 1143.39 25.3679 Q1147.27 22.3818 1154.43 22.3818 Q1157.97 22.3818 1161.09 22.9027 Q1164.22 23.4235 1166.86 24.4651 Z" fill="#000000" fill-rule="evenodd" fill-opacity="1" /><path clip-path="url(#clip240)" d="M1212.38 41.1664 L1212.38 44.2914 L1183 44.2914 Q1183.42 50.8886 1186.96 54.3608 Q1190.54 57.7983 1196.89 57.7983 Q1200.57 57.7983 1204.01 56.8955 Q1207.48 55.9928 1210.89 54.1872 L1210.89 60.2288 Q1207.45 61.6872 1203.84 62.4511 Q1200.23 63.2149 1196.51 63.2149 Q1187.2 63.2149 1181.75 57.7983 Q1176.34 52.3817 1176.34 43.1456 Q1176.34 33.597 1181.48 28.0068 Q1186.65 22.3818 1195.4 22.3818 Q1203.25 22.3818 1207.8 27.4512 Q1212.38 32.4859 1212.38 41.1664 M1205.99 39.2915 Q1205.92 34.0484 1203.04 30.9234 Q1200.19 27.7985 1195.47 27.7985 Q1190.12 27.7985 1186.89 30.8193 Q1183.7 33.8401 1183.21 39.3262 L1205.99 39.2915 Z" fill="#000000" fill-rule="evenodd" fill-opacity="1" /><path clip-path="url(#clip240)" d="M1238.21 8.24996 Q1233.56 16.236 1231.3 24.0485 Q1229.04 31.8609 1229.04 39.8817 Q1229.04 47.9025 1231.3 55.7844 Q1233.59 63.6316 1238.21 71.5829 L1232.66 71.5829 Q1227.45 63.4233 1224.84 55.5414 Q1222.27 47.6595 1222.27 39.8817 Q1222.27 32.1387 1224.84 24.2915 Q1227.41 16.4444 1232.66 8.24996 L1238.21 8.24996 Z" fill="#000000" fill-rule="evenodd" fill-opacity="1" /><path clip-path="url(#clip240)" d="M1257.55 56.3053 L1282.03 56.3053 L1282.03 62.208 L1249.11 62.208 L1249.11 56.3053 Q1253.11 52.1733 1259.98 45.2289 Q1266.89 38.2498 1268.66 36.2359 Q1272.03 32.4512 1273.35 29.8471 Q1274.7 27.2082 1274.7 24.6735 Q1274.7 20.5416 1271.79 17.9374 Q1268.91 15.3333 1264.25 15.3333 Q1260.95 15.3333 1257.27 16.4791 Q1253.63 17.6249 1249.46 19.9513 L1249.46 12.868 Q1253.7 11.1666 1257.38 10.2986 Q1261.06 9.43051 1264.11 9.43051 Q1272.17 9.43051 1276.96 13.4583 Q1281.75 17.486 1281.75 24.2221 Q1281.75 27.4165 1280.54 30.2984 Q1279.36 33.1457 1276.2 37.0345 Q1275.33 38.0415 1270.68 42.8678 Q1266.02 47.6595 1257.55 56.3053 Z" fill="#000000" fill-rule="evenodd" fill-opacity="1" /><path clip-path="url(#clip240)" d="M1297.48 53.3886 L1304.81 53.3886 L1304.81 59.3608 L1299.11 70.4718 L1294.63 70.4718 L1297.48 59.3608 L1297.48 53.3886 Z" fill="#000000" fill-rule="evenodd" fill-opacity="1" /><path clip-path="url(#clip240)" d="M1363.21 34.2568 Q1368.25 35.3331 1371.06 38.7359 Q1373.91 42.1387 1373.91 47.1386 Q1373.91 54.8122 1368.63 59.0136 Q1363.35 63.2149 1353.63 63.2149 Q1350.36 63.2149 1346.89 62.5552 Q1343.45 61.9302 1339.77 60.6455 L1339.77 53.8747 Q1342.69 55.5761 1346.16 56.4441 Q1349.63 57.3122 1353.42 57.3122 Q1360.02 57.3122 1363.45 54.708 Q1366.93 52.1039 1366.93 47.1386 Q1366.93 42.5553 1363.7 39.9859 Q1360.5 37.3817 1354.77 37.3817 L1348.73 37.3817 L1348.73 31.6179 L1355.05 31.6179 Q1360.22 31.6179 1362.97 29.5693 Q1365.71 27.486 1365.71 23.5971 Q1365.71 19.6041 1362.86 17.486 Q1360.05 15.3333 1354.77 15.3333 Q1351.89 15.3333 1348.59 15.9582 Q1345.29 16.5832 1341.34 17.9027 L1341.34 11.6527 Q1345.33 10.5416 1348.8 9.98606 Q1352.31 9.43051 1355.4 9.43051 Q1363.38 9.43051 1368.04 13.0763 Q1372.69 16.6874 1372.69 22.8679 Q1372.69 27.1735 1370.22 30.1596 Q1367.76 33.1109 1363.21 34.2568 Z" fill="#000000" fill-rule="evenodd" fill-opacity="1" /><path clip-path="url(#clip240)" d="M1385.29 8.24996 L1390.85 8.24996 Q1396.06 16.4444 1398.63 24.2915 Q1401.23 32.1387 1401.23 39.8817 Q1401.23 47.6595 1398.63 55.5414 Q1396.06 63.4233 1390.85 71.5829 L1385.29 71.5829 Q1389.91 63.6316 1392.17 55.7844 Q1394.46 47.9025 1394.46 39.8817 Q1394.46 31.8609 1392.17 24.0485 Q1389.91 16.236 1385.29 8.24996 Z" fill="#000000" fill-rule="evenodd" fill-opacity="1" /><polyline clip-path="url(#clip242)" style="stroke:#adadad; stroke-linecap:butt; stroke-linejoin:round; stroke-width:4; stroke-opacity:1; fill:none" points="
  376.603,923.426 2023.4,1045.94 
  "/>
<polyline clip-path="url(#clip242)" style="stroke:#adadad; stroke-linecap:butt; stroke-linejoin:round; stroke-width:4; stroke-opacity:1; fill:none" points="
  376.603,923.426 2023.4,800.912 
  "/>
<polyline clip-path="url(#clip242)" style="stroke:#adadad; stroke-linecap:butt; stroke-linejoin:round; stroke-width:4; stroke-opacity:1; fill:none" points="
  376.603,923.426 2023.4,555.883 
  "/>
<polyline clip-path="url(#clip242)" style="stroke:#adadad; stroke-linecap:butt; stroke-linejoin:round; stroke-width:4; stroke-opacity:1; fill:none" points="
  376.603,678.398 2023.4,1045.94 
  "/>
<polyline clip-path="url(#clip242)" style="stroke:#adadad; stroke-linecap:butt; stroke-linejoin:round; stroke-width:4; stroke-opacity:1; fill:none" points="
  376.603,678.398 2023.4,800.912 
  "/>
<polyline clip-path="url(#clip242)" style="stroke:#adadad; stroke-linecap:butt; stroke-linejoin:round; stroke-width:4; stroke-opacity:1; fill:none" points="
  376.603,678.398 2023.4,555.883 
  "/>
<path clip-path="url(#clip242)" d="
M376.603 964.034 L364.054 962.047 L352.734 956.279 L343.75 947.295 L337.982 935.975 L335.995 923.426 L337.982 910.878 L343.75 899.557 L352.734 890.574 L364.054 884.806 
  L376.603 882.818 L389.151 884.806 L400.472 890.574 L409.455 899.557 L415.223 910.878 L417.211 923.426 L415.223 935.975 L409.455 947.295 L400.472 956.279 L389.151 962.047 
  L376.603 964.034  Z
  " fill="#000000" fill-rule="evenodd" fill-opacity="0"/>
<polyline clip-path="url(#clip242)" style="stroke:#000000; stroke-linecap:butt; stroke-linejoin:round; stroke-width:4; stroke-opacity:1; fill:none" points="
  376.603,964.034 364.054,962.047 352.734,956.279 343.75,947.295 337.982,935.975 335.995,923.426 337.982,910.878 343.75,899.557 352.734,890.574 364.054,884.806 
  376.603,882.818 389.151,884.806 400.472,890.574 409.455,899.557 415.223,910.878 417.211,923.426 415.223,935.975 409.455,947.295 400.472,956.279 389.151,962.047 
  376.603,964.034 
  "/>
<path clip-path="url(#clip242)" d="
M376.603 719.006 L364.054 717.018 L352.734 711.25 L343.75 702.267 L337.982 690.946 L335.995 678.398 L337.982 665.849 L343.75 654.529 L352.734 645.545 L364.054 639.777 
  L376.603 637.79 L389.151 639.777 L400.472 645.545 L409.455 654.529 L415.223 665.849 L417.211 678.398 L415.223 690.946 L409.455 702.267 L400.472 711.25 L389.151 717.018 
  L376.603 719.006  Z
  " fill="#000000" fill-rule="evenodd" fill-opacity="0"/>
<polyline clip-path="url(#clip242)" style="stroke:#000000; stroke-linecap:butt; stroke-linejoin:round; stroke-width:4; stroke-opacity:1; fill:none" points="
  376.603,719.006 364.054,717.018 352.734,711.25 343.75,702.267 337.982,690.946 335.995,678.398 337.982,665.849 343.75,654.529 352.734,645.545 364.054,639.777 
  376.603,637.79 389.151,639.777 400.472,645.545 409.455,654.529 415.223,665.849 417.211,678.398 415.223,690.946 409.455,702.267 400.472,711.25 389.151,717.018 
  376.603,719.006 
  "/>
<circle clip-path="url(#clip242)" cx="2023.4" cy="1045.94" r="43" fill="#90ee90" fill-rule="evenodd" fill-opacity="1" stroke="#000000" stroke-opacity="1" stroke-width="3.2"/>
<circle clip-path="url(#clip242)" cx="2023.4" cy="800.912" r="43" fill="#90ee90" fill-rule="evenodd" fill-opacity="1" stroke="#000000" stroke-opacity="1" stroke-width="3.2"/>
<circle clip-path="url(#clip242)" cx="2023.4" cy="555.883" r="43" fill="#90ee90" fill-rule="evenodd" fill-opacity="1" stroke="#000000" stroke-opacity="1" stroke-width="3.2"/>
<path clip-path="url(#clip242)" d="M415.003 923.426 L357.403 889.826 L357.403 957.026 L415.003 923.426 Z" fill="#ffff00" fill-rule="evenodd" fill-opacity="1" stroke="#000000" stroke-opacity="1" stroke-width="3.2"/>
<path clip-path="url(#clip242)" d="M415.003 678.398 L357.403 644.798 L357.403 711.998 L415.003 678.398 Z" fill="#ffff00" fill-rule="evenodd" fill-opacity="1" stroke="#000000" stroke-opacity="1" stroke-width="3.2"/>
<path clip-path="url(#clip242)" d="M2061.8 1045.94 L2004.2 1012.34 L2004.2 1079.54 L2061.8 1045.94 Z" fill="#ffa500" fill-rule="evenodd" fill-opacity="1" stroke="#000000" stroke-opacity="1" stroke-width="3.2"/>
<path clip-path="url(#clip242)" d="M2061.8 800.912 L2004.2 767.312 L2004.2 834.512 L2061.8 800.912 Z" fill="#ffa500" fill-rule="evenodd" fill-opacity="1" stroke="#000000" stroke-opacity="1" stroke-width="3.2"/>
<path clip-path="url(#clip242)" d="M2061.8 555.883 L2004.2 522.283 L2004.2 589.483 L2061.8 555.883 Z" fill="#ffa500" fill-rule="evenodd" fill-opacity="1" stroke="#000000" stroke-opacity="1" stroke-width="3.2"/>
<path clip-path="url(#clip240)" d="M318.983 445.14 L322.985 443.684 L331.853 468.046 L327.85 469.503 L318.983 445.14 M315.531 435.657 L319.534 434.2 L321.378 439.268 L317.376 440.725 L315.531 435.657 Z" fill="#000000" fill-rule="evenodd" fill-opacity="1" /><path clip-path="url(#clip240)" d="M355.126 442.923 L360.478 457.627 L356.476 459.084 L351.171 444.51 Q349.913 441.051 347.939 439.824 Q345.964 438.596 343.267 439.578 Q340.026 440.758 338.908 443.505 Q337.789 446.252 339.087 449.82 L344.099 463.589 L340.075 465.053 L331.208 440.691 L335.232 439.226 L336.609 443.011 Q337.245 440.292 338.785 438.5 Q340.347 436.699 342.892 435.773 Q347.09 434.245 350.194 436.072 Q353.29 437.876 355.126 442.923 Z" fill="#000000" fill-rule="evenodd" fill-opacity="1" /><path clip-path="url(#clip240)" d="M371.003 449.658 L375.706 462.579 L371.682 464.043 L359.442 430.415 L363.466 428.95 L364.812 432.648 Q365.282 430.013 366.816 428.273 Q368.364 426.502 371.039 425.528 Q375.477 423.913 379.522 426.432 Q383.589 428.942 385.679 434.685 Q387.769 440.427 386.267 444.964 Q384.787 449.494 380.35 451.109 Q377.674 452.083 375.358 451.743 Q373.056 451.374 371.003 449.658 M381.524 436.197 Q379.917 431.781 377.179 429.945 Q374.456 428.079 371.28 429.234 Q368.104 430.39 367.195 433.579 Q366.3 436.737 367.907 441.153 Q369.515 445.569 372.238 447.435 Q374.976 449.271 378.152 448.115 Q381.328 446.959 382.223 443.801 Q383.131 440.612 381.524 436.197 Z" fill="#000000" fill-rule="evenodd" fill-opacity="1" /><path clip-path="url(#clip240)" d="M392.826 434.965 L387.458 420.217 L391.461 418.761 L396.773 433.356 Q398.032 436.815 400.014 438.064 Q401.988 439.292 404.685 438.31 Q407.926 437.13 409.045 434.383 Q410.185 431.628 408.887 428.061 L403.859 414.248 L407.862 412.791 L416.729 437.154 L412.727 438.61 L411.365 434.869 Q410.715 437.618 409.175 439.41 Q407.649 441.173 405.104 442.099 Q400.906 443.627 397.78 441.809 Q394.655 439.99 392.826 434.965 M397.316 415.965 L397.316 415.965 Z" fill="#000000" fill-rule="evenodd" fill-opacity="1" /><path clip-path="url(#clip240)" d="M417.547 401.433 L420.065 408.35 L428.309 405.349 L429.441 408.46 L421.197 411.46 L426.01 424.686 Q427.095 427.666 428.209 428.221 Q429.344 428.768 431.846 427.858 L435.957 426.362 L437.176 429.711 L433.065 431.208 Q428.432 432.894 426.044 431.817 Q423.649 430.718 421.986 426.15 L417.173 412.925 L414.236 413.994 L413.104 410.883 L416.041 409.814 L413.523 402.897 L417.547 401.433 Z" fill="#000000" fill-rule="evenodd" fill-opacity="1" /><path clip-path="url(#clip240)" d="M1897.13 342.512 L1906.32 367.766 L1911.63 365.834 Q1918.35 363.388 1920.35 359.211 Q1922.38 355.025 1919.99 348.456 Q1917.61 341.931 1913.38 340.047 Q1909.16 338.134 1902.44 340.58 L1897.13 342.512 M1891.42 340.501 L1900.45 337.215 Q1909.89 333.779 1915.74 336.109 Q1921.58 338.417 1924.62 346.77 Q1927.68 355.166 1924.67 360.718 Q1921.67 366.271 1912.27 369.691 L1903.24 372.976 L1891.42 340.501 Z" fill="#000000" fill-rule="evenodd" fill-opacity="1" /><path clip-path="url(#clip240)" d="M1953.41 339.788 L1954.13 341.746 L1935.72 348.444 Q1937.49 352.482 1940.5 353.849 Q1943.52 355.187 1947.5 353.738 Q1949.81 352.899 1951.76 351.55 Q1953.73 350.193 1955.45 348.286 L1956.82 352.07 Q1955 353.768 1952.92 355.07 Q1950.83 356.372 1948.5 357.219 Q1942.67 359.341 1938.02 357.19 Q1933.39 355.032 1931.29 349.246 Q1929.11 343.264 1931.05 338.59 Q1933.01 333.887 1938.49 331.892 Q1943.41 330.102 1947.41 332.241 Q1951.43 334.35 1953.41 339.788 M1948.98 340.07 Q1947.74 336.802 1945.23 335.501 Q1942.73 334.192 1939.77 335.269 Q1936.42 336.488 1935.09 339.117 Q1933.78 341.738 1934.72 345.286 L1948.98 340.07 Z" fill="#000000" fill-rule="evenodd" fill-opacity="1" /><path clip-path="url(#clip240)" d="M1979.68 328.504 L1985.03 343.208 L1981.03 344.665 L1975.72 330.091 Q1974.47 326.632 1972.49 325.405 Q1970.52 324.177 1967.82 325.159 Q1964.58 326.339 1963.46 329.086 Q1962.34 331.833 1963.64 335.401 L1968.65 349.17 L1964.63 350.634 L1955.76 326.272 L1959.78 324.807 L1961.16 328.592 Q1961.8 325.873 1963.34 324.081 Q1964.9 322.28 1967.44 321.354 Q1971.64 319.826 1974.75 321.653 Q1977.84 323.457 1979.68 328.504 Z" fill="#000000" fill-rule="evenodd" fill-opacity="1" /><path clip-path="url(#clip240)" d="M1999.94 311.005 L2001.32 314.79 Q1999.3 314.538 1997.32 314.768 Q1995.33 314.998 1993.37 315.71 Q1990.39 316.795 1989.23 318.255 Q1988.08 319.707 1988.74 321.534 Q1989.25 322.926 1990.61 323.343 Q1991.96 323.738 1995.44 323.284 L1996.92 323.09 Q2001.52 322.452 2003.91 323.477 Q2006.32 324.473 2007.4 327.453 Q2008.64 330.847 2006.66 333.808 Q2004.71 336.761 2000.01 338.471 Q1998.05 339.184 1995.78 339.568 Q1993.53 339.966 1990.91 340.06 L1989.4 335.927 Q1992.04 336.272 1994.41 336.076 Q1996.77 335.858 1998.88 335.09 Q2001.7 334.06 2002.88 332.549 Q2004.04 331.016 2003.4 329.254 Q2002.81 327.623 2001.38 327.156 Q1999.98 326.682 1995.97 327.231 L1994.46 327.412 Q1990.45 327.982 1988.21 326.974 Q1985.97 325.945 1984.94 323.117 Q1983.69 319.68 1985.44 316.923 Q1987.2 314.165 1991.68 312.534 Q1993.9 311.727 1995.97 311.341 Q1998.05 310.954 1999.94 311.005 Z" fill="#000000" fill-rule="evenodd" fill-opacity="1" /><path clip-path="url(#clip240)" d="M2032.26 311.089 L2032.98 313.046 L2014.57 319.744 Q2016.34 323.782 2019.35 325.15 Q2022.37 326.488 2026.35 325.039 Q2028.66 324.2 2030.61 322.85 Q2032.58 321.493 2034.3 319.586 L2035.68 323.371 Q2033.85 325.068 2031.77 326.37 Q2029.68 327.672 2027.35 328.519 Q2021.52 330.641 2016.87 328.491 Q2012.24 326.333 2010.14 320.546 Q2007.96 314.565 2009.9 309.891 Q2011.86 305.187 2017.34 303.192 Q2022.26 301.403 2026.27 303.542 Q2030.28 305.651 2032.26 311.089 M2027.83 311.371 Q2026.6 308.102 2024.08 306.802 Q2021.58 305.493 2018.62 306.57 Q2015.27 307.789 2013.94 310.418 Q2012.63 313.039 2013.57 316.586 L2027.83 311.371 Z" fill="#000000" fill-rule="evenodd" fill-opacity="1" /><path clip-path="url(#clip240)" d="M2040.94 284.577 Q2039.85 290.641 2040.22 296.05 Q2040.58 301.459 2042.41 306.484 Q2044.24 311.508 2047.45 315.931 Q2050.68 320.325 2055.38 324.253 L2051.9 325.52 Q2046.78 321.596 2043.35 317.252 Q2039.94 312.9 2038.17 308.027 Q2036.4 303.177 2036.23 297.675 Q2036.05 292.173 2037.46 285.844 L2040.94 284.577 Z" fill="#000000" fill-rule="evenodd" fill-opacity="1" /><path clip-path="url(#clip240)" d="M2064.02 310.272 L2079.35 304.691 L2080.7 308.389 L2060.08 315.894 L2058.73 312.196 Q2060.29 308.697 2063.01 302.779 Q2065.75 296.832 2066.4 295.166 Q2067.65 292.027 2067.88 290.095 Q2068.13 288.133 2067.55 286.545 Q2066.61 283.957 2064.19 282.99 Q2061.79 282.016 2058.87 283.077 Q2056.8 283.829 2054.76 285.386 Q2052.74 286.935 2050.66 289.343 L2049.04 284.905 Q2051.31 282.874 2053.42 281.491 Q2055.52 280.108 2057.44 279.411 Q2062.48 277.574 2066.4 279.005 Q2070.33 280.435 2071.86 284.655 Q2072.59 286.657 2072.49 288.739 Q2072.39 290.792 2071.3 293.949 Q2070.99 294.777 2069.17 298.862 Q2067.35 302.924 2064.02 310.272 Z" fill="#000000" fill-rule="evenodd" fill-opacity="1" /><path clip-path="url(#clip240)" d="M2088.37 299.341 L2092.95 297.67 L2094.32 301.411 L2093.28 309.67 L2090.48 310.692 L2089.73 303.082 L2088.37 299.341 Z" fill="#000000" fill-rule="evenodd" fill-opacity="1" /><path clip-path="url(#clip240)" d="M2125.18 272.368 Q2128.58 271.895 2131.12 273.385 Q2133.68 274.867 2134.82 278 Q2136.57 282.807 2134.22 286.642 Q2131.87 290.478 2125.78 292.694 Q2123.73 293.439 2121.41 293.817 Q2119.11 294.209 2116.51 294.244 L2114.97 290.002 Q2117.18 290.403 2119.56 290.155 Q2121.93 289.907 2124.3 289.044 Q2128.44 287.54 2129.99 285.125 Q2131.58 282.702 2130.44 279.591 Q2129.4 276.72 2126.79 275.846 Q2124.2 274.943 2120.61 276.25 L2116.82 277.627 L2115.51 274.016 L2119.47 272.576 Q2122.71 271.396 2123.96 269.487 Q2125.2 267.556 2124.31 265.12 Q2123.4 262.619 2121.14 261.941 Q2118.89 261.234 2115.58 262.437 Q2113.77 263.094 2111.85 264.238 Q2109.93 265.382 2107.75 267.111 L2106.32 263.195 Q2108.57 261.589 2110.62 260.449 Q2112.69 259.301 2114.62 258.597 Q2119.63 256.776 2123.37 257.999 Q2127.11 259.2 2128.52 263.072 Q2129.5 265.769 2128.64 268.202 Q2127.77 270.613 2125.18 272.368 Z" fill="#000000" fill-rule="evenodd" fill-opacity="1" /><path clip-path="url(#clip240)" d="M2133.08 251.041 L2136.56 249.774 Q2141.7 253.72 2145.09 258.05 Q2148.51 262.372 2150.28 267.223 Q2152.05 272.095 2152.22 277.627 Q2152.41 283.15 2151 289.45 L2147.52 290.716 Q2148.6 284.682 2148.23 279.252 Q2147.87 273.791 2146.04 268.767 Q2144.21 263.742 2140.99 259.37 Q2137.8 254.991 2133.08 251.041 Z" fill="#000000" fill-rule="evenodd" fill-opacity="1" /></svg>
