<?xml version="1.0" encoding="utf-8"?>
<svg xmlns="http://www.w3.org/2000/svg" xmlns:xlink="http://www.w3.org/1999/xlink" width="600" height="400" viewBox="0 0 2400 1600">
<defs>
  <clipPath id="clip690">
    <rect x="0" y="0" width="2400" height="1600"/>
  </clipPath>
</defs>
<path clip-path="url(#clip690)" d="
M0 1600 L2400 1600 L2400 0 L0 0  Z
  " fill="#ffffff" fill-rule="evenodd" fill-opacity="1"/>
<defs>
  <clipPath id="clip691">
    <rect x="480" y="0" width="1681" height="1600"/>
  </clipPath>
</defs>
<path clip-path="url(#clip690)" d="
M47.2441 1388.98 L2352.76 1388.98 L2352.76 114.832 L47.2441 114.832  Z
  " fill="#ffffff" fill-rule="evenodd" fill-opacity="1"/>
<defs>
  <clipPath id="clip692">
    <rect x="47" y="114" width="2307" height="1275"/>
  </clipPath>
</defs>
<polyline clip-path="url(#clip692)" style="stroke:#000000; stroke-linecap:butt; stroke-linejoin:round; stroke-width:2; stroke-opacity:0.1; fill:none" points="
  376.603,1388.98 376.603,114.832 
  "/>
<polyline clip-path="url(#clip692)" style="stroke:#000000; stroke-linecap:butt; stroke-linejoin:round; stroke-width:2; stroke-opacity:0.1; fill:none" points="
  2023.4,1388.98 2023.4,114.832 
  "/>
<path clip-path="url(#clip690)" d="M286.381 1535.06 L288.511 1531.37 L310.963 1544.34 L308.834 1548.02 L286.381 1535.06 M277.641 1530.02 L279.77 1526.33 L284.441 1529.02 L282.312 1532.71 L277.641 1530.02 Z" fill="#000000" fill-rule="evenodd" fill-opacity="1" /><path clip-path="url(#clip690)" d="M312.643 1510.13 L326.195 1517.95 L324.065 1521.64 L310.634 1513.89 Q307.446 1512.05 305.145 1512.38 Q302.844 1512.7 301.409 1515.19 Q299.684 1518.18 300.593 1521 Q301.502 1523.82 304.79 1525.72 L317.479 1533.05 L315.338 1536.76 L292.886 1523.8 L295.027 1520.09 L298.515 1522.1 Q297.254 1519.61 297.282 1517.25 Q297.321 1514.86 298.676 1512.52 Q300.909 1508.65 304.461 1508.05 Q307.992 1507.44 312.643 1510.13 Z" fill="#000000" fill-rule="evenodd" fill-opacity="1" /><path clip-path="url(#clip690)" d="M329.135 1505.08 L341.042 1511.96 L338.901 1515.67 L307.909 1497.77 L310.05 1494.07 L313.458 1496.03 Q312.125 1493.71 312.181 1491.39 Q312.229 1489.04 313.652 1486.58 Q316.013 1482.49 320.731 1481.82 Q325.46 1481.13 330.752 1484.18 Q336.045 1487.24 337.811 1491.68 Q339.588 1496.1 337.227 1500.19 Q335.804 1502.65 333.811 1503.88 Q331.811 1505.08 329.135 1505.08 M328.542 1488.01 Q324.472 1485.66 321.195 1486.01 Q317.909 1486.33 316.219 1489.26 Q314.529 1492.19 315.882 1495.21 Q317.227 1498.21 321.296 1500.56 Q325.366 1502.91 328.652 1502.59 Q331.93 1502.23 333.619 1499.31 Q335.309 1496.38 333.964 1493.39 Q332.611 1490.36 328.542 1488.01 Z" fill="#000000" fill-rule="evenodd" fill-opacity="1" /><path clip-path="url(#clip690)" d="M336.408 1479.8 L322.816 1471.95 L324.946 1468.27 L338.397 1476.03 Q341.585 1477.87 343.906 1477.55 Q346.207 1477.23 347.642 1474.74 Q349.367 1471.75 348.458 1468.93 Q347.56 1466.09 344.273 1464.19 L331.543 1456.84 L333.673 1453.15 L356.125 1466.11 L353.995 1469.8 L350.547 1467.81 Q351.817 1470.33 351.789 1472.7 Q351.753 1475.03 350.399 1477.37 Q348.165 1481.24 344.602 1481.86 Q341.039 1482.47 336.408 1479.8 M327.634 1462.36 L327.634 1462.36 Z" fill="#000000" fill-rule="evenodd" fill-opacity="1" /><path clip-path="url(#clip690)" d="M333.791 1438.22 L340.166 1441.9 L344.552 1434.31 L347.419 1435.96 L343.032 1443.56 L355.221 1450.6 Q357.967 1452.18 359.177 1451.89 Q360.399 1451.58 361.73 1449.28 L363.917 1445.49 L367.005 1447.27 L364.817 1451.06 Q362.352 1455.33 359.831 1456.04 Q357.289 1456.74 353.08 1454.3 L340.891 1447.27 L339.329 1449.97 L336.462 1448.32 L338.024 1445.61 L331.65 1441.93 L333.791 1438.22 Z" fill="#000000" fill-rule="evenodd" fill-opacity="1" /><path clip-path="url(#clip690)" d="M323.288 1554.63 L325.418 1550.94 L356.61 1568.95 L354.481 1572.64 L323.288 1554.63 Z" fill="#000000" fill-rule="evenodd" fill-opacity="1" /><path clip-path="url(#clip690)" d="M355.671 1544.51 Q353.09 1548.99 353.117 1551.3 Q353.144 1553.61 355.61 1555.04 Q357.575 1556.17 359.478 1555.56 Q361.373 1554.92 362.658 1552.69 Q364.428 1549.62 363.328 1546.53 Q362.22 1543.4 358.611 1541.32 L357.789 1540.85 L355.671 1544.51 M358.395 1536.28 L371.205 1543.67 L369.076 1547.36 L365.668 1545.39 Q366.983 1547.84 366.878 1550.29 Q366.752 1552.73 365.178 1555.46 Q363.187 1558.9 360.082 1559.84 Q356.968 1560.74 353.721 1558.86 Q349.932 1556.68 349.466 1553.04 Q349.011 1549.38 351.916 1544.35 L354.902 1539.18 L354.542 1538.97 Q351.996 1537.5 349.64 1538.39 Q347.276 1539.24 345.529 1542.27 Q344.418 1544.19 343.825 1546.28 Q343.233 1548.37 343.183 1550.59 L339.775 1548.62 Q340.162 1546.15 340.881 1544.02 Q341.58 1541.89 342.621 1540.08 Q345.434 1535.21 349.349 1534.26 Q353.263 1533.31 358.395 1536.28 Z" fill="#000000" fill-rule="evenodd" fill-opacity="1" /><path clip-path="url(#clip690)" d="M383.07 1527.94 Q386.177 1531.82 386.543 1534.01 Q386.909 1536.2 385.474 1538.68 L383.773 1541.63 L380.686 1539.85 L381.936 1537.68 Q382.815 1536.16 382.58 1534.9 Q382.344 1533.64 380.248 1531.07 L378.946 1529.43 L351.612 1525.76 L353.868 1521.85 L375.48 1524.97 L361.97 1507.82 L364.227 1503.91 L383.07 1527.94 Z" fill="#000000" fill-rule="evenodd" fill-opacity="1" /><path clip-path="url(#clip690)" d="M388.559 1485.56 L390.363 1486.6 L380.572 1503.56 Q384.519 1505.52 387.705 1504.63 Q390.881 1503.71 392.999 1500.05 Q394.226 1497.92 394.851 1495.63 Q395.487 1493.33 395.579 1490.76 L399.067 1492.78 Q398.763 1495.25 398 1497.59 Q397.238 1499.93 395.999 1502.07 Q392.898 1507.44 387.953 1508.79 Q383.02 1510.11 377.688 1507.03 Q372.175 1503.85 370.66 1499.02 Q369.137 1494.15 372.054 1489.1 Q374.67 1484.57 379.113 1483.64 Q383.547 1482.67 388.559 1485.56 M385.347 1488.62 Q382.297 1486.92 379.532 1487.54 Q376.778 1488.14 375.204 1490.87 Q373.422 1493.95 374.09 1496.83 Q374.769 1499.68 377.774 1501.79 L385.347 1488.62 Z" fill="#000000" fill-rule="evenodd" fill-opacity="1" /><path clip-path="url(#clip690)" d="M392.71 1462.54 Q391.99 1462.95 391.402 1463.6 Q390.805 1464.22 390.295 1465.1 Q388.49 1468.23 389.562 1471.09 Q390.626 1473.92 394.435 1476.12 L406.263 1482.95 L404.122 1486.66 L381.669 1473.7 L383.81 1469.99 L387.299 1472 Q385.925 1469.66 386.019 1467.23 Q386.093 1464.79 387.633 1462.12 Q387.852 1461.74 388.179 1461.31 Q388.485 1460.87 388.909 1460.37 L392.71 1462.54 Z" fill="#000000" fill-rule="evenodd" fill-opacity="1" /><path clip-path="url(#clip690)" d="M1923.57 1557.66 Q1921.86 1560.63 1923.19 1563.7 Q1924.5 1566.75 1928.53 1569.08 Q1932.56 1571.41 1935.87 1571.04 Q1939.17 1570.65 1940.89 1567.66 Q1942.6 1564.72 1941.27 1561.65 Q1939.94 1558.58 1935.93 1556.27 Q1931.94 1553.97 1928.62 1554.35 Q1925.28 1554.72 1923.57 1557.66 M1920.45 1555.86 Q1923.22 1551.05 1927.94 1550.11 Q1932.65 1549.17 1938.18 1552.36 Q1943.7 1555.54 1945.26 1560.11 Q1946.8 1564.66 1944.02 1569.47 Q1941.23 1574.3 1936.52 1575.24 Q1931.8 1576.15 1926.29 1572.97 Q1920.75 1569.77 1919.2 1565.24 Q1917.66 1560.69 1920.45 1555.86 Z" fill="#000000" fill-rule="evenodd" fill-opacity="1" /><path clip-path="url(#clip690)" d="M1943.84 1547.98 L1930.25 1540.13 L1932.38 1536.44 L1945.83 1544.21 Q1949.02 1546.05 1951.34 1545.73 Q1953.64 1545.41 1955.07 1542.92 Q1956.8 1539.93 1955.89 1537.11 Q1954.99 1534.27 1951.7 1532.37 L1938.97 1525.02 L1941.1 1521.33 L1963.56 1534.29 L1961.43 1537.98 L1957.98 1535.99 Q1959.25 1538.51 1959.22 1540.88 Q1959.18 1543.21 1957.83 1545.55 Q1955.6 1549.42 1952.03 1550.04 Q1948.47 1550.65 1943.84 1547.98 M1935.06 1530.54 L1935.06 1530.54 Z" fill="#000000" fill-rule="evenodd" fill-opacity="1" /><path clip-path="url(#clip690)" d="M1941.22 1506.4 L1947.6 1510.08 L1951.98 1502.49 L1954.85 1504.14 L1950.46 1511.74 L1962.65 1518.78 Q1965.4 1520.36 1966.61 1520.07 Q1967.83 1519.76 1969.16 1517.45 L1971.35 1513.67 L1974.44 1515.45 L1972.25 1519.24 Q1969.78 1523.51 1967.26 1524.22 Q1964.72 1524.91 1960.51 1522.48 L1948.32 1515.45 L1946.76 1518.15 L1943.89 1516.5 L1945.46 1513.79 L1939.08 1510.11 L1941.22 1506.4 Z" fill="#000000" fill-rule="evenodd" fill-opacity="1" /><path clip-path="url(#clip690)" d="M1975.93 1505.08 L1987.84 1511.96 L1985.7 1515.67 L1954.7 1497.77 L1956.84 1494.07 L1960.25 1496.03 Q1958.92 1493.71 1958.98 1491.39 Q1959.02 1489.04 1960.45 1486.58 Q1962.81 1482.49 1967.53 1481.82 Q1972.25 1481.13 1977.55 1484.18 Q1982.84 1487.24 1984.6 1491.68 Q1986.38 1496.1 1984.02 1500.19 Q1982.6 1502.65 1980.61 1503.88 Q1978.6 1505.08 1975.93 1505.08 M1975.34 1488.01 Q1971.27 1485.66 1967.99 1486.01 Q1964.7 1486.33 1963.01 1489.26 Q1961.32 1492.19 1962.68 1495.21 Q1964.02 1498.21 1968.09 1500.56 Q1972.16 1502.91 1975.45 1502.59 Q1978.72 1502.23 1980.41 1499.31 Q1982.1 1496.38 1980.76 1493.39 Q1979.41 1490.36 1975.34 1488.01 Z" fill="#000000" fill-rule="evenodd" fill-opacity="1" /><path clip-path="url(#clip690)" d="M1983.2 1479.8 L1969.61 1471.95 L1971.74 1468.27 L1985.19 1476.03 Q1988.38 1477.87 1990.7 1477.55 Q1993 1477.23 1994.44 1474.74 Q1996.16 1471.75 1995.25 1468.93 Q1994.35 1466.09 1991.07 1464.19 L1978.34 1456.84 L1980.47 1453.15 L2002.92 1466.11 L2000.79 1469.8 L1997.34 1467.81 Q1998.61 1470.33 1998.58 1472.7 Q1998.55 1475.03 1997.19 1477.37 Q1994.96 1481.24 1991.4 1481.86 Q1987.83 1482.47 1983.2 1479.8 M1974.43 1462.36 L1974.43 1462.36 Z" fill="#000000" fill-rule="evenodd" fill-opacity="1" /><path clip-path="url(#clip690)" d="M1980.58 1438.22 L1986.96 1441.9 L1991.35 1434.31 L1994.21 1435.96 L1989.83 1443.56 L2002.01 1450.6 Q2004.76 1452.18 2005.97 1451.89 Q2007.19 1451.58 2008.52 1449.28 L2010.71 1445.49 L2013.8 1447.27 L2011.61 1451.06 Q2009.15 1455.33 2006.62 1456.04 Q2004.08 1456.74 1999.87 1454.3 L1987.69 1447.27 L1986.12 1449.97 L1983.26 1448.32 L1984.82 1445.61 L1978.44 1441.93 L1980.58 1438.22 Z" fill="#000000" fill-rule="evenodd" fill-opacity="1" /><path clip-path="url(#clip690)" d="M1953.48 1583.39 L1955.61 1579.7 L1986.8 1597.71 L1984.67 1601.4 L1953.48 1583.39 Z" fill="#000000" fill-rule="evenodd" fill-opacity="1" /><path clip-path="url(#clip690)" d="M1985.86 1573.27 Q1983.28 1577.74 1983.31 1580.06 Q1983.34 1582.37 1985.8 1583.79 Q1987.77 1584.93 1989.67 1584.32 Q1991.56 1583.67 1992.85 1581.45 Q1994.62 1578.38 1993.52 1575.29 Q1992.41 1572.16 1988.8 1570.08 L1987.98 1569.6 L1985.86 1573.27 M1988.59 1565.03 L2001.4 1572.43 L1999.27 1576.12 L1995.86 1574.15 Q1997.17 1576.6 1997.07 1579.05 Q1996.94 1581.49 1995.37 1584.21 Q1993.38 1587.66 1990.27 1588.59 Q1987.16 1589.5 1983.91 1587.62 Q1980.12 1585.43 1979.66 1581.8 Q1979.2 1578.14 1982.11 1573.11 L1985.09 1567.94 L1984.73 1567.73 Q1982.19 1566.26 1979.83 1567.14 Q1977.47 1568 1975.72 1571.02 Q1974.61 1572.95 1974.02 1575.04 Q1973.42 1577.13 1973.37 1579.35 L1969.97 1577.38 Q1970.35 1574.9 1971.07 1572.78 Q1971.77 1570.64 1972.81 1568.84 Q1975.62 1563.97 1979.54 1563.02 Q1983.45 1562.07 1988.59 1565.03 Z" fill="#000000" fill-rule="evenodd" fill-opacity="1" /><path clip-path="url(#clip690)" d="M2013.26 1556.69 Q2016.37 1560.57 2016.73 1562.76 Q2017.1 1564.95 2015.67 1567.44 L2013.96 1570.39 L2010.88 1568.6 L2012.13 1566.44 Q2013.01 1564.91 2012.77 1563.66 Q2012.54 1562.4 2010.44 1559.82 L2009.14 1558.19 L1981.8 1554.52 L1984.06 1550.61 L2005.67 1553.73 L1992.16 1536.57 L1994.42 1532.67 L2013.26 1556.69 Z" fill="#000000" fill-rule="evenodd" fill-opacity="1" /><path clip-path="url(#clip690)" d="M2018.75 1514.32 L2020.55 1515.36 L2010.76 1532.32 Q2014.71 1534.28 2017.9 1533.39 Q2021.07 1532.47 2023.19 1528.8 Q2024.42 1526.68 2025.04 1524.39 Q2025.68 1522.09 2025.77 1519.52 L2029.26 1521.53 Q2028.95 1524 2028.19 1526.34 Q2027.43 1528.68 2026.19 1530.83 Q2023.09 1536.2 2018.14 1537.54 Q2013.21 1538.86 2007.88 1535.79 Q2002.37 1532.6 2000.85 1527.77 Q1999.33 1522.91 2002.25 1517.86 Q2004.86 1513.33 2009.3 1512.39 Q2013.74 1511.42 2018.75 1514.32 M2015.54 1517.38 Q2012.49 1515.67 2009.72 1516.3 Q2006.97 1516.9 2005.4 1519.62 Q2003.61 1522.71 2004.28 1525.58 Q2004.96 1528.43 2007.97 1530.54 L2015.54 1517.38 Z" fill="#000000" fill-rule="evenodd" fill-opacity="1" /><path clip-path="url(#clip690)" d="M2022.9 1491.29 Q2022.18 1491.71 2021.59 1492.36 Q2021 1492.97 2020.49 1493.86 Q2018.68 1496.98 2019.75 1499.85 Q2020.82 1502.68 2024.63 1504.88 L2036.45 1511.71 L2034.31 1515.42 L2011.86 1502.45 L2014 1498.75 L2017.49 1500.76 Q2016.12 1498.42 2016.21 1495.99 Q2016.28 1493.54 2017.82 1490.88 Q2018.04 1490.5 2018.37 1490.07 Q2018.68 1489.63 2019.1 1489.13 L2022.9 1491.29 Z" fill="#000000" fill-rule="evenodd" fill-opacity="1" /><path clip-path="url(#clip690)" d="M844.88 37.9026 Q847.137 38.6665 849.255 41.1664 Q851.408 43.6664 853.561 48.0414 L860.679 62.208 L853.144 62.208 L846.512 48.9095 Q843.943 43.7012 841.512 41.9998 Q839.117 40.2984 834.95 40.2984 L827.311 40.2984 L827.311 62.208 L820.297 62.208 L820.297 10.368 L836.13 10.368 Q845.019 10.368 849.394 14.0833 Q853.769 17.7985 853.769 25.2985 Q853.769 30.1943 851.478 33.4234 Q849.221 36.6526 844.88 37.9026 M827.311 16.1319 L827.311 34.5345 L836.13 34.5345 Q841.2 34.5345 843.769 32.2082 Q846.373 29.8471 846.373 25.2985 Q846.373 20.7499 843.769 18.4582 Q841.2 16.1319 836.13 16.1319 L827.311 16.1319 Z" fill="#000000" fill-rule="evenodd" fill-opacity="1" /><path clip-path="url(#clip690)" d="M899.498 41.1664 L899.498 44.2914 L870.123 44.2914 Q870.54 50.8886 874.082 54.3608 Q877.658 57.7983 884.012 57.7983 Q887.693 57.7983 891.13 56.8955 Q894.602 55.9928 898.005 54.1872 L898.005 60.2288 Q894.568 61.6872 890.957 62.4511 Q887.345 63.2149 883.63 63.2149 Q874.325 63.2149 868.873 57.7983 Q863.457 52.3817 863.457 43.1456 Q863.457 33.597 868.596 28.0068 Q873.769 22.3818 882.519 22.3818 Q890.366 22.3818 894.915 27.4512 Q899.498 32.4859 899.498 41.1664 M893.109 39.2915 Q893.04 34.0484 890.158 30.9234 Q887.311 27.7985 882.589 27.7985 Q877.241 27.7985 874.012 30.8193 Q870.818 33.8401 870.332 39.3262 L893.109 39.2915 Z" fill="#000000" fill-rule="evenodd" fill-opacity="1" /><path clip-path="url(#clip690)" d="M937.97 24.8124 L937.97 30.7846 Q935.262 29.2915 932.519 28.5623 Q929.81 27.7985 927.033 27.7985 Q920.817 27.7985 917.38 31.7568 Q913.943 35.6804 913.943 42.7984 Q913.943 49.9164 917.38 53.8747 Q920.817 57.7983 927.033 57.7983 Q929.81 57.7983 932.519 57.0691 Q935.262 56.3053 937.97 54.8122 L937.97 60.715 Q935.297 61.9649 932.415 62.5899 Q929.567 63.2149 926.338 63.2149 Q917.554 63.2149 912.38 57.6941 Q907.206 52.1733 907.206 42.7984 Q907.206 33.2845 912.415 27.8332 Q917.658 22.3818 926.755 22.3818 Q929.706 22.3818 932.519 23.0068 Q935.331 23.5971 937.97 24.8124 Z" fill="#000000" fill-rule="evenodd" fill-opacity="1" /><path clip-path="url(#clip690)" d="M948.421 46.8609 L948.421 23.3193 L954.81 23.3193 L954.81 46.6178 Q954.81 52.1386 956.963 54.9164 Q959.116 57.6594 963.421 57.6594 Q968.595 57.6594 971.581 54.3608 Q974.602 51.0622 974.602 45.3678 L974.602 23.3193 L980.991 23.3193 L980.991 62.208 L974.602 62.208 L974.602 56.2358 Q972.276 59.7775 969.185 61.5136 Q966.13 63.2149 962.067 63.2149 Q955.366 63.2149 951.894 59.0483 Q948.421 54.8817 948.421 46.8609 M964.498 22.3818 L964.498 22.3818 Z" fill="#000000" fill-rule="evenodd" fill-opacity="1" /><path clip-path="url(#clip690)" d="M1016.69 29.2915 Q1015.61 28.6665 1014.32 28.3887 Q1013.07 28.0762 1011.55 28.0762 Q1006.13 28.0762 1003.21 31.6179 Q1000.33 35.1248 1000.33 41.722 L1000.33 62.208 L993.907 62.208 L993.907 23.3193 L1000.33 23.3193 L1000.33 29.361 Q1002.34 25.8193 1005.57 24.1179 Q1008.8 22.3818 1013.42 22.3818 Q1014.08 22.3818 1014.88 22.486 Q1015.68 22.5554 1016.65 22.729 L1016.69 29.2915 Z" fill="#000000" fill-rule="evenodd" fill-opacity="1" /><path clip-path="url(#clip690)" d="M1038.73 8.24996 Q1034.08 16.236 1031.82 24.0485 Q1029.57 31.8609 1029.57 39.8817 Q1029.57 47.9025 1031.82 55.7844 Q1034.12 63.6316 1038.73 71.5829 L1033.18 71.5829 Q1027.97 63.4233 1025.37 55.5414 Q1022.8 47.6595 1022.8 39.8817 Q1022.8 32.1387 1025.37 24.2915 Q1027.93 16.4444 1033.18 8.24996 L1038.73 8.24996 Z" fill="#000000" fill-rule="evenodd" fill-opacity="1" /><path clip-path="url(#clip690)" d="M1051.41 10.368 L1058.42 10.368 L1058.42 56.3053 L1083.66 56.3053 L1083.66 62.208 L1051.41 62.208 L1051.41 10.368 Z" fill="#000000" fill-rule="evenodd" fill-opacity="1" /><path clip-path="url(#clip690)" d="M1122.1 12.0694 L1122.1 18.9096 Q1118.11 16.9999 1114.57 16.0624 Q1111.02 15.1249 1107.73 15.1249 Q1102 15.1249 1098.87 17.3471 Q1095.78 19.5693 1095.78 23.6665 Q1095.78 27.104 1097.83 28.8748 Q1099.91 30.6109 1105.68 31.6873 L1109.91 32.5554 Q1117.76 34.0484 1121.48 37.8331 Q1125.23 41.5831 1125.23 47.9025 Q1125.23 55.4372 1120.16 59.3261 Q1115.12 63.2149 1105.37 63.2149 Q1101.68 63.2149 1097.52 62.3816 Q1093.39 61.5483 1088.94 59.9163 L1088.94 52.6942 Q1093.21 55.09 1097.31 56.3053 Q1101.41 57.5205 1105.37 57.5205 Q1111.37 57.5205 1114.64 55.1594 Q1117.9 52.7983 1117.9 48.4234 Q1117.9 44.6039 1115.54 42.4512 Q1113.21 40.2984 1107.87 39.222 L1103.59 38.3887 Q1095.75 36.8262 1092.24 33.4929 Q1088.73 30.1596 1088.73 24.2221 Q1088.73 17.3471 1093.56 13.3888 Q1098.42 9.43051 1106.93 9.43051 Q1110.57 9.43051 1114.36 10.0902 Q1118.14 10.7499 1122.1 12.0694 Z" fill="#000000" fill-rule="evenodd" fill-opacity="1" /><path clip-path="url(#clip690)" d="M1128.98 10.368 L1172.83 10.368 L1172.83 16.2707 L1154.43 16.2707 L1154.43 62.208 L1147.38 62.208 L1147.38 16.2707 L1128.98 16.2707 L1128.98 10.368 Z" fill="#000000" fill-rule="evenodd" fill-opacity="1" /><path clip-path="url(#clip690)" d="M1179.6 10.368 L1190.05 10.368 L1203.28 45.6456 L1216.58 10.368 L1227.03 10.368 L1227.03 62.208 L1220.19 62.208 L1220.19 16.6874 L1206.82 52.2428 L1199.77 52.2428 L1186.41 16.6874 L1186.41 62.208 L1179.6 62.208 L1179.6 10.368 Z" fill="#000000" fill-rule="evenodd" fill-opacity="1" /><path clip-path="url(#clip690)" d="M1279.77 14.361 L1279.77 21.7568 Q1276.23 18.4582 1272.2 16.8263 Q1268.21 15.1944 1263.7 15.1944 Q1254.81 15.1944 1250.09 20.6457 Q1245.36 26.0624 1245.36 36.3401 Q1245.36 46.5831 1250.09 52.0344 Q1254.81 57.4511 1263.7 57.4511 Q1268.21 57.4511 1272.2 55.8191 Q1276.23 54.1872 1279.77 50.8886 L1279.77 58.215 Q1276.09 60.715 1271.96 61.9649 Q1267.86 63.2149 1263.28 63.2149 Q1251.51 63.2149 1244.74 56.0275 Q1237.97 48.8053 1237.97 36.3401 Q1237.97 23.8402 1244.74 16.6527 Q1251.51 9.43051 1263.28 9.43051 Q1267.93 9.43051 1272.03 10.6805 Q1276.16 11.8958 1279.77 14.361 Z" fill="#000000" fill-rule="evenodd" fill-opacity="1" /><path clip-path="url(#clip690)" d="M1323.59 41.1664 L1323.59 44.2914 L1294.22 44.2914 Q1294.63 50.8886 1298.18 54.3608 Q1301.75 57.7983 1308.11 57.7983 Q1311.79 57.7983 1315.23 56.8955 Q1318.7 55.9928 1322.1 54.1872 L1322.1 60.2288 Q1318.66 61.6872 1315.05 62.4511 Q1311.44 63.2149 1307.73 63.2149 Q1298.42 63.2149 1292.97 57.7983 Q1287.55 52.3817 1287.55 43.1456 Q1287.55 33.597 1292.69 28.0068 Q1297.86 22.3818 1306.61 22.3818 Q1314.46 22.3818 1319.01 27.4512 Q1323.59 32.4859 1323.59 41.1664 M1317.2 39.2915 Q1317.13 34.0484 1314.25 30.9234 Q1311.41 27.7985 1306.68 27.7985 Q1301.34 27.7985 1298.11 30.8193 Q1294.91 33.8401 1294.43 39.3262 L1317.2 39.2915 Z" fill="#000000" fill-rule="evenodd" fill-opacity="1" /><path clip-path="url(#clip690)" d="M1334.08 8.18051 L1340.47 8.18051 L1340.47 62.208 L1334.08 62.208 L1334.08 8.18051 Z" fill="#000000" fill-rule="evenodd" fill-opacity="1" /><path clip-path="url(#clip690)" d="M1353.84 8.18051 L1360.22 8.18051 L1360.22 62.208 L1353.84 62.208 L1353.84 8.18051 Z" fill="#000000" fill-rule="evenodd" fill-opacity="1" /><path clip-path="url(#clip690)" d="M1388.94 8.24996 Q1384.29 16.236 1382.03 24.0485 Q1379.77 31.8609 1379.77 39.8817 Q1379.77 47.9025 1382.03 55.7844 Q1384.32 63.6316 1388.94 71.5829 L1383.38 71.5829 Q1378.18 63.4233 1375.57 55.5414 Q1373 47.6595 1373 39.8817 Q1373 32.1387 1375.57 24.2915 Q1378.14 16.4444 1383.38 8.24996 L1388.94 8.24996 Z" fill="#000000" fill-rule="evenodd" fill-opacity="1" /><path clip-path="url(#clip690)" d="M1421.51 16.4791 L1403.8 44.1525 L1421.51 44.1525 L1421.51 16.4791 M1419.67 10.368 L1428.49 10.368 L1428.49 44.1525 L1435.88 44.1525 L1435.88 49.9858 L1428.49 49.9858 L1428.49 62.208 L1421.51 62.208 L1421.51 49.9858 L1398.11 49.9858 L1398.11 43.215 L1419.67 10.368 Z" fill="#000000" fill-rule="evenodd" fill-opacity="1" /><path clip-path="url(#clip690)" d="M1448.21 53.3886 L1455.54 53.3886 L1455.54 59.3608 L1449.84 70.4718 L1445.36 70.4718 L1448.21 59.3608 L1448.21 53.3886 Z" fill="#000000" fill-rule="evenodd" fill-opacity="1" /><path clip-path="url(#clip690)" d="M1490.92 10.368 L1524.25 10.368 L1524.25 13.3541 L1505.43 62.208 L1498.11 62.208 L1515.81 16.2707 L1490.92 16.2707 L1490.92 10.368 Z" fill="#000000" fill-rule="evenodd" fill-opacity="1" /><path clip-path="url(#clip690)" d="M1536.02 8.24996 L1541.58 8.24996 Q1546.79 16.4444 1549.36 24.2915 Q1551.96 32.1387 1551.96 39.8817 Q1551.96 47.6595 1549.36 55.5414 Q1546.79 63.4233 1541.58 71.5829 L1536.02 71.5829 Q1540.64 63.6316 1542.9 55.7844 Q1545.19 47.9025 1545.19 39.8817 Q1545.19 31.8609 1542.9 24.0485 Q1540.64 16.236 1536.02 8.24996 Z" fill="#000000" fill-rule="evenodd" fill-opacity="1" /><path clip-path="url(#clip690)" d="M1563.77 8.24996 L1569.32 8.24996 Q1574.53 16.4444 1577.1 24.2915 Q1579.7 32.1387 1579.7 39.8817 Q1579.7 47.6595 1577.1 55.5414 Q1574.53 63.4233 1569.32 71.5829 L1563.77 71.5829 Q1568.38 63.6316 1570.64 55.7844 Q1572.93 47.9025 1572.93 39.8817 Q1572.93 31.8609 1570.64 24.0485 Q1568.38 16.236 1563.77 8.24996 Z" fill="#000000" fill-rule="evenodd" fill-opacity="1" /><polyline clip-path="url(#clip692)" style="stroke:#adadad; stroke-linecap:butt; stroke-linejoin:round; stroke-width:4; stroke-opacity:1; fill:none" points="
  376.603,984.683 2023.4,1168.45 
  "/>
<polyline clip-path="url(#clip692)" style="stroke:#adadad; stroke-linecap:butt; stroke-linejoin:round; stroke-width:4; stroke-opacity:1; fill:none" points="
  376.603,984.683 2023.4,1045.94 
  "/>
<polyline clip-path="url(#clip692)" style="stroke:#adadad; stroke-linecap:butt; stroke-linejoin:round; stroke-width:4; stroke-opacity:1; fill:none" points="
  376.603,984.683 2023.4,923.426 
  "/>
<polyline clip-path="url(#clip692)" style="stroke:#adadad; stroke-linecap:butt; stroke-linejoin:round; stroke-width:4; stroke-opacity:1; fill:none" points="
  376.603,984.683 2023.4,800.912 
  "/>
<polyline clip-path="url(#clip692)" style="stroke:#adadad; stroke-linecap:butt; stroke-linejoin:round; stroke-width:4; stroke-opacity:1; fill:none" points="
  376.603,984.683 2023.4,678.398 
  "/>
<polyline clip-path="url(#clip692)" style="stroke:#adadad; stroke-linecap:butt; stroke-linejoin:round; stroke-width:4; stroke-opacity:1; fill:none" points="
  376.603,984.683 2023.4,555.883 
  "/>
<polyline clip-path="url(#clip692)" style="stroke:#adadad; stroke-linecap:butt; stroke-linejoin:round; stroke-width:4; stroke-opacity:1; fill:none" points="
  376.603,984.683 2023.4,433.369 
  "/>
<polyline clip-path="url(#clip692)" style="stroke:#adadad; stroke-linecap:butt; stroke-linejoin:round; stroke-width:4; stroke-opacity:1; fill:none" points="
  376.603,862.169 2023.4,1168.45 
  "/>
<polyline clip-path="url(#clip692)" style="stroke:#adadad; stroke-linecap:butt; stroke-linejoin:round; stroke-width:4; stroke-opacity:1; fill:none" points="
  376.603,862.169 2023.4,1045.94 
  "/>
<polyline clip-path="url(#clip692)" style="stroke:#adadad; stroke-linecap:butt; stroke-linejoin:round; stroke-width:4; stroke-opacity:1; fill:none" points="
  376.603,862.169 2023.4,923.426 
  "/>
<polyline clip-path="url(#clip692)" style="stroke:#adadad; stroke-linecap:butt; stroke-linejoin:round; stroke-width:4; stroke-opacity:1; fill:none" points="
  376.603,862.169 2023.4,800.912 
  "/>
<polyline clip-path="url(#clip692)" style="stroke:#adadad; stroke-linecap:butt; stroke-linejoin:round; stroke-width:4; stroke-opacity:1; fill:none" points="
  376.603,862.169 2023.4,678.398 
  "/>
<polyline clip-path="url(#clip692)" style="stroke:#adadad; stroke-linecap:butt; stroke-linejoin:round; stroke-width:4; stroke-opacity:1; fill:none" points="
  376.603,862.169 2023.4,555.883 
  "/>
<polyline clip-path="url(#clip692)" style="stroke:#adadad; stroke-linecap:butt; stroke-linejoin:round; stroke-width:4; stroke-opacity:1; fill:none" points="
  376.603,862.169 2023.4,433.369 
  "/>
<polyline clip-path="url(#clip692)" style="stroke:#adadad; stroke-linecap:butt; stroke-linejoin:round; stroke-width:4; stroke-opacity:1; fill:none" points="
  376.603,739.655 2023.4,1168.45 
  "/>
<polyline clip-path="url(#clip692)" style="stroke:#adadad; stroke-linecap:butt; stroke-linejoin:round; stroke-width:4; stroke-opacity:1; fill:none" points="
  376.603,739.655 2023.4,1045.94 
  "/>
<polyline clip-path="url(#clip692)" style="stroke:#adadad; stroke-linecap:butt; stroke-linejoin:round; stroke-width:4; stroke-opacity:1; fill:none" points="
  376.603,739.655 2023.4,923.426 
  "/>
<polyline clip-path="url(#clip692)" style="stroke:#adadad; stroke-linecap:butt; stroke-linejoin:round; stroke-width:4; stroke-opacity:1; fill:none" points="
  376.603,739.655 2023.4,800.912 
  "/>
<polyline clip-path="url(#clip692)" style="stroke:#adadad; stroke-linecap:butt; stroke-linejoin:round; stroke-width:4; stroke-opacity:1; fill:none" points="
  376.603,739.655 2023.4,678.398 
  "/>
<polyline clip-path="url(#clip692)" style="stroke:#adadad; stroke-linecap:butt; stroke-linejoin:round; stroke-width:4; stroke-opacity:1; fill:none" points="
  376.603,739.655 2023.4,555.883 
  "/>
<polyline clip-path="url(#clip692)" style="stroke:#adadad; stroke-linecap:butt; stroke-linejoin:round; stroke-width:4; stroke-opacity:1; fill:none" points="
  376.603,739.655 2023.4,433.369 
  "/>
<polyline clip-path="url(#clip692)" style="stroke:#adadad; stroke-linecap:butt; stroke-linejoin:round; stroke-width:4; stroke-opacity:1; fill:none" points="
  376.603,617.141 2023.4,1168.45 
  "/>
<polyline clip-path="url(#clip692)" style="stroke:#adadad; stroke-linecap:butt; stroke-linejoin:round; stroke-width:4; stroke-opacity:1; fill:none" points="
  376.603,617.141 2023.4,1045.94 
  "/>
<polyline clip-path="url(#clip692)" style="stroke:#adadad; stroke-linecap:butt; stroke-linejoin:round; stroke-width:4; stroke-opacity:1; fill:none" points="
  376.603,617.141 2023.4,923.426 
  "/>
<polyline clip-path="url(#clip692)" style="stroke:#adadad; stroke-linecap:butt; stroke-linejoin:round; stroke-width:4; stroke-opacity:1; fill:none" points="
  376.603,617.141 2023.4,800.912 
  "/>
<polyline clip-path="url(#clip692)" style="stroke:#adadad; stroke-linecap:butt; stroke-linejoin:round; stroke-width:4; stroke-opacity:1; fill:none" points="
  376.603,617.141 2023.4,678.398 
  "/>
<polyline clip-path="url(#clip692)" style="stroke:#adadad; stroke-linecap:butt; stroke-linejoin:round; stroke-width:4; stroke-opacity:1; fill:none" points="
  376.603,617.141 2023.4,555.883 
  "/>
<polyline clip-path="url(#clip692)" style="stroke:#adadad; stroke-linecap:butt; stroke-linejoin:round; stroke-width:4; stroke-opacity:1; fill:none" points="
  376.603,617.141 2023.4,433.369 
  "/>
<path clip-path="url(#clip692)" d="
M376.603 1025.29 L364.054 1023.3 L352.734 1017.54 L343.75 1008.55 L337.982 997.232 L335.995 984.683 L337.982 972.135 L343.75 960.815 L352.734 951.831 L364.054 946.063 
  L376.603 944.075 L389.151 946.063 L400.472 951.831 L409.455 960.815 L415.223 972.135 L417.211 984.683 L415.223 997.232 L409.455 1008.55 L400.472 1017.54 L389.151 1023.3 
  L376.603 1025.29  Z
  " fill="#000000" fill-rule="evenodd" fill-opacity="0"/>
<polyline clip-path="url(#clip692)" style="stroke:#000000; stroke-linecap:butt; stroke-linejoin:round; stroke-width:4; stroke-opacity:1; fill:none" points="
  376.603,1025.29 364.054,1023.3 352.734,1017.54 343.75,1008.55 337.982,997.232 335.995,984.683 337.982,972.135 343.75,960.815 352.734,951.831 364.054,946.063 
  376.603,944.075 389.151,946.063 400.472,951.831 409.455,960.815 415.223,972.135 417.211,984.683 415.223,997.232 409.455,1008.55 400.472,1017.54 389.151,1023.3 
  376.603,1025.29 
  "/>
<path clip-path="url(#clip692)" d="
M376.603 902.777 L364.054 900.79 L352.734 895.022 L343.75 886.038 L337.982 874.718 L335.995 862.169 L337.982 849.621 L343.75 838.3 L352.734 829.317 L364.054 823.549 
  L376.603 821.561 L389.151 823.549 L400.472 829.317 L409.455 838.3 L415.223 849.621 L417.211 862.169 L415.223 874.718 L409.455 886.038 L400.472 895.022 L389.151 900.79 
  L376.603 902.777  Z
  " fill="#000000" fill-rule="evenodd" fill-opacity="0"/>
<polyline clip-path="url(#clip692)" style="stroke:#000000; stroke-linecap:butt; stroke-linejoin:round; stroke-width:4; stroke-opacity:1; fill:none" points="
  376.603,902.777 364.054,900.79 352.734,895.022 343.75,886.038 337.982,874.718 335.995,862.169 337.982,849.621 343.75,838.3 352.734,829.317 364.054,823.549 
  376.603,821.561 389.151,823.549 400.472,829.317 409.455,838.3 415.223,849.621 417.211,862.169 415.223,874.718 409.455,886.038 400.472,895.022 389.151,900.79 
  376.603,902.777 
  "/>
<path clip-path="url(#clip692)" d="
M376.603 780.263 L364.054 778.275 L352.734 772.507 L343.75 763.524 L337.982 752.203 L335.995 739.655 L337.982 727.106 L343.75 715.786 L352.734 706.802 L364.054 701.034 
  L376.603 699.047 L389.151 701.034 L400.472 706.802 L409.455 715.786 L415.223 727.106 L417.211 739.655 L415.223 752.203 L409.455 763.524 L400.472 772.507 L389.151 778.275 
  L376.603 780.263  Z
  " fill="#000000" fill-rule="evenodd" fill-opacity="0"/>
<polyline clip-path="url(#clip692)" style="stroke:#000000; stroke-linecap:butt; stroke-linejoin:round; stroke-width:4; stroke-opacity:1; fill:none" points="
  376.603,780.263 364.054,778.275 352.734,772.507 343.75,763.524 337.982,752.203 335.995,739.655 337.982,727.106 343.75,715.786 352.734,706.802 364.054,701.034 
  376.603,699.047 389.151,701.034 400.472,706.802 409.455,715.786 415.223,727.106 417.211,739.655 415.223,752.203 409.455,763.524 400.472,772.507 389.151,778.275 
  376.603,780.263 
  "/>
<path clip-path="url(#clip692)" d="
M376.603 657.749 L364.054 655.761 L352.734 649.993 L343.75 641.009 L337.982 629.689 L335.995 617.141 L337.982 604.592 L343.75 593.272 L352.734 584.288 L364.054 578.52 
  L376.603 576.533 L389.151 578.52 L400.472 584.288 L409.455 593.272 L415.223 604.592 L417.211 617.141 L415.223 629.689 L409.455 641.009 L400.472 649.993 L389.151 655.761 
  L376.603 657.749  Z
  " fill="#000000" fill-rule="evenodd" fill-opacity="0"/>
<polyline clip-path="url(#clip692)" style="stroke:#000000; stroke-linecap:butt; stroke-linejoin:round; stroke-width:4; stroke-opacity:1; fill:none" points="
  376.603,657.749 364.054,655.761 352.734,649.993 343.75,641.009 337.982,629.689 335.995,617.141 337.982,604.592 343.75,593.272 352.734,584.288 364.054,578.52 
  376.603,576.533 389.151,578.52 400.472,584.288 409.455,593.272 415.223,604.592 417.211,617.141 415.223,629.689 409.455,641.009 400.472,649.993 389.151,655.761 
  376.603,657.749 
  "/>
<path clip-path="url(#clip692)" d="
M2023.4 1162.69 L2014.5 1161.29 L2006.47 1157.19 L2000.1 1150.82 L1996.01 1142.79 L1994.6 1133.89 L1996.01 1125 L2000.1 1116.97 L2006.47 1110.6 L2014.5 1106.5 
  L2023.4 1105.09 L2032.3 1106.5 L2040.33 1110.6 L2046.7 1116.97 L2050.79 1125 L2052.2 1133.89 L2050.79 1142.79 L2046.7 1150.82 L2040.33 1157.19 L2032.3 1161.29 
  L2023.4 1162.69 L2023.4 1174.21 L2010.94 1172.24 L1999.7 1166.51 L1990.78 1157.59 L1985.05 1146.35 L1983.08 1133.89 L1985.05 1121.44 L1990.78 1110.2 L1999.7 1101.28 
  L2010.94 1095.55 L2023.4 1093.57 L2035.86 1095.55 L2047.1 1101.28 L2056.02 1110.2 L2061.74 1121.44 L2063.72 1133.89 L2061.74 1146.35 L2056.02 1157.59 L2047.1 1166.51 
  L2035.86 1172.24 L2023.4 1174.21  Z
  " fill="#000000" fill-rule="evenodd" fill-opacity="0"/>
<polyline clip-path="url(#clip692)" style="stroke:#000000; stroke-linecap:butt; stroke-linejoin:round; stroke-width:4; stroke-opacity:1; fill:none" points="
  2023.4,1162.69 2014.5,1161.29 2006.47,1157.19 2000.1,1150.82 1996.01,1142.79 1994.6,1133.89 1996.01,1125 2000.1,1116.97 2006.47,1110.6 2014.5,1106.5 
  2023.4,1105.09 2032.3,1106.5 2040.33,1110.6 2046.7,1116.97 2050.79,1125 2052.2,1133.89 2050.79,1142.79 2046.7,1150.82 2040.33,1157.19 2032.3,1161.29 
  2023.4,1162.69 2023.4,1174.21 2010.94,1172.24 1999.7,1166.51 1990.78,1157.59 1985.05,1146.35 1983.08,1133.89 1985.05,1121.44 1990.78,1110.2 1999.7,1101.28 
  2010.94,1095.55 2023.4,1093.57 2035.86,1095.55 2047.1,1101.28 2056.02,1110.2 2061.74,1121.44 2063.72,1133.89 2061.74,1146.35 2056.02,1157.59 2047.1,1166.51 
  2035.86,1172.24 2023.4,1174.21 
  "/>
<path clip-path="url(#clip692)" d="
M2023.4 1040.18 L2014.5 1038.77 L2006.47 1034.68 L2000.1 1028.31 L1996.01 1020.28 L1994.6 1011.38 L1996.01 1002.48 L2000.1 994.452 L2006.47 988.081 L2014.5 983.99 
  L2023.4 982.581 L2032.3 983.99 L2040.33 988.081 L2046.7 994.452 L2050.79 1002.48 L2052.2 1011.38 L2050.79 1020.28 L2046.7 1028.31 L2040.33 1034.68 L2032.3 1038.77 
  L2023.4 1040.18 L2023.4 1051.7 L2010.94 1049.73 L1999.7 1044 L1990.78 1035.08 L1985.05 1023.84 L1983.08 1011.38 L1985.05 998.921 L1990.78 987.681 L1999.7 978.761 
  L2010.94 973.034 L2023.4 971.061 L2035.86 973.034 L2047.1 978.761 L2056.02 987.681 L2061.74 998.921 L2063.72 1011.38 L2061.74 1023.84 L2056.02 1035.08 L2047.1 1044 
  L2035.86 1049.73 L2023.4 1051.7  Z
  " fill="#000000" fill-rule="evenodd" fill-opacity="0"/>
<polyline clip-path="url(#clip692)" style="stroke:#000000; stroke-linecap:butt; stroke-linejoin:round; stroke-width:4; stroke-opacity:1; fill:none" points="
  2023.4,1040.18 2014.5,1038.77 2006.47,1034.68 2000.1,1028.31 1996.01,1020.28 1994.6,1011.38 1996.01,1002.48 2000.1,994.452 2006.47,988.081 2014.5,983.99 
  2023.4,982.581 2032.3,983.99 2040.33,988.081 2046.7,994.452 2050.79,1002.48 2052.2,1011.38 2050.79,1020.28 2046.7,1028.31 2040.33,1034.68 2032.3,1038.77 
  2023.4,1040.18 2023.4,1051.7 2010.94,1049.73 1999.7,1044 1990.78,1035.08 1985.05,1023.84 1983.08,1011.38 1985.05,998.921 1990.78,987.681 1999.7,978.761 
  2010.94,973.034 2023.4,971.061 2035.86,973.034 2047.1,978.761 2056.02,987.681 2061.74,998.921 2063.72,1011.38 2061.74,1023.84 2056.02,1035.08 2047.1,1044 
  2035.86,1049.73 2023.4,1051.7 
  "/>
<path clip-path="url(#clip692)" d="
M2023.4 917.666 L2014.5 916.257 L2006.47 912.166 L2000.1 905.794 L1996.01 897.766 L1994.6 888.866 L1996.01 879.967 L2000.1 871.938 L2006.47 865.567 L2014.5 861.476 
  L2023.4 860.066 L2032.3 861.476 L2040.33 865.567 L2046.7 871.938 L2050.79 879.967 L2052.2 888.866 L2050.79 897.766 L2046.7 905.794 L2040.33 912.166 L2032.3 916.257 
  L2023.4 917.666 L2023.4 929.186 L2010.94 927.213 L1999.7 921.486 L1990.78 912.566 L1985.05 901.326 L1983.08 888.866 L1985.05 876.407 L1990.78 865.167 L1999.7 856.247 
  L2010.94 850.52 L2023.4 848.546 L2035.86 850.52 L2047.1 856.247 L2056.02 865.167 L2061.74 876.407 L2063.72 888.866 L2061.74 901.326 L2056.02 912.566 L2047.1 921.486 
  L2035.86 927.213 L2023.4 929.186  Z
  " fill="#000000" fill-rule="evenodd" fill-opacity="0"/>
<polyline clip-path="url(#clip692)" style="stroke:#000000; stroke-linecap:butt; stroke-linejoin:round; stroke-width:4; stroke-opacity:1; fill:none" points="
  2023.4,917.666 2014.5,916.257 2006.47,912.166 2000.1,905.794 1996.01,897.766 1994.6,888.866 1996.01,879.967 2000.1,871.938 2006.47,865.567 2014.5,861.476 
  2023.4,860.066 2032.3,861.476 2040.33,865.567 2046.7,871.938 2050.79,879.967 2052.2,888.866 2050.79,897.766 2046.7,905.794 2040.33,912.166 2032.3,916.257 
  2023.4,917.666 2023.4,929.186 2010.94,927.213 1999.7,921.486 1990.78,912.566 1985.05,901.326 1983.08,888.866 1985.05,876.407 1990.78,865.167 1999.7,856.247 
  2010.94,850.52 2023.4,848.546 2035.86,850.52 2047.1,856.247 2056.02,865.167 2061.74,876.407 2063.72,888.866 2061.74,901.326 2056.02,912.566 2047.1,921.486 
  2035.86,927.213 2023.4,929.186 
  "/>
<path clip-path="url(#clip692)" d="
M2023.4 795.152 L2014.5 793.742 L2006.47 789.652 L2000.1 783.28 L1996.01 775.252 L1994.6 766.352 L1996.01 757.452 L2000.1 749.424 L2006.47 743.052 L2014.5 738.962 
  L2023.4 737.552 L2032.3 738.962 L2040.33 743.052 L2046.7 749.424 L2050.79 757.452 L2052.2 766.352 L2050.79 775.252 L2046.7 783.28 L2040.33 789.652 L2032.3 793.742 
  L2023.4 795.152 L2023.4 806.672 L2010.94 804.699 L1999.7 798.972 L1990.78 790.051 L1985.05 778.812 L1983.08 766.352 L1985.05 753.892 L1990.78 742.652 L1999.7 733.732 
  L2010.94 728.005 L2023.4 726.032 L2035.86 728.005 L2047.1 733.732 L2056.02 742.652 L2061.74 753.892 L2063.72 766.352 L2061.74 778.812 L2056.02 790.051 L2047.1 798.972 
  L2035.86 804.699 L2023.4 806.672  Z
  " fill="#000000" fill-rule="evenodd" fill-opacity="0"/>
<polyline clip-path="url(#clip692)" style="stroke:#000000; stroke-linecap:butt; stroke-linejoin:round; stroke-width:4; stroke-opacity:1; fill:none" points="
  2023.4,795.152 2014.5,793.742 2006.47,789.652 2000.1,783.28 1996.01,775.252 1994.6,766.352 1996.01,757.452 2000.1,749.424 2006.47,743.052 2014.5,738.962 
  2023.4,737.552 2032.3,738.962 2040.33,743.052 2046.7,749.424 2050.79,757.452 2052.2,766.352 2050.79,775.252 2046.7,783.28 2040.33,789.652 2032.3,793.742 
  2023.4,795.152 2023.4,806.672 2010.94,804.699 1999.7,798.972 1990.78,790.051 1985.05,778.812 1983.08,766.352 1985.05,753.892 1990.78,742.652 1999.7,733.732 
  2010.94,728.005 2023.4,726.032 2035.86,728.005 2047.1,733.732 2056.02,742.652 2061.74,753.892 2063.72,766.352 2061.74,778.812 2056.02,790.051 2047.1,798.972 
  2035.86,804.699 2023.4,806.672 
  "/>
<path clip-path="url(#clip692)" d="
M2023.4 672.638 L2014.5 671.228 L2006.47 667.137 L2000.1 660.766 L1996.01 652.737 L1994.6 643.838 L1996.01 634.938 L2000.1 626.91 L2006.47 620.538 L2014.5 616.447 
  L2023.4 615.038 L2032.3 616.447 L2040.33 620.538 L2046.7 626.91 L2050.79 634.938 L2052.2 643.838 L2050.79 652.737 L2046.7 660.766 L2040.33 667.137 L2032.3 671.228 
  L2023.4 672.638 L2023.4 684.158 L2010.94 682.184 L1999.7 676.457 L1990.78 667.537 L1985.05 656.297 L1983.08 643.838 L1985.05 631.378 L1990.78 620.138 L1999.7 611.218 
  L2010.94 605.491 L2023.4 603.518 L2035.86 605.491 L2047.1 611.218 L2056.02 620.138 L2061.74 631.378 L2063.72 643.838 L2061.74 656.297 L2056.02 667.537 L2047.1 676.457 
  L2035.86 682.184 L2023.4 684.158  Z
  " fill="#000000" fill-rule="evenodd" fill-opacity="0"/>
<polyline clip-path="url(#clip692)" style="stroke:#000000; stroke-linecap:butt; stroke-linejoin:round; stroke-width:4; stroke-opacity:1; fill:none" points="
  2023.4,672.638 2014.5,671.228 2006.47,667.137 2000.1,660.766 1996.01,652.737 1994.6,643.838 1996.01,634.938 2000.1,626.91 2006.47,620.538 2014.5,616.447 
  2023.4,615.038 2032.3,616.447 2040.33,620.538 2046.7,626.91 2050.79,634.938 2052.2,643.838 2050.79,652.737 2046.7,660.766 2040.33,667.137 2032.3,671.228 
  2023.4,672.638 2023.4,684.158 2010.94,682.184 1999.7,676.457 1990.78,667.537 1985.05,656.297 1983.08,643.838 1985.05,631.378 1990.78,620.138 1999.7,611.218 
  2010.94,605.491 2023.4,603.518 2035.86,605.491 2047.1,611.218 2056.02,620.138 2061.74,631.378 2063.72,643.838 2061.74,656.297 2056.02,667.537 2047.1,676.457 
  2035.86,682.184 2023.4,684.158 
  "/>
<path clip-path="url(#clip692)" d="
M2023.4 550.123 L2014.5 548.714 L2006.47 544.623 L2000.1 538.252 L1996.01 530.223 L1994.6 521.323 L1996.01 512.424 L2000.1 504.395 L2006.47 498.024 L2014.5 493.933 
  L2023.4 492.523 L2032.3 493.933 L2040.33 498.024 L2046.7 504.395 L2050.79 512.424 L2052.2 521.323 L2050.79 530.223 L2046.7 538.252 L2040.33 544.623 L2032.3 548.714 
  L2023.4 550.123 L2023.4 561.643 L2010.94 559.67 L1999.7 553.943 L1990.78 545.023 L1985.05 533.783 L1983.08 521.323 L1985.05 508.864 L1990.78 497.624 L1999.7 488.704 
  L2010.94 482.977 L2023.4 481.003 L2035.86 482.977 L2047.1 488.704 L2056.02 497.624 L2061.74 508.864 L2063.72 521.323 L2061.74 533.783 L2056.02 545.023 L2047.1 553.943 
  L2035.86 559.67 L2023.4 561.643  Z
  " fill="#000000" fill-rule="evenodd" fill-opacity="0"/>
<polyline clip-path="url(#clip692)" style="stroke:#000000; stroke-linecap:butt; stroke-linejoin:round; stroke-width:4; stroke-opacity:1; fill:none" points="
  2023.4,550.123 2014.5,548.714 2006.47,544.623 2000.1,538.252 1996.01,530.223 1994.6,521.323 1996.01,512.424 2000.1,504.395 2006.47,498.024 2014.5,493.933 
  2023.4,492.523 2032.3,493.933 2040.33,498.024 2046.7,504.395 2050.79,512.424 2052.2,521.323 2050.79,530.223 2046.7,538.252 2040.33,544.623 2032.3,548.714 
  2023.4,550.123 2023.4,561.643 2010.94,559.67 1999.7,553.943 1990.78,545.023 1985.05,533.783 1983.08,521.323 1985.05,508.864 1990.78,497.624 1999.7,488.704 
  2010.94,482.977 2023.4,481.003 2035.86,482.977 2047.1,488.704 2056.02,497.624 2061.74,508.864 2063.72,521.323 2061.74,533.783 2056.02,545.023 2047.1,553.943 
  2035.86,559.67 2023.4,561.643 
  "/>
<path clip-path="url(#clip692)" d="
M2023.4 427.609 L2014.5 426.2 L2006.47 422.109 L2000.1 415.737 L1996.01 407.709 L1994.6 398.809 L1996.01 389.91 L2000.1 381.881 L2006.47 375.51 L2014.5 371.419 
  L2023.4 370.009 L2032.3 371.419 L2040.33 375.51 L2046.7 381.881 L2050.79 389.91 L2052.2 398.809 L2050.79 407.709 L2046.7 415.737 L2040.33 422.109 L2032.3 426.2 
  L2023.4 427.609 L2023.4 439.129 L2010.94 437.156 L1999.7 431.429 L1990.78 422.509 L1985.05 411.269 L1983.08 398.809 L1985.05 386.35 L1990.78 375.11 L1999.7 366.19 
  L2010.94 360.463 L2023.4 358.489 L2035.86 360.463 L2047.1 366.19 L2056.02 375.11 L2061.74 386.35 L2063.72 398.809 L2061.74 411.269 L2056.02 422.509 L2047.1 431.429 
  L2035.86 437.156 L2023.4 439.129  Z
  " fill="#000000" fill-rule="evenodd" fill-opacity="0"/>
<polyline clip-path="url(#clip692)" style="stroke:#000000; stroke-linecap:butt; stroke-linejoin:round; stroke-width:4; stroke-opacity:1; fill:none" points="
  2023.4,427.609 2014.5,426.2 2006.47,422.109 2000.1,415.737 1996.01,407.709 1994.6,398.809 1996.01,389.91 2000.1,381.881 2006.47,375.51 2014.5,371.419 
  2023.4,370.009 2032.3,371.419 2040.33,375.51 2046.7,381.881 2050.79,389.91 2052.2,398.809 2050.79,407.709 2046.7,415.737 2040.33,422.109 2032.3,426.2 
  2023.4,427.609 2023.4,439.129 2010.94,437.156 1999.7,431.429 1990.78,422.509 1985.05,411.269 1983.08,398.809 1985.05,386.35 1990.78,375.11 1999.7,366.19 
  2010.94,360.463 2023.4,358.489 2035.86,360.463 2047.1,366.19 2056.02,375.11 2061.74,386.35 2063.72,398.809 2061.74,411.269 2056.02,422.509 2047.1,431.429 
  2035.86,437.156 2023.4,439.129 
  "/>
<path clip-path="url(#clip692)" d="M415.003 984.683 L357.403 951.083 L357.403 1018.28 L415.003 984.683 Z" fill="#ffff00" fill-rule="evenodd" fill-opacity="1" stroke="#000000" stroke-opacity="1" stroke-width="3.2"/>
<path clip-path="url(#clip692)" d="M415.003 862.169 L357.403 828.569 L357.403 895.769 L415.003 862.169 Z" fill="#ffff00" fill-rule="evenodd" fill-opacity="1" stroke="#000000" stroke-opacity="1" stroke-width="3.2"/>
<path clip-path="url(#clip692)" d="M415.003 739.655 L357.403 706.055 L357.403 773.255 L415.003 739.655 Z" fill="#ffff00" fill-rule="evenodd" fill-opacity="1" stroke="#000000" stroke-opacity="1" stroke-width="3.2"/>
<path clip-path="url(#clip692)" d="M415.003 617.141 L357.403 583.541 L357.403 650.741 L415.003 617.141 Z" fill="#ffff00" fill-rule="evenodd" fill-opacity="1" stroke="#000000" stroke-opacity="1" stroke-width="3.2"/>
<circle clip-path="url(#clip692)" cx="2023.4" cy="1168.45" r="43" fill="#7ec0ee" fill-rule="evenodd" fill-opacity="1" stroke="#000000" stroke-opacity="1" stroke-width="3.2"/>
<circle clip-path="url(#clip692)" cx="2023.4" cy="1045.94" r="43" fill="#7ec0ee" fill-rule="evenodd" fill-opacity="1" stroke="#000000" stroke-opacity="1" stroke-width="3.2"/>
<circle clip-path="url(#clip692)" cx="2023.4" cy="923.426" r="43" fill="#7ec0ee" fill-rule="evenodd" fill-opacity="1" stroke="#000000" stroke-opacity="1" stroke-width="3.2"/>
<circle clip-path="url(#clip692)" cx="2023.4" cy="800.912" r="43" fill="#7ec0ee" fill-rule="evenodd" fill-opacity="1" stroke="#000000" stroke-opacity="1" stroke-width="3.2"/>
<circle clip-path="url(#clip692)" cx="2023.4" cy="678.398" r="43" fill="#7ec0ee" fill-rule="evenodd" fill-opacity="1" stroke="#000000" stroke-opacity="1" stroke-width="3.2"/>
<circle clip-path="url(#clip692)" cx="2023.4" cy="555.883" r="43" fill="#7ec0ee" fill-rule="evenodd" fill-opacity="1" stroke="#000000" stroke-opacity="1" stroke-width="3.2"/>
<circle clip-path="url(#clip692)" cx="2023.4" cy="433.369" r="43" fill="#7ec0ee" fill-rule="evenodd" fill-opacity="1" stroke="#000000" stroke-opacity="1" stroke-width="3.2"/>
<path clip-path="url(#clip692)" d="M2061.8 1168.45 L2004.2 1134.85 L2004.2 1202.05 L2061.8 1168.45 Z" fill="#ffa500" fill-rule="evenodd" fill-opacity="1" stroke="#000000" stroke-opacity="1" stroke-width="3.2"/>
<path clip-path="url(#clip692)" d="M2061.8 1045.94 L2004.2 1012.34 L2004.2 1079.54 L2061.8 1045.94 Z" fill="#ffa500" fill-rule="evenodd" fill-opacity="1" stroke="#000000" stroke-opacity="1" stroke-width="3.2"/>
<path clip-path="url(#clip692)" d="M2061.8 923.426 L2004.2 889.826 L2004.2 957.026 L2061.8 923.426 Z" fill="#ffa500" fill-rule="evenodd" fill-opacity="1" stroke="#000000" stroke-opacity="1" stroke-width="3.2"/>
<path clip-path="url(#clip692)" d="M2061.8 800.912 L2004.2 767.312 L2004.2 834.512 L2061.8 800.912 Z" fill="#ffa500" fill-rule="evenodd" fill-opacity="1" stroke="#000000" stroke-opacity="1" stroke-width="3.2"/>
<path clip-path="url(#clip692)" d="M2061.8 678.398 L2004.2 644.798 L2004.2 711.998 L2061.8 678.398 Z" fill="#ffa500" fill-rule="evenodd" fill-opacity="1" stroke="#000000" stroke-opacity="1" stroke-width="3.2"/>
<path clip-path="url(#clip692)" d="M2061.8 555.883 L2004.2 522.283 L2004.2 589.483 L2061.8 555.883 Z" fill="#ffa500" fill-rule="evenodd" fill-opacity="1" stroke="#000000" stroke-opacity="1" stroke-width="3.2"/>
<path clip-path="url(#clip692)" d="M2061.8 433.369 L2004.2 399.769 L2004.2 466.969 L2061.8 433.369 Z" fill="#ffa500" fill-rule="evenodd" fill-opacity="1" stroke="#000000" stroke-opacity="1" stroke-width="3.2"/>
<path clip-path="url(#clip690)" d="M318.983 506.398 L322.985 504.941 L331.853 529.303 L327.85 530.76 L318.983 506.398 M315.531 496.914 L319.534 495.457 L321.378 500.525 L317.376 501.982 L315.531 496.914 Z" fill="#000000" fill-rule="evenodd" fill-opacity="1" /><path clip-path="url(#clip690)" d="M355.126 504.18 L360.478 518.884 L356.476 520.341 L351.171 505.767 Q349.913 502.309 347.939 501.081 Q345.964 499.853 343.267 500.835 Q340.026 502.015 338.908 504.762 Q337.789 507.509 339.087 511.077 L344.099 524.846 L340.075 526.31 L331.208 501.948 L335.232 500.484 L336.609 504.268 Q337.245 501.549 338.785 499.757 Q340.347 497.957 342.892 497.03 Q347.09 495.502 350.194 497.329 Q353.29 499.133 355.126 504.18 Z" fill="#000000" fill-rule="evenodd" fill-opacity="1" /><path clip-path="url(#clip690)" d="M371.003 510.915 L375.706 523.836 L371.682 525.3 L359.442 491.672 L363.466 490.207 L364.812 493.905 Q365.282 491.271 366.816 489.53 Q368.364 487.759 371.039 486.786 Q375.477 485.17 379.522 487.689 Q383.589 490.199 385.679 495.942 Q387.769 501.684 386.267 506.222 Q384.787 510.751 380.35 512.366 Q377.674 513.34 375.358 513 Q373.056 512.631 371.003 510.915 M381.524 497.454 Q379.917 493.038 377.179 491.202 Q374.456 489.336 371.28 490.492 Q368.104 491.648 367.195 494.836 Q366.3 497.994 367.907 502.41 Q369.515 506.826 372.238 508.692 Q374.976 510.528 378.152 509.372 Q381.328 508.216 382.223 505.058 Q383.131 501.87 381.524 497.454 Z" fill="#000000" fill-rule="evenodd" fill-opacity="1" /><path clip-path="url(#clip690)" d="M392.826 496.222 L387.458 481.475 L391.461 480.018 L396.773 494.613 Q398.032 498.072 400.014 499.321 Q401.988 500.549 404.685 499.567 Q407.926 498.388 409.045 495.64 Q410.185 492.885 408.887 489.318 L403.859 475.505 L407.862 474.048 L416.729 498.411 L412.727 499.867 L411.365 496.126 Q410.715 498.875 409.175 500.667 Q407.649 502.43 405.104 503.356 Q400.906 504.884 397.78 503.066 Q394.655 501.247 392.826 496.222 M397.316 477.222 L397.316 477.222 Z" fill="#000000" fill-rule="evenodd" fill-opacity="1" /><path clip-path="url(#clip690)" d="M417.547 462.69 L420.065 469.607 L428.309 466.606 L429.441 469.717 L421.197 472.717 L426.01 485.943 Q427.095 488.923 428.209 489.478 Q429.344 490.026 431.846 489.115 L435.957 487.619 L437.176 490.969 L433.065 492.465 Q428.432 494.151 426.044 493.074 Q423.649 491.975 421.986 487.407 L417.173 474.182 L414.236 475.251 L413.104 472.14 L416.041 471.072 L413.523 464.154 L417.547 462.69 Z" fill="#000000" fill-rule="evenodd" fill-opacity="1" /><path clip-path="url(#clip690)" d="M1801.3 392.838 Q1802.88 392.802 1804.78 393.886 Q1806.7 394.961 1809.05 397.211 L1816.74 404.463 L1812.02 406.181 L1804.83 399.362 Q1802.03 396.685 1800.12 396.173 Q1798.23 395.654 1795.62 396.604 L1790.84 398.345 L1795.83 412.071 L1791.44 413.67 L1779.62 381.194 L1789.54 377.584 Q1795.11 375.557 1798.69 376.887 Q1802.28 378.217 1803.99 382.916 Q1805.11 385.983 1804.41 388.528 Q1803.73 391.066 1801.3 392.838 M1785.33 383.206 L1789.52 394.735 L1795.05 392.724 Q1798.22 391.568 1799.3 389.524 Q1800.39 387.452 1799.36 384.602 Q1798.32 381.753 1796.17 380.911 Q1794.03 380.039 1790.85 381.195 L1785.33 383.206 Z" fill="#000000" fill-rule="evenodd" fill-opacity="1" /><path clip-path="url(#clip690)" d="M1836.26 382.43 L1836.97 384.387 L1818.57 391.085 Q1820.33 395.123 1823.34 396.491 Q1826.37 397.829 1830.35 396.38 Q1832.65 395.541 1834.6 394.191 Q1836.57 392.834 1838.29 390.927 L1839.67 394.712 Q1837.85 396.409 1835.76 397.711 Q1833.67 399.013 1831.34 399.86 Q1825.51 401.982 1820.86 399.832 Q1816.24 397.673 1814.13 391.887 Q1811.95 385.906 1813.9 381.232 Q1815.86 376.528 1821.34 374.533 Q1826.25 372.744 1830.26 374.883 Q1834.28 376.992 1836.26 382.43 M1831.83 382.712 Q1830.59 379.443 1828.07 378.142 Q1825.57 376.834 1822.62 377.911 Q1819.27 379.13 1817.93 381.759 Q1816.62 384.379 1817.57 387.927 L1831.83 382.712 Z" fill="#000000" fill-rule="evenodd" fill-opacity="1" /><path clip-path="url(#clip690)" d="M1856.63 363.412 L1857.99 367.154 Q1855.95 366.836 1854.07 367.004 Q1852.2 367.143 1850.46 367.777 Q1846.56 369.194 1845.31 372.457 Q1844.05 375.699 1845.68 380.158 Q1847.3 384.618 1850.36 386.314 Q1853.4 387.988 1857.3 386.571 Q1859.04 385.937 1860.57 384.863 Q1862.11 383.759 1863.47 382.206 L1864.82 385.904 Q1863.43 387.297 1861.76 388.345 Q1860.12 389.386 1858.1 390.122 Q1852.59 392.125 1848.1 389.846 Q1843.6 387.567 1841.46 381.694 Q1839.29 375.734 1841.31 371.132 Q1843.35 366.521 1849.05 364.447 Q1850.9 363.774 1852.8 363.524 Q1854.7 363.253 1856.63 363.412 Z" fill="#000000" fill-rule="evenodd" fill-opacity="1" /><path clip-path="url(#clip690)" d="M1868.2 374.842 L1862.84 360.094 L1866.84 358.637 L1872.15 373.233 Q1873.41 376.691 1875.39 377.941 Q1877.37 379.168 1880.06 378.186 Q1883.3 377.007 1884.42 374.259 Q1885.56 371.504 1884.26 367.937 L1879.24 354.124 L1883.24 352.668 L1892.11 377.03 L1888.1 378.487 L1886.74 374.745 Q1886.09 377.494 1884.55 379.287 Q1883.03 381.049 1880.48 381.976 Q1876.28 383.504 1873.16 381.685 Q1870.03 379.866 1868.2 374.842 M1872.69 355.841 L1872.69 355.841 Z" fill="#000000" fill-rule="evenodd" fill-opacity="1" /><path clip-path="url(#clip690)" d="M1906.96 348.27 Q1906.15 348.124 1905.28 348.243 Q1904.42 348.332 1903.47 348.681 Q1900.07 349.916 1899.05 352.799 Q1898.05 355.653 1899.55 359.786 L1904.22 372.62 L1900.2 374.085 L1891.33 349.722 L1895.36 348.258 L1896.73 352.043 Q1897.19 349.365 1898.82 347.563 Q1900.45 345.739 1903.34 344.686 Q1903.76 344.535 1904.28 344.418 Q1904.8 344.28 1905.44 344.167 L1906.96 348.27 Z" fill="#000000" fill-rule="evenodd" fill-opacity="1" /><path clip-path="url(#clip690)" d="M1915.98 330.061 Q1914.88 336.125 1915.25 341.534 Q1915.62 346.943 1917.45 351.967 Q1919.28 356.992 1922.49 361.415 Q1925.71 365.809 1930.42 369.737 L1926.94 371.004 Q1921.81 367.079 1918.39 362.735 Q1914.98 358.384 1913.21 353.511 Q1911.44 348.66 1911.26 343.159 Q1911.08 337.657 1912.5 331.328 L1915.98 330.061 Z" fill="#000000" fill-rule="evenodd" fill-opacity="1" /><path clip-path="url(#clip690)" d="M1924.4 328.498 L1928.79 326.899 L1939.27 355.677 L1955.08 349.921 L1956.43 353.619 L1936.22 360.974 L1924.4 328.498 Z" fill="#000000" fill-rule="evenodd" fill-opacity="1" /><path clip-path="url(#clip690)" d="M1969.07 313.445 L1970.63 317.73 Q1967.7 317.444 1965.26 317.664 Q1962.83 317.885 1960.77 318.637 Q1957.18 319.943 1955.73 322.048 Q1954.3 324.144 1955.23 326.711 Q1956.01 328.865 1957.7 329.507 Q1959.4 330.12 1963.26 329.48 L1966.11 329.057 Q1971.37 328.204 1974.56 329.727 Q1977.76 331.222 1979.2 335.18 Q1980.92 339.901 1978.63 343.493 Q1976.36 347.077 1970.25 349.302 Q1967.95 350.141 1965.15 350.569 Q1962.37 350.989 1959.21 350.98 L1957.56 346.456 Q1960.79 346.983 1963.63 346.81 Q1966.47 346.637 1968.95 345.734 Q1972.72 344.365 1974.22 342.141 Q1975.73 339.918 1974.73 337.177 Q1973.86 334.785 1971.89 333.974 Q1969.94 333.156 1966.35 333.701 L1963.48 334.153 Q1958.21 334.963 1955.25 333.675 Q1952.3 332.386 1950.94 328.666 Q1949.37 324.36 1951.49 320.779 Q1953.64 317.191 1958.97 315.252 Q1961.25 314.42 1963.77 313.971 Q1966.29 313.521 1969.07 313.445 Z" fill="#000000" fill-rule="evenodd" fill-opacity="1" /><path clip-path="url(#clip690)" d="M1972.99 310.811 L2000.47 300.812 L2001.81 304.51 L1990.28 308.706 L2000.76 337.484 L1996.34 339.091 L1985.87 310.313 L1974.34 314.509 L1972.99 310.811 Z" fill="#000000" fill-rule="evenodd" fill-opacity="1" /><path clip-path="url(#clip690)" d="M2004.71 299.268 L2011.26 296.885 L2027.59 315.969 L2027.87 290.837 L2034.42 288.454 L2046.24 320.929 L2041.96 322.489 L2031.58 293.972 L2031.31 319.294 L2026.89 320.901 L2010.41 301.675 L2020.79 330.192 L2016.53 331.744 L2004.71 299.268 Z" fill="#000000" fill-rule="evenodd" fill-opacity="1" /><path clip-path="url(#clip690)" d="M2068.37 278.929 L2070.06 283.562 Q2067.09 282.303 2064.19 282.199 Q2061.32 282.087 2058.49 283.117 Q2052.92 285.143 2051.21 289.635 Q2049.48 294.105 2051.83 300.544 Q2054.16 306.961 2058.36 309.299 Q2062.56 311.616 2068.13 309.589 Q2070.95 308.56 2073.08 306.627 Q2075.23 304.686 2076.7 301.812 L2078.37 306.402 Q2076.64 308.807 2074.33 310.532 Q2072.05 312.25 2069.18 313.295 Q2061.81 315.979 2055.93 313.02 Q2050.04 310.039 2047.19 302.23 Q2044.34 294.4 2046.95 288.353 Q2049.54 282.285 2056.92 279.601 Q2059.83 278.54 2062.68 278.389 Q2065.55 278.208 2068.37 278.929 Z" fill="#000000" fill-rule="evenodd" fill-opacity="1" /><path clip-path="url(#clip690)" d="M2101.94 285.73 L2102.65 287.688 L2084.25 294.386 Q2086.01 298.424 2089.02 299.791 Q2092.05 301.129 2096.03 299.68 Q2098.33 298.841 2100.28 297.492 Q2102.25 296.135 2103.97 294.228 L2105.35 298.013 Q2103.53 299.71 2101.44 301.012 Q2099.35 302.314 2097.02 303.161 Q2091.19 305.283 2086.54 303.132 Q2081.91 300.974 2079.81 295.188 Q2077.63 289.206 2079.58 284.532 Q2081.53 279.829 2087.02 277.834 Q2091.93 276.045 2095.94 278.183 Q2099.96 280.292 2101.94 285.73 M2097.51 286.012 Q2096.27 282.744 2093.75 281.443 Q2091.25 280.135 2088.29 281.211 Q2084.94 282.431 2083.61 285.059 Q2082.3 287.68 2083.24 291.228 L2097.51 286.012 Z" fill="#000000" fill-rule="evenodd" fill-opacity="1" /><path clip-path="url(#clip690)" d="M2100.98 262.675 L2104.99 261.218 L2117.31 295.064 L2113.3 296.521 L2100.98 262.675 Z" fill="#000000" fill-rule="evenodd" fill-opacity="1" /><path clip-path="url(#clip690)" d="M2113.36 258.17 L2117.36 256.713 L2129.68 290.559 L2125.68 292.016 L2113.36 258.17 Z" fill="#000000" fill-rule="evenodd" fill-opacity="1" /><path clip-path="url(#clip690)" d="M2135.37 250.209 Q2134.27 256.273 2134.64 261.682 Q2135.01 267.091 2136.84 272.116 Q2138.67 277.14 2141.88 281.563 Q2145.1 285.957 2149.81 289.885 L2146.33 291.152 Q2141.2 287.228 2137.78 282.884 Q2134.37 278.532 2132.6 273.659 Q2130.83 268.809 2130.65 263.307 Q2130.47 257.805 2131.89 251.476 L2135.37 250.209 Z" fill="#000000" fill-rule="evenodd" fill-opacity="1" /><path clip-path="url(#clip690)" d="M2157.65 247.938 L2152.86 269.312 L2163.96 265.275 L2157.65 247.938 M2155.1 244.53 L2160.63 242.519 L2168.33 263.683 L2172.96 261.997 L2174.29 265.651 L2169.66 267.338 L2172.45 274.994 L2168.07 276.586 L2165.29 268.929 L2150.63 274.265 L2149.08 270.024 L2155.1 244.53 Z" fill="#000000" fill-rule="evenodd" fill-opacity="1" /><path clip-path="url(#clip690)" d="M2182.79 264.972 L2187.38 263.302 L2188.74 267.043 L2187.71 275.302 L2184.9 276.324 L2184.15 268.714 L2182.79 264.972 Z" fill="#000000" fill-rule="evenodd" fill-opacity="1" /><path clip-path="url(#clip690)" d="M2199.74 228.284 L2220.62 220.683 L2221.3 222.554 L2220.65 257.45 L2216.06 259.121 L2216.68 226.305 L2201.08 231.982 L2199.74 228.284 Z" fill="#000000" fill-rule="evenodd" fill-opacity="1" /><path clip-path="url(#clip690)" d="M2227.51 216.673 L2230.99 215.406 Q2236.12 219.352 2239.52 223.682 Q2242.94 228.004 2244.71 232.855 Q2246.48 237.727 2246.65 243.259 Q2246.83 248.782 2245.43 255.082 L2241.95 256.348 Q2243.03 250.314 2242.65 244.883 Q2242.29 239.423 2240.46 234.399 Q2238.64 229.374 2235.42 225.002 Q2232.22 220.623 2227.51 216.673 Z" fill="#000000" fill-rule="evenodd" fill-opacity="1" /><path clip-path="url(#clip690)" d="M2244.89 210.347 L2248.37 209.08 Q2253.5 213.026 2256.9 217.356 Q2260.32 221.678 2262.09 226.529 Q2263.86 231.401 2264.02 236.933 Q2264.21 242.456 2262.81 248.756 L2259.33 250.022 Q2260.41 243.988 2260.03 238.558 Q2259.67 233.097 2257.84 228.073 Q2256.02 223.048 2252.8 218.676 Q2249.6 214.297 2244.89 210.347 Z" fill="#000000" fill-rule="evenodd" fill-opacity="1" /></svg>
