<?xml version="1.0" encoding="utf-8"?>
<svg xmlns="http://www.w3.org/2000/svg" xmlns:xlink="http://www.w3.org/1999/xlink" width="600" height="400" viewBox="0 0 2400 1600">
<defs>
  <clipPath id="clip410">
    <rect x="0" y="0" width="2400" height="1600"/>
  </clipPath>
</defs>
<path clip-path="url(#clip410)" d="
M0 1600 L2400 1600 L2400 0 L0 0  Z
  " fill="#ffffff" fill-rule="evenodd" fill-opacity="1"/>
<defs>
  <clipPath id="clip411">
    <rect x="480" y="0" width="1681" height="1600"/>
  </clipPath>
</defs>
<path clip-path="url(#clip410)" d="
M47.2441 1388.98 L2352.76 1388.98 L2352.76 114.832 L47.2441 114.832  Z
  " fill="#ffffff" fill-rule="evenodd" fill-opacity="1"/>
<defs>
  <clipPath id="clip412">
    <rect x="47" y="114" width="2307" height="1275"/>
  </clipPath>
</defs>
<polyline clip-path="url(#clip412)" style="stroke:#000000; stroke-linecap:butt; stroke-linejoin:round; stroke-width:2; stroke-opacity:0.1; fill:none" points="
  376.603,1388.98 376.603,114.832 
  "/>
<polyline clip-path="url(#clip412)" style="stroke:#000000; stroke-linecap:butt; stroke-linejoin:round; stroke-width:2; stroke-opacity:0.1; fill:none" points="
  2023.4,1388.98 2023.4,114.832 
  "/>
<path clip-path="url(#clip410)" d="M286.381 1535.06 L288.511 1531.37 L310.963 1544.34 L308.834 1548.02 L286.381 1535.06 M277.641 1530.02 L279.77 1526.33 L284.441 1529.02 L282.312 1532.71 L277.641 1530.02 Z" fill="#000000" fill-rule="evenodd" fill-opacity="1" /><path clip-path="url(#clip410)" d="M312.643 1510.13 L326.195 1517.95 L324.065 1521.64 L310.634 1513.89 Q307.446 1512.05 305.145 1512.38 Q302.844 1512.7 301.409 1515.19 Q299.684 1518.18 300.593 1521 Q301.502 1523.82 304.79 1525.72 L317.479 1533.05 L315.338 1536.76 L292.886 1523.8 L295.027 1520.09 L298.515 1522.1 Q297.254 1519.61 297.282 1517.25 Q297.321 1514.86 298.676 1512.52 Q300.909 1508.65 304.461 1508.05 Q307.992 1507.44 312.643 1510.13 Z" fill="#000000" fill-rule="evenodd" fill-opacity="1" /><path clip-path="url(#clip410)" d="M329.135 1505.08 L341.042 1511.96 L338.901 1515.67 L307.909 1497.77 L310.05 1494.07 L313.458 1496.03 Q312.125 1493.71 312.181 1491.39 Q312.229 1489.04 313.652 1486.58 Q316.013 1482.49 320.731 1481.82 Q325.46 1481.13 330.752 1484.18 Q336.045 1487.24 337.811 1491.68 Q339.588 1496.1 337.227 1500.19 Q335.804 1502.65 333.811 1503.88 Q331.811 1505.08 329.135 1505.08 M328.542 1488.01 Q324.472 1485.66 321.195 1486.01 Q317.909 1486.33 316.219 1489.26 Q314.529 1492.19 315.882 1495.21 Q317.227 1498.21 321.296 1500.56 Q325.366 1502.91 328.652 1502.59 Q331.93 1502.23 333.619 1499.31 Q335.309 1496.38 333.964 1493.39 Q332.611 1490.36 328.542 1488.01 Z" fill="#000000" fill-rule="evenodd" fill-opacity="1" /><path clip-path="url(#clip410)" d="M336.408 1479.8 L322.816 1471.95 L324.946 1468.27 L338.397 1476.03 Q341.585 1477.87 343.906 1477.55 Q346.207 1477.23 347.642 1474.74 Q349.367 1471.75 348.458 1468.93 Q347.56 1466.09 344.273 1464.19 L331.543 1456.84 L333.673 1453.15 L356.125 1466.11 L353.995 1469.8 L350.547 1467.81 Q351.817 1470.33 351.789 1472.7 Q351.753 1475.03 350.399 1477.37 Q348.165 1481.24 344.602 1481.86 Q341.039 1482.47 336.408 1479.8 M327.634 1462.36 L327.634 1462.36 Z" fill="#000000" fill-rule="evenodd" fill-opacity="1" /><path clip-path="url(#clip410)" d="M333.791 1438.22 L340.166 1441.9 L344.552 1434.31 L347.419 1435.96 L343.032 1443.56 L355.221 1450.6 Q357.967 1452.18 359.177 1451.89 Q360.399 1451.58 361.73 1449.28 L363.917 1445.49 L367.005 1447.27 L364.817 1451.06 Q362.352 1455.33 359.831 1456.04 Q357.289 1456.74 353.08 1454.3 L340.891 1447.27 L339.329 1449.97 L336.462 1448.32 L338.024 1445.61 L331.65 1441.93 L333.791 1438.22 Z" fill="#000000" fill-rule="evenodd" fill-opacity="1" /><path clip-path="url(#clip410)" d="M323.288 1554.63 L325.418 1550.94 L356.61 1568.95 L354.481 1572.64 L323.288 1554.63 Z" fill="#000000" fill-rule="evenodd" fill-opacity="1" /><path clip-path="url(#clip410)" d="M355.671 1544.51 Q353.09 1548.99 353.117 1551.3 Q353.144 1553.61 355.61 1555.04 Q357.575 1556.17 359.478 1555.56 Q361.373 1554.92 362.658 1552.69 Q364.428 1549.62 363.328 1546.53 Q362.22 1543.4 358.611 1541.32 L357.789 1540.85 L355.671 1544.51 M358.395 1536.28 L371.205 1543.67 L369.076 1547.36 L365.668 1545.39 Q366.983 1547.84 366.878 1550.29 Q366.752 1552.73 365.178 1555.46 Q363.187 1558.9 360.082 1559.84 Q356.968 1560.74 353.721 1558.86 Q349.932 1556.68 349.466 1553.04 Q349.011 1549.38 351.916 1544.35 L354.902 1539.18 L354.542 1538.97 Q351.996 1537.5 349.64 1538.39 Q347.276 1539.24 345.529 1542.27 Q344.418 1544.19 343.825 1546.28 Q343.233 1548.37 343.183 1550.59 L339.775 1548.62 Q340.162 1546.15 340.881 1544.02 Q341.58 1541.89 342.621 1540.08 Q345.434 1535.21 349.349 1534.26 Q353.263 1533.31 358.395 1536.28 Z" fill="#000000" fill-rule="evenodd" fill-opacity="1" /><path clip-path="url(#clip410)" d="M383.07 1527.94 Q386.177 1531.82 386.543 1534.01 Q386.909 1536.2 385.474 1538.68 L383.773 1541.63 L380.686 1539.85 L381.936 1537.68 Q382.815 1536.16 382.58 1534.9 Q382.344 1533.64 380.248 1531.07 L378.946 1529.43 L351.612 1525.76 L353.868 1521.85 L375.48 1524.97 L361.97 1507.82 L364.227 1503.91 L383.07 1527.94 Z" fill="#000000" fill-rule="evenodd" fill-opacity="1" /><path clip-path="url(#clip410)" d="M388.559 1485.56 L390.363 1486.6 L380.572 1503.56 Q384.519 1505.52 387.705 1504.63 Q390.881 1503.71 392.999 1500.05 Q394.226 1497.92 394.851 1495.63 Q395.487 1493.33 395.579 1490.76 L399.067 1492.78 Q398.763 1495.25 398 1497.59 Q397.238 1499.93 395.999 1502.07 Q392.898 1507.44 387.953 1508.79 Q383.02 1510.11 377.688 1507.03 Q372.175 1503.85 370.66 1499.02 Q369.137 1494.15 372.054 1489.1 Q374.67 1484.57 379.113 1483.64 Q383.547 1482.67 388.559 1485.56 M385.347 1488.62 Q382.297 1486.92 379.532 1487.54 Q376.778 1488.14 375.204 1490.87 Q373.422 1493.95 374.09 1496.83 Q374.769 1499.68 377.774 1501.79 L385.347 1488.62 Z" fill="#000000" fill-rule="evenodd" fill-opacity="1" /><path clip-path="url(#clip410)" d="M392.71 1462.54 Q391.99 1462.95 391.402 1463.6 Q390.805 1464.22 390.295 1465.1 Q388.49 1468.23 389.562 1471.09 Q390.626 1473.92 394.435 1476.12 L406.263 1482.95 L404.122 1486.66 L381.669 1473.7 L383.81 1469.99 L387.299 1472 Q385.925 1469.66 386.019 1467.23 Q386.093 1464.79 387.633 1462.12 Q387.852 1461.74 388.179 1461.31 Q388.485 1460.87 388.909 1460.37 L392.71 1462.54 Z" fill="#000000" fill-rule="evenodd" fill-opacity="1" /><path clip-path="url(#clip410)" d="M1923.57 1557.66 Q1921.86 1560.63 1923.19 1563.7 Q1924.5 1566.75 1928.53 1569.08 Q1932.56 1571.41 1935.87 1571.04 Q1939.17 1570.65 1940.89 1567.66 Q1942.6 1564.72 1941.27 1561.65 Q1939.94 1558.58 1935.93 1556.27 Q1931.94 1553.97 1928.62 1554.35 Q1925.28 1554.72 1923.57 1557.66 M1920.45 1555.86 Q1923.22 1551.05 1927.94 1550.11 Q1932.65 1549.17 1938.18 1552.36 Q1943.7 1555.54 1945.26 1560.11 Q1946.8 1564.66 1944.02 1569.47 Q1941.23 1574.3 1936.52 1575.24 Q1931.8 1576.15 1926.29 1572.97 Q1920.75 1569.77 1919.2 1565.24 Q1917.66 1560.69 1920.45 1555.86 Z" fill="#000000" fill-rule="evenodd" fill-opacity="1" /><path clip-path="url(#clip410)" d="M1943.84 1547.98 L1930.25 1540.13 L1932.38 1536.44 L1945.83 1544.21 Q1949.02 1546.05 1951.34 1545.73 Q1953.64 1545.41 1955.07 1542.92 Q1956.8 1539.93 1955.89 1537.11 Q1954.99 1534.27 1951.7 1532.37 L1938.97 1525.02 L1941.1 1521.33 L1963.56 1534.29 L1961.43 1537.98 L1957.98 1535.99 Q1959.25 1538.51 1959.22 1540.88 Q1959.18 1543.21 1957.83 1545.55 Q1955.6 1549.42 1952.03 1550.04 Q1948.47 1550.65 1943.84 1547.98 M1935.06 1530.54 L1935.06 1530.54 Z" fill="#000000" fill-rule="evenodd" fill-opacity="1" /><path clip-path="url(#clip410)" d="M1941.22 1506.4 L1947.6 1510.08 L1951.98 1502.49 L1954.85 1504.14 L1950.46 1511.74 L1962.65 1518.78 Q1965.4 1520.36 1966.61 1520.07 Q1967.83 1519.76 1969.16 1517.45 L1971.35 1513.67 L1974.44 1515.45 L1972.25 1519.24 Q1969.78 1523.51 1967.26 1524.22 Q1964.72 1524.91 1960.51 1522.48 L1948.32 1515.45 L1946.76 1518.15 L1943.89 1516.5 L1945.46 1513.79 L1939.08 1510.11 L1941.22 1506.4 Z" fill="#000000" fill-rule="evenodd" fill-opacity="1" /><path clip-path="url(#clip410)" d="M1975.93 1505.08 L1987.84 1511.96 L1985.7 1515.67 L1954.7 1497.77 L1956.84 1494.07 L1960.25 1496.03 Q1958.92 1493.71 1958.98 1491.39 Q1959.02 1489.04 1960.45 1486.58 Q1962.81 1482.49 1967.53 1481.82 Q1972.25 1481.13 1977.55 1484.18 Q1982.84 1487.24 1984.6 1491.68 Q1986.38 1496.1 1984.02 1500.19 Q1982.6 1502.65 1980.61 1503.88 Q1978.6 1505.08 1975.93 1505.08 M1975.34 1488.01 Q1971.27 1485.66 1967.99 1486.01 Q1964.7 1486.33 1963.01 1489.26 Q1961.32 1492.19 1962.68 1495.21 Q1964.02 1498.21 1968.09 1500.56 Q1972.16 1502.91 1975.45 1502.59 Q1978.72 1502.23 1980.41 1499.31 Q1982.1 1496.38 1980.76 1493.39 Q1979.41 1490.36 1975.34 1488.01 Z" fill="#000000" fill-rule="evenodd" fill-opacity="1" /><path clip-path="url(#clip410)" d="M1983.2 1479.8 L1969.61 1471.95 L1971.74 1468.27 L1985.19 1476.03 Q1988.38 1477.87 1990.7 1477.55 Q1993 1477.23 1994.44 1474.74 Q1996.16 1471.75 1995.25 1468.93 Q1994.35 1466.09 1991.07 1464.19 L1978.34 1456.84 L1980.47 1453.15 L2002.92 1466.11 L2000.79 1469.8 L1997.34 1467.81 Q1998.61 1470.33 1998.58 1472.7 Q1998.55 1475.03 1997.19 1477.37 Q1994.96 1481.24 1991.4 1481.86 Q1987.83 1482.47 1983.2 1479.8 M1974.43 1462.36 L1974.43 1462.36 Z" fill="#000000" fill-rule="evenodd" fill-opacity="1" /><path clip-path="url(#clip410)" d="M1980.58 1438.22 L1986.96 1441.9 L1991.35 1434.31 L1994.21 1435.96 L1989.83 1443.56 L2002.01 1450.6 Q2004.76 1452.18 2005.97 1451.89 Q2007.19 1451.58 2008.52 1449.28 L2010.71 1445.49 L2013.8 1447.27 L2011.61 1451.06 Q2009.15 1455.33 2006.62 1456.04 Q2004.08 1456.74 1999.87 1454.3 L1987.69 1447.27 L1986.12 1449.97 L1983.26 1448.32 L1984.82 1445.61 L1978.44 1441.93 L1980.58 1438.22 Z" fill="#000000" fill-rule="evenodd" fill-opacity="1" /><path clip-path="url(#clip410)" d="M1953.48 1583.39 L1955.61 1579.7 L1986.8 1597.71 L1984.67 1601.4 L1953.48 1583.39 Z" fill="#000000" fill-rule="evenodd" fill-opacity="1" /><path clip-path="url(#clip410)" d="M1985.86 1573.27 Q1983.28 1577.74 1983.31 1580.06 Q1983.34 1582.37 1985.8 1583.79 Q1987.77 1584.93 1989.67 1584.32 Q1991.56 1583.67 1992.85 1581.45 Q1994.62 1578.38 1993.52 1575.29 Q1992.41 1572.16 1988.8 1570.08 L1987.98 1569.6 L1985.86 1573.27 M1988.59 1565.03 L2001.4 1572.43 L1999.27 1576.12 L1995.86 1574.15 Q1997.17 1576.6 1997.07 1579.05 Q1996.94 1581.49 1995.37 1584.21 Q1993.38 1587.66 1990.27 1588.59 Q1987.16 1589.5 1983.91 1587.62 Q1980.12 1585.43 1979.66 1581.8 Q1979.2 1578.14 1982.11 1573.11 L1985.09 1567.94 L1984.73 1567.73 Q1982.19 1566.26 1979.83 1567.14 Q1977.47 1568 1975.72 1571.02 Q1974.61 1572.95 1974.02 1575.04 Q1973.42 1577.13 1973.37 1579.35 L1969.97 1577.38 Q1970.35 1574.9 1971.07 1572.78 Q1971.77 1570.64 1972.81 1568.84 Q1975.62 1563.97 1979.54 1563.02 Q1983.45 1562.07 1988.59 1565.03 Z" fill="#000000" fill-rule="evenodd" fill-opacity="1" /><path clip-path="url(#clip410)" d="M2013.26 1556.69 Q2016.37 1560.57 2016.73 1562.76 Q2017.1 1564.95 2015.67 1567.44 L2013.96 1570.39 L2010.88 1568.6 L2012.13 1566.44 Q2013.01 1564.91 2012.77 1563.66 Q2012.54 1562.4 2010.44 1559.82 L2009.14 1558.19 L1981.8 1554.52 L1984.06 1550.61 L2005.67 1553.73 L1992.16 1536.57 L1994.42 1532.67 L2013.26 1556.69 Z" fill="#000000" fill-rule="evenodd" fill-opacity="1" /><path clip-path="url(#clip410)" d="M2018.75 1514.32 L2020.55 1515.36 L2010.76 1532.32 Q2014.71 1534.28 2017.9 1533.39 Q2021.07 1532.47 2023.19 1528.8 Q2024.42 1526.68 2025.04 1524.39 Q2025.68 1522.09 2025.77 1519.52 L2029.26 1521.53 Q2028.95 1524 2028.19 1526.34 Q2027.43 1528.68 2026.19 1530.83 Q2023.09 1536.2 2018.14 1537.54 Q2013.21 1538.86 2007.88 1535.79 Q2002.37 1532.6 2000.85 1527.77 Q1999.33 1522.91 2002.25 1517.86 Q2004.86 1513.33 2009.3 1512.39 Q2013.74 1511.42 2018.75 1514.32 M2015.54 1517.38 Q2012.49 1515.67 2009.72 1516.3 Q2006.97 1516.9 2005.4 1519.62 Q2003.61 1522.71 2004.28 1525.58 Q2004.96 1528.43 2007.97 1530.54 L2015.54 1517.38 Z" fill="#000000" fill-rule="evenodd" fill-opacity="1" /><path clip-path="url(#clip410)" d="M2022.9 1491.29 Q2022.18 1491.71 2021.59 1492.36 Q2021 1492.97 2020.49 1493.86 Q2018.68 1496.98 2019.75 1499.85 Q2020.82 1502.68 2024.63 1504.88 L2036.45 1511.71 L2034.31 1515.42 L2011.86 1502.45 L2014 1498.75 L2017.49 1500.76 Q2016.12 1498.42 2016.21 1495.99 Q2016.28 1493.54 2017.82 1490.88 Q2018.04 1490.5 2018.37 1490.07 Q2018.68 1489.63 2019.1 1489.13 L2022.9 1491.29 Z" fill="#000000" fill-rule="evenodd" fill-opacity="1" /><path clip-path="url(#clip410)" d="M861.373 37.9026 Q863.63 38.6665 865.748 41.1664 Q867.901 43.6664 870.054 48.0414 L877.172 62.208 L869.637 62.208 L863.005 48.9095 Q860.436 43.7012 858.005 41.9998 Q855.609 40.2984 851.443 40.2984 L843.804 40.2984 L843.804 62.208 L836.79 62.208 L836.79 10.368 L852.623 10.368 Q861.512 10.368 865.887 14.0833 Q870.262 17.7985 870.262 25.2985 Q870.262 30.1943 867.971 33.4234 Q865.714 36.6526 861.373 37.9026 M843.804 16.1319 L843.804 34.5345 L852.623 34.5345 Q857.693 34.5345 860.262 32.2082 Q862.866 29.8471 862.866 25.2985 Q862.866 20.7499 860.262 18.4582 Q857.693 16.1319 852.623 16.1319 L843.804 16.1319 Z" fill="#000000" fill-rule="evenodd" fill-opacity="1" /><path clip-path="url(#clip410)" d="M915.991 41.1664 L915.991 44.2914 L886.616 44.2914 Q887.033 50.8886 890.575 54.3608 Q894.151 57.7983 900.505 57.7983 Q904.186 57.7983 907.623 56.8955 Q911.095 55.9928 914.498 54.1872 L914.498 60.2288 Q911.061 61.6872 907.449 62.4511 Q903.838 63.2149 900.123 63.2149 Q890.818 63.2149 885.366 57.7983 Q879.95 52.3817 879.95 43.1456 Q879.95 33.597 885.088 28.0068 Q890.262 22.3818 899.012 22.3818 Q906.859 22.3818 911.408 27.4512 Q915.991 32.4859 915.991 41.1664 M909.602 39.2915 Q909.533 34.0484 906.651 30.9234 Q903.804 27.7985 899.081 27.7985 Q893.734 27.7985 890.505 30.8193 Q887.311 33.8401 886.825 39.3262 L909.602 39.2915 Z" fill="#000000" fill-rule="evenodd" fill-opacity="1" /><path clip-path="url(#clip410)" d="M954.463 24.8124 L954.463 30.7846 Q951.755 29.2915 949.012 28.5623 Q946.303 27.7985 943.526 27.7985 Q937.31 27.7985 933.873 31.7568 Q930.435 35.6804 930.435 42.7984 Q930.435 49.9164 933.873 53.8747 Q937.31 57.7983 943.526 57.7983 Q946.303 57.7983 949.012 57.0691 Q951.755 56.3053 954.463 54.8122 L954.463 60.715 Q951.79 61.9649 948.908 62.5899 Q946.06 63.2149 942.831 63.2149 Q934.047 63.2149 928.873 57.6941 Q923.699 52.1733 923.699 42.7984 Q923.699 33.2845 928.908 27.8332 Q934.151 22.3818 943.248 22.3818 Q946.199 22.3818 949.012 23.0068 Q951.824 23.5971 954.463 24.8124 Z" fill="#000000" fill-rule="evenodd" fill-opacity="1" /><path clip-path="url(#clip410)" d="M964.914 46.8609 L964.914 23.3193 L971.303 23.3193 L971.303 46.6178 Q971.303 52.1386 973.456 54.9164 Q975.609 57.6594 979.914 57.6594 Q985.088 57.6594 988.074 54.3608 Q991.095 51.0622 991.095 45.3678 L991.095 23.3193 L997.484 23.3193 L997.484 62.208 L991.095 62.208 L991.095 56.2358 Q988.768 59.7775 985.678 61.5136 Q982.623 63.2149 978.56 63.2149 Q971.859 63.2149 968.387 59.0483 Q964.914 54.8817 964.914 46.8609 M980.991 22.3818 L980.991 22.3818 Z" fill="#000000" fill-rule="evenodd" fill-opacity="1" /><path clip-path="url(#clip410)" d="M1033.18 29.2915 Q1032.1 28.6665 1030.82 28.3887 Q1029.57 28.0762 1028.04 28.0762 Q1022.62 28.0762 1019.71 31.6179 Q1016.82 35.1248 1016.82 41.722 L1016.82 62.208 L1010.4 62.208 L1010.4 23.3193 L1016.82 23.3193 L1016.82 29.361 Q1018.84 25.8193 1022.07 24.1179 Q1025.3 22.3818 1029.91 22.3818 Q1030.57 22.3818 1031.37 22.486 Q1032.17 22.5554 1033.14 22.729 L1033.18 29.2915 Z" fill="#000000" fill-rule="evenodd" fill-opacity="1" /><path clip-path="url(#clip410)" d="M1055.23 8.24996 Q1050.57 16.236 1048.32 24.0485 Q1046.06 31.8609 1046.06 39.8817 Q1046.06 47.9025 1048.32 55.7844 Q1050.61 63.6316 1055.23 71.5829 L1049.67 71.5829 Q1044.46 63.4233 1041.86 55.5414 Q1039.29 47.6595 1039.29 39.8817 Q1039.29 32.1387 1041.86 24.2915 Q1044.43 16.4444 1049.67 8.24996 L1055.23 8.24996 Z" fill="#000000" fill-rule="evenodd" fill-opacity="1" /><path clip-path="url(#clip410)" d="M1103.25 54.8122 L1103.25 40.8887 L1091.79 40.8887 L1091.79 35.1248 L1110.19 35.1248 L1110.19 57.3816 Q1106.13 60.2636 1101.23 61.7566 Q1096.34 63.2149 1090.78 63.2149 Q1078.63 63.2149 1071.75 56.1316 Q1064.91 49.0136 1064.91 36.3401 Q1064.91 23.6318 1071.75 16.5485 Q1078.63 9.43051 1090.78 9.43051 Q1095.85 9.43051 1100.4 10.6805 Q1104.98 11.9305 1108.84 14.361 L1108.84 21.8263 Q1104.95 18.5277 1100.57 16.861 Q1096.2 15.1944 1091.37 15.1944 Q1081.86 15.1944 1077.07 20.5068 Q1072.31 25.8193 1072.31 36.3401 Q1072.31 46.8261 1077.07 52.1386 Q1081.86 57.4511 1091.37 57.4511 Q1095.09 57.4511 1098 56.8261 Q1100.92 56.1664 1103.25 54.8122 Z" fill="#000000" fill-rule="evenodd" fill-opacity="1" /><path clip-path="url(#clip410)" d="M1147.59 37.9026 Q1149.84 38.6665 1151.96 41.1664 Q1154.11 43.6664 1156.27 48.0414 L1163.39 62.208 L1155.85 62.208 L1149.22 48.9095 Q1146.65 43.7012 1144.22 41.9998 Q1141.82 40.2984 1137.66 40.2984 L1130.02 40.2984 L1130.02 62.208 L1123 62.208 L1123 10.368 L1138.84 10.368 Q1147.73 10.368 1152.1 14.0833 Q1156.48 17.7985 1156.48 25.2985 Q1156.48 30.1943 1154.18 33.4234 Q1151.93 36.6526 1147.59 37.9026 M1130.02 16.1319 L1130.02 34.5345 L1138.84 34.5345 Q1143.91 34.5345 1146.48 32.2082 Q1149.08 29.8471 1149.08 25.2985 Q1149.08 20.7499 1146.48 18.4582 Q1143.91 16.1319 1138.84 16.1319 L1130.02 16.1319 Z" fill="#000000" fill-rule="evenodd" fill-opacity="1" /><path clip-path="url(#clip410)" d="M1171.61 10.368 L1178.66 10.368 L1178.66 41.8609 Q1178.66 50.1942 1181.68 53.8747 Q1184.7 57.5205 1191.48 57.5205 Q1198.21 57.5205 1201.23 53.8747 Q1204.25 50.1942 1204.25 41.8609 L1204.25 10.368 L1211.3 10.368 L1211.3 42.7289 Q1211.3 52.8678 1206.27 58.0414 Q1201.27 63.2149 1191.48 63.2149 Q1181.65 63.2149 1176.61 58.0414 Q1171.61 52.8678 1171.61 42.7289 L1171.61 10.368 Z" fill="#000000" fill-rule="evenodd" fill-opacity="1" /><path clip-path="url(#clip410)" d="M1263.28 14.361 L1263.28 21.7568 Q1259.74 18.4582 1255.71 16.8263 Q1251.72 15.1944 1247.2 15.1944 Q1238.32 15.1944 1233.59 20.6457 Q1228.87 26.0624 1228.87 36.3401 Q1228.87 46.5831 1233.59 52.0344 Q1238.32 57.4511 1247.2 57.4511 Q1251.72 57.4511 1255.71 55.8191 Q1259.74 54.1872 1263.28 50.8886 L1263.28 58.215 Q1259.6 60.715 1255.47 61.9649 Q1251.37 63.2149 1246.79 63.2149 Q1235.02 63.2149 1228.25 56.0275 Q1221.48 48.8053 1221.48 36.3401 Q1221.48 23.8402 1228.25 16.6527 Q1235.02 9.43051 1246.79 9.43051 Q1251.44 9.43051 1255.54 10.6805 Q1259.67 11.8958 1263.28 14.361 Z" fill="#000000" fill-rule="evenodd" fill-opacity="1" /><path clip-path="url(#clip410)" d="M1307.1 41.1664 L1307.1 44.2914 L1277.73 44.2914 Q1278.14 50.8886 1281.68 54.3608 Q1285.26 57.7983 1291.61 57.7983 Q1295.29 57.7983 1298.73 56.8955 Q1302.2 55.9928 1305.61 54.1872 L1305.61 60.2288 Q1302.17 61.6872 1298.56 62.4511 Q1294.95 63.2149 1291.23 63.2149 Q1281.93 63.2149 1276.48 57.7983 Q1271.06 52.3817 1271.06 43.1456 Q1271.06 33.597 1276.2 28.0068 Q1281.37 22.3818 1290.12 22.3818 Q1297.97 22.3818 1302.52 27.4512 Q1307.1 32.4859 1307.1 41.1664 M1300.71 39.2915 Q1300.64 34.0484 1297.76 30.9234 Q1294.91 27.7985 1290.19 27.7985 Q1284.84 27.7985 1281.61 30.8193 Q1278.42 33.8401 1277.93 39.3262 L1300.71 39.2915 Z" fill="#000000" fill-rule="evenodd" fill-opacity="1" /><path clip-path="url(#clip410)" d="M1317.59 8.18051 L1323.98 8.18051 L1323.98 62.208 L1317.59 62.208 L1317.59 8.18051 Z" fill="#000000" fill-rule="evenodd" fill-opacity="1" /><path clip-path="url(#clip410)" d="M1337.34 8.18051 L1343.73 8.18051 L1343.73 62.208 L1337.34 62.208 L1337.34 8.18051 Z" fill="#000000" fill-rule="evenodd" fill-opacity="1" /><path clip-path="url(#clip410)" d="M1372.45 8.24996 Q1367.79 16.236 1365.54 24.0485 Q1363.28 31.8609 1363.28 39.8817 Q1363.28 47.9025 1365.54 55.7844 Q1367.83 63.6316 1372.45 71.5829 L1366.89 71.5829 Q1361.68 63.4233 1359.08 55.5414 Q1356.51 47.6595 1356.51 39.8817 Q1356.51 32.1387 1359.08 24.2915 Q1361.65 16.4444 1366.89 8.24996 L1372.45 8.24996 Z" fill="#000000" fill-rule="evenodd" fill-opacity="1" /><path clip-path="url(#clip410)" d="M1385.81 10.368 L1413.35 10.368 L1413.35 16.2707 L1392.24 16.2707 L1392.24 28.979 Q1393.77 28.4582 1395.29 28.2151 Q1396.82 27.9374 1398.35 27.9374 Q1407.03 27.9374 1412.1 32.6943 Q1417.17 37.4512 1417.17 45.5761 Q1417.17 53.9442 1411.96 58.5969 Q1406.75 63.2149 1397.27 63.2149 Q1394.01 63.2149 1390.61 62.6594 Q1387.24 62.1038 1383.63 60.9927 L1383.63 53.9442 Q1386.75 55.6455 1390.09 56.4789 Q1393.42 57.3122 1397.13 57.3122 Q1403.14 57.3122 1406.65 54.1525 Q1410.16 50.9928 1410.16 45.5761 Q1410.16 40.1595 1406.65 36.9998 Q1403.14 33.8401 1397.13 33.8401 Q1394.32 33.8401 1391.51 34.4651 Q1388.73 35.0901 1385.81 36.4095 L1385.81 10.368 Z" fill="#000000" fill-rule="evenodd" fill-opacity="1" /><path clip-path="url(#clip410)" d="M1431.72 53.3886 L1439.04 53.3886 L1439.04 59.3608 L1433.35 70.4718 L1428.87 70.4718 L1431.72 59.3608 L1431.72 53.3886 Z" fill="#000000" fill-rule="evenodd" fill-opacity="1" /><path clip-path="url(#clip410)" d="M1474.43 10.368 L1507.76 10.368 L1507.76 13.3541 L1488.94 62.208 L1481.61 62.208 L1499.32 16.2707 L1474.43 16.2707 L1474.43 10.368 Z" fill="#000000" fill-rule="evenodd" fill-opacity="1" /><path clip-path="url(#clip410)" d="M1519.53 8.24996 L1525.09 8.24996 Q1530.29 16.4444 1532.86 24.2915 Q1535.47 32.1387 1535.47 39.8817 Q1535.47 47.6595 1532.86 55.5414 Q1530.29 63.4233 1525.09 71.5829 L1519.53 71.5829 Q1524.15 63.6316 1526.4 55.7844 Q1528.7 47.9025 1528.7 39.8817 Q1528.7 31.8609 1526.4 24.0485 Q1524.15 16.236 1519.53 8.24996 Z" fill="#000000" fill-rule="evenodd" fill-opacity="1" /><path clip-path="url(#clip410)" d="M1547.27 8.24996 L1552.83 8.24996 Q1558.04 16.4444 1560.61 24.2915 Q1563.21 32.1387 1563.21 39.8817 Q1563.21 47.6595 1560.61 55.5414 Q1558.04 63.4233 1552.83 71.5829 L1547.27 71.5829 Q1551.89 63.6316 1554.15 55.7844 Q1556.44 47.9025 1556.44 39.8817 Q1556.44 31.8609 1554.15 24.0485 Q1551.89 16.236 1547.27 8.24996 Z" fill="#000000" fill-rule="evenodd" fill-opacity="1" /><polyline clip-path="url(#clip412)" style="stroke:#adadad; stroke-linecap:butt; stroke-linejoin:round; stroke-width:4; stroke-opacity:1; fill:none" points="
  376.603,1045.94 2023.4,1168.45 
  "/>
<polyline clip-path="url(#clip412)" style="stroke:#adadad; stroke-linecap:butt; stroke-linejoin:round; stroke-width:4; stroke-opacity:1; fill:none" points="
  376.603,1045.94 2023.4,1045.94 
  "/>
<polyline clip-path="url(#clip412)" style="stroke:#adadad; stroke-linecap:butt; stroke-linejoin:round; stroke-width:4; stroke-opacity:1; fill:none" points="
  376.603,1045.94 2023.4,923.426 
  "/>
<polyline clip-path="url(#clip412)" style="stroke:#adadad; stroke-linecap:butt; stroke-linejoin:round; stroke-width:4; stroke-opacity:1; fill:none" points="
  376.603,1045.94 2023.4,800.912 
  "/>
<polyline clip-path="url(#clip412)" style="stroke:#adadad; stroke-linecap:butt; stroke-linejoin:round; stroke-width:4; stroke-opacity:1; fill:none" points="
  376.603,1045.94 2023.4,678.398 
  "/>
<polyline clip-path="url(#clip412)" style="stroke:#adadad; stroke-linecap:butt; stroke-linejoin:round; stroke-width:4; stroke-opacity:1; fill:none" points="
  376.603,1045.94 2023.4,555.883 
  "/>
<polyline clip-path="url(#clip412)" style="stroke:#adadad; stroke-linecap:butt; stroke-linejoin:round; stroke-width:4; stroke-opacity:1; fill:none" points="
  376.603,1045.94 2023.4,433.369 
  "/>
<polyline clip-path="url(#clip412)" style="stroke:#adadad; stroke-linecap:butt; stroke-linejoin:round; stroke-width:4; stroke-opacity:1; fill:none" points="
  376.603,923.426 2023.4,1168.45 
  "/>
<polyline clip-path="url(#clip412)" style="stroke:#adadad; stroke-linecap:butt; stroke-linejoin:round; stroke-width:4; stroke-opacity:1; fill:none" points="
  376.603,923.426 2023.4,1045.94 
  "/>
<polyline clip-path="url(#clip412)" style="stroke:#adadad; stroke-linecap:butt; stroke-linejoin:round; stroke-width:4; stroke-opacity:1; fill:none" points="
  376.603,923.426 2023.4,923.426 
  "/>
<polyline clip-path="url(#clip412)" style="stroke:#adadad; stroke-linecap:butt; stroke-linejoin:round; stroke-width:4; stroke-opacity:1; fill:none" points="
  376.603,923.426 2023.4,800.912 
  "/>
<polyline clip-path="url(#clip412)" style="stroke:#adadad; stroke-linecap:butt; stroke-linejoin:round; stroke-width:4; stroke-opacity:1; fill:none" points="
  376.603,923.426 2023.4,678.398 
  "/>
<polyline clip-path="url(#clip412)" style="stroke:#adadad; stroke-linecap:butt; stroke-linejoin:round; stroke-width:4; stroke-opacity:1; fill:none" points="
  376.603,923.426 2023.4,555.883 
  "/>
<polyline clip-path="url(#clip412)" style="stroke:#adadad; stroke-linecap:butt; stroke-linejoin:round; stroke-width:4; stroke-opacity:1; fill:none" points="
  376.603,923.426 2023.4,433.369 
  "/>
<polyline clip-path="url(#clip412)" style="stroke:#adadad; stroke-linecap:butt; stroke-linejoin:round; stroke-width:4; stroke-opacity:1; fill:none" points="
  376.603,800.912 2023.4,1168.45 
  "/>
<polyline clip-path="url(#clip412)" style="stroke:#adadad; stroke-linecap:butt; stroke-linejoin:round; stroke-width:4; stroke-opacity:1; fill:none" points="
  376.603,800.912 2023.4,1045.94 
  "/>
<polyline clip-path="url(#clip412)" style="stroke:#adadad; stroke-linecap:butt; stroke-linejoin:round; stroke-width:4; stroke-opacity:1; fill:none" points="
  376.603,800.912 2023.4,923.426 
  "/>
<polyline clip-path="url(#clip412)" style="stroke:#adadad; stroke-linecap:butt; stroke-linejoin:round; stroke-width:4; stroke-opacity:1; fill:none" points="
  376.603,800.912 2023.4,800.912 
  "/>
<polyline clip-path="url(#clip412)" style="stroke:#adadad; stroke-linecap:butt; stroke-linejoin:round; stroke-width:4; stroke-opacity:1; fill:none" points="
  376.603,800.912 2023.4,678.398 
  "/>
<polyline clip-path="url(#clip412)" style="stroke:#adadad; stroke-linecap:butt; stroke-linejoin:round; stroke-width:4; stroke-opacity:1; fill:none" points="
  376.603,800.912 2023.4,555.883 
  "/>
<polyline clip-path="url(#clip412)" style="stroke:#adadad; stroke-linecap:butt; stroke-linejoin:round; stroke-width:4; stroke-opacity:1; fill:none" points="
  376.603,800.912 2023.4,433.369 
  "/>
<polyline clip-path="url(#clip412)" style="stroke:#adadad; stroke-linecap:butt; stroke-linejoin:round; stroke-width:4; stroke-opacity:1; fill:none" points="
  376.603,678.398 2023.4,1168.45 
  "/>
<polyline clip-path="url(#clip412)" style="stroke:#adadad; stroke-linecap:butt; stroke-linejoin:round; stroke-width:4; stroke-opacity:1; fill:none" points="
  376.603,678.398 2023.4,1045.94 
  "/>
<polyline clip-path="url(#clip412)" style="stroke:#adadad; stroke-linecap:butt; stroke-linejoin:round; stroke-width:4; stroke-opacity:1; fill:none" points="
  376.603,678.398 2023.4,923.426 
  "/>
<polyline clip-path="url(#clip412)" style="stroke:#adadad; stroke-linecap:butt; stroke-linejoin:round; stroke-width:4; stroke-opacity:1; fill:none" points="
  376.603,678.398 2023.4,800.912 
  "/>
<polyline clip-path="url(#clip412)" style="stroke:#adadad; stroke-linecap:butt; stroke-linejoin:round; stroke-width:4; stroke-opacity:1; fill:none" points="
  376.603,678.398 2023.4,678.398 
  "/>
<polyline clip-path="url(#clip412)" style="stroke:#adadad; stroke-linecap:butt; stroke-linejoin:round; stroke-width:4; stroke-opacity:1; fill:none" points="
  376.603,678.398 2023.4,555.883 
  "/>
<polyline clip-path="url(#clip412)" style="stroke:#adadad; stroke-linecap:butt; stroke-linejoin:round; stroke-width:4; stroke-opacity:1; fill:none" points="
  376.603,678.398 2023.4,433.369 
  "/>
<polyline clip-path="url(#clip412)" style="stroke:#adadad; stroke-linecap:butt; stroke-linejoin:round; stroke-width:4; stroke-opacity:1; fill:none" points="
  376.603,555.883 2023.4,1168.45 
  "/>
<polyline clip-path="url(#clip412)" style="stroke:#adadad; stroke-linecap:butt; stroke-linejoin:round; stroke-width:4; stroke-opacity:1; fill:none" points="
  376.603,555.883 2023.4,1045.94 
  "/>
<polyline clip-path="url(#clip412)" style="stroke:#adadad; stroke-linecap:butt; stroke-linejoin:round; stroke-width:4; stroke-opacity:1; fill:none" points="
  376.603,555.883 2023.4,923.426 
  "/>
<polyline clip-path="url(#clip412)" style="stroke:#adadad; stroke-linecap:butt; stroke-linejoin:round; stroke-width:4; stroke-opacity:1; fill:none" points="
  376.603,555.883 2023.4,800.912 
  "/>
<polyline clip-path="url(#clip412)" style="stroke:#adadad; stroke-linecap:butt; stroke-linejoin:round; stroke-width:4; stroke-opacity:1; fill:none" points="
  376.603,555.883 2023.4,678.398 
  "/>
<polyline clip-path="url(#clip412)" style="stroke:#adadad; stroke-linecap:butt; stroke-linejoin:round; stroke-width:4; stroke-opacity:1; fill:none" points="
  376.603,555.883 2023.4,555.883 
  "/>
<polyline clip-path="url(#clip412)" style="stroke:#adadad; stroke-linecap:butt; stroke-linejoin:round; stroke-width:4; stroke-opacity:1; fill:none" points="
  376.603,555.883 2023.4,433.369 
  "/>
<path clip-path="url(#clip412)" d="
M376.603 1086.55 L364.054 1084.56 L352.734 1078.79 L343.75 1069.81 L337.982 1058.49 L335.995 1045.94 L337.982 1033.39 L343.75 1022.07 L352.734 1013.09 L364.054 1007.32 
  L376.603 1005.33 L389.151 1007.32 L400.472 1013.09 L409.455 1022.07 L415.223 1033.39 L417.211 1045.94 L415.223 1058.49 L409.455 1069.81 L400.472 1078.79 L389.151 1084.56 
  L376.603 1086.55  Z
  " fill="#000000" fill-rule="evenodd" fill-opacity="0"/>
<polyline clip-path="url(#clip412)" style="stroke:#000000; stroke-linecap:butt; stroke-linejoin:round; stroke-width:4; stroke-opacity:1; fill:none" points="
  376.603,1086.55 364.054,1084.56 352.734,1078.79 343.75,1069.81 337.982,1058.49 335.995,1045.94 337.982,1033.39 343.75,1022.07 352.734,1013.09 364.054,1007.32 
  376.603,1005.33 389.151,1007.32 400.472,1013.09 409.455,1022.07 415.223,1033.39 417.211,1045.94 415.223,1058.49 409.455,1069.81 400.472,1078.79 389.151,1084.56 
  376.603,1086.55 
  "/>
<path clip-path="url(#clip412)" d="
M376.603 964.034 L364.054 962.047 L352.734 956.279 L343.75 947.295 L337.982 935.975 L335.995 923.426 L337.982 910.878 L343.75 899.557 L352.734 890.574 L364.054 884.806 
  L376.603 882.818 L389.151 884.806 L400.472 890.574 L409.455 899.557 L415.223 910.878 L417.211 923.426 L415.223 935.975 L409.455 947.295 L400.472 956.279 L389.151 962.047 
  L376.603 964.034  Z
  " fill="#000000" fill-rule="evenodd" fill-opacity="0"/>
<polyline clip-path="url(#clip412)" style="stroke:#000000; stroke-linecap:butt; stroke-linejoin:round; stroke-width:4; stroke-opacity:1; fill:none" points="
  376.603,964.034 364.054,962.047 352.734,956.279 343.75,947.295 337.982,935.975 335.995,923.426 337.982,910.878 343.75,899.557 352.734,890.574 364.054,884.806 
  376.603,882.818 389.151,884.806 400.472,890.574 409.455,899.557 415.223,910.878 417.211,923.426 415.223,935.975 409.455,947.295 400.472,956.279 389.151,962.047 
  376.603,964.034 
  "/>
<path clip-path="url(#clip412)" d="
M376.603 841.52 L364.054 839.532 L352.734 833.765 L343.75 824.781 L337.982 813.461 L335.995 800.912 L337.982 788.363 L343.75 777.043 L352.734 768.059 L364.054 762.291 
  L376.603 760.304 L389.151 762.291 L400.472 768.059 L409.455 777.043 L415.223 788.363 L417.211 800.912 L415.223 813.461 L409.455 824.781 L400.472 833.765 L389.151 839.532 
  L376.603 841.52  Z
  " fill="#000000" fill-rule="evenodd" fill-opacity="0"/>
<polyline clip-path="url(#clip412)" style="stroke:#000000; stroke-linecap:butt; stroke-linejoin:round; stroke-width:4; stroke-opacity:1; fill:none" points="
  376.603,841.52 364.054,839.532 352.734,833.765 343.75,824.781 337.982,813.461 335.995,800.912 337.982,788.363 343.75,777.043 352.734,768.059 364.054,762.291 
  376.603,760.304 389.151,762.291 400.472,768.059 409.455,777.043 415.223,788.363 417.211,800.912 415.223,813.461 409.455,824.781 400.472,833.765 389.151,839.532 
  376.603,841.52 
  "/>
<path clip-path="url(#clip412)" d="
M376.603 719.006 L364.054 717.018 L352.734 711.25 L343.75 702.267 L337.982 690.946 L335.995 678.398 L337.982 665.849 L343.75 654.529 L352.734 645.545 L364.054 639.777 
  L376.603 637.79 L389.151 639.777 L400.472 645.545 L409.455 654.529 L415.223 665.849 L417.211 678.398 L415.223 690.946 L409.455 702.267 L400.472 711.25 L389.151 717.018 
  L376.603 719.006  Z
  " fill="#000000" fill-rule="evenodd" fill-opacity="0"/>
<polyline clip-path="url(#clip412)" style="stroke:#000000; stroke-linecap:butt; stroke-linejoin:round; stroke-width:4; stroke-opacity:1; fill:none" points="
  376.603,719.006 364.054,717.018 352.734,711.25 343.75,702.267 337.982,690.946 335.995,678.398 337.982,665.849 343.75,654.529 352.734,645.545 364.054,639.777 
  376.603,637.79 389.151,639.777 400.472,645.545 409.455,654.529 415.223,665.849 417.211,678.398 415.223,690.946 409.455,702.267 400.472,711.25 389.151,717.018 
  376.603,719.006 
  "/>
<path clip-path="url(#clip412)" d="
M376.603 596.491 L364.054 594.504 L352.734 588.736 L343.75 579.752 L337.982 568.432 L335.995 555.883 L337.982 543.335 L343.75 532.015 L352.734 523.031 L364.054 517.263 
  L376.603 515.275 L389.151 517.263 L400.472 523.031 L409.455 532.015 L415.223 543.335 L417.211 555.883 L415.223 568.432 L409.455 579.752 L400.472 588.736 L389.151 594.504 
  L376.603 596.491  Z
  " fill="#000000" fill-rule="evenodd" fill-opacity="0"/>
<polyline clip-path="url(#clip412)" style="stroke:#000000; stroke-linecap:butt; stroke-linejoin:round; stroke-width:4; stroke-opacity:1; fill:none" points="
  376.603,596.491 364.054,594.504 352.734,588.736 343.75,579.752 337.982,568.432 335.995,555.883 337.982,543.335 343.75,532.015 352.734,523.031 364.054,517.263 
  376.603,515.275 389.151,517.263 400.472,523.031 409.455,532.015 415.223,543.335 417.211,555.883 415.223,568.432 409.455,579.752 400.472,588.736 389.151,594.504 
  376.603,596.491 
  "/>
<path clip-path="url(#clip412)" d="
M2023.4 1174.21 L2018.95 1172.24 L2014.93 1166.51 L2011.75 1157.59 L2009.7 1146.35 L2009 1133.89 L2009.7 1121.44 L2011.75 1110.2 L2014.93 1101.28 L2018.95 1095.55 
  L2023.4 1093.57 L2027.85 1095.55 L2031.86 1101.28 L2035.05 1110.2 L2037.09 1121.44 L2037.8 1133.89 L2037.09 1146.35 L2035.05 1157.59 L2031.86 1166.51 L2027.85 1172.24 
  L2023.4 1174.21 L2023.4 1162.69 L2014.5 1161.29 L2006.47 1157.19 L2000.1 1150.82 L1996.01 1142.79 L1994.6 1133.89 L1996.01 1125 L2000.1 1116.97 L2006.47 1110.6 
  L2014.5 1106.5 L2023.4 1105.09 L2032.3 1106.5 L2040.33 1110.6 L2046.7 1116.97 L2050.79 1125 L2052.2 1133.89 L2050.79 1142.79 L2046.7 1150.82 L2040.33 1157.19 
  L2032.3 1161.29 L2023.4 1162.69  Z
  " fill="#000000" fill-rule="evenodd" fill-opacity="0"/>
<polyline clip-path="url(#clip412)" style="stroke:#000000; stroke-linecap:butt; stroke-linejoin:round; stroke-width:4; stroke-opacity:1; fill:none" points="
  2023.4,1174.21 2018.95,1172.24 2014.93,1166.51 2011.75,1157.59 2009.7,1146.35 2009,1133.89 2009.7,1121.44 2011.75,1110.2 2014.93,1101.28 2018.95,1095.55 
  2023.4,1093.57 2027.85,1095.55 2031.86,1101.28 2035.05,1110.2 2037.09,1121.44 2037.8,1133.89 2037.09,1146.35 2035.05,1157.59 2031.86,1166.51 2027.85,1172.24 
  2023.4,1174.21 2023.4,1162.69 2014.5,1161.29 2006.47,1157.19 2000.1,1150.82 1996.01,1142.79 1994.6,1133.89 1996.01,1125 2000.1,1116.97 2006.47,1110.6 
  2014.5,1106.5 2023.4,1105.09 2032.3,1106.5 2040.33,1110.6 2046.7,1116.97 2050.79,1125 2052.2,1133.89 2050.79,1142.79 2046.7,1150.82 2040.33,1157.19 
  2032.3,1161.29 2023.4,1162.69 
  "/>
<path clip-path="url(#clip412)" d="
M2023.4 1051.7 L2018.95 1049.73 L2014.93 1044 L2011.75 1035.08 L2009.7 1023.84 L2009 1011.38 L2009.7 998.921 L2011.75 987.681 L2014.93 978.761 L2018.95 973.034 
  L2023.4 971.061 L2027.85 973.034 L2031.86 978.761 L2035.05 987.681 L2037.09 998.921 L2037.8 1011.38 L2037.09 1023.84 L2035.05 1035.08 L2031.86 1044 L2027.85 1049.73 
  L2023.4 1051.7 L2023.4 1040.18 L2014.5 1038.77 L2006.47 1034.68 L2000.1 1028.31 L1996.01 1020.28 L1994.6 1011.38 L1996.01 1002.48 L2000.1 994.452 L2006.47 988.081 
  L2014.5 983.99 L2023.4 982.581 L2032.3 983.99 L2040.33 988.081 L2046.7 994.452 L2050.79 1002.48 L2052.2 1011.38 L2050.79 1020.28 L2046.7 1028.31 L2040.33 1034.68 
  L2032.3 1038.77 L2023.4 1040.18  Z
  " fill="#000000" fill-rule="evenodd" fill-opacity="0"/>
<polyline clip-path="url(#clip412)" style="stroke:#000000; stroke-linecap:butt; stroke-linejoin:round; stroke-width:4; stroke-opacity:1; fill:none" points="
  2023.4,1051.7 2018.95,1049.73 2014.93,1044 2011.75,1035.08 2009.7,1023.84 2009,1011.38 2009.7,998.921 2011.75,987.681 2014.93,978.761 2018.95,973.034 
  2023.4,971.061 2027.85,973.034 2031.86,978.761 2035.05,987.681 2037.09,998.921 2037.8,1011.38 2037.09,1023.84 2035.05,1035.08 2031.86,1044 2027.85,1049.73 
  2023.4,1051.7 2023.4,1040.18 2014.5,1038.77 2006.47,1034.68 2000.1,1028.31 1996.01,1020.28 1994.6,1011.38 1996.01,1002.48 2000.1,994.452 2006.47,988.081 
  2014.5,983.99 2023.4,982.581 2032.3,983.99 2040.33,988.081 2046.7,994.452 2050.79,1002.48 2052.2,1011.38 2050.79,1020.28 2046.7,1028.31 2040.33,1034.68 
  2032.3,1038.77 2023.4,1040.18 
  "/>
<path clip-path="url(#clip412)" d="
M2023.4 929.186 L2018.95 927.213 L2014.93 921.486 L2011.75 912.566 L2009.7 901.326 L2009 888.866 L2009.7 876.407 L2011.75 865.167 L2014.93 856.247 L2018.95 850.52 
  L2023.4 848.546 L2027.85 850.52 L2031.86 856.247 L2035.05 865.167 L2037.09 876.407 L2037.8 888.866 L2037.09 901.326 L2035.05 912.566 L2031.86 921.486 L2027.85 927.213 
  L2023.4 929.186 L2023.4 917.666 L2014.5 916.257 L2006.47 912.166 L2000.1 905.794 L1996.01 897.766 L1994.6 888.866 L1996.01 879.967 L2000.1 871.938 L2006.47 865.567 
  L2014.5 861.476 L2023.4 860.066 L2032.3 861.476 L2040.33 865.567 L2046.7 871.938 L2050.79 879.967 L2052.2 888.866 L2050.79 897.766 L2046.7 905.794 L2040.33 912.166 
  L2032.3 916.257 L2023.4 917.666  Z
  " fill="#000000" fill-rule="evenodd" fill-opacity="0"/>
<polyline clip-path="url(#clip412)" style="stroke:#000000; stroke-linecap:butt; stroke-linejoin:round; stroke-width:4; stroke-opacity:1; fill:none" points="
  2023.4,929.186 2018.95,927.213 2014.93,921.486 2011.75,912.566 2009.7,901.326 2009,888.866 2009.7,876.407 2011.75,865.167 2014.93,856.247 2018.95,850.52 
  2023.4,848.546 2027.85,850.52 2031.86,856.247 2035.05,865.167 2037.09,876.407 2037.8,888.866 2037.09,901.326 2035.05,912.566 2031.86,921.486 2027.85,927.213 
  2023.4,929.186 2023.4,917.666 2014.5,916.257 2006.47,912.166 2000.1,905.794 1996.01,897.766 1994.6,888.866 1996.01,879.967 2000.1,871.938 2006.47,865.567 
  2014.5,861.476 2023.4,860.066 2032.3,861.476 2040.33,865.567 2046.7,871.938 2050.79,879.967 2052.2,888.866 2050.79,897.766 2046.7,905.794 2040.33,912.166 
  2032.3,916.257 2023.4,917.666 
  "/>
<path clip-path="url(#clip412)" d="
M2023.4 806.672 L2018.95 804.699 L2014.93 798.972 L2011.75 790.051 L2009.7 778.812 L2009 766.352 L2009.7 753.892 L2011.75 742.652 L2014.93 733.732 L2018.95 728.005 
  L2023.4 726.032 L2027.85 728.005 L2031.86 733.732 L2035.05 742.652 L2037.09 753.892 L2037.8 766.352 L2037.09 778.812 L2035.05 790.051 L2031.86 798.972 L2027.85 804.699 
  L2023.4 806.672 L2023.4 795.152 L2014.5 793.742 L2006.47 789.652 L2000.1 783.28 L1996.01 775.252 L1994.6 766.352 L1996.01 757.452 L2000.1 749.424 L2006.47 743.052 
  L2014.5 738.962 L2023.4 737.552 L2032.3 738.962 L2040.33 743.052 L2046.7 749.424 L2050.79 757.452 L2052.2 766.352 L2050.79 775.252 L2046.7 783.28 L2040.33 789.652 
  L2032.3 793.742 L2023.4 795.152  Z
  " fill="#000000" fill-rule="evenodd" fill-opacity="0"/>
<polyline clip-path="url(#clip412)" style="stroke:#000000; stroke-linecap:butt; stroke-linejoin:round; stroke-width:4; stroke-opacity:1; fill:none" points="
  2023.4,806.672 2018.95,804.699 2014.93,798.972 2011.75,790.051 2009.7,778.812 2009,766.352 2009.7,753.892 2011.75,742.652 2014.93,733.732 2018.95,728.005 
  2023.4,726.032 2027.85,728.005 2031.86,733.732 2035.05,742.652 2037.09,753.892 2037.8,766.352 2037.09,778.812 2035.05,790.051 2031.86,798.972 2027.85,804.699 
  2023.4,806.672 2023.4,795.152 2014.5,793.742 2006.47,789.652 2000.1,783.28 1996.01,775.252 1994.6,766.352 1996.01,757.452 2000.1,749.424 2006.47,743.052 
  2014.5,738.962 2023.4,737.552 2032.3,738.962 2040.33,743.052 2046.7,749.424 2050.79,757.452 2052.2,766.352 2050.79,775.252 2046.7,783.28 2040.33,789.652 
  2032.3,793.742 2023.4,795.152 
  "/>
<path clip-path="url(#clip412)" d="
M2023.4 684.158 L2018.95 682.184 L2014.93 676.457 L2011.75 667.537 L2009.7 656.297 L2009 643.838 L2009.7 631.378 L2011.75 620.138 L2014.93 611.218 L2018.95 605.491 
  L2023.4 603.518 L2027.85 605.491 L2031.86 611.218 L2035.05 620.138 L2037.09 631.378 L2037.8 643.838 L2037.09 656.297 L2035.05 667.537 L2031.86 676.457 L2027.85 682.184 
  L2023.4 684.158 L2023.4 672.638 L2014.5 671.228 L2006.47 667.137 L2000.1 660.766 L1996.01 652.737 L1994.6 643.838 L1996.01 634.938 L2000.1 626.91 L2006.47 620.538 
  L2014.5 616.447 L2023.4 615.038 L2032.3 616.447 L2040.33 620.538 L2046.7 626.91 L2050.79 634.938 L2052.2 643.838 L2050.79 652.737 L2046.7 660.766 L2040.33 667.137 
  L2032.3 671.228 L2023.4 672.638  Z
  " fill="#000000" fill-rule="evenodd" fill-opacity="0"/>
<polyline clip-path="url(#clip412)" style="stroke:#000000; stroke-linecap:butt; stroke-linejoin:round; stroke-width:4; stroke-opacity:1; fill:none" points="
  2023.4,684.158 2018.95,682.184 2014.93,676.457 2011.75,667.537 2009.7,656.297 2009,643.838 2009.7,631.378 2011.75,620.138 2014.93,611.218 2018.95,605.491 
  2023.4,603.518 2027.85,605.491 2031.86,611.218 2035.05,620.138 2037.09,631.378 2037.8,643.838 2037.09,656.297 2035.05,667.537 2031.86,676.457 2027.85,682.184 
  2023.4,684.158 2023.4,672.638 2014.5,671.228 2006.47,667.137 2000.1,660.766 1996.01,652.737 1994.6,643.838 1996.01,634.938 2000.1,626.91 2006.47,620.538 
  2014.5,616.447 2023.4,615.038 2032.3,616.447 2040.33,620.538 2046.7,626.91 2050.79,634.938 2052.2,643.838 2050.79,652.737 2046.7,660.766 2040.33,667.137 
  2032.3,671.228 2023.4,672.638 
  "/>
<path clip-path="url(#clip412)" d="
M2023.4 561.643 L2018.95 559.67 L2014.93 553.943 L2011.75 545.023 L2009.7 533.783 L2009 521.323 L2009.7 508.864 L2011.75 497.624 L2014.93 488.704 L2018.95 482.977 
  L2023.4 481.003 L2027.85 482.977 L2031.86 488.704 L2035.05 497.624 L2037.09 508.864 L2037.8 521.323 L2037.09 533.783 L2035.05 545.023 L2031.86 553.943 L2027.85 559.67 
  L2023.4 561.643 L2023.4 550.123 L2014.5 548.714 L2006.47 544.623 L2000.1 538.252 L1996.01 530.223 L1994.6 521.323 L1996.01 512.424 L2000.1 504.395 L2006.47 498.024 
  L2014.5 493.933 L2023.4 492.523 L2032.3 493.933 L2040.33 498.024 L2046.7 504.395 L2050.79 512.424 L2052.2 521.323 L2050.79 530.223 L2046.7 538.252 L2040.33 544.623 
  L2032.3 548.714 L2023.4 550.123  Z
  " fill="#000000" fill-rule="evenodd" fill-opacity="0"/>
<polyline clip-path="url(#clip412)" style="stroke:#000000; stroke-linecap:butt; stroke-linejoin:round; stroke-width:4; stroke-opacity:1; fill:none" points="
  2023.4,561.643 2018.95,559.67 2014.93,553.943 2011.75,545.023 2009.7,533.783 2009,521.323 2009.7,508.864 2011.75,497.624 2014.93,488.704 2018.95,482.977 
  2023.4,481.003 2027.85,482.977 2031.86,488.704 2035.05,497.624 2037.09,508.864 2037.8,521.323 2037.09,533.783 2035.05,545.023 2031.86,553.943 2027.85,559.67 
  2023.4,561.643 2023.4,550.123 2014.5,548.714 2006.47,544.623 2000.1,538.252 1996.01,530.223 1994.6,521.323 1996.01,512.424 2000.1,504.395 2006.47,498.024 
  2014.5,493.933 2023.4,492.523 2032.3,493.933 2040.33,498.024 2046.7,504.395 2050.79,512.424 2052.2,521.323 2050.79,530.223 2046.7,538.252 2040.33,544.623 
  2032.3,548.714 2023.4,550.123 
  "/>
<path clip-path="url(#clip412)" d="
M2023.4 439.129 L2018.95 437.156 L2014.93 431.429 L2011.75 422.509 L2009.7 411.269 L2009 398.809 L2009.7 386.35 L2011.75 375.11 L2014.93 366.19 L2018.95 360.463 
  L2023.4 358.489 L2027.85 360.463 L2031.86 366.19 L2035.05 375.11 L2037.09 386.35 L2037.8 398.809 L2037.09 411.269 L2035.05 422.509 L2031.86 431.429 L2027.85 437.156 
  L2023.4 439.129 L2023.4 427.609 L2014.5 426.2 L2006.47 422.109 L2000.1 415.737 L1996.01 407.709 L1994.6 398.809 L1996.01 389.91 L2000.1 381.881 L2006.47 375.51 
  L2014.5 371.419 L2023.4 370.009 L2032.3 371.419 L2040.33 375.51 L2046.7 381.881 L2050.79 389.91 L2052.2 398.809 L2050.79 407.709 L2046.7 415.737 L2040.33 422.109 
  L2032.3 426.2 L2023.4 427.609  Z
  " fill="#000000" fill-rule="evenodd" fill-opacity="0"/>
<polyline clip-path="url(#clip412)" style="stroke:#000000; stroke-linecap:butt; stroke-linejoin:round; stroke-width:4; stroke-opacity:1; fill:none" points="
  2023.4,439.129 2018.95,437.156 2014.93,431.429 2011.75,422.509 2009.7,411.269 2009,398.809 2009.7,386.35 2011.75,375.11 2014.93,366.19 2018.95,360.463 
  2023.4,358.489 2027.85,360.463 2031.86,366.19 2035.05,375.11 2037.09,386.35 2037.8,398.809 2037.09,411.269 2035.05,422.509 2031.86,431.429 2027.85,437.156 
  2023.4,439.129 2023.4,427.609 2014.5,426.2 2006.47,422.109 2000.1,415.737 1996.01,407.709 1994.6,398.809 1996.01,389.91 2000.1,381.881 2006.47,375.51 
  2014.5,371.419 2023.4,370.009 2032.3,371.419 2040.33,375.51 2046.7,381.881 2050.79,389.91 2052.2,398.809 2050.79,407.709 2046.7,415.737 2040.33,422.109 
  2032.3,426.2 2023.4,427.609 
  "/>
<path clip-path="url(#clip412)" d="M415.003 1045.94 L357.403 1012.34 L357.403 1079.54 L415.003 1045.94 Z" fill="#ffff00" fill-rule="evenodd" fill-opacity="1" stroke="#000000" stroke-opacity="1" stroke-width="3.2"/>
<path clip-path="url(#clip412)" d="M415.003 923.426 L357.403 889.826 L357.403 957.026 L415.003 923.426 Z" fill="#ffff00" fill-rule="evenodd" fill-opacity="1" stroke="#000000" stroke-opacity="1" stroke-width="3.2"/>
<path clip-path="url(#clip412)" d="M415.003 800.912 L357.403 767.312 L357.403 834.512 L415.003 800.912 Z" fill="#ffff00" fill-rule="evenodd" fill-opacity="1" stroke="#000000" stroke-opacity="1" stroke-width="3.2"/>
<path clip-path="url(#clip412)" d="M415.003 678.398 L357.403 644.798 L357.403 711.998 L415.003 678.398 Z" fill="#ffff00" fill-rule="evenodd" fill-opacity="1" stroke="#000000" stroke-opacity="1" stroke-width="3.2"/>
<path clip-path="url(#clip412)" d="M415.003 555.883 L357.403 522.283 L357.403 589.483 L415.003 555.883 Z" fill="#ffff00" fill-rule="evenodd" fill-opacity="1" stroke="#000000" stroke-opacity="1" stroke-width="3.2"/>
<circle clip-path="url(#clip412)" cx="2023.4" cy="1168.45" r="43" fill="#6ca6cd" fill-rule="evenodd" fill-opacity="1" stroke="#000000" stroke-opacity="1" stroke-width="3.2"/>
<circle clip-path="url(#clip412)" cx="2023.4" cy="1045.94" r="43" fill="#6ca6cd" fill-rule="evenodd" fill-opacity="1" stroke="#000000" stroke-opacity="1" stroke-width="3.2"/>
<circle clip-path="url(#clip412)" cx="2023.4" cy="923.426" r="43" fill="#6ca6cd" fill-rule="evenodd" fill-opacity="1" stroke="#000000" stroke-opacity="1" stroke-width="3.2"/>
<circle clip-path="url(#clip412)" cx="2023.4" cy="800.912" r="43" fill="#6ca6cd" fill-rule="evenodd" fill-opacity="1" stroke="#000000" stroke-opacity="1" stroke-width="3.2"/>
<circle clip-path="url(#clip412)" cx="2023.4" cy="678.398" r="43" fill="#6ca6cd" fill-rule="evenodd" fill-opacity="1" stroke="#000000" stroke-opacity="1" stroke-width="3.2"/>
<circle clip-path="url(#clip412)" cx="2023.4" cy="555.883" r="43" fill="#6ca6cd" fill-rule="evenodd" fill-opacity="1" stroke="#000000" stroke-opacity="1" stroke-width="3.2"/>
<circle clip-path="url(#clip412)" cx="2023.4" cy="433.369" r="43" fill="#6ca6cd" fill-rule="evenodd" fill-opacity="1" stroke="#000000" stroke-opacity="1" stroke-width="3.2"/>
<path clip-path="url(#clip412)" d="M2061.8 1168.45 L2004.2 1134.85 L2004.2 1202.05 L2061.8 1168.45 Z" fill="#ffa500" fill-rule="evenodd" fill-opacity="1" stroke="#000000" stroke-opacity="1" stroke-width="3.2"/>
<path clip-path="url(#clip412)" d="M2061.8 1045.94 L2004.2 1012.34 L2004.2 1079.54 L2061.8 1045.94 Z" fill="#ffa500" fill-rule="evenodd" fill-opacity="1" stroke="#000000" stroke-opacity="1" stroke-width="3.2"/>
<path clip-path="url(#clip412)" d="M2061.8 923.426 L2004.2 889.826 L2004.2 957.026 L2061.8 923.426 Z" fill="#ffa500" fill-rule="evenodd" fill-opacity="1" stroke="#000000" stroke-opacity="1" stroke-width="3.2"/>
<path clip-path="url(#clip412)" d="M2061.8 800.912 L2004.2 767.312 L2004.2 834.512 L2061.8 800.912 Z" fill="#ffa500" fill-rule="evenodd" fill-opacity="1" stroke="#000000" stroke-opacity="1" stroke-width="3.2"/>
<path clip-path="url(#clip412)" d="M2061.8 678.398 L2004.2 644.798 L2004.2 711.998 L2061.8 678.398 Z" fill="#ffa500" fill-rule="evenodd" fill-opacity="1" stroke="#000000" stroke-opacity="1" stroke-width="3.2"/>
<path clip-path="url(#clip412)" d="M2061.8 555.883 L2004.2 522.283 L2004.2 589.483 L2061.8 555.883 Z" fill="#ffa500" fill-rule="evenodd" fill-opacity="1" stroke="#000000" stroke-opacity="1" stroke-width="3.2"/>
<path clip-path="url(#clip412)" d="M2061.8 433.369 L2004.2 399.769 L2004.2 466.969 L2061.8 433.369 Z" fill="#ffa500" fill-rule="evenodd" fill-opacity="1" stroke="#000000" stroke-opacity="1" stroke-width="3.2"/>
<path clip-path="url(#clip410)" d="M318.983 445.14 L322.985 443.684 L331.853 468.046 L327.85 469.503 L318.983 445.14 M315.531 435.657 L319.534 434.2 L321.378 439.268 L317.376 440.725 L315.531 435.657 Z" fill="#000000" fill-rule="evenodd" fill-opacity="1" /><path clip-path="url(#clip410)" d="M355.126 442.923 L360.478 457.627 L356.476 459.084 L351.171 444.51 Q349.913 441.051 347.939 439.824 Q345.964 438.596 343.267 439.578 Q340.026 440.758 338.908 443.505 Q337.789 446.252 339.087 449.82 L344.099 463.589 L340.075 465.053 L331.208 440.691 L335.232 439.226 L336.609 443.011 Q337.245 440.292 338.785 438.5 Q340.347 436.699 342.892 435.773 Q347.09 434.245 350.194 436.072 Q353.29 437.876 355.126 442.923 Z" fill="#000000" fill-rule="evenodd" fill-opacity="1" /><path clip-path="url(#clip410)" d="M371.003 449.658 L375.706 462.579 L371.682 464.043 L359.442 430.415 L363.466 428.95 L364.812 432.648 Q365.282 430.013 366.816 428.273 Q368.364 426.502 371.039 425.528 Q375.477 423.913 379.522 426.432 Q383.589 428.942 385.679 434.685 Q387.769 440.427 386.267 444.964 Q384.787 449.494 380.35 451.109 Q377.674 452.083 375.358 451.743 Q373.056 451.374 371.003 449.658 M381.524 436.197 Q379.917 431.781 377.179 429.945 Q374.456 428.079 371.28 429.234 Q368.104 430.39 367.195 433.579 Q366.3 436.737 367.907 441.153 Q369.515 445.569 372.238 447.435 Q374.976 449.271 378.152 448.115 Q381.328 446.959 382.223 443.801 Q383.131 440.612 381.524 436.197 Z" fill="#000000" fill-rule="evenodd" fill-opacity="1" /><path clip-path="url(#clip410)" d="M392.826 434.965 L387.458 420.217 L391.461 418.761 L396.773 433.356 Q398.032 436.815 400.014 438.064 Q401.988 439.292 404.685 438.31 Q407.926 437.13 409.045 434.383 Q410.185 431.628 408.887 428.061 L403.859 414.248 L407.862 412.791 L416.729 437.154 L412.727 438.61 L411.365 434.869 Q410.715 437.618 409.175 439.41 Q407.649 441.173 405.104 442.099 Q400.906 443.627 397.78 441.809 Q394.655 439.99 392.826 434.965 M397.316 415.965 L397.316 415.965 Z" fill="#000000" fill-rule="evenodd" fill-opacity="1" /><path clip-path="url(#clip410)" d="M417.547 401.433 L420.065 408.35 L428.309 405.349 L429.441 408.46 L421.197 411.46 L426.01 424.686 Q427.095 427.666 428.209 428.221 Q429.344 428.768 431.846 427.858 L435.957 426.362 L437.176 429.711 L433.065 431.208 Q428.432 432.894 426.044 431.817 Q423.649 430.718 421.986 426.15 L417.173 412.925 L414.236 413.994 L413.104 410.883 L416.041 409.814 L413.523 402.897 L417.547 401.433 Z" fill="#000000" fill-rule="evenodd" fill-opacity="1" /><path clip-path="url(#clip410)" d="M1811.63 389.078 Q1813.22 389.042 1815.11 390.125 Q1817.03 391.2 1819.38 393.45 L1827.07 400.702 L1822.35 402.42 L1815.16 395.601 Q1812.36 392.924 1810.45 392.413 Q1808.56 391.893 1805.95 392.843 L1801.17 394.585 L1806.16 408.31 L1801.77 409.91 L1789.95 377.434 L1799.87 373.824 Q1805.44 371.797 1809.03 373.127 Q1812.61 374.457 1814.32 379.155 Q1815.44 382.222 1814.74 384.768 Q1814.06 387.305 1811.63 389.078 M1795.66 379.445 L1799.85 390.974 L1805.38 388.963 Q1808.55 387.807 1809.63 385.764 Q1810.73 383.691 1809.69 380.841 Q1808.65 377.992 1806.5 377.15 Q1804.36 376.279 1801.18 377.434 L1795.66 379.445 Z" fill="#000000" fill-rule="evenodd" fill-opacity="1" /><path clip-path="url(#clip410)" d="M1846.59 378.669 L1847.3 380.627 L1828.9 387.324 Q1830.66 391.362 1833.67 392.73 Q1836.7 394.068 1840.68 392.619 Q1842.99 391.78 1844.93 390.431 Q1846.9 389.073 1848.62 387.166 L1850 390.951 Q1848.18 392.649 1846.09 393.951 Q1844 395.252 1841.68 396.1 Q1835.85 398.221 1831.2 396.071 Q1826.57 393.913 1824.46 388.127 Q1822.28 382.145 1824.23 377.471 Q1826.19 372.768 1831.67 370.773 Q1836.58 368.983 1840.59 371.122 Q1844.61 373.231 1846.59 378.669 M1842.16 378.951 Q1840.92 375.682 1838.4 374.382 Q1835.91 373.073 1832.95 374.15 Q1829.6 375.369 1828.26 377.998 Q1826.95 380.619 1827.9 384.166 L1842.16 378.951 Z" fill="#000000" fill-rule="evenodd" fill-opacity="1" /><path clip-path="url(#clip410)" d="M1866.96 359.652 L1868.32 363.393 Q1866.29 363.075 1864.4 363.244 Q1862.53 363.383 1860.79 364.016 Q1856.9 365.433 1855.65 368.697 Q1854.39 371.939 1856.01 376.398 Q1857.63 380.857 1860.69 382.553 Q1863.74 384.227 1867.63 382.81 Q1869.37 382.177 1870.9 381.102 Q1872.45 379.998 1873.8 378.445 L1875.15 382.143 Q1873.76 383.536 1872.09 384.585 Q1870.45 385.625 1868.43 386.362 Q1862.93 388.365 1858.43 386.086 Q1853.93 383.807 1851.79 377.934 Q1849.62 371.974 1851.64 367.371 Q1853.68 362.76 1859.38 360.686 Q1861.23 360.013 1863.13 359.763 Q1865.03 359.492 1866.96 359.652 Z" fill="#000000" fill-rule="evenodd" fill-opacity="1" /><path clip-path="url(#clip410)" d="M1878.54 371.081 L1873.17 356.333 L1877.17 354.876 L1882.48 369.472 Q1883.74 372.931 1885.72 374.18 Q1887.7 375.408 1890.39 374.426 Q1893.64 373.246 1894.75 370.499 Q1895.89 367.744 1894.6 364.176 L1889.57 350.364 L1893.57 348.907 L1902.44 373.269 L1898.44 374.726 L1897.07 370.985 Q1896.42 373.734 1894.88 375.526 Q1893.36 377.289 1890.81 378.215 Q1886.62 379.743 1883.49 377.924 Q1880.36 376.106 1878.54 371.081 M1883.03 352.08 L1883.03 352.08 Z" fill="#000000" fill-rule="evenodd" fill-opacity="1" /><path clip-path="url(#clip410)" d="M1917.29 344.51 Q1916.48 344.363 1915.61 344.482 Q1914.75 344.572 1913.8 344.92 Q1910.4 346.155 1909.38 349.039 Q1908.38 351.893 1909.88 356.026 L1914.55 368.859 L1910.53 370.324 L1901.66 345.962 L1905.69 344.497 L1907.06 348.282 Q1907.52 345.604 1909.15 343.802 Q1910.78 341.978 1913.67 340.925 Q1914.09 340.775 1914.61 340.658 Q1915.13 340.519 1915.78 340.406 L1917.29 344.51 Z" fill="#000000" fill-rule="evenodd" fill-opacity="1" /><path clip-path="url(#clip410)" d="M1926.31 326.3 Q1925.22 332.364 1925.58 337.773 Q1925.95 343.182 1927.78 348.207 Q1929.61 353.231 1932.82 357.655 Q1936.04 362.048 1940.75 365.976 L1937.27 367.243 Q1932.15 363.319 1928.72 358.975 Q1925.31 354.623 1923.54 349.751 Q1921.77 344.9 1921.59 339.398 Q1921.41 333.896 1922.83 327.567 L1926.31 326.3 Z" fill="#000000" fill-rule="evenodd" fill-opacity="1" /><path clip-path="url(#clip410)" d="M1967.01 344.521 L1963.83 335.798 L1956.66 338.411 L1955.34 334.8 L1966.87 330.604 L1971.95 344.547 Q1970.06 347.279 1967.33 349.33 Q1964.6 351.36 1961.12 352.627 Q1953.5 355.398 1947.58 352.528 Q1941.67 349.629 1938.78 341.689 Q1935.89 333.728 1938.56 327.731 Q1941.24 321.704 1948.85 318.933 Q1952.03 317.777 1955.16 317.523 Q1958.32 317.261 1961.29 317.905 L1962.99 322.582 Q1959.8 321.402 1956.68 321.355 Q1953.56 321.309 1950.54 322.409 Q1944.58 324.578 1942.79 328.999 Q1941.02 333.412 1943.42 340.003 Q1945.81 346.572 1950 348.815 Q1954.21 351.051 1960.17 348.881 Q1962.5 348.034 1964.18 346.978 Q1965.86 345.899 1967.01 344.521 Z" fill="#000000" fill-rule="evenodd" fill-opacity="1" /><path clip-path="url(#clip410)" d="M1990.93 323.817 Q1992.52 323.781 1994.42 324.864 Q1996.33 325.94 1998.68 328.19 L2006.37 335.441 L2001.65 337.159 L1994.46 330.341 Q1991.67 327.664 1989.75 327.152 Q1987.87 326.632 1985.26 327.582 L1980.47 329.324 L1985.47 343.05 L1981.07 344.649 L1969.25 312.173 L1979.17 308.563 Q1984.74 306.536 1988.33 307.866 Q1991.92 309.196 1993.63 313.895 Q1994.74 316.962 1994.04 319.507 Q1993.36 322.045 1990.93 323.817 M1974.96 314.185 L1979.16 325.713 L1984.68 323.702 Q1987.86 322.547 1988.94 320.503 Q1990.03 318.43 1988.99 315.581 Q1987.95 312.731 1985.8 311.889 Q1983.66 311.018 1980.49 312.174 L1974.96 314.185 Z" fill="#000000" fill-rule="evenodd" fill-opacity="1" /><path clip-path="url(#clip410)" d="M1999.7 301.089 L2004.12 299.482 L2011.3 319.211 Q2013.2 324.432 2015.93 326.049 Q2018.66 327.644 2022.9 326.1 Q2027.12 324.564 2028.18 321.591 Q2029.23 318.597 2027.33 313.376 L2020.15 293.647 L2024.57 292.04 L2031.95 312.313 Q2034.26 318.665 2032.28 323.054 Q2030.33 327.435 2024.2 329.667 Q2018.04 331.908 2013.71 329.815 Q2009.4 327.714 2007.08 321.362 L1999.7 301.089 Z" fill="#000000" fill-rule="evenodd" fill-opacity="1" /><path clip-path="url(#clip410)" d="M2058.04 282.69 L2059.73 287.323 Q2056.76 286.064 2053.86 285.96 Q2050.99 285.848 2048.16 286.877 Q2042.59 288.904 2040.88 293.396 Q2039.15 297.866 2041.5 304.305 Q2043.83 310.721 2048.03 313.06 Q2052.23 315.376 2057.79 313.35 Q2060.62 312.32 2062.75 310.387 Q2064.9 308.447 2066.37 305.573 L2068.04 310.162 Q2066.3 312.568 2064 314.293 Q2061.72 316.01 2058.85 317.055 Q2051.47 319.739 2045.59 316.78 Q2039.7 313.8 2036.86 305.991 Q2034.01 298.16 2036.62 292.114 Q2039.21 286.045 2046.58 283.361 Q2049.5 282.301 2052.35 282.149 Q2055.22 281.969 2058.04 282.69 Z" fill="#000000" fill-rule="evenodd" fill-opacity="1" /><path clip-path="url(#clip410)" d="M2091.6 289.491 L2092.32 291.449 L2073.91 298.146 Q2075.68 302.184 2078.69 303.552 Q2081.71 304.89 2085.69 303.441 Q2088 302.602 2089.95 301.253 Q2091.92 299.895 2093.64 297.988 L2095.01 301.773 Q2093.19 303.471 2091.11 304.772 Q2089.02 306.074 2086.69 306.921 Q2080.86 309.043 2076.21 306.893 Q2071.58 304.735 2069.48 298.949 Q2067.3 292.967 2069.24 288.293 Q2071.2 283.59 2076.68 281.594 Q2081.6 279.805 2085.61 281.944 Q2089.62 284.053 2091.6 289.491 M2087.17 289.773 Q2085.93 286.504 2083.42 285.204 Q2080.92 283.895 2077.96 284.972 Q2074.61 286.191 2073.28 288.82 Q2071.97 291.441 2072.91 294.988 L2087.17 289.773 Z" fill="#000000" fill-rule="evenodd" fill-opacity="1" /><path clip-path="url(#clip410)" d="M2090.65 266.435 L2094.65 264.979 L2106.97 298.825 L2102.97 300.282 L2090.65 266.435 Z" fill="#000000" fill-rule="evenodd" fill-opacity="1" /><path clip-path="url(#clip410)" d="M2103.03 261.931 L2107.03 260.474 L2119.35 294.32 L2115.35 295.777 L2103.03 261.931 Z" fill="#000000" fill-rule="evenodd" fill-opacity="1" /><path clip-path="url(#clip410)" d="M2125.04 253.97 Q2123.94 260.034 2124.31 265.443 Q2124.68 270.851 2126.51 275.876 Q2128.33 280.901 2131.55 285.324 Q2134.77 289.717 2139.48 293.646 L2136 294.912 Q2130.87 290.988 2127.44 286.644 Q2124.04 282.292 2122.26 277.42 Q2120.5 272.569 2120.32 267.067 Q2120.14 261.566 2121.56 255.237 L2125.04 253.97 Z" fill="#000000" fill-rule="evenodd" fill-opacity="1" /><path clip-path="url(#clip410)" d="M2133.89 252.249 L2151.14 245.97 L2152.49 249.668 L2139.26 254.482 L2142.16 262.443 Q2143 261.769 2143.9 261.268 Q2144.79 260.746 2145.75 260.397 Q2151.19 258.418 2155.45 260.242 Q2159.71 262.066 2161.56 267.156 Q2163.47 272.398 2161.27 276.501 Q2159.06 280.581 2153.12 282.743 Q2151.08 283.487 2148.82 283.915 Q2146.58 284.335 2144.07 284.462 L2142.46 280.046 Q2144.8 280.4 2147.08 280.162 Q2149.36 279.924 2151.69 279.077 Q2155.45 277.707 2156.93 274.928 Q2158.4 272.149 2157.17 268.755 Q2155.93 265.362 2153.02 264.182 Q2150.1 263.002 2146.34 264.372 Q2144.57 265.013 2142.95 266.046 Q2141.36 267.071 2139.83 268.563 L2133.89 252.249 Z" fill="#000000" fill-rule="evenodd" fill-opacity="1" /><path clip-path="url(#clip410)" d="M2172.46 268.733 L2177.05 267.063 L2178.41 270.804 L2177.38 279.063 L2174.57 280.084 L2173.82 272.474 L2172.46 268.733 Z" fill="#000000" fill-rule="evenodd" fill-opacity="1" /><path clip-path="url(#clip410)" d="M2189.4 232.044 L2210.29 224.444 L2210.97 226.315 L2210.32 261.211 L2205.73 262.881 L2206.35 230.066 L2190.75 235.742 L2189.4 232.044 Z" fill="#000000" fill-rule="evenodd" fill-opacity="1" /><path clip-path="url(#clip410)" d="M2217.18 220.433 L2220.66 219.166 Q2225.79 223.112 2229.19 227.442 Q2232.61 231.765 2234.37 236.615 Q2236.15 241.488 2236.31 247.019 Q2236.5 252.543 2235.1 258.842 L2231.62 260.109 Q2232.7 254.075 2232.32 248.644 Q2231.96 243.184 2230.13 238.159 Q2228.3 233.134 2225.09 228.763 Q2221.89 224.383 2217.18 220.433 Z" fill="#000000" fill-rule="evenodd" fill-opacity="1" /><path clip-path="url(#clip410)" d="M2234.56 214.107 L2238.04 212.841 Q2243.17 216.787 2246.57 221.117 Q2249.99 225.439 2251.75 230.29 Q2253.53 235.162 2253.69 240.693 Q2253.88 246.217 2252.48 252.516 L2249 253.783 Q2250.08 247.749 2249.7 242.318 Q2249.34 236.858 2247.51 231.833 Q2245.68 226.809 2242.47 222.437 Q2239.27 218.057 2234.56 214.107 Z" fill="#000000" fill-rule="evenodd" fill-opacity="1" /></svg>
