<?xml version="1.0" encoding="utf-8"?>
<svg xmlns="http://www.w3.org/2000/svg" xmlns:xlink="http://www.w3.org/1999/xlink" width="600" height="400" viewBox="0 0 2400 1600">
<defs>
  <clipPath id="clip070">
    <rect x="0" y="0" width="2400" height="1600"/>
  </clipPath>
</defs>
<path clip-path="url(#clip070)" d="
M0 1600 L2400 1600 L2400 0 L0 0  Z
  " fill="#ffffff" fill-rule="evenodd" fill-opacity="1"/>
<defs>
  <clipPath id="clip071">
    <rect x="480" y="0" width="1681" height="1600"/>
  </clipPath>
</defs>
<path clip-path="url(#clip070)" d="
M47.2441 1388.98 L2352.76 1388.98 L2352.76 47.2441 L47.2441 47.2441  Z
  " fill="#ffffff" fill-rule="evenodd" fill-opacity="1"/>
<defs>
  <clipPath id="clip072">
    <rect x="47" y="47" width="2307" height="1343"/>
  </clipPath>
</defs>
<polyline clip-path="url(#clip072)" style="stroke:#000000; stroke-linecap:butt; stroke-linejoin:round; stroke-width:2; stroke-opacity:0.1; fill:none" points="
  376.603,1388.98 376.603,47.2441 
  "/>
<polyline clip-path="url(#clip072)" style="stroke:#000000; stroke-linecap:butt; stroke-linejoin:round; stroke-width:2; stroke-opacity:0.1; fill:none" points="
  2023.4,1388.98 2023.4,47.2441 
  "/>
<path clip-path="url(#clip070)" d="M286.381 1535.06 L288.511 1531.37 L310.963 1544.34 L308.834 1548.02 L286.381 1535.06 M277.641 1530.02 L279.77 1526.33 L284.441 1529.02 L282.312 1532.71 L277.641 1530.02 Z" fill="#000000" fill-rule="evenodd" fill-opacity="1" /><path clip-path="url(#clip070)" d="M312.643 1510.13 L326.195 1517.95 L324.065 1521.64 L310.634 1513.89 Q307.446 1512.05 305.145 1512.38 Q302.844 1512.7 301.409 1515.19 Q299.684 1518.18 300.593 1521 Q301.502 1523.82 304.79 1525.72 L317.479 1533.05 L315.338 1536.76 L292.886 1523.8 L295.027 1520.09 L298.515 1522.1 Q297.254 1519.61 297.282 1517.25 Q297.321 1514.86 298.676 1512.52 Q300.909 1508.65 304.461 1508.05 Q307.992 1507.44 312.643 1510.13 Z" fill="#000000" fill-rule="evenodd" fill-opacity="1" /><path clip-path="url(#clip070)" d="M329.135 1505.08 L341.042 1511.96 L338.901 1515.67 L307.909 1497.77 L310.05 1494.07 L313.458 1496.03 Q312.125 1493.71 312.181 1491.39 Q312.229 1489.04 313.652 1486.58 Q316.013 1482.49 320.731 1481.82 Q325.46 1481.13 330.752 1484.18 Q336.045 1487.24 337.811 1491.68 Q339.588 1496.1 337.227 1500.19 Q335.804 1502.65 333.811 1503.88 Q331.811 1505.08 329.135 1505.08 M328.542 1488.01 Q324.472 1485.66 321.195 1486.01 Q317.909 1486.33 316.219 1489.26 Q314.529 1492.19 315.882 1495.21 Q317.227 1498.21 321.296 1500.56 Q325.366 1502.91 328.652 1502.59 Q331.93 1502.23 333.619 1499.31 Q335.309 1496.38 333.964 1493.39 Q332.611 1490.36 328.542 1488.01 Z" fill="#000000" fill-rule="evenodd" fill-opacity="1" /><path clip-path="url(#clip070)" d="M336.408 1479.8 L322.816 1471.95 L324.946 1468.27 L338.397 1476.03 Q341.585 1477.87 343.906 1477.55 Q346.207 1477.23 347.642 1474.74 Q349.367 1471.75 348.458 1468.93 Q347.56 1466.09 344.273 1464.19 L331.543 1456.84 L333.673 1453.15 L356.125 1466.11 L353.995 1469.8 L350.547 1467.81 Q351.817 1470.33 351.789 1472.7 Q351.753 1475.03 350.399 1477.37 Q348.165 1481.24 344.602 1481.86 Q341.039 1482.47 336.408 1479.8 M327.634 1462.36 L327.634 1462.36 Z" fill="#000000" fill-rule="evenodd" fill-opacity="1" /><path clip-path="url(#clip070)" d="M333.791 1438.22 L340.166 1441.9 L344.552 1434.31 L347.419 1435.96 L343.032 1443.56 L355.221 1450.6 Q357.967 1452.18 359.177 1451.89 Q360.399 1451.58 361.73 1449.28 L363.917 1445.49 L367.005 1447.27 L364.817 1451.06 Q362.352 1455.33 359.831 1456.04 Q357.289 1456.74 353.08 1454.3 L340.891 1447.27 L339.329 1449.97 L336.462 1448.32 L338.024 1445.61 L331.65 1441.93 L333.791 1438.22 Z" fill="#000000" fill-rule="evenodd" fill-opacity="1" /><path clip-path="url(#clip070)" d="M323.288 1554.63 L325.418 1550.94 L356.61 1568.95 L354.481 1572.64 L323.288 1554.63 Z" fill="#000000" fill-rule="evenodd" fill-opacity="1" /><path clip-path="url(#clip070)" d="M355.671 1544.51 Q353.09 1548.99 353.117 1551.3 Q353.144 1553.61 355.61 1555.04 Q357.575 1556.17 359.478 1555.56 Q361.373 1554.92 362.658 1552.69 Q364.428 1549.62 363.328 1546.53 Q362.22 1543.4 358.611 1541.32 L357.789 1540.85 L355.671 1544.51 M358.395 1536.28 L371.205 1543.67 L369.076 1547.36 L365.668 1545.39 Q366.983 1547.84 366.878 1550.29 Q366.752 1552.73 365.178 1555.46 Q363.187 1558.9 360.082 1559.84 Q356.968 1560.74 353.721 1558.86 Q349.932 1556.68 349.466 1553.04 Q349.011 1549.38 351.916 1544.35 L354.902 1539.18 L354.542 1538.97 Q351.996 1537.5 349.64 1538.39 Q347.276 1539.24 345.529 1542.27 Q344.418 1544.19 343.825 1546.28 Q343.233 1548.37 343.183 1550.59 L339.775 1548.62 Q340.162 1546.15 340.881 1544.02 Q341.58 1541.89 342.621 1540.08 Q345.434 1535.21 349.349 1534.26 Q353.263 1533.31 358.395 1536.28 Z" fill="#000000" fill-rule="evenodd" fill-opacity="1" /><path clip-path="url(#clip070)" d="M383.07 1527.94 Q386.177 1531.82 386.543 1534.01 Q386.909 1536.2 385.474 1538.68 L383.773 1541.63 L380.686 1539.85 L381.936 1537.68 Q382.815 1536.16 382.58 1534.9 Q382.344 1533.64 380.248 1531.07 L378.946 1529.43 L351.612 1525.76 L353.868 1521.85 L375.48 1524.97 L361.97 1507.82 L364.227 1503.91 L383.07 1527.94 Z" fill="#000000" fill-rule="evenodd" fill-opacity="1" /><path clip-path="url(#clip070)" d="M388.559 1485.56 L390.363 1486.6 L380.572 1503.56 Q384.519 1505.52 387.705 1504.63 Q390.881 1503.71 392.999 1500.05 Q394.226 1497.92 394.851 1495.63 Q395.487 1493.33 395.579 1490.76 L399.067 1492.78 Q398.763 1495.25 398 1497.59 Q397.238 1499.93 395.999 1502.07 Q392.898 1507.44 387.953 1508.79 Q383.02 1510.11 377.688 1507.03 Q372.175 1503.85 370.66 1499.02 Q369.137 1494.15 372.054 1489.1 Q374.67 1484.57 379.113 1483.64 Q383.547 1482.67 388.559 1485.56 M385.347 1488.62 Q382.297 1486.92 379.532 1487.54 Q376.778 1488.14 375.204 1490.87 Q373.422 1493.95 374.09 1496.83 Q374.769 1499.68 377.774 1501.79 L385.347 1488.62 Z" fill="#000000" fill-rule="evenodd" fill-opacity="1" /><path clip-path="url(#clip070)" d="M392.71 1462.54 Q391.99 1462.95 391.402 1463.6 Q390.805 1464.22 390.295 1465.1 Q388.49 1468.23 389.562 1471.09 Q390.626 1473.92 394.435 1476.12 L406.263 1482.95 L404.122 1486.66 L381.669 1473.7 L383.81 1469.99 L387.299 1472 Q385.925 1469.66 386.019 1467.23 Q386.093 1464.79 387.633 1462.12 Q387.852 1461.74 388.179 1461.31 Q388.485 1460.87 388.909 1460.37 L392.71 1462.54 Z" fill="#000000" fill-rule="evenodd" fill-opacity="1" /><path clip-path="url(#clip070)" d="M1923.57 1557.66 Q1921.86 1560.63 1923.19 1563.7 Q1924.5 1566.75 1928.53 1569.08 Q1932.56 1571.41 1935.87 1571.04 Q1939.17 1570.65 1940.89 1567.66 Q1942.6 1564.72 1941.27 1561.65 Q1939.94 1558.58 1935.93 1556.27 Q1931.94 1553.97 1928.62 1554.35 Q1925.28 1554.72 1923.57 1557.66 M1920.45 1555.86 Q1923.22 1551.05 1927.94 1550.11 Q1932.65 1549.17 1938.18 1552.36 Q1943.7 1555.54 1945.26 1560.11 Q1946.8 1564.66 1944.02 1569.47 Q1941.23 1574.3 1936.52 1575.24 Q1931.8 1576.15 1926.29 1572.97 Q1920.75 1569.77 1919.2 1565.24 Q1917.66 1560.69 1920.45 1555.86 Z" fill="#000000" fill-rule="evenodd" fill-opacity="1" /><path clip-path="url(#clip070)" d="M1943.84 1547.98 L1930.25 1540.13 L1932.38 1536.44 L1945.83 1544.21 Q1949.02 1546.05 1951.34 1545.73 Q1953.64 1545.41 1955.07 1542.92 Q1956.8 1539.93 1955.89 1537.11 Q1954.99 1534.27 1951.7 1532.37 L1938.97 1525.02 L1941.1 1521.33 L1963.56 1534.29 L1961.43 1537.98 L1957.98 1535.99 Q1959.25 1538.51 1959.22 1540.88 Q1959.18 1543.21 1957.83 1545.55 Q1955.6 1549.42 1952.03 1550.04 Q1948.47 1550.65 1943.84 1547.98 M1935.06 1530.54 L1935.06 1530.54 Z" fill="#000000" fill-rule="evenodd" fill-opacity="1" /><path clip-path="url(#clip070)" d="M1941.22 1506.4 L1947.6 1510.08 L1951.98 1502.49 L1954.85 1504.14 L1950.46 1511.74 L1962.65 1518.78 Q1965.4 1520.36 1966.61 1520.07 Q1967.83 1519.76 1969.16 1517.45 L1971.35 1513.67 L1974.44 1515.45 L1972.25 1519.24 Q1969.78 1523.51 1967.26 1524.22 Q1964.72 1524.91 1960.51 1522.48 L1948.32 1515.45 L1946.76 1518.15 L1943.89 1516.5 L1945.46 1513.79 L1939.08 1510.11 L1941.22 1506.4 Z" fill="#000000" fill-rule="evenodd" fill-opacity="1" /><path clip-path="url(#clip070)" d="M1975.93 1505.08 L1987.84 1511.96 L1985.7 1515.67 L1954.7 1497.77 L1956.84 1494.07 L1960.25 1496.03 Q1958.92 1493.71 1958.98 1491.39 Q1959.02 1489.04 1960.45 1486.58 Q1962.81 1482.49 1967.53 1481.82 Q1972.25 1481.13 1977.55 1484.18 Q1982.84 1487.24 1984.6 1491.68 Q1986.38 1496.1 1984.02 1500.19 Q1982.6 1502.65 1980.61 1503.88 Q1978.6 1505.08 1975.93 1505.08 M1975.34 1488.01 Q1971.27 1485.66 1967.99 1486.01 Q1964.7 1486.33 1963.01 1489.26 Q1961.32 1492.19 1962.68 1495.21 Q1964.02 1498.21 1968.09 1500.56 Q1972.16 1502.91 1975.45 1502.59 Q1978.72 1502.23 1980.41 1499.31 Q1982.1 1496.38 1980.76 1493.39 Q1979.41 1490.36 1975.34 1488.01 Z" fill="#000000" fill-rule="evenodd" fill-opacity="1" /><path clip-path="url(#clip070)" d="M1983.2 1479.8 L1969.61 1471.95 L1971.74 1468.27 L1985.19 1476.03 Q1988.38 1477.87 1990.7 1477.55 Q1993 1477.23 1994.44 1474.74 Q1996.16 1471.75 1995.25 1468.93 Q1994.35 1466.09 1991.07 1464.19 L1978.34 1456.84 L1980.47 1453.15 L2002.92 1466.11 L2000.79 1469.8 L1997.34 1467.81 Q1998.61 1470.33 1998.58 1472.7 Q1998.55 1475.03 1997.19 1477.37 Q1994.96 1481.24 1991.4 1481.86 Q1987.83 1482.47 1983.2 1479.8 M1974.43 1462.36 L1974.43 1462.36 Z" fill="#000000" fill-rule="evenodd" fill-opacity="1" /><path clip-path="url(#clip070)" d="M1980.58 1438.22 L1986.96 1441.9 L1991.35 1434.31 L1994.21 1435.96 L1989.83 1443.56 L2002.01 1450.6 Q2004.76 1452.18 2005.97 1451.89 Q2007.19 1451.58 2008.52 1449.28 L2010.71 1445.49 L2013.8 1447.27 L2011.61 1451.06 Q2009.15 1455.33 2006.62 1456.04 Q2004.08 1456.74 1999.87 1454.3 L1987.69 1447.27 L1986.12 1449.97 L1983.26 1448.32 L1984.82 1445.61 L1978.44 1441.93 L1980.58 1438.22 Z" fill="#000000" fill-rule="evenodd" fill-opacity="1" /><path clip-path="url(#clip070)" d="M1953.48 1583.39 L1955.61 1579.7 L1986.8 1597.71 L1984.67 1601.4 L1953.48 1583.39 Z" fill="#000000" fill-rule="evenodd" fill-opacity="1" /><path clip-path="url(#clip070)" d="M1985.86 1573.27 Q1983.28 1577.74 1983.31 1580.06 Q1983.34 1582.37 1985.8 1583.79 Q1987.77 1584.93 1989.67 1584.32 Q1991.56 1583.67 1992.85 1581.45 Q1994.62 1578.38 1993.52 1575.29 Q1992.41 1572.16 1988.8 1570.08 L1987.98 1569.6 L1985.86 1573.27 M1988.59 1565.03 L2001.4 1572.43 L1999.27 1576.12 L1995.86 1574.15 Q1997.17 1576.6 1997.07 1579.05 Q1996.94 1581.49 1995.37 1584.21 Q1993.38 1587.66 1990.27 1588.59 Q1987.16 1589.5 1983.91 1587.62 Q1980.12 1585.43 1979.66 1581.8 Q1979.2 1578.14 1982.11 1573.11 L1985.09 1567.94 L1984.73 1567.73 Q1982.19 1566.26 1979.83 1567.14 Q1977.47 1568 1975.72 1571.02 Q1974.61 1572.95 1974.02 1575.04 Q1973.42 1577.13 1973.37 1579.35 L1969.97 1577.38 Q1970.35 1574.9 1971.07 1572.78 Q1971.77 1570.64 1972.81 1568.84 Q1975.62 1563.97 1979.54 1563.02 Q1983.45 1562.07 1988.59 1565.03 Z" fill="#000000" fill-rule="evenodd" fill-opacity="1" /><path clip-path="url(#clip070)" d="M2013.26 1556.69 Q2016.37 1560.57 2016.73 1562.76 Q2017.1 1564.95 2015.67 1567.44 L2013.96 1570.39 L2010.88 1568.6 L2012.13 1566.44 Q2013.01 1564.91 2012.77 1563.66 Q2012.54 1562.4 2010.44 1559.82 L2009.14 1558.19 L1981.8 1554.52 L1984.06 1550.61 L2005.67 1553.73 L1992.16 1536.57 L1994.42 1532.67 L2013.26 1556.69 Z" fill="#000000" fill-rule="evenodd" fill-opacity="1" /><path clip-path="url(#clip070)" d="M2018.75 1514.32 L2020.55 1515.36 L2010.76 1532.32 Q2014.71 1534.28 2017.9 1533.39 Q2021.07 1532.47 2023.19 1528.8 Q2024.42 1526.68 2025.04 1524.39 Q2025.68 1522.09 2025.77 1519.52 L2029.26 1521.53 Q2028.95 1524 2028.19 1526.34 Q2027.43 1528.68 2026.19 1530.83 Q2023.09 1536.2 2018.14 1537.54 Q2013.21 1538.86 2007.88 1535.79 Q2002.37 1532.6 2000.85 1527.77 Q1999.33 1522.91 2002.25 1517.86 Q2004.86 1513.33 2009.3 1512.39 Q2013.74 1511.42 2018.75 1514.32 M2015.54 1517.38 Q2012.49 1515.67 2009.72 1516.3 Q2006.97 1516.9 2005.4 1519.62 Q2003.61 1522.71 2004.28 1525.58 Q2004.96 1528.43 2007.97 1530.54 L2015.54 1517.38 Z" fill="#000000" fill-rule="evenodd" fill-opacity="1" /><path clip-path="url(#clip070)" d="M2022.9 1491.29 Q2022.18 1491.71 2021.59 1492.36 Q2021 1492.97 2020.49 1493.86 Q2018.68 1496.98 2019.75 1499.85 Q2020.82 1502.68 2024.63 1504.88 L2036.45 1511.71 L2034.31 1515.42 L2011.86 1502.45 L2014 1498.75 L2017.49 1500.76 Q2016.12 1498.42 2016.21 1495.99 Q2016.28 1493.54 2017.82 1490.88 Q2018.04 1490.5 2018.37 1490.07 Q2018.68 1489.63 2019.1 1489.13 L2022.9 1491.29 Z" fill="#000000" fill-rule="evenodd" fill-opacity="1" /><polyline clip-path="url(#clip072)" style="stroke:#adadad; stroke-linecap:butt; stroke-linejoin:round; stroke-width:4; stroke-opacity:1; fill:none" points="
  376.603,1113.75 2023.4,1027.74 
  "/>
<polyline clip-path="url(#clip072)" style="stroke:#adadad; stroke-linecap:butt; stroke-linejoin:round; stroke-width:4; stroke-opacity:1; fill:none" points="
  376.603,941.735 2023.4,1027.74 
  "/>
<polyline clip-path="url(#clip072)" style="stroke:#adadad; stroke-linecap:butt; stroke-linejoin:round; stroke-width:4; stroke-opacity:1; fill:none" points="
  376.603,941.735 2023.4,855.726 
  "/>
<polyline clip-path="url(#clip072)" style="stroke:#adadad; stroke-linecap:butt; stroke-linejoin:round; stroke-width:4; stroke-opacity:1; fill:none" points="
  376.603,769.718 2023.4,855.726 
  "/>
<polyline clip-path="url(#clip072)" style="stroke:#adadad; stroke-linecap:butt; stroke-linejoin:round; stroke-width:4; stroke-opacity:1; fill:none" points="
  376.603,769.718 2023.4,683.709 
  "/>
<polyline clip-path="url(#clip072)" style="stroke:#adadad; stroke-linecap:butt; stroke-linejoin:round; stroke-width:4; stroke-opacity:1; fill:none" points="
  376.603,597.7 2023.4,683.709 
  "/>
<polyline clip-path="url(#clip072)" style="stroke:#adadad; stroke-linecap:butt; stroke-linejoin:round; stroke-width:4; stroke-opacity:1; fill:none" points="
  376.603,597.7 2023.4,511.691 
  "/>
<polyline clip-path="url(#clip072)" style="stroke:#adadad; stroke-linecap:butt; stroke-linejoin:round; stroke-width:4; stroke-opacity:1; fill:none" points="
  376.603,425.683 2023.4,511.691 
  "/>
<path clip-path="url(#clip072)" d="
M376.603 1154.36 L364.054 1152.37 L352.734 1146.61 L343.75 1137.62 L337.982 1126.3 L335.995 1113.75 L337.982 1101.2 L343.75 1089.88 L352.734 1080.9 L364.054 1075.13 
  L376.603 1073.14 L389.151 1075.13 L400.472 1080.9 L409.455 1089.88 L415.223 1101.2 L417.211 1113.75 L415.223 1126.3 L409.455 1137.62 L400.472 1146.61 L389.151 1152.37 
  L376.603 1154.36  Z
  " fill="#000000" fill-rule="evenodd" fill-opacity="0"/>
<polyline clip-path="url(#clip072)" style="stroke:#000000; stroke-linecap:butt; stroke-linejoin:round; stroke-width:4; stroke-opacity:1; fill:none" points="
  376.603,1154.36 364.054,1152.37 352.734,1146.61 343.75,1137.62 337.982,1126.3 335.995,1113.75 337.982,1101.2 343.75,1089.88 352.734,1080.9 364.054,1075.13 
  376.603,1073.14 389.151,1075.13 400.472,1080.9 409.455,1089.88 415.223,1101.2 417.211,1113.75 415.223,1126.3 409.455,1137.62 400.472,1146.61 389.151,1152.37 
  376.603,1154.36 
  "/>
<path clip-path="url(#clip072)" d="
M376.603 982.343 L364.054 980.355 L352.734 974.588 L343.75 965.604 L337.982 954.284 L335.995 941.735 L337.982 929.186 L343.75 917.866 L352.734 908.882 L364.054 903.114 
  L376.603 901.127 L389.151 903.114 L400.472 908.882 L409.455 917.866 L415.223 929.186 L417.211 941.735 L415.223 954.284 L409.455 965.604 L400.472 974.588 L389.151 980.355 
  L376.603 982.343  Z
  " fill="#000000" fill-rule="evenodd" fill-opacity="0"/>
<polyline clip-path="url(#clip072)" style="stroke:#000000; stroke-linecap:butt; stroke-linejoin:round; stroke-width:4; stroke-opacity:1; fill:none" points="
  376.603,982.343 364.054,980.355 352.734,974.588 343.75,965.604 337.982,954.284 335.995,941.735 337.982,929.186 343.75,917.866 352.734,908.882 364.054,903.114 
  376.603,901.127 389.151,903.114 400.472,908.882 409.455,917.866 415.223,929.186 417.211,941.735 415.223,954.284 409.455,965.604 400.472,974.588 389.151,980.355 
  376.603,982.343 
  "/>
<path clip-path="url(#clip072)" d="
M376.603 810.326 L364.054 808.338 L352.734 802.57 L343.75 793.586 L337.982 782.266 L335.995 769.718 L337.982 757.169 L343.75 745.849 L352.734 736.865 L364.054 731.097 
  L376.603 729.11 L389.151 731.097 L400.472 736.865 L409.455 745.849 L415.223 757.169 L417.211 769.718 L415.223 782.266 L409.455 793.586 L400.472 802.57 L389.151 808.338 
  L376.603 810.326  Z
  " fill="#000000" fill-rule="evenodd" fill-opacity="0"/>
<polyline clip-path="url(#clip072)" style="stroke:#000000; stroke-linecap:butt; stroke-linejoin:round; stroke-width:4; stroke-opacity:1; fill:none" points="
  376.603,810.326 364.054,808.338 352.734,802.57 343.75,793.586 337.982,782.266 335.995,769.718 337.982,757.169 343.75,745.849 352.734,736.865 364.054,731.097 
  376.603,729.11 389.151,731.097 400.472,736.865 409.455,745.849 415.223,757.169 417.211,769.718 415.223,782.266 409.455,793.586 400.472,802.57 389.151,808.338 
  376.603,810.326 
  "/>
<path clip-path="url(#clip072)" d="
M376.603 638.308 L364.054 636.321 L352.734 630.553 L343.75 621.569 L337.982 610.249 L335.995 597.7 L337.982 585.151 L343.75 573.831 L352.734 564.847 L364.054 559.08 
  L376.603 557.092 L389.151 559.08 L400.472 564.847 L409.455 573.831 L415.223 585.151 L417.211 597.7 L415.223 610.249 L409.455 621.569 L400.472 630.553 L389.151 636.321 
  L376.603 638.308  Z
  " fill="#000000" fill-rule="evenodd" fill-opacity="0"/>
<polyline clip-path="url(#clip072)" style="stroke:#000000; stroke-linecap:butt; stroke-linejoin:round; stroke-width:4; stroke-opacity:1; fill:none" points="
  376.603,638.308 364.054,636.321 352.734,630.553 343.75,621.569 337.982,610.249 335.995,597.7 337.982,585.151 343.75,573.831 352.734,564.847 364.054,559.08 
  376.603,557.092 389.151,559.08 400.472,564.847 409.455,573.831 415.223,585.151 417.211,597.7 415.223,610.249 409.455,621.569 400.472,630.553 389.151,636.321 
  376.603,638.308 
  "/>
<path clip-path="url(#clip072)" d="
M376.603 466.291 L364.054 464.303 L352.734 458.535 L343.75 449.551 L337.982 438.231 L335.995 425.683 L337.982 413.134 L343.75 401.814 L352.734 392.83 L364.054 387.062 
  L376.603 385.075 L389.151 387.062 L400.472 392.83 L409.455 401.814 L415.223 413.134 L417.211 425.683 L415.223 438.231 L409.455 449.551 L400.472 458.535 L389.151 464.303 
  L376.603 466.291  Z
  " fill="#000000" fill-rule="evenodd" fill-opacity="0"/>
<polyline clip-path="url(#clip072)" style="stroke:#000000; stroke-linecap:butt; stroke-linejoin:round; stroke-width:4; stroke-opacity:1; fill:none" points="
  376.603,466.291 364.054,464.303 352.734,458.535 343.75,449.551 337.982,438.231 335.995,425.683 337.982,413.134 343.75,401.814 352.734,392.83 364.054,387.062 
  376.603,385.075 389.151,387.062 400.472,392.83 409.455,401.814 415.223,413.134 417.211,425.683 415.223,438.231 409.455,449.551 400.472,458.535 389.151,464.303 
  376.603,466.291 
  "/>
<path clip-path="url(#clip072)" d="M1983.4 987.744 L1983.4 1067.74 L2063.4 1067.74 L2063.4 987.744 L1983.4 987.744 Z" fill="#dda0dd" fill-rule="evenodd" fill-opacity="1" stroke="#000000" stroke-opacity="1" stroke-width="3.2"/>
<path clip-path="url(#clip072)" d="M1983.4 815.726 L1983.4 895.726 L2063.4 895.726 L2063.4 815.726 L1983.4 815.726 Z" fill="#dda0dd" fill-rule="evenodd" fill-opacity="1" stroke="#000000" stroke-opacity="1" stroke-width="3.2"/>
<path clip-path="url(#clip072)" d="M1983.4 643.709 L1983.4 723.709 L2063.4 723.709 L2063.4 643.709 L1983.4 643.709 Z" fill="#dda0dd" fill-rule="evenodd" fill-opacity="1" stroke="#000000" stroke-opacity="1" stroke-width="3.2"/>
<path clip-path="url(#clip072)" d="M1983.4 471.691 L1983.4 551.691 L2063.4 551.691 L2063.4 471.691 L1983.4 471.691 Z" fill="#dda0dd" fill-rule="evenodd" fill-opacity="1" stroke="#000000" stroke-opacity="1" stroke-width="3.2"/>
<path clip-path="url(#clip072)" d="M415.003 1113.75 L357.403 1080.15 L357.403 1147.35 L415.003 1113.75 Z" fill="#ffff00" fill-rule="evenodd" fill-opacity="1" stroke="#000000" stroke-opacity="1" stroke-width="3.2"/>
<path clip-path="url(#clip072)" d="M415.003 941.735 L357.403 908.135 L357.403 975.335 L415.003 941.735 Z" fill="#ffff00" fill-rule="evenodd" fill-opacity="1" stroke="#000000" stroke-opacity="1" stroke-width="3.2"/>
<path clip-path="url(#clip072)" d="M415.003 769.718 L357.403 736.118 L357.403 803.318 L415.003 769.718 Z" fill="#ffff00" fill-rule="evenodd" fill-opacity="1" stroke="#000000" stroke-opacity="1" stroke-width="3.2"/>
<path clip-path="url(#clip072)" d="M415.003 597.7 L357.403 564.1 L357.403 631.3 L415.003 597.7 Z" fill="#ffff00" fill-rule="evenodd" fill-opacity="1" stroke="#000000" stroke-opacity="1" stroke-width="3.2"/>
<path clip-path="url(#clip072)" d="M415.003 425.683 L357.403 392.083 L357.403 459.283 L415.003 425.683 Z" fill="#ffff00" fill-rule="evenodd" fill-opacity="1" stroke="#000000" stroke-opacity="1" stroke-width="3.2"/>
<path clip-path="url(#clip072)" d="M2055.4 1027.74 L2007.4 999.744 L2007.4 1055.74 L2055.4 1027.74 Z" fill="#ffa500" fill-rule="evenodd" fill-opacity="1" stroke="#000000" stroke-opacity="1" stroke-width="3.2"/>
<path clip-path="url(#clip072)" d="M2055.4 855.726 L2007.4 827.726 L2007.4 883.726 L2055.4 855.726 Z" fill="#ffa500" fill-rule="evenodd" fill-opacity="1" stroke="#000000" stroke-opacity="1" stroke-width="3.2"/>
<path clip-path="url(#clip072)" d="M2055.4 683.709 L2007.4 655.709 L2007.4 711.709 L2055.4 683.709 Z" fill="#ffa500" fill-rule="evenodd" fill-opacity="1" stroke="#000000" stroke-opacity="1" stroke-width="3.2"/>
<path clip-path="url(#clip072)" d="M2055.4 511.691 L2007.4 483.691 L2007.4 539.691 L2055.4 511.691 Z" fill="#ffa500" fill-rule="evenodd" fill-opacity="1" stroke="#000000" stroke-opacity="1" stroke-width="3.2"/>
<path clip-path="url(#clip070)" d="M318.983 265.436 L322.985 263.98 L331.853 288.342 L327.85 289.799 L318.983 265.436 M315.531 255.952 L319.534 254.496 L321.378 259.564 L317.376 261.021 L315.531 255.952 Z" fill="#000000" fill-rule="evenodd" fill-opacity="1" /><path clip-path="url(#clip070)" d="M355.126 263.219 L360.478 277.923 L356.476 279.38 L351.171 264.806 Q349.913 261.347 347.939 260.12 Q345.964 258.892 343.267 259.874 Q340.026 261.054 338.908 263.801 Q337.789 266.548 339.087 270.116 L344.099 283.885 L340.075 285.349 L331.208 260.987 L335.232 259.522 L336.609 263.307 Q337.245 260.588 338.785 258.795 Q340.347 256.995 342.892 256.069 Q347.09 254.541 350.194 256.367 Q353.29 258.172 355.126 263.219 Z" fill="#000000" fill-rule="evenodd" fill-opacity="1" /><path clip-path="url(#clip070)" d="M371.003 269.954 L375.706 282.875 L371.682 284.339 L359.442 250.711 L363.466 249.246 L364.812 252.944 Q365.282 250.309 366.816 248.569 Q368.364 246.798 371.039 245.824 Q375.477 244.209 379.522 246.728 Q383.589 249.238 385.679 254.981 Q387.769 260.723 386.267 265.26 Q384.787 269.79 380.35 271.405 Q377.674 272.378 375.358 272.039 Q373.056 271.67 371.003 269.954 M381.524 256.493 Q379.917 252.077 377.179 250.241 Q374.456 248.374 371.28 249.53 Q368.104 250.686 367.195 253.875 Q366.3 257.033 367.907 261.449 Q369.515 265.864 372.238 267.731 Q374.976 269.567 378.152 268.411 Q381.328 267.255 382.223 264.097 Q383.131 260.908 381.524 256.493 Z" fill="#000000" fill-rule="evenodd" fill-opacity="1" /><path clip-path="url(#clip070)" d="M392.826 255.261 L387.458 240.513 L391.461 239.057 L396.773 253.652 Q398.032 257.111 400.014 258.36 Q401.988 259.588 404.685 258.606 Q407.926 257.426 409.045 254.679 Q410.185 251.924 408.887 248.356 L403.859 234.544 L407.862 233.087 L416.729 257.449 L412.727 258.906 L411.365 255.165 Q410.715 257.914 409.175 259.706 Q407.649 261.469 405.104 262.395 Q400.906 263.923 397.78 262.104 Q394.655 260.286 392.826 255.261 M397.316 236.26 L397.316 236.26 Z" fill="#000000" fill-rule="evenodd" fill-opacity="1" /><path clip-path="url(#clip070)" d="M417.547 221.728 L420.065 228.646 L428.309 225.645 L429.441 228.756 L421.197 231.756 L426.01 244.981 Q427.095 247.961 428.209 248.517 Q429.344 249.064 431.846 248.154 L435.957 246.657 L437.176 250.007 L433.065 251.504 Q428.432 253.19 426.044 252.113 Q423.649 251.014 421.986 246.446 L417.173 233.221 L414.236 234.29 L413.104 231.179 L416.041 230.11 L413.523 223.193 L417.547 221.728 Z" fill="#000000" fill-rule="evenodd" fill-opacity="1" /><path clip-path="url(#clip070)" d="M1841.27 390.406 L1842.96 395.039 Q1839.99 393.781 1837.09 393.677 Q1834.22 393.565 1831.39 394.594 Q1825.82 396.621 1824.11 401.113 Q1822.38 405.583 1824.73 412.021 Q1827.06 418.438 1831.26 420.776 Q1835.46 423.093 1841.02 421.066 Q1843.85 420.037 1845.98 418.104 Q1848.13 416.163 1849.6 413.289 L1851.27 417.879 Q1849.53 420.284 1847.23 422.01 Q1844.95 423.727 1842.08 424.772 Q1834.7 427.456 1828.82 424.497 Q1822.93 421.516 1820.09 413.707 Q1817.24 405.877 1819.85 399.83 Q1822.44 393.762 1829.81 391.078 Q1832.73 390.017 1835.58 389.866 Q1838.45 389.685 1841.27 390.406 Z" fill="#000000" fill-rule="evenodd" fill-opacity="1" /><path clip-path="url(#clip070)" d="M1860.39 392.981 Q1857.17 394.153 1856.22 397.357 Q1855.26 400.54 1856.85 404.912 Q1858.44 409.284 1861.21 411.134 Q1863.99 412.955 1867.23 411.775 Q1870.43 410.611 1871.38 407.407 Q1872.33 404.203 1870.75 399.853 Q1869.17 395.524 1866.38 393.682 Q1863.59 391.818 1860.39 392.981 M1859.15 389.588 Q1864.37 387.688 1868.59 389.997 Q1872.8 392.305 1874.99 398.309 Q1877.17 404.291 1875.43 408.791 Q1873.68 413.268 1868.46 415.169 Q1863.22 417.077 1859.01 414.768 Q1854.8 412.43 1852.63 406.448 Q1850.44 400.444 1852.17 395.974 Q1853.91 391.496 1859.15 389.588 Z" fill="#000000" fill-rule="evenodd" fill-opacity="1" /><path clip-path="url(#clip070)" d="M1900.95 385.978 L1906.3 400.683 L1902.3 402.14 L1896.99 387.566 Q1895.73 384.107 1893.76 382.88 Q1891.79 381.652 1889.09 382.634 Q1885.85 383.813 1884.73 386.561 Q1883.61 389.308 1884.91 392.875 L1889.92 406.644 L1885.9 408.109 L1877.03 383.747 L1881.05 382.282 L1882.43 386.067 Q1883.07 383.348 1884.61 381.555 Q1886.17 379.755 1888.71 378.829 Q1892.91 377.301 1896.02 379.127 Q1899.11 380.932 1900.95 385.978 Z" fill="#000000" fill-rule="evenodd" fill-opacity="1" /><path clip-path="url(#clip070)" d="M1902.54 374.46 L1906.79 372.916 L1921.84 390.592 L1922.01 367.374 L1926.25 365.83 L1925.99 393.518 L1920.55 395.497 L1902.54 374.46 Z" fill="#000000" fill-rule="evenodd" fill-opacity="1" /><path clip-path="url(#clip070)" d="M1937.96 350.88 Q1936.86 356.944 1937.23 362.352 Q1937.6 367.761 1939.43 372.786 Q1941.26 377.811 1944.47 382.234 Q1947.69 386.627 1952.4 390.555 L1948.92 391.822 Q1943.79 387.898 1940.37 383.554 Q1936.96 379.202 1935.19 374.33 Q1933.42 369.479 1933.24 363.977 Q1933.06 358.475 1934.48 352.146 L1937.96 350.88 Z" fill="#000000" fill-rule="evenodd" fill-opacity="1" /><path clip-path="url(#clip070)" d="M1955.34 344.554 Q1954.24 350.618 1954.61 356.027 Q1954.98 361.435 1956.81 366.46 Q1958.64 371.485 1961.85 375.908 Q1965.07 380.301 1969.78 384.23 L1966.3 385.496 Q1961.17 381.572 1957.75 377.228 Q1954.34 372.876 1952.57 368.004 Q1950.8 363.153 1950.62 357.652 Q1950.44 352.15 1951.86 345.821 L1955.34 344.554 Z" fill="#000000" fill-rule="evenodd" fill-opacity="1" /><path clip-path="url(#clip070)" d="M1978.41 370.249 L1993.75 364.667 L1995.09 368.365 L1974.47 375.871 L1973.12 372.173 Q1974.68 368.674 1977.41 362.756 Q1980.14 356.808 1980.79 355.143 Q1982.04 352.004 1982.27 350.072 Q1982.52 348.11 1981.94 346.522 Q1981 343.933 1978.58 342.967 Q1976.18 341.993 1973.27 343.054 Q1971.2 343.806 1969.16 345.363 Q1967.13 346.912 1965.05 349.319 L1963.44 344.882 Q1965.7 342.85 1967.81 341.467 Q1969.92 340.084 1971.83 339.387 Q1976.88 337.551 1980.8 338.981 Q1984.72 340.412 1986.26 344.632 Q1986.98 346.633 1986.88 348.716 Q1986.79 350.768 1985.7 353.925 Q1985.38 354.754 1983.57 358.838 Q1981.75 362.901 1978.41 370.249 Z" fill="#000000" fill-rule="evenodd" fill-opacity="1" /><path clip-path="url(#clip070)" d="M2002.76 359.317 L2007.35 357.647 L2008.71 361.388 L2007.68 369.647 L2004.87 370.668 L2004.12 363.059 L2002.76 359.317 Z" fill="#000000" fill-rule="evenodd" fill-opacity="1" /><path clip-path="url(#clip070)" d="M2004.98 326.487 L2008.46 325.22 Q2013.59 329.166 2016.99 333.496 Q2020.41 337.819 2022.17 342.669 Q2023.95 347.542 2024.11 353.073 Q2024.3 358.597 2022.9 364.896 L2019.42 366.163 Q2020.5 360.129 2020.12 354.698 Q2019.76 349.238 2017.93 344.213 Q2016.1 339.188 2012.88 334.817 Q2009.69 330.437 2004.98 326.487 Z" fill="#000000" fill-rule="evenodd" fill-opacity="1" /><path clip-path="url(#clip070)" d="M2034.3 347.837 L2038.89 346.167 L2040.25 349.908 L2039.22 358.167 L2036.41 359.189 L2035.66 351.579 L2034.3 347.837 Z" fill="#000000" fill-rule="evenodd" fill-opacity="1" /><path clip-path="url(#clip070)" d="M2063.59 339.246 L2070.77 336.633 L2061.75 311.857 L2054.51 316.266 L2053.06 312.263 L2060.25 307.871 L2064.65 306.272 L2075.12 335.05 L2082.3 332.437 L2083.64 336.135 L2064.94 342.944 L2063.59 339.246 Z" fill="#000000" fill-rule="evenodd" fill-opacity="1" /><path clip-path="url(#clip070)" d="M2099.27 307.537 L2127.16 297.387 L2128.49 301.042 L2100.6 311.191 L2099.27 307.537 M2102.5 316.412 L2130.39 306.262 L2131.73 309.96 L2103.85 320.11 L2102.5 316.412 Z" fill="#000000" fill-rule="evenodd" fill-opacity="1" /><path clip-path="url(#clip070)" d="M2135.98 292.255 L2134.54 288.296 L2166.11 288.261 L2167.42 291.872 L2143.22 312.136 L2141.78 308.177 L2161.29 292.083 L2135.98 292.255 Z" fill="#000000" fill-rule="evenodd" fill-opacity="1" /><path clip-path="url(#clip070)" d="M2194.91 291.45 L2202.09 288.838 L2193.07 264.062 L2185.83 268.47 L2184.37 264.468 L2191.57 260.075 L2195.96 258.476 L2206.44 287.254 L2213.61 284.641 L2214.96 288.339 L2196.25 295.148 L2194.91 291.45 Z" fill="#000000" fill-rule="evenodd" fill-opacity="1" /><path clip-path="url(#clip070)" d="M2210.34 251.742 L2213.82 250.475 Q2218.95 254.421 2222.35 258.751 Q2225.77 263.073 2227.53 267.924 Q2229.31 272.797 2229.47 278.328 Q2229.66 283.852 2228.26 290.151 L2224.78 291.418 Q2225.86 285.383 2225.48 279.953 Q2225.12 274.493 2223.29 269.468 Q2221.46 264.443 2218.25 260.072 Q2215.05 255.692 2210.34 251.742 Z" fill="#000000" fill-rule="evenodd" fill-opacity="1" /></svg>
