<?xml version="1.0" encoding="utf-8"?>
<svg xmlns="http://www.w3.org/2000/svg" xmlns:xlink="http://www.w3.org/1999/xlink" width="600" height="400" viewBox="0 0 2400 1600">
<defs>
  <clipPath id="clip060">
    <rect x="0" y="0" width="2400" height="1600"/>
  </clipPath>
</defs>
<path clip-path="url(#clip060)" d="
M0 1600 L2400 1600 L2400 0 L0 0  Z
  " fill="#ffffff" fill-rule="evenodd" fill-opacity="1"/>
<defs>
  <clipPath id="clip061">
    <rect x="480" y="0" width="1681" height="1600"/>
  </clipPath>
</defs>
<path clip-path="url(#clip060)" d="
M47.2441 1388.98 L2352.76 1388.98 L2352.76 114.832 L47.2441 114.832  Z
  " fill="#ffffff" fill-rule="evenodd" fill-opacity="1"/>
<defs>
  <clipPath id="clip062">
    <rect x="47" y="114" width="2307" height="1275"/>
  </clipPath>
</defs>
<polyline clip-path="url(#clip062)" style="stroke:#000000; stroke-linecap:butt; stroke-linejoin:round; stroke-width:2; stroke-opacity:0.1; fill:none" points="
  376.603,1388.98 376.603,114.832 
  "/>
<polyline clip-path="url(#clip062)" style="stroke:#000000; stroke-linecap:butt; stroke-linejoin:round; stroke-width:2; stroke-opacity:0.1; fill:none" points="
  2023.4,1388.98 2023.4,114.832 
  "/>
<path clip-path="url(#clip060)" d="M286.381 1535.06 L288.511 1531.37 L310.963 1544.34 L308.834 1548.02 L286.381 1535.06 M277.641 1530.02 L279.77 1526.33 L284.441 1529.02 L282.312 1532.71 L277.641 1530.02 Z" fill="#000000" fill-rule="evenodd" fill-opacity="1" /><path clip-path="url(#clip060)" d="M312.643 1510.13 L326.195 1517.95 L324.065 1521.64 L310.634 1513.89 Q307.446 1512.05 305.145 1512.38 Q302.844 1512.7 301.409 1515.19 Q299.684 1518.18 300.593 1521 Q301.502 1523.82 304.79 1525.72 L317.479 1533.05 L315.338 1536.76 L292.886 1523.8 L295.027 1520.09 L298.515 1522.1 Q297.254 1519.61 297.282 1517.25 Q297.321 1514.86 298.676 1512.52 Q300.909 1508.65 304.461 1508.05 Q307.992 1507.44 312.643 1510.13 Z" fill="#000000" fill-rule="evenodd" fill-opacity="1" /><path clip-path="url(#clip060)" d="M329.135 1505.08 L341.042 1511.96 L338.901 1515.67 L307.909 1497.77 L310.05 1494.07 L313.458 1496.03 Q312.125 1493.71 312.181 1491.39 Q312.229 1489.04 313.652 1486.58 Q316.013 1482.49 320.731 1481.82 Q325.46 1481.13 330.752 1484.18 Q336.045 1487.24 337.811 1491.68 Q339.588 1496.1 337.227 1500.19 Q335.804 1502.65 333.811 1503.88 Q331.811 1505.08 329.135 1505.08 M328.542 1488.01 Q324.472 1485.66 321.195 1486.01 Q317.909 1486.33 316.219 1489.26 Q314.529 1492.19 315.882 1495.21 Q317.227 1498.21 321.296 1500.56 Q325.366 1502.91 328.652 1502.59 Q331.93 1502.23 333.619 1499.31 Q335.309 1496.38 333.964 1493.39 Q332.611 1490.36 328.542 1488.01 Z" fill="#000000" fill-rule="evenodd" fill-opacity="1" /><path clip-path="url(#clip060)" d="M336.408 1479.8 L322.816 1471.95 L324.946 1468.27 L338.397 1476.03 Q341.585 1477.87 343.906 1477.55 Q346.207 1477.23 347.642 1474.74 Q349.367 1471.75 348.458 1468.93 Q347.56 1466.09 344.273 1464.19 L331.543 1456.84 L333.673 1453.15 L356.125 1466.11 L353.995 1469.8 L350.547 1467.81 Q351.817 1470.33 351.789 1472.7 Q351.753 1475.03 350.399 1477.37 Q348.165 1481.24 344.602 1481.86 Q341.039 1482.47 336.408 1479.8 M327.634 1462.36 L327.634 1462.36 Z" fill="#000000" fill-rule="evenodd" fill-opacity="1" /><path clip-path="url(#clip060)" d="M333.791 1438.22 L340.166 1441.9 L344.552 1434.31 L347.419 1435.96 L343.032 1443.56 L355.221 1450.6 Q357.967 1452.18 359.177 1451.89 Q360.399 1451.58 361.73 1449.28 L363.917 1445.49 L367.005 1447.27 L364.817 1451.06 Q362.352 1455.33 359.831 1456.04 Q357.289 1456.74 353.08 1454.3 L340.891 1447.27 L339.329 1449.97 L336.462 1448.32 L338.024 1445.61 L331.65 1441.93 L333.791 1438.22 Z" fill="#000000" fill-rule="evenodd" fill-opacity="1" /><path clip-path="url(#clip060)" d="M323.288 1554.63 L325.418 1550.94 L356.61 1568.95 L354.481 1572.64 L323.288 1554.63 Z" fill="#000000" fill-rule="evenodd" fill-opacity="1" /><path clip-path="url(#clip060)" d="M355.671 1544.51 Q353.09 1548.99 353.117 1551.3 Q353.144 1553.61 355.61 1555.04 Q357.575 1556.17 359.478 1555.56 Q361.373 1554.92 362.658 1552.69 Q364.428 1549.62 363.328 1546.53 Q362.22 1543.4 358.611 1541.32 L357.789 1540.85 L355.671 1544.51 M358.395 1536.28 L371.205 1543.67 L369.076 1547.36 L365.668 1545.39 Q366.983 1547.84 366.878 1550.29 Q366.752 1552.73 365.178 1555.46 Q363.187 1558.9 360.082 1559.84 Q356.968 1560.74 353.721 1558.86 Q349.932 1556.68 349.466 1553.04 Q349.011 1549.38 351.916 1544.35 L354.902 1539.18 L354.542 1538.97 Q351.996 1537.5 349.64 1538.39 Q347.276 1539.24 345.529 1542.27 Q344.418 1544.19 343.825 1546.28 Q343.233 1548.37 343.183 1550.59 L339.775 1548.62 Q340.162 1546.15 340.881 1544.02 Q341.58 1541.89 342.621 1540.08 Q345.434 1535.21 349.349 1534.26 Q353.263 1533.31 358.395 1536.28 Z" fill="#000000" fill-rule="evenodd" fill-opacity="1" /><path clip-path="url(#clip060)" d="M383.07 1527.94 Q386.177 1531.82 386.543 1534.01 Q386.909 1536.2 385.474 1538.68 L383.773 1541.63 L380.686 1539.85 L381.936 1537.68 Q382.815 1536.16 382.58 1534.9 Q382.344 1533.64 380.248 1531.07 L378.946 1529.43 L351.612 1525.76 L353.868 1521.85 L375.48 1524.97 L361.97 1507.82 L364.227 1503.91 L383.07 1527.94 Z" fill="#000000" fill-rule="evenodd" fill-opacity="1" /><path clip-path="url(#clip060)" d="M388.559 1485.56 L390.363 1486.6 L380.572 1503.56 Q384.519 1505.52 387.705 1504.63 Q390.881 1503.71 392.999 1500.05 Q394.226 1497.92 394.851 1495.63 Q395.487 1493.33 395.579 1490.76 L399.067 1492.78 Q398.763 1495.25 398 1497.59 Q397.238 1499.93 395.999 1502.07 Q392.898 1507.44 387.953 1508.79 Q383.02 1510.11 377.688 1507.03 Q372.175 1503.85 370.66 1499.02 Q369.137 1494.15 372.054 1489.1 Q374.67 1484.57 379.113 1483.64 Q383.547 1482.67 388.559 1485.56 M385.347 1488.62 Q382.297 1486.92 379.532 1487.54 Q376.778 1488.14 375.204 1490.87 Q373.422 1493.95 374.09 1496.83 Q374.769 1499.68 377.774 1501.79 L385.347 1488.62 Z" fill="#000000" fill-rule="evenodd" fill-opacity="1" /><path clip-path="url(#clip060)" d="M392.71 1462.54 Q391.99 1462.95 391.402 1463.6 Q390.805 1464.22 390.295 1465.1 Q388.49 1468.23 389.562 1471.09 Q390.626 1473.92 394.435 1476.12 L406.263 1482.95 L404.122 1486.66 L381.669 1473.7 L383.81 1469.99 L387.299 1472 Q385.925 1469.66 386.019 1467.23 Q386.093 1464.79 387.633 1462.12 Q387.852 1461.74 388.179 1461.31 Q388.485 1460.87 388.909 1460.37 L392.71 1462.54 Z" fill="#000000" fill-rule="evenodd" fill-opacity="1" /><path clip-path="url(#clip060)" d="M1923.57 1557.66 Q1921.86 1560.63 1923.19 1563.7 Q1924.5 1566.75 1928.53 1569.08 Q1932.56 1571.41 1935.87 1571.04 Q1939.17 1570.65 1940.89 1567.66 Q1942.6 1564.72 1941.27 1561.65 Q1939.94 1558.58 1935.93 1556.27 Q1931.94 1553.97 1928.62 1554.35 Q1925.28 1554.72 1923.57 1557.66 M1920.45 1555.86 Q1923.22 1551.05 1927.94 1550.11 Q1932.65 1549.17 1938.18 1552.36 Q1943.7 1555.54 1945.26 1560.11 Q1946.8 1564.66 1944.02 1569.47 Q1941.23 1574.3 1936.52 1575.24 Q1931.8 1576.15 1926.29 1572.97 Q1920.75 1569.77 1919.2 1565.24 Q1917.66 1560.69 1920.45 1555.86 Z" fill="#000000" fill-rule="evenodd" fill-opacity="1" /><path clip-path="url(#clip060)" d="M1943.84 1547.98 L1930.25 1540.13 L1932.38 1536.44 L1945.83 1544.21 Q1949.02 1546.05 1951.34 1545.73 Q1953.64 1545.41 1955.07 1542.92 Q1956.8 1539.93 1955.89 1537.11 Q1954.99 1534.27 1951.7 1532.37 L1938.97 1525.02 L1941.1 1521.33 L1963.56 1534.29 L1961.43 1537.98 L1957.98 1535.99 Q1959.25 1538.51 1959.22 1540.88 Q1959.18 1543.21 1957.83 1545.55 Q1955.6 1549.42 1952.03 1550.04 Q1948.47 1550.65 1943.84 1547.98 M1935.06 1530.54 L1935.06 1530.54 Z" fill="#000000" fill-rule="evenodd" fill-opacity="1" /><path clip-path="url(#clip060)" d="M1941.22 1506.4 L1947.6 1510.08 L1951.98 1502.49 L1954.85 1504.14 L1950.46 1511.74 L1962.65 1518.78 Q1965.4 1520.36 1966.61 1520.07 Q1967.83 1519.76 1969.16 1517.45 L1971.35 1513.67 L1974.44 1515.45 L1972.25 1519.24 Q1969.78 1523.51 1967.26 1524.22 Q1964.72 1524.91 1960.51 1522.48 L1948.32 1515.45 L1946.76 1518.15 L1943.89 1516.5 L1945.46 1513.79 L1939.08 1510.11 L1941.22 1506.4 Z" fill="#000000" fill-rule="evenodd" fill-opacity="1" /><path clip-path="url(#clip060)" d="M1975.93 1505.08 L1987.84 1511.96 L1985.7 1515.67 L1954.7 1497.77 L1956.84 1494.07 L1960.25 1496.03 Q1958.92 1493.71 1958.98 1491.39 Q1959.02 1489.04 1960.45 1486.58 Q1962.81 1482.49 1967.53 1481.82 Q1972.25 1481.13 1977.55 1484.18 Q1982.84 1487.24 1984.6 1491.68 Q1986.38 1496.1 1984.02 1500.19 Q1982.6 1502.65 1980.61 1503.88 Q1978.6 1505.08 1975.93 1505.08 M1975.34 1488.01 Q1971.27 1485.66 1967.99 1486.01 Q1964.7 1486.33 1963.01 1489.26 Q1961.32 1492.19 1962.68 1495.21 Q1964.02 1498.21 1968.09 1500.56 Q1972.16 1502.91 1975.45 1502.59 Q1978.72 1502.23 1980.41 1499.31 Q1982.1 1496.38 1980.76 1493.39 Q1979.41 1490.36 1975.34 1488.01 Z" fill="#000000" fill-rule="evenodd" fill-opacity="1" /><path clip-path="url(#clip060)" d="M1983.2 1479.8 L1969.61 1471.95 L1971.74 1468.27 L1985.19 1476.03 Q1988.38 1477.87 1990.7 1477.55 Q1993 1477.23 1994.44 1474.74 Q1996.16 1471.75 1995.25 1468.93 Q1994.35 1466.09 1991.07 1464.19 L1978.34 1456.84 L1980.47 1453.15 L2002.92 1466.11 L2000.79 1469.8 L1997.34 1467.81 Q1998.61 1470.33 1998.58 1472.7 Q1998.55 1475.03 1997.19 1477.37 Q1994.96 1481.24 1991.4 1481.86 Q1987.83 1482.47 1983.2 1479.8 M1974.43 1462.36 L1974.43 1462.36 Z" fill="#000000" fill-rule="evenodd" fill-opacity="1" /><path clip-path="url(#clip060)" d="M1980.58 1438.22 L1986.96 1441.9 L1991.35 1434.31 L1994.21 1435.96 L1989.83 1443.56 L2002.01 1450.6 Q2004.76 1452.18 2005.97 1451.89 Q2007.19 1451.58 2008.52 1449.28 L2010.71 1445.49 L2013.8 1447.27 L2011.61 1451.06 Q2009.15 1455.33 2006.62 1456.04 Q2004.08 1456.74 1999.87 1454.3 L1987.69 1447.27 L1986.12 1449.97 L1983.26 1448.32 L1984.82 1445.61 L1978.44 1441.93 L1980.58 1438.22 Z" fill="#000000" fill-rule="evenodd" fill-opacity="1" /><path clip-path="url(#clip060)" d="M1953.48 1583.39 L1955.61 1579.7 L1986.8 1597.71 L1984.67 1601.4 L1953.48 1583.39 Z" fill="#000000" fill-rule="evenodd" fill-opacity="1" /><path clip-path="url(#clip060)" d="M1985.86 1573.27 Q1983.28 1577.74 1983.31 1580.06 Q1983.34 1582.37 1985.8 1583.79 Q1987.77 1584.93 1989.67 1584.32 Q1991.56 1583.67 1992.85 1581.45 Q1994.62 1578.38 1993.52 1575.29 Q1992.41 1572.16 1988.8 1570.08 L1987.98 1569.6 L1985.86 1573.27 M1988.59 1565.03 L2001.4 1572.43 L1999.27 1576.12 L1995.86 1574.15 Q1997.17 1576.6 1997.07 1579.05 Q1996.94 1581.49 1995.37 1584.21 Q1993.38 1587.66 1990.27 1588.59 Q1987.16 1589.5 1983.91 1587.62 Q1980.12 1585.43 1979.66 1581.8 Q1979.2 1578.14 1982.11 1573.11 L1985.09 1567.94 L1984.73 1567.73 Q1982.19 1566.26 1979.83 1567.14 Q1977.47 1568 1975.72 1571.02 Q1974.61 1572.95 1974.02 1575.04 Q1973.42 1577.13 1973.37 1579.35 L1969.97 1577.38 Q1970.35 1574.9 1971.07 1572.78 Q1971.77 1570.64 1972.81 1568.84 Q1975.62 1563.97 1979.54 1563.02 Q1983.45 1562.07 1988.59 1565.03 Z" fill="#000000" fill-rule="evenodd" fill-opacity="1" /><path clip-path="url(#clip060)" d="M2013.26 1556.69 Q2016.37 1560.57 2016.73 1562.76 Q2017.1 1564.95 2015.67 1567.44 L2013.96 1570.39 L2010.88 1568.6 L2012.13 1566.44 Q2013.01 1564.91 2012.77 1563.66 Q2012.54 1562.4 2010.44 1559.82 L2009.14 1558.19 L1981.8 1554.52 L1984.06 1550.61 L2005.67 1553.73 L1992.16 1536.57 L1994.42 1532.67 L2013.26 1556.69 Z" fill="#000000" fill-rule="evenodd" fill-opacity="1" /><path clip-path="url(#clip060)" d="M2018.75 1514.32 L2020.55 1515.36 L2010.76 1532.32 Q2014.71 1534.28 2017.9 1533.39 Q2021.07 1532.47 2023.19 1528.8 Q2024.42 1526.68 2025.04 1524.39 Q2025.68 1522.09 2025.77 1519.52 L2029.26 1521.53 Q2028.95 1524 2028.19 1526.34 Q2027.43 1528.68 2026.19 1530.83 Q2023.09 1536.2 2018.14 1537.54 Q2013.21 1538.86 2007.88 1535.79 Q2002.37 1532.6 2000.85 1527.77 Q1999.33 1522.91 2002.25 1517.86 Q2004.86 1513.33 2009.3 1512.39 Q2013.74 1511.42 2018.75 1514.32 M2015.54 1517.38 Q2012.49 1515.67 2009.72 1516.3 Q2006.97 1516.9 2005.4 1519.62 Q2003.61 1522.71 2004.28 1525.58 Q2004.96 1528.43 2007.97 1530.54 L2015.54 1517.38 Z" fill="#000000" fill-rule="evenodd" fill-opacity="1" /><path clip-path="url(#clip060)" d="M2022.9 1491.29 Q2022.18 1491.71 2021.59 1492.36 Q2021 1492.97 2020.49 1493.86 Q2018.68 1496.98 2019.75 1499.85 Q2020.82 1502.68 2024.63 1504.88 L2036.45 1511.71 L2034.31 1515.42 L2011.86 1502.45 L2014 1498.75 L2017.49 1500.76 Q2016.12 1498.42 2016.21 1495.99 Q2016.28 1493.54 2017.82 1490.88 Q2018.04 1490.5 2018.37 1490.07 Q2018.68 1489.63 2019.1 1489.13 L2022.9 1491.29 Z" fill="#000000" fill-rule="evenodd" fill-opacity="1" /><path clip-path="url(#clip060)" d="M758.353 37.9026 Q760.61 38.6665 762.728 41.1664 Q764.881 43.6664 767.034 48.0414 L774.152 62.208 L766.617 62.208 L759.985 48.9095 Q757.416 43.7012 754.985 41.9998 Q752.589 40.2984 748.423 40.2984 L740.784 40.2984 L740.784 62.208 L733.77 62.208 L733.77 10.368 L749.603 10.368 Q758.492 10.368 762.867 14.0833 Q767.242 17.7985 767.242 25.2985 Q767.242 30.1943 764.95 33.4234 Q762.693 36.6526 758.353 37.9026 M740.784 16.1319 L740.784 34.5345 L749.603 34.5345 Q754.673 34.5345 757.242 32.2082 Q759.846 29.8471 759.846 25.2985 Q759.846 20.7499 757.242 18.4582 Q754.673 16.1319 749.603 16.1319 L740.784 16.1319 Z" fill="#000000" fill-rule="evenodd" fill-opacity="1" /><path clip-path="url(#clip060)" d="M812.971 41.1664 L812.971 44.2914 L783.596 44.2914 Q784.013 50.8886 787.554 54.3608 Q791.131 57.7983 797.485 57.7983 Q801.165 57.7983 804.603 56.8955 Q808.075 55.9928 811.478 54.1872 L811.478 60.2288 Q808.04 61.6872 804.429 62.4511 Q800.818 63.2149 797.103 63.2149 Q787.797 63.2149 782.346 57.7983 Q776.929 52.3817 776.929 43.1456 Q776.929 33.597 782.068 28.0068 Q787.242 22.3818 795.992 22.3818 Q803.839 22.3818 808.388 27.4512 Q812.971 32.4859 812.971 41.1664 M806.582 39.2915 Q806.513 34.0484 803.631 30.9234 Q800.783 27.7985 796.061 27.7985 Q790.714 27.7985 787.485 30.8193 Q784.29 33.8401 783.804 39.3262 L806.582 39.2915 Z" fill="#000000" fill-rule="evenodd" fill-opacity="1" /><path clip-path="url(#clip060)" d="M851.443 24.8124 L851.443 30.7846 Q848.735 29.2915 845.991 28.5623 Q843.283 27.7985 840.505 27.7985 Q834.29 27.7985 830.853 31.7568 Q827.415 35.6804 827.415 42.7984 Q827.415 49.9164 830.853 53.8747 Q834.29 57.7983 840.505 57.7983 Q843.283 57.7983 845.991 57.0691 Q848.735 56.3053 851.443 54.8122 L851.443 60.715 Q848.769 61.9649 845.887 62.5899 Q843.04 63.2149 839.811 63.2149 Q831.026 63.2149 825.853 57.6941 Q820.679 52.1733 820.679 42.7984 Q820.679 33.2845 825.887 27.8332 Q831.13 22.3818 840.228 22.3818 Q843.179 22.3818 845.991 23.0068 Q848.804 23.5971 851.443 24.8124 Z" fill="#000000" fill-rule="evenodd" fill-opacity="1" /><path clip-path="url(#clip060)" d="M861.894 46.8609 L861.894 23.3193 L868.283 23.3193 L868.283 46.6178 Q868.283 52.1386 870.436 54.9164 Q872.589 57.6594 876.894 57.6594 Q882.068 57.6594 885.054 54.3608 Q888.075 51.0622 888.075 45.3678 L888.075 23.3193 L894.463 23.3193 L894.463 62.208 L888.075 62.208 L888.075 56.2358 Q885.748 59.7775 882.658 61.5136 Q879.602 63.2149 875.54 63.2149 Q868.839 63.2149 865.366 59.0483 Q861.894 54.8817 861.894 46.8609 M877.97 22.3818 L877.97 22.3818 Z" fill="#000000" fill-rule="evenodd" fill-opacity="1" /><path clip-path="url(#clip060)" d="M930.158 29.2915 Q929.081 28.6665 927.797 28.3887 Q926.547 28.0762 925.019 28.0762 Q919.602 28.0762 916.686 31.6179 Q913.804 35.1248 913.804 41.722 L913.804 62.208 L907.38 62.208 L907.38 23.3193 L913.804 23.3193 L913.804 29.361 Q915.817 25.8193 919.047 24.1179 Q922.276 22.3818 926.894 22.3818 Q927.554 22.3818 928.352 22.486 Q929.151 22.5554 930.123 22.729 L930.158 29.2915 Z" fill="#000000" fill-rule="evenodd" fill-opacity="1" /><path clip-path="url(#clip060)" d="M952.206 8.24996 Q947.553 16.236 945.297 24.0485 Q943.04 31.8609 943.04 39.8817 Q943.04 47.9025 945.297 55.7844 Q947.588 63.6316 952.206 71.5829 L946.651 71.5829 Q941.442 63.4233 938.838 55.5414 Q936.269 47.6595 936.269 39.8817 Q936.269 32.1387 938.838 24.2915 Q941.408 16.4444 946.651 8.24996 L952.206 8.24996 Z" fill="#000000" fill-rule="evenodd" fill-opacity="1" /><path clip-path="url(#clip060)" d="M989.463 37.9026 Q991.72 38.6665 993.838 41.1664 Q995.991 43.6664 998.143 48.0414 L1005.26 62.208 L997.727 62.208 L991.095 48.9095 Q988.525 43.7012 986.095 41.9998 Q983.699 40.2984 979.532 40.2984 L971.894 40.2984 L971.894 62.208 L964.88 62.208 L964.88 10.368 L980.713 10.368 Q989.602 10.368 993.977 14.0833 Q998.352 17.7985 998.352 25.2985 Q998.352 30.1943 996.06 33.4234 Q993.803 36.6526 989.463 37.9026 M971.894 16.1319 L971.894 34.5345 L980.713 34.5345 Q985.782 34.5345 988.352 32.2082 Q990.956 29.8471 990.956 25.2985 Q990.956 20.7499 988.352 18.4582 Q985.782 16.1319 980.713 16.1319 L971.894 16.1319 Z" fill="#000000" fill-rule="evenodd" fill-opacity="1" /><path clip-path="url(#clip060)" d="M1014.29 10.368 L1023.73 10.368 L1046.72 53.7358 L1046.72 10.368 L1053.53 10.368 L1053.53 62.208 L1044.08 62.208 L1021.09 18.8402 L1021.09 62.208 L1014.29 62.208 L1014.29 10.368 Z" fill="#000000" fill-rule="evenodd" fill-opacity="1" /><path clip-path="url(#clip060)" d="M1067.48 10.368 L1076.93 10.368 L1099.91 53.7358 L1099.91 10.368 L1106.72 10.368 L1106.72 62.208 L1097.27 62.208 L1074.29 18.8402 L1074.29 62.208 L1067.48 62.208 L1067.48 10.368 Z" fill="#000000" fill-rule="evenodd" fill-opacity="1" /><path clip-path="url(#clip060)" d="M1159.5 14.361 L1159.5 21.7568 Q1155.96 18.4582 1151.93 16.8263 Q1147.93 15.1944 1143.42 15.1944 Q1134.53 15.1944 1129.81 20.6457 Q1125.09 26.0624 1125.09 36.3401 Q1125.09 46.5831 1129.81 52.0344 Q1134.53 57.4511 1143.42 57.4511 Q1147.93 57.4511 1151.93 55.8191 Q1155.96 54.1872 1159.5 50.8886 L1159.5 58.215 Q1155.82 60.715 1151.68 61.9649 Q1147.59 63.2149 1143 63.2149 Q1131.23 63.2149 1124.46 56.0275 Q1117.69 48.8053 1117.69 36.3401 Q1117.69 23.8402 1124.46 16.6527 Q1131.23 9.43051 1143 9.43051 Q1147.66 9.43051 1151.75 10.6805 Q1155.89 11.8958 1159.5 14.361 Z" fill="#000000" fill-rule="evenodd" fill-opacity="1" /><path clip-path="url(#clip060)" d="M1203.32 41.1664 L1203.32 44.2914 L1173.94 44.2914 Q1174.36 50.8886 1177.9 54.3608 Q1181.48 57.7983 1187.83 57.7983 Q1191.51 57.7983 1194.95 56.8955 Q1198.42 55.9928 1201.82 54.1872 L1201.82 60.2288 Q1198.39 61.6872 1194.77 62.4511 Q1191.16 63.2149 1187.45 63.2149 Q1178.14 63.2149 1172.69 57.7983 Q1167.27 52.3817 1167.27 43.1456 Q1167.27 33.597 1172.41 28.0068 Q1177.59 22.3818 1186.34 22.3818 Q1194.18 22.3818 1198.73 27.4512 Q1203.32 32.4859 1203.32 41.1664 M1196.93 39.2915 Q1196.86 34.0484 1193.98 30.9234 Q1191.13 27.7985 1186.41 27.7985 Q1181.06 27.7985 1177.83 30.8193 Q1174.64 33.8401 1174.15 39.3262 L1196.93 39.2915 Z" fill="#000000" fill-rule="evenodd" fill-opacity="1" /><path clip-path="url(#clip060)" d="M1213.8 8.18051 L1220.19 8.18051 L1220.19 62.208 L1213.8 62.208 L1213.8 8.18051 Z" fill="#000000" fill-rule="evenodd" fill-opacity="1" /><path clip-path="url(#clip060)" d="M1233.56 8.18051 L1239.95 8.18051 L1239.95 62.208 L1233.56 62.208 L1233.56 8.18051 Z" fill="#000000" fill-rule="evenodd" fill-opacity="1" /><path clip-path="url(#clip060)" d="M1268.66 8.24996 Q1264.01 16.236 1261.75 24.0485 Q1259.5 31.8609 1259.5 39.8817 Q1259.5 47.9025 1261.75 55.7844 Q1264.04 63.6316 1268.66 71.5829 L1263.11 71.5829 Q1257.9 63.4233 1255.29 55.5414 Q1252.73 47.6595 1252.73 39.8817 Q1252.73 32.1387 1255.29 24.2915 Q1257.86 16.4444 1263.11 8.24996 L1268.66 8.24996 Z" fill="#000000" fill-rule="evenodd" fill-opacity="1" /><path clip-path="url(#clip060)" d="M1303.21 34.2568 Q1308.25 35.3331 1311.06 38.7359 Q1313.91 42.1387 1313.91 47.1386 Q1313.91 54.8122 1308.63 59.0136 Q1303.35 63.2149 1293.63 63.2149 Q1290.36 63.2149 1286.89 62.5552 Q1283.45 61.9302 1279.77 60.6455 L1279.77 53.8747 Q1282.69 55.5761 1286.16 56.4441 Q1289.63 57.3122 1293.42 57.3122 Q1300.02 57.3122 1303.45 54.708 Q1306.93 52.1039 1306.93 47.1386 Q1306.93 42.5553 1303.7 39.9859 Q1300.5 37.3817 1294.77 37.3817 L1288.73 37.3817 L1288.73 31.6179 L1295.05 31.6179 Q1300.23 31.6179 1302.97 29.5693 Q1305.71 27.486 1305.71 23.5971 Q1305.71 19.6041 1302.86 17.486 Q1300.05 15.3333 1294.77 15.3333 Q1291.89 15.3333 1288.59 15.9582 Q1285.29 16.5832 1281.34 17.9027 L1281.34 11.6527 Q1285.33 10.5416 1288.8 9.98606 Q1292.31 9.43051 1295.4 9.43051 Q1303.38 9.43051 1308.04 13.0763 Q1312.69 16.6874 1312.69 22.8679 Q1312.69 27.1735 1310.23 30.1596 Q1307.76 33.1109 1303.21 34.2568 Z" fill="#000000" fill-rule="evenodd" fill-opacity="1" /><path clip-path="url(#clip060)" d="M1327.93 53.3886 L1335.26 53.3886 L1335.26 59.3608 L1329.57 70.4718 L1325.09 70.4718 L1327.93 59.3608 L1327.93 53.3886 Z" fill="#000000" fill-rule="evenodd" fill-opacity="1" /><path clip-path="url(#clip060)" d="M1372.48 10.368 L1400.02 10.368 L1400.02 16.2707 L1378.91 16.2707 L1378.91 28.979 Q1380.43 28.4582 1381.96 28.2151 Q1383.49 27.9374 1385.02 27.9374 Q1393.7 27.9374 1398.77 32.6943 Q1403.84 37.4512 1403.84 45.5761 Q1403.84 53.9442 1398.63 58.5969 Q1393.42 63.2149 1383.94 63.2149 Q1380.68 63.2149 1377.27 62.6594 Q1373.91 62.1038 1370.29 60.9927 L1370.29 53.9442 Q1373.42 55.6455 1376.75 56.4789 Q1380.09 57.3122 1383.8 57.3122 Q1389.81 57.3122 1393.31 54.1525 Q1396.82 50.9928 1396.82 45.5761 Q1396.82 40.1595 1393.31 36.9998 Q1389.81 33.8401 1383.8 33.8401 Q1380.99 33.8401 1378.18 34.4651 Q1375.4 35.0901 1372.48 36.4095 L1372.48 10.368 Z" fill="#000000" fill-rule="evenodd" fill-opacity="1" /><path clip-path="url(#clip060)" d="M1418.38 53.3886 L1425.71 53.3886 L1425.71 59.3608 L1420.02 70.4718 L1415.54 70.4718 L1418.38 59.3608 L1418.38 53.3886 Z" fill="#000000" fill-rule="evenodd" fill-opacity="1" /><path clip-path="url(#clip060)" d="M1468.28 12.2777 L1468.28 23.3193 L1481.44 23.3193 L1481.44 28.2846 L1468.28 28.2846 L1468.28 49.3956 Q1468.28 54.1525 1469.56 55.5066 Q1470.88 56.8608 1474.88 56.8608 L1481.44 56.8608 L1481.44 62.208 L1474.88 62.208 Q1467.48 62.208 1464.67 59.465 Q1461.86 56.6872 1461.86 49.3956 L1461.86 28.2846 L1457.17 28.2846 L1457.17 23.3193 L1461.86 23.3193 L1461.86 12.2777 L1468.28 12.2777 Z" fill="#000000" fill-rule="evenodd" fill-opacity="1" /><path clip-path="url(#clip060)" d="M1507.52 42.6595 Q1499.77 42.6595 1496.79 44.4303 Q1493.8 46.2011 1493.8 50.472 Q1493.8 53.8747 1496.02 55.8886 Q1498.28 57.8677 1502.13 57.8677 Q1507.45 57.8677 1510.64 54.1178 Q1513.87 50.3331 1513.87 44.0831 L1513.87 42.6595 L1507.52 42.6595 M1520.26 40.0206 L1520.26 62.208 L1513.87 62.208 L1513.87 56.3053 Q1511.68 59.8469 1508.42 61.5483 Q1505.15 63.2149 1500.43 63.2149 Q1494.46 63.2149 1490.92 59.8816 Q1487.41 56.5136 1487.41 50.8886 Q1487.41 44.3262 1491.79 40.9928 Q1496.2 37.6595 1504.91 37.6595 L1513.87 37.6595 L1513.87 37.0345 Q1513.87 32.6248 1510.95 30.229 Q1508.07 27.7985 1502.83 27.7985 Q1499.49 27.7985 1496.34 28.5971 Q1493.18 29.3957 1490.26 30.9929 L1490.26 25.0901 Q1493.77 23.736 1497.06 23.0763 Q1500.36 22.3818 1503.49 22.3818 Q1511.93 22.3818 1516.09 26.7568 Q1520.26 31.1318 1520.26 40.0206 Z" fill="#000000" fill-rule="evenodd" fill-opacity="1" /><path clip-path="url(#clip060)" d="M1565.74 38.7359 L1565.74 62.208 L1559.36 62.208 L1559.36 38.9442 Q1559.36 33.4234 1557.2 30.6804 Q1555.05 27.9374 1550.74 27.9374 Q1545.57 27.9374 1542.58 31.2359 Q1539.6 34.5345 1539.6 40.229 L1539.6 62.208 L1533.18 62.208 L1533.18 23.3193 L1539.6 23.3193 L1539.6 29.361 Q1541.89 25.854 1544.98 24.1179 Q1548.11 22.3818 1552.17 22.3818 Q1558.87 22.3818 1562.31 26.5485 Q1565.74 30.6804 1565.74 38.7359 Z" fill="#000000" fill-rule="evenodd" fill-opacity="1" /><path clip-path="url(#clip060)" d="M1610.81 38.7359 L1610.81 62.208 L1604.42 62.208 L1604.42 38.9442 Q1604.42 33.4234 1602.27 30.6804 Q1600.12 27.9374 1595.81 27.9374 Q1590.64 27.9374 1587.65 31.2359 Q1584.67 34.5345 1584.67 40.229 L1584.67 62.208 L1578.24 62.208 L1578.24 8.18051 L1584.67 8.18051 L1584.67 29.361 Q1586.96 25.854 1590.05 24.1179 Q1593.17 22.3818 1597.24 22.3818 Q1603.94 22.3818 1607.38 26.5485 Q1610.81 30.6804 1610.81 38.7359 Z" fill="#000000" fill-rule="evenodd" fill-opacity="1" /><path clip-path="url(#clip060)" d="M1622.55 8.24996 L1628.11 8.24996 Q1633.31 16.4444 1635.88 24.2915 Q1638.49 32.1387 1638.49 39.8817 Q1638.49 47.6595 1635.88 55.5414 Q1633.31 63.4233 1628.11 71.5829 L1622.55 71.5829 Q1627.17 63.6316 1629.42 55.7844 Q1631.72 47.9025 1631.72 39.8817 Q1631.72 31.8609 1629.42 24.0485 Q1627.17 16.236 1622.55 8.24996 Z" fill="#000000" fill-rule="evenodd" fill-opacity="1" /><path clip-path="url(#clip060)" d="M1650.29 8.24996 L1655.85 8.24996 Q1661.06 16.4444 1663.63 24.2915 Q1666.23 32.1387 1666.23 39.8817 Q1666.23 47.6595 1663.63 55.5414 Q1661.06 63.4233 1655.85 71.5829 L1650.29 71.5829 Q1654.91 63.6316 1657.17 55.7844 Q1659.46 47.9025 1659.46 39.8817 Q1659.46 31.8609 1657.17 24.0485 Q1654.91 16.236 1650.29 8.24996 Z" fill="#000000" fill-rule="evenodd" fill-opacity="1" /><polyline clip-path="url(#clip062)" style="stroke:#808080; stroke-linecap:butt; stroke-linejoin:round; stroke-width:4; stroke-opacity:1; fill:none" points="
  376.603,964.264 2023.4,1127.62 
  "/>
<polyline clip-path="url(#clip062)" style="stroke:#808080; stroke-linecap:butt; stroke-linejoin:round; stroke-width:4; stroke-opacity:1; fill:none" points="
  376.603,964.264 2023.4,964.264 
  "/>
<polyline clip-path="url(#clip062)" style="stroke:#808080; stroke-linecap:butt; stroke-linejoin:round; stroke-width:4; stroke-opacity:1; fill:none" points="
  376.603,964.264 2023.4,800.912 
  "/>
<polyline clip-path="url(#clip062)" style="stroke:#808080; stroke-linecap:butt; stroke-linejoin:round; stroke-width:4; stroke-opacity:1; fill:none" points="
  376.603,964.264 2023.4,637.56 
  "/>
<polyline clip-path="url(#clip062)" style="stroke:#808080; stroke-linecap:butt; stroke-linejoin:round; stroke-width:4; stroke-opacity:1; fill:none" points="
  376.603,964.264 2023.4,474.207 
  "/>
<polyline clip-path="url(#clip062)" style="stroke:#808080; stroke-linecap:butt; stroke-linejoin:round; stroke-width:4; stroke-opacity:1; fill:none" points="
  376.603,800.912 2023.4,1127.62 
  "/>
<polyline clip-path="url(#clip062)" style="stroke:#808080; stroke-linecap:butt; stroke-linejoin:round; stroke-width:4; stroke-opacity:1; fill:none" points="
  376.603,800.912 2023.4,964.264 
  "/>
<polyline clip-path="url(#clip062)" style="stroke:#808080; stroke-linecap:butt; stroke-linejoin:round; stroke-width:4; stroke-opacity:1; fill:none" points="
  376.603,800.912 2023.4,800.912 
  "/>
<polyline clip-path="url(#clip062)" style="stroke:#808080; stroke-linecap:butt; stroke-linejoin:round; stroke-width:4; stroke-opacity:1; fill:none" points="
  376.603,800.912 2023.4,637.56 
  "/>
<polyline clip-path="url(#clip062)" style="stroke:#808080; stroke-linecap:butt; stroke-linejoin:round; stroke-width:4; stroke-opacity:1; fill:none" points="
  376.603,800.912 2023.4,474.207 
  "/>
<polyline clip-path="url(#clip062)" style="stroke:#808080; stroke-linecap:butt; stroke-linejoin:round; stroke-width:4; stroke-opacity:1; fill:none" points="
  376.603,637.56 2023.4,1127.62 
  "/>
<polyline clip-path="url(#clip062)" style="stroke:#808080; stroke-linecap:butt; stroke-linejoin:round; stroke-width:4; stroke-opacity:1; fill:none" points="
  376.603,637.56 2023.4,964.264 
  "/>
<polyline clip-path="url(#clip062)" style="stroke:#808080; stroke-linecap:butt; stroke-linejoin:round; stroke-width:4; stroke-opacity:1; fill:none" points="
  376.603,637.56 2023.4,800.912 
  "/>
<polyline clip-path="url(#clip062)" style="stroke:#808080; stroke-linecap:butt; stroke-linejoin:round; stroke-width:4; stroke-opacity:1; fill:none" points="
  376.603,637.56 2023.4,637.56 
  "/>
<polyline clip-path="url(#clip062)" style="stroke:#808080; stroke-linecap:butt; stroke-linejoin:round; stroke-width:4; stroke-opacity:1; fill:none" points="
  376.603,637.56 2023.4,474.207 
  "/>
<path clip-path="url(#clip062)" d="
M376.603 1004.87 L364.054 1002.88 L352.734 997.117 L343.75 988.133 L337.982 976.813 L335.995 964.264 L337.982 951.716 L343.75 940.396 L352.734 931.412 L364.054 925.644 
  L376.603 923.656 L389.151 925.644 L400.472 931.412 L409.455 940.396 L415.223 951.716 L417.211 964.264 L415.223 976.813 L409.455 988.133 L400.472 997.117 L389.151 1002.88 
  L376.603 1004.87  Z
  " fill="#000000" fill-rule="evenodd" fill-opacity="0"/>
<polyline clip-path="url(#clip062)" style="stroke:#000000; stroke-linecap:butt; stroke-linejoin:round; stroke-width:4; stroke-opacity:1; fill:none" points="
  376.603,1004.87 364.054,1002.88 352.734,997.117 343.75,988.133 337.982,976.813 335.995,964.264 337.982,951.716 343.75,940.396 352.734,931.412 364.054,925.644 
  376.603,923.656 389.151,925.644 400.472,931.412 409.455,940.396 415.223,951.716 417.211,964.264 415.223,976.813 409.455,988.133 400.472,997.117 389.151,1002.88 
  376.603,1004.87 
  "/>
<path clip-path="url(#clip062)" d="
M376.603 841.52 L364.054 839.532 L352.734 833.765 L343.75 824.781 L337.982 813.461 L335.995 800.912 L337.982 788.363 L343.75 777.043 L352.734 768.059 L364.054 762.291 
  L376.603 760.304 L389.151 762.291 L400.472 768.059 L409.455 777.043 L415.223 788.363 L417.211 800.912 L415.223 813.461 L409.455 824.781 L400.472 833.765 L389.151 839.532 
  L376.603 841.52  Z
  " fill="#000000" fill-rule="evenodd" fill-opacity="0"/>
<polyline clip-path="url(#clip062)" style="stroke:#000000; stroke-linecap:butt; stroke-linejoin:round; stroke-width:4; stroke-opacity:1; fill:none" points="
  376.603,841.52 364.054,839.532 352.734,833.765 343.75,824.781 337.982,813.461 335.995,800.912 337.982,788.363 343.75,777.043 352.734,768.059 364.054,762.291 
  376.603,760.304 389.151,762.291 400.472,768.059 409.455,777.043 415.223,788.363 417.211,800.912 415.223,813.461 409.455,824.781 400.472,833.765 389.151,839.532 
  376.603,841.52 
  "/>
<path clip-path="url(#clip062)" d="
M376.603 678.168 L364.054 676.18 L352.734 670.412 L343.75 661.428 L337.982 650.108 L335.995 637.56 L337.982 625.011 L343.75 613.691 L352.734 604.707 L364.054 598.939 
  L376.603 596.952 L389.151 598.939 L400.472 604.707 L409.455 613.691 L415.223 625.011 L417.211 637.56 L415.223 650.108 L409.455 661.428 L400.472 670.412 L389.151 676.18 
  L376.603 678.168  Z
  " fill="#000000" fill-rule="evenodd" fill-opacity="0"/>
<polyline clip-path="url(#clip062)" style="stroke:#000000; stroke-linecap:butt; stroke-linejoin:round; stroke-width:4; stroke-opacity:1; fill:none" points="
  376.603,678.168 364.054,676.18 352.734,670.412 343.75,661.428 337.982,650.108 335.995,637.56 337.982,625.011 343.75,613.691 352.734,604.707 364.054,598.939 
  376.603,596.952 389.151,598.939 400.472,604.707 409.455,613.691 415.223,625.011 417.211,637.56 415.223,650.108 409.455,661.428 400.472,670.412 389.151,676.18 
  376.603,678.168 
  "/>
<path clip-path="url(#clip062)" d="
M2023.4 1127.62 L2012.72 1125.93 L2003.08 1121.02 L1995.44 1113.37 L1990.53 1103.74 L1988.84 1093.06 L1990.53 1082.38 L1995.44 1072.74 L2003.08 1065.1 L2012.72 1060.19 
  L2023.4 1058.5 L2034.08 1060.19 L2043.71 1065.1 L2051.36 1072.74 L2056.27 1082.38 L2057.96 1093.06 L2056.27 1103.74 L2051.36 1113.37 L2043.71 1121.02 L2034.08 1125.93 
  L2023.4 1127.62  Z
  " fill="#000000" fill-rule="evenodd" fill-opacity="0"/>
<polyline clip-path="url(#clip062)" style="stroke:#000000; stroke-linecap:butt; stroke-linejoin:round; stroke-width:4; stroke-opacity:1; fill:none" points="
  2023.4,1127.62 2012.72,1125.93 2003.08,1121.02 1995.44,1113.37 1990.53,1103.74 1988.84,1093.06 1990.53,1082.38 1995.44,1072.74 2003.08,1065.1 2012.72,1060.19 
  2023.4,1058.5 2034.08,1060.19 2043.71,1065.1 2051.36,1072.74 2056.27,1082.38 2057.96,1093.06 2056.27,1103.74 2051.36,1113.37 2043.71,1121.02 2034.08,1125.93 
  2023.4,1127.62 
  "/>
<path clip-path="url(#clip062)" d="
M2023.4 964.264 L2012.72 962.573 L2003.08 957.664 L1995.44 950.018 L1990.53 940.384 L1988.84 929.704 L1990.53 919.025 L1995.44 909.39 L2003.08 901.745 L2012.72 896.836 
  L2023.4 895.144 L2034.08 896.836 L2043.71 901.745 L2051.36 909.39 L2056.27 919.025 L2057.96 929.704 L2056.27 940.384 L2051.36 950.018 L2043.71 957.664 L2034.08 962.573 
  L2023.4 964.264  Z
  " fill="#000000" fill-rule="evenodd" fill-opacity="0"/>
<polyline clip-path="url(#clip062)" style="stroke:#000000; stroke-linecap:butt; stroke-linejoin:round; stroke-width:4; stroke-opacity:1; fill:none" points="
  2023.4,964.264 2012.72,962.573 2003.08,957.664 1995.44,950.018 1990.53,940.384 1988.84,929.704 1990.53,919.025 1995.44,909.39 2003.08,901.745 2012.72,896.836 
  2023.4,895.144 2034.08,896.836 2043.71,901.745 2051.36,909.39 2056.27,919.025 2057.96,929.704 2056.27,940.384 2051.36,950.018 2043.71,957.664 2034.08,962.573 
  2023.4,964.264 
  "/>
<path clip-path="url(#clip062)" d="
M2023.4 800.912 L2012.72 799.221 L2003.08 794.312 L1995.44 786.666 L1990.53 777.032 L1988.84 766.352 L1990.53 755.672 L1995.44 746.038 L2003.08 738.392 L2012.72 733.483 
  L2023.4 731.792 L2034.08 733.483 L2043.71 738.392 L2051.36 746.038 L2056.27 755.672 L2057.96 766.352 L2056.27 777.032 L2051.36 786.666 L2043.71 794.312 L2034.08 799.221 
  L2023.4 800.912  Z
  " fill="#000000" fill-rule="evenodd" fill-opacity="0"/>
<polyline clip-path="url(#clip062)" style="stroke:#000000; stroke-linecap:butt; stroke-linejoin:round; stroke-width:4; stroke-opacity:1; fill:none" points="
  2023.4,800.912 2012.72,799.221 2003.08,794.312 1995.44,786.666 1990.53,777.032 1988.84,766.352 1990.53,755.672 1995.44,746.038 2003.08,738.392 2012.72,733.483 
  2023.4,731.792 2034.08,733.483 2043.71,738.392 2051.36,746.038 2056.27,755.672 2057.96,766.352 2056.27,777.032 2051.36,786.666 2043.71,794.312 2034.08,799.221 
  2023.4,800.912 
  "/>
<path clip-path="url(#clip062)" d="
M2023.4 637.56 L2012.72 635.868 L2003.08 630.959 L1995.44 623.313 L1990.53 613.679 L1988.84 603 L1990.53 592.32 L1995.44 582.686 L2003.08 575.04 L2012.72 570.131 
  L2023.4 568.44 L2034.08 570.131 L2043.71 575.04 L2051.36 582.686 L2056.27 592.32 L2057.96 603 L2056.27 613.679 L2051.36 623.313 L2043.71 630.959 L2034.08 635.868 
  L2023.4 637.56  Z
  " fill="#000000" fill-rule="evenodd" fill-opacity="0"/>
<polyline clip-path="url(#clip062)" style="stroke:#000000; stroke-linecap:butt; stroke-linejoin:round; stroke-width:4; stroke-opacity:1; fill:none" points="
  2023.4,637.56 2012.72,635.868 2003.08,630.959 1995.44,623.313 1990.53,613.679 1988.84,603 1990.53,592.32 1995.44,582.686 2003.08,575.04 2012.72,570.131 
  2023.4,568.44 2034.08,570.131 2043.71,575.04 2051.36,582.686 2056.27,592.32 2057.96,603 2056.27,613.679 2051.36,623.313 2043.71,630.959 2034.08,635.868 
  2023.4,637.56 
  "/>
<path clip-path="url(#clip062)" d="
M2023.4 474.207 L2012.72 472.516 L2003.08 467.607 L1995.44 459.961 L1990.53 450.327 L1988.84 439.647 L1990.53 428.968 L1995.44 419.333 L2003.08 411.688 L2012.72 406.779 
  L2023.4 405.087 L2034.08 406.779 L2043.71 411.688 L2051.36 419.333 L2056.27 428.968 L2057.96 439.647 L2056.27 450.327 L2051.36 459.961 L2043.71 467.607 L2034.08 472.516 
  L2023.4 474.207  Z
  " fill="#000000" fill-rule="evenodd" fill-opacity="0"/>
<polyline clip-path="url(#clip062)" style="stroke:#000000; stroke-linecap:butt; stroke-linejoin:round; stroke-width:4; stroke-opacity:1; fill:none" points="
  2023.4,474.207 2012.72,472.516 2003.08,467.607 1995.44,459.961 1990.53,450.327 1988.84,439.647 1990.53,428.968 1995.44,419.333 2003.08,411.688 2012.72,406.779 
  2023.4,405.087 2034.08,406.779 2043.71,411.688 2051.36,419.333 2056.27,428.968 2057.96,439.647 2056.27,450.327 2051.36,459.961 2043.71,467.607 2034.08,472.516 
  2023.4,474.207 
  "/>
<path clip-path="url(#clip062)" d="M415.003 964.264 L357.403 930.664 L357.403 997.864 L415.003 964.264 Z" fill="#ffff00" fill-rule="evenodd" fill-opacity="1" stroke="#000000" stroke-opacity="1" stroke-width="3.2"/>
<path clip-path="url(#clip062)" d="M415.003 800.912 L357.403 767.312 L357.403 834.512 L415.003 800.912 Z" fill="#ffff00" fill-rule="evenodd" fill-opacity="1" stroke="#000000" stroke-opacity="1" stroke-width="3.2"/>
<path clip-path="url(#clip062)" d="M415.003 637.56 L357.403 603.96 L357.403 671.16 L415.003 637.56 Z" fill="#ffff00" fill-rule="evenodd" fill-opacity="1" stroke="#000000" stroke-opacity="1" stroke-width="3.2"/>
<circle clip-path="url(#clip062)" cx="2023.4" cy="1127.62" r="43" fill="#b0e2ff" fill-rule="evenodd" fill-opacity="1" stroke="#000000" stroke-opacity="1" stroke-width="3.2"/>
<circle clip-path="url(#clip062)" cx="2023.4" cy="964.264" r="43" fill="#b0e2ff" fill-rule="evenodd" fill-opacity="1" stroke="#000000" stroke-opacity="1" stroke-width="3.2"/>
<circle clip-path="url(#clip062)" cx="2023.4" cy="800.912" r="43" fill="#b0e2ff" fill-rule="evenodd" fill-opacity="1" stroke="#000000" stroke-opacity="1" stroke-width="3.2"/>
<circle clip-path="url(#clip062)" cx="2023.4" cy="637.56" r="43" fill="#b0e2ff" fill-rule="evenodd" fill-opacity="1" stroke="#000000" stroke-opacity="1" stroke-width="3.2"/>
<circle clip-path="url(#clip062)" cx="2023.4" cy="474.207" r="43" fill="#b0e2ff" fill-rule="evenodd" fill-opacity="1" stroke="#000000" stroke-opacity="1" stroke-width="3.2"/>
<path clip-path="url(#clip062)" d="M2061.8 1127.62 L2004.2 1094.02 L2004.2 1161.22 L2061.8 1127.62 Z" fill="#ffa500" fill-rule="evenodd" fill-opacity="1" stroke="#000000" stroke-opacity="1" stroke-width="3.2"/>
<path clip-path="url(#clip062)" d="M2061.8 964.264 L2004.2 930.664 L2004.2 997.864 L2061.8 964.264 Z" fill="#ffa500" fill-rule="evenodd" fill-opacity="1" stroke="#000000" stroke-opacity="1" stroke-width="3.2"/>
<path clip-path="url(#clip062)" d="M2061.8 800.912 L2004.2 767.312 L2004.2 834.512 L2061.8 800.912 Z" fill="#ffa500" fill-rule="evenodd" fill-opacity="1" stroke="#000000" stroke-opacity="1" stroke-width="3.2"/>
<path clip-path="url(#clip062)" d="M2061.8 637.56 L2004.2 603.96 L2004.2 671.16 L2061.8 637.56 Z" fill="#ffa500" fill-rule="evenodd" fill-opacity="1" stroke="#000000" stroke-opacity="1" stroke-width="3.2"/>
<path clip-path="url(#clip062)" d="M2061.8 474.207 L2004.2 440.607 L2004.2 507.807 L2061.8 474.207 Z" fill="#ffa500" fill-rule="evenodd" fill-opacity="1" stroke="#000000" stroke-opacity="1" stroke-width="3.2"/>
<path clip-path="url(#clip060)" d="M318.983 485.979 L322.985 484.522 L331.853 508.884 L327.85 510.341 L318.983 485.979 M315.531 476.495 L319.534 475.038 L321.378 480.106 L317.376 481.563 L315.531 476.495 Z" fill="#000000" fill-rule="evenodd" fill-opacity="1" /><path clip-path="url(#clip060)" d="M355.126 483.761 L360.478 498.465 L356.476 499.922 L351.171 485.348 Q349.913 481.89 347.939 480.662 Q345.964 479.434 343.267 480.416 Q340.026 481.596 338.908 484.343 Q337.789 487.09 339.087 490.658 L344.099 504.427 L340.075 505.891 L331.208 481.529 L335.232 480.064 L336.609 483.849 Q337.245 481.13 338.785 479.338 Q340.347 477.538 342.892 476.611 Q347.09 475.083 350.194 476.91 Q353.29 478.714 355.126 483.761 Z" fill="#000000" fill-rule="evenodd" fill-opacity="1" /><path clip-path="url(#clip060)" d="M371.003 490.496 L375.706 503.417 L371.682 504.881 L359.442 471.253 L363.466 469.788 L364.812 473.486 Q365.282 470.852 366.816 469.111 Q368.364 467.34 371.039 466.366 Q375.477 464.751 379.522 467.27 Q383.589 469.78 385.679 475.523 Q387.769 481.265 386.267 485.802 Q384.787 490.332 380.35 491.947 Q377.674 492.921 375.358 492.581 Q373.056 492.212 371.003 490.496 M381.524 477.035 Q379.917 472.619 377.179 470.783 Q374.456 468.917 371.28 470.073 Q368.104 471.228 367.195 474.417 Q366.3 477.575 367.907 481.991 Q369.515 486.407 372.238 488.273 Q374.976 490.109 378.152 488.953 Q381.328 487.797 382.223 484.639 Q383.131 481.451 381.524 477.035 Z" fill="#000000" fill-rule="evenodd" fill-opacity="1" /><path clip-path="url(#clip060)" d="M392.826 475.803 L387.458 461.056 L391.461 459.599 L396.773 474.194 Q398.032 477.653 400.014 478.902 Q401.988 480.13 404.685 479.148 Q407.926 477.968 409.045 475.221 Q410.185 472.466 408.887 468.899 L403.859 455.086 L407.862 453.629 L416.729 477.992 L412.727 479.448 L411.365 475.707 Q410.715 478.456 409.175 480.248 Q407.649 482.011 405.104 482.937 Q400.906 484.465 397.78 482.647 Q394.655 480.828 392.826 475.803 M397.316 456.803 L397.316 456.803 Z" fill="#000000" fill-rule="evenodd" fill-opacity="1" /><path clip-path="url(#clip060)" d="M417.547 442.271 L420.065 449.188 L428.309 446.187 L429.441 449.298 L421.197 452.298 L426.01 465.524 Q427.095 468.504 428.209 469.059 Q429.344 469.607 431.846 468.696 L435.957 467.2 L437.176 470.55 L433.065 472.046 Q428.432 473.732 426.044 472.655 Q423.649 471.556 421.986 466.988 L417.173 453.763 L414.236 454.832 L413.104 451.721 L416.041 450.653 L413.523 443.735 L417.547 442.271 Z" fill="#000000" fill-rule="evenodd" fill-opacity="1" /><path clip-path="url(#clip060)" d="M1747.09 412.568 Q1748.68 412.532 1750.58 413.615 Q1752.49 414.69 1754.84 416.94 L1762.53 424.192 L1757.81 425.91 L1750.62 419.091 Q1747.83 416.414 1745.91 415.903 Q1744.03 415.383 1741.42 416.333 L1736.63 418.075 L1741.63 431.8 L1737.23 433.4 L1725.41 400.924 L1735.33 397.314 Q1740.9 395.287 1744.49 396.617 Q1748.07 397.947 1749.78 402.645 Q1750.9 405.712 1750.2 408.258 Q1749.52 410.795 1747.09 412.568 M1731.12 402.935 L1735.32 414.464 L1740.84 412.453 Q1744.02 411.297 1745.1 409.254 Q1746.19 407.181 1745.15 404.331 Q1744.11 401.482 1741.96 400.64 Q1739.82 399.769 1736.64 400.924 L1731.12 402.935 Z" fill="#000000" fill-rule="evenodd" fill-opacity="1" /><path clip-path="url(#clip060)" d="M1782.05 402.159 L1782.76 404.117 L1764.36 410.814 Q1766.13 414.852 1769.14 416.22 Q1772.16 417.558 1776.14 416.109 Q1778.45 415.27 1780.39 413.921 Q1782.36 412.563 1784.08 410.656 L1785.46 414.441 Q1783.64 416.139 1781.55 417.441 Q1779.46 418.742 1777.14 419.59 Q1771.31 421.711 1766.66 419.561 Q1762.03 417.403 1759.92 411.617 Q1757.75 405.635 1759.69 400.961 Q1761.65 396.258 1767.13 394.263 Q1772.05 392.473 1776.05 394.612 Q1780.07 396.721 1782.05 402.159 M1777.62 402.441 Q1776.38 399.172 1773.86 397.872 Q1771.37 396.563 1768.41 397.64 Q1765.06 398.859 1763.73 401.488 Q1762.41 404.109 1763.36 407.656 L1777.62 402.441 Z" fill="#000000" fill-rule="evenodd" fill-opacity="1" /><path clip-path="url(#clip060)" d="M1802.42 383.142 L1803.78 386.883 Q1801.75 386.565 1799.86 386.734 Q1797.99 386.873 1796.25 387.506 Q1792.36 388.923 1791.11 392.187 Q1789.85 395.429 1791.47 399.888 Q1793.09 404.347 1796.15 406.043 Q1799.2 407.717 1803.09 406.3 Q1804.83 405.667 1806.36 404.592 Q1807.91 403.488 1809.26 401.935 L1810.61 405.633 Q1809.22 407.026 1807.56 408.075 Q1805.92 409.115 1803.89 409.852 Q1798.39 411.855 1793.89 409.576 Q1789.39 407.297 1787.25 401.424 Q1785.08 395.464 1787.1 390.861 Q1789.14 386.25 1794.84 384.176 Q1796.69 383.503 1798.6 383.253 Q1800.49 382.982 1802.42 383.142 Z" fill="#000000" fill-rule="evenodd" fill-opacity="1" /><path clip-path="url(#clip060)" d="M1814 394.571 L1808.63 379.823 L1812.63 378.366 L1817.94 392.962 Q1819.2 396.421 1821.19 397.67 Q1823.16 398.898 1825.86 397.916 Q1829.1 396.736 1830.22 393.989 Q1831.36 391.234 1830.06 387.666 L1825.03 373.854 L1829.03 372.397 L1837.9 396.759 L1833.9 398.216 L1832.54 394.475 Q1831.89 397.224 1830.35 399.016 Q1828.82 400.779 1826.27 401.705 Q1822.08 403.233 1818.95 401.414 Q1815.83 399.596 1814 394.571 M1818.49 375.57 L1818.49 375.57 Z" fill="#000000" fill-rule="evenodd" fill-opacity="1" /><path clip-path="url(#clip060)" d="M1852.76 368 Q1851.94 367.853 1851.07 367.972 Q1850.22 368.062 1849.26 368.41 Q1845.87 369.645 1844.85 372.529 Q1843.84 375.383 1845.35 379.516 L1850.02 392.349 L1845.99 393.814 L1837.12 369.452 L1841.15 367.987 L1842.53 371.772 Q1842.98 369.094 1844.62 367.292 Q1846.24 365.468 1849.14 364.415 Q1849.55 364.265 1850.07 364.148 Q1850.59 364.009 1851.24 363.896 L1852.76 368 Z" fill="#000000" fill-rule="evenodd" fill-opacity="1" /><path clip-path="url(#clip060)" d="M1861.77 349.79 Q1860.68 355.854 1861.04 361.263 Q1861.41 366.672 1863.24 371.697 Q1865.07 376.721 1868.28 381.145 Q1871.51 385.538 1876.21 389.466 L1872.73 390.733 Q1867.61 386.809 1864.18 382.465 Q1860.77 378.113 1859 373.241 Q1857.23 368.39 1857.05 362.888 Q1856.87 357.386 1858.29 351.057 L1861.77 349.79 Z" fill="#000000" fill-rule="evenodd" fill-opacity="1" /><path clip-path="url(#clip060)" d="M1891.87 359.872 Q1893.46 359.836 1895.36 360.919 Q1897.28 361.994 1899.62 364.244 L1907.31 371.496 L1902.59 373.214 L1895.4 366.395 Q1892.61 363.718 1890.7 363.206 Q1888.81 362.687 1886.2 363.637 L1881.41 365.379 L1886.41 379.104 L1882.01 380.703 L1870.19 348.228 L1880.11 344.617 Q1885.68 342.591 1889.27 343.921 Q1892.86 345.25 1894.57 349.949 Q1895.68 353.016 1894.98 355.561 Q1894.31 358.099 1891.87 359.872 M1875.9 350.239 L1880.1 361.768 L1885.62 359.757 Q1888.8 358.601 1889.88 356.558 Q1890.97 354.485 1889.93 351.635 Q1888.9 348.786 1886.74 347.944 Q1884.6 347.072 1881.43 348.228 L1875.9 350.239 Z" fill="#000000" fill-rule="evenodd" fill-opacity="1" /><path clip-path="url(#clip060)" d="M1901.15 336.962 L1907.06 334.808 L1931.35 356.735 L1921.46 329.567 L1925.73 328.015 L1937.55 360.491 L1931.63 362.645 L1907.34 340.717 L1917.23 367.886 L1912.97 369.437 L1901.15 336.962 Z" fill="#000000" fill-rule="evenodd" fill-opacity="1" /><path clip-path="url(#clip060)" d="M1934.47 324.833 L1940.39 322.679 L1964.68 344.606 L1954.79 317.438 L1959.05 315.886 L1970.87 348.362 L1964.95 350.516 L1940.67 328.588 L1950.55 355.757 L1946.29 357.308 L1934.47 324.833 Z" fill="#000000" fill-rule="evenodd" fill-opacity="1" /><path clip-path="url(#clip060)" d="M1993.02 306.354 L1994.71 310.987 Q1991.74 309.728 1988.84 309.624 Q1985.97 309.512 1983.14 310.541 Q1977.57 312.568 1975.86 317.06 Q1974.14 321.53 1976.48 327.969 Q1978.81 334.386 1983.02 336.724 Q1987.21 339.04 1992.78 337.014 Q1995.61 335.984 1997.73 334.052 Q1999.89 332.111 2001.35 329.237 L2003.02 333.827 Q2001.29 336.232 1998.98 337.957 Q1996.7 339.674 1993.83 340.72 Q1986.46 343.403 1980.58 340.445 Q1974.69 337.464 1971.85 329.655 Q1969 321.824 1971.6 315.778 Q1974.19 309.71 1981.57 307.026 Q1984.48 305.965 1987.33 305.814 Q1990.2 305.633 1993.02 306.354 Z" fill="#000000" fill-rule="evenodd" fill-opacity="1" /><path clip-path="url(#clip060)" d="M2026.59 313.155 L2027.3 315.113 L2008.9 321.811 Q2010.66 325.848 2013.67 327.216 Q2016.7 328.554 2020.68 327.105 Q2022.98 326.266 2024.93 324.917 Q2026.9 323.559 2028.62 321.652 L2030 325.437 Q2028.18 327.135 2026.09 328.437 Q2024 329.739 2021.67 330.586 Q2015.84 332.707 2011.19 330.557 Q2006.57 328.399 2004.46 322.613 Q2002.28 316.631 2004.23 311.957 Q2006.19 307.254 2011.67 305.259 Q2016.58 303.469 2020.59 305.608 Q2024.61 307.717 2026.59 313.155 M2022.16 313.437 Q2020.92 310.168 2018.4 308.868 Q2015.9 307.559 2012.95 308.636 Q2009.6 309.855 2008.26 312.484 Q2006.95 315.105 2007.9 318.653 L2022.16 313.437 Z" fill="#000000" fill-rule="evenodd" fill-opacity="1" /><path clip-path="url(#clip060)" d="M2025.63 290.1 L2029.64 288.643 L2041.96 322.489 L2037.95 323.946 L2025.63 290.1 Z" fill="#000000" fill-rule="evenodd" fill-opacity="1" /><path clip-path="url(#clip060)" d="M2038.01 285.595 L2042.01 284.138 L2054.33 317.984 L2050.33 319.441 L2038.01 285.595 Z" fill="#000000" fill-rule="evenodd" fill-opacity="1" /><path clip-path="url(#clip060)" d="M2060.02 277.634 Q2058.92 283.698 2059.29 289.107 Q2059.66 294.516 2061.49 299.54 Q2063.32 304.565 2066.53 308.988 Q2069.75 313.382 2074.46 317.31 L2070.98 318.577 Q2065.86 314.652 2062.43 310.308 Q2059.02 305.957 2057.25 301.084 Q2055.48 296.233 2055.3 290.732 Q2055.12 285.23 2056.54 278.901 L2060.02 277.634 Z" fill="#000000" fill-rule="evenodd" fill-opacity="1" /><path clip-path="url(#clip060)" d="M2087.59 286.049 Q2090.99 285.575 2093.53 287.066 Q2096.09 288.548 2097.23 291.68 Q2098.98 296.488 2096.63 300.323 Q2094.28 304.158 2088.19 306.375 Q2086.15 307.119 2083.82 307.498 Q2081.52 307.89 2078.93 307.924 L2077.38 303.683 Q2079.6 304.084 2081.97 303.836 Q2084.34 303.588 2086.71 302.725 Q2090.85 301.221 2092.41 298.805 Q2093.99 296.382 2092.86 293.272 Q2091.81 290.401 2089.2 289.527 Q2086.61 288.624 2083.02 289.93 L2079.23 291.308 L2077.92 287.697 L2081.88 286.256 Q2085.12 285.077 2086.37 283.168 Q2087.61 281.237 2086.73 278.801 Q2085.82 276.3 2083.55 275.622 Q2081.3 274.914 2077.99 276.118 Q2076.19 276.775 2074.26 277.919 Q2072.34 279.062 2070.16 280.791 L2068.73 276.876 Q2070.98 275.27 2073.03 274.13 Q2075.1 272.982 2077.04 272.278 Q2082.04 270.457 2085.79 271.68 Q2089.52 272.881 2090.93 276.753 Q2091.92 279.45 2091.05 281.883 Q2090.18 284.294 2087.59 286.049 Z" fill="#000000" fill-rule="evenodd" fill-opacity="1" /><path clip-path="url(#clip060)" d="M2107.44 292.397 L2112.03 290.727 L2113.39 294.468 L2112.36 302.727 L2109.55 303.748 L2108.8 296.139 L2107.44 292.397 Z" fill="#000000" fill-rule="evenodd" fill-opacity="1" /><path clip-path="url(#clip060)" d="M2125.54 255.289 L2142.79 249.011 L2144.14 252.709 L2130.91 257.522 L2133.81 265.483 Q2134.65 264.809 2135.55 264.308 Q2136.44 263.786 2137.4 263.437 Q2142.84 261.458 2147.1 263.282 Q2151.36 265.106 2153.21 270.196 Q2155.12 275.439 2152.92 279.541 Q2150.71 283.621 2144.77 285.783 Q2142.72 286.527 2140.47 286.955 Q2138.23 287.375 2135.71 287.502 L2134.11 283.086 Q2136.45 283.44 2138.73 283.202 Q2141.01 282.964 2143.34 282.117 Q2147.1 280.747 2148.57 277.968 Q2150.05 275.189 2148.82 271.796 Q2147.58 268.402 2144.66 267.222 Q2141.75 266.043 2137.98 267.412 Q2136.22 268.054 2134.6 269.086 Q2133 270.111 2131.48 271.603 L2125.54 255.289 Z" fill="#000000" fill-rule="evenodd" fill-opacity="1" /><path clip-path="url(#clip060)" d="M2164.11 271.773 L2168.7 270.103 L2170.06 273.844 L2169.02 282.103 L2166.22 283.124 L2165.47 275.515 L2164.11 271.773 Z" fill="#000000" fill-rule="evenodd" fill-opacity="1" /><path clip-path="url(#clip060)" d="M2185.99 234.642 L2188.51 241.559 L2196.75 238.559 L2197.88 241.669 L2189.64 244.67 L2194.45 257.895 Q2195.54 260.875 2196.65 261.43 Q2197.79 261.978 2200.29 261.067 L2204.4 259.571 L2205.62 262.921 L2201.51 264.417 Q2196.87 266.104 2194.49 265.026 Q2192.09 263.928 2190.43 259.36 L2185.62 246.134 L2182.68 247.203 L2181.55 244.093 L2184.48 243.024 L2181.97 236.107 L2185.99 234.642 Z" fill="#000000" fill-rule="evenodd" fill-opacity="1" /><path clip-path="url(#clip060)" d="M2217.5 244.729 Q2212.65 246.494 2211.18 248.284 Q2209.71 250.075 2210.69 252.75 Q2211.46 254.882 2213.31 255.637 Q2215.18 256.362 2217.59 255.483 Q2220.92 254.272 2222.07 251.194 Q2223.23 248.087 2221.8 244.172 L2221.48 243.28 L2217.5 244.729 M2224.88 240.17 L2229.94 254.07 L2225.93 255.526 L2224.59 251.828 Q2224.03 254.546 2222.37 256.356 Q2220.7 258.144 2217.75 259.221 Q2214 260.583 2211.03 259.302 Q2208.06 257.992 2206.78 254.468 Q2205.28 250.357 2207.26 247.271 Q2209.27 244.177 2214.73 242.19 L2220.34 240.148 L2220.19 239.756 Q2219.19 236.994 2216.82 236.158 Q2214.46 235.292 2211.17 236.488 Q2209.08 237.248 2207.29 238.468 Q2205.49 239.689 2204.03 241.355 L2202.68 237.657 Q2204.57 236.009 2206.48 234.844 Q2208.39 233.656 2210.35 232.944 Q2215.64 231.02 2219.24 232.811 Q2222.85 234.601 2224.88 240.17 Z" fill="#000000" fill-rule="evenodd" fill-opacity="1" /><path clip-path="url(#clip060)" d="M2253.08 228.994 L2258.43 243.698 L2254.43 245.155 L2249.13 230.581 Q2247.87 227.122 2245.89 225.895 Q2243.92 224.667 2241.22 225.649 Q2237.98 226.829 2236.86 229.576 Q2235.74 232.323 2237.04 235.891 L2242.05 249.66 L2238.03 251.124 L2229.16 226.762 L2233.19 225.297 L2234.56 229.082 Q2235.2 226.363 2236.74 224.571 Q2238.3 222.77 2240.85 221.844 Q2245.04 220.316 2248.15 222.143 Q2251.24 223.947 2253.08 228.994 Z" fill="#000000" fill-rule="evenodd" fill-opacity="1" /><path clip-path="url(#clip060)" d="M2281.31 218.717 L2286.67 233.422 L2282.66 234.879 L2277.36 220.305 Q2276.1 216.846 2274.13 215.619 Q2272.15 214.391 2269.46 215.373 Q2266.21 216.552 2265.1 219.3 Q2263.98 222.047 2265.28 225.614 L2270.29 239.383 L2266.26 240.848 L2253.94 207.002 L2257.97 205.537 L2262.8 218.806 Q2263.43 216.086 2264.97 214.294 Q2266.54 212.494 2269.08 211.568 Q2273.28 210.04 2276.38 211.866 Q2279.48 213.671 2281.31 218.717 Z" fill="#000000" fill-rule="evenodd" fill-opacity="1" /><path clip-path="url(#clip060)" d="M2281.72 196.943 L2285.2 195.676 Q2290.33 199.622 2293.73 203.952 Q2297.15 208.275 2298.91 213.125 Q2300.69 217.998 2300.85 223.529 Q2301.04 229.053 2299.64 235.352 L2296.16 236.619 Q2297.24 230.585 2296.86 225.154 Q2296.5 219.694 2294.67 214.669 Q2292.84 209.644 2289.62 205.273 Q2286.43 200.893 2281.72 196.943 Z" fill="#000000" fill-rule="evenodd" fill-opacity="1" /><path clip-path="url(#clip060)" d="M2299.1 190.617 L2302.58 189.351 Q2307.71 193.297 2311.11 197.627 Q2314.53 201.949 2316.29 206.8 Q2318.07 211.672 2318.23 217.203 Q2318.42 222.727 2317.02 229.026 L2313.54 230.293 Q2314.62 224.259 2314.24 218.828 Q2313.88 213.368 2312.05 208.343 Q2310.22 203.319 2307 198.947 Q2303.81 194.567 2299.1 190.617 Z" fill="#000000" fill-rule="evenodd" fill-opacity="1" /></svg>
